<?xml version="1.0" encoding="iso-8859-1"?>
<!-- Generator: Adobe Illustrator 19.0.0, SVG Export Plug-In . SVG Version: 6.00 Build 0)  -->
<svg version="1.1" id="Capa_1" xmlns="http://www.w3.org/2000/svg" xmlns:xlink="http://www.w3.org/1999/xlink" x="0px" y="0px"
	 viewBox="0 0 511.999 511.999" style="enable-background:new 0 0 511.999 511.999;" xml:space="preserve">
<path style="fill:#C37A4F;" d="M232.071,504.499h-9.322c-5.523,0-10-4.477-10-10v-477c0-5.523,4.477-10,10-10h9.322
	c5.523,0,10,4.477,10,10v477C242.071,500.022,237.594,504.499,232.071,504.499z"/>
<path style="fill:#F0C087;" d="M477.096,263.253c-0.279,11.068-6.684,21.08-16.655,26.031l0,0c-2.154,1.07-3.835,2.892-4.719,5.116
	l-46.531,116.995c-17.687,44.471-60.941,73.691-109.085,73.691h-159.93c-50.225,0-94.876-31.761-111.043-78.988L8.019,344.425
	c-1.057-3.087-0.483-6.494,1.528-9.071l24.144-30.94c1.851-2.372,4.703-3.761,7.725-3.761h18.976c2.901,0,5.652,1.28,7.508,3.493
	l22.493,26.808c14.856,17.705,36.862,27.942,60.068,27.942h119.681c19.656,0,38.592-7.353,53.035-20.594l101.788-93.316
	c1.805-1.655,4.172-2.574,6.629-2.574h46.025L477.096,263.253z"/>
<path style="fill:#E6AF78;" d="M477.621,242.41l-0.525,20.843c-0.279,11.068-6.684,21.08-16.655,26.031
	c-2.154,1.069-3.835,2.891-4.719,5.116l-46.531,116.995c-17.687,44.471-60.941,73.69-109.085,73.69h-32.009
	c48.144,0,91.398-29.219,109.085-73.69L423.713,294.4c0.885-2.225,2.565-4.047,4.719-5.116c9.971-4.952,16.376-14.963,16.655-26.031
	l0.525-20.843H477.621z"/>
<path style="fill:#D5945E;" d="M366.488,464.61c1.165,2.146,1.828,4.6,1.828,7.209c0,8.399-6.856,15.208-15.312,15.208
	c-6.079,0-11.315-3.527-13.787-8.625c-12.339,4.341-25.526,6.684-39.111,6.684h-159.93c-46.199,0-87.662-26.885-106.599-67.949
	h373.127C397.708,436.64,383.662,452.892,366.488,464.61z"/>
<path style="fill:#C37A4F;" d="M374.696,417.137h32.009c-8.997,19.504-23.043,35.755-40.216,47.473
	c1.165,2.146,1.828,4.6,1.828,7.209c0,8.399-6.856,15.208-15.312,15.208c-6.079,0-11.315-3.527-13.787-8.625
	c-12.339,4.341-25.526,6.684-39.111,6.684h-31.998C314.14,485.081,355.682,458.354,374.696,417.137z"/>
<path style="fill:#FFA5A5;" d="M124.687,150.483L319.612,9.423c5.174-3.744,12.506-1.815,15.135,3.982l11.392,25.12
	c0.48,1.058,1.141,2.026,1.955,2.859l34.425,35.262c1.708,1.75,2.715,4.058,2.833,6.492l1.739,35.962
	c0.076,1.579,0.528,3.117,1.317,4.489l16.866,29.313c1.346,2.339,1.686,5.119,0.944,7.71l-8.204,28.641
	c-0.473,1.651-0.511,3.395-0.11,5.065l8.888,37.001c0.385,1.603,0.366,3.275-0.055,4.868l-8.779,33.203
	c-0.436,1.649-0.441,3.381-0.014,5.033l6.331,24.516c1.597,6.183-2.959,12.253-9.382,12.498l-261.946,10.006
	c-6.965,0.266-12.096-6.397-10.012-13.003l1.101-3.49c0.615-1.949,0.615-4.039,0-5.988l-4.539-14.393
	c-0.546-1.732-0.608-3.579-0.18-5.344l5.008-20.61c0.429-1.765,0.367-3.612-0.18-5.344l-4.56-14.457
	c-0.602-1.909-0.615-3.953-0.037-5.869l4.544-15.063c0.578-1.916,0.565-3.96-0.037-5.869l-4.49-14.236
	c-0.59-1.871-0.614-3.874-0.069-5.758l4.604-15.925c0.572-1.978,0.516-4.082-0.158-6.027l-2.853-8.226
	C119.647,157.682,121.106,153.074,124.687,150.483z"/>
<path style="fill:#FF4B4B;" d="M406.793,231.32c0.385,1.603,0.366,3.275-0.055,4.868l-8.779,33.203
	c-0.436,1.649-0.441,3.381-0.015,5.033l6.331,24.516c1.597,6.183-2.959,12.252-9.382,12.498l-261.946,10.006
	c-6.965,0.266-12.096-6.397-10.012-13.004l1.101-3.49c0.615-1.949,0.615-4.038,0-5.988l-4.539-14.393
	c-0.546-1.732-0.608-3.579-0.18-5.344l4.929-20.286l278.04-46.38L406.793,231.32z"/>
<path style="fill:#FF6969;" d="M406.793,231.32c0.197,0.82,0.285,1.657,0.271,2.494l-288.02,48.046
	c-0.025-0.882,0.064-1.767,0.274-2.633l5.008-20.609c0.429-1.765,0.367-3.612-0.18-5.344l-4.56-14.457
	c-0.602-1.909-0.615-3.953-0.037-5.869l4.544-15.063c0.578-1.916,0.565-3.96-0.037-5.869l-4.49-14.235
	c-0.315-0.998-0.456-2.032-0.448-3.067L384.534,79.637c0.48,1.1,0.761,2.285,0.819,3.501l1.739,35.962
	c0.076,1.579,0.528,3.117,1.317,4.49l16.866,29.313c1.346,2.34,1.686,5.119,0.944,7.711l-8.204,28.64
	c-0.473,1.651-0.511,3.396-0.11,5.065L406.793,231.32z"/>
<path style="fill:#FF8787;" d="M119.567,197.779c-0.315-0.998-0.456-2.032-0.448-3.067L384.534,79.637
	c0.48,1.1,0.761,2.285,0.819,3.501l1.739,35.962c0.076,1.579,0.528,3.117,1.317,4.49l16.866,29.313
	c0.695,1.208,1.116,2.533,1.264,3.889l-287.405,78.965c0.006-0.947,0.139-1.894,0.415-2.81l4.544-15.063
	c0.578-1.916,0.565-3.96-0.037-5.869L119.567,197.779z"/>
<path style="fill:#A1D7FC;" d="M492.282,496.733c0,2.659-0.271,5.256-0.784,7.766H23.921c-0.513-2.509-0.784-5.106-0.784-7.766
	c0-21.444,17.504-38.828,39.095-38.828c13.602,0,25.576,6.902,32.58,17.368c7.003-10.466,18.978-17.368,32.579-17.368
	c13.602,0,25.576,6.902,32.579,17.368c7.003-10.466,18.978-17.368,32.579-17.368c13.602,0,25.576,6.902,32.58,17.368
	c7.003-10.466,18.978-17.368,32.579-17.368c13.601,0,25.576,6.902,32.58,17.368c7.003-10.466,18.978-17.368,32.579-17.368
	c13.602,0,25.576,6.902,32.579,17.368c7.003-10.466,18.978-17.368,32.579-17.368c13.602,0,25.576,6.902,32.58,17.368
	c7.003-10.466,18.978-17.368,32.579-17.368C474.778,457.905,492.282,475.289,492.282,496.733z"/>
<path d="M462.948,295.214c0.2-0.507,0.578-0.92,1.064-1.163c12.408-6.206,20.33-18.68,20.677-32.552l0.455-18.198l21.237-21.875
	c2.885-2.973,2.815-7.721-0.157-10.605c-2.972-2.886-7.72-2.815-10.605,0.156l-21.35,21.992h-42.247
	c-4.338,0-8.482,1.621-11.67,4.564l-7.4,6.834l1.647-6.273c0.729-2.775,0.762-5.718,0.097-8.512l-8.823-37.002
	c-0.1-0.419-0.09-0.859,0.027-1.273l8.144-28.641c1.28-4.502,0.683-9.415-1.639-13.481l-16.742-29.31
	c-0.197-0.345-0.311-0.736-0.33-1.131l-1.726-35.963c-0.204-4.259-1.951-8.29-4.918-11.352l-34.176-35.262
	c-0.203-0.209-0.367-0.451-0.487-0.717l-11.31-25.119c-2.176-4.834-6.361-8.385-11.484-9.741
	c-5.123-1.358-10.516-0.345-14.798,2.776l-65.06,47.426V17.209c0-9.488-7.717-17.207-17.202-17.207h-9.703
	c-9.486,0-17.203,7.719-17.203,17.207v65.735l-84.342,61.481c-6.255,4.56-8.764,12.541-6.244,19.861l2.832,8.226
	c0.169,0.491,0.183,1.016,0.04,1.516l-4.571,15.926c-0.949,3.306-0.907,6.787,0.121,10.068l4.457,14.236
	c0.151,0.481,0.154,0.992,0.009,1.476l-4.511,15.063c-1.007,3.362-0.985,6.911,0.064,10.262l4.526,14.457
	c0.136,0.436,0.152,0.899,0.044,1.344l-4.971,20.61c-0.744,3.083-0.637,6.313,0.312,9.344l4.506,14.392
	c0.154,0.492,0.154,1.013,0,1.505l-1.093,3.49c-1.699,5.427-0.651,11.362,2.803,15.878c3.316,4.337,8.476,6.875,13.912,6.875
	c0.223,0,0.447-0.005,0.67-0.014l71.434-2.749v23.262h-54.335c-20.872,0-40.506-9.2-53.869-25.242l-22.329-26.806
	c-3.278-3.936-8.096-6.193-13.217-6.193h-18.84c-5.28,0-10.363,2.492-13.599,6.668L7.108,328.819
	C3.56,333.4,2.555,339.41,4.419,344.895l20.96,61.674c5.8,17.065,15.226,32.575,27.556,45.537
	c-19.53,5.44-33.907,23.38-33.907,44.627c0,3.109,0.312,6.224,0.928,9.257c0.709,3.496,3.783,6.009,7.35,6.009h340.602
	c4.142,0,7.5-3.357,7.5-7.5s-3.358-7.5-7.5-7.5H34.029c0-0.089-0.001-0.177-0.001-0.266c0-17.274,14.046-31.328,31.311-31.328
	c10.509,0,20.264,5.24,26.096,14.018c1.39,2.092,3.735,3.35,6.247,3.35s4.857-1.258,6.247-3.35
	c5.831-8.778,15.587-14.018,26.096-14.018s20.265,5.24,26.096,14.018c1.39,2.092,3.735,3.35,6.247,3.35s4.857-1.258,6.247-3.35
	c5.831-8.778,15.587-14.018,26.096-14.018s20.265,5.24,26.096,14.018c1.39,2.092,3.735,3.35,6.247,3.35s4.857-1.258,6.247-3.35
	c5.831-8.778,15.587-14.018,26.096-14.018s20.264,5.24,26.096,14.018c1.39,2.092,3.735,3.35,6.247,3.35
	c2.512,0,4.857-1.258,6.247-3.35c5.831-8.778,15.587-14.018,26.096-14.018s20.264,5.24,26.096,14.018
	c1.39,2.092,3.735,3.35,6.247,3.35c2.512,0,4.857-1.258,6.247-3.35c5.831-8.778,15.587-14.018,26.096-14.018
	s20.264,5.24,26.096,14.018c1.39,2.092,3.735,3.35,6.247,3.35c2.512,0,4.857-1.258,6.247-3.35
	c5.831-8.778,15.587-14.018,26.096-14.018c17.265,0,31.311,14.054,31.311,31.328c0,0.089,0,0.177-0.001,0.266H397.34
	c-4.142,0-7.5,3.357-7.5,7.5s3.358,7.5,7.5,7.5h94.148c3.567,0,6.641-2.513,7.35-6.009c0.616-3.033,0.928-6.147,0.928-9.257
	c0-25.545-20.775-46.328-46.311-46.328c-12.237,0-23.78,4.799-32.343,13.169c-6.839-6.685-15.581-11.083-25.058-12.586
	c9.942-13.61,16.962-29.313,20.7-38.781L462.948,295.214z M133.96,251.033l-3.126-9.985l266.281-73.696l-5.645,19.852
	c-0.82,2.881-0.885,5.944-0.19,8.856l7.544,31.636l-267.511,44.95l2.959-12.269C135.016,257.293,134.909,254.062,133.96,251.033z
	 M222.264,17.209c0-1.217,0.988-2.207,2.203-2.207h9.703c1.214,0,2.203,0.99,2.203,2.207v44.516L222.264,72.01L222.264,17.209
	L222.264,17.209z M131.758,156.546l193.51-141.06c0.518-0.377,1.038-0.483,1.462-0.483c0.266,0,0.493,0.042,0.659,0.086
	c0.432,0.114,1.22,0.447,1.648,1.398l11.311,25.122c0.836,1.856,1.979,3.537,3.393,4.997l29.281,30.212l-50.497,22.054
	c-3.796,1.657-5.529,6.079-3.872,9.875c1.231,2.818,3.986,4.5,6.877,4.5c1.002,0,2.021-0.202,2.998-0.629l50.436-22.027
	l1.386,28.873c0.132,2.746,0.923,5.459,2.287,7.848l14.049,24.596l-264.247,73.133l1.499-5.004
	c1.007-3.363,0.985-6.911-0.064-10.261l-3.345-10.683l171.205-74.772c3.796-1.658,5.529-6.079,3.871-9.875
	c-1.657-3.795-6.08-5.528-9.875-3.871l-162.764,71.084l1.002-3.492c0.998-3.476,0.903-7.12-0.274-10.54l-2.832-8.226
	C130.499,158.349,130.859,157.201,131.758,156.546z M135.253,313.951c-1.131,0.034-1.795-0.599-2.091-0.984
	c-0.296-0.388-0.742-1.199-0.403-2.284l1.093-3.49c1.072-3.425,1.072-7.045,0-10.47l-2.764-8.828l266.693-44.813l-6.406,24.406
	c-0.755,2.877-0.764,5.919-0.026,8.8l6.285,24.516c0.26,1.016-0.151,1.771-0.42,2.132c-0.268,0.359-0.874,0.969-1.917,1.01
	L135.253,313.951z M329.437,321.49l-10.135,9.36c-12.991,11.996-29.882,18.603-47.562,18.603h-20.368v-24.959L329.437,321.49z
	 M222.264,325.614l14.109-0.543v24.382h-14.109V325.614z M356.426,463.574c-8.563-8.37-20.106-13.169-32.343-13.169
	s-23.78,4.799-32.343,13.169c-8.563-8.37-20.106-13.169-32.343-13.169s-23.78,4.799-32.343,13.169
	c-8.563-8.37-20.106-13.169-32.343-13.169s-23.78,4.799-32.343,13.169c-8.563-8.37-20.106-13.169-32.343-13.169
	s-23.78,4.799-32.343,13.169c-6.546-6.398-14.835-10.7-23.842-12.376c-0.226-0.246-0.464-0.484-0.728-0.704
	c-9.499-7.891-17.531-17.302-23.821-27.8h65.048c4.142,0,7.5-3.357,7.5-7.5s-3.358-7.5-7.5-7.5H41.814
	c-0.796-1.96-1.549-3.94-2.233-5.951l-20.96-61.674c-0.239-0.705-0.11-1.477,0.345-2.064l23.968-30.939
	c0.415-0.535,1.065-0.854,1.741-0.854h18.838c0.655,0,1.271,0.289,1.691,0.793l22.33,26.806
	c16.221,19.474,40.056,30.642,65.394,30.642H271.74c21.463,0,41.968-8.02,57.739-22.584l23.029-21.267l43.367-1.668
	c5.315-0.205,10.186-2.769,13.365-7.032c3.18-4.266,4.246-9.668,2.924-14.822l-6.285-24.516c-0.105-0.409-0.103-0.84,0.002-1.249
	l24.647-22.761c0.408-0.377,0.938-0.584,1.493-0.584h38.001l-0.329,13.155c-0.208,8.315-4.956,15.792-12.391,19.511
	c-3.797,1.898-6.747,5.119-8.307,9.07L402.802,406.7c-0.125,0.315-0.268,0.665-0.4,0.995H142.478c-4.142,0-7.5,3.357-7.5,7.5
	s3.358,7.5,7.5,7.5h253.175c-5.012,9.964-11.782,21.097-20.046,29.263c-0.16,0.158-0.308,0.324-0.451,0.493
	C368.136,454.606,361.712,458.407,356.426,463.574z"/>
<g>
</g>
<g>
</g>
<g>
</g>
<g>
</g>
<g>
</g>
<g>
</g>
<g>
</g>
<g>
</g>
<g>
</g>
<g>
</g>
<g>
</g>
<g>
</g>
<g>
</g>
<g>
</g>
<g>
</g>
</svg>
