<?xml version="1.0" encoding="iso-8859-1"?>
<!-- Generator: Adobe Illustrator 19.0.0, SVG Export Plug-In . SVG Version: 6.00 Build 0)  -->
<svg version="1.1" id="Capa_1" xmlns="http://www.w3.org/2000/svg" xmlns:xlink="http://www.w3.org/1999/xlink" x="0px" y="0px"
	 viewBox="0 0 512 512" style="enable-background:new 0 0 512 512;" xml:space="preserve">
<path style="fill:#F0C087;" d="M494.793,307.121V483.5H17.207V307.121c0-5.352,4.346-9.691,9.707-9.691h10.678v-24.228
	c0-2.676,2.173-4.846,4.854-4.846H61.86c2.681,0,4.854,2.169,4.854,4.846v24.228h29.121v-24.228c0-2.676,2.173-4.846,4.854-4.846
	h19.414c2.681,0,4.854,2.169,4.854,4.846v24.228h262.09v-24.228c0-2.676,2.173-4.846,4.854-4.846h19.414
	c2.681,0,4.854,2.169,4.854,4.846v24.228h29.121v-24.228c0-2.676,2.173-4.846,4.854-4.846h19.414c2.681,0,4.854,2.169,4.854,4.846
	v24.228h10.678C490.447,297.43,494.793,301.769,494.793,307.121z"/>
<path style="fill:#D5945E;" d="M494.793,326.503V483.5H17.207V326.503H172.52v-186.07h166.96v186.07H494.793z"/>
<path style="fill:#CE8855;" d="M494.793,326.503V483.5h-28.15V326.503H494.793z M310.359,384.65h29.121V140.433h-29.121V384.65z"/>
<path style="fill:#C83741;" d="M372.484,132.68H139.516l29.121-50.394h174.727L372.484,132.68z"/>
<path style="fill:#963737;" d="M383.093,122.989c4.324,0,6.49,5.219,3.432,8.272l-19.414,19.382
	c-0.91,0.909-2.145,1.419-3.432,1.419h-42.642H190.963h-42.642c-1.287,0-2.522-0.511-3.432-1.419l-19.414-19.382
	c-3.058-3.053-0.892-8.272,3.432-8.272h32.935h188.316H383.093z"/>
<path style="fill:#E6AF78;" d="M504.5,457.334v21.321c0,2.676-2.173,4.846-4.854,4.846H357.924H154.076H12.354
	c-2.681,0-4.854-2.169-4.854-4.846v-21.321c0-2.676,2.173-4.846,4.854-4.846h141.723v-208.36v-4.846v-24.228
	c0-2.676,2.173-4.846,4.854-4.846h19.414c2.681,0,4.854,2.169,4.854,4.846v24.228h29.121v-24.228c0-2.676,2.173-4.846,4.854-4.846
	h19.414c2.681,0,4.854,2.169,4.854,4.846v24.228h29.121v-24.228c0-2.676,2.173-4.846,4.854-4.846h19.414
	c2.681,0,4.854,2.169,4.854,4.846v24.228h29.121v-24.228c0-2.676,2.173-4.846,4.854-4.846h19.414c2.681,0,4.854,2.169,4.854,4.846
	v24.228v4.846v208.36h141.723C502.327,452.488,504.5,454.658,504.5,457.334z"/>
<path style="fill:#963737;" d="M344.334,86.162H167.666V55.151h176.668L344.334,86.162L344.334,86.162z"/>
<path style="fill:#F0C087;" d="M357.924,215.055v24.228v4.846v24.228H154.076v-24.228v-4.846v-24.228
	c0-2.676,2.173-4.846,4.854-4.846h19.414c2.681,0,4.854,2.169,4.854,4.846v24.228h29.121v-24.228c0-2.676,2.173-4.846,4.854-4.846
	h19.414c2.681,0,4.854,2.169,4.854,4.846v24.228h29.121v-24.228c0-2.676,2.173-4.846,4.854-4.846h19.414
	c2.681,0,4.854,2.169,4.854,4.846v24.228h29.121v-24.228c0-2.676,2.173-4.846,4.854-4.846h19.414
	C355.751,210.209,357.924,212.379,357.924,215.055z"/>
<path style="fill:#C37A4F;" d="M212.318,321.658v29.074c0,2.676-2.173,4.846-4.854,4.846H188.05c-2.681,0-4.854-2.169-4.854-4.846
	v-29.074c0-8.028,6.519-14.537,14.561-14.537S212.318,313.629,212.318,321.658z M314.242,307.121
	c-8.042,0-14.561,6.508-14.561,14.537v29.074c0,2.676,2.173,4.846,4.854,4.846h19.414c2.681,0,4.854-2.169,4.854-4.846v-29.074
	C328.803,313.629,322.284,307.121,314.242,307.121z M256,307.121c-8.042,0-14.561,6.508-14.561,14.537v29.074
	c0,2.676,2.173,4.846,4.854,4.846h19.414c2.681,0,4.854-2.169,4.854-4.846v-29.074C270.561,313.629,264.042,307.121,256,307.121z"/>
<path d="M502.293,440.503V303.197c0-9.447-7.719-17.132-17.207-17.132h-3.178v-16.58c0-6.791-5.542-12.316-12.354-12.316H450.14
	c-6.812,0-12.354,5.525-12.354,12.316v16.58h-14.121v-16.58c0-6.791-5.542-12.316-12.354-12.316h-19.414
	c-6.812,0-12.354,5.525-12.354,12.316v16.58h-14.121v-74.372c0-6.792-5.542-12.316-12.354-12.316h-6.09v-42.792h16.699
	c3.289,0,6.384-1.274,8.714-3.587l19.414-19.264c3.552-3.524,4.617-8.787,2.713-13.407c-1.911-4.64-6.396-7.638-11.427-7.638H371.2
	l-19.394-33.356c0.014-0.186,0.028-0.372,0.028-0.562V33.5c0-4.142-3.358-7.5-7.5-7.5s-7.5,3.358-7.5,7.5v11.764H175.166V33.5
	c0-4.142-3.358-7.5-7.5-7.5s-7.5,3.358-7.5,7.5v45.271c0,0.19,0.014,0.376,0.028,0.562L140.8,112.688h-11.894
	c-5.031,0-9.516,2.998-11.427,7.638c-1.904,4.621-0.838,9.883,2.713,13.407l19.414,19.264c2.331,2.313,5.426,3.587,8.715,3.587
	h16.699v42.792h-6.09c-6.812,0-12.354,5.525-12.354,12.316v74.372h-14.121v-16.58c0-6.791-5.542-12.316-12.354-12.316h-19.414
	c-6.812,0-12.354,5.525-12.354,12.316v16.58h-14.12v-16.58c0-6.791-5.542-12.316-12.354-12.316H42.445
	c-6.812,0-12.354,5.525-12.354,12.316v16.58h-3.178c-9.488,0-17.207,7.685-17.207,17.132v137.306C4.156,441.777,0,446.746,0,452.677
	V473.5c0,6.893,5.607,12.5,12.5,12.5h487c6.893,0,12.5-5.607,12.5-12.5v-20.823C512,446.746,507.844,441.777,502.293,440.503z
	 M24.707,358.857h11.914c4.142,0,7.5-3.358,7.5-7.5s-3.358-7.5-7.5-7.5H24.707v-13.896h121.869v110.216H24.707V358.857z
	 M161.576,272.169h188.848v168.008H161.576V272.169z M365.424,329.961h121.869v81.32h-13.855c-4.142,0-7.5,3.358-7.5,7.5
	s3.358,7.5,7.5,7.5h13.855v13.896H365.424V329.961z M387.045,301.065c4.142,0,7.5-3.358,7.5-7.5v-21.396h14.121v21.396
	c0,4.142,3.358,7.5,7.5,7.5h29.121c4.142,0,7.5-3.358,7.5-7.5v-21.396h14.121v21.396c0,4.142,3.358,7.5,7.5,7.5h10.678
	c1.217,0,2.207,0.957,2.207,2.132v11.764H365.424v-13.896H387.045z M172.952,87.234h97.124c4.142,0,7.5-3.358,7.5-7.5
	s-3.358-7.5-7.5-7.5h-94.91v-11.97h161.668v11.97h-37.395c-4.142,0-7.5,3.358-7.5,7.5s3.358,7.5,7.5,7.5h39.609l14.8,25.455H158.152
	L172.952,87.234z M135.396,127.688h241.208L362.6,141.584H149.4L135.396,127.688z M331.98,156.584v42.919
	c-6.02,0.82-10.678,5.966-10.678,12.189v16.58h-14.121v-16.58c0-6.792-5.542-12.316-12.354-12.316h-19.414
	c-6.812,0-12.354,5.525-12.354,12.316v16.58h-14.121v-16.58c0-6.792-5.542-12.316-12.354-12.316H217.17
	c-6.812,0-12.354,5.525-12.354,12.316v16.58h-14.121v-16.58c0-6.223-4.658-11.37-10.678-12.189v-42.919L331.98,156.584
	L331.98,156.584z M175.697,214.376v21.396c0,4.142,3.358,7.5,7.5,7.5h29.121c4.142,0,7.5-3.358,7.5-7.5v-21.396h14.121v21.396
	c0,4.142,3.358,7.5,7.5,7.5h29.121c4.142,0,7.5-3.358,7.5-7.5v-21.396h14.121v21.396c0,4.142,3.358,7.5,7.5,7.5h29.121
	c4.142,0,7.5-3.358,7.5-7.5v-21.396h14.121v42.792H161.576v-42.792H175.697z M26.914,301.065h10.678c4.142,0,7.5-3.358,7.5-7.5
	v-21.396h14.121v21.396c0,4.142,3.358,7.5,7.5,7.5h29.121c4.142,0,7.5-3.358,7.5-7.5v-21.396h14.121v21.396
	c0,4.142,3.358,7.5,7.5,7.5h21.621v13.896H24.707v-11.764C24.707,302.021,25.697,301.065,26.914,301.065z M497,471H15v-15.823h482
	V471z M197.758,295.697c-12.164,0-22.061,9.896-22.061,22.061v28.746c0,6.812,5.542,12.354,12.354,12.354h19.414
	c6.812,0,12.354-5.542,12.354-12.354v-28.746C219.818,305.593,209.922,295.697,197.758,295.697z M204.818,343.857h-14.121v-26.1
	c0-3.893,3.167-7.061,7.061-7.061s7.061,3.167,7.061,7.061v26.1H204.818z M314.242,295.697c-12.164,0-22.061,9.896-22.061,22.061
	v28.746c0,6.812,5.542,12.354,12.354,12.354h19.414c6.812,0,12.354-5.542,12.354-12.354v-28.746
	C336.303,305.593,326.406,295.697,314.242,295.697z M321.303,343.857h-14.121v-26.1c0-3.893,3.167-7.061,7.061-7.061
	s7.061,3.167,7.061,7.061v26.1H321.303z M256,295.697c-12.164,0-22.061,9.896-22.061,22.061v28.746
	c0,6.812,5.542,12.354,12.354,12.354h19.414c6.812,0,12.354-5.542,12.354-12.354v-28.746
	C278.061,305.593,268.164,295.697,256,295.697z M263.061,343.857H248.94v-26.1c0-3.893,3.167-7.061,7.061-7.061
	c3.894,0,7.061,3.167,7.061,7.061v26.1H263.061z M463.73,358.857h-19.414c-4.142,0-7.5-3.358-7.5-7.5s3.358-7.5,7.5-7.5h19.414
	c4.142,0,7.5,3.358,7.5,7.5S467.873,358.857,463.73,358.857z M412.988,389.885c0,4.142-3.358,7.5-7.5,7.5h-19.414
	c-4.142,0-7.5-3.358-7.5-7.5s3.358-7.5,7.5-7.5h19.414C409.63,382.385,412.988,385.743,412.988,389.885z M121.777,380.253
	c0,4.142-3.358,7.5-7.5,7.5H94.863c-4.142,0-7.5-3.358-7.5-7.5s3.358-7.5,7.5-7.5h19.414
	C118.419,372.753,121.777,376.111,121.777,380.253z M73.242,409.149c0,4.142-3.358,7.5-7.5,7.5H46.328c-4.142,0-7.5-3.358-7.5-7.5
	s3.358-7.5,7.5-7.5h19.414C69.884,401.649,73.242,405.007,73.242,409.149z"/>
<g>
</g>
<g>
</g>
<g>
</g>
<g>
</g>
<g>
</g>
<g>
</g>
<g>
</g>
<g>
</g>
<g>
</g>
<g>
</g>
<g>
</g>
<g>
</g>
<g>
</g>
<g>
</g>
<g>
</g>
</svg>
