<?xml version="1.0" encoding="iso-8859-1"?>
<!-- Generator: Adobe Illustrator 19.0.0, SVG Export Plug-In . SVG Version: 6.00 Build 0)  -->
<svg version="1.1" id="Capa_1" xmlns="http://www.w3.org/2000/svg" xmlns:xlink="http://www.w3.org/1999/xlink" x="0px" y="0px"
	 viewBox="0 0 512.001 512.001" style="enable-background:new 0 0 512.001 512.001;" xml:space="preserve">
<path style="fill:#FF4B4B;" d="M17.5,115.248h156.961v349.453H17.5c-5.523,0-10-4.477-10-10V125.248
	C7.5,119.725,11.977,115.248,17.5,115.248z"/>
<path style="fill:#CF4036;" d="M183.289,464.701h-27.363c-16.569,0-30-13.431-30-30v-8.92c0-16.569,13.431-30,30-30h57.363v38.92
	C213.289,451.27,199.858,464.701,183.289,464.701z"/>
<path style="fill:#FF6969;" d="M475.379,57.977L475.379,57.977c16.083,0,29.121,13.038,29.121,29.121v290.24
	c0,16.083-13.038,29.121-29.121,29.121H155.047c-16.083,0-29.121,13.038-29.121,29.121v-29.121V87.098
	c0-16.083,13.038-29.121,29.121-29.121C155.047,57.977,475.379,57.977,475.379,57.977z"/>
<path style="fill:#CE8855;" d="M425.873,135.633V23.031c0-8.578,6.954-15.531,15.531-15.531l0,0c8.578,0,15.531,6.954,15.531,15.531
	v112.602H425.873z"/>
<path style="fill:#FF4B4B;" d="M408.309,48.27H474.5c16.569,0,30,13.431,30,30v380.214c0,16.569-13.431,30-30,30h-66.191
	c-16.569,0-30-13.431-30-30V78.27C378.309,61.701,391.74,48.27,408.309,48.27z"/>
<path style="fill:#D24A4A;" d="M504.5,77.391v381.972c0,16.083-13.038,29.121-29.121,29.121h-21.355
	c16.083,0,29.121-13.038,29.121-29.121V77.391c0-16.083-13.038-29.121-29.121-29.121h21.355
	C491.462,48.27,504.5,61.307,504.5,77.391z"/>
<path style="fill:#C83741;" d="M408.309,426.844H474.5c16.569,0,30,13.431,30,30v1.64c0,16.569-13.431,30-30,30h-66.191
	c-16.569,0-30-13.431-30-30v-1.64C378.309,440.275,391.74,426.844,408.309,426.844z"/>
<path style="fill:#CE8855;" d="M456.936,455.965v33.004c0,8.578-6.954,15.531-15.531,15.531s-15.531-6.954-15.531-15.531v-33.004
	H456.936z"/>
<path style="fill:#963737;" d="M477.806,455.965c0,4.021-3.259,7.28-7.28,7.28h-58.242c-4.021,0-7.28-3.259-7.28-7.28
	s3.259-7.28,7.28-7.28h58.242C474.547,448.685,477.806,451.944,477.806,455.965z"/>
<path d="M512,211.343V77.391c0-20.193-16.428-36.621-36.621-36.621h-10.943V23.031C464.436,10.332,454.104,0,441.404,0
	s-23.031,10.332-23.031,23.031V40.77H407.43c-9.622,0-18.383,3.735-24.926,9.825c-0.419-0.073-0.847-0.118-1.286-0.118H155.047
	c-20.193,0-36.621,16.428-36.621,36.621v20.65H17.207C7.719,107.748,0,115.467,0,124.955v330.039
	c0,9.488,7.719,17.207,17.207,17.207h137.84h19.414h9.707c20.193,0,36.621-16.428,36.621-36.621V413.96h133.899
	c4.143,0,7.5-3.357,7.5-7.5s-3.357-7.5-7.5-7.5H155.047c-8.08,0-15.558,2.631-21.621,7.08V251.342l29.386-29.387l68.531,68.531
	l-26.703,53.406c-1.853,3.705-0.351,8.21,3.354,10.063c1.077,0.539,2.222,0.794,3.349,0.794c2.751,0,5.4-1.52,6.714-4.147
	l21.024-42.047l13.688,41.065c1.048,3.143,3.974,5.13,7.114,5.13c0.786,0,1.586-0.125,2.373-0.387
	c3.93-1.31,6.053-5.558,4.743-9.487l-11.821-35.464l19.62,14.715c1.35,1.012,2.929,1.5,4.494,1.5c2.28,0,4.532-1.035,6.006-3
	c2.485-3.313,1.813-8.015-1.5-10.5l-20.828-15.621h35.742c4.143,0,7.5-3.357,7.5-7.5s-3.357-7.5-7.5-7.5h-55.135l-16.768-16.768
	l21.62-21.621h98.817c4.143,0,7.5-3.357,7.5-7.5s-3.357-7.5-7.5-7.5h-54.695l11.464-11.464c2.929-2.93,2.929-7.678,0-10.607
	c-2.93-2.928-7.678-2.928-10.607,0l-22.071,22.071h-26.014c-1.989,0-3.896,0.79-5.304,2.196l-23.817,23.817l-42.781-42.781
	l31.327-31.328h64.803c0.011,0,0.023,0.002,0.034,0.002c0.001,0,0.002,0,0.003,0c0,0,0.001,0,0.002,0
	c0.008,0,0.016-0.002,0.024-0.002h29.098c1.48,0,2.929-0.438,4.16-1.26l29.121-19.414c3.446-2.298,4.378-6.954,2.08-10.4
	c-2.297-3.446-6.954-4.378-10.4-2.08L296.44,165.02h-14.715l23.694-47.388c1.853-3.705,0.351-8.21-3.354-10.063
	c-3.707-1.854-8.211-0.351-10.063,3.354l-21.024,42.047l-13.688-41.065c-1.311-3.93-5.557-6.05-9.487-4.743
	c-3.93,1.31-6.053,5.558-4.743,9.487l11.821,35.464l-19.62-14.715c-3.315-2.485-8.016-1.813-10.5,1.5
	c-2.485,3.313-1.813,8.015,1.5,10.5l20.828,15.621H201.64c-1.989,0-3.896,0.79-5.304,2.196l-62.911,62.911v-56.151
	c0-4.143-3.357-7.5-7.5-7.5s-7.5,3.357-7.5,7.5v139.101L73.242,358.26v-38.365l18.622-37.244c1.853-3.705,0.351-8.21-3.354-10.063
	c-3.707-1.855-8.211-0.351-10.063,3.354l-5.206,10.412v-26.472c0-4.143-3.357-7.5-7.5-7.5s-7.5,3.357-7.5,7.5v33.472l-5.674-8.511
	c-2.298-3.447-6.954-4.378-10.4-2.08s-4.378,6.954-2.08,10.4l18.154,27.231v52.865L43.22,388.28H15V124.955
	c0-1.217,0.99-2.207,2.207-2.207h101.219v22.106c0,4.143,3.357,7.5,7.5,7.5s7.5-3.357,7.5-7.5V87.098
	c0-11.922,9.699-21.621,21.621-21.621h217.762c-1.29,3.738-2,7.743-2,11.914v378.574v3.397c0,20.193,16.428,36.621,36.621,36.621
	h12.04c2.974,9.279,11.681,16.017,21.935,16.017s18.961-6.738,21.935-16.017h12.04c20.193,0,36.621-16.428,36.621-36.621v-3.397
	V211.353C512,211.349,512,211.346,512,211.343z M155.047,413.96h50.742v21.621c0,11.922-9.699,21.621-21.621,21.621h-9.707h-19.414
	c-11.922,0-21.621-9.699-21.621-21.621S143.125,413.96,155.047,413.96z M46.328,403.281c1.989,0,3.896-0.79,5.304-2.196
	l66.794-66.794V435.58c0,8.082,2.637,15.557,7.088,21.621H17.207c-1.217,0-2.207-0.99-2.207-2.207v-51.713L46.328,403.281
	L46.328,403.281z M497,229.455v196.977c-6.064-4.451-13.539-7.088-21.621-7.088H407.43c-8.082,0-15.557,2.637-21.621,7.088V296.504
	h41.035c1.989,0,3.896-0.79,5.304-2.196L497,229.455z M433.373,23.031c0-4.429,3.603-8.031,8.031-8.031s8.031,3.603,8.031,8.031
	V40.77h-16.063L433.373,23.031L433.373,23.031z M407.43,55.77h67.949c11.922,0,21.621,9.699,21.621,21.621v130.85l-43.242,43.243
	v-38.365l18.622-37.244c1.853-3.705,0.351-8.21-3.354-10.063c-3.707-1.855-8.211-0.351-10.063,3.354l-5.206,10.412v-26.472
	c0-4.143-3.357-7.5-7.5-7.5s-7.5,3.357-7.5,7.5v33.472l-5.674-8.511c-2.297-3.446-6.955-4.378-10.4-2.08
	c-3.446,2.298-4.378,6.954-2.08,10.4l18.154,27.231v52.865l-15.021,15.021h-37.929V77.391
	C385.809,65.469,395.508,55.77,407.43,55.77z M441.404,497c-4.429,0-8.031-3.603-8.031-8.031v-25.504h16.063v25.504
	C449.436,493.397,445.833,497,441.404,497z M475.379,480.983h-10.943v-17.519h6.09c4.143,0,7.5-3.357,7.5-7.5s-3.357-7.5-7.5-7.5
	h-58.242c-4.143,0-7.5,3.357-7.5,7.5s3.357,7.5,7.5,7.5h6.09v17.519H407.43c-11.922,0-21.621-9.699-21.621-21.621v-3.397
	c0-11.922,9.699-21.621,21.621-21.621h67.949c11.922,0,21.621,9.699,21.621,21.621v3.397
	C497,471.284,487.301,480.983,475.379,480.983z"/>
<g>
</g>
<g>
</g>
<g>
</g>
<g>
</g>
<g>
</g>
<g>
</g>
<g>
</g>
<g>
</g>
<g>
</g>
<g>
</g>
<g>
</g>
<g>
</g>
<g>
</g>
<g>
</g>
<g>
</g>
</svg>
