<svg id="Capa_1" enable-background="new 0 0 512 512" height="512" viewBox="0 0 512 512" width="512" xmlns="http://www.w3.org/2000/svg"><g><g><path d="m493.553 252.018h-410.994l-6.913 6.838v139.667l6.901 5.036h411.007c6.031 0 10.919-4.889 10.919-10.919v-129.703c-.001-6.031-4.89-10.919-10.92-10.919z" fill="#ffc365"/><path d="m77.588 392.639v-129.702c0-6.031 4.889-10.919 10.919-10.919h-70.116c-6.031 0-10.919 4.889-10.919 10.919v129.702c0 6.031 4.889 10.919 10.919 10.919h70.116c-6.03 0-10.919-4.889-10.919-10.919z" fill="#ffa90f"/><path d="m143.693 129.671c.416-.846-.252-1.821-1.191-1.74l-8.513.734c-1.199.103-2.293-.689-2.568-1.861l-4.563-19.432c-.215-.916-1.348-1.248-2.023-.591l-14.31 13.916c-.863.839-2.211.918-3.166.185l-6.777-5.203c-.748-.574-1.835-.112-1.941.825l-3.266 28.958c-.145 1.288-1.928 1.502-2.375.285l-16.332-44.53c-.392-1.068-1.799-1.299-2.511-.412l-6.457 8.038c-.91 1.132-2.513 1.426-3.764.689l-20.755-12.224c-.979-.577-2.213.136-2.203 1.272l.146 16.934 2.091 7.658 51.927 73.772 3.262 1.678c2.026-1.246 4.122-2.378 6.293-3.358l22.104-9.984c1.465-.661 1.535-2.715.12-3.476l-5.186-2.787c-1.003-.54-1.401-1.776-.898-2.799z" fill="#ff636e"/><path d="m98.404 198.622-57.28-83.108.062 7.152c.013 1.452-1.043 2.694-2.479 2.916l-10.19 1.573c-1.124.173-1.627 1.508-.899 2.381l30.398 36.409c.831.995-.246 2.432-1.435 1.914l-26.711-11.651c-.864-.377-1.808.334-1.685 1.268l1.118 8.471c.157 1.193-.585 2.321-1.743 2.649l-19.206 5.434c-.906.256-1.186 1.403-.5 2.048l14.547 13.668c.877.824 1.017 2.167.328 3.154l-4.892 7.005c-.54.773-.028 1.838.911 1.902l51.739 3.48c1.137.077 2.009 1.039 1.975 2.178l-.179 5.885c-.049 1.606 1.765 2.572 3.07 1.634l19.699-14.151c1.088-.783 2.212-1.51 3.352-2.211z" fill="#ff4654"/><path d="m504.09 176.078c.686-.645.406-1.791-.5-2.048l-19.207-5.435c-1.158-.328-1.901-1.456-1.743-2.649l1.118-8.471c.123-.934-.821-1.645-1.685-1.268l-26.711 11.651c-1.189.518-2.266-.919-1.435-1.914l30.398-36.409c.729-.873.225-2.207-.899-2.381l-10.19-1.573c-1.436-.222-2.491-1.463-2.479-2.916l.208-24.086c.01-1.136-1.224-1.848-2.203-1.272l-4.215 2.482-4.667 4.556-49.786 88.151.527 4.446c2.17 1.161 4.269 2.451 6.27 3.888l19.698 14.151c1.305.938 3.119-.028 3.07-1.634l-.179-5.885c-.035-1.139.838-2.101 1.975-2.178l51.739-3.48c.94-.063 1.451-1.129.911-1.902l-4.892-7.005c-.689-.987-.55-2.33.328-3.154z" fill="#ff636e"/><path d="m448.008 109.53c-1.252.737-2.854.444-3.764-.689l-6.457-8.038c-.712-.887-2.12-.656-2.511.412l-16.332 44.53c-.446 1.217-2.229 1.003-2.375-.285l-3.266-28.958c-.106-.937-1.193-1.399-1.941-.825l-6.777 5.203c-.955.733-2.303.655-3.166-.185l-14.31-13.916c-.675-.657-1.808-.325-2.023.591l-4.563 19.432c-.275 1.172-1.369 1.964-2.568 1.861l-8.513-.734c-.939-.081-1.607.894-1.191 1.74l22.855 46.547c.502 1.023.105 2.26-.898 2.799l-5.186 2.787c-1.415.761-1.345 2.815.12 3.476l22.104 9.984c1.146.518 2.267 1.087 3.375 1.68l53.926-97.153z" fill="#ff4654"/><path d="m357.49 122.84-10.916-5.107c-1.538-.719-2.315-2.458-1.824-4.084l8.131-26.954c.384-1.271-.767-2.475-2.054-2.149l-27.294 6.906c-1.646.416-3.348-.438-3.997-2.007l-4.609-11.135c-.508-1.229-2.163-1.431-2.952-.361l-24.412 33.069c-1.086 1.471-3.415.475-3.102-1.326l11.454-65.91c.275-1.58-1.282-2.855-2.777-2.274l-13.556 5.264c-1.91.742-4.075-.031-5.083-1.813l-16.733-29.567c-.449-.794-1.291-1.12-2.081-1.01l-1.507 4.347-3.934 92.051-11.577 6.969-12.373-6.124c-.649.209-1.411.073-1.912-.606l-24.412-33.07c-.79-1.07-2.444-.867-2.953.361l-4.609 11.135c-.649 1.569-2.351 2.423-3.997 2.007l-12.895-3.263v5.563l77.03 80.419 8.133 4.021c1.05.063 2.099.131 3.146.235l34.042 3.394c2.256.225 3.79-2.234 2.598-4.161l-4.368-7.062c-.845-1.367-.458-3.157.877-4.053l60.744-40.738c1.104-.741.976-2.403-.228-2.967z" fill="#ff636e"/><g fill="#ff4654"><path d="m175.517 88.19-14.399-3.643c-1.287-.326-2.438.878-2.054 2.149l8.131 26.954c.49 1.626-.287 3.365-1.825 4.084l-10.916 5.107c-1.204.563-1.332 2.226-.228 2.966l60.744 40.738c1.335.895 1.722 2.686.877 4.053l-4.368 7.062c-1.193 1.928.342 4.386 2.598 4.161l34.041-3.394c4.176-.417 8.376-.484 12.562-.235z"/><path d="m254.178 15.392-16.732 29.566c-1.009 1.783-3.174 2.555-5.084 1.814l-13.556-5.264c-1.495-.581-3.051.694-2.777 2.274l11.454 65.91c.169.97-.433 1.689-1.19 1.933l7.22 7.141c7.377 7.297 19.903 2.223 20.123-8.15l2.047-96.235c-.596.084-1.165.41-1.505 1.011z"/></g></g><g><path d="m511.752 173.134c-.742-3.044-3.075-5.466-6.092-6.32l-14.982-4.239.544-4.12c.41-3.109-.893-6.213-3.399-8.099-2.505-1.885-5.849-2.276-8.719-1.023l-2.373 1.035 13.382-16.027c2.066-2.477 2.643-5.891 1.502-8.909-1.14-3.018-3.829-5.198-7.016-5.689l-6.278-.969.174-20.128c.027-3.224-1.69-6.227-4.482-7.839-2.791-1.611-6.251-1.595-9.026.04l-17.347 10.213-3.977-4.951c-2.021-2.518-5.256-3.753-8.441-3.232-3.186.524-5.853 2.732-6.959 5.757l-7.188 19.6-.29-2.57c-.352-3.116-2.361-5.813-5.247-7.041-2.884-1.227-6.223-.805-8.716 1.106l-3.293 2.529-11.163-10.855c-2.245-2.184-5.507-2.994-8.514-2.117s-5.32 3.317-6.04 6.371l-3.559 15.158-4.138-.356c-1.622-.139-3.22.192-4.634.897-.809-2.306-2.516-4.238-4.785-5.3h-.001l-7.718-3.611 7.11-23.573c.957-3.17.131-6.627-2.157-9.022-2.287-2.395-5.703-3.377-8.917-2.566l-23.871 6.041-3.257-7.871c-1.268-3.064-4.099-5.218-7.391-5.622-3.295-.4-6.56 1.004-8.527 3.671l-9.909 13.424 7.272-41.85c.591-3.391-.696-6.854-3.359-9.036-2.662-2.184-6.312-2.765-9.521-1.518l-10.835 4.208-15.295-27.025c-1.693-2.993-4.882-4.853-8.321-4.853s-6.628 1.859-8.321 4.852l-15.295 27.026-10.835-4.208c-3.207-1.247-6.856-.666-9.519 1.516-2.663 2.181-3.952 5.642-3.363 9.034l7.274 41.853-9.908-13.422c-1.969-2.668-5.238-4.073-8.528-3.672-3.292.403-6.123 2.557-7.389 5.619l-3.259 7.874-23.872-6.041c-3.209-.811-6.626.17-8.916 2.565-2.288 2.395-3.115 5.852-2.158 9.021l7.111 23.575-7.72 3.611c-2.268 1.062-3.974 2.992-4.783 5.298-1.414-.706-3.011-1.037-4.635-.895l-4.138.356-3.56-15.155c-.715-3.051-3.027-5.492-6.035-6.372-3.005-.88-6.271-.069-8.518 2.116l-11.163 10.855-3.294-2.529c-2.489-1.911-5.828-2.335-8.713-1.108-2.887 1.227-4.897 3.925-5.249 7.041l-.29 2.571-7.188-19.599c-1.11-3.03-3.779-5.236-6.963-5.758-3.186-.52-6.417.718-8.436 3.231l-3.979 4.953-17.343-10.216c-2.774-1.635-6.235-1.65-9.027-.039-2.791 1.612-4.508 4.615-4.48 7.838l.173 20.128-6.277.969c-3.188.492-5.876 2.672-7.017 5.689-1.14 3.018-.563 6.432 1.505 8.911l13.38 16.025-2.37-1.034c-2.875-1.255-6.217-.863-8.722 1.022-2.507 1.886-3.81 4.989-3.399 8.1l.543 4.119-14.98 4.239c-3.015.853-5.349 3.273-6.092 6.316-.743 3.043.213 6.267 2.497 8.415l11.349 10.661-2.378 3.404c-1.796 2.571-2.07 5.925-.715 8.753 1.354 2.828 4.141 4.716 7.271 4.927l46.562 3.132-.021.699c-.11 3.616 1.805 6.919 4.999 8.619 3.192 1.7 7.003 1.445 9.943-.666l17.515-12.583 11.121 19.263c2.072 3.59 6.662 4.816 10.245 2.745 3.587-2.071 4.816-6.658 2.745-10.245l-11.121-19.264 19.653-8.876c3.298-1.489 5.424-4.661 5.549-8.277s-1.777-6.927-4.965-8.64l-.616-.332 20.569-41.892c.085-.174.146-.355.218-.532l56.538 37.916-2.081 3.363c-2.063 3.337-2.055 7.478.023 10.806 2.031 3.253 5.703 5.161 9.697 4.764l33.651-3.354v34.774c0 4.142 3.357 7.5 7.5 7.5s7.5-3.358 7.5-7.5v-34.774l33.65 3.354c3.91.391 7.62-1.436 9.698-4.764s2.087-7.469.023-10.806l-2.081-3.363 56.537-37.917c.073.178.133.36.219.534l20.569 41.891-.615.331c-3.188 1.712-5.091 5.023-4.966 8.64.124 3.617 2.25 6.789 5.549 8.278l19.653 8.877-11.121 19.263c-2.071 3.587-.842 8.174 2.745 10.245 3.592 2.073 8.177.838 10.245-2.745l11.121-19.263 17.514 12.582c2.94 2.111 6.747 2.367 9.943.667 3.194-1.7 5.11-5.003 5-8.62l-.021-.7 46.565-3.132c3.129-.211 5.914-2.1 7.269-4.928s1.081-6.182-.715-8.751l-2.378-3.405 11.346-10.66c2.287-2.141 3.245-5.364 2.504-8.408zm-397.62-.22c-1.569 3.199-1.221 6.829.629 9.588l-13.123 5.927c-3.836 1.732-7.515 3.856-10.934 6.312l-11.694 8.402c-1.465-2.983-4.436-5.1-7.991-5.338l-40.98-2.756c1.389-3.678.49-7.983-2.473-10.769l-6.449-6.058 8.512-2.409c3.916-1.107 6.697-4.516 7.156-8.419l16.828 7.34c3.726 1.625 8.035.486 10.475-2.768 2.438-3.254 2.321-7.708-.285-10.828l-23.551-28.208c4.893-.939 8.506-5.314 8.462-10.328l-.115-13.416 11.561 6.808c4.317 2.544 9.913 1.603 13.176-2.164l12.652 34.499c1.4 3.818 5.195 6.145 9.236 5.662 4.038-.485 7.177-3.646 7.634-7.688l2.057-18.243c3.609 1.552 7.952.849 10.868-1.985l6.344-6.168 2.021 8.609c.928 3.962 4.208 6.895 8.089 7.53zm178.69-12.59c-4.346 2.916-5.831 8.466-3.686 13.094l-24.539-2.446c-5.704-.569-11.489-.569-17.195 0l-24.539 2.446c2.145-4.628.66-10.178-3.687-13.095l-52.229-35.027 1.629-.762c4.876-2.282 7.382-7.889 5.827-13.043l-5.176-17.156 17.373 4.396c5.216 1.317 10.707-1.435 12.767-6.41l.688-1.66 18.319 24.817c2.556 3.462 7.102 4.7 11.06 3.008 3.956-1.691 6.205-5.833 5.468-10.071l-9.807-56.424 4.58 1.778c5.348 2.076 11.505-.122 14.326-5.111l11.999-21.201 11.999 21.202c2.823 4.991 8.985 7.188 14.326 5.112l4.579-1.778-9.805 56.422c-.737 4.238 1.51 8.38 5.465 10.071 3.957 1.692 8.504.457 11.061-3.006l18.32-24.818.688 1.661c2.059 4.974 7.549 7.726 12.768 6.409l17.372-4.396-5.176 17.156c-1.555 5.155.95 10.763 5.827 13.043l1.628.762zm191.615 23.954c-2.964 2.783-3.864 7.088-2.475 10.77l-40.979 2.756c-3.559.239-6.529 2.356-7.994 5.338l-11.693-8.401c-3.419-2.456-7.098-4.58-10.934-6.312l-13.123-5.927c1.85-2.759 2.198-6.39.628-9.59l-18.104-36.868c3.879-.636 7.158-3.566 8.089-7.525l2.022-8.614 6.341 6.167c2.914 2.836 7.254 3.543 10.871 1.987l2.058 18.245c.456 4.041 3.595 7.202 7.633 7.687 4.039.481 7.835-1.845 9.235-5.661l12.653-34.499c3.26 3.767 8.856 4.708 13.176 2.164l11.561-6.808-.116 13.415c-.044 5.015 3.569 9.389 8.463 10.329l-23.551 28.207c-2.606 3.122-2.724 7.575-.285 10.829 2.438 3.255 6.749 4.394 10.475 2.767l16.828-7.34c.46 3.905 3.24 7.312 7.153 8.419l8.514 2.409z"/><path d="m80.853 292.289-18.807 47.776-18.808-47.776c-1.517-3.855-5.876-5.751-9.726-4.231-3.854 1.517-5.749 5.872-4.231 9.726l25.786 65.503c1.121 2.854 3.925 4.755 6.977 4.755h.002.002c3.06 0 5.862-1.918 6.977-4.755l25.785-65.503c1.518-3.854-.377-8.208-4.231-9.726-3.855-1.518-8.21.376-9.726 4.231z"/><path d="m104.333 295.036v65.503c0 4.142 3.357 7.5 7.5 7.5s7.5-3.358 7.5-7.5v-65.503c0-4.142-3.357-7.5-7.5-7.5s-7.5 3.358-7.5 7.5z"/><path d="m409.068 360.54v-65.503c0-4.142-3.357-7.5-7.5-7.5s-7.5 3.358-7.5 7.5v65.503c0 4.142 3.357 7.5 7.5 7.5s7.5-3.358 7.5-7.5z"/><path d="m431.964 363.25 5.494-14.177h25.795l5.494 14.177c1.497 3.864 5.843 5.78 9.703 4.283 3.862-1.497 5.78-5.841 4.283-9.703l-25.385-65.503c-1.032-2.67-3.591-4.628-6.625-4.777-3.171-.164-6.188 1.755-7.361 4.777l-25.385 65.503c-1.497 3.862.421 8.207 4.283 9.703 3.861 1.496 8.207-.42 9.704-4.283zm11.307-29.177 7.084-18.281 7.084 18.281z"/><path d="m163.375 302.536c6.671 0 12.973 4.026 16.856 10.77 2.067 3.591 6.652 4.824 10.242 2.757 3.589-2.067 4.823-6.653 2.756-10.242-6.593-11.449-17.754-18.284-29.854-18.284-19.638 0-35.613 18.057-35.613 40.251s15.976 40.252 35.613 40.252c12.102 0 23.263-6.836 29.855-18.286 2.067-3.59.833-8.175-2.757-10.242-3.587-2.066-8.174-.833-10.241 2.757-3.884 6.745-10.186 10.771-16.857 10.771-11.366 0-20.613-11.328-20.613-25.252s9.247-25.252 20.613-25.252z"/><path d="m227.628 368.04c4.143 0 7.5-3.358 7.5-7.5v-58.003h18.701c4.143 0 7.5-3.358 7.5-7.5s-3.357-7.5-7.5-7.5h-52.402c-4.143 0-7.5 3.358-7.5 7.5s3.357 7.5 7.5 7.5h18.701v58.003c0 4.142 3.357 7.5 7.5 7.5z"/><path d="m290.388 368.04c17.259 0 30.778-17.681 30.778-40.252s-13.52-40.251-30.778-40.251-30.778 17.681-30.778 40.251c-.001 22.571 13.519 40.252 30.778 40.252zm0-65.504c8.553 0 15.778 11.564 15.778 25.251 0 13.688-7.226 25.252-15.778 25.252s-15.778-11.564-15.778-25.252c-.001-13.687 7.225-25.251 15.778-25.251z"/><path d="m384.051 313.102c0-14.097-11.469-25.566-25.566-25.566h-21.235c-4.143 0-7.5 3.358-7.5 7.5v65.503c0 4.142 3.357 7.5 7.5 7.5s7.5-3.358 7.5-7.5v-21.871h9.123l16.337 25.875c2.212 3.503 6.843 4.549 10.346 2.338s4.549-6.843 2.338-10.346l-12.987-20.57c8.377-4.202 14.144-12.869 14.144-22.863zm-39.302-10.566h13.735c5.826 0 10.566 4.74 10.566 10.566s-4.74 10.566-10.566 10.566h-13.735z"/><path d="m233.468 504.638c3.861 1.496 8.206-.42 9.703-4.283l5.178-13.361h24.243l5.178 13.361c1.497 3.864 5.843 5.78 9.703 4.283 3.862-1.497 5.78-5.841 4.283-9.703l-24.292-62.685c-1.074-2.791-3.826-4.796-7.014-4.784-3.149.007-5.889 1.995-6.973 4.784l-24.293 62.685c-1.496 3.861.421 8.206 4.284 9.703zm20.694-32.644 6.309-16.279 6.308 16.279z"/><path d="m322.076 505.145c4.143 0 7.5-3.358 7.5-7.5v-23.012l20.717-35.927c2.069-3.588.838-8.175-2.751-10.244-3.586-2.069-8.174-.838-10.243 2.75l-15.223 26.399-15.223-26.399c-2.069-3.588-6.654-4.819-10.243-2.75s-4.82 6.655-2.751 10.244l20.717 35.927v23.012c0 4.142 3.358 7.5 7.5 7.5z"/><path d="m185.709 505.145c19.215 0 34.848-15.632 34.848-34.847v-7.992c0-19.214-15.633-34.847-34.848-34.847h-17.505c-4.143 0-7.5 3.358-7.5 7.5v62.685c0 4.142 3.357 7.5 7.5 7.5h17.505zm-10.005-62.686h10.005c10.944 0 19.848 8.903 19.848 19.847v7.992c0 10.943-8.903 19.847-19.848 19.847h-10.005z"/><path d="m133.355 473.802c4.143 0 7.5-3.358 7.5-7.5s-3.357-7.5-7.5-7.5h-14.551c-4.143 0-7.5 3.358-7.5 7.5s3.357 7.5 7.5 7.5z"/><path d="m388.195 473.802c4.143 0 7.5-3.358 7.5-7.5s-3.357-7.5-7.5-7.5h-14.551c-4.143 0-7.5 3.358-7.5 7.5s3.357 7.5 7.5 7.5z"/><path d="m493.581 244.518h-220.081c-4.143 0-7.5 3.358-7.5 7.5s3.357 7.5 7.5 7.5h220.081c1.885 0 3.419 1.534 3.419 3.419v47.351c0 4.142 3.357 7.5 7.5 7.5s7.5-3.358 7.5-7.5v-47.351c0-10.157-8.263-18.419-18.419-18.419z"/><path d="m504.5 337.788c-4.143 0-7.5 3.358-7.5 7.5v47.352c0 1.885-1.534 3.419-3.419 3.419h-475.162c-1.885 0-3.419-1.534-3.419-3.419v-129.703c0-1.885 1.534-3.419 3.419-3.419h220.081c4.143 0 7.5-3.358 7.5-7.5s-3.357-7.5-7.5-7.5h-220.081c-10.156 0-18.419 8.262-18.419 18.419v129.702c0 10.156 8.263 18.419 18.419 18.419h475.162c10.156 0 18.419-8.263 18.419-18.419v-47.352c0-4.141-3.357-7.499-7.5-7.499z"/></g></g></svg>