<svg id="Capa_1" enable-background="new 0 0 512 512" height="512" viewBox="0 0 512 512" width="512" xmlns="http://www.w3.org/2000/svg"><g><g><path d="m371.651 175.5c-24.006-19.83-27.445-39.088-27.917-45.187-.023 0-.046.004-.07.004l-8.573-5.603h-121.181l-5.153 19-30.135 36.349-16.736 24.011 3.538 60.641 21.917 23.333 44.163 14h66.587l1.225 2.387c17.674-.05 45.582-3.098 65.889-19.434 37.5-30.168 35.5-85.501 6.446-109.501z" fill="#fee6c1"/><g><path d="m197.746 285c-37.5-30.167-35.5-85.5-6.446-109.5 24.001-19.826 27.444-39.081 27.917-45.183l11.734-5.603h-49.714l-11.734 5.603c-.473 6.103-3.916 25.357-27.917 45.183-29.054 24-31.054 79.333 6.446 109.5 19.687 15.836 46.516 19.185 64.24 19.42l4.069-2.373h21.081c-13.456-2.533-27.853-7.537-39.676-17.047z" fill="#fcd79b"/></g><path d="m403.908 377.593c-3.836-1.486-16.759-6.49-32.257-12.492l-5.226 1.946-77.833 132.667 2.412 4.786h138.095c8.026 0 14.532-6.506 14.532-14.532v-50.764c-.001-32.631-22.741-54.622-39.723-61.611z" fill="#665e68"/><path d="m239.341 432.035-12.75-5.571-24 5.571-14.25-5.571-14.5-18.5-29-3.114-13.5-11.636-5.5-18.5-5.632-1.839c-1.327.515-2.567.995-3.712 1.439l-19.906 30.52v93.881l4.75 5.786h114.909l13.591-4.786 31.388-58.212z" fill="#665e68"/><path d="m274.504 403.6c-6.06.824-12.246 1.25-18.532 1.25-40.291 0-76.493-17.487-101.446-45.28-12.913 5.006-25.5 9.886-34.317 13.304-.133.885-.238 1.778-.3 2.681-1.396 20.096 14.494 36.833 34.292 36.833 2.929 0 5.772-.367 8.487-1.058 4.121-1.048 8.38 1.18 10.047 5.092 5.31 12.466 17.67 21.206 32.076 21.206 6.582 0 12.735-1.828 17.985-5.001 3.525-2.13 8.031-1.439 10.848 1.565 4.607 4.912 10.773 8.341 17.707 9.51l4.615-.99 19.625-35.25z" fill="#7b6c79"/><path d="m310.422 341.388-9.144-3.541c-2.815-1.088-4.685-3.796-4.694-6.831l-.02-24.606-4.098-1.976h-42.125v94.53l4.381 5.869c.417.004.832.017 1.25.017 6.286 0 12.472-.426 18.532-1.25l6.087-3.386 31.478-53z" fill="#ffb1a0"/><path d="m254.722 304.434h-36.381l-3.025 2.121.001 24.417c0 5.62-5.014 6.974-7.151 7.803v-.001c-.849.33-27.879 10.809-53.64 20.796 24.694 27.504 60.408 44.904 100.196 45.263z" fill="#ffa68e"/><path d="m353.596 223.714v-4.578c-5.354-5.27-12.03-9.743-20.335-13.009-1.724-.678-3.409-1.363-5.064-2.053l-2.272 1.891v26.9z" fill="#ffb1a0"/><path d="m158.348 219.136.826 2.827 28.167 12.416v-27.541l-3.594-2.766c-1.655.69-3.34 1.376-5.063 2.053-8.305 3.268-14.981 7.741-20.336 13.011z" fill="#ffb1a0"/><path d="m353.596 219.136c-6.446 5.777-15.632 8.863-25.461 7.313l-2.211-1.344v22.775l2.211 1.344c12.778 2.016 24.489-3.787 30.475-13.179 2.435-3.821 2.036-8.807-.826-12.319-1.295-1.588-2.693-3.118-4.188-4.59z" fill="#ffa68e"/><path d="m158.348 219.136c-1.495 1.472-2.893 3.002-4.188 4.59-2.863 3.511-3.262 8.497-.827 12.318 5.982 9.388 17.685 15.19 30.456 13.183l3.552-4.264v-22.775l-3.552 4.264c-9.821 1.543-18.999-1.543-25.441-7.316z" fill="#ffa68e"/><path d="m339.751 352.747-7.66 1.895-81.75 140.572 1.796 9.286h38.866l80.648-139.399c-10.141-3.927-21.379-8.28-31.9-12.354z" fill="#8896e0"/><path d="m339.751 352.747c-11.39-4.411-21.939-8.496-29.329-11.359l-94.172 163.112h35.887z" fill="#6b7ed9"/><path d="m68.315 439.204v50.764c0 8.026 6.506 14.532 14.532 14.532h18.493c0-27.932 0-69.673 0-85.536 0-24.75 18.868-46.089 18.868-46.089-7.228 2.802-11.926 4.624-12.172 4.719-16.981 6.988-39.721 28.979-39.721 61.61z" fill="#544e55"/><path d="m263.702 161.427c-4.138-4.571-11.32-4.571-15.459 0-4.565 5.042-11.386 11.584-21.041 18.635l-3.777 6.985v88.333l33.194 34.667 19.306 6.012c30.06-8.499 52.272-36.585 52.272-69.249v-42.737c-35.209-14.692-54.863-32.006-64.495-42.646z" fill="#ffcebe"/><path d="m227.202 247.511v-67.448c-10.719 7.827-24.931 16.281-43.454 24.011v43.437c0 37.117 29.014 71.047 72.966 71.195 7.373.025 14.495-1.106 21.2-3.218-31.221-9.301-50.712-37.562-50.712-67.977z" fill="#ffb1a0"/><path d="m343.664 96.134h-126.028l-2.564 4.33v27.25s.98 1.152 2.239 2.603h126.353c3.531 0 6.394-2.862 6.394-6.393v-21.396c-.001-3.532-2.863-6.394-6.394-6.394z" fill="#ffd086"/><path d="m216.22 123.923v-21.396c0-3.531 2.863-6.393 6.394-6.393h-54.334c-3.531 0-6.394 2.862-6.394 6.393v21.396c0 3.531 2.863 6.393 6.394 6.393h54.333c-3.53.001-6.393-2.862-6.393-6.393z" fill="#ffc365"/></g><g><path d="m406.789 370.658c-.048-.02-.097-.04-.146-.058-4.033-1.562-98.328-38.081-102.532-39.709l-.016-19.039c19.865-.613 45.92-4.985 65.838-21.008 13.753-11.064 23.458-25.895 28.063-42.889 1.083-3.998-1.279-8.117-5.277-9.201-3.997-1.083-8.117 1.279-9.201 5.277-3.771 13.915-11.72 26.061-22.988 35.125-12.283 9.881-28.009 14.387-41.569 16.357 8.751-11.229 14.269-24.42 16.081-38.448 12.184-.571 23.405-6.768 29.919-16.99 4.16-6.528 3.622-15.003-1.339-21.088-11.652-14.294-24.933-18.672-32.512-21.836-22.419-9.361-45.651-22.896-61.823-40.757-7.094-7.837-19.455-7.869-26.578 0-8.674 9.58-24.108 22.981-49.941 35.427-16.848 8.174-30.74 10.416-44.394 27.166-4.961 6.084-5.499 14.559-1.339 21.087 6.498 10.197 17.681 16.392 29.833 16.988 1.681 13.956 7.031 27.087 15.573 38.212-13.535-2.143-28.058-6.768-39.681-16.118-16.013-12.882-25.274-32.141-25.408-52.839-.119-18.254 6.999-35.09 19.038-45.035 20.191-16.679 27.157-33.213 29.525-43.465h161.461c2.369 10.253 9.335 26.787 29.525 43.465 8.821 7.287 15.11 18.367 17.709 31.2.822 4.06 4.778 6.687 8.839 5.862 4.06-.822 6.684-4.779 5.862-8.839-3.278-16.189-11.396-30.319-22.857-39.787-16.829-13.902-22.455-27.18-24.332-34.777 3.313-2.542 5.462-6.528 5.462-11.017v-21.396c0-2.982-.953-5.741-2.559-8.007 8.116-15.414 14.855-34.929 3.644-54.495-14.129-24.659-45.394-19.988-54.034-18.151-13.74-9.122-30.529-6.217-41.136-2.781v-11.594c0-4.142-3.358-7.5-7.5-7.5s-7.5 3.358-7.5 7.5v11.593c-10.607-3.436-27.396-6.34-41.136 2.781-8.639-1.837-39.905-6.509-54.035 18.151-11.211 19.565-4.472 39.081 3.644 54.494-1.606 2.266-2.559 5.025-2.559 8.008v21.396c0 4.968 2.629 9.322 6.56 11.778-2.06 7.703-7.858 20.569-24.136 34.016-15.479 12.786-24.632 33.981-24.485 56.697.164 25.226 11.465 48.709 31.006 64.429 19.561 15.736 45.1 20.193 64.485 20.959v19.018c-.442.25-102.016 39.596-102.491 39.78-.048.019-.095.038-.142.057-21.369 8.793-44.368 33.995-44.368 68.546v50.764c0 12.148 9.884 22.032 22.032 22.032h346.249c12.149 0 22.033-9.884 22.033-22.032v-50.764c.001-34.551-22.998-59.752-44.367-68.545zm-237.375-247.841v-19.183h173.171v19.183h-173.055c-.003 0-.007 0-.01 0zm176.242-75.335c6.415 11.196 5.112 23.228-4.505 41.151h-23.606c5.697-16.205 9.49-36.225-.513-53.289 9.313-.482 22.297 1.097 28.624 12.138zm-45.135-9.457c9.823 11.014 10.16 27.141 1.015 50.608h-38.036v-53.574c7.573-3.147 26.245-9.117 37.021 2.966zm-52.021-2.948v53.557h-38.037c-9.145-23.467-8.808-39.594 1.015-50.608 10.699-11.997 29.421-6.074 37.022-2.949zm-82.156 12.405c6.278-10.956 19.269-12.553 28.6-12.097-9.973 17.056-6.182 37.057-.489 53.249h-23.606c-9.616-17.923-10.919-29.956-4.505-41.152zm24.973 201.729v-40.21c22.665-9.969 45.906-24.197 62.514-42.54 1.184-1.308 3.202-1.255 4.338 0 16.645 18.384 39.836 32.568 62.555 42.558v37.791.003c-.002 34.505-28.175 64.388-63.739 64.393-.086 0-.123 0-.219 0-38.439-.127-64.572-29.307-65.449-61.995zm-23.447 113.241c15.595-6.046 30.252-11.728 37.781-14.647l14.712 14.533c19.374 19.139 50.621 18.908 69.689-.618l-20.136 34.876c-37.482 4.03-74.659-8.459-102.046-34.144zm123.34-23.82-11.422 12.14c-6.36 6.76-14.974 10.576-24.254 10.746s-18.026-3.329-24.629-9.852l-11.425-11.286c2.231-2.549 3.365-5.689 3.365-9.41v-11.8c20.7 9.137 45.313 9.607 66.258.054l.01 11.814c.006 2.602.689 5.239 2.097 7.594zm-138.681 29.767c27.525 28.498 66.691 45.26 108.338 43.869l-13.092 22.676c-3.251-1.299-6.219-3.308-8.633-5.881-5.224-5.571-13.721-6.77-20.198-2.854-14.031 8.479-32.69 2.749-39.282-12.725-3.112-7.307-11.195-11.359-18.795-9.422-8.957 2.279-19.149-.062-26.296-7.721-4.662-4.998-7.186-11.388-7.22-18.181 11.377-4.411 5.787-2.243 25.178-9.761zm199.469-139.934c.852 1.044.981 2.504.315 3.549-3.619 5.679-9.76 9.265-16.589 9.976v-26.552c6.437 3.289 11.895 7.655 16.274 13.027zm-192.311 3.549c-.666-1.045-.537-2.504.315-3.549 4.378-5.372 9.836-9.738 16.273-13.027v26.552c-6.829-.712-12.971-4.299-16.588-9.976zm-83.844 257.954v-50.764c0-29.479 20.912-48.813 35.011-54.648.222-.086.88-.341 1.89-.733 1.161 8.471 4.881 16.341 10.859 22.75 10.172 10.903 25.825 15.876 40.961 12.026.481-.125 1.065.219 1.297.763 10.213 23.977 39.111 32.817 60.841 19.685.466-.28 1.081-.167 1.498.278 3.419 3.645 7.529 6.587 12.032 8.682l-28.285 48.993h-74.843v-49.5c0-4.142-3.358-7.5-7.5-7.5s-7.5 3.358-7.5 7.5v49.5h-39.229c-3.877 0-7.032-3.155-7.032-7.032zm360.314 0c0 3.877-3.155 7.032-7.033 7.032h-39.229v-49.5c0-4.142-3.358-7.5-7.5-7.5s-7.5 3.358-7.5 7.5v49.5h-70.862l21.836-37.744c2.074-3.585.85-8.173-2.736-10.248-3.584-2.075-8.174-.85-10.248 2.736l-26.18 45.256h-57.437c2.307-3.996 82.073-142.155 84.465-146.298 22.572 8.742 24.92 9.651 47.066 18.228l-30.378 52.508c-2.074 3.585-.85 8.173 2.736 10.248 3.585 2.074 8.173.85 10.248-2.736l31.552-54.537 26.194 10.144c14.099 5.835 35.008 25.169 35.008 54.647v50.764z"/></g></g></svg>