<svg id="Capa_1" enable-background="new 0 0 512.062 512.062" height="512" viewBox="0 0 512.062 512.062" width="512" xmlns="http://www.w3.org/2000/svg"><g><g><path d="m400.662 314.557c-4.051-1.571-8.965-3.472-14.93-5.777l-8.111 1.747-5.5 6.375-9.958 19.915 40.208 16.21 6.658-2.608 2.63-4.534c6.731-11.606 1.511-26.477-10.997-31.328z" fill="#ffc365"/><path d="m168.927 304.726c-3.452-5.952-10.735-8.495-17.145-5.994-7.184 2.803-13.475 5.255-18.999 7.408l-5.827 13.302 9.881 21.119 39.036-14.286 2.285-5.636z" fill="#ffc365"/><path d="m363.048 336.582s5.846-10.079 10.846-18.701c3.032-5.228 8.59-8.207 14.347-8.132-7.446-2.879-16.666-6.441-28.173-10.894-6.398-2.476-13.653.067-17.095 6.001-4.268 7.359-9.258 15.963-9.258 15.963l5.407 6.707 24.631 9.93z" fill="#ffa90f"/><path d="m137.054 338.585-3.139-5.413c-5.321-9.174-4.314-20.076 1.363-28.004-10.311 4.019-18.103 7.053-24.047 9.377-12.471 4.876-17.654 19.72-10.936 31.303l2.658 4.582h6.918l32.367-11.845z" fill="#ffa90f"/><path d="m354.455 187.026 11.5-7.417 3.395-7.984c-.44-1.244-.959-2.45-1.568-3.603l-3.161-3.497h-38.25v22.5h28.084z" fill="#ffb1a0"/><path d="m296.788 302.342c-.035-.289-.068-.579-.069-.875l-.02-24.202-1.955-2.821h-42.123v66.083h10.25l34.833-35.333z" fill="#ffb1a0"/><path d="m254.242 340.526v-66.083h-36.121l-2.879 2.712v24.266c0 .317-.025.612-.055.903l-1.691 1.639 37.375 36.562h3.371z" fill="#ffa68e"/><path d="m143.356 174.026 12.265 13h29.25v-22.5h-36.75l-3.908 3.497c-.31.585-.59 1.188-.857 1.798z" fill="#ffb1a0"/><path d="m344.092 185.897h-14.421l-3.3-4.992v21.371l3.3 4.992h14.421c14.796 0 26.79-11.995 26.79-26.79 0-3.792-.812-7.385-2.239-10.647-4.136 9.456-13.569 16.066-24.551 16.066z" fill="#ffa68e"/><path d="m167.912 185.897c-10.986 0-20.422-6.615-24.556-16.077-1.428 3.265-2.234 6.863-2.234 10.658 0 14.795 11.994 26.79 26.79 26.79h14.421l2.538-3.992v-21.371l-2.538 3.992z" fill="#ffa68e"/><path d="m342.406 72.874c-10.377-14.919-30.224-39.107-60.103-57.766-.865-.54-1.745-1.046-2.634-1.528h-11.214l-63.334 67.53v25.167h141.167l4.741-2.954v-2.629c0-9.933-2.952-19.667-8.623-27.82z" fill="#938493"/><path d="m208.309 100.693c0-9.932 2.952-19.666 8.623-27.819 10.377-14.919 30.225-39.107 60.104-57.766.865-.54 1.745-1.046 2.634-1.528-15.655-8.497-34.723-7.992-49.967 1.528-29.879 18.659-49.726 42.847-60.103 57.766-5.671 8.153-8.623 17.888-8.623 27.819v2.629l4.979 2.954h47.333l-4.979-2.954v-2.629z" fill="#7b6c79"/><path d="m324.556 161.776h-104.101v64.833l15.833 34.833 16.167 17.833 18.5 6.94h6.268c30.256-8.764 52.448-36.704 52.448-69.745v-48.448z" fill="#ffcebe"/><path d="m224.036 216.471v-48.448l8.227-6.247h-41.703l-8.227 6.247v48.448c0 37.953 29.738 72.617 74.719 72.617 6.999 0 13.761-1.015 20.17-2.872-32.686-9.029-53.186-38.244-53.186-69.745z" fill="#ffb1a0"/><path d="m205.122 103.322h145.908v37.454h-145.908z" fill="#7b6c79"/><path d="m160.976 103.322h47.333v37.454h-47.333z" fill="#665e68"/><path d="m404.317 348.162c-1.781-.69-41.286-15.989-70.831-27.431l-8.93 3.372-29.812 26.327-39.144 7.846-37.612-7.846-33.474-29.819h-6.283l-9.158 3.577-.827 3.588 149.532 172.333h24.677l4.708 4.453h83.708c7.329 0 13.271-5.942 13.271-13.271 0-10.758 0-69.227 0-81.36-.001-32.715-22.798-54.762-39.825-61.769z" fill="#ff636e"/><path d="m142.997 337.151-4.384-1.067-11.922 4.656-26.569 34.036v124.667l5 5.119h59.706l4.794-4.453h30.5l4.08 4.453h35.545l3.375-2.953h26.166l2.941 2.953h11.612l1.656-4.036z" fill="#ff636e"/><g fill="#ff7f87"><path d="m269.872 358.276h-27.125l-3 2.178v45.721l1 4.351 28.375 33.331h3.107v-83.378z"/><path d="m271.372 487.609-27.917-33.666-3.708-.534v51.153h32.482v-13.47z"/><path d="m340.75 454.896h-26.548c-3.542 0-6.413 2.871-6.413 6.413v23.802l1.02 4.166 11.5 13.75 4.247 1.536h22.607v-43.253c0-3.543-2.871-6.414-6.413-6.414z"/><path d="m197.789 454.896h-26.548c-3.542 0-6.413 2.871-6.413 6.413v43.253h39.374v-43.253c0-3.542-2.871-6.413-6.413-6.413z"/></g><path d="m395.655 136.535h-211.275l-5.759 5.616v21.5l4.788 4.372h212.246c5.715 0 10.347-4.633 10.347-10.348v-10.793c0-5.715-4.632-10.347-10.347-10.347z" fill="#938493"/><path d="m179.671 157.675v-10.793c0-5.715 4.633-10.347 10.347-10.347h-73.668c-5.715 0-10.348 4.633-10.348 10.347v10.793c0 5.715 4.633 10.348 10.348 10.348h73.668c-5.714 0-10.347-4.633-10.347-10.348z" fill="#7b6c79"/><path d="m256.003 336.939c0-7.649-4.897-14.361-12.106-16.92-13.585-4.821-22.734-12.177-27.499-16.77-2.436-2.347-6.148-2.75-9-.932l-29.166 18.293c32.517 42.752 77.772 41.868 77.772 41.868l1.743-2.025v-19.928z" fill="#7b6c79"/><path d="m304.609 302.318c-2.852-1.819-6.565-1.415-9 .932-4.766 4.592-13.914 11.949-27.499 16.77-7.209 2.558-12.106 9.271-12.106 16.92v25.54s44.967 1.004 77.483-41.748z" fill="#938493"/><path d="m169.074 324.188-30.461 11.897 145.227 168.477h40.716z" fill="#7b6c79"/><path d="m105.122 389.001c0-31.442 33.491-52.917 33.491-52.917l-30.924 12.078c-17.026 7.007-39.823 29.054-39.823 61.769v81.36c0 7.329 5.941 13.271 13.27 13.271h23.986c0-25.559 0-90.554 0-115.561z" fill="#ff4654"/><path d="m337.319 391.656h-5.864l-6.899 15.203s1.315 9.583 1.315 9.833 4.25 6.25 4.5 6.5c.169.169 3.924 1.826 6.335 2.88 6.219-3.309 10.456-9.849 10.456-17.385.001-7.281-3.964-13.625-9.843-17.031z" fill="#dbedff"/><path d="m327.476 408.688c0-7.283 3.965-13.626 9.844-17.032-2.898-1.679-6.253-2.655-9.844-2.655-10.873 0-19.687 8.814-19.687 19.687s8.814 19.687 19.687 19.687c3.59 0 6.946-.976 9.844-2.655-5.879-3.405-9.844-9.749-9.844-17.032z" fill="#b5dcff"/></g><g><path d="m300.317 408.688c0 14.991 12.196 27.187 27.187 27.187s27.188-12.196 27.188-27.187-12.196-27.187-27.188-27.187c-14.991 0-27.187 12.196-27.187 27.187zm39.374 0c0 6.72-5.467 12.187-12.188 12.187-6.72 0-12.187-5.467-12.187-12.187s5.467-12.187 12.187-12.187c6.721 0 12.188 5.468 12.188 12.187z"/><path d="m419.15 347.801c3.439-7.033 3.943-15.153 1.33-22.597-2.845-8.104-9.069-14.533-17.077-17.639-5.325-2.066-7.546-2.922-40.599-15.704-9.907-3.834-20.963.048-26.291 9.232l-5.358 9.238-22.486-14.338c-1.392-.888-2.885-1.511-4.418-1.889l-.018-12.918c19.963-14.585 32.966-38.155 32.966-64.716v-1.703h6.921c20.787 0 36.982-18.508 33.908-39.246h17.654c9.841 0 17.848-8.006 17.848-17.848v-10.793c0-9.841-8.006-17.847-17.848-17.847h-37.125c0-11.867 0-18.095 0-28.342 0-11.627-3.446-22.728-9.966-32.102-11.751-16.892-32.096-40.989-62.287-59.843-18.674-11.661-41.874-11.661-60.546 0-30.193 18.855-50.538 42.952-62.288 59.845-6.52 9.374-9.966 20.474-9.966 32.102v28.342h-37.126c-9.841 0-17.847 8.006-17.847 17.847v10.793c0 9.841 8.006 17.848 17.847 17.848h17.652c-3.067 20.797 13.17 39.246 33.91 39.246h6.921v1.703c0 25.992 12.36 49.779 32.909 64.628v13.019c-1.508.376-2.978.988-4.35 1.859l-22.636 14.198-5.342-9.211c-5.344-9.215-16.429-13.094-26.359-9.218-18.697 7.295-32.644 12.721-40.555 15.814-15.985 6.25-23.218 24.841-15.642 40.258-17.228 11.958-32.493 33.932-32.493 62.113v81.36c0 11.453 9.317 20.771 20.77 20.771h349.735c11.453 0 20.771-9.318 20.771-20.771v-22.229c0-4.142-3.358-7.5-7.5-7.5s-7.5 3.358-7.5 7.5v22.229c0 3.182-2.589 5.771-5.771 5.771h-40.647v-94.945c0-4.142-3.358-7.5-7.5-7.5s-7.5 3.358-7.5 7.5v94.945h-20.56v-35.753c0-7.672-6.242-13.913-13.914-13.913h-26.547c-7.672 0-13.914 6.241-13.914 13.913v3.614l-20.56-23.852v-74.687c22.464-6.233 41.564-19.148 56.188-36.669 71.111 27.539 66.107 25.466 69.289 27.168 13.827 7.417 31.436 25.958 31.436 53.048v24.131c0 4.142 3.358 7.5 7.5 7.5s7.5-3.358 7.5-7.5v-24.131c0-28.196-15.281-50.177-32.519-62.131zm-185.447-326.332c13.772-8.601 30.883-8.601 44.656 0 28.033 17.507 46.969 39.946 57.918 55.688 3.849 5.533 6.229 11.91 7.002 18.666h-69.748c-4.142 0-7.5 3.358-7.5 7.5s3.358 7.5 7.5 7.5h70.026v18.191h-175.053v-18.191h70.027c4.142 0 7.5-3.358 7.5-7.5s-3.358-7.5-7.5-7.5h-69.749c.773-6.755 3.153-13.132 7.002-18.666 10.948-15.742 29.884-38.181 57.919-55.688zm115.785 287.15c1.6-2.757 4.925-3.922 7.9-2.77 33.405 12.918 34.967 13.519 40.589 15.699 3.915 1.518 6.958 4.661 8.348 8.622 1.216 3.466 1.055 7.233-.416 10.553-29.98-11.61-18.497-7.163-61.279-23.732zm-27.136 13.89c-15.674 17.687-36.068 28.879-58.822 31.901v-17.471c0-4.382 2.859-8.341 7.114-9.852 11.852-4.207 22.234-10.79 30.107-18.352zm21.768-122.741h-6.921v-24.246h25.559c3.283 12.169-5.978 24.246-18.638 24.246zm-230.59-42.093v-10.793c0-1.57 1.277-2.847 2.847-2.847h279.305c1.57 0 2.848 1.277 2.848 2.847v10.793c0 1.57-1.277 2.848-2.848 2.848-11.958 0-265.455 0-279.305 0-1.569 0-2.847-1.278-2.847-2.848zm54.41 42.093c-12.661 0-21.911-12.07-18.643-24.246h25.564v24.246zm21.921 16.703c0-15.355 0-34.059 0-40.948h132.337v40.948c0 36.204-29.56 65.117-65.118 65.117-41.246 0-67.219-32.282-67.219-65.117zm67.22 80.117c10.67 0 21.76-2.165 32.156-6.753l.008 9.121c-15.842 14.414-24.742 11.597-33.214 20.044-7.672-7.648-18.343-6.491-33.261-20.086v-9.274c10.215 4.424 22.136 6.948 34.311 6.948zm-45.772 12.147c8.276 7.945 18.718 14.31 30.108 18.353 4.255 1.51 7.114 5.469 7.114 9.851v17.455c-21.68-2.897-42.736-13.549-59.066-31.957zm-97.319 12.795c8.515-3.329 22.244-8.669 40.545-15.811 2.989-1.166 6.324-.001 7.931 2.77l4.841 8.348-.935.365c-6.472 2.528-52.731 20.594-60.253 23.532-3.331-7.46.239-16.22 7.871-19.204zm-38.597 169.761v-81.36c0-25.012 15.758-45.427 32.937-53.817 2.217-1.082-.159-.078 28.095-11.113l95.85 111.194v40.866h-20.545v-35.753c0-7.672-6.241-13.913-13.913-13.913h-26.547c-7.672 0-13.914 6.241-13.914 13.913v35.753h-20.545v-94.945c0-4.142-3.358-7.5-7.5-7.5s-7.5 3.358-7.5 7.5v94.945h-40.648c-3.181.001-5.77-2.588-5.77-5.77zm96.963 5.771v-34.667h24.374v34.667zm74.919 0v-23.465c9.053 10.502 2.803 3.252 17.482 20.281v3.184zm-1.82-48.55-94.215-109.297 15.646-6.11c6.884 7.987 134.521 156.056 141.331 163.957h-20.912c-.003-.004-41.85-48.55-41.85-48.55zm69.862 13.884h24.375v34.667h-11.67c-4.806-5.576-8.033-9.319-12.705-14.738zm-109.741-107.381c9.552 5.635 18.786 9.152 26.698 11.345v19.628zm59.18 68.654-17.482-20.28v-34.008c6.438.797 11.117.796 17.482.016z"/></g></g></svg>