<svg id="Capa_1" enable-background="new 0 0 511.997 511.997" height="512" viewBox="0 0 511.997 511.997" width="512" xmlns="http://www.w3.org/2000/svg"><g><g><path d="m376.416 229.439c-5.701-2.94-10.756-6.292-14.493-10.661-6.775-7.92-10.586-21.544-11.294-32.485l-1.665-3.985 4.125-34.597 2.468-2.034c0-15.669 0-33.007 0-38.596 0-3.198-.157-6.359-.452-9.48l-3.016-5.807-21.5-19.333-45.25-19.635h-57.75l-12.684 5.753-8.316 16.632-7 28.663v108.337l-29.534 22.5-6.966 28.25 5.467 23.683 15.04 15.604s-.254 2.509-.808 6.459h171.288l9.424-4.725c33.485-15.989 30.258-65.602 12.916-74.543z" fill="#e39b74"/><path d="m182.688 229.439c5.701-2.94 10.756-6.292 14.493-10.661 6.774-7.92 10.586-21.544 11.294-32.485l3.277-1.749-3-34.333-5.202-4.534c0-40.929-.149-40.97.506-47.523 1.465-14.645 6.06-28.419 13.104-40.599l-37.823 17.156-18.875 17.75-3.57 5.694c-.335 3.349-.506 6.743-.506 10.174v37.348l5.202 4.534 3 34.333-3.277 1.749c-.708 10.941-4.52 24.565-11.294 32.485-3.737 4.369-8.792 7.721-14.493 10.661-17.514 9.03-22.593 59.52 11.675 75.008l7.416 4.26h47.164l-7.416-4.26c-34.269-15.488-29.189-65.978-11.675-75.008z" fill="#dd8858"/><path d="m152.146 159.211 12.943 10.5h22.875v-28l-4.218-4.017v-.037h-.039c-11.151-1.555-20.598 2.562-27.294 8.001-.003.002-.006.004-.009.007-1.682 1.818-3.117 3.842-4.258 6.027z" fill="#ffb1a0"/><path d="m341.089 169.711 16.75-8.5 1.956-9.52c-1.144-2.192-2.586-4.223-4.275-6.046-6.251-5.664-15.933-9.607-27.286-7.989h-.039l-4.231 5.428v26.625h17.125z" fill="#ffb1a0"/><path d="m152.146 151.692c-1.917 3.675-2.998 7.804-2.998 12.172 0 16.937 16.212 30.296 34.639 27.401l4.177-2.678v-24.333l-4.177 2.678c-13.678 2.148-26.129-4.662-31.641-15.24z" fill="#ffa68e"/><path d="m328.133 166.928-4.169-2.925v24.333l4.169 2.925c18.436 2.908 34.659-10.455 34.659-27.397 0-4.368-1.08-8.498-2.997-12.172-5.515 10.583-17.975 17.395-31.662 15.236z" fill="#ffa68e"/><path d="m403.906 319.63c-4.354-1.686-20.412-7.905-38.656-14.971l-7.827 5.551-23.348-10.5-6.015-9.455c-.411-.159-.811-.314-1.216-.471-15.723 21.898-41.267 36.308-69.977 36.211-31.694-.106-56.949-14.76-72.166-36.088-.341.132-.683.265-1.028.399l-6.082 7.57-26.167 12.333-4.942-5.485c-5.884 2.281-11.538 4.473-16.619 6.443l-25.663 33.209v153.333l3.333 6.786h22.043l14.514-9h228.5l9.778 9h48.025c7.31 0 13.236-5.926 13.236-13.237v-110.02c-.002-32.629-22.741-54.62-39.723-61.608z" fill="#dbedff"/><path d="m139.589 59.544h36.51l15.477-25v-3.047h-46.606c-6.6 0-12 5.4-12 12v9.825z" fill="#ff636e"/><path d="m372.005 59.544 6.965-6.497v-9.55c0-6.6-5.4-12-12-12h-46.167v2.464l15.14 25.583z" fill="#ff636e"/><g><path d="m143.97 56.747c-4.907 0-9.146-2.987-11-7.231v22.481c0 6.6 5.4 12 12 12h14.366l2.937-2.119 15.558-25.131z" fill="#ff4654"/></g><g><path d="m367.97 56.747h-33.683l14.551 24.589 4.018 2.661h14.113c6.6 0 12-5.4 12-12v-22.481c-1.854 4.244-6.092 7.231-10.999 7.231z" fill="#ff4654"/></g><path d="m301.276 279.884c-2.815-1.088-4.685-3.796-4.694-6.831l-.02-24.606-2.806-3.077h-43.917v78.091l3.489 4.456c1.171.045 2.348.075 3.537.079 29.392.099 55.473-15.002 71.088-37.781-12.729-4.929-22.999-8.907-26.677-10.331z" fill="#ffb1a0"/><path d="m253.328 245.369h-33.043l-4.971 3.223.001 24.417c0 5.62-5.014 6.974-7.151 7.803v-.001c-.518.201-10.79 4.184-24.568 9.525 14.531 21.367 38.935 36.41 69.732 37.581z" fill="#ffa68e"/><path d="m230.422 377.044-7.404-5.547h-3.29c-19.832 0-36.057-16.226-36.057-36.057v-45.133c-11.187 4.337-24.699 9.576-37.191 14.419v78.047c0 9.607-3.811 18.364-9.993 24.841-4.336 4.543-6.913 10.48-6.913 16.761v80.121h93.444l7.404-6.62z" fill="#ff4654"/><path d="m365.249 382.773v-78.113c-12.381-4.795-25.769-9.98-37.191-14.403v45.183c0 19.832-16.226 36.057-36.057 36.057h-68.983v133h159.348v-79.901c0-6.324-2.611-12.296-7-16.849-6.255-6.491-10.117-15.302-10.117-24.974z" fill="#ff636e"/><path d="m279.635 10.332h-12.797l-39.25 22.879-16.496 32.992c13.799-4.493 28.5-6.975 43.779-7.086 38.639-.282 73.851 14.354 100.233 38.484-4.022-42.593-34.869-77.372-75.469-87.269z" fill="#dbedff"/><path d="m279.635 10.332c-7.816-1.905-15.992-2.894-24.409-2.833-51.481.376-93.307 40.404-98.332 90.655 15.868-14.723 34.946-25.981 56.078-32.543 12.653-27.245 37.017-47.994 66.663-55.279z" fill="#b5dcff"/><path d="m308.594 137.657c-2.263 0-2.433-.058-14.977-1.122-17.353-1.471-32.314-14.641-36.464-31.721-.133-.549-.615-.941-1.181-.941s-1.047.392-1.181.941c-3.795 15.653-16.584 27.822-31.773 31.053l-6.18 7.093v68.5l20.75 34.5 23 10.75 15.25 1.409c30.102-8.47 52.356-36.579 52.356-69.273v-51.19h-19.6z" fill="#ffcebe"/><path d="m223.018 189.547v-53.68c-1.671.356-3.371.608-5.092.739 1.018-.078-12.835 1.05-15.298 1.05h-18.884v51.891c0 37.117 29.014 71.047 72.966 71.195 6.621.022 13.031-.907 19.128-2.622-32.449-8.633-52.82-37.478-52.82-68.573z" fill="#ffb1a0"/><path d="m140.082 307.206c-17.501 6.785-31.615 12.257-32.047 12.424-16.982 6.988-39.722 28.979-39.722 61.611v110.02c0 7.31 5.926 13.237 13.236 13.237h25.981c0-34.844 0-100.76 0-132.286.001-35.716 23.646-57.912 32.552-65.006z" fill="#b5dcff"/></g><g><path d="m254.01 397.247h-1.31c-4.143 0-7.5 3.358-7.5 7.5s3.357 7.5 7.5 7.5h1.31c4.143 0 7.5-3.358 7.5-7.5s-3.357-7.5-7.5-7.5z"/><path d="m254.01 430.497h-1.31c-4.143 0-7.5 3.358-7.5 7.5s3.357 7.5 7.5 7.5h1.31c4.143 0 7.5-3.358 7.5-7.5s-3.357-7.5-7.5-7.5z"/><path d="m254.01 463.747h-1.31c-4.143 0-7.5 3.358-7.5 7.5s3.357 7.5 7.5 7.5h1.31c4.143 0 7.5-3.358 7.5-7.5s-3.357-7.5-7.5-7.5z"/><path d="m286.879 397.247h-1.31c-4.143 0-7.5 3.358-7.5 7.5s3.357 7.5 7.5 7.5h1.31c4.143 0 7.5-3.358 7.5-7.5s-3.357-7.5-7.5-7.5z"/><path d="m286.879 430.497h-1.31c-4.143 0-7.5 3.358-7.5 7.5s3.357 7.5 7.5 7.5h1.31c4.143 0 7.5-3.358 7.5-7.5s-3.357-7.5-7.5-7.5z"/><path d="m286.879 463.747h-1.31c-4.143 0-7.5 3.358-7.5 7.5s3.357 7.5 7.5 7.5h1.31c4.143 0 7.5-3.358 7.5-7.5s-3.357-7.5-7.5-7.5z"/><path d="m406.788 312.695c-.049-.02-.098-.04-.146-.058l-27.194-10.532c10.752-10.04 17.008-24.72 17.266-41.543.269-17.545-6.339-32.378-16.833-37.789 0 0 0 0-.001 0-5.667-2.922-9.554-5.741-12.23-8.871-4.976-5.816-8.016-15.764-9.128-24.264 7.502-6.667 11.798-16.016 11.798-25.775 0-7.554-2.551-14.87-7.235-20.913v-35.869c0-5.264-.381-10.469-1.121-15.584h5.034c10.752 0 19.5-8.748 19.5-19.5v-28.5c0-10.752-8.748-19.5-19.5-19.5h-43.421c-18.114-14.79-40.853-23.522-65.542-23.976-25.024-.5-49.503 7.911-69.161 23.976h-43.876c-10.752 0-19.5 8.748-19.5 19.5v28.5c0 10.752 8.748 19.5 19.5 19.5h5.22c-.871 5.591-1.303 11.121-1.303 16.832v34.619c-4.686 6.043-7.239 13.361-7.239 20.915 0 9.759 4.297 19.108 11.798 25.775-1.112 8.499-4.153 18.447-9.128 24.264-2.675 3.128-6.562 5.947-12.23 8.87-11.064 5.705-18.178 21.939-17.702 40.399.414 16.043 6.457 29.956 16.712 39.473-9.485 3.677-16.224 6.29-25.774 9.993-.048.018-.095.037-.142.057-21.369 8.793-44.368 33.994-44.368 68.546v110.02c0 11.434 9.302 20.736 20.736 20.736h348.841c11.434 0 20.736-9.302 20.736-20.736l.001-50.764c0-4.142-3.357-7.5-7.5-7.5-4.142 0-7.5 3.358-7.5 7.5l-.001 50.764c0 3.163-2.573 5.736-5.736 5.736h-40.524v-72.401c0-3.05-.454-6.057-1.332-8.946-1.462-4.815-4.1-9.302-7.767-13.108-5.17-5.364-8.018-12.385-8.018-19.77v-67.166l28.372 10.988c14.099 5.837 35.006 25.17 35.006 54.646v24.256c0 4.142 3.357 7.5 7.5 7.5s7.5-3.358 7.5-7.5v-24.256c0-34.55-22.999-59.751-44.368-68.544zm-187.032 51.302c-15.747 0-28.558-12.811-28.558-28.557v-24.894c17.291 15.958 40.313 24.866 65.669 24.951h.31c23.673 0 46.241-9.178 63.409-25.237v25.18c0 15.747-12.811 28.557-28.558 28.557-8.348 0-64.588 0-72.272 0zm-63.08-200.133c0-4.795 2.234-10.881 6.275-13.736 4.034-2.85 8.59-4.67 13.323-5.156v39.04c-10.64-1.091-19.598-9.425-19.598-20.148zm7.239-31.171v-24.364c0-2.21.082-4.401.233-6.574 21.268-18.963 47.215-30.766 75.248-34.142 4.113-.496 7.044-4.231 6.549-8.343-.496-4.112-4.228-7.044-8.343-6.549-25.015 3.013-48.535 12.053-69.044 26.41 12.021-36.756 46.388-64.219 87.737-64.127 40.171.142 75.297 26.843 87.34 63.853-20.552-14.221-44.145-23.171-69.252-26.152-4.1-.484-7.844 2.45-8.331 6.563-.488 4.113 2.45 7.844 6.563 8.332 28.056 3.331 54.006 14.948 75.264 33.607.122 1.949.205 3.905.205 5.875v25.375c-13.984-5.302-16.922-.25-53.806-3.395-14.126-1.198-26.38-11.901-29.808-26.008-.95-3.933-4.434-6.68-8.471-6.68-4.031 0-7.514 2.742-8.471 6.674-4.395 18.131-21.468 26.081-30.146 26.081-.034.014-12.825 1.028-14.728 1.028h-18.428c-6.673-.842-13.73-.025-20.311 2.536zm171.807 51.319.001-39.116c10.882.937 19.597 7.939 19.597 18.968 0 10.673-8.853 19.004-19.598 20.148zm-78.958 69.23c-40.098-.132-65.491-31.572-65.491-63.694v-44.391h11.383c2.041 0 15.902-.935 19.665-1.541 13.914-2.233 26.238-10.688 33.687-22.583 8.051 12.824 21.771 21.685 37.002 22.976 16.168 1.379 10.768 1.148 27.711 1.148v43.69c.001 35.163-28.902 64.559-63.957 64.395zm-43.291 33.504c9.497 9.758 24.989 15.461 42.939 15.501h.157c16.586 0 32.139-5.942 41.658-15.527.123.052.242.11.368.158l17.299 6.699c-14.909 17.016-36.23 26.92-58.718 26.92-.085 0-.173 0-.258 0-24.43-.082-46.249-9.736-61.225-26.795 18.449-7.153 16.78-6.489 17.78-6.956zm75.627-25.484.01 11.813c.001.444.027.882.066 1.317 0 .005.001.009.002.014-13.933 17.406-53.047 16.761-66.421.235.051-.533.085-1.074.085-1.632v-11.8c19.45 8.582 44.23 10.1 66.258.053zm83.907-25.157c4.366 2.252 8.903 11.508 8.708 24.227-.092 5.989-1.749 25.514-18.666 35.422-6.785-2.628-51.999-20.138-58.94-22.826l-.017-20.646c16.428-12.485 28.126-31.364 30.947-53.164 2.982-.139 6.435-.698 9.587-1.669 1.889 9.202 5.57 19.126 11.625 26.204 3.981 4.654 9.305 8.61 16.756 12.452zm-6.01-197.108c2.439 0 4.5 2.061 4.5 4.5v28.5c0 2.439-2.061 4.5-4.5 4.5h-8.325c-4.089-13.801-10.969-26.583-19.995-37.5zm-226.499 33v-28.5c0-2.439 2.061-4.5 4.5-4.5h28.784c-9.29 11.232-16.029 24.019-20.13 37.5h-8.653c-2.44 0-4.501-2.061-4.501-4.5zm-1.508 164.108c7.452-3.843 12.776-7.8 16.755-12.452 6.054-7.079 9.735-17.002 11.624-26.204 2.834.876 6.25 1.505 9.501 1.665 2.665 22.086 14.342 41.051 30.972 53.375v20.369c-.432.244-59.765 23.215-60.228 23.395-15.815-8.813-18.017-26.146-18.205-33.468-.347-13.43 4.599-24.112 9.581-26.68zm-63.149 255.156v-110.02c0-29.478 20.909-48.812 35.008-54.647l28.159-10.917v67.095c0 7.33-2.812 14.313-7.918 19.664-5.795 6.072-8.987 13.864-8.987 21.939v72.621h-40.525c-3.164.001-5.737-2.572-5.737-5.735zm61.261-66.885c0-4.201 1.718-8.314 4.838-11.583 7.781-8.153 12.067-18.814 12.067-30.02v-72.911l22.191-8.603v34.181c0 22.597 17.298 41.225 39.348 43.35v118.207h-78.444zm232.893-11.425c3.159 3.279 4.899 7.415 4.899 11.645v72.401h-144.348v-118h61.482c24.018 0 43.558-19.54 43.558-43.557v-34.236c7.898 3.059 13.504 5.23 22.191 8.594v72.975c.001 11.287 4.34 22.005 12.218 30.178z"/></g></g></svg>