<svg id="Capa_1" enable-background="new 0 0 512 512" height="512" viewBox="0 0 512 512" width="512" xmlns="http://www.w3.org/2000/svg"><g><g><path d="m295.141 15.074h-9.252l-2.5 2.015v30.375l2.5 2.86h9.252c4.211 0 7.625-3.414 7.625-7.625v-20c0-4.211-3.414-7.625-7.625-7.625z" fill="#ff636e"/><path d="m271.132 98.536-2.875 1.178-16.667 55.786v7.38h31.799l5.5-7.38z" fill="#60b9fe"/><path d="m265.822 81.5h-19.699l-23.068 74 7.035 7.38h23.981v-7.38l17.061-56.964z" fill="#1ca8ff"/><path d="m262.222 15.074h23.667v35.25h-23.667z" fill="#ff4654"/><path d="m292.826 155.5h-41.236v86.714h43.167l4.873-4.214v-75.696c-.001-3.758-3.047-6.804-6.804-6.804z" fill="#ecaa9a"/><path d="m254.071 155.5h-34.952c-3.758 0-6.804 3.046-6.804 6.804v75.696l4.888 4.214h36.869v-86.714z" fill="#e79380"/><circle cx="255.972" cy="196.75" fill="#f1beb2" r="15.25"/><path d="m339.09 404.464h90.167v100.036h-90.167z" fill="#df7e66"/><path d="m298.09 404.464h44.549v100.036h-44.549z" fill="#d9694b"/><path d="m121.424 404.464h90.333v100.036h-90.333z" fill="#df7e66"/><path d="m83.285 404.464h41.688v100.036h-41.688z" fill="#d9694b"/><path d="m435.851 346.5h-93.212l-3.549 7.417v53.583h82.799l6.701-4.536v-19.464l10.75-31.625z" fill="#60b9fe"/><path d="m342.639 346.5h-34.917l-6.632 7.417v48.547l6.632 5.036h34.917z" fill="#1ca8ff"/><path d="m204.222 346.5h-79.25l-3.548 7.417v53.583h82.798l3.618-5.536v-51z" fill="#60b9fe"/><path d="m124.972 346.5h-48.878l-3.254 5.375 11.75 31.625v19.214l5.465 4.786h34.917z" fill="#1ca8ff"/><path d="m231.889 238h-22.5c-2.853 0-5.167 2.313-5.167 5.167v261.333h27.667l3.868-5.226v-255.893z" fill="#d9694b"/><path d="m302.556 238h-22.5l-4.799 4.047v257.833l4.799 4.619h27.667v-261.332c-.001-2.854-2.314-5.167-5.167-5.167z" fill="#e79380"/><path d="m276.924 377 3.132-2.912v-136.088h-48.167v136.088l2.035 2.912z" fill="#df7e66"/><path d="m275.84 486.339 4.215-4.28v-107.971l-16.131-16.785c-4.34-4.516-11.564-4.516-15.904 0l-16.132 16.785v107.971l3.701 4.28z" fill="#c55639"/><path d="m262.879 464.186c-3.769-3.922-10.044-3.922-13.813 0l-17.177 17.873v22.441h48.167v-22.441z" fill="#a94a30"/><path d="m466.893 335.368-3.803 1.679-17.118 46.453v2.089h35.698l3.386-2.089z" fill="#b5dcff"/><path d="m466.698 334.851-1.453-3.851h-23.545l-19.811 52.5 2.451 2.089h26.452l-2.452-2.089z" fill="#8bcaff"/><path d="m445.972 383.5h39.083v121h-39.083z" fill="#ecaa9a"/><path d="m421.889 383.5h26.451v121h-26.451z" fill="#e79380"/><path d="m71.893 335.368-3.803 1.679-17.118 46.453v2.089h35.698l3.385-2.089z" fill="#b5dcff"/><path d="m71.698 334.851-1.453-3.851h-23.545l-19.811 52.5 2.451 2.089h26.452l-2.452-2.089z" fill="#8bcaff"/><path d="m50.972 383.5h39.083v121h-39.083z" fill="#ecaa9a"/><path d="m26.889 383.5h26.451v121h-26.451z" fill="#e79380"/></g><g><path d="m504.5 497h-11.917v-113.5c0-.91-.199-1.904-.483-2.648l-16.603-44c1.715-1.375 2.816-3.483 2.816-5.852v-10.333c0-4.142-3.357-7.5-7.5-7.5s-7.5 3.358-7.5 7.5v2.833h-19.625v-2.833c0-4.142-3.357-7.5-7.5-7.5s-7.5 3.358-7.5 7.5v10.333c0 2.369 1.101 4.478 2.816 5.852l-.811 2.148h-41.378c-4.143 0-7.5 3.358-7.5 7.5s3.357 7.5 7.5 7.5h35.718l-10.133 26.852c-.32.847-.483 1.765-.483 2.648v16.5h-99.167v-46h39.064c4.143 0 7.5-3.358 7.5-7.5s-3.357-7.5-7.5-7.5h-39.064v-95.833c0-5.37-3.365-9.959-8.093-11.798v-14.749c0-4.142-3.357-7.5-7.5-7.5s-7.5 3.358-7.5 7.5v13.88c-15.828 0-57.04 0-72.314 0v-67.5h72.314v18.619c0 4.142 3.357 7.5 7.5 7.5s7.5-3.358 7.5-7.5v-19.315c0-4.674-2.263-8.818-5.74-11.43v-28.374c0-4.142-3.357-7.5-7.5-7.5-4.078 0-7.388 3.256-7.49 7.309l-10.385-33.316c4.084-.067 7.375-3.394 7.375-7.494 0-4.142-3.357-7.5-7.5-7.5-7.19 0-9.202 0-12.417 0v-16.175h31.669c8.34 0 15.125-6.785 15.125-15.125v-20c0-8.34-6.785-15.125-15.125-15.125h-31.669v-.074c0-4.142-3.357-7.5-7.5-7.5s-7.5 3.358-7.5 7.5v66.5c-3.215 0-5.223 0-12.417 0-4.143 0-7.5 3.358-7.5 7.5 0 4.1 3.291 7.427 7.375 7.494l-10.385 33.316c-.102-4.053-3.412-7.309-7.49-7.309-4.143 0-7.5 3.358-7.5 7.5v28.374c-3.477 2.612-5.74 6.756-5.74 11.43v69.064c-4.728 1.839-8.093 6.428-8.093 11.798v95.833h-115.443l-.811-2.148c1.715-1.375 2.816-3.483 2.816-5.852v-10.333c0-4.142-3.357-7.5-7.5-7.5s-7.5 3.358-7.5 7.5v2.833h-19.624v-2.833c0-4.142-3.357-7.5-7.5-7.5s-7.5 3.358-7.5 7.5v10.333c0 2.369 1.101 4.478 2.816 5.852l-16.603 44c-.288.759-.483 1.741-.483 2.648v113.5h-11.918c-4.143 0-7.5 3.358-7.5 7.5s3.357 7.5 7.5 7.5h497c4.143 0 7.5-3.358 7.5-7.5s-3.357-7.5-7.5-7.5zm-209.331-474.426c.069 0 .125.056.125.125v20c0 .069-.056.125-.125.125h-31.669v-20.25zm164.917 315.926 14.15 37.5h-41.473l14.15-37.5zm-45.669 76.5v45.333h-99.167v-45.333zm-141.834 48.432-4.27-4.443c-3.25-3.382-7.623-5.245-12.313-5.245-4.691 0-9.064 1.863-12.313 5.245l-4.27 4.443v-26.723h33.166zm-33.166-41.724v-44.601l14.038-14.607c.906-.943 1.983-1.084 2.545-1.084s1.639.141 2.545 1.083l14.038 14.607v44.601h-33.166zm-141.834-6.708h99.167v45.333h-99.167zm114.167-106.146h12.667v112.854h-12.667c0-13.001 0-100.18 0-112.854zm60.833 46.607-3.224-3.354c-3.526-3.669-8.271-5.69-13.359-5.69s-9.833 2.021-13.359 5.69l-3.224 3.354v-46.607h33.166zm15-46.607h12.667v112.854h-12.667c0-22.273 0-90.42 0-112.854zm12.074-63.354h.593v48.354h-12.667v-48.354zm-27.074 48.354h-33.166v-48.354h33.166zm-48.166-48.354v48.354h-12.667v-48.354h.593zm27.251-156.5h8.664l18.391 59h-45.445zm-164.7 265h109.782v46h-99.167v-16.5c0-.932-.197-1.891-.483-2.648zm-21.882-15.5 14.15 37.5h-41.472l14.15-37.5zm-30.669 52.5h48.166v106h-16.583v-10.5c0-4.142-3.357-7.5-7.5-7.5s-7.5 3.358-7.5 7.5v10.5h-16.583zm63.166 84.333h99.167v21.667h-99.167zm114.167-38.625h12.667v60.292h-12.667zm27.667 48.371 15.085-15.696c.507-.527 1.094-.638 1.498-.638s.991.111 1.498.638h.001l15.084 15.695v11.922h-33.166zm48.166-48.371h12.667v60.292h-12.667c0-6.376 0-53.329 0-60.292zm27.667 38.625h99.167v21.667h-99.167zm145.75 21.667v-10.5c0-4.142-3.357-7.5-7.5-7.5s-7.5 3.358-7.5 7.5v10.5h-16.583c0-12.27 0-93.891 0-106h48.166v106z"/><path d="m453.5 410c-4.143 0-7.5 3.358-7.5 7.5v5.5c0 4.142 3.357 7.5 7.5 7.5s7.5-3.358 7.5-7.5v-5.5c0-4.142-3.357-7.5-7.5-7.5z"/><path d="m336.167 449c4.143 0 7.5-3.358 7.5-7.5v-5.5c0-4.142-3.357-7.5-7.5-7.5s-7.5 3.358-7.5 7.5v5.5c0 4.142 3.357 7.5 7.5 7.5z"/><path d="m364.833 449c4.143 0 7.5-3.358 7.5-7.5v-5.5c0-4.142-3.357-7.5-7.5-7.5s-7.5 3.358-7.5 7.5v5.5c0 4.142 3.357 7.5 7.5 7.5z"/><path d="m393.5 449c4.143 0 7.5-3.358 7.5-7.5v-5.5c0-4.142-3.357-7.5-7.5-7.5s-7.5 3.358-7.5 7.5v5.5c0 4.142 3.357 7.5 7.5 7.5z"/><path d="m453.5 444c-4.143 0-7.5 3.358-7.5 7.5v5.5c0 4.142 3.357 7.5 7.5 7.5s7.5-3.358 7.5-7.5v-5.5c0-4.142-3.357-7.5-7.5-7.5z"/><path d="m58.5 430.5c4.143 0 7.5-3.358 7.5-7.5v-5.5c0-4.142-3.357-7.5-7.5-7.5s-7.5 3.358-7.5 7.5v5.5c0 4.142 3.357 7.5 7.5 7.5z"/><path d="m175.833 428.5c-4.143 0-7.5 3.358-7.5 7.5v5.5c0 4.142 3.357 7.5 7.5 7.5s7.5-3.358 7.5-7.5v-5.5c0-4.142-3.357-7.5-7.5-7.5z"/><path d="m147.167 428.5c-4.143 0-7.5 3.358-7.5 7.5v5.5c0 4.142 3.357 7.5 7.5 7.5s7.5-3.358 7.5-7.5v-5.5c0-4.142-3.357-7.5-7.5-7.5z"/><path d="m118.5 428.5c-4.143 0-7.5 3.358-7.5 7.5v5.5c0 4.142 3.357 7.5 7.5 7.5s7.5-3.358 7.5-7.5v-5.5c0-4.142-3.357-7.5-7.5-7.5z"/><path d="m58.5 464.5c4.143 0 7.5-3.358 7.5-7.5v-5.5c0-4.142-3.357-7.5-7.5-7.5s-7.5 3.358-7.5 7.5v5.5c0 4.142 3.357 7.5 7.5 7.5z"/><path d="m233.25 196.75c0 12.544 10.206 22.75 22.75 22.75s22.75-10.206 22.75-22.75-10.206-22.75-22.75-22.75-22.75 10.206-22.75 22.75zm30.5 0c0 4.273-3.477 7.75-7.75 7.75s-7.75-3.477-7.75-7.75 3.477-7.75 7.75-7.75 7.75 3.477 7.75 7.75z"/></g></g></svg>