<svg id="Capa_1" enable-background="new 0 0 512 512" height="512" viewBox="0 0 512 512" width="512" xmlns="http://www.w3.org/2000/svg"><g><g><path d="m493.553 245.163h-412.339l-7.124 6.3v138.25l4.909 6.991h414.554c6.031 0 10.919-4.889 10.919-10.919v-129.702c0-6.031-4.889-10.92-10.919-10.92z" fill="#dbedff"/><path d="m77.588 385.785v-129.702c0-6.031 4.889-10.919 10.919-10.919h-70.116c-6.031 0-10.919 4.889-10.919 10.919v129.702c0 6.031 4.889 10.919 10.919 10.919h70.116c-6.03 0-10.919-4.889-10.919-10.919z" fill="#b5dcff"/><path d="m337.164 162.77h-102.362l-2.962 3.568v38.75l3.693 3.625h101.631c3.531 0 6.393-2.862 6.393-6.393v-33.156c0-3.531-2.862-6.394-6.393-6.394z" fill="#ffd086"/><path d="m233.553 202.32v-33.156c0-3.531 2.863-6.393 6.394-6.393h-65.167c-3.531 0-6.394 2.862-6.394 6.393v33.156c0 3.531 2.863 6.393 6.394 6.393h65.166c-3.531 0-6.393-2.862-6.393-6.393z" fill="#ffc365"/></g><g><path d="m80.853 285.435-18.807 47.776-18.808-47.776c-1.517-3.855-5.876-5.75-9.726-4.231-3.854 1.517-5.749 5.872-4.231 9.726l25.786 65.503c1.155 2.914 3.981 4.755 6.977 4.755h.002.002c3.047 0 5.852-1.904 6.977-4.755l25.785-65.503c1.518-3.854-.377-8.208-4.231-9.726-3.855-1.52-8.21.375-9.726 4.231z"/><path d="m104.333 288.182v65.503c0 4.142 3.357 7.5 7.5 7.5s7.5-3.358 7.5-7.5v-65.503c0-4.142-3.357-7.5-7.5-7.5s-7.5 3.358-7.5 7.5z"/><path d="m394.068 288.182v65.503c0 4.142 3.357 7.5 7.5 7.5s7.5-3.358 7.5-7.5v-65.503c0-4.142-3.357-7.5-7.5-7.5s-7.5 3.358-7.5 7.5z"/><path d="m450.351 280.688c-3.082 0-5.877 1.923-6.988 4.784l-25.385 65.503c-1.497 3.862.421 8.207 4.283 9.703 3.861 1.496 8.206-.42 9.703-4.283l5.494-14.177h25.795l5.494 14.177c1.497 3.864 5.843 5.78 9.703 4.283 3.862-1.497 5.78-5.841 4.283-9.703l-25.385-65.503c-1.081-2.798-3.814-4.787-6.997-4.784zm-7.08 46.531 7.084-18.281 7.084 18.281z"/><path d="m163.375 295.682c6.671 0 12.973 4.026 16.856 10.77 2.067 3.59 6.652 4.823 10.242 2.757 3.589-2.067 4.823-6.653 2.756-10.242-6.593-11.449-17.754-18.284-29.854-18.284-19.638 0-35.613 18.057-35.613 40.252s15.976 40.251 35.613 40.251c12.102 0 23.263-6.836 29.855-18.286 2.067-3.59.833-8.175-2.757-10.242-3.587-2.066-8.174-.832-10.241 2.757-3.884 6.745-10.186 10.771-16.857 10.771-11.366 0-20.613-11.328-20.613-25.251s9.247-25.253 20.613-25.253z"/><path d="m227.628 361.185c4.143 0 7.5-3.358 7.5-7.5v-58.003h18.701c4.143 0 7.5-3.358 7.5-7.5s-3.357-7.5-7.5-7.5h-52.402c-4.143 0-7.5 3.358-7.5 7.5s3.357 7.5 7.5 7.5h18.701v58.003c0 4.142 3.357 7.5 7.5 7.5z"/><path d="m290.388 361.185c17.259 0 30.778-17.681 30.778-40.251 0-22.571-13.52-40.252-30.778-40.252s-30.778 17.681-30.778 40.252c-.001 22.571 13.519 40.251 30.778 40.251zm0-65.503c8.553 0 15.778 11.564 15.778 25.252s-7.226 25.251-15.778 25.251-15.778-11.564-15.778-25.251c-.001-13.688 7.225-25.252 15.778-25.252z"/><path d="m384.051 306.248c0-14.097-11.469-25.566-25.566-25.566h-21.235c-4.143 0-7.5 3.358-7.5 7.5v65.503c0 4.142 3.357 7.5 7.5 7.5s7.5-3.358 7.5-7.5v-21.871h9.124l16.336 25.875c2.212 3.503 6.843 4.549 10.346 2.338s4.549-6.843 2.338-10.346l-12.987-20.57c8.377-4.202 14.144-12.869 14.144-22.863zm-39.302-10.566h13.735c5.826 0 10.566 4.74 10.566 10.566s-4.74 10.566-10.566 10.566h-13.735z"/><path d="m153.329 85.669c-14.354 25.054.022 54.24 12.845 72.629-3.2 2.547-5.26 6.467-5.26 10.865v33.156c0 7.661 6.233 13.894 13.895 13.894h63.691c4.143 0 7.5-3.358 7.5-7.5s-3.357-7.5-7.5-7.5h-62.586v-30.942h160.171v30.942h-62.585c-4.143 0-7.5 3.358-7.5 7.5s3.357 7.5 7.5 7.5h63.692c7.66 0 13.893-6.232 13.893-13.894v-33.156c0-4.398-2.06-8.318-5.259-10.865 12.823-18.389 27.2-47.576 12.845-72.63-14.129-24.658-45.394-19.989-54.035-18.151-13.74-9.123-30.529-6.218-41.136-2.782v-18.035h6.249c4.143 0 7.5-3.358 7.5-7.5s-3.357-7.5-7.5-7.5h-6.249v-10.492c0-4.142-3.357-7.5-7.5-7.5s-7.5 3.358-7.5 7.5v10.492h-6.249c-4.143 0-7.5 3.358-7.5 7.5s3.357 7.5 7.5 7.5h6.249v18.037c-10.607-3.436-27.396-6.341-41.137 2.782-8.641-1.838-39.905-6.509-54.034 18.15zm192.326 7.457c12.179 21.256-7.159 50.411-16.203 62.145h-19.415c8.107-16.533 20.876-49.875 6.93-74.278 9.318-.494 22.347 1.066 28.688 12.133zm-45.134-9.456c18.829 21.111-1.912 61.721-7.428 71.601h-29.593v-74.568c7.573-3.148 26.246-9.118 37.021 2.967zm-52.021-2.948v74.549h-29.575c-5.459-9.913-26.04-50.753-7.445-71.601 10.7-11.998 29.42-6.073 37.02-2.948zm-82.155 12.405c6.292-10.982 19.329-12.562 28.665-12.095-13.91 24.4-1.15 57.715 6.953 74.239h-19.415c-9.045-11.734-28.382-40.889-16.203-62.144z"/><path d="m243.171 493.5 5.178-13.36h24.243l5.178 13.36c1.497 3.864 5.843 5.78 9.703 4.283 3.862-1.497 5.78-5.841 4.283-9.703l-24.292-62.685c-1.075-2.787-3.803-4.784-6.994-4.784-3.132 0-5.893 1.96-6.992 4.784l-24.293 62.685c-1.497 3.862.421 8.207 4.283 9.703 3.86 1.497 8.206-.419 9.703-4.283zm10.991-28.36 6.309-16.279 6.309 16.279z"/><path d="m322.076 498.29c4.143 0 7.5-3.358 7.5-7.5v-23.012l20.717-35.927c2.069-3.588.838-8.175-2.751-10.244-3.586-2.07-8.174-.839-10.243 2.75l-15.223 26.399-15.223-26.399c-2.069-3.588-6.654-4.819-10.243-2.75s-4.82 6.655-2.751 10.244l20.717 35.927v23.012c0 4.142 3.358 7.5 7.5 7.5z"/><path d="m185.709 498.29c19.215 0 34.848-15.632 34.848-34.847v-7.992c0-19.214-15.633-34.847-34.848-34.847h-17.505c-4.143 0-7.5 3.358-7.5 7.5v62.685c0 4.142 3.357 7.5 7.5 7.5h17.505zm-10.005-62.685h10.005c10.944 0 19.848 8.903 19.848 19.847v7.992c0 10.943-8.903 19.847-19.848 19.847h-10.005z"/><path d="m133.355 466.948c4.143 0 7.5-3.358 7.5-7.5s-3.357-7.5-7.5-7.5h-14.551c-4.143 0-7.5 3.358-7.5 7.5s3.357 7.5 7.5 7.5z"/><path d="m373.645 466.948h14.551c4.143 0 7.5-3.358 7.5-7.5s-3.357-7.5-7.5-7.5h-14.551c-4.143 0-7.5 3.358-7.5 7.5s3.357 7.5 7.5 7.5z"/><path d="m493.581 237.663h-475.162c-10.156 0-18.419 8.263-18.419 18.419v129.702c0 10.157 8.263 18.42 18.419 18.42h475.162c10.156 0 18.419-8.263 18.419-18.42v-47.619c0-4.142-3.357-7.5-7.5-7.5s-7.5 3.358-7.5 7.5v47.619c0 1.886-1.534 3.42-3.419 3.42h-475.162c-1.885 0-3.419-1.534-3.419-3.42v-129.702c0-1.885 1.534-3.419 3.419-3.419h475.162c1.885 0 3.419 1.534 3.419 3.419v47.083c0 4.142 3.357 7.5 7.5 7.5s7.5-3.358 7.5-7.5v-47.083c0-10.156-8.263-18.419-18.419-18.419z"/></g></g></svg>