<svg id="Capa_1" enable-background="new 0 0 512 512" height="512" viewBox="0 0 512 512" width="512" xmlns="http://www.w3.org/2000/svg"><g><g><path d="m400.425 296.821h-200.807l-5.527 23.209v23.208h206l7.72-6.423v-35.367z" fill="#6b7ed9"/><path d="m197.056 296.821h-86.166l-6.756 4.627v35.367l7.957 6.423h84.965z" fill="#4d66d2"/><path d="m402.091 462.965h-208v38.773l2.965 2.762h198.755c6.6 0 12-5.4 12-12v-23.366z" fill="#6b7ed9"/><path d="m197.056 462.965h-86.965l-5.957 6.168v23.367c0 6.6 5.4 12 12 12h80.922z" fill="#4d66d2"/><path d="m385.727 233.448h-183.544l-9.092 5.373-5.75 10v26.75h213.084l7.386-5.456v-14.583c0-12.146-9.938-22.084-22.084-22.084z" fill="#b5dcff"/><path d="m191.781 255.533c0-12.146 9.938-22.084 22.084-22.084h-87.647c-12.146 0-22.084 9.938-22.084 22.084v14.583l5.207 5.456h87.647l-5.207-5.456z" fill="#8bcaff"/><path d="m174.637 343.238-5.455-6.423h-65.048v132.319h65.048l5.455-6.169z" fill="#ff4654"/><path d="m342.764 336.815-5.673 5.423v120.333l5.673 6.563h65.047v-132.319z" fill="#ff636e"/><path d="m194.091 336.815h148.672v132.319h-148.672z" fill="#dbedff"/><path d="m169.182 336.815h27.874v132.319h-27.874z" fill="#b5dcff"/><path d="m414.971 270.115h-232.603l-2.527.956-2.917 4.5v19.25l1.333 3.833s2.574 1.453 4.875 2.794h231.838c4.971 0 9.001-4.03 9.001-9.002v-13.33c.002-4.971-4.029-9.001-9-9.001z" fill="#dbedff"/><path d="m178.222 292.447v-13.33c0-4.972 4.03-9.002 9.002-9.002h-90.25c-4.972 0-9.002 4.03-9.002 9.002v13.33c0 4.971 4.03 9.002 9.002 9.002h90.25c-4.971-.001-9.002-4.031-9.002-9.002z" fill="#b5dcff"/><path d="m307.14 406.142-5.502-2.574c-.775-.363-1.167-1.239-.919-2.058l4.098-13.586c.193-.641-.387-1.247-1.035-1.083l-13.757 3.481c-.83.21-1.688-.221-2.015-1.012l-2.323-5.612c-.256-.619-1.09-.721-1.488-.182l-12.304 16.668c-.547.741-1.721.24-1.563-.669l5.773-33.221c.138-.796-.646-1.439-1.4-1.146l-6.833 2.653c-.963.374-2.054-.015-2.562-.914l-8.434-14.902c-.226-.4-.651-.564-1.049-.509l-.76 2.191-1.983 46.396-5.835 3.512-6.236-3.087c-.327.106-.711.037-.964-.306l-12.304-16.668c-.398-.539-1.232-.437-1.488.182l-2.323 5.612c-.327.791-1.185 1.221-2.015 1.012l-6.499-1.645v2.804l38.825 40.533 4.099 2.026c.529.032 1.058.066 1.586.118l17.158 1.71c1.137.114 1.91-1.126 1.309-2.097l-2.202-3.559c-.426-.689-.231-1.591.442-2.043l30.617-20.533c.558-.37.493-1.208-.114-1.492z" fill="#ff636e"/><path d="m215.421 388.677-7.257-1.836c-.649-.164-1.229.442-1.035 1.083l4.098 13.586c.247.819-.145 1.696-.92 2.058l-5.502 2.574c-.607.284-.671 1.122-.115 1.495l30.617 20.533c.673.451.868 1.354.442 2.043l-2.202 3.559c-.601.972.172 2.211 1.309 2.097l17.158-1.71c2.105-.21 4.222-.244 6.331-.118z" fill="#ff4654"/><path d="m255.068 351.985-8.433 14.902c-.509.899-1.6 1.288-2.562.914l-6.833-2.653c-.754-.293-1.538.35-1.4 1.146l5.773 33.221c.085.489-.218.851-.6.974l3.639 3.599c3.718 3.678 10.032 1.121 10.143-4.108l1.032-48.505c-.301.042-.587.207-.759.51z" fill="#ff4654"/><path d="m310.293 96.211h-64.365l-2.754 2.86v27.083s1.231 1.433 2.384 2.794h64.735c2.362 0 4.277-1.915 4.277-4.277v-24.182c.001-2.363-1.914-4.278-4.277-4.278z" fill="#ffd086"/><path d="m244.838 124.671v-24.182c0-2.363 1.915-4.278 4.278-4.278h-47.463c-2.363 0-4.278 1.915-4.278 4.278v24.182c0 2.362 1.915 4.277 4.278 4.277h47.463c-2.363 0-4.278-1.915-4.278-4.277z" fill="#ffc365"/><path d="m376.208 194.891c-.349-.23-.71-.422-1.067-.628h-4.966l-5.536 6.84-3.797 6.929v16.262l6.363 3.677s4.393 1.854 7.105 3.121c3.088-1.597 5.826-3.974 7.876-7.084 6.391-9.692 3.714-22.728-5.978-29.117z" fill="#dbedff"/><path d="m374.092 229.986c-9.691-6.389-12.369-19.425-5.979-29.116 1.859-2.82 4.291-5.026 7.03-6.608-9.562-5.533-21.89-2.735-28.05 6.608-6.389 9.691-3.712 22.727 5.979 29.116 6.872 4.53 15.414 4.482 22.087.628-.357-.205-.719-.398-1.067-.628z" fill="#b5dcff"/><path d="m157.722 194.891c-.349-.23-.71-.422-1.067-.628h-4.966l-5.536 6.84-3.797 6.929v16.262l6.363 3.677s4.393 1.854 7.105 3.121c3.088-1.597 5.826-3.974 7.876-7.084 6.39-9.692 3.713-22.728-5.978-29.117z" fill="#dbedff"/><path d="m155.605 229.986c-9.691-6.389-12.369-19.425-5.979-29.116 1.859-2.82 4.291-5.026 7.03-6.608-9.562-5.533-21.89-2.735-28.05 6.608-6.389 9.691-3.712 22.727 5.979 29.116 6.872 4.53 15.414 4.482 22.087.628-.357-.205-.718-.398-1.067-.628z" fill="#b5dcff"/></g><g><path d="m415.339 262.632v-7.1c0-15.001-11.226-27.422-25.717-29.323 4.382-7.984 4.887-17.749.574-26.438-9.688-19.518-36.984-21.381-49.19-3.207l-62.069-20.891 109.129-36.729c3.926-1.321 6.037-5.575 4.716-9.501-1.322-3.925-5.575-6.036-9.501-4.716l-127.857 43.033-127.856-43.033c-3.928-1.32-8.18.791-9.501 4.716-1.321 3.926.79 8.18 4.716 9.501l109.129 36.729-62.06 20.887c-12.149-18.171-39.498-16.335-49.199 3.21-4.332 8.727-3.811 18.572.66 26.596-13.971 2.357-24.65 14.534-24.65 29.165v7.1c-8.942.183-16.162 7.5-16.162 16.484v13.33c0 8.984 7.22 16.301 16.162 16.484v183.569c0 10.752 8.748 19.5 19.5 19.5h279.677c10.752 0 19.5-8.748 19.5-19.5 0-5.527 0-167.053 0-183.569 8.941-.183 16.161-7.5 16.161-16.484v-13.33c-.001-8.983-7.221-16.299-16.162-16.483zm-63.466-54.495c1.896-5.632 7.167-9.195 12.806-9.195 4.841 0 9.673 2.649 12.081 7.499 5.366 10.809-5.097 22.603-16.398 18.797-7.055-2.375-10.863-10.047-8.489-17.101zm-15.653 2.644c-.31 5.342.907 10.584 3.374 15.167h-168.339c2.466-4.583 3.684-9.825 3.374-15.167l80.796-27.193zm-202.131-4.341c2.393-4.82 7.212-7.504 12.104-7.504 5.529 0 10.853 3.469 12.782 9.2 2.374 7.055-1.434 14.727-8.488 17.101-11.317 3.812-21.756-8.004-16.398-18.797zm-22.427 49.093c0-8.042 6.542-14.584 14.584-14.584h259.509c8.042 0 14.584 6.542 14.584 14.584v7.083h-19.013c-.09-4.064-3.405-7.333-7.492-7.333s-7.402 3.269-7.492 7.333h-43.934c-.09-4.064-3.405-7.333-7.492-7.333s-7.402 3.269-7.492 7.333h-43.934c-.09-4.064-3.405-7.333-7.492-7.333s-7.402 3.269-7.492 7.333h-43.933c-.09-4.064-3.405-7.333-7.492-7.333s-7.402 3.269-7.492 7.333h-43.934c-.09-4.064-3.405-7.333-7.492-7.333s-7.402 3.269-7.492 7.333h-19.013v-7.083zm288.677 73.781c-7.483 0-275.775 0-288.677 0v-20.366h19.03c.259 3.908 3.501 7 7.475 7s7.216-3.092 7.475-7h43.967c.259 3.908 3.501 7 7.475 7s7.216-3.092 7.475-7h43.966c.259 3.908 3.501 7 7.475 7s7.216-3.092 7.475-7h43.967c.259 3.908 3.501 7 7.475 7s7.216-3.092 7.475-7h43.967c.259 3.908 3.501 7 7.475 7s7.216-3.092 7.475-7h19.03zm0 132.32h-50.048v-42.07c0-4.142-3.357-7.5-7.5-7.5s-7.5 3.358-7.5 7.5v42.07h-75.03c1.956-1.354 3.239-3.61 3.239-6.168v-13.416l12.871 1.283c.302.03.603.045.901.045 3.049 0 5.87-1.549 7.512-4.179 1.515-2.427 1.761-5.351.738-7.938l25.932-17.39c2.501-1.676 3.911-4.582 3.682-7.584-.23-3.002-2.067-5.659-4.794-6.935l-.976-.457 2.657-8.809c.864-2.878.111-6.014-1.966-8.185-2.075-2.17-5.172-3.063-8.093-2.326l-8.911 2.255-.41-.991c-1.15-2.783-3.721-4.739-6.71-5.105-1.343-.166-2.68.002-3.909.456l1.495-8.602c.527-3.028-.622-6.12-2.999-8.068-2.379-1.949-5.637-2.47-8.504-1.355l-2.462.956-6.122-10.819c-1.11-1.961-2.941-3.37-5.049-3.985h76.907v40.249c0 4.142 3.357 7.5 7.5 7.5s7.5-3.358 7.5-7.5v-40.249h50.048v117.317zm-288.677 0v-117.32h50.048v117.319h-50.048zm65.048-117.32h76.907c-2.108.615-3.939 2.023-5.048 3.983l-6.124 10.821-2.463-.957c-2.866-1.111-6.123-.593-8.502 1.356-2.377 1.948-3.526 5.04-3 8.066l1.495 8.604c-1.228-.453-2.57-.621-3.908-.456-2.989.366-5.56 2.322-6.708 5.101l-.412.996-8.912-2.255c-2.918-.736-6.018.156-8.096 2.329-2.077 2.174-2.828 5.313-1.96 8.191l2.655 8.801-.976.456c-2.727 1.275-4.563 3.933-4.794 6.935-.229 3.002 1.182 5.908 3.68 7.583l25.934 17.392c-1.022 2.589-.775 5.512.738 7.938 1.802 2.888 5.023 4.477 8.413 4.134l12.87-1.283v13.416c0 2.558 1.283 4.815 3.239 6.168h-75.028zm91.213 63.051c3.587 1.537 7.712.417 10.033-2.725l6.285-8.515c2.155 1.544 4.945 2.154 7.648 1.471l2.382-.603-.71 2.353c-.806 2.67-.321 5.485 1.125 7.707l-22.199 14.888c-2.015 1.351-3.314 3.362-3.793 5.551l-7.99-.796c-3.122-.312-6.286-.312-9.406 0l-7.992.797c-.479-2.189-1.777-4.199-3.791-5.552l-22.199-14.887c1.447-2.223 1.932-5.039 1.123-7.708l-.71-2.353 2.384.603c2.705.686 5.494.073 7.647-1.471l6.288 8.519c2.318 3.137 6.442 4.257 10.03 2.721 3.586-1.535 5.623-5.291 4.954-9.131l-3.962-22.797c3.284-.087 6.431-1.86 8.12-4.849l2.81-4.965 2.811 4.967c1.692 2.988 4.838 4.76 8.12 4.848l-3.961 22.794c-.67 3.842 1.367 7.598 4.953 9.133zm-78.339-129.75v16.333h-43.917v-16.333zm58.916 0v16.333h-43.916v-16.333zm58.917 0v16.333h-43.917v-16.333zm15 16.333v-16.333h43.917v16.333zm-226.917-1.501v-13.33c0-.828.674-1.501 1.502-1.501h33.665v16.333c-3.789 0 1.917 0-33.665 0-.828-.001-1.502-.674-1.502-1.502zm300.339 204.553h-279.677c-2.439 0-4.5-2.061-4.5-4.5v-15.866h288.677v15.866c0 2.439-2.061 4.5-4.5 4.5zm20.661-204.553c0 .828-.674 1.501-1.501 1.501-35.354 0-28.459 0-33.665 0v-16.333h33.665c.827 0 1.501.673 1.501 1.501z"/><path d="m222.968 36.741c-7.32-1.366-28.025-3.498-37.8 13.445-9.987 17.308-.794 32.71 7.127 43.215-1.495 1.975-2.393 4.425-2.393 7.087v24.183c0 6.494 5.283 11.777 11.777 11.777h36.82c4.143 0 7.5-3.358 7.5-7.5s-3.357-7.5-7.5-7.5h-33.598v-17.737h102.196v17.737h-33.597c-4.143 0-7.5 3.358-7.5 7.5s3.357 7.5 7.5 7.5h36.821c6.494 0 11.777-5.283 11.777-11.777v-24.183c0-2.662-.898-5.112-2.393-7.087 7.922-10.505 17.115-25.907 7.127-43.215-9.777-16.945-30.482-14.811-37.801-13.445-8.472-5.122-18.273-4.329-25.532-2.498v-7.206h1.699c4.143 0 7.5-3.358 7.5-7.5s-3.357-7.5-7.5-7.5h-1.698v-4.537c0-4.142-3.357-7.5-7.5-7.5s-7.5 3.358-7.5 7.5v4.538h-1.698c-4.143 0-7.5 3.358-7.5 7.5s3.357 7.5 7.5 7.5h1.698v7.206c-7.259-1.831-17.06-2.624-25.532 2.497zm25.532 13.159v38.811h-16.453c-4.262-6.864-14.178-25.552-3.999-36.887 5.524-6.15 15.218-3.827 20.452-1.924zm-50.34 7.783c2.786-4.828 8.06-6.44 12.91-6.782-5.572 13.243-.956 27.914 3.833 37.81h-7.254c-.106-.134-.203-.259-.31-.395-8.791-11.134-15.049-20.46-9.179-30.633zm115.681.001c5.87 10.173-.388 19.499-9.179 30.633-.107.135-.204.26-.31.395h-7.254c4.787-9.892 9.402-24.557 3.838-37.796 4.851.345 10.128 1.955 12.905 6.768zm-29.89-5.86c10.272 11.436.312 30.043-3.98 36.887h-16.471v-38.811c5.233-1.903 14.927-4.228 20.451 1.924z"/></g></g></svg>