<svg id="Capa_1" enable-background="new 0 0 512.001 512.001" height="512" viewBox="0 0 512.001 512.001" width="512" xmlns="http://www.w3.org/2000/svg"><g><g><path d="m502.242 361.043-34.078-22.466-6.327 2.494-65.75 100 .95 5.395 34.078 22.466c2.283 1.505 5.354.875 6.86-1.409l65.676-99.621c1.505-2.282.874-5.353-1.409-6.859z" fill="#ff636e"/><path d="m305.848 386.349 6.489-2.028 66.589-101-1.952-4.861-38.212-25.192-71.126 107.889z" fill="#ff4654"/><path d="m133.012 286.571 67.325 98.75 5.753 1.028 38.212-25.192-71.127-107.889-38.212 25.192z" fill="#ff636e"/><path d="m114.219 436.071-63.382-95.5-7.064-1.994-34.077 22.466c-2.283 1.505-2.914 4.577-1.409 6.86l65.676 99.621c1.505 2.283 4.576 2.914 6.86 1.409l34.078-22.466z" fill="#ff4654"/><path d="m399.776 293.492-5.552 2.329-65.022 100.917-.552 4.643 68.388 45.085 71.126-107.889z" fill="#dbedff"/><path d="m288.2 326.265h129.225v27.311h-129.225z" fill="#b5dcff" transform="matrix(.55 -.835 .835 .55 -125.177 447.385)"/><path d="m67.69 322.81v5.011l65.322 99.5 5.805 3.378 67.273-44.35-71.127-107.889z" fill="#dbedff"/><path d="m76.972 320.026h28.647v129.225h-28.647z" fill="#b5dcff" transform="matrix(.835 -.55 .55 .835 -196.635 113.756)"/><path d="m328.982 135.802h-87.68l-2.715 3.269v35.375l4.123 2.671h86.272c3.175 0 5.75-2.574 5.75-5.749v-29.816c0-3.175-2.575-5.75-5.75-5.75z" fill="#ffd086"/><path d="m240.539 171.368v-29.816c0-3.175 2.574-5.75 5.75-5.75h-63.333c-3.175 0-5.75 2.574-5.75 5.75v29.816c0 3.175 2.574 5.749 5.75 5.749h63.333c-3.175 0-5.75-2.574-5.75-5.749z" fill="#ffc365"/><path d="m363.169 217.831c-.308-.203-.628-.373-.943-.555h-4.389l-4.894 6.046-3.356 6.125v14.375l5.625 3.25s3.883 1.638 6.28 2.759c2.73-1.412 5.15-3.513 6.962-6.262 5.649-8.567 3.282-20.09-5.285-25.738z" fill="#ffc365"/><path d="m361.298 248.854c-8.567-5.648-10.933-17.171-5.285-25.738 1.643-2.493 3.793-4.443 6.214-5.841-8.453-4.891-19.35-2.418-24.795 5.841-5.648 8.567-3.281 20.09 5.285 25.738 6.074 4.004 13.625 3.962 19.524.555-.315-.182-.635-.352-.943-.555z" fill="#ffa90f"/><path d="m169.221 217.831c-.308-.203-.628-.373-.943-.555h-4.389l-4.894 6.046-3.356 6.125v14.375l5.625 3.25s3.883 1.638 6.28 2.759c2.73-1.412 5.15-3.513 6.962-6.262 5.648-8.567 3.281-20.09-5.285-25.738z" fill="#ffc365"/><path d="m167.349 248.854c-8.567-5.648-10.933-17.171-5.285-25.738 1.643-2.493 3.793-4.443 6.214-5.841-8.453-4.891-19.35-2.418-24.795 5.841-5.648 8.567-3.281 20.09 5.285 25.738 6.074 4.004 13.625 3.962 19.524.555-.315-.182-.634-.352-.943-.555z" fill="#ffa90f"/></g><g><path d="m382.925 355.069-3.829-16.507c-.937-4.036-4.973-6.545-9-5.612-4.035.936-6.548 4.966-5.611 9l4.729 20.392c-1.711.458-3.269 1.513-4.32 3.108-2.28 3.458-1.324 8.11 2.134 10.39l1.536 1.013-2.831 4.294c-2.28 3.458-1.324 8.11 2.134 10.39 1.271.838 2.704 1.239 4.121 1.239 2.437 0 4.827-1.186 6.269-3.373l2.831-4.294 1.536 1.012c1.271.838 2.704 1.239 4.121 1.239 2.437 0 4.827-1.186 6.269-3.373 1.051-1.594 1.407-3.441 1.154-5.194l20.606-3.69c4.077-.73 6.79-4.627 6.061-8.705-.73-4.077-4.627-6.788-8.705-6.061l-16.679 2.987 11.771-17.855c2.28-3.458 1.324-8.11-2.134-10.39-3.457-2.279-8.109-1.325-10.39 2.134z"/><path d="m129.069 355.07-11.772-17.856c-2.279-3.459-6.931-4.412-10.39-2.134-3.458 2.28-4.414 6.932-2.134 10.39l11.771 17.855-16.679-2.987c-4.076-.729-7.975 1.983-8.705 6.061-.729 4.077 1.983 7.974 6.061 8.705l20.606 3.69c-.253 1.753.103 3.6 1.154 5.194 1.441 2.187 3.832 3.373 6.269 3.373 1.417 0 2.85-.401 4.121-1.239l1.536-1.012 2.831 4.294c1.441 2.187 3.832 3.373 6.269 3.373 1.417 0 2.85-.401 4.121-1.239 3.458-2.28 4.414-6.932 2.134-10.39l-2.831-4.294 1.536-1.013c3.458-2.28 4.414-6.932 2.134-10.39-1.051-1.595-2.609-2.649-4.319-3.107l4.729-20.392c.937-4.035-1.576-8.064-5.611-9-4.031-.937-8.064 1.577-9 5.612z"/><path d="m348.98 66.313c-12.791-22.323-40.772-18.465-49.083-16.75-12.129-7.89-26.747-5.691-36.4-2.724v-15.659h4.863c4.143 0 7.5-3.358 7.5-7.5s-3.357-7.5-7.5-7.5h-4.863v-8.68c0-4.142-3.357-7.5-7.5-7.5s-7.5 3.358-7.5 7.5v8.68h-4.864c-4.143 0-7.5 3.358-7.5 7.5s3.357 7.5 7.5 7.5h4.864v15.659c-9.653-2.967-24.271-5.166-36.4 2.724-8.311-1.715-36.292-5.572-49.084 16.751-12.927 22.561-.412 48.69 11.102 65.424-2.682 2.426-4.38 5.921-4.38 9.815v29.816c0 7.306 5.943 13.249 13.249 13.249h55.514c4.143 0 7.5-3.358 7.5-7.5s-3.357-7.5-7.5-7.5h-53.763v-26.314h142.525v26.314h-53.763c-4.143 0-7.5 3.358-7.5 7.5s3.357 7.5 7.5 7.5h55.513c7.306 0 13.25-5.943 13.25-13.249v-29.816c0-3.893-1.698-7.388-4.381-9.814 11.514-16.735 24.028-42.864 11.101-65.426zm-53.511-.919c14.698 16.479 1.497 48.834-6.402 62.909h-25.57v-65.575c6.928-2.812 22.802-7.619 31.972 2.666zm-46.972-2.646v65.555h-25.516c-5.3-9.762-22.505-44.916-6.457-62.909 9.097-10.2 25.016-5.436 31.973-2.646zm-72.469 11.023c5.203-9.08 15.789-10.76 23.871-10.546-11.37 21.491-1.028 49.95 6.195 65.078h-15.946c-8.19-10.746-24.674-36.112-14.12-54.532zm145.818 54.532h-15.947c7.228-15.138 17.58-43.627 6.171-65.123 8.065-.238 18.646 1.43 23.895 10.591 10.554 18.421-5.929 43.786-14.119 54.532z"/><path d="m506.397 354.782c-3.513-2.316-144.5-95.263-146.204-96.386 5.976-1.713 11.093-5.453 14.551-10.698 7.934-12.036 4.616-28.194-7.419-36.128s-28.193-4.616-36.127 7.418c-6.371 9.665-5.443 21.87 1.185 30.373l-76.386 115.867c-4.387-6.654-71.998-109.21-76.386-115.867 6.605-8.474 7.577-20.677 1.186-30.373-7.915-12.004-24.121-15.333-36.128-7.418-12.006 7.915-15.334 24.122-7.419 36.127 3.458 5.245 8.574 8.986 14.551 10.699-17.928 11.819-128.215 84.527-146.204 96.386-5.732 3.779-7.321 11.517-3.543 17.25l65.676 99.621c2.392 3.626 6.366 5.594 10.416 5.594 2.352 0 4.729-.664 6.834-2.052 7.567-4.988 151.287-99.737 157.218-103.647l4.817 7.307-80.112 121.518c-2.28 3.458-1.324 8.11 2.134 10.39 3.46 2.281 8.111 1.323 10.39-2.134l76.572-116.148 76.572 116.148c2.276 3.453 6.925 4.417 10.39 2.134 3.458-2.28 4.414-6.932 2.134-10.39l-80.115-121.519 4.817-7.307c5.906 3.894 151.339 99.772 157.22 103.648 2.105 1.388 4.481 2.052 6.833 2.051 4.05 0 8.025-1.968 10.415-5.595l21.378-32.428c2.28-3.458 1.324-8.11-2.134-10.39-3.457-2.279-8.109-1.325-10.39 2.134l-19.976 30.3-25.688-16.935 62.871-95.366 25.689 16.936-23.608 35.81c-2.28 3.458-1.324 8.11 2.134 10.39 3.458 2.281 8.11 1.325 10.39-2.134l25.011-37.938c1.831-2.777 2.47-6.1 1.802-9.357-.672-3.258-2.569-6.061-5.347-7.891zm-356.625-115.341c-3.362-5.101-1.948-11.986 3.151-15.348 5.101-3.363 11.986-1.949 15.349 3.151 3.371 5.113 1.96 11.977-3.152 15.348-5.114 3.371-11.977 1.961-15.348-3.151zm-32.711 196.636-62.871-95.366 78.667-51.862 62.871 95.365zm-38.212 25.191-62.871-95.365 25.689-16.936 62.871 95.366zm129.402-85.309-62.871-95.366 25.688-16.935c24.231 36.754 38.981 59.129 62.871 95.365zm135.471-148.715c3.348-5.078 10.2-6.544 15.348-3.151 5.113 3.371 6.522 10.235 3.151 15.348-3.365 5.103-10.222 6.528-15.348 3.151-5.113-3.371-6.522-10.234-3.151-15.348zm-2.798 36.414 25.688 16.935-62.87 95.366-25.688-16.936zm54.008 172.419c-8.338-5.497-70.328-46.365-78.666-51.862l62.87-95.366 78.667 51.862z"/></g></g></svg>