<svg id="Capa_1" enable-background="new 0 0 512 512" height="512" viewBox="0 0 512 512" width="512" xmlns="http://www.w3.org/2000/svg"><g><g><path d="m504.472 329.654v-90.612h-7.382l-30.75-21.971-.346-5.766h-58.714l-7.523 10.933v72.895h-238.5v202.68l1.833 1.687h115.729l6.605-5.929h38l6.893 5.929h135.677l3.096-6.929 27.667-18.666 7.715-2.142v-90.611l-7.048-3.414v-42.5z" fill="#6b7ed9"/><path d="m163.09 499.5v-204.367h-54.463l-3.963 5.562v28.959l7.926 5.917v38.334l-7.926 7.247v90.611l7.926 3.808 26.834 16.334 3.719 7.595z" fill="#4d66d2"/><path d="m227.757 297.238h-32.722l-4.841 3.457 40.174 28.959 4.139 2.917h40.361z" fill="#ff4654"/><path d="m267.151 300.695-6.561-3.457h-37.242l49.018 35.333h10.224v-19l-3.771-4.466z" fill="#ff636e"/><path d="m501.72 216.516c-2.429-3.163-6.237-5.211-10.533-5.211h-25.192l-58.714 42.323-2.69 5.776-52.667 37.833-9.938 3.457-11.668 8.411-1.894 3.466v20h12.295z" fill="#ff4654"/><path d="m375.59 332.571 3.178-2.918 125.704-90.611v-14.451c0-3.743-1.553-7.118-4.043-9.532l-163.023 117.512z" fill="#ff636e"/><path d="m499.68 496.427v-3.689l-160.38-115h-12.21v21.333l3.227 2.629 135.676 97.8h25.192c3.232 0 6.192-1.156 8.495-3.073z" fill="#ff4654"/><path d="m375.846 377.738h-40.821l164.655 118.689c2.927-2.437 4.792-6.106 4.792-10.213v-14.451l-125.704-90.612z" fill="#ff636e"/><path d="m161.257 461.933 116.802-84.195h-43.552l-4.139 3.414-69.111 49.818z" fill="#ff4654"/><path d="m163.09 429.648-58.426 42.115v14.451c0 4.987 2.752 9.327 6.816 11.599l51.61-37.202z" fill="#f4193e"/><path d="m274.747 377.738-113.49 81.807v26.898l117.562-84.743 1.771-3.462v-20.5z" fill="#ff636e"/><path d="m163.09 458.224-53.327 38.44c2.257 1.771 5.095 2.836 8.187 2.836h25.192l19.947-14.379v-26.897z" fill="#ff4654"/><path d="m337.564 329.654c-4.002 0-7.246-3.244-7.246-7.246v-21.713l-5.477-3.457h-42.05l-3.971 3.457v21.713c0 4.002-3.244 7.246-7.246 7.246h-110.317v51.498h110.316c4.002 0 7.246 3.244 7.246 7.246v111.102h51.498v-111.102c0-4.002 3.244-7.246 7.246-7.246h166.908v-51.498z" fill="#ff636e"/><path d="m104.664 329.654h58.426v51.498h-58.426z" fill="#ff4654"/><path d="m104.664 12.5h-38.764l-8.81 9.571v270.167l8.896 8.457h38.678l7.926-11.124v-266.5z" fill="#ff636e"/><path d="m60.031 287.408v-261.622c0-7.338 5.948-13.286 13.286-13.286h-52.559c-7.338 0-13.286 5.948-13.286 13.286v261.622c0 7.338 5.948 13.286 13.286 13.286h52.559c-7.337.001-13.286-5.948-13.286-13.286z" fill="#ff4654"/><path d="m393.994 12.5h-83.906l-5.519 6.071v274l5.519 8.123h83.906c7.338 0 13.286-5.948 13.286-13.286v-261.622c0-7.338-5.948-13.286-13.286-13.286z" fill="#ff7f87"/><path d="m104.665 12.5h205.423v288.195h-205.423z" fill="#dbedff"/><path d="m279.34 162.471-7.738-3.62c-1.09-.51-1.641-1.743-1.293-2.895l5.764-19.108c.272-.901-.544-1.754-1.456-1.523l-19.348 4.896c-1.167.295-2.373-.311-2.834-1.423l-3.267-7.894c-.36-.871-1.533-1.014-2.093-.256l-17.305 23.442c-.77 1.043-2.421.337-2.199-.94l8.12-46.723c.195-1.12-.908-2.024-1.968-1.612l-9.61 3.732c-1.354.526-2.888-.022-3.604-1.285l-11.862-20.959c-.318-.563-.915-.794-1.475-.716l-1.068 3.082-2.789 65.254-8.206 4.94-8.771-4.341c-.46.148-1 .052-1.356-.43l-17.305-23.442c-.56-.758-1.733-.615-2.093.256l-3.267 7.894c-.46 1.112-1.667 1.718-2.834 1.423l-9.141-2.313v3.943l54.606 57.008 5.765 2.85c.744.044 1.488.093 2.23.167l24.132 2.406c1.599.16 2.687-1.583 1.841-2.95l-3.097-5.006c-.599-.969-.325-2.238.622-2.873l43.061-28.879c.782-.528.692-1.706-.162-2.105z" fill="#ff636e"/><g fill="#ff4654"><path d="m150.342 137.907-10.207-2.583c-.913-.231-1.728.622-1.456 1.523l5.764 19.107c.348 1.152-.203 2.385-1.294 2.895l-7.738 3.62c-.854.399-.944 1.578-.162 2.102l43.061 28.879c.946.635 1.221 1.904.622 2.873l-3.097 5.006c-.845 1.366.243 3.109 1.841 2.95l24.132-2.406c2.96-.295 5.938-.343 8.905-.167z"/><path d="m206.104 86.302-11.861 20.959c-.715 1.264-2.25 1.811-3.604 1.286l-9.61-3.732c-1.06-.412-2.163.492-1.968 1.612l8.12 46.723c.12.688-.307 1.197-.844 1.37l5.118 5.062c5.229 5.172 14.109 1.576 14.265-5.777l1.451-68.219c-.423.059-.826.29-1.067.716z"/></g></g><g><path d="m131.106 170.806 38.749 25.986-.367.593c-1.904 3.077-1.896 6.896.021 9.965 1.928 3.089 5.368 4.752 8.943 4.394l21.451-2.139v22.236c0 4.142 3.357 7.5 7.5 7.5s7.5-3.358 7.5-7.5v-22.237l21.451 2.139c3.582.36 7.025-1.323 8.943-4.392 1.916-3.068 1.926-6.887.021-9.967l-.367-.593 38.75-25.987c2.604-1.748 4.072-4.775 3.831-7.902-.24-3.127-2.155-5.895-4.996-7.222l-3.758-1.758 4.497-14.905c.903-3 .119-6.27-2.046-8.534-2.167-2.264-5.396-3.192-8.432-2.424l-15.09 3.818-1.588-3.836c-1.199-2.897-3.878-4.934-6.99-5.315-3.107-.378-6.202.95-8.066 3.473l-1.531 2.075 3.571-20.551c.554-3.179-.652-6.424-3.148-8.469-2.496-2.046-5.918-2.589-8.923-1.422l-5.92 2.299-9.908-17.508c-1.586-2.807-4.574-4.551-7.798-4.553h-.004c-3.223 0-6.211 1.743-7.799 4.548l-9.91 17.513-5.919-2.299c-3.01-1.169-6.429-.624-8.924 1.422-2.496 2.045-3.702 5.291-3.149 8.465l3.572 20.556-1.532-2.076c-1.863-2.523-4.967-3.854-8.065-3.472-3.113.381-5.791 2.417-6.99 5.315l-1.588 3.836-15.089-3.818c-3.038-.771-6.269.16-8.433 2.423-2.165 2.264-2.949 5.534-2.045 8.537l4.496 14.902-3.762 1.759c-2.84 1.329-4.753 4.096-4.993 7.222-.239 3.127 1.23 6.155 3.834 7.903zm20.551-17.012-2.555-8.466 8.572 2.169c3.944 1 8.052-.562 10.403-3.713l10.898 14.764c2.414 3.273 6.712 4.441 10.453 2.845 3.74-1.598 5.866-5.513 5.171-9.521l-6.29-36.193c4.702 1.629 10.018-.35 12.489-4.714l6.604-11.67 6.606 11.673c2.469 4.359 7.784 6.342 12.487 4.711l-6.29 36.195c-.695 4.007 1.431 7.921 5.171 9.52 3.736 1.596 8.038.428 10.452-2.843l10.898-14.765c2.352 3.149 6.459 4.71 10.403 3.713l8.573-2.169-2.554 8.465c-1.176 3.893.197 8.07 3.239 10.561l-34.102 22.87c-2.958 1.984-4.471 5.301-4.25 8.616l-14.324-1.428c-2.094-.209-4.202-.313-6.312-.313-2.108 0-4.217.104-6.311.313l-14.324 1.428c.222-3.314-1.292-6.632-4.25-8.617l-34.102-22.87c3.046-2.492 4.419-6.669 3.245-10.561z"/><path d="m491.214 203.805c-6.738 0-69.042 0-76.406 0v-178.019c0-11.461-9.325-20.786-20.787-20.786-5.488 0-335.88 0-373.235 0-11.462 0-20.786 9.325-20.786 20.786v261.623c0 11.461 9.324 20.786 20.786 20.786h76.406v163.569 14.451c0 11.461 9.324 20.786 20.786 20.786h236.336c4.143 0 7.5-3.358 7.5-7.5s-3.357-7.5-7.5-7.5h-16.47v-75.648l104.947 75.647h-53.476c-4.143 0-7.5 3.358-7.5 7.5s3.357 7.5 7.5 7.5h101.899c11.462 0 20.786-9.325 20.786-20.786 0-9.862 0-248.593 0-261.622 0-11.462-9.324-20.787-20.786-20.787zm5.786 253.307-94.973-68.46h94.973zm0-134.959h-94.973l94.973-68.459zm-159.155-9.208 6.59-4.75c53.567 0 50.115.034 51.416-.08l-19.477 14.039h-38.529zm153.369-94.139c3.19 0 5.786 2.596 5.786 5.786v10.611l-83.914 60.488c1.101-2.541 1.722-5.354 1.722-8.281v-29.94l53.635-38.662h22.771zm-48.423 0-27.983 20.171v-20.171zm-140.176-198.806v133.561c0 4.142 3.357 7.5 7.5 7.5s7.5-3.358 7.5-7.5v-133.561h76.406c3.19 0 5.786 2.596 5.786 5.786v261.622c0 3.191-2.596 5.786-5.786 5.786-4.142 0-72.283 0-76.406 0v-104.633c0-4.142-3.357-7.5-7.5-7.5s-7.5 3.358-7.5 7.5v104.634c-22.187 0-169.111 0-190.423 0v-273.195zm-190.423 368.652h94.973l-94.973 68.46zm75.608-80.458 19.365 13.959h-94.973v-13.959zm25.652 0h51.306l6.589 4.75v9.209h-38.529zm-198.452-20.785v-261.623c0-3.19 2.596-5.786 5.786-5.786h76.406v273.194h-76.406c-3.19 0-5.786-2.595-5.786-5.785zm102.979 204.591c-3.19 0-5.786-2.596-5.786-5.786v-10.611l120.626-86.951h38.528v9.209l-130.597 94.139zm153.368 0h-104.946l104.945-75.648v75.648zm15 0c0-17.911 0-80.541 0-103.602 0-8.131-6.615-14.746-14.746-14.746-7.436 0-151.947 0-159.408 0v-36.499h159.408c8.131 0 14.746-6.615 14.746-14.746 0-8.312 0-5.854 0-14.213h36.498v14.213c0 8.131 6.615 14.746 14.747 14.746h159.408v36.499c-7.462 0-151.973 0-159.408 0-8.132 0-14.747 6.615-14.747 14.746v103.602zm210.653-5.786c0 3.19-2.596 5.786-5.786 5.786h-22.771l-130.599-94.139v-9.209h38.529l120.627 86.951z"/></g></g></svg>