<svg id="Capa_1" enable-background="new 0 0 512 512" height="512" viewBox="0 0 512 512" width="512" xmlns="http://www.w3.org/2000/svg"><g><g><path d="m486.357 79.111h-92.987l-9.279 8.889v286l9.279 11.972h92.988c5.799 0 10.5-4.701 10.5-10.5v-285.861c-.001-5.799-4.702-10.5-10.501-10.5z" fill="#ff636e"/><path d="m174.641 79.111h-53.862l-11.354 12.222v285.334l11.354 9.305h53.862l16.117-15.305v-272.05z" fill="#ff636e"/><path d="m120.779 79.111h-49.626l-6.562 9.958v289.931l6.562 6.972h49.626z" fill="#ff4654"/><path d="m174.641 79.111h218.728v306.861h-218.728z" fill="#dbedff"/><path d="m69.341 77.125h-18.375v421.5s3.79 3.66 5.983 5.875h6.388c4.317 0 7.817-3.5 7.817-7.817v-417.572z" fill="#dd8858"/><path d="m53.153 496.683v-417.572l1.969-1.986h-18l-1.969 1.986v417.573c0 4.317 3.5 7.817 7.817 7.817h18c-4.317-.001-7.817-3.501-7.817-7.818z" fill="#cb6c35"/><path d="m359.274 237.442-8.094-3.786c-1.14-.533-1.716-1.823-1.353-3.028l6.029-19.985c.284-.942-.569-1.835-1.523-1.593l-20.236 5.121c-1.22.309-2.482-.325-2.964-1.488l-3.417-8.256c-.377-.911-1.604-1.061-2.189-.268l-18.1 24.519c-.805 1.091-2.532.353-2.3-.983l8.493-48.868c.204-1.172-.95-2.117-2.059-1.686l-10.051 3.903c-1.416.55-3.021-.023-3.769-1.344l-12.406-21.922c-.333-.589-.958-.83-1.543-.749l-1.117 3.223-2.917 68.25-8.583 5.167-9.174-4.541c-.481.155-1.046.054-1.418-.449l-18.099-24.519c-.585-.793-1.812-.643-2.189.268l-3.417 8.256c-.481 1.163-1.743 1.797-2.964 1.488l-9.561-2.419v4.125l57.113 59.625 6.03 2.981c.778.046 1.556.097 2.333.174l25.24 2.516c1.672.167 2.81-1.656 1.926-3.085l-3.239-5.236c-.627-1.013-.34-2.341.65-3.005l45.038-30.205c.818-.551.723-1.784-.17-2.201z" fill="#ff636e"/><path d="m71.153 12.02h-6.562l-15.166 17.647v27.333l6.5 13.667 10.833 8.444 3.461.479c12.451-6.258 21-19.139 21-34.024 0-14.512-8.122-27.123-20.066-33.546z" fill="#ffc365"/><path d="m51.088 45.565c0-14.511 8.122-27.123 20.065-33.545-5.36-2.882-11.488-4.52-18-4.52-21.023 0-38.065 17.042-38.065 38.065s17.042 38.066 38.065 38.066c6.512 0 12.64-1.638 18-4.52-11.943-6.423-20.065-19.034-20.065-33.546z" fill="#ffb640"/><g fill="#ff4654"><path d="m224.353 211.75-10.676-2.701c-.955-.242-1.808.651-1.523 1.593l6.029 19.985c.364 1.205-.213 2.495-1.353 3.028l-8.093 3.786c-.893.418-.987 1.65-.169 2.199l45.038 30.205c.99.664 1.277 1.992.65 3.005l-3.239 5.236c-.884 1.429.254 3.252 1.926 3.085l25.24-2.516c3.096-.309 6.21-.359 9.314-.174z"/><path d="m282.675 157.776-12.406 21.921c-.748 1.322-2.353 1.895-3.769 1.345l-10.051-3.903c-1.109-.43-2.262.515-2.059 1.686l8.493 48.868c.125.719-.321 1.252-.882 1.433l5.354 5.295c5.469 5.41 14.757 1.648 14.92-6.042l1.518-71.352c-.444.061-.865.303-1.118.749z"/></g></g><g><path d="m27.682 83.309v413.375c0 8.445 6.871 15.316 15.316 15.316h20.366c8.446 0 15.317-6.871 15.317-15.316v-36.643c0-4.142-3.357-7.5-7.5-7.5s-7.5 3.358-7.5 7.5v36.643c0 .174-.143.316-.317.316h-20.366c-.175 0-.316-.142-.316-.316v-406.78c3.251.769 6.963 1.227 10.5 1.227 3.523 0 7.247-.458 10.5-1.227v335.137c0 4.142 3.357 7.5 7.5 7.5s7.5-3.358 7.5-7.5v-31.569h407.703c9.925 0 18-8.075 18-18v-125.431c0-4.142-3.357-7.5-7.5-7.5s-7.5 3.358-7.5 7.5v125.431c0 1.654-1.346 3-3 3h-85.487v-291.862h85.487c1.654 0 3 1.346 3 3v125.431c0 4.142 3.357 7.5 7.5 7.5s7.5-3.358 7.5-7.5v-125.431c0-9.925-8.075-18-18-18-10.372 0-385.917 0-395.847 0 5.167-7.388 8.21-16.365 8.21-26.045-.001-25.125-20.441-45.565-45.566-45.565s-45.567 20.44-45.567 45.565c0 15.685 7.968 29.544 20.067 37.744zm51 3.301h88.487v291.861h-88.487zm307.215 0v291.861h-203.728v-291.861zm-332.715-71.61c16.854 0 30.565 13.711 30.565 30.565 0 16.932-13.814 30.565-30.565 30.565-16.728 0-30.566-13.604-30.566-30.565-.001-16.854 13.711-30.565 30.566-30.565z"/><path d="m204.418 245.87 40.808 27.367-.558.902c-1.923 3.106-1.916 6.961.019 10.06 1.936 3.102 5.403 4.802 9.028 4.436l22.818-2.275v23.64c0 4.142 3.357 7.5 7.5 7.5s7.5-3.358 7.5-7.5v-23.641l22.817 2.275c3.632.364 7.095-1.336 9.029-4.436 1.935-3.099 1.941-6.954.021-10.057l-.56-.905 40.808-27.367c2.621-1.758 4.1-4.805 3.857-7.952-.241-3.146-2.167-5.932-5.026-7.27l-4.203-1.966 4.786-15.867c.913-3.02.127-6.312-2.052-8.593-2.18-2.282-5.436-3.216-8.489-2.443l-16.072 4.067-1.775-4.289c-1.206-2.915-3.901-4.964-7.032-5.348-3.128-.382-6.241.953-8.121 3.495l-2.47 3.346 3.987-22.943c.556-3.202-.662-6.469-3.176-8.528s-5.958-2.607-8.988-1.431l-6.47 2.512-10.514-18.578c-1.6-2.826-4.61-4.582-7.857-4.582s-6.258 1.756-7.857 4.582l-10.514 18.578-6.471-2.513c-3.028-1.175-6.473-.628-8.987 1.431s-3.731 5.326-3.176 8.531l3.987 22.94-2.47-3.346c-1.874-2.538-4.98-3.881-8.117-3.495-3.133.383-5.829 2.433-7.036 5.349l-1.775 4.288-16.07-4.067c-3.059-.773-6.31.161-8.488 2.44-2.18 2.279-2.968 5.57-2.058 8.59l4.789 15.873-4.203 1.966c-2.859 1.337-4.785 4.123-5.026 7.27-.243 3.148 1.236 6.196 3.857 7.954zm20.974-17.409-2.848-9.439 9.56 2.419c4.137 1.048 8.467-.698 10.79-4.139l11.683 15.826c2.43 3.295 6.759 4.472 10.521 2.863 3.765-1.609 5.904-5.55 5.203-9.582l-6.684-38.452.196.076c4.859 1.886 10.447-.113 13.011-4.643l7.209-12.738 7.209 12.738c2.564 4.53 8.155 6.527 13.011 4.642l.196-.076-6.683 38.45c-.702 4.034 1.438 7.975 5.202 9.583 3.765 1.608 8.092.433 10.521-2.861l11.684-15.828c2.321 3.439 6.643 5.185 10.792 4.138l9.558-2.418-2.848 9.44c-1.232 4.089.315 8.489 3.647 10.965l-36.067 24.188c-3.11 2.086-4.639 5.63-4.258 9.11l-15.396-1.535c-4.357-.435-8.777-.435-13.135 0l-15.396 1.535c.382-3.481-1.147-7.024-4.258-9.111l-36.066-24.188c3.33-2.47 4.879-6.871 3.646-10.963z"/></g></g></svg>