<svg id="Capa_1" enable-background="new 0 0 512.006 512.006" height="512" viewBox="0 0 512.006 512.006" width="512" xmlns="http://www.w3.org/2000/svg"><g><g><g><path d="m485.579 311.478h-96.833v179.333l2.127 3.198 29.393-13.036c2.664-1.182 5.703-1.182 8.367 0l50.56 22.424c6.823 3.026 14.502-1.969 14.502-9.433v-175.891z" fill="#b5dcff"/><g><path d="m390.87 493.964v-175.891l4.709-6.595h-35.667l-4.709 6.595v175.891c0 7.464 7.679 12.459 14.502 9.433l21.167-9.388c0-.015-.002-.03-.002-.045z" fill="#8bcaff"/></g><path d="m482.745 286.74h-87.408l-6.592 7.571v23.762h104.95v-20.382c.001-6.048-4.902-10.951-10.95-10.951z" fill="#dbedff"/><path d="m401.821 286.74h-35.667c-6.048 0-10.951 4.903-10.951 10.951v20.382h35.667v-20.382c0-6.048 4.903-10.951 10.951-10.951z" fill="#b5dcff"/></g><g><path d="m148.631 311.478h-96.833v179.333l2.127 3.198 29.393-13.036c2.664-1.182 5.703-1.182 8.367 0l50.56 22.424c6.823 3.026 14.502-1.969 14.502-9.433v-175.891z" fill="#b5dcff"/><g><path d="m53.922 493.964v-175.891l4.709-6.595h-35.667l-4.709 6.595v175.891c0 7.464 7.679 12.459 14.502 9.433l21.167-9.388c0-.015-.002-.03-.002-.045z" fill="#8bcaff"/></g><path d="m145.797 286.74h-87.408l-6.592 7.571v23.762h104.95v-20.382c.001-6.048-4.902-10.951-10.95-10.951z" fill="#dbedff"/><path d="m64.873 286.74h-35.667c-6.048 0-10.951 4.903-10.951 10.951v20.382h35.667v-20.382c0-6.048 4.903-10.951 10.951-10.951z" fill="#b5dcff"/></g><g><path d="m317.556 311.478h-95.667v180.083l1.828 1.906 27.116-12.439c2.651-1.216 5.693-1.254 8.373-.103l52.948 22.728c6.81 2.923 14.389-2.072 14.389-9.482v-176.098z" fill="#ff636e"/><g><path d="m223.718 318.073 7.505-6.595h-35.667l-7.505 6.595v175.669c0 7.52 7.786 12.515 14.622 9.379l21.045-9.654z" fill="#ff4654"/></g><path d="m315.593 286.74h-86.661l-7.042 6.696v24.637h104.655v-20.382c-.001-6.048-4.904-10.951-10.952-10.951z" fill="#ff7f87"/><path d="m234.669 286.74h-35.667c-6.048 0-10.951 4.903-10.951 10.951v20.382h35.667v-20.382c0-6.048 4.903-10.951 10.951-10.951z" fill="#ff636e"/></g><path d="m147.76 32.238h-95.667v180.083l1.828 1.906 27.116-12.439c2.651-1.216 5.693-1.254 8.373-.103l52.948 22.728c6.81 2.923 14.389-2.072 14.389-9.482v-176.098z" fill="#ff636e"/><g><path d="m53.922 38.833 7.505-6.595h-35.667l-7.505 6.595v175.669c0 7.52 7.786 12.515 14.622 9.379l21.045-9.654z" fill="#ff4654"/></g><path d="m318.427 32.238h-96.833v179.333l2.127 3.198 29.393-13.036c2.664-1.182 5.703-1.182 8.367 0l50.56 22.424c6.823 3.026 14.502-1.969 14.502-9.433v-175.891z" fill="#b5dcff"/><g><path d="m223.718 214.724v-175.891l4.709-6.595h-35.667l-4.709 6.595v175.891c0 7.464 7.679 12.459 14.502 9.433l21.167-9.388c0-.015-.002-.029-.002-.045z" fill="#8bcaff"/></g><path d="m145.797 7.5h-86.661l-7.042 6.696v24.637h104.655v-20.382c-.001-6.048-4.904-10.951-10.952-10.951z" fill="#ff7f87"/><path d="m64.873 7.5h-35.667c-6.048 0-10.951 4.903-10.951 10.951v20.382h35.667v-20.382c0-6.048 4.903-10.951 10.951-10.951z" fill="#ff636e"/><path d="m315.593 7.5h-87.408l-6.592 7.571v23.762h104.95v-20.382c.001-6.048-4.902-10.951-10.95-10.951z" fill="#dbedff"/><path d="m234.669 7.5h-35.667c-6.048 0-10.951 4.903-10.951 10.951v20.382h35.667v-20.382c0-6.048 4.902-10.951 10.951-10.951z" fill="#b5dcff"/><path d="m116.87 142.917h-38.647l-1.879 1.738v24.229s1.309 1.216 2.487 2.348h38.041c1.638 0 2.966-1.328 2.966-2.966v-22.382c-.001-1.639-1.329-2.967-2.968-2.967z" fill="#ffd086"/><path d="m77.702 168.265v-22.382c0-1.638 1.328-2.966 2.966-2.966h-27.135c-1.638 0-2.966 1.328-2.966 2.966v22.382c0 1.638 1.328 2.966 2.966 2.966h27.135c-1.638 0-2.966-1.328-2.966-2.966z" fill="#ffc365"/><path d="m479.717 409.464-5.943-2.78c-.837-.392-1.26-1.338-.993-2.223l4.427-14.674c.209-.692-.418-1.347-1.118-1.17l-14.859 3.76c-.896.227-1.823-.239-2.176-1.093l-2.509-6.062c-.277-.669-1.178-.779-1.607-.197l-13.29 18.003c-.591.801-1.859.259-1.689-.722l6.236-35.883c.15-.86-.698-1.554-1.512-1.238l-7.38 2.866c-1.04.404-2.218-.017-2.767-.987l-9.11-16.096c-.245-.432-.703-.61-1.133-.55l-.82 2.367-2.142 50.114-6.302 3.794-6.736-3.334c-.353.114-.768.04-1.041-.33l-13.29-18.003c-.43-.582-1.331-.472-1.607.197l-2.509 6.062c-.354.854-1.28 1.319-2.176 1.093l-7.02-1.777v3.029l41.936 43.781 4.428 2.189c.572.034 1.143.071 1.713.128l18.533 1.848c1.228.123 2.064-1.216 1.414-2.265l-2.378-3.845c-.46-.744-.249-1.719.477-2.206l33.07-22.178c.598-.406.529-1.311-.127-1.618z" fill="#ff636e"/><path d="m380.648 390.6-7.839-1.983c-.701-.177-1.327.478-1.118 1.17l4.427 14.674c.267.885-.156 1.832-.993 2.223l-5.943 2.78c-.656.307-.725 1.212-.124 1.615l33.07 22.178c.727.487.938 1.462.477 2.206l-2.378 3.845c-.649 1.049.186 2.388 1.414 2.265l18.533-1.848c2.273-.227 4.56-.264 6.839-.128z" fill="#ff4654"/><path d="m423.473 350.967-9.109 16.096c-.549.971-1.728 1.391-2.768.987l-7.38-2.866c-.814-.316-1.661.378-1.512 1.238l6.236 35.883c.092.528-.236.92-.648 1.052l3.931 3.888c4.016 3.972 10.835 1.21 10.955-4.437l1.114-52.392c-.325.047-.634.224-.819.551z" fill="#ff4654"/><path d="m142.769 409.464-5.943-2.78c-.837-.392-1.26-1.338-.993-2.223l4.427-14.674c.209-.692-.418-1.347-1.118-1.17l-14.859 3.76c-.896.227-1.823-.239-2.176-1.093l-2.509-6.062c-.277-.669-1.178-.779-1.607-.197l-13.29 18.003c-.591.801-1.859.259-1.689-.722l6.236-35.883c.15-.86-.698-1.554-1.512-1.238l-7.38 2.866c-1.04.404-2.218-.017-2.768-.987l-9.11-16.096c-.245-.432-.703-.61-1.133-.55l-.821 2.367-2.142 50.114-6.302 3.794-6.736-3.334c-.353.114-.768.04-1.041-.33l-13.29-18.003c-.43-.582-1.331-.472-1.607.197l-2.509 6.062c-.354.854-1.28 1.319-2.176 1.093l-7.02-1.777v3.029l41.936 43.781 4.428 2.189c.571.034 1.143.071 1.713.128l18.533 1.848c1.228.123 2.064-1.216 1.414-2.265l-2.378-3.845c-.46-.744-.249-1.719.477-2.206l33.07-22.178c.6-.406.531-1.311-.125-1.618z" fill="#ff636e"/><path d="m43.701 390.6-7.839-1.983c-.701-.177-1.327.478-1.118 1.17l4.427 14.674c.267.885-.156 1.832-.993 2.223l-5.943 2.78c-.656.307-.725 1.212-.124 1.615l33.07 22.178c.727.487.938 1.462.477 2.206l-2.378 3.845c-.649 1.049.186 2.388 1.414 2.265l18.533-1.848c2.273-.227 4.56-.264 6.839-.128z" fill="#ff4654"/><path d="m86.525 350.967-9.109 16.096c-.549.971-1.728 1.391-2.768.987l-7.38-2.866c-.814-.316-1.661.378-1.512 1.238l6.236 35.883c.092.528-.236.92-.648 1.052l3.931 3.888c4.016 3.972 10.835 1.21 10.955-4.437l1.114-52.392c-.324.047-.634.224-.819.551z" fill="#ff4654"/><path d="m312.565 128.224-5.943-2.78c-.837-.392-1.26-1.338-.993-2.223l4.427-14.674c.209-.692-.418-1.347-1.118-1.17l-14.859 3.76c-.896.227-1.823-.239-2.176-1.093l-2.509-6.062c-.277-.669-1.178-.779-1.607-.197l-13.29 18.003c-.591.801-1.859.259-1.689-.722l6.236-35.883c.15-.86-.698-1.554-1.512-1.238l-7.38 2.866c-1.04.404-2.218-.017-2.767-.987l-9.11-16.096c-.245-.432-.703-.61-1.133-.55l-.82 2.367-2.142 50.114-6.302 3.794-6.736-3.334c-.353.114-.768.04-1.041-.33l-13.29-18.003c-.43-.582-1.331-.472-1.607.197l-2.509 6.062c-.354.854-1.28 1.319-2.176 1.093l-7.02-1.777v3.029l41.936 43.781 4.428 2.189c.572.034 1.143.071 1.713.128l18.533 1.848c1.228.123 2.064-1.216 1.414-2.265l-2.378-3.845c-.46-.744-.249-1.719.477-2.206l33.07-22.178c.598-.406.529-1.311-.127-1.618z" fill="#ff636e"/><path d="m213.497 109.36-7.839-1.983c-.701-.177-1.327.478-1.118 1.17l4.427 14.674c.267.885-.156 1.832-.993 2.223l-5.943 2.78c-.656.307-.725 1.212-.124 1.615l33.07 22.178c.727.487.938 1.462.477 2.206l-2.378 3.845c-.649 1.049.186 2.388 1.414 2.265l18.533-1.848c2.273-.227 4.56-.264 6.839-.128z" fill="#ff4654"/><path d="m256.321 69.728-9.109 16.096c-.549.971-1.728 1.391-2.768.987l-7.38-2.866c-.814-.316-1.661.378-1.512 1.238l6.236 35.883c.092.528-.236.92-.648 1.052l3.931 3.888c4.016 3.972 10.835 1.21 10.955-4.437l1.114-52.392c-.325.046-.634.224-.819.551z" fill="#ff4654"/><path d="m484.708 32.238h-95.667v180.083l1.828 1.906 27.116-12.439c2.651-1.216 5.693-1.254 8.373-.103l52.948 22.728c6.81 2.923 14.389-2.072 14.389-9.482v-176.098z" fill="#ff636e"/><g><path d="m390.87 38.833 7.505-6.595h-35.667l-7.505 6.595v175.669c0 7.52 7.786 12.515 14.622 9.379l21.045-9.654z" fill="#ff4654"/></g><path d="m482.745 7.5h-86.661l-7.042 6.696v24.637h104.655v-20.382c-.001-6.048-4.904-10.951-10.952-10.951z" fill="#ff7f87"/><path d="m401.821 7.5h-35.667c-6.048 0-10.951 4.903-10.951 10.951v20.382h35.667v-20.382c0-6.048 4.903-10.951 10.951-10.951z" fill="#ff636e"/><path d="m453.818 142.917h-38.648l-1.879 1.738v24.229s1.309 1.216 2.487 2.348h38.041c1.638 0 2.966-1.328 2.966-2.966v-22.382c-.001-1.639-1.328-2.967-2.967-2.967z" fill="#ffd086"/><path d="m414.65 168.265v-22.382c0-1.638 1.328-2.966 2.966-2.966h-27.135c-1.638 0-2.966 1.328-2.966 2.966v22.382c0 1.638 1.328 2.966 2.966 2.966h27.135c-1.638 0-2.966-1.328-2.966-2.966z" fill="#ffc365"/><path d="m286.666 422.156h-38.648l-1.879 1.738v24.229s1.309 1.216 2.487 2.348h38.041c1.638 0 2.966-1.328 2.966-2.966v-22.382c-.001-1.639-1.328-2.967-2.967-2.967z" fill="#ffd086"/><path d="m247.498 447.505v-22.382c0-1.638 1.328-2.966 2.966-2.966h-27.135c-1.638 0-2.966 1.328-2.966 2.966v22.382c0 1.638 1.328 2.966 2.966 2.966h27.135c-1.638 0-2.966-1.328-2.966-2.966z" fill="#ffc365"/></g><g><path d="m504.503 15.667h-3.513c-1.349-8.854-8.992-15.667-18.217-15.667h-116.591c-9.225 0-16.868 6.813-18.218 15.667h-14.126c-1.349-8.854-8.993-15.667-18.218-15.667h-116.59c-.636 0-1.264.032-1.884.095-8.368.852-15.078 7.327-16.334 15.571h-16.77c-1.349-8.853-8.992-15.666-18.218-15.666h-116.59c-9.225 0-16.868 6.813-18.218 15.667h-3.513c-4.143 0-7.5 3.358-7.5 7.5s3.357 7.5 7.5 7.5h3.279v183.836c0 12.987 13.453 21.607 25.249 16.196l48.16-22.093c.726-.332 1.56-.341 2.289-.028l52.947 22.728c11.761 5.046 24.848-3.592 24.848-16.375 0-7.533 0-170.39 0-184.264h16.303v184.058c0 12.884 13.267 21.511 25.044 16.289l50.561-22.424c.727-.322 1.559-.322 2.285 0l50.561 22.424c11.781 5.226 25.043-3.418 25.043-16.289 0-7.485 0-170.184 0-184.058h13.659v183.836c0 6.099 3.064 11.706 8.198 14.999 5.133 3.293 11.509 3.74 17.05 1.197l48.163-22.094c.724-.331 1.558-.341 2.287-.028l52.946 22.728c11.768 5.051 24.849-3.606 24.849-16.374v-82.676c0-4.142-3.357-7.5-7.5-7.5s-7.5 3.358-7.5 7.5v82.676c0 2.025-2.06 3.393-3.932 2.59l-52.947-22.728c-4.62-1.983-9.892-1.917-14.458.179l-48.162 22.094c-1.221.561-2.213.121-2.697-.189s-1.297-1.032-1.297-2.373v-168.171h123.493v50.921c0 4.142 3.357 7.5 7.5 7.5s7.5-3.358 7.5-7.5c0-11.33 0-49.834 0-66.588h3.279c4.143 0 7.5-3.358 7.5-7.5s-3.357-7.499-7.5-7.499zm-185.431 108.541c-.83-1.175-1.956-2.142-3.301-2.772-.001-.001-.003-.001-.005-.002l-1.524-.713 3.017-10c.877-2.902.12-6.067-1.975-8.26s-5.226-3.093-8.163-2.35l-10.13 2.563-.643-1.553c-1.159-2.805-3.751-4.777-6.764-5.146-1.723-.212-3.442.12-4.934.9l1.808-10.401c.531-3.059-.631-6.18-3.032-8.147-2.4-1.966-5.688-2.491-8.584-1.366l-3.143 1.22-6.87-12.139c-1.527-2.699-4.402-4.375-7.504-4.375s-5.977 1.676-7.504 4.375l-6.87 12.14-3.14-1.219c-2.895-1.126-6.184-.603-8.586 1.364-2.403 1.967-3.565 5.089-3.034 8.148l1.808 10.4c-1.493-.78-3.216-1.11-4.933-.9-3.014.369-5.605 2.341-6.764 5.144l-.644 1.555-10.129-2.563c-2.942-.745-6.069.155-8.163 2.348-2.096 2.192-2.853 5.358-1.977 8.258l3.018 10.003-1.524.713c-1.347.63-2.475 1.598-3.306 2.774v-77.874h123.493v77.875zm-56.728 26.815c-3.33-.332-6.708-.332-10.038 0l-9.182.916c-.383-2.42-1.741-4.674-3.941-6.15l-24.485-16.421c1.729-2.322 2.36-5.401 1.48-8.31l-1.073-3.558 3.604.912c2.945.746 5.99-.025 8.233-1.855l7.154 9.692c2.338 3.164 6.496 4.293 10.113 2.744 3.616-1.548 5.67-5.335 4.996-9.208l-4.403-25.333c3.6.171 7.122-1.673 8.965-4.927l3.558-6.287 3.557 6.284c1.842 3.257 5.389 5.097 8.965 4.93l-4.402 25.33c-.676 3.877 1.38 7.665 4.998 9.212 3.621 1.549 7.779.416 10.113-2.749l7.152-9.688c2.241 1.83 5.285 2.599 8.234 1.854l3.603-.912-1.071 3.553c-.881 2.912-.25 5.993 1.479 8.315l-24.485 16.42c-2.201 1.477-3.559 3.729-3.941 6.149zm-63.314-136.023h116.59c1.903 0 3.451 1.548 3.451 3.451v12.882h-123.493v-12.882c0-1.665 1.185-3.059 2.756-3.381.225-.046.458-.07.696-.07zm-173.248 3.451c0-1.903 1.548-3.451 3.451-3.451h116.591c1.903 0 3.451 1.548 3.451 3.451v12.882h-123.493zm119.562 199.07-52.946-22.728c-4.523-1.941-9.796-1.961-14.459.178l-48.161 22.094c-1.872.858-3.995-.498-3.995-2.562v-168.17h123.493v168.597c0 2.031-2.067 3.392-3.932 2.591zm169.766-.22-50.56-22.424c-4.611-2.045-9.875-2.028-14.449 0l-50.56 22.424c-1.868.829-3.963-.531-3.963-2.577v-80.805c.585.832 1.313 1.569 2.183 2.152l28.425 19.062c-1.248 2.727-1.061 5.884.56 8.479 1.832 2.935 5.106 4.528 8.518 4.185l14.562-1.452v6.155c0 4.142 3.357 7.5 7.5 7.5s7.5-3.358 7.5-7.5v-6.155l14.561 1.452c3.433.346 6.694-1.26 8.519-4.185 1.62-2.596 1.808-5.753.561-8.479l28.425-19.063c.869-.583 1.597-1.321 2.182-2.151v80.805c-.002 2.045-2.095 3.407-3.964 2.577zm47.621-185.968v-12.882c0-1.903 1.548-3.451 3.451-3.451h116.591c1.903 0 3.451 1.548 3.451 3.451v12.882z"/><path d="m504.503 294.906h-3.513c-1.35-8.854-8.993-15.667-18.218-15.667h-116.59c-9.225 0-16.868 6.812-18.218 15.667h-14.126c-1.35-8.854-8.993-15.667-18.218-15.667-124.801 0-117.088-.046-118.475.095-8.368.852-15.078 7.327-16.334 15.571h-16.77c-1.35-8.854-8.993-15.667-18.218-15.667h-116.589c-9.225 0-16.868 6.812-18.218 15.667h-3.513c-4.143 0-7.5 3.358-7.5 7.5s3.357 7.5 7.5 7.5h3.279v184.058c0 12.886 13.27 21.51 25.044 16.289l50.561-22.424c.727-.322 1.559-.322 2.285 0l50.561 22.424c11.781 5.226 25.043-3.418 25.043-16.289 0-7.485 0-170.184 0-184.058h16.303v183.836c0 12.988 13.455 21.608 25.249 16.196l48.16-22.093c.726-.332 1.56-.341 2.289-.028l52.947 22.728c11.771 5.05 24.848-3.609 24.848-16.375 0-7.533 0-170.39 0-184.264h13.659v184.058c0 12.884 13.267 21.511 25.044 16.289l50.56-22.424c.727-.322 1.559-.322 2.285 0l50.562 22.424c11.781 5.226 25.043-3.418 25.043-16.289 0-7.485 0-170.184 0-184.058h3.279c4.143 0 7.5-3.358 7.5-7.5s-3.358-7.499-7.501-7.499zm-18.279 110.541c-.832-1.176-1.959-2.144-3.307-2.774l-1.524-.713 3.018-10.001c.877-2.903.12-6.068-1.976-8.261-2.097-2.193-5.227-3.092-8.162-2.349l-10.13 2.563-.642-1.551c-1.159-2.806-3.751-4.778-6.764-5.148-1.73-.212-3.443.12-4.935.9l1.808-10.4c.531-3.059-.631-6.181-3.034-8.148s-5.694-2.49-8.582-1.365l-3.144 1.221-6.87-12.14c-1.527-2.699-4.402-4.375-7.504-4.375s-5.977 1.676-7.504 4.375l-6.87 12.14-3.142-1.22c-2.891-1.122-6.183-.601-8.585 1.366-2.401 1.967-3.563 5.088-3.032 8.147l1.808 10.401c-1.491-.781-3.214-1.113-4.935-.9-3.013.37-5.604 2.342-6.762 5.143l-.645 1.556-10.131-2.564c-2.94-.74-6.066.158-8.161 2.35s-2.852 5.357-1.976 8.257l3.018 10.003-1.525.714c-1.347.63-2.474 1.597-3.305 2.773v-79.874h123.493v79.874zm-56.729 26.816c-1.664-.166-3.341-.249-5.018-.249-1.678 0-3.354.083-5.021.249l-9.18.915c-.383-2.419-1.741-4.673-3.942-6.149l-24.486-16.421c1.727-2.321 2.358-5.399 1.481-8.31l-1.073-3.558 3.604.912c2.949.745 5.993-.025 8.233-1.854l7.15 9.686c2.336 3.166 6.49 4.297 10.114 2.75 3.618-1.547 5.674-5.335 4.999-9.209l-4.403-25.333c3.616.167 7.125-1.674 8.964-4.928l3.558-6.287 3.559 6.289c1.843 3.254 5.389 5.082 8.964 4.925l-4.402 25.33c-.675 3.875 1.379 7.663 4.995 9.211s7.776.42 10.116-2.748l7.151-9.688c2.241 1.83 5.286 2.599 8.234 1.854l3.603-.912-1.073 3.56c-.877 2.909-.245 5.987 1.481 8.308l-24.485 16.422c-2.201 1.476-3.56 3.729-3.942 6.149zm-66.764-134.573c0-1.903 1.548-3.451 3.451-3.451h116.591c1.903 0 3.451 1.548 3.451 3.451v12.883h-123.493zm-213.455 107.757c-.831-1.176-1.958-2.143-3.305-2.773h-.001l-1.524-.713 3.017-10c.877-2.902.12-6.067-1.975-8.26s-5.229-3.094-8.163-2.35l-10.13 2.563-.642-1.551c-1.159-2.806-3.751-4.778-6.764-5.148-1.725-.212-3.443.12-4.935.9l1.808-10.401c.531-3.059-.631-6.18-3.032-8.147-2.402-1.967-5.695-2.491-8.584-1.366l-3.143 1.22-6.87-12.14c-1.527-2.699-4.402-4.375-7.504-4.375s-5.977 1.676-7.504 4.375l-6.87 12.14-3.14-1.219c-2.895-1.126-6.184-.604-8.586 1.364-2.403 1.967-3.565 5.089-3.034 8.148l1.808 10.4c-1.492-.78-3.208-1.111-4.935-.9-3.013.37-5.604 2.342-6.762 5.144l-.644 1.555-10.129-2.563c-2.941-.746-6.067.155-8.163 2.348-2.096 2.192-2.853 5.358-1.977 8.258l3.018 10.003-1.521.711c-1.349.63-2.478 1.598-3.31 2.775v-79.874h123.493v79.876zm-56.728 26.816c-3.33-.332-6.708-.332-10.038 0l-9.181.915c-.383-2.419-1.741-4.673-3.942-6.149l-24.485-16.421c1.729-2.322 2.36-5.401 1.48-8.31l-1.073-3.558 3.604.912c2.946.746 5.991-.025 8.233-1.855l7.154 9.692c2.338 3.164 6.494 4.293 10.113 2.744 3.616-1.548 5.67-5.335 4.996-9.208l-4.403-25.333c3.614.169 7.121-1.673 8.965-4.927l3.558-6.287 3.557 6.284c1.842 3.257 5.395 5.099 8.965 4.93l-4.402 25.331c-.676 3.877 1.38 7.665 4.998 9.212 3.625 1.548 7.779.416 10.113-2.749l7.152-9.688c2.24 1.83 5.287 2.598 8.234 1.854l3.603-.912-1.071 3.553c-.881 2.912-.25 5.993 1.479 8.315l-24.485 16.421c-2.201 1.476-3.56 3.729-3.942 6.149zm-66.766-134.573c0-1.903 1.548-3.451 3.451-3.451h116.591c1.903 0 3.451 1.548 3.451 3.451v12.883h-123.493zm119.532 198.851-50.56-22.424c-2.296-1.018-4.76-1.527-7.225-1.527-2.464 0-4.929.509-7.225 1.527l-50.56 22.424c-1.874.831-3.963-.535-3.963-2.577v-78.806c.585.831 1.313 1.57 2.183 2.153l28.425 19.062c-1.248 2.727-1.061 5.884.56 8.479 1.828 2.928 5.098 4.529 8.518 4.185l14.562-1.452v6.155c0 4.142 3.357 7.5 7.5 7.5s7.5-3.358 7.5-7.5v-6.155l14.561 1.452c3.44.349 6.693-1.261 8.519-4.185 1.62-2.596 1.808-5.753.561-8.479l28.429-19.065c.868-.582 1.594-1.319 2.178-2.149v78.805c-.001 2.048-2.095 3.406-3.963 2.577zm169.826.219-52.946-22.728c-4.523-1.941-9.796-1.961-14.459.178l-48.161 22.094c-1.882.864-3.995-.509-3.995-2.562v-168.169h42.925c4.143 0 7.5-3.358 7.5-7.5s-3.357-7.5-7.5-7.5h-42.925v-12.882c0-1.665 1.185-3.059 2.756-3.381.532-.109 116.743-.07 117.286-.07 1.903 0 3.451 1.548 3.451 3.451v12.883h-45.568c-4.143 0-7.5 3.358-7.5 7.5s3.357 7.5 7.5 7.5h45.568v168.596c0 2.031-2.065 3.39-3.932 2.59zm167.122-.219-50.561-22.424c-4.611-2.045-9.875-2.028-14.449 0l-50.559 22.424c-1.874.831-3.963-.536-3.963-2.577v-78.806c.585.831 1.312 1.569 2.182 2.153l28.425 19.063c-1.247 2.726-1.06 5.883.561 8.479 1.832 2.935 5.106 4.528 8.518 4.185l14.562-1.452v6.155c0 4.142 3.357 7.5 7.5 7.5s7.5-3.358 7.5-7.5v-6.155l14.562 1.452c3.434.349 6.694-1.261 8.519-4.185 1.62-2.596 1.808-5.753.561-8.479l28.423-19.062c.87-.583 1.598-1.322 2.184-2.154v78.806c-.003 2.043-2.093 3.407-3.965 2.577z"/><path d="m119.299 135.705c4.062-9.994 7.549-25.213-2.22-36.166-6.912-7.749-16.669-7.957-24.35-6v-8.373h3.767c4.143 0 7.5-3.358 7.5-7.5s-3.357-7.5-7.5-7.5h-3.766v-.927c0-4.142-3.357-7.5-7.5-7.5s-7.5 3.358-7.5 7.5v.927h-3.768c-4.143 0-7.5 3.358-7.5 7.5s3.357 7.5 7.5 7.5h3.768v8.134c-7.514-1.685-16.735-1.177-23.351 6.24-9.711 10.889-6.322 25.996-2.29 35.992-5.074.719-8.994 5.08-8.994 10.35v22.382c0 5.771 4.695 10.466 10.466 10.466h63.337c5.771 0 10.467-4.695 10.467-10.466v-22.382c0-4.943-3.45-9.087-8.066-10.177zm-13.415-26.181c5.66 6.346.556 19.328-2.967 25.893h-10.187v-25.995c2.264-.977 9.711-3.76 13.154.102zm-40.31 0c3.065-3.434 9.174-1.672 12.156-.517v26.409h-9.2c-3.543-6.551-8.661-19.496-2.956-25.892zm46.791 54.207h-54.27v-13.315h54.27z"/><path d="m380.042 145.883v22.382c0 5.771 4.695 10.466 10.467 10.466h63.337c5.771 0 10.466-4.695 10.466-10.466v-22.382c0-4.944-3.45-9.088-8.065-10.177 4.063-9.994 7.55-25.212-2.22-36.166-6.911-7.749-16.668-7.957-24.35-6v-8.373h3.768c4.143 0 7.5-3.358 7.5-7.5s-3.357-7.5-7.5-7.5h-3.768v-.927c0-4.142-3.357-7.5-7.5-7.5s-7.5 3.358-7.5 7.5v.927h-3.767c-4.143 0-7.5 3.358-7.5 7.5s3.357 7.5 7.5 7.5h3.767v8.133c-7.513-1.686-16.734-1.178-23.35 6.24-9.712 10.889-6.323 25.997-2.291 35.993-5.074.719-8.994 5.08-8.994 10.35zm69.27 17.848h-54.27v-13.315h54.27zm-6.48-54.207c5.661 6.346.555 19.328-2.968 25.893h-10.188v-25.995c2.266-.977 9.712-3.76 13.156.102zm-40.309 0c3.063-3.435 9.171-1.672 12.154-.517v26.41h-9.198c-3.543-6.551-8.661-19.497-2.956-25.893z"/><path d="m289.095 414.945c4.062-9.994 7.549-25.213-2.22-36.166-6.912-7.75-16.669-7.957-24.35-6v-8.373h3.767c4.143 0 7.5-3.358 7.5-7.5s-3.357-7.5-7.5-7.5h-3.767v-.927c0-4.142-3.357-7.5-7.5-7.5s-7.5 3.358-7.5 7.5v.927h-3.768c-4.143 0-7.5 3.358-7.5 7.5s3.357 7.5 7.5 7.5h3.768v8.133c-7.513-1.685-16.734-1.177-23.351 6.24-9.711 10.889-6.322 25.996-2.29 35.992-5.075.719-8.994 5.08-8.994 10.35v22.382c0 5.771 4.695 10.466 10.466 10.466h63.337c5.771 0 10.467-4.695 10.467-10.466v-22.382c0-4.942-3.449-9.086-8.065-10.176zm-13.415-26.181c5.66 6.346.556 19.328-2.967 25.893h-10.188v-25.998c2.304-1.008 9.683-3.791 13.155.105zm-40.311 0c3.065-3.434 9.173-1.672 12.156-.517v26.41h-9.2c-3.542-6.552-8.66-19.497-2.956-25.893zm46.791 54.207h-54.27v-13.315h54.27z"/></g></g></svg>