<svg id="Capa_1" enable-background="new 0 0 512 512" height="512" viewBox="0 0 512 512" width="512" xmlns="http://www.w3.org/2000/svg"><g><g><path d="m401.618 48h-264.625v395.75l6.66 7.227 34.86 17.43 9.316-8.907h133.133l12.525 8.907 69.128-34.564c6.024-3.012 9.83-9.169 9.83-15.905v-358.423c0-.728.003-1.444.004-2.169z" fill="#ff636e"/><path d="m140.115 439.855v-388.378c0-.788-.003-1.565-.004-2.35l.791-1.127h-34.784l-6.567 9.346c.001.725.004 1.441.004 2.169v358.423c0 6.735 3.805 12.893 9.83 15.905l34.268 17.134c-2.258-3.194-3.538-7.06-3.538-11.122z" fill="#ff4654"/><path d="m324.618 48h-138l-8.105 9.346v411.061l67.445 33.723c6.322 3.16 13.762 3.16 20.084 0l67.445-33.722v-411.062z" fill="#dbedff"/><path d="m437.285 39.238v-18.905l-2.558-2.889h-357.454l-5.488 5.274v16.52z" fill="#ffc365"/><g fill="#ffa90f"><path d="m77.273 37.395-5.488-1.846v19.951l5.488 1.846h357.454l2.558-1.513v-19.951l-2.558 1.513z"/><path d="m42.079 22.718h-19.901c-8.106 0-14.678 6.572-14.678 14.677 0 8.106 6.571 14.678 14.678 14.678h19.902l2.539-1.49v-25.391z"/><path d="m489.823 22.718h-19.902l-2.303 1.808v25.391l2.303 2.156h19.902c8.106 0 14.677-6.571 14.677-14.678 0-8.106-6.571-14.677-14.677-14.677z"/></g><path d="m65.243 7.5h-10.909c-6.768 0-12.255 5.487-12.255 12.255v14.114c0 6.768 5.487 12.255 12.255 12.255h10.909c6.768 0 12.254-5.486 12.255-12.254v-14.115c0-6.768-5.487-12.255-12.255-12.255z" fill="#ffd086"/><path d="m457.666 7.5h-10.909c-6.768 0-12.255 5.487-12.255 12.255v14.114c0 6.768 5.487 12.255 12.255 12.255h10.909c6.767 0 12.253-5.485 12.255-12.252v-14.117c0-6.768-5.487-12.255-12.255-12.255z" fill="#ffd086"/><path d="m65.243 44.124h-10.909c-6.768 0-12.255-5.487-12.255-12.255v23.167c0 6.768 5.487 12.255 12.255 12.255h10.909c6.768 0 12.255-5.487 12.255-12.255v-23.167c0 6.768-5.487 12.255-12.255 12.255z" fill="#ffc365"/><path d="m457.666 44.124h-10.909c-6.768 0-12.255-5.487-12.255-12.255v23.167c0 6.768 5.487 12.255 12.255 12.255h10.909c6.768 0 12.255-5.487 12.255-12.255v-23.167c0 6.768-5.487 12.255-12.255 12.255z" fill="#ffc365"/><g><path d="m318.917 267.611-6.766-3.165c-.953-.446-1.434-1.524-1.131-2.531l5.039-16.705c.238-.788-.475-1.534-1.273-1.332l-16.916 4.28c-1.02.258-2.075-.272-2.478-1.244l-2.856-6.901c-.315-.761-1.341-.887-1.83-.224l-15.13 20.495c-.673.912-2.116.295-1.922-.822l7.099-40.849c.17-.979-.794-1.77-1.721-1.41l-8.402 3.263c-1.184.46-2.525-.019-3.151-1.124l-10.37-18.324c-.278-.492-.8-.694-1.29-.626l-.934 2.694-2.438 57.05-7.175 4.319-7.668-3.796c-.402.13-.874.045-1.185-.376l-15.129-20.495c-.489-.663-1.515-.538-1.83.224l-2.856 6.901c-.402.972-1.457 1.502-2.478 1.244l-7.992-2.022v3.448l47.741 49.841 5.041 2.492c.651.039 1.301.081 1.95.146l21.098 2.103c1.398.14 2.349-1.384 1.61-2.579l-2.707-4.377c-.524-.847-.284-1.957.543-2.512l37.647-25.248c.686-.458.607-1.488-.14-1.838z" fill="#ff636e"/><g fill="#ff4654"><path d="m206.137 246.136-8.924-2.258c-.798-.202-1.511.544-1.273 1.332l5.039 16.705c.304 1.008-.178 2.085-1.131 2.531l-6.765 3.165c-.746.349-.825 1.379-.141 1.838l37.647 25.248c.827.555 1.067 1.665.543 2.512l-2.707 4.377c-.739 1.195.212 2.719 1.61 2.579l21.098-2.103c2.588-.258 5.191-.3 7.785-.146z"/><path d="m254.888 201.018-10.37 18.324c-.626 1.105-1.967 1.584-3.151 1.124l-8.402-3.263c-.927-.36-1.891.43-1.721 1.41l7.099 40.849c.104.601-.269 1.047-.738 1.198l4.475 4.426c4.572 4.522 12.335 1.378 12.472-5.051l1.269-59.643c-.37.052-.722.254-.933.626z"/></g></g></g><path d="m489.822 15.226h-12.948c-2.058-8.71-9.879-15.218-19.208-15.218h-10.909c-7.321 0-13.71 4.012-17.122 9.944h-156.135c-4.142 0-7.5 3.358-7.5 7.5s3.358 7.5 7.5 7.5h153.502v24.902c-16.323 0-326.715 0-342.005 0v-24.902h153.503c4.142 0 7.5-3.358 7.5-7.5s-3.358-7.5-7.5-7.5h-156.135c-3.413-5.932-9.802-9.944-17.122-9.944h-10.909c-9.33 0-17.15 6.508-19.208 15.218h-12.948c-12.229 0-22.178 9.949-22.178 22.178s9.949 22.178 22.178 22.178h12.948c2.058 8.71 9.879 15.218 19.208 15.218h10.909c7.321 0 13.71-4.012 17.123-9.944h9.686l.004 353.092c0 9.638 5.355 18.303 13.976 22.612 6.7 3.35 130.548 65.275 136.574 68.288 8.383 4.192 18.4 4.194 26.791 0l136.573-68.287c8.621-4.31 13.976-12.975 13.976-22.613v-153.618c0-4.142-3.358-7.5-7.5-7.5s-7.5 3.358-7.5 7.5v153.617c0 3.919-2.178 7.443-5.684 9.196l-58.274 29.137v-391.425h63.958v164.475c0 4.142 3.358 7.5 7.5 7.5s7.5-3.358 7.5-7.5v-164.475h9.69c3.412 5.932 9.802 9.944 17.123 9.944h10.909c9.33 0 17.15-6.508 19.208-15.218h12.948c12.229 0 22.178-9.949 22.178-22.178-.002-12.228-9.951-22.177-22.18-22.177zm-474.822 22.178c0-3.958 3.22-7.177 7.178-7.177h12.401v14.355h-12.401c-3.958-.001-7.178-3.22-7.178-7.178zm50.243 22.395h-10.909c-2.622 0-4.755-2.133-4.755-4.755 0-13.128 0-22.155 0-35.281 0-2.622 2.133-4.755 4.755-4.755h10.909c2.291 0 4.207 1.628 4.655 3.788.004.021.004.041.008.062.157.811.137 36.376 0 37.089-.004.021-.005.043-.009.064-.447 2.16-2.364 3.788-4.654 3.788zm41.812 358.148v-353.092h63.958v391.425l-58.274-29.137c-3.506-1.753-5.684-5.277-5.684-9.196zm142.257 77.483-63.299-31.65v-191.156c1.375 2.56-.177 1.098 35.882 25.282-1.699 2.952-1.64 6.547.175 9.452 1.853 2.968 5.179 4.631 8.711 4.278l17.719-1.766v8.154c0 4.142 3.358 7.5 7.5 7.5s7.5-3.358 7.5-7.5v-8.154l17.717 1.766c3.507.353 6.846-1.289 8.713-4.278 1.814-2.905 1.874-6.499.174-9.452 36.115-24.221 34.518-22.741 35.882-25.282v191.156l-63.298 31.649c-4.188 2.094-9.189 2.094-13.376.001zm-41.147-235.669-1.751-5.806 5.878 1.487c3.402.861 6.931-.242 9.272-2.647l8.827 11.958c5.355 7.25 16.888 2.324 15.345-6.562l-5.249-30.201c4.128.744 8.437-1.183 10.56-4.937l4.953-8.753 4.954 8.754c2.125 3.754 6.429 5.685 10.56 4.936l-5.249 30.2c-1.545 8.881 9.982 13.819 15.346 6.562l8.825-11.956c2.342 2.405 5.872 3.508 9.271 2.647l5.88-1.488-1.752 5.807c-1.013 3.357-.07 6.933 2.227 9.381l-28.831 19.335c-2.548 1.709-3.994 4.434-4.142 7.273l-11.479-1.144c-3.728-.372-7.491-.372-11.223 0l-11.479 1.144c-.147-2.839-1.593-5.564-4.141-7.273l-28.831-19.335c2.298-2.448 3.241-6.024 2.229-9.382zm117.822 4.765c-.859-1.592-2.207-2.906-3.896-3.696l-2.549-1.192 3.695-12.25c1.915-6.356-3.852-12.395-10.294-10.766l-12.401 3.138-1.076-2.599c-2.288-5.53-9.444-7.08-13.812-2.924l2.489-14.321c1.167-6.713-5.464-12.157-11.825-9.687l-4.416 1.714-8.263-14.602c-3.354-5.924-11.92-5.931-15.278.001l-8.263 14.601-4.415-1.714c-6.35-2.471-12.995 2.964-11.826 9.685l2.489 14.322c-4.36-4.15-11.521-2.611-13.811 2.923l-1.077 2.601-12.399-3.138c-6.453-1.629-12.213 4.418-10.295 10.768l3.694 12.248c-2.692 1.259-4.869 1.967-6.446 4.889v-199.672h139.974v199.671zm136.434-209.482c0 2.622-2.133 4.755-4.755 4.755h-10.909c-2.65 0-4.755-2.164-4.755-4.755v-35.281c0-2.596 2.11-4.755 4.755-4.755h10.909c2.622 0 4.755 2.133 4.755 4.755zm27.401-10.463h-12.401v-14.355h12.401c3.958 0 7.178 3.22 7.178 7.177 0 3.959-3.22 7.178-7.178 7.178z"/></g></svg>