<svg id="Capa_1" enable-background="new 0 0 512 512" height="512" viewBox="0 0 512 512" width="512" xmlns="http://www.w3.org/2000/svg"><g><g><path d="m155.437 362.997-4.917-1.393v-130.048l36.333 53.778 14.047 11.333 3.453 8.947c-12.055 24.352-29.039 45.077-48.916 57.383z" fill="#ff636e"/><path d="m75.738 122.385 3.116 3.615v231.598l-3.116 5.401c-39.988-24.752-68.266-83.592-68.266-137.43 0-53.839 28.277-89.407 68.266-103.184z" fill="#ff4654"/><path d="m148.854 229.75-17.75-61.5v-47l-4.802-4.859c-.521-.042-1.05-.059-1.573-.095l-7.638 6.09-25.5 37.865-9 49.5v53.917l12.167 49.281 30.065 59.051h12.78l3.047-1.658c5.078-1.917 10.014-4.391 14.786-7.345v-111.485-10.512z" fill="#dbedff"/><g><path d="m85.134 226.295c0-50.126 16.357-87.211 41.721-109.344l-.553-.56c-3.525-.285-7.098-.432-10.714-.432-14.074 0-27.518 2.178-39.85 6.427v240.614c4.772 2.954 9.709 5.426 14.786 7.343l2.58 1.658h38.199c-27.885-35.721-46.169-92.707-46.169-145.706z" fill="#b5dcff"/></g><path d="m356.507 362.997 4.917-1.393v-130.048l-36.333 53.778-14.047 11.333-3.453 8.947c12.054 24.352 29.038 45.077 48.916 57.383z" fill="#ff4654"/><path d="m436.206 122.385-3.116 3.615v231.598l3.116 5.401c39.987-24.752 68.266-83.592 68.266-137.43 0-53.839-28.277-89.407-68.266-103.184z" fill="#ff636e"/><path d="m419.733 118.091h-8.643l-30.25 45.186v4.974l-17.055 59.092 1.638 24.325 11.292 58.958 33.05 61.374h9.075l2.58-1.658c5.077-1.917 10.014-4.389 14.786-7.343v-240.614c-5.295-1.824-10.806-3.242-16.473-4.294z" fill="#dbedff"/><g fill="#b5dcff"><path d="m419.733 118.091c-7.531-1.398-15.346-2.132-23.377-2.132-3.616 0-7.189.147-10.714.432l-4.802 4.859v47l-.679 2.351c9.071-20.55 22.603-38.109 39.572-52.51z"/><path d="m367.233 234.844c0-9.092.67-17.832 1.955-26.22l-6.098 21.127-6.583 11.249v10.512 111.484c4.772 2.954 9.709 5.429 14.786 7.345l3.047 1.659h40.181c-29.493-40.508-47.288-90.106-47.288-137.156z"/></g><path d="m436.559 406.996c-5.455-5.597-11.453-10.198-17.843-13.5l-1.188-1.559h-12.276l-18.745 14.146-2.75 8 2.333 6.5 2.422 2.635h41.27c8.458 0 12.68-10.166 6.777-16.222z" fill="#dbedff"/><path d="m388.345 406.955c5.833-5.984 12.246-10.904 19.079-14.434l.76-.583h-32.156l-2.03 1.559c-6.39 3.302-12.388 7.903-17.843 13.5-5.903 6.057-1.68 16.222 6.777 16.222h28.024c-5.735-2.907-7.719-11.023-2.611-16.264z" fill="#b5dcff"/><path d="m282.272 9.684h-15.432l-39.012 18.816-36.357 41.643-14.035 80.343 23.47 85.848 26.922 44.5 43.508 37.542h11.504l3.585-1.789c57.865-21.839 100.912-102.684 100.912-175.905 0-74.965-45.117-120.777-105.065-130.998z" fill="#dbedff"/><path d="m186.09 140.681c0-74.964 41.303-120.776 96.182-130.997-8.498-1.449-17.293-2.184-26.3-2.184-72.551 0-131.365 47.591-131.365 133.181 0 73.221 43.047 154.066 100.912 175.905l3.196 1.789h52.681l-2.926-1.789c-52.972-21.839-92.38-102.684-92.38-175.905z" fill="#b5dcff"/><path d="m304.819 361.122c-6.628-6.801-13.916-12.39-21.68-16.402l-2.549-2.345h-12.851l-23.304 17.25-4.47 8.5 4.47 9.5s2.595 1.64 4.965 3.208h47.185c10.277 0 15.407-12.351 8.234-19.711z" fill="#dbedff"/><path d="m246.394 361.122c6.628-6.801 13.916-12.39 21.68-16.402l2.911-2.345h-39.27l-2.911 2.345c-7.764 4.012-15.052 9.602-21.68 16.402-7.172 7.359-2.042 19.711 8.234 19.711h39.27c-10.276 0-15.406-12.351-8.234-19.711z" fill="#b5dcff"/><path d="m315.764 182.893h-71.526l-3.522 3.232v28.125l3.792 2.476h71.256c2.6 0 4.708-2.108 4.708-4.708v-24.417c0-2.6-2.108-4.708-4.708-4.708z" fill="#ffd086"/><path d="m243.09 212.018v-24.417c0-2.6 2.108-4.708 4.708-4.708h-51.618c-2.6 0-4.708 2.108-4.708 4.708v24.417c0 2.6 2.108 4.708 4.708 4.708h51.618c-2.6 0-4.708-2.108-4.708-4.708z" fill="#ffc365"/><path d="m412.873 367.347h-9.797l-4.902 2.653-4.833 6.917v8.333l3.917 5.667 6.932 3.898h8.684c7.585 0 13.734-6.149 13.734-13.734-.001-7.585-6.15-13.734-13.735-13.734z" fill="#ffc365"/><path d="m395.106 381.081c0-7.585 6.149-13.734 13.734-13.734h-29c-7.585 0-13.734 6.149-13.734 13.734s6.149 13.734 13.734 13.734h29c-7.585 0-13.734-6.149-13.734-13.734z" fill="#ffa90f"/><path d="m276.04 312.948h-12.666c-6.753 2.543-11.566 9.045-11.566 16.687s4.813 14.144 11.566 16.688h12.667c9.216 0 16.687-7.471 16.687-16.688-.001-9.216-7.472-16.687-16.688-16.687z" fill="#ffc365"/><path d="m252.966 329.635c0-9.216 7.471-16.687 16.687-16.687h-33.75c-9.216 0-16.687 7.471-16.687 16.687s7.471 16.688 16.687 16.688h33.75c-9.215-.001-16.687-7.472-16.687-16.688z" fill="#ffa90f"/><path d="m155.79 406.996c-5.455-5.597-11.453-10.198-17.843-13.5l-1.188-1.559h-12.276l-18.745 14.146-2.75 8 2.333 6.5 2.422 2.635h41.27c8.457 0 12.68-10.166 6.777-16.222z" fill="#dbedff"/><path d="m107.575 406.955c5.833-5.984 12.246-10.904 19.079-14.434l.76-.583h-32.156l-2.03 1.559c-6.39 3.302-12.388 7.903-17.843 13.5-5.903 6.057-1.68 16.222 6.777 16.222h28.024c-5.735-2.907-7.718-11.023-2.611-16.264z" fill="#b5dcff"/><path d="m132.104 367.347h-9.797l-4.903 2.653-4.833 6.917v8.333l3.917 5.667 6.932 3.898h8.684c7.585 0 13.734-6.149 13.734-13.734s-6.149-13.734-13.734-13.734z" fill="#ffc365"/><path d="m114.337 381.081c0-7.585 6.149-13.734 13.734-13.734h-29c-7.585 0-13.734 6.149-13.734 13.734s6.149 13.734 13.734 13.734h29c-7.585 0-13.734-6.149-13.734-13.734z" fill="#ffa90f"/></g><g><path d="m79.269 373.55c-.894 2.344-1.405 4.876-1.405 7.531 0 4.094 1.185 7.908 3.2 11.155-3.818 2.744-7.507 5.918-11.022 9.525-10.478 10.752-3.015 28.958 12.147 28.958h25.926v73.781c0 4.142 3.357 7.5 7.5 7.5s7.5-3.358 7.5-7.5v-73.782h25.925c15.185 0 22.603-18.228 12.148-28.957-3.516-3.607-7.205-6.781-11.023-9.525 2.016-3.246 3.2-7.061 3.2-11.155 0-2.655-.511-5.188-1.406-7.532 23.548-11.876 42.591-34.216 55.336-57.338 2.18 1.246 4.378 2.408 6.592 3.488-1.373 3.034-2.144 6.396-2.144 9.937 0 5.2 1.655 10.017 4.458 13.965-5.008 3.471-9.833 7.581-14.42 12.288-11.836 12.144-3.276 32.446 13.605 32.446h33.114v116.165c0 4.142 3.357 7.5 7.5 7.5s7.5-3.358 7.5-7.5v-116.167h33.113c16.899 0 25.429-20.314 13.605-32.445-4.588-4.708-9.413-8.817-14.421-12.288 2.802-3.948 4.457-8.766 4.457-13.965 0-3.541-.771-6.903-2.144-9.937 2.214-1.08 4.413-2.242 6.593-3.488 12.799 23.22 31.804 45.472 55.336 57.339-.894 2.345-1.406 4.877-1.406 7.532 0 4.094 1.185 7.908 3.2 11.155-3.818 2.744-7.507 5.917-11.023 9.525-10.477 10.751-3.014 28.957 12.148 28.957h25.926v73.782c0 4.142 3.357 7.5 7.5 7.5s7.5-3.358 7.5-7.5v-73.782h25.925c15.185 0 22.603-18.228 12.148-28.957-3.516-3.607-7.205-6.781-11.023-9.525 2.016-3.246 3.2-7.061 3.2-11.155 0-2.655-.511-5.186-1.405-7.531 47.868-24.176 79.271-90.503 79.271-147.981 0-75.699-53.608-119.126-120.026-117.033-12.797-68.33-67.549-108.536-135.974-108.536-66.563 0-122.862 38.516-135.975 108.536-65.218-2.056-120.025 40.209-120.025 117.033 0 59.054 32.528 124.379 79.269 147.981zm59.096 7.531c0 3.494-2.879 6.234-6.233 6.234h-33.033c-3.363 0-6.234-2.746-6.234-6.234 0-3.461 2.835-6.234 6.234-6.234h33.033c3.418 0 6.233 2.79 6.233 6.234zm10.675 34.637h-66.851c-1.855 0-2.685-2.175-1.405-3.488 4.183-4.292 8.603-7.83 13.176-10.549 1.497.376 3.405.634 5.139.634h33.033c1.592 0 3.489-.219 5.139-.634 4.572 2.72 8.993 6.258 13.176 10.55 1.279 1.314.449 3.487-1.407 3.487zm45.673-107.742c-8.865 16.36-19.78 30.11-31.748 40.245v-72.057c9.01 11.782 19.697 22.861 31.748 31.812zm41.219 12.472h40.137c4.995 0 9.187 4.08 9.187 9.187 0 5.226-4.328 9.188-9.187 9.188h-40.137c-4.886 0-9.188-3.982-9.188-9.188 0-5.144 4.229-9.187 9.188-9.187zm60.681 52.885h-81.227c-3.629 0-5.428-4.344-2.863-6.977 5.358-5.498 11.04-10.002 16.927-13.424 2.133.594 4.404.889 6.481.889h40.137c2.027 0 4.299-.281 6.481-.889 5.887 3.421 11.568 7.926 16.927 13.424 2.563 2.631.77 6.977-2.863 6.977zm20.674-65.357c12.098-8.996 22.746-20.042 31.747-31.812v72.057c-11.968-10.134-22.881-23.884-31.747-40.245zm101.848 73.105c0 3.54-2.932 6.234-6.234 6.234h-33.032c-3.327 0-6.234-2.714-6.234-6.234 0-3.443 2.829-6.234 6.234-6.234h33.031c3.413 0 6.235 2.796 6.235 6.234zm10.675 34.637h-66.851c-1.854 0-2.688-2.172-1.406-3.488 4.183-4.292 8.604-7.83 13.177-10.55 1.708.429 3.618.634 5.139.634h33.031.001.001c1.581 0 3.471-.215 5.136-.634 4.573 2.72 8.994 6.258 13.177 10.55 1.28 1.315.45 3.488-1.405 3.488zm67.19-190.149c0 47.623-22.335 96.584-53.267 122.698v-85.09c0-4.142-3.357-7.5-7.5-7.5s-7.5 3.358-7.5 7.5v95.521c-2.139 1.187-4.55 2.376-6.601 3.271-2.863-1.384-6.133-2.122-9.23-2.122h-.001-.001-33.032c-3.196 0-6.422.765-9.231 2.122-2.42-1.056-4.637-2.19-6.603-3.282v-105.156c24.292-42.319 33.874-90.637 30.028-130.051 12.23-.227 23.941 1.403 34.671 4.574v100.122c0 4.142 3.357 7.5 7.5 7.5s7.5-3.358 7.5-7.5v-94.396c30.306 14.404 53.267 44.243 53.267 91.789zm-241-210.569c74.836 0 123.864 51.285 123.864 125.681v.001c0 67.959-39.038 144.674-92.628 167.509-3.504-1.832-7.392-2.743-11.167-2.743h-40.137c-3.774 0-7.662.91-11.167 2.743-54.173-23.082-88.803-97.19-92.306-156.762-4.756-82.975 47.52-136.429 123.541-136.429zm-108.035 238.531v105.156c-2.347 1.305-4.769 2.482-6.603 3.282-2.713-1.313-5.972-2.122-9.23-2.122h-33.033c-3.14 0-6.391.752-9.231 2.122-1.983-.865-4.276-1.981-6.602-3.271v-230.643c11.312-3.344 23.063-4.786 34.671-4.575-3.907 40.047 6.051 88.29 30.028 130.051zm-79.699-119.75v214.486c-30.932-26.114-53.266-75.075-53.266-122.698 0-47.545 22.961-77.385 53.266-91.788z"/><path d="m184 187.601v24.417c0 6.732 5.477 12.208 12.208 12.208h42.292c4.143 0 7.5-3.358 7.5-7.5s-3.357-7.5-7.5-7.5h-39.5v-18.833h114v18.833h-39.5c-4.143 0-7.5 3.358-7.5 7.5s3.357 7.5 7.5 7.5h42.291c6.732 0 12.209-5.477 12.209-12.208v-24.417c0-3.197-1.245-6.102-3.263-8.281 9.465-14.022 19.318-35.461 8.587-54.19-10.647-18.581-33.459-15.963-41.118-14.478-9.535-5.929-20.714-4.772-28.706-2.595v-9.666h2.625c4.143 0 7.5-3.358 7.5-7.5s-3.357-7.5-7.5-7.5h-2.625v-5.75c0-4.142-3.357-7.5-7.5-7.5s-7.5 3.358-7.5 7.5v5.75h-2.625c-4.143 0-7.5 3.358-7.5 7.5s3.357 7.5 7.5 7.5h2.625v9.667c-7.992-2.177-19.172-3.335-28.707 2.593-7.66-1.486-30.472-4.104-41.118 14.478-10.73 18.728-.876 40.167 8.588 54.19-2.018 2.18-3.263 5.085-3.263 8.282zm136.309-55.013c8.13 14.189-4.572 34.034-11.195 42.805h-10.207c5.699-12.478 12.811-33.75 5.215-50.745 5.879.184 12.705 1.864 16.187 7.94zm-32.998-6.631c11.342 12.716 1.21 37.94-5.132 49.436h-18.679v-51.581c5.775-2.189 17.258-5.203 23.811 2.145zm-38.811-2.146v51.581h-18.632c-4.529-8.446-17.495-35.627-5.179-49.436 6.554-7.348 18.037-4.334 23.811-2.145zm-56.81 8.777c3.498-6.104 10.32-7.784 16.197-7.96-7.611 16.998-.496 38.283 5.205 50.765h-10.207c-6.623-8.771-19.323-28.618-11.195-42.805z"/></g></g></svg>