<svg id="Capa_1" enable-background="new 0 0 512 512" height="512" viewBox="0 0 512 512" width="512" xmlns="http://www.w3.org/2000/svg"><g><g><path d="m445.757 130.266h-344.539v364.734l13.061 9.5h327.464c12.651 0 22.907-10.256 22.907-22.907v-341.527z" fill="#dbedff"/><path d="m106.83 481.593v-341.527l11.795-9.799h-59.535l-11.795 9.799v341.527c0 12.651 10.256 22.907 22.907 22.907h59.535c-12.651 0-22.907-10.256-22.907-22.907z" fill="#b5dcff"/><path d="m441.742 40.641h-325.724l-14.801 10.302v89.122h363.433v-76.516c0-12.652-10.256-22.908-22.908-22.908z" fill="#ff636e"/><path d="m129.737 40.641h-59.535c-12.652 0-22.907 10.256-22.907 22.907v76.517h59.535v-76.516c0-12.652 10.256-22.908 22.907-22.908z" fill="#ff4654"/><path d="m226.686 371.07c.388-.79-.235-1.701-1.113-1.625l-7.951.686c-1.12.096-2.141-.644-2.398-1.738l-4.262-18.15c-.201-.856-1.259-1.166-1.89-.552l-13.366 12.997c-.806.784-2.065.857-2.957.173l-6.33-4.86c-.698-.536-1.714-.104-1.813.771l-3.05 27.047c-.136 1.203-1.801 1.403-2.218.267l-15.254-41.591c-.366-.997-1.68-1.213-2.345-.385l-6.031 7.507c-.85 1.058-2.347 1.332-3.516.643l-19.385-11.416c-.915-.539-2.067.127-2.058 1.188l.136 15.817 1.955 7.151 48.5 68.903 3.046 1.567c1.893-1.164 3.85-2.221 5.877-3.136l20.646-9.325c1.368-.618 1.434-2.536.112-3.247l-4.844-2.604c-.937-.504-1.308-1.659-.839-2.615z" fill="#ff636e"/><path d="m412.131 414.414c.641-.602.38-1.673-.467-1.913l-17.939-5.076c-1.082-.306-1.775-1.36-1.628-2.474l1.044-7.912c.115-.873-.767-1.537-1.573-1.185l-24.948 10.882c-1.11.484-2.116-.858-1.34-1.788l28.392-34.006c.681-.815.21-2.062-.839-2.224l-9.517-1.469c-1.341-.207-2.327-1.367-2.315-2.723l.194-22.496c.009-1.061-1.143-1.726-2.057-1.188l-3.937 2.319-4.359 4.255-46.5 82.333.492 4.153c2.026 1.084 3.988 2.289 5.856 3.631l18.398 13.217c1.219.876 2.913-.026 2.868-1.526l-.167-5.496c-.032-1.064.783-1.962 1.845-2.034l48.324-3.25c.878-.059 1.355-1.054.851-1.776l-4.569-6.543c-.644-.922-.513-2.177.306-2.946z" fill="#ff636e"/><path d="m315.764 280.72h-74.323l-3.101 2.363v29.333l2.54 2.137h74.883c2.6 0 4.708-2.108 4.708-4.708v-24.417c.001-2.6-2.107-4.708-4.707-4.708z" fill="#ffd086"/><path d="m239.536 309.845v-24.417c0-2.6 2.108-4.708 4.708-4.708h-48.064c-2.6 0-4.708 2.108-4.708 4.708v24.417c0 2.6 2.108 4.708 4.708 4.708h48.064c-2.6 0-4.708-2.107-4.708-4.708z" fill="#ffc365"/><g fill="#ff4654"><path d="m184.387 435.47-53.5-77.623.058 6.68c.012 1.356-.974 2.516-2.315 2.723l-9.517 1.469c-1.05.162-1.52 1.408-.839 2.224l28.392 34.006c.776.929-.23 2.271-1.34 1.788l-24.948-10.882c-.807-.352-1.689.312-1.574 1.185l1.044 7.912c.147 1.115-.546 2.168-1.628 2.474l-17.939 5.076c-.846.24-1.107 1.311-.467 1.913l13.587 12.766c.819.77.95 2.024.306 2.946l-4.569 6.543c-.504.722-.027 1.717.851 1.776l48.324 3.25c1.062.072 1.877.97 1.844 2.034l-.167 5.496c-.045 1.5 1.649 2.402 2.868 1.526l18.398-13.217c1.016-.731 2.066-1.41 3.131-2.065z"/><path d="m359.751 352.259c-1.169.688-2.666.415-3.516-.643l-6.031-7.507c-.665-.828-1.98-.612-2.345.385l-15.254 41.591c-.417 1.137-2.082.937-2.218-.267l-3.05-27.047c-.099-.875-1.115-1.307-1.813-.771l-6.33 4.86c-.892.685-2.151.611-2.957-.173l-13.366-12.997c-.63-.613-1.689-.304-1.89.552l-4.262 18.15c-.257 1.094-1.278 1.834-2.398 1.738l-7.951-.686c-.877-.076-1.501.835-1.113 1.625l21.347 43.475c.469.955.098 2.111-.839 2.615l-4.843 2.604c-1.322.711-1.256 2.629.112 3.247l20.646 9.325c1.071.483 2.117 1.016 3.152 1.569l50.366-90.741z"/></g></g><g><path d="m232.821 365.697c-1.754-2.563-4.765-3.99-7.86-3.726h-.004l-3.439.297-3.227-13.742c-.71-3.021-3.002-5.439-5.98-6.31-2.98-.872-6.212-.068-8.438 2.097l-10.118 9.84-2.738-2.102c-2.464-1.892-5.771-2.312-8.632-1.098-2.859 1.215-4.853 3.889-5.201 6.977l-.035.319-5.992-16.335c-1.097-2.996-3.735-5.18-6.884-5.698-3.146-.516-6.348.705-8.352 3.196l-3.446 4.292-15.83-9.322c-2.748-1.618-6.169-1.633-8.931-.041-2.762 1.593-4.461 4.564-4.435 7.755l.159 18.371-5.441.84c-3.154.487-5.814 2.645-6.941 5.631s-.556 6.363 1.489 8.811l11.152 13.359-.292-.128c-2.846-1.242-6.159-.854-8.643 1.015s-3.773 4.944-3.366 8.024l.451 3.422-13.585 3.844c-2.985.847-5.297 3.246-6.031 6.261-.735 3.015.213 6.208 2.475 8.334l10.287 9.664-1.977 2.83c-1.778 2.548-2.049 5.871-.706 8.673s4.104 4.672 7.204 4.88l43.013 2.894-.006.179c-.106 3.568 1.785 6.825 4.937 8.501 3.161 1.681 6.916 1.417 9.805-.659l15.914-11.433 10.114 17.519c2.072 3.59 6.662 4.816 10.245 2.745 3.587-2.071 4.816-6.658 2.745-10.245l-10.114-17.519 17.857-8.065c3.253-1.468 5.351-4.597 5.475-8.164.123-3.568-1.753-6.834-4.897-8.524l-.155-.083 19.002-38.699c1.366-2.789 1.127-6.114-.628-8.677zm-34.184 45.537c-1.459 2.967-1.242 6.311.308 8.962l-11.739 5.302c-3.613 1.632-7.078 3.632-10.297 5.945l-10.463 7.517c-1.521-2.667-4.306-4.526-7.603-4.747l-37.633-2.532c1.047-3.472.104-7.385-2.646-9.967l-5.386-5.06 7.112-2.012c3.627-1.027 6.265-4.065 6.936-7.629l15.13 6.6c3.692 1.609 7.96.481 10.376-2.742 2.416-3.224 2.299-7.636-.283-10.728l-21.482-25.731c4.391-1.221 7.546-5.306 7.506-9.949l-.101-11.655 10.043 5.915c4.003 2.356 9.116 1.667 12.369-1.524l11.542 31.47c1.389 3.783 5.157 6.09 9.151 5.607 4-.481 7.109-3.613 7.562-7.617l1.849-16.399c3.419 1.201 7.371.436 10.076-2.194l5.298-5.152 1.688 7.193c.862 3.672 3.778 6.445 7.31 7.275z"/><path d="m419.771 411.549c-.734-3.017-3.046-5.417-6.036-6.265l-13.581-3.843.451-3.421c.407-3.081-.883-6.156-3.366-8.025-2.482-1.87-5.795-2.259-8.641-1.016l-.294.128 11.151-13.357c2.046-2.449 2.617-5.826 1.49-8.812s-3.787-5.144-6.941-5.631l-5.441-.84.158-18.367c.029-3.189-1.669-6.162-4.431-7.757s-6.184-1.58-8.932.038l-15.832 9.323-3.447-4.291c-2-2.489-5.203-3.715-8.348-3.197-3.15.518-5.789 2.701-6.886 5.695l-5.993 16.338-.035-.319c-.349-3.087-2.342-5.761-5.201-6.976-2.861-1.216-6.168-.794-8.632 1.098l-2.738 2.102-10.119-9.841c-2.228-2.165-5.462-2.969-8.442-2.094-2.98.873-5.271 3.293-5.977 6.31l-3.226 13.741-3.439-.297c-.001 0-.003 0-.003 0-3.104-.264-6.111 1.164-7.864 3.729-1.754 2.565-1.991 5.891-.622 8.674l19.001 38.697-.154.083c-3.145 1.69-5.021 4.956-4.898 8.523s2.221 6.697 5.474 8.165l17.858 8.066-10.114 17.518c-2.071 3.587-.842 8.174 2.745 10.245 3.592 2.073 8.177.838 10.245-2.745l10.114-17.518 15.914 11.432c2.888 2.076 6.643 2.342 9.809.659 3.151-1.678 5.041-4.936 4.932-8.502l-.005-.177 43.015-2.894c3.1-.208 5.86-2.079 7.203-4.88 1.343-2.802 1.072-6.125-.707-8.673l-1.976-2.83 10.282-9.661c2.262-2.125 3.213-5.319 2.479-8.335zm-26.334 10.164c-2.749 2.583-3.693 6.495-2.646 9.968l-37.634 2.532c-3.298.221-6.084 2.081-7.604 4.746l-10.461-7.515c-3.219-2.313-6.684-4.313-10.297-5.945l-11.74-5.303c1.549-2.649 1.767-5.991.311-8.957l-16.624-33.857c3.529-.83 6.446-3.604 7.309-7.275l1.688-7.194 5.297 5.151c2.704 2.63 6.654 3.397 10.077 2.195l1.849 16.4c.452 4.003 3.562 7.135 7.562 7.616 4.005.484 7.765-1.825 9.151-5.608l11.542-31.47c3.253 3.192 8.369 3.882 12.368 1.525l10.044-5.915-.101 11.655c-.04 4.644 3.115 8.728 7.506 9.949l-21.482 25.73c-2.582 3.092-2.699 7.504-.283 10.728 2.415 3.224 6.681 4.353 10.378 2.741l15.128-6.598c.67 3.563 3.309 6.603 6.938 7.629l7.11 2.012z"/><path d="m328 309.845v-24.417c0-3.197-1.245-6.102-3.263-8.281 9.465-14.022 19.319-35.461 8.587-54.19-10.648-18.583-33.46-15.964-41.118-14.478-9.536-5.93-20.715-4.772-28.706-2.594v-9.666h2.625c4.143 0 7.5-3.358 7.5-7.5s-3.357-7.5-7.5-7.5h-2.625v-5.75c0-4.142-3.357-7.5-7.5-7.5s-7.5 3.358-7.5 7.5v5.75h-2.625c-4.143 0-7.5 3.358-7.5 7.5s3.357 7.5 7.5 7.5h2.625v9.666c-7.992-2.177-19.171-3.335-28.707 2.595-7.659-1.486-30.471-4.104-41.118 14.478-10.731 18.728-.877 40.167 8.587 54.19-2.018 2.179-3.263 5.083-3.263 8.281v24.417c0 6.732 5.477 12.208 12.208 12.208h119.584c6.732 0 12.209-5.477 12.209-12.209zm-7.691-79.429c8.13 14.189-4.572 34.034-11.195 42.805h-10.206c5.699-12.477 12.81-33.75 5.214-50.745 5.879.184 12.705 1.864 16.187 7.94zm-32.998-6.632c11.342 12.716 1.211 37.941-5.131 49.436h-18.68v-51.572c5.773-2.172 17.287-5.178 23.811 2.136zm-38.811-2.145v51.581h-18.632c-4.529-8.446-17.495-35.627-5.178-49.436 6.552-7.348 18.035-4.334 23.81-2.145zm-56.809 8.777c3.498-6.104 10.32-7.784 16.197-7.96-7.611 16.998-.497 38.283 5.204 50.765h-10.207c-6.623-8.772-19.323-28.617-11.194-42.805zm121.309 76.638h-114v-18.834h114z"/><path d="m324.346 93c0-4.142-3.357-7.5-7.5-7.5h-121.692c-4.143 0-7.5 3.358-7.5 7.5s3.357 7.5 7.5 7.5h121.691c4.143 0 7.501-3.358 7.501-7.5z"/><path d="m70.229 512h371.54c16.768 0 30.408-13.641 30.408-30.407v-148.956c0-4.142-3.357-7.5-7.5-7.5s-7.5 3.358-7.5 7.5v148.956c0 8.496-6.912 15.407-15.408 15.407h-371.54c-8.495 0-15.407-6.912-15.407-15.407v-334.028h183.678c4.143 0 7.5-3.358 7.5-7.5s-3.357-7.5-7.5-7.5h-183.678v-69.016c0-8.496 6.912-15.407 15.407-15.407h16.016v2.802c0 4.142 3.357 7.5 7.5 7.5s7.5-3.358 7.5-7.5v-2.802h25.563v2.802c0 4.142 3.357 7.5 7.5 7.5s7.5-3.358 7.5-7.5v-2.802h25.564v2.802c0 4.142 3.357 7.5 7.5 7.5s7.5-3.358 7.5-7.5v-2.802h25.563v2.802c0 4.142 3.357 7.5 7.5 7.5s7.5-3.358 7.5-7.5v-2.802h25.565v2.802c0 4.142 3.357 7.5 7.5 7.5s7.5-3.358 7.5-7.5v-2.802h25.563v2.802c0 4.142 3.357 7.5 7.5 7.5s7.5-3.358 7.5-7.5v-2.802h25.563v2.802c0 4.142 3.357 7.5 7.5 7.5s7.5-3.358 7.5-7.5v-2.802h25.564v2.802c0 4.142 3.357 7.5 7.5 7.5s7.5-3.358 7.5-7.5v-2.802h25.563v2.802c0 4.142 3.357 7.5 7.5 7.5s7.5-3.358 7.5-7.5v-2.802h16.015c8.496 0 15.408 6.912 15.408 15.407v69.017h-183.676c-4.143 0-7.5 3.358-7.5 7.5s3.357 7.5 7.5 7.5h183.678v150.071c0 4.142 3.357 7.5 7.5 7.5s7.5-3.358 7.5-7.5c0-11.263 0-225.571 0-234.088 0-16.767-13.641-30.407-30.408-30.407h-16.015v-25.642c0-4.142-3.357-7.5-7.5-7.5s-7.5 3.358-7.5 7.5v25.642h-25.563v-25.642c0-4.142-3.357-7.5-7.5-7.5s-7.5 3.358-7.5 7.5v25.642h-25.564v-25.642c0-4.142-3.357-7.5-7.5-7.5s-7.5 3.358-7.5 7.5v25.642h-25.563v-25.642c0-4.142-3.357-7.5-7.5-7.5s-7.5 3.358-7.5 7.5v25.642h-25.565v-25.642c0-4.142-3.357-7.5-7.5-7.5s-7.5 3.358-7.5 7.5v25.642h-25.563v-25.642c0-4.142-3.357-7.5-7.5-7.5s-7.5 3.358-7.5 7.5v25.642h-25.563v-25.642c0-4.142-3.357-7.5-7.5-7.5s-7.5 3.358-7.5 7.5v25.642h-25.564v-25.642c0-4.142-3.357-7.5-7.5-7.5s-7.5 3.358-7.5 7.5v25.642h-25.563v-25.642c0-4.142-3.357-7.5-7.5-7.5s-7.5 3.358-7.5 7.5v25.642h-16.018c-16.767 0-30.407 13.641-30.407 30.407v418.044c0 16.766 13.641 30.407 30.407 30.407z"/></g></g></svg>