<svg id="Capa_1" enable-background="new 0 0 512 512" height="512" viewBox="0 0 512 512" width="512" xmlns="http://www.w3.org/2000/svg"><g><g><path d="m217.755 323.941-2.54 2.059-8.958 75.417 5.583 9 5.915.802c6.507-3.209 10.598-10.418 9.311-18.145z" fill="#f89696"/><path d="m217.755 9.253h-4.665l-7.656 12.663 9.406 70.833 2.915 3.781 9.311-69.133c1.287-7.726-2.803-14.934-9.311-18.144z" fill="#f89696"/><path d="m208.444 27.398c-1.287-7.727 2.804-14.935 9.311-18.145-2.265-1.117-4.821-1.753-7.547-1.753-10.56 0-18.593 9.481-16.858 19.898l13.459 99.932c.576 3.914 6.223 3.914 6.798 0l4.148-30.8z" fill="#ff7f87"/><path d="m208.444 393.074 9.311-69.133-4.148-30.8c-.576-3.914-6.223-3.914-6.798 0l-13.459 99.933c-1.735 10.417 6.298 19.898 16.858 19.898 2.727 0 5.282-.636 7.547-1.753-6.507-3.21-10.597-10.418-9.311-18.145z" fill="#ff7f87"/><path d="m159.892 312.481-3.229.513-45.466 60.834.335 10.586 4.722 3.652c7.24.474 14.387-3.723 17.136-11.058z" fill="#ffc365"/><path d="m317.235 39.954-4.04-2.333-12.962 7.139-27.271 66.046.634 4.732 42.63-55.215c4.978-6.048 5.04-14.336 1.009-20.369z" fill="#ffc365"/><path d="m300.099 51.012c2.749-7.335 9.896-11.532 17.136-11.058-1.403-2.1-3.298-3.929-5.659-5.292-9.145-5.28-20.843-1.085-24.549 8.803l-38.31 93.274c-1.459 3.678 3.432 6.501 5.888 3.399l18.992-24.599z" fill="#ffa90f"/><path d="m117.262 367.696 42.63-55.215 11.807-28.747c1.458-3.678-3.432-6.501-5.888-3.399l-61.622 79.815c-6.71 8.154-4.494 20.381 4.651 25.661 2.361 1.363 4.893 2.09 7.413 2.255-4.031-6.033-3.969-14.321 1.009-20.37z" fill="#ffa90f"/><path d="m115.51 273.625-3.053-1.17-69.792 29.95-5.003 9.335 2.263 5.524c6.033 4.031 14.321 3.969 20.369-1.009z" fill="#ff636e"/><path d="m388.038 116.281-2.333-4.04-14.795-.298-56.641 43.562-1.817 4.415 64.526-26.503c7.336-2.749 11.534-9.896 11.06-17.136z" fill="#ff636e"/><path d="m367.668 117.29c6.048-4.978 14.336-5.04 20.369-1.009-.165-2.52-.892-5.052-2.255-7.413-5.28-9.145-17.508-11.361-25.662-4.651l-79.814 61.622c-3.102 2.456-.279 7.346 3.399 5.888l28.747-11.807z" fill="#ff4654"/><path d="m50.984 300.128 64.526-26.503 24.599-18.992c3.102-2.456.279-7.346-3.399-5.888l-93.274 38.31c-9.888 3.706-14.083 15.404-8.803 24.549 1.363 2.361 3.192 4.256 5.292 5.66-.474-7.241 3.724-14.387 11.059-17.136z" fill="#ff4654"/><path d="m273.597 304.934-1.17 3.053 29.95 69.792 9.335 5.003 5.524-2.263c4.031-6.033 3.969-14.321-1.009-20.369z" fill="#ff636e"/><path d="m116.253 32.406-4.04 2.333-.298 14.795 43.562 56.641 4.415 1.817-26.503-64.526c-2.749-7.337-9.896-11.534-17.136-11.06z" fill="#ff636e"/><path d="m117.262 52.776c-4.978-6.048-5.04-14.336-1.009-20.369-2.52.165-5.052.892-7.413 2.255-9.145 5.28-11.361 17.508-4.651 25.662l61.622 79.814c2.456 3.102 7.346.279 5.888-3.399l-11.807-28.747z" fill="#ff4654"/><path d="m300.1 369.46-26.503-64.526-18.992-24.599c-2.456-3.102-7.346-.279-5.888 3.399l38.31 93.274c3.706 9.888 15.403 14.083 24.549 8.803 2.361-1.363 4.256-3.192 5.66-5.292-7.241.473-14.387-3.724-17.136-11.059z" fill="#ff4654"/><path d="m312.453 260.552.513 3.229 60.834 45.466 10.586-.335 3.652-4.722c.474-7.24-3.723-14.387-11.058-17.136z" fill="#ffc365"/><path d="m39.926 103.208-2.333 4.04 7.139 12.962 66.046 27.271 4.732-.634-55.215-42.63c-6.048-4.978-14.336-5.039-20.369-1.009z" fill="#ffc365"/><path d="m50.984 120.344c-7.335-2.749-11.532-9.896-11.058-17.136-2.1 1.403-3.929 3.298-5.292 5.66-5.28 9.145-1.085 20.843 8.803 24.549l93.274 38.31c3.678 1.459 6.501-3.432 3.399-5.888l-24.599-18.992z" fill="#ffa90f"/><path d="m367.668 303.182-55.215-42.63-28.748-11.807c-3.678-1.458-6.501 3.432-3.399 5.888l79.815 61.622c8.154 6.71 20.381 4.494 25.661-4.651 1.363-2.361 2.09-4.893 2.255-7.413-6.032 4.031-14.32 3.969-20.369-1.009z" fill="#ffa90f"/><path d="m323.913 202.688 2.059 2.54 75.417 8.958 9-5.583.802-5.915c-3.209-6.507-10.418-10.598-18.145-9.311z" fill="#f89696"/><path d="m9.226 202.688v4.665l12.663 7.656 70.833-9.406 3.781-2.915-69.133-9.311c-7.727-1.286-14.935 2.804-18.144 9.311z" fill="#f89696"/><path d="m27.37 211.999c-7.727 1.287-14.935-2.804-18.145-9.311-1.117 2.265-1.753 4.821-1.753 7.547 0 10.56 9.481 18.593 19.898 16.858l99.932-13.459c3.914-.576 3.914-6.223 0-6.798l-30.8-4.148z" fill="#ff7f87"/><path d="m393.046 211.999-69.133-9.311-30.8 4.148c-3.914.576-3.914 6.223 0 6.798l99.933 13.459c10.417 1.735 19.898-6.298 19.898-16.858 0-2.727-.636-5.282-1.753-7.547-3.21 6.508-10.418 10.598-18.145 9.311z" fill="#ff7f87"/><g><path d="m261.724 215.196-5.54-2.591c-.78-.365-1.175-1.248-.926-2.072l4.126-13.678c.195-.645-.389-1.256-1.043-1.09l-13.85 3.505c-.835.211-1.699-.222-2.029-1.018l-2.339-5.651c-.258-.623-1.098-.726-1.498-.183l-12.388 16.781c-.551.746-1.733.241-1.574-.673l5.813-33.447c.139-.802-.65-1.449-1.409-1.154l-6.879 2.671c-.969.376-2.068-.016-2.58-.92l-8.491-15.004c-.228-.403-.655-.568-1.056-.512l-.765 2.206-1.996 46.712-5.875 3.536-6.279-3.108c-.329.106-.716.037-.97-.308l-12.388-16.781c-.401-.543-1.24-.44-1.498.183l-2.339 5.651c-.33.796-1.193 1.23-2.029 1.018l-6.543-1.656v2.823l39.09 40.809 4.127 2.04c.533.032 1.065.066 1.596.119l17.275 1.722c1.145.114 1.923-1.133 1.318-2.112l-2.217-3.584c-.429-.693-.232-1.602.445-2.057l30.825-20.673c.562-.375.497-1.218-.114-1.504z" fill="#ff636e"/><g fill="#ff4654"><path d="m169.38 197.612-7.307-1.849c-.653-.165-1.237.445-1.043 1.09l4.126 13.678c.249.825-.146 1.708-.926 2.072l-5.539 2.591c-.611.286-.676 1.129-.116 1.505l30.825 20.673c.677.454.874 1.363.445 2.057l-2.217 3.584c-.605.978.174 2.226 1.318 2.112l17.275-1.722c2.119-.211 4.25-.246 6.375-.119z"/><path d="m209.298 160.67-8.491 15.004c-.512.905-1.611 1.297-2.58.92l-6.879-2.671c-.759-.295-1.548.352-1.409 1.154l5.813 33.447c.086.492-.22.857-.604.981l3.664 3.624c3.743 3.703 10.1 1.128 10.212-4.136l1.039-48.835c-.304.042-.593.207-.765.512z"/></g></g></g><g><path d="m173.393 189.735-.432 1.043-9.016-2.281c-2.917-.737-6.02.155-8.099 2.33-2.08 2.174-2.832 5.315-1.964 8.198l2.686 8.902-1.023.479c-2.729 1.277-4.566 3.937-4.796 6.941s1.184 5.912 3.683 7.586l26.144 17.533c-1.041 2.603-.798 5.547.727 7.988 1.644 2.631 4.467 4.181 7.518 4.181.299 0 .6-.015.902-.045l13.014-1.297v10.564c0 4.142 3.357 7.5 7.5 7.5s7.5-3.358 7.5-7.5v-10.564l13.014 1.298c3.382.341 6.616-1.246 8.421-4.135 1.524-2.44 1.768-5.384.726-7.987l26.141-17.532c2.503-1.676 3.916-4.584 3.687-7.588s-2.067-5.664-4.796-6.941h-.002l-1.021-.478 2.686-8.905c.868-2.881.116-6.021-1.964-8.196-2.078-2.174-5.178-3.066-8.099-2.33l-9.016 2.281-.432-1.042c-1.15-2.781-3.722-4.737-6.709-5.105-1.371-.167-2.744.009-3.999.488l1.521-8.749c.528-3.031-.622-6.125-3.002-8.076s-5.639-2.471-8.512-1.357l-2.518.978-6.19-10.939c-1.515-2.671-4.363-4.33-7.434-4.33s-5.92 1.659-7.438 4.337l-6.187 10.932-2.519-.978c-2.867-1.114-6.127-.596-8.509 1.355-2.381 1.95-3.532 5.045-3.005 8.074l1.521 8.75c-1.255-.477-2.628-.654-3.999-.487-2.989.368-5.56 2.324-6.71 5.104zm8.421 15.306 6.36 8.616c2.319 3.14 6.449 4.26 10.036 2.724 3.589-1.536 5.628-5.294 4.959-9.138l-3.999-23.01c3.311-.067 6.487-1.847 8.191-4.859l2.873-5.078 2.873 5.076c1.704 3.013 4.883 4.793 8.192 4.86l-3.998 23.008c-.67 3.846 1.369 7.604 4.958 9.14 3.589 1.537 7.718.417 10.039-2.727l6.357-8.613c2.162 1.567 4.972 2.193 7.699 1.502l2.486-.629-.74 2.454c-.812 2.691-.316 5.528 1.153 7.76l-22.395 15.019c-2.029 1.361-3.333 3.392-3.805 5.601l-8.092-.807c-3.14-.314-6.32-.312-9.458 0l-8.092.807c-.472-2.209-1.776-4.239-3.806-5.602l-22.393-15.018c1.469-2.232 1.965-5.069 1.153-7.759l-.741-2.456 2.485.629c2.732.692 5.542.068 7.705-1.5z"/><path d="m210.235 420.472c15.132 0 26.689-13.553 24.277-28.504l-13.458-99.917c-.795-5.415-5.346-9.345-10.818-9.345-5.474 0-10.024 3.93-10.832 9.435l-13.445 99.826c-2.409 14.935 9.129 28.505 24.276 28.505zm-9.459-26.166c.013-.077.024-.154.034-.231l9.425-69.982 9.426 69.982c.01.078.021.155.034.231.975 5.844-3.537 11.166-9.46 11.166-5.925 0-10.433-5.325-9.459-11.166z"/><path d="m159.959 144.792c3.395 4.29 9.301 5.422 14.042 2.684 4.74-2.737 6.715-8.416 4.663-13.587l-38.269-93.174c-5.383-14.145-22.164-20.12-35.277-12.548-13.101 7.563-16.338 25.08-6.772 36.823zm-47.341-103.635c5.135-2.965 11.698-.604 13.775 4.94.027.073.057.146.086.218l26.828 65.319-43.154-55.894c-.048-.062-.096-.123-.146-.183-3.766-4.576-2.516-11.441 2.611-14.4z"/><path d="m246.471 272.996c-4.74 2.737-6.715 8.416-4.663 13.587l38.27 93.176c5.392 14.165 22.184 20.106 35.276 12.547 13.101-7.563 16.338-25.079 6.771-36.825l-61.612-79.801c-3.396-4.291-9.301-5.421-14.042-2.684zm63.846 91.736c.048.062.096.123.146.183 3.768 4.579 2.518 11.44-2.609 14.4-5.135 2.964-11.697.603-13.776-4.94-.026-.073-.056-.145-.085-.217l-26.828-65.318z"/><path d="m40.714 140.395 93.26 38.304c5.082 2.017 10.763.045 13.502-4.697 2.736-4.739 1.608-10.645-2.755-14.099l-79.73-61.557c-11.734-9.554-29.252-6.345-36.825 6.772-7.564 13.101-1.608 29.889 12.548 35.277zm.442-27.777c2.963-5.132 9.829-6.371 14.401-2.609.06.049.121.098.183.146l55.896 43.155-65.321-26.83c-.072-.03-.145-.058-.218-.085-5.551-2.081-7.901-8.649-4.941-13.777z"/><path d="m379.758 280.077-93.26-38.304c-5.087-2.018-10.765-.041-13.502 4.698-2.736 4.739-1.608 10.645 2.755 14.098l79.73 61.558c11.69 9.52 29.221 6.396 36.824-6.772 7.564-13.101 1.61-29.889-12.547-35.278zm-.443 27.777c-2.964 5.133-9.827 6.371-14.401 2.609-.06-.049-.121-.098-.183-.146l-55.896-43.155 65.321 26.83c.072.03.145.058.218.085 5.551 2.082 7.901 8.65 4.941 13.777z"/><path d="m292.049 199.417c-5.414.796-9.344 5.346-9.344 10.819s3.929 10.023 9.435 10.833l99.828 13.445c14.937 2.406 28.504-9.13 28.504-24.277 0-15.133-13.55-26.683-28.504-24.277zm102.256 1.358c5.861-.97 11.167 3.548 11.167 9.46 0 5.939-5.336 10.427-11.166 9.46-.077-.013-.154-.024-.231-.035l-69.984-9.425 69.984-9.426c.076-.009.154-.02.23-.034z"/><path d="m133.889 241.807-93.175 38.27c-14.14 5.382-20.122 22.16-12.548 35.277 7.63 13.216 25.172 16.262 36.824 6.772l79.803-61.614c4.291-3.397 5.419-9.303 2.683-14.042-2.738-4.739-8.419-6.715-13.587-4.663zm-78.149 68.511c-.062.047-.123.096-.183.146-4.575 3.764-11.439 2.521-14.401-2.609-2.964-5.134-.604-11.698 4.94-13.776.073-.027.146-.056.218-.085l65.321-26.83z"/><path d="m272.997 174.002c2.74 4.746 8.424 6.712 13.586 4.663l93.175-38.27c14.139-5.381 20.122-22.157 12.548-35.276-7.566-13.104-25.08-16.338-36.824-6.772l-79.804 61.614c-4.29 3.396-5.418 9.302-2.681 14.041zm91.734-63.848c.062-.047.123-.096.183-.146 4.589-3.777 11.448-2.506 14.401 2.609 2.964 5.134.603 11.698-4.94 13.776-.073.027-.146.056-.218.085l-65.321 26.83z"/><path d="m105.118 392.306c13.105 7.566 29.892 1.602 35.277-12.548l38.303-93.259c2.018-5.087.043-10.766-4.697-13.503-4.739-2.736-10.646-1.609-14.098 2.755l-61.559 79.73c-9.552 11.732-6.343 29.251 6.774 36.825zm4.89-27.391c.05-.06.098-.121.146-.182l43.154-55.895-26.828 65.32c-.029.072-.059.145-.085.217-2.082 5.55-8.649 7.901-13.776 4.94-5.133-2.963-6.374-9.828-2.611-14.4z"/><path d="m246.471 147.476c4.741 2.737 10.647 1.607 14.098-2.755l61.558-79.73c9.554-11.731 6.345-29.251-6.772-36.824-13.102-7.565-29.89-1.608-35.277 12.548l-38.303 93.258c-2.019 5.087-.045 10.766 4.696 13.503zm47.521-101.162c.029-.072.059-.145.086-.218 2.076-5.541 8.638-7.904 13.775-4.94 5.134 2.963 6.372 9.828 2.609 14.4-.049.06-.098.121-.146.183l-43.152 55.894z"/><path d="m431.376 395.606c4.143 0 7.5-3.358 7.5-7.5v-29.855c0-4.142-3.357-7.5-7.5-7.5s-7.5 3.358-7.5 7.5v29.855c0 4.143 3.357 7.5 7.5 7.5z"/><path d="m438.876 504.5v-29.855c0-4.142-3.357-7.5-7.5-7.5s-7.5 3.358-7.5 7.5v29.855c0 4.142 3.357 7.5 7.5 7.5s7.5-3.358 7.5-7.5z"/><path d="m406.084 395.477-21.111-21.111c-2.93-2.929-7.678-2.929-10.607 0s-2.929 7.678 0 10.606l21.111 21.111c2.93 2.929 7.678 2.929 10.607 0s2.929-7.678 0-10.606z"/><path d="m477.778 488.386c2.929 2.929 7.677 2.929 10.607 0 2.929-2.929 2.929-7.678 0-10.606l-21.11-21.111c-2.929-2.929-7.677-2.93-10.607 0-2.929 2.929-2.929 7.678 0 10.606z"/><path d="m395.606 431.376c0-4.142-3.357-7.5-7.5-7.5h-29.854c-4.143 0-7.5 3.358-7.5 7.5s3.357 7.5 7.5 7.5h29.854c4.143 0 7.5-3.358 7.5-7.5z"/><path d="m467.145 431.376c0 4.142 3.357 7.5 7.5 7.5h29.855c4.143 0 7.5-3.358 7.5-7.5s-3.357-7.5-7.5-7.5h-29.855c-4.143 0-7.5 3.358-7.5 7.5z"/><path d="m384.973 488.386 21.111-21.111c2.929-2.929 2.929-7.678 0-10.606-2.93-2.929-7.678-2.93-10.607 0l-21.111 21.111c-2.929 2.929-2.929 7.678 0 10.606 2.928 2.929 7.676 2.929 10.607 0z"/><path d="m467.275 406.083 21.11-21.111c2.929-2.929 2.929-7.678 0-10.606-2.93-2.929-7.678-2.929-10.607 0l-21.11 21.111c-2.929 2.929-2.929 7.678 0 10.606 2.93 2.929 7.678 2.929 10.607 0z"/><path d="m414.397 431.376c0 4.142 3.357 7.5 7.5 7.5h1.979v1.979c0 4.142 3.357 7.5 7.5 7.5s7.5-3.358 7.5-7.5v-1.979h1.979c4.143 0 7.5-3.358 7.5-7.5s-3.357-7.5-7.5-7.5h-1.979v-1.979c0-4.142-3.357-7.5-7.5-7.5s-7.5 3.358-7.5 7.5v1.979h-1.979c-4.142 0-7.5 3.358-7.5 7.5z"/><path d="m28.505 234.513 15.96-2.149c4.105-.553 6.984-4.329 6.432-8.434s-4.331-6.98-8.434-6.432l-16.065 2.164c-.077.011-.154.022-.231.035-5.83.975-11.166-3.528-11.166-9.46 0-5.923 5.32-10.434 11.166-9.46.077.013.154.024.231.035l69.982 9.425-18.917 2.548c-4.105.553-6.984 4.329-6.432 8.434.553 4.106 4.343 6.982 8.434 6.432l48.955-6.595c5.415-.796 9.346-5.346 9.347-10.818 0-5.473-3.93-10.024-9.436-10.833l-99.825-13.444c-14.943-2.408-28.506 9.13-28.506 24.275 0 15.138 13.555 26.683 28.505 24.277z"/><path d="m199.417 128.421c.795 5.415 5.346 9.346 10.819 9.346s10.023-3.931 10.831-9.435l6.962-51.689c.553-4.105-2.326-7.881-6.432-8.434-4.104-.545-7.881 2.326-8.434 6.432l-2.928 21.739-9.426-69.982c-.01-.078-.021-.154-.034-.231-.974-5.847 3.54-11.167 9.461-11.167 5.927 0 10.433 5.327 9.459 11.166-.013.077-.024.154-.034.231l-1.783 13.243c-.553 4.105 2.327 7.881 6.432 8.434 4.099.546 7.881-2.327 8.434-6.432l1.77-13.139c2.407-14.933-9.131-28.503-24.279-28.503-15.128 0-26.688 13.551-24.276 28.505z"/></g></g></svg>