<svg id="Capa_1" enable-background="new 0 0 512 512" height="512" viewBox="0 0 512 512" width="512" xmlns="http://www.w3.org/2000/svg"><g><g><path d="m443.472 87.45h-332.579l-8.018 7.407v233l8.018 8.26h332.579l5.762-6.76v-236.144z" fill="#dbedff"/><path d="m110.893 87.45h-42.421l-7.882 7.407v234l7.882 7.26h42.421z" fill="#b5dcff"/><path d="m474.965 76.107h-16.243v372.75h15.035l5.715-6.073v-363.673z" fill="#dd8858"/><path d="m461.472 76.107h-14.507l-3.493 3.004v363.673l5.762 6.073h12.238z" fill="#cb6c35"/><path d="m492.472 442.784h-25.661l-8.089 7.406v50.333l5.465 3.976h33.533c3.729 0 6.752-3.023 6.752-6.752v-42.964c0-6.599-5.4-11.999-12-11.999z" fill="#dbedff"/><path d="m461.472 497.748v-42.964c0-6.6 5.4-12 12-12h-43c-6.6 0-12 5.4-12 12v42.964c0 3.729 3.023 6.752 6.752 6.752h43c-3.729 0-6.752-3.023-6.752-6.752z" fill="#b5dcff"/><path d="m239.095 185.317c.416-.846-.252-1.821-1.191-1.74l-8.513.734c-1.199.103-2.293-.689-2.568-1.861l-4.563-19.432c-.215-.916-1.348-1.248-2.023-.591l-14.31 13.916c-.863.839-2.211.918-3.166.185l-6.777-5.203c-.748-.574-1.835-.112-1.941.825l-3.266 28.958c-.145 1.288-1.928 1.502-2.375.285l-16.332-44.53c-.392-1.068-1.799-1.299-2.511-.412l-6.457 8.038c-.91 1.132-2.513 1.426-3.764.689l-20.755-12.222c-.979-.577-2.213.136-2.203 1.272l.146 16.934 2.091 7.658 51.927 73.772 3.262 1.678c2.026-1.246 4.122-2.378 6.293-3.358l22.104-9.984c1.465-.661 1.535-2.715.12-3.476l-5.186-2.788c-1.003-.54-1.401-1.776-.898-2.799z" fill="#ff636e"/><path d="m193.806 254.269-57.28-83.108.062 7.152c.013 1.452-1.043 2.694-2.479 2.916l-10.19 1.573c-1.124.173-1.627 1.508-.899 2.381l30.398 36.409c.831.995-.246 2.432-1.435 1.914l-26.711-11.651c-.864-.377-1.808.334-1.685 1.268l1.118 8.471c.157 1.193-.585 2.321-1.743 2.649l-19.206 5.435c-.906.256-1.186 1.403-.5 2.048l14.547 13.668c.877.824 1.017 2.167.328 3.154l-4.892 7.005c-.54.773-.028 1.838.911 1.902l51.739 3.48c1.137.077 2.009 1.039 1.975 2.178l-.179 5.885c-.049 1.606 1.765 2.572 3.07 1.634l19.699-14.151c1.089-.784 2.213-1.511 3.352-2.212z" fill="#ff4654"/><path d="m408.687 231.725c.686-.645.406-1.791-.5-2.048l-19.207-5.435c-1.158-.328-1.901-1.456-1.743-2.649l1.118-8.471c.123-.934-.821-1.645-1.685-1.268l-26.711 11.651c-1.189.518-2.266-.919-1.435-1.914l30.398-36.409c.729-.873.225-2.207-.899-2.381l-10.19-1.573c-1.436-.222-2.491-1.463-2.479-2.916l.208-24.086c.01-1.136-1.224-1.848-2.203-1.272l-4.216 2.482-4.667 4.556-49.786 88.151.527 4.446c2.17 1.161 4.269 2.451 6.27 3.888l19.698 14.151c1.305.938 3.119-.028 3.07-1.634l-.179-5.885c-.035-1.139.838-2.101 1.975-2.178l51.739-3.48c.94-.063 1.451-1.129.911-1.902l-4.892-7.005c-.689-.987-.55-2.33.328-3.154z" fill="#ff636e"/><path d="m352.605 165.177c-1.252.737-2.854.444-3.764-.689l-6.457-8.038c-.712-.887-2.12-.656-2.511.412l-16.332 44.53c-.446 1.217-2.229 1.003-2.375-.285l-3.266-28.958c-.106-.937-1.193-1.399-1.941-.825l-6.777 5.203c-.955.733-2.303.655-3.166-.185l-14.31-13.916c-.675-.657-1.808-.325-2.023.591l-4.563 19.432c-.275 1.172-1.369 1.964-2.568 1.861l-8.513-.734c-.939-.081-1.607.894-1.191 1.74l22.855 46.547c.502 1.023.105 2.26-.898 2.799l-5.186 2.787c-1.415.761-1.345 2.815.12 3.476l22.104 9.984c1.146.518 2.267 1.087 3.375 1.68l53.926-97.153z" fill="#ff4654"/><path d="m480.505 12.605h-5.581l-13.452 13.085-2.75 15.333v14l8.535 17.5 7.708 3.583 4.951 2.757c11.699-6.495 19.621-18.969 19.621-33.299 0-14.085-7.658-26.376-19.032-32.959z" fill="#ffc365"/><path d="m461.472 45.565c0-14.087 7.658-26.378 19.033-32.96-5.6-3.241-12.097-5.105-19.033-5.105-21.023 0-38.066 17.042-38.066 38.065s17.043 38.066 38.066 38.066c6.936 0 13.432-1.864 19.033-5.105-11.375-6.583-19.033-18.873-19.033-32.961z" fill="#ffb640"/><path d="m63.965 76.107h-16.243v372.75h15.035l5.715-6.073v-363.673z" fill="#dd8858"/><path d="m50.472 76.107h-14.507l-3.493 3.004v363.673l5.762 6.073h12.238z" fill="#cb6c35"/><path d="m81.472 442.784h-25.661l-8.089 7.406v50.333l5.465 3.976h33.533c3.729 0 6.752-3.023 6.752-6.752v-42.964c0-6.599-5.4-11.999-12-11.999z" fill="#dbedff"/><path d="m50.472 497.748v-42.964c0-6.6 5.4-12 12-12h-43c-6.6 0-12 5.4-12 12v42.964c0 3.729 3.023 6.752 6.752 6.752h43c-3.729 0-6.752-3.023-6.752-6.752z" fill="#b5dcff"/><path d="m69.505 12.605h-5.581l-13.452 13.085-2.75 15.333v14l8.535 17.5 7.708 3.583 4.951 2.757c11.699-6.495 19.621-18.969 19.621-33.299 0-14.085-7.658-26.376-19.032-32.959z" fill="#ffc365"/><path d="m50.472 45.565c0-14.087 7.658-26.378 19.033-32.96-5.601-3.241-12.097-5.105-19.033-5.105-21.023 0-38.066 17.042-38.066 38.065s17.043 38.066 38.066 38.066c6.936 0 13.432-1.864 19.033-5.105-11.375-6.583-19.033-18.873-19.033-32.961z" fill="#ffb640"/></g><g><path d="m492.5 435.284h-5.5v-155.857c0-4.142-3.357-7.5-7.5-7.5s-7.5 3.358-7.5 7.5v155.857h-21c0-16.482 0-328.905 0-345.38 6.703 1.593 13.969 1.671 21 0v154.523c0 4.142 3.357 7.5 7.5 7.5s7.5-3.358 7.5-7.5v-161.118c12.099-8.2 20.065-22.059 20.065-37.743 0-25.126-20.44-45.566-45.565-45.566s-45.565 20.44-45.565 45.565c0 13.715 6.099 26.024 15.718 34.385h-158.154c-4.143 0-7.5 3.358-7.5 7.5s3.357 7.5 7.5 7.5h162.501v233.667h-360v-233.667h162.499c4.143 0 7.5-3.358 7.5-7.5s-3.357-7.5-7.5-7.5h-158.152c9.619-8.36 15.718-20.67 15.718-34.385 0-25.125-20.44-45.565-45.565-45.565s-45.565 20.44-45.565 45.565c0 15.685 7.967 29.543 20.065 37.743v351.975h-5.5c-10.752 0-19.5 8.748-19.5 19.5v42.964c0 7.859 6.394 14.253 14.252 14.253h72.495c7.859 0 14.253-6.394 14.253-14.252v-42.964c0-10.752-8.748-19.5-19.5-19.5h-5.5v-91.667h360v91.667h-5.5c-10.752 0-19.5 8.748-19.5 19.5v42.964c0 7.858 6.394 14.252 14.252 14.252h72.495c7.859 0 14.253-6.394 14.253-14.252v-42.964c0-10.753-8.748-19.5-19.5-19.5zm-442-420.284c16.854 0 30.565 13.711 30.565 30.565 0 16.801-13.651 30.512-30.479 30.563-.029 0-.057.002-.086.002s-.058-.002-.087-.002c-16.888-.052-30.479-13.831-30.479-30.563.001-16.854 13.712-30.565 30.566-30.565zm35.5 439.784v42.216h-71v-42.216c0-2.439 2.061-4.5 4.5-4.5h62c2.439 0 4.5 2.06 4.5 4.5zm-46-19.5v-345.38c6.726 1.587 13.998 1.663 21 0v345.38zm421.5-420.284c16.854 0 30.565 13.711 30.565 30.565 0 16.907-13.755 30.512-30.479 30.563-.029 0-.057.002-.086.002s-.058-.002-.086-.002c-16.813-.052-30.479-13.748-30.479-30.563 0-16.854 13.711-30.565 30.565-30.565zm35.5 482h-71v-42.216c0-2.439 2.061-4.5 4.5-4.5h62c2.439 0 4.5 2.061 4.5 4.5z"/><path d="m245.225 179.864c-1.771-2.587-4.815-4.019-7.934-3.76h-.004l-4.138.357-3.56-15.155c-.715-3.051-3.027-5.492-6.035-6.372-3.007-.879-6.271-.069-8.518 2.116l-11.163 10.855-3.292-2.527c-2.487-1.912-5.825-2.338-8.713-1.111-2.888 1.226-4.899 3.925-5.251 7.042l-.29 2.571-7.188-19.599c-1.11-3.03-3.779-5.236-6.963-5.758-3.19-.523-6.417.717-8.436 3.231l-3.979 4.953-17.346-10.214c-2.776-1.636-6.236-1.65-9.027-.039s-4.508 4.615-4.48 7.838l.174 20.127-6.282.97c-3.188.493-5.875 2.675-7.014 5.693s-.562 6.431 1.506 8.906l13.38 16.025-2.37-1.034c-2.874-1.255-6.217-.863-8.722 1.022-2.507 1.886-3.81 4.989-3.399 8.1l.543 4.119-14.98 4.239c-3.016.853-5.351 3.274-6.093 6.319-.742 3.044.217 6.268 2.499 8.411l11.348 10.662-2.378 3.404c-1.797 2.572-2.07 5.926-.714 8.755 1.355 2.829 4.143 4.716 7.271 4.925l46.562 3.132-.021.7c-.11 3.617 1.806 6.92 5.001 8.62 1.404.747 2.928 1.117 4.442 1.116 1.933 0 3.854-.6 5.499-1.783l17.514-12.583 11.121 19.263c1.389 2.406 3.91 3.751 6.502 3.751 1.272 0 2.562-.324 3.743-1.006 3.587-2.071 4.816-6.658 2.745-10.245l-11.122-19.264 19.654-8.876c3.298-1.489 5.424-4.661 5.549-8.277s-1.777-6.927-4.965-8.64l-.616-.332 20.57-41.893c1.382-2.812 1.14-6.168-.63-8.754zm-35.69 48.695c-1.57 3.199-1.222 6.83.628 9.589l-13.123 5.927c-3.834 1.731-7.513 3.855-10.934 6.312l-11.695 8.402c-1.465-2.982-4.435-5.099-7.99-5.339l-40.98-2.756c1.39-3.678.491-7.982-2.473-10.768l-6.448-6.059 8.514-2.409c3.915-1.107 6.694-4.517 7.153-8.419l16.829 7.34c3.726 1.624 8.034.489 10.474-2.767 2.438-3.254 2.321-7.707-.285-10.829l-23.551-28.208c4.891-.939 8.503-5.311 8.463-10.329l-.117-13.414 11.562 6.809c4.317 2.541 9.912 1.601 13.174-2.166l12.652 34.499c1.4 3.819 5.204 6.144 9.236 5.662 4.038-.485 7.177-3.646 7.634-7.689l2.057-18.243c3.608 1.551 7.951.849 10.868-1.985l6.344-6.169 2.021 8.609c.928 3.962 4.207 6.895 8.089 7.531z"/><path d="m378.61 146.454c-2.79-1.611-6.25-1.598-9.028.039l-17.345 10.214-3.98-4.955c-2.02-2.514-5.249-3.75-8.438-3.229-3.183.523-5.85 2.729-6.96 5.757l-7.188 19.6-.29-2.57c-.352-3.118-2.363-5.816-5.251-7.042-2.887-1.227-6.226-.8-8.71 1.108l-3.295 2.53-11.166-10.858c-2.247-2.183-5.516-2.992-8.518-2.111-3.006.88-5.317 3.322-6.032 6.369l-3.559 15.158-4.139-.357h-.004c-3.115-.26-6.162 1.172-7.934 3.76-1.771 2.586-2.013 5.942-.631 8.759l20.569 41.89-.617.332c-3.187 1.713-5.089 5.024-4.964 8.64s2.251 6.788 5.549 8.277l19.654 8.877-11.122 19.263c-2.071 3.587-.842 8.174 2.745 10.245 1.181.682 2.471 1.006 3.743 1.006 2.592 0 5.113-1.345 6.502-3.751l11.122-19.263 17.514 12.582c1.647 1.183 3.567 1.783 5.5 1.783 1.516 0 3.039-.37 4.442-1.117 3.194-1.7 5.11-5.003 5-8.619l-.021-.7 46.561-3.131c3.13-.21 5.917-2.097 7.272-4.926 1.356-2.829 1.083-6.183-.713-8.753l-2.379-3.406 11.351-10.663c2.282-2.146 3.238-5.369 2.495-8.413-.743-3.043-3.077-5.463-6.091-6.316l-14.981-4.239.542-4.112c.413-3.11-.887-6.215-3.393-8.103-2.505-1.888-5.848-2.281-8.726-1.027l-2.371 1.035 13.376-16.021c2.069-2.476 2.648-5.889 1.51-8.908-1.138-3.02-3.826-5.202-7.018-5.695l-6.278-.97.173-20.128c.03-3.227-1.687-6.23-4.478-7.841zm8.357 85.005 8.514 2.409-6.45 6.06c-2.963 2.785-3.861 7.09-2.473 10.767l-40.98 2.756c-3.555.24-6.523 2.356-7.989 5.339l-11.696-8.402c-3.42-2.457-7.099-4.581-10.933-6.312l-13.122-5.927c1.852-2.76 2.199-6.392.627-9.589l-18.104-36.868c3.88-.636 7.159-3.567 8.09-7.526l2.022-8.613 6.345 6.17c2.914 2.833 7.255 3.534 10.866 1.982l2.058 18.245c.456 4.042 3.595 7.203 7.633 7.688 4.03.483 7.835-1.843 9.235-5.661l12.653-34.5c3.26 3.768 8.854 4.708 13.176 2.165l11.561-6.808-.115 13.415c-.044 5.016 3.57 9.391 8.463 10.329l-23.552 28.208c-2.605 3.122-2.723 7.575-.284 10.829s6.746 4.391 10.476 2.766l16.827-7.34c.458 3.903 3.239 7.311 7.152 8.418z"/></g></g></svg>