<svg id="Capa_1" enable-background="new 0 0 512.006 512.006" height="512" viewBox="0 0 512.006 512.006" width="512" xmlns="http://www.w3.org/2000/svg"><g><g><path d="m120.766 200.163-12.172 19.444-4.25 53.25 7.75 38.145 50.667 49.093v-165.571l-9.497-7.393c-11.343 2.385-22.353 6.736-32.498 13.032z" fill="#ff636e"/><path d="m127.094 311.357c-29.902-37.993-14.51-87.37-2.757-113.306-7.835 4.426-15.212 9.961-21.886 16.634-39.659 39.659-39.659 103.958 0 143.617l50.813 50.813 9.497-8.76v-47.962c-13.785-14.906-26.286-29.116-35.667-41.036z" fill="#ff4654"/><path d="m409.5 214.686c-14.459-14.458-32.193-23.639-50.813-27.556l-14.593 8.393v202.02l14.593 11.573 50.813-50.813c39.659-39.659 39.659-103.958 0-143.617z" fill="#ff636e"/><path d="m283.609 477.19h7.004l68.074-68.074v-221.986c-32.455-6.826-67.604 2.355-92.804 27.555-5.472 5.472-14.343 5.472-19.815 0-25.2-25.2-60.349-34.381-92.804-27.555v163.763z" fill="#dbedff"/><path d="m276.094 466.357s-73.583-69.784-122.83-124.354v67.113l90.202 90.202c6.909 6.909 18.11 6.909 25.019 0l24.799-24.799c-9.778-1.837-17.19-8.162-17.19-8.162z" fill="#b5dcff"/><path d="m327.933 343.593-7.738-3.62c-1.09-.51-1.641-1.743-1.293-2.895l5.763-19.106c.272-.901-.544-1.754-1.456-1.523l-19.346 4.895c-1.167.295-2.373-.311-2.833-1.423l-3.267-7.893c-.36-.871-1.533-1.014-2.093-.256l-17.303 23.44c-.77 1.043-2.421.337-2.199-.94l8.119-46.719c.195-1.12-.908-2.024-1.968-1.612l-9.609 3.731c-1.354.526-2.888-.022-3.603-1.285l-11.861-20.957c-.318-.563-.915-.794-1.475-.716l-1.068 3.081-2.788 65.248-8.206 4.939-8.77-4.341c-.46.148-1 .052-1.356-.43l-17.303-23.44c-.56-.758-1.733-.615-2.093.256l-3.267 7.893c-.46 1.112-1.667 1.718-2.833 1.423l-9.14-2.313v3.943l54.601 57.002 5.765 2.85c.744.044 1.488.093 2.23.167l24.129 2.405c1.599.16 2.687-1.583 1.841-2.949l-3.096-5.006c-.599-.969-.325-2.238.622-2.873l43.057-28.876c.781-.523.691-1.701-.163-2.1z" fill="#ff636e"/><path d="m198.947 319.032-10.206-2.582c-.913-.231-1.728.622-1.456 1.523l5.763 19.106c.348 1.152-.203 2.385-1.294 2.895l-7.737 3.62c-.854.399-.944 1.578-.162 2.102l43.057 28.876c.946.635 1.221 1.904.622 2.873l-3.096 5.006c-.845 1.366.243 3.109 1.841 2.949l24.129-2.405c2.96-.295 5.937-.343 8.904-.167z" fill="#ff4654"/><path d="m254.703 267.431-11.86 20.957c-.715 1.264-2.25 1.811-3.603 1.286l-9.609-3.731c-1.06-.411-2.163.492-1.968 1.612l8.119 46.719c.12.688-.307 1.197-.844 1.37l5.118 5.062c5.229 5.172 14.107 1.576 14.264-5.777l1.451-68.213c-.424.058-.826.289-1.068.715z" fill="#ff4654"/><path d="m318.561 117.622h-78.617l-2.475 3.11v29.875l2.369 2.43h78.724c2.722 0 4.928-2.207 4.928-4.928v-25.559c-.001-2.721-2.207-4.928-4.929-4.928z" fill="#ffd086"/><path d="m238.961 148.108v-25.558c0-2.722 2.207-4.928 4.928-4.928h-50.5c-2.722 0-4.928 2.207-4.928 4.928v25.558c0 2.722 2.207 4.928 4.928 4.928h50.5c-2.722.001-4.928-2.206-4.928-4.928z" fill="#ffc365"/></g><g><path d="m331.136 336.804-3.758-1.758 4.493-14.897c.907-3 .126-6.271-2.038-8.537-2.166-2.266-5.396-3.196-8.437-2.428l-15.089 3.818-1.588-3.836c-1.199-2.897-3.878-4.934-6.99-5.315-3.109-.377-6.203.949-8.066 3.473l-1.531 2.075 3.571-20.551c.554-3.179-.652-6.424-3.148-8.469-2.496-2.046-5.918-2.59-8.923-1.422l-5.92 2.299-9.908-17.508c-1.586-2.807-4.574-4.551-7.798-4.553-.001 0-.002 0-.002 0-3.225 0-6.213 1.743-7.801 4.548l-9.911 17.512-5.918-2.298c-3.011-1.168-6.428-.624-8.924 1.422-2.496 2.045-3.702 5.291-3.149 8.465l3.572 20.556-1.532-2.076c-1.863-2.522-4.969-3.853-8.065-3.472-3.113.381-5.791 2.417-6.99 5.314l-1.588 3.836-15.089-3.817c-3.038-.771-6.269.161-8.433 2.423-2.165 2.264-2.949 5.534-2.045 8.537l4.496 14.902-3.759 1.758c-2.841 1.328-4.755 4.095-4.996 7.221-.241 3.127 1.228 6.155 3.833 7.904l38.749 25.986-.367.593c-1.904 3.077-1.896 6.896.02 9.965 1.745 2.795 4.744 4.441 7.985 4.441.317 0 .638-.016.959-.048l21.451-2.139v22.236c0 4.142 3.357 7.5 7.5 7.5s7.5-3.358 7.5-7.5v-22.237l21.451 2.139c3.591.359 7.025-1.323 8.943-4.392 1.916-3.068 1.926-6.887.021-9.967l-.367-.593 38.75-25.987c2.604-1.748 4.072-4.775 3.831-7.902-.239-3.126-2.154-5.894-4.995-7.221zm-50.248 31.544c-2.958 1.984-4.471 5.301-4.25 8.616l-14.324-1.428c-2.094-.209-4.202-.313-6.312-.313-2.108 0-4.217.104-6.311.313l-14.324 1.428c.222-3.314-1.292-6.632-4.25-8.617l-34.102-22.87c3.041-2.491 4.414-6.668 3.24-10.56l-2.555-8.466 8.572 2.169c3.942 1 8.054-.563 10.404-3.712l10.897 14.763c2.414 3.273 6.713 4.441 10.453 2.845 3.74-1.598 5.866-5.513 5.171-9.521l-6.29-36.193c4.707 1.631 10.021-.353 12.488-4.714l6.605-11.67 6.606 11.673c2.47 4.359 7.786 6.344 12.487 4.711l-6.29 36.195c-.695 4.006 1.431 7.92 5.168 9.519 3.74 1.598 8.036.43 10.455-2.842l10.898-14.765c2.352 3.149 6.462 4.712 10.403 3.713l8.572-2.169-2.553 8.465c-1.176 3.893.197 8.07 3.239 10.561z"/><path d="m218.178 42.425c-7.799-1.538-31.707-4.42-42.81 14.957-11.192 19.533-.786 41.956 9.111 56.553-2.156 2.236-3.491 5.271-3.491 8.615v25.558c0 6.853 5.575 12.429 12.428 12.429h45.087c4.143 0 7.5-3.358 7.5-7.5s-3.357-7.5-7.5-7.5h-42.515v-20.415h120.028v20.415h-42.514c-4.143 0-7.5 3.358-7.5 7.5s3.357 7.5 7.5 7.5h45.086c6.853 0 12.428-5.576 12.428-12.429v-25.558c0-3.345-1.334-6.379-3.491-8.615 9.897-14.597 20.303-37.019 9.111-56.553-11.104-19.376-35.01-16.494-42.809-14.957-10.083-6.335-21.971-4.974-30.326-2.626v-10.93h3.099c4.143 0 7.5-3.358 7.5-7.5s-3.357-7.5-7.5-7.5h-3.099v-6.369c0-4.142-3.357-7.5-7.5-7.5s-7.5 3.358-7.5 7.5v6.369h-3.098c-4.143 0-7.5 3.358-7.5 7.5s3.357 7.5 7.5 7.5h3.098v10.93c-8.352-2.347-20.24-3.708-30.323 2.626zm30.324 13.16v54.537h-20.135c-6.675-12.051-17.448-38.775-5.4-52.284 7.084-7.942 19.493-4.575 25.535-2.253zm-60.118 9.254c3.853-6.723 11.451-8.423 17.815-8.52-8.385 17.956-.62 40.738 5.413 53.803h-11.415c-6.957-9.192-20.454-30.204-11.813-45.283zm135.238 0c8.64 15.079-4.855 36.091-11.812 45.283h-11.415c6.033-13.066 13.797-35.849 5.412-53.804 6.363.097 13.962 1.797 17.815 8.521zm-34.583-7c12.05 13.51 1.272 40.24-5.4 52.283h-20.136v-54.526c6.041-2.303 18.487-5.66 25.536 2.243z"/><path d="m414.832 363.606c20.597-20.597 31.94-47.982 31.94-77.112 0-29.129-11.344-56.514-31.94-77.111-42.553-42.552-111.589-42.636-154.225 0-2.539 2.54-6.658 2.55-9.208 0-68.802-68.802-186.165-19.428-186.165 77.112 0 29.129 11.344 56.515 31.94 77.112 3.742 3.742 114.457 114.457 141.016 141.016 9.846 9.846 25.778 9.846 35.626 0 3.938-3.94 125.869-125.87 141.016-141.017zm-334.598-77.112c0-42.129 27.527-77.568 65.558-89.593v194.108l-38.01-38.009c-17.765-17.765-27.548-41.383-27.548-66.506zm168.563 207.521-88.006-88.006v-212.558c29.147-4.19 58.792 5.341 79.976 26.516.008.008.016.015.024.023 7.518 7.518 18.982 8.156 27.14 2.698 3.89-2.602 32.706-36.609 83.283-29.275v83.061c0 4.142 3.357 7.5 7.5 7.5s7.5-3.358 7.5-7.5v-79.652c14.187 4.49 27.186 12.345 38.01 23.168 17.765 17.764 27.548 41.383 27.548 66.505 0 25.123-9.783 48.741-27.548 66.505l-38.01 38.01v-79.536c0-4.142-3.357-7.5-7.5-7.5s-7.5 3.358-7.5 7.5v94.536l-88.005 88.005c-3.982 3.981-10.428 3.986-14.412 0z"/></g></g></svg>