<svg id="Capa_1" enable-background="new 0 0 512.032 512.032" height="512" viewBox="0 0 512.032 512.032" width="512" xmlns="http://www.w3.org/2000/svg"><g><g><path d="m200.15 152.056c-.427-3.245-.747-6.703-.877-10.274-.221-6.063-4.168-11.439-9.911-13.399-1.455-.497-2.694-1.08-3.68-1.756-5.501-3.772-8.811-11.927-12.943-18.795l-3.856 1.723-1.11 5.57-9.167 7.263 1.833 10.218 12.299 8.948 10.534 22.167 7.306 4.412c6.505-2.433 10.492-9.083 9.572-16.077z" fill="#dbedff"/><path d="m281.545 17.236c-1.98-1.761-3.89-3.231-5.743-4.492h-3.195l-13.5 18.144 1.5 10.833 5.5 6.333-5.667 31.167 4.821 6.015c1.551-.571 3.278-.808 5.19-.499 10.124 1.636 16.963-7.017 10.871-19.804s19.322-30.708.223-47.697z" fill="#dbedff"/><path d="m133.258 178.12c-4.74-2.21-9.861-2.724-14.655-6.053-5.157-3.582-13.502-4.128-20.934-5.538l-5.812 1.605-39.278 48.504 3.278 33.25 16.63 10.5v35.5l-17.63 25.597 7 24.653s-1.5 24.5-1.75 25.75 12.38 15.917 12.38 15.917l3.481 12.917 4.073 3.174c14.132 4.938 31.87 10.014 53.217 14.068l4.227-8.409v-223.44z" fill="#ff636e"/><path d="m76.64 392.409c-2.435-14.209-14.606-15.689-11.09-29.009s1.352-26.345-2.705-36.705c-2.717-6.938 6.573-16.795 13.009-22.551 3.116-2.787 3.797-7.692 1.583-11.364-.859-1.426-1.338-3.087-1.338-4.795v-27.891c0-6.317-5.512-9.305-10.002-10.691-3.37-1.041-5.686-4.415-5.686-8.246v-8.295c0-3.67-1.066-7.116-2.182-9.717-1.327-3.094-.842-6.75 1.228-9.311l38.213-47.304c-6.599-1.252-12.48-3.184-14.77-8.527-1.774-4.139-3.739-8.014-5.521-11.269-2.612-4.77-9.155-5.512-12.757-1.438l-55.166 62.398c-2.069 2.34-2.555 5.681-1.228 8.508 1.115 2.376 2.182 5.525 2.182 8.879v7.579c0 3.501 2.316 6.584 5.686 7.535 4.49 1.267 10.002 3.998 10.002 9.77v25.486c0 1.561.479 3.079 1.338 4.382 2.214 3.355 1.532 7.837-1.583 10.384-6.435 5.26-15.726 14.267-13.009 20.606 4.057 9.467 6.221 21.368 2.705 33.54s8.655 13.524 11.09 26.507 12.082 14.335 12.082 14.335 14.712 9.666 43.975 19.604c-2.456-2.272-4.972-6.071-6.056-12.4z" fill="#ff4654"/><path d="m485.375 388.992c-1.803-12.983-10.425-26.149-22.044-17.446-10.774 8.069-36.52.279-46.658-2.84-10.549-3.246-16.86-26.237 20.286-28.401s19.925-15.507 38.679-27.408c18.753-11.901-20.557-36.425-41.113-28.491-15.977 6.167-28.686-9.016-41.682-19.642-4.453-3.641-11.125-1.04-12.112 4.626-1.232 7.078-4.246 14.936-11.481 16.459-13.704 2.885-14.426-24.163-29.212-25.606-4.404-.429-9.607.356-15.001 1.301-6.806 1.191-11.418 7.742-10.048 14.514.603 2.979 1.793 6.219 3.951 9.43 7.393 11-5.41 14.967 8.656 24.524 14.065 9.557 5.41 29.753-1.803 34.802-6.355 4.449 5.198 20.862-1.955 28.588l-2.98 11.819v54l2.98 4.458c1.961-.296 3.896-.839 5.742-1.672 11.18-5.049 20.917 7.934 14.786 15.147s-21.999 25.966-6.852 40.392 18.803 2.428 31.015 0c15.417-3.065-1.803-29.573 8.655-40.031 6.163-6.164 16.147-8.068 24.415-12.21 8.13-4.073 12.452-13.194 10.549-22.086-1.196-5.59-1.658-12.616 2.363-15.833 7.213-5.77 22.72-7.934 29.933 3.606 7.213 11.541 9.918 10.819 18.934 9.377 9.013-1.443 23.8-18.393 21.997-31.377z" fill="#ff636e"/><path d="m384.133 208.64c-7.573-14.426-2.524-38.588-25.605-49.769-10.76-5.212-22.775-14.5-34.692-22.017l-2.979 4.409v33.75l2.98 5.907c5.501 4.128 8.364 7.907 8.004 13.654-.721 11.541-10.819 17.311-4.328 28.13s20.557 14.426 46.883 11.901c26.327-2.524 17.311-11.539 9.737-25.965z" fill="#ff636e"/><path d="m319.84 376.009c-13.258 5.156-30.75-19.104-43.575-30.908-.008 1.546-15.825-.546-15.825-.546l-31.893-16.833v-52.833l24.226-14.765 14.906-9.757c10.823-14.275 13.888-28.531 13.888-28.531 3.787-15.688-10.594-24.163-16.184-21.638-5.59 2.524-15.327 12.983-21.999 6.852s-14.606-17.491-24.884-13.344-10.098 21.098-32.548 16.229-33.54 6.762-40.031-14.606c-3.295-10.848-7.777-14.93-12.664-17.208v239.844c25.294 4.804 55.634 8.175 91.013 8.175 0 0 6.131-.902 15.327 6.491 9.197 7.394 18.753 6.131 23.081 0s11.901.902 18.393-10.999c6.491-11.901 14.967 2.705 18.934 11.36 3.312 7.227 13.914 12.185 23.831 10.688v-70.277c-.965 1.042-2.259 1.931-3.996 2.606z" fill="#dbedff"/><path d="m172.614 137.446c-11.968-5.049-12.556-15.147-4.622-20.196 3.117-1.983 4.286-5.08 4.556-8.109.04-.448.109-.882.19-1.308-1.4-2.326-2.893-4.506-4.599-6.316-7.225-7.669-19.882-2.87-20.819 7.625-.27 3.029-1.439 6.126-4.556 8.109-7.934 5.049-7.347 15.147 4.622 20.196 11.968 5.049 5.477 32.818 28.918 32.818 5.25 0 9.487-.706 13.137-1.748.681-.195 1.33-.447 1.961-.728-11.548-6.912-9.004-26.216-18.788-30.343z" fill="#b5dcff"/><path d="m263.601 79.168c-.307-10.715 6.246-23.721 3.906-33.172-.313-1.266-.9-2.639-1.726-4.098-3.259-5.758-2.579-12.999 1.635-18.099 2.482-3.004 4.728-6.054 6.732-9.007.5-.738 1.06-1.415 1.653-2.047-2.151-1.463-4.224-2.64-6.227-3.604-7.328-3.529-16.087-1.079-20.653 5.652-2.004 2.953-4.25 6.003-6.732 9.007-4.214 5.1-4.894 12.341-1.635 18.099.826 1.459 1.412 2.832 1.726 4.098 2.341 9.451-4.213 22.457-3.906 33.172.329 11.485 14.12 16.748 22.489 8.875 1.254-1.18 2.724-2.189 4.399-2.807-.987-1.741-1.595-3.778-1.661-6.069z" fill="#b5dcff"/><path d="m323.836 136.855c-13.644-8.607-27.16-14.893-38.518-10.08-4.662 1.976-10.885 3.828-17.891 5.427-7.509 1.714-12.632 8.803-11.602 16.436.014.104.029.209.044.314 1.218 8.583 9.653 14.155 18.117 12.279 8.739-1.937 17.397-2.094 25.757 3.772 10.32 7.242 18.547 11.757 24.093 15.918z" fill="#dbedff"/><g fill="#ff636e"><path d="m237.62 231.554-1.257 6.835-2.187 38.375 2.33 4.434c3.661-6.003 8.559-10.898 13.551-14.191 7.412-4.889 13.17-10.765 17.623-16.639l-8.827 3.428c-1.497.581-3.193-.024-3.983-1.421l-13.11-23.166c-.618-1.093-2.193-1.093-2.811 0z"/><path d="m271.792 350.815c-.662-1.071-.359-2.474.687-3.175l3.786-2.539c-1.304-1.2-2.561-2.274-3.759-3.172-12.983-9.737-32.999-6.491-40.031-27.318-.34-1.007-.622-2.006-.875-3.001l-3.053-3.471-6.128-3.812-4.762-.052c-.539.533-1.5.612-2.056-.14l-19.127-25.91c-.619-.838-1.915-.679-2.313.283l-3.611 8.725c-.509 1.229-1.843 1.899-3.132 1.573l-16.774-4.245v2.496l60.463 68.25 5.257 1.484c3.379-.218 6.771-.175 10.144.162l26.672 2.659c1.767.176 2.97-1.75 2.036-3.26z"/></g><g fill="#ff4654"><path d="m170.644 284.559-4.611-1.167c-1.009-.255-1.91.688-1.61 1.684l6.371 21.119c.384 1.274-.224 2.636-1.429 3.2l-8.553 4.001c-.943.441-1.043 1.744-.178 2.324l47.595 31.92c1.046.701 1.349 2.104.687 3.175l-3.423 5.533c-.934 1.51.268 3.437 2.036 3.26l26.672-2.659c.72-.072 1.442-.115 2.164-.162z"/><path d="m218.032 303.095c.085.49-.088.896-.375 1.179l13.943 7.335c-2.906-11.426-.221-22.008 4.905-30.413l1.115-49.643-11.783 20.821c-.791 1.397-2.487 2.002-3.983 1.421l-10.621-4.125c-1.172-.455-2.391.544-2.176 1.782z"/></g></g><g><path d="m191.812 121.284c-1.134-.387-1.68-.719-1.861-.843-2.646-1.815-5.171-6.437-7.612-10.907-2.501-4.579-5.087-9.314-8.711-13.161-5.307-5.631-13.131-7.561-20.423-5.036-7.509 2.6-12.614 9.166-13.326 17.139-.164 1.843-.78 2.235-1.111 2.446-5.983 3.808-9.234 9.896-8.698 16.288.612 7.286 5.871 13.535 14.431 17.146 1.621.684 3.144 5.35 4.367 9.099 2.967 9.092 7.933 24.31 27.466 24.31 5.428 0 10.398-.666 15.196-2.036 10.793-3.082 17.558-13.449 16.084-24.653-.431-3.264-.705-6.483-.817-9.566v-.001c-.336-9.153-6.358-17.28-14.985-20.225zm-4.402 40.02c-3.438.982-7.062 1.459-11.077 1.459-7.904 0-9.899-3.829-13.206-13.963-2.282-6.994-4.869-14.921-12.797-18.266-4.033-1.702-5.237-3.68-5.313-4.58-.061-.731.613-1.621 1.804-2.378 4.697-2.989 7.464-7.751 8-13.771.27-3.021 2.588-4.051 3.292-4.295.387-.134.913-.262 1.513-.262.938 0 2.053.314 3.085 1.41 2.302 2.443 4.324 6.146 6.465 10.065 3.287 6.019 6.686 12.243 12.294 16.088 1.547 1.061 3.346 1.934 5.499 2.668 2.784.95 4.729 3.592 4.838 6.573.129 3.555.444 7.25.937 10.98.493 3.77-1.749 7.249-5.334 8.272z"/><path d="m243.477 97.679c7.728 3.21 16.375 1.637 22.552-4.173 1.716-1.612 2.756-1.445 3.254-1.364 7.383 1.194 14.198-1.314 18.239-6.705 4.625-6.171 4.844-14.82.599-23.729-.958-2.011 1.159-6.861 3.026-11.141 4.363-9.998 10.958-25.106-4.591-38.935-4.373-3.89-8.854-6.916-13.7-9.25-10.72-5.162-23.388-1.716-30.114 8.199-2.028 2.991-4.15 5.83-6.306 8.439-.001 0-.001 0-.001 0-6.183 7.484-7.14 18.162-2.38 26.571.658 1.164.892 1.881.972 2.207.881 3.554-.431 9.23-1.699 14.719-1.271 5.502-2.586 11.191-2.423 16.865.234 8.163 5.052 15.173 12.572 18.297zm6.111-53.486c-.478-1.927-1.288-3.886-2.479-5.99-1.718-3.035-1.36-6.904.891-9.628 2.456-2.973 4.863-6.194 7.155-9.573 2.518-3.711 7.228-5.016 11.192-3.105 3.572 1.721 6.922 3.992 10.24 6.943 6.776 6.027 5.605 10.746.812 21.727-3.151 7.22-6.723 15.402-2.82 23.592 2.05 4.303 1.787 7.151.939 8.282-.916 1.22-2.996 1.031-3.843.894-5.783-.933-11.284.88-15.925 5.246-2.707 2.546-5.676 1.597-6.521 1.246-1.207-.501-3.244-1.801-3.332-4.874-.107-3.746.938-8.269 2.044-13.058 1.667-7.208 3.39-14.663 1.647-21.702z"/><path d="m321.508 202.877c-2.71 5.76-6.421 13.649-.398 23.687 10.469 17.449 33.721 17.456 54.03 15.508 9.192-.881 19.104-2.768 22.916-10.072 3.755-7.197-.275-14.349-4.543-21.92-3.842-6.811-4.428-7.534-6.744-19.098-2.643-13.21-5.933-29.652-24.943-38.86-6.544-3.169-13.759-8.078-21.397-13.274-18.734-12.745-39.267-26.913-58.008-18.979-4.098 1.736-9.85 3.473-16.634 5.021-10.935 2.496-19.019 12.658-17.315 25.116 1.879 13.23 14.765 21.296 27.166 18.547 8.707-1.931 14.453-1.181 19.826 2.589 5.427 3.808 10.201 6.826 14.414 9.49.178.112.348.22.523.331 11.326 7.173 14.212 9.466 13.982 13.146-.192 3.062-1.436 5.706-2.875 8.768zm33.778-37.256c12.304 5.959 14.375 16.314 16.774 28.304 2.701 13.493 3.902 15.571 8.385 23.52 1.404 2.491 3.24 5.749 3.854 7.589-1.232.551-4.163 1.49-10.591 2.106-29.136 2.795-36.538-2.964-39.736-8.294-1.753-2.922-1.411-4.226 1.109-9.584 1.738-3.696 3.902-8.296 4.272-14.218.479-7.658-2.731-12.96-7.989-17.632v-26.588c.208.142.418.284.626.426 7.75 5.271 15.763 10.722 23.296 14.371zm-71.546-13.089c-10.384 0-12.904 3.313-17.404.196-5.17-3.581-3.606-11.756 2.788-13.215 7.739-1.767 14.181-3.729 19.147-5.833.008-.003.015-.005.023-.009 8.359-3.52 20.327 2.785 28.07 7.394v25.919c-2.892-1.838-7.384-4.683-12.285-8.122-6.95-4.877-14.041-6.33-20.339-6.33z"/><path d="m216.742 103.021c2.929-2.929 2.929-7.678 0-10.606l-5.442-5.442c-2.93-2.929-7.678-2.929-10.607 0s-2.929 7.678 0 10.606l5.442 5.442c2.93 2.929 7.677 2.929 10.607 0z"/><path d="m480.388 437.89-5.581 5.301c-3.003 2.853-3.126 7.6-.273 10.603 2.852 3.003 7.598 3.126 10.604.273l5.581-5.301c3.003-2.853 3.126-7.6.273-10.603s-7.6-3.125-10.604-.273z"/><path d="m495.867 347.266c1.565 0 3.146-.489 4.494-1.5l8.655-6.492c3.313-2.485 3.985-7.187 1.5-10.5-2.484-3.313-7.187-3.985-10.5-1.5l-8.655 6.492c-3.313 2.485-3.985 7.187-1.5 10.5 1.474 1.964 3.726 3 6.006 3z"/><path d="m221.369 128.988c2.143 3.544 6.755 4.679 10.299 2.535s4.68-6.755 2.535-10.299l-1.5-2.479c-2.144-3.544-6.756-4.68-10.299-2.535-3.544 2.144-4.68 6.755-2.535 10.299z"/><path d="m317.293 105.219c1.322 0 2.661-.35 3.875-1.084 3.544-2.144 4.68-6.755 2.535-10.299l-1.5-2.479c-2.145-3.544-6.756-4.679-10.299-2.535-3.544 2.144-4.68 6.755-2.535 10.299l1.5 2.479c1.409 2.33 3.886 3.619 6.424 3.619z"/><path d="m2.938 225.082v7.579c0 6.834 4.585 12.901 11.148 14.753 2.805.791 4.54 1.94 4.54 2.551v25.486c0 3.011.891 5.955 2.578 8.512.097.147.067.335-.069.447-13.632 11.142-18.732 21.023-15.156 29.368 2.896 6.757 5.662 17.187 2.394 28.503-3.089 10.691 2.093 16.736 5.876 21.15 2.427 2.832 4.344 5.068 5.047 8.821 2.427 12.945 10.838 18.438 16.562 19.995 7.968 4.888 52.798 30.332 135.009 38.731 4.13.428 7.802-2.579 8.224-6.699.421-4.121-2.578-7.802-6.698-8.223-11.26-1.15-21.792-2.643-31.605-4.364v-96.715c0-4.142-3.357-7.5-7.5-7.5s-7.5 3.358-7.5 7.5v93.802c-54.552-11.671-82.578-29.62-82.915-29.84-1.046-.688-1.752-1.051-2.969-1.153-1.007-.261-4.617-1.654-5.863-8.298-1.443-7.702-5.465-12.393-8.401-15.819-3.278-3.825-3.649-4.474-2.854-7.225 4.44-15.372.935-29.213-2.868-38.227.272-1.27 2.586-5.551 10.714-12.194 6.112-4.997 7.443-13.733 3.097-20.32-.072-.111-.099-.206-.099-.253v-25.486c0-3.795-1.507-13.048-15.466-16.988-.131-.037-.223-.167-.223-.317v-7.579c0-3.917-.973-7.977-2.892-12.065-.056-.117-.033-.253.057-.355l55.165-62.4c.052-.059.115-.129.288-.112.181.021.235.119.271.186 1.995 3.644 3.747 7.218 5.206 10.621 4.489 10.478 16.146 12.337 25.512 13.832 5.014.8 10.198 1.628 12.807 3.439 3.88 2.694 7.699 3.912 11.069 4.986.123.039.243.078.364.116v96.649c0 4.142 3.357 7.5 7.5 7.5s7.5-3.358 7.5-7.5v-77.041c9.048 20.061 25.104 10.314 43.604 14.327 13.324 2.891 21.037-.699 26.171-5.268 2.333-2.077 4.134-4.356 5.686-6.322 1.843-2.333 3.434-4.347 5.087-5.014 2.555-1.029 5.218.461 9.386 4.376 1.087 1.021 2.271 2.198 3.588 3.549 1.315 1.349 2.675 2.743 4.028 3.986 3.209 2.95 6.616 3.992 9.945 3.923 6.356-.13 12.429-4.307 16.31-6.974 1.187-.816 2.504-1.722 3.4-2.227.59.12 1.695.557 2.863 1.458.584.45 1.182 1.009 1.742 1.718 1.534 1.944 2.241 4.249 2.113 6.875-.043.875-.178 1.787-.406 2.732-.011.048-.027.118-.038.167-.038.172-2.72 11.832-11.349 23.939l-3.312 1.286-11.291-19.953c-1.615-2.854-4.654-4.626-7.934-4.626s-6.318 1.772-7.933 4.625l-11.292 19.954-7.183-2.79c-3.061-1.187-6.537-.632-9.076 1.449-2.538 2.08-3.765 5.381-3.202 8.61l4.522 26.02-3.681-4.986c-1.89-2.56-5.019-3.917-8.184-3.525-3.159.386-5.877 2.452-7.095 5.394l-2.017 4.871-17.345-4.389c-3.08-.781-6.358.164-8.554 2.461-2.196 2.296-2.991 5.613-2.074 8.66l5.167 17.127-4.776 2.234c-2.883 1.349-4.824 4.158-5.067 7.332-.242 3.173 1.249 6.245 3.89 8.014l43.465 29.15-.806 1.302c-1.945 3.144-1.938 7.045.021 10.181 1.947 3.118 5.438 4.858 9.137 4.489l24.582-2.451v25.453c0 4.142 3.357 7.5 7.5 7.5s7.5-3.358 7.5-7.5v-25.453l24.582 2.451c3.686.369 7.18-1.353 9.137-4.489.178-.285.322-.583.468-.88.478.503.958 1.007 1.44 1.512.013.014.027.028.04.042 8.46 8.846 20.67 21.277 32.817 20.996v51.758c-8.339-1.838-9.633-6.477-10.664-8.568-5.78-11.726-11.896-17.551-18.655-17.786-2.903-.106-8.422.852-12.529 8.383-.968 1.775-1.703 2.692-2.568 3.208-.865.517-1.86.633-3.348.806-12.9 1.507-9.902 7.799-15.787 8.13-8.075.451-14.61-12.483-28.836-11.545-5.662-.003-11.415-.099-17.104-.284-4.127-.119-7.604 3.112-7.739 7.253-.135 4.14 3.112 7.605 7.253 7.739 2.028.066 17.985.462 18.789.267 8.513.64 14.795 13.574 30.282 11.389 5.406-.759 10.083-3.526 13.213-7.818 3.183-.65 12.048.036 18.574-11.183.353.417.75.926 1.186 1.537 2.894 4.061 4.531 8.26 5.599 10.15 6.912 12.169 25.204 17.232 38.663 11.153 2.938-1.326 4.727.494 5.361 1.336.617.82.902 1.79.623 2.118-3.277 3.856-9.378 11.034-12.691 19.659-4.523 11.777-2.257 22.793 6.382 31.021 7.076 6.739 12.828 9.056 17.92 9.055 4.567 0 8.604-1.866 12.583-4.074 2.359-1.31 4.588-2.547 7.147-3.056 6.811-1.354 11.231-5.904 12.448-12.812.805-4.571.128-9.665-.528-14.59-.737-5.547-1.656-12.45.575-14.681 2.966-2.965 7.885-4.851 13.094-6.848 3.083-1.182 6.271-2.404 9.378-3.96 11.179-5.6 17.151-18.085 14.523-30.361-1.153-5.388-.554-7.921-.224-8.456 2.523-1.982 7.38-3.577 11.863-2.814 3.084.525 5.361 2.026 6.962 4.588 9.014 14.423 14.919 14.663 26.479 12.807 13.648-2.183 30.56-23.143 28.243-39.813-1.344-9.677-6.189-21.44-15.762-25.43-3.403-1.419-10.294-2.914-18.207 3.013-2.93 2.194-12.016 4.592-39.956-4.005-1.311-.403-3.104-2.567-2.82-4.91.459-3.806 7.235-8.014 21.337-8.835 23.533-1.371 29.847-7.061 34.414-18.51 1.514-3.795 2.709-6.793 7.847-10.053 8.128-5.158 10.599-13.478 6.448-21.711-7.245-14.375-35.951-27.186-54.279-20.109-8.48 3.273-16.075-2.629-27.579-12.74-2.162-1.901-4.399-3.867-6.656-5.712-4.148-3.391-9.624-4.297-14.645-2.428-5.081 1.893-8.672 6.22-9.604 11.574-.501 2.878-2.054 9.652-5.638 10.407-1.525.317-3.707-3.273-6.397-8.009-3.988-7.023-9.449-16.64-20.541-17.722-5.427-.532-11.384.391-17.022 1.377-5.276.923-10.036 3.991-13.057 8.417-3.024 4.431-4.106 9.748-3.05 14.971.878 4.34 2.587 8.42 5.078 12.128 1.532 2.279 1.358 3.271.895 5.922-1.058 6.046-1.262 13.125 9.771 20.621 2.865 1.947 4.212 4.562 4.237 8.232.044 6.396-4.023 12.75-6.126 14.222-7.108 4.976-5.238 13.663-3.873 20.005 1.907 8.858 1.34 9.907-.886 10.457-4.476 1.102-13.078-6.746-20.169-13.975-17.895-18.247-18.213-21.063-37.052-27.388-10.629-3.569-16.724-6.064-19.931-15.558-5.281-15.644 2.813-31.166 14.606-38.944 18.035-11.893 30.902-32.724 34.69-49.749.603-2.525.862-5.029.794-7.462-.151-5.472-1.958-10.588-5.243-14.785-.001-.001-.002-.003-.004-.005-.099-.127-.211-.246-.313-.371-1.023-1.256-2.172-2.432-3.461-3.5-.614-.509-1.246-.973-1.886-1.409-5.456-3.715-11.72-4.766-16.467-2.624-2.063.932-4.089 2.325-6.233 3.8-1.976 1.359-6 4.126-7.695 4.282-1.026-.95-2.156-2.108-3.35-3.332-5.658-5.799-13.845-14.193-24.572-12.662-1.532.219-3.117.64-4.753 1.301-.668.27-1.301.567-1.904.889-4.218 2.252-6.92 5.673-9.34 8.737-.41.519-.8 1.008-1.183 1.481-3.641 4.483-6.47 6.754-15.724 4.747-8.587-1.862-15.557-1.581-21.153-1.352-11.739.475-10.156.034-14.439-11.513-5.622-15.31-14.514-18.432-22.001-20.818-2.704-.862-5.04-1.606-7.068-3.014-5.42-3.764-12.322-4.866-18.998-5.931-6.026-.961-12.856-2.051-14.089-4.929-1.648-3.844-3.612-7.853-5.836-11.915-2.4-4.384-6.796-7.333-11.759-7.889-4.953-.556-9.891 1.345-13.196 5.084l-55.165 62.4c-4.055 4.586-4.996 11.126-2.397 16.663.96 2.049 1.469 4.017 1.469 5.691zm216.229 35.704c4.935 1.918 10.617-.113 13.226-4.718l7.988-14.116c8.746 15.454 8.311 14.868 9.392 16.049-3.869 3.009-21.16 12.389-25.878 34.863l-5.637-32.431zm106.024 20.519c-1.389-2.066-2.339-4.332-2.825-6.735-.334-1.651.318-2.927.737-3.54.764-1.119 1.919-1.864 3.254-2.098 4.621-.81 9.439-1.569 12.979-1.224 3.114.304 5.567 4.236 8.955 10.201 3.622 6.379 8.901 15.679 18.855 15.678 1.159 0 2.384-.126 3.675-.398 6.349-1.336 14.508-6.327 17.325-22.512 0 0 .022-.027.043-.052 2.027 1.66 4.046 3.435 6.182 5.312 11.277 9.912 25.309 22.248 42.882 15.467 7.24-2.794 20.589.33 29.759 6.962 5.105 3.692 6.111 6.48 6.102 6.906-.002.005-.241.515-1.467 1.293-9.235 5.861-11.84 12.392-13.742 17.161-1.283 3.215-1.812 4.382-3.474 5.453-2.944 1.896-8.96 3.121-17.881 3.64-29.721 1.731-34.626 15.97-35.356 22.011-1.106 9.165 4.736 18.409 13.302 21.045 18.346 5.645 40.991 10.937 53.359 1.674 2.236-1.676 3.145-1.298 3.443-1.174 2.44 1.018 5.687 6.525 6.676 13.649 1.165 8.385-9.898 21.995-16.348 23.033-2.322.374-4.954.797-5.592.522-.354-.151-1.771-1.071-5.204-6.563-3.891-6.224-9.825-10.175-17.164-11.425-8.212-1.399-17.559.932-23.814 5.937-5.659 4.527-7.346 12.353-5.012 23.259 1.197 5.593-1.506 11.271-6.574 13.811-2.447 1.226-5.158 2.266-8.028 3.366-6.444 2.471-13.108 5.025-18.331 10.247-7.471 7.472-6.011 18.447-4.837 27.266.446 3.359 1.185 8.903.496 10.587-.098.035-.251.081-.474.125-4.862.967-8.544 3.011-11.503 4.653-2.496 1.386-4.062 2.241-5.257 2.187-.96-.04-3.226-.73-7.62-4.915-7.047-6.712-4.836-15.714 7.395-30.103 4.958-5.833 4.931-14.213-.068-20.854-4.535-6.023-11.624-8.74-18.674-7.492v-57.794c3.876-6.707 2.012-15.398.945-20.354-.365-1.699-.884-4.105-.974-5.493 5.741-4.786 11.383-14.906 11.308-25.682-.06-8.548-3.897-15.841-10.807-20.535-3.301-2.243-3.697-3.354-3.699-3.364-.069-.298.138-1.482.275-2.266.627-3.583 1.677-9.585-3.222-16.872zm-60.506 64.564c-.678 1.664-.894 3.498-.597 5.294l-16.81-1.676c-4.576-.457-9.219-.457-13.795 0l-16.809 1.676c.607-3.691-.936-7.535-4.242-9.752l-38.631-25.908c3.725-2.43 5.513-7.126 4.2-11.474l-3.227-10.695 10.831 2.741c4.401 1.115 9.014-.885 11.272-4.713l12.715 17.225c2.451 3.321 6.813 4.508 10.608 2.886 1.289-.551 2.39-1.373 3.253-2.378 4.581 29.656 28.143 29.989 41.232 36.774z"/></g></g></svg>