<?xml version="1.0" encoding="iso-8859-1"?>
<!-- Generator: Adobe Illustrator 19.0.0, SVG Export Plug-In . SVG Version: 6.00 Build 0)  -->
<svg version="1.1" id="Capa_1" xmlns="http://www.w3.org/2000/svg" xmlns:xlink="http://www.w3.org/1999/xlink" x="0px" y="0px"
	 viewBox="0 0 512 512" style="enable-background:new 0 0 512 512;" xml:space="preserve">
<path style="fill:#D5945E;" d="M156.988,426.256v38.883c0,2.684-2.173,4.86-4.854,4.86H71.566c-2.681,0-4.854-2.176-4.854-4.86
	v-38.883c0-2.684,2.173-4.86,4.854-4.86h80.568C154.815,421.396,156.988,423.572,156.988,426.256z M440.434,421.396h-80.568
	c-2.681,0-4.854,2.176-4.854,4.86v38.883c0,2.684,2.173,4.86,4.854,4.86h80.568c2.681,0,4.854-2.176,4.854-4.86v-38.883
	C445.287,423.572,443.114,421.396,440.434,421.396z"/>
<path style="fill:#E6AF78;" d="M504.5,397.094v38.883c0,2.684-2.173,4.86-4.854,4.86H12.354c-2.681,0-4.854-2.176-4.854-4.86
	v-38.883c0-2.684,2.173-4.86,4.854-4.86h38.781c-8.042,0-14.56-6.528-14.56-14.581v-24.302h68.044v24.302
	c0,8.053-6.519,14.581-14.561,14.581h165.849c-8.041,0-14.561-6.528-14.561-14.581v-24.302h155.407v24.302
	c0,8.053-6.519,14.581-14.561,14.581h117.455C502.327,392.234,504.5,394.41,504.5,397.094z"/>
<path style="fill:#963737;" d="M36.574,353.351h68.044v24.302c0,8.053-6.519,14.581-14.561,14.581H51.134
	c-8.042,0-14.56-6.528-14.56-14.581C36.574,377.653,36.574,353.351,36.574,353.351z M377.338,207.541L377.338,207.541V192.96
	c0-2.684-2.173-4.86-4.854-4.86h4.854l0,0c0-23.53-16.698-43.152-38.875-47.638v-10.686c0-10.737-8.692-19.441-19.414-19.441l0,0
	c-10.722,0-19.414,8.704-19.414,19.441v10.686c-22.177,4.485-38.876,24.107-38.876,47.638l0,0h4.854c-2.68,0-4.854,2.176-4.854,4.86
	v14.581l0,0c-23.89,0-45.251,10.812-59.497,27.806l-34.631-34.68c-1.821-1.823-4.289-2.847-6.864-2.847h-30.929
	c-2.681,0-4.854,2.176-4.854,4.86c0,18.607,6.027,36.712,17.175,51.598l37.831,50.512c2.288,3.055,5.28,5.212,8.559,6.47
	c8.555,24.196,28.716,42.897,53.795,49.361v17.031c0,8.053,6.519,14.581,14.561,14.581h126.286c8.041,0,14.561-6.528,14.561-14.581
	v-17.031c33.494-8.633,58.242-39.08,58.242-75.315l0,0C454.994,242.358,420.226,207.541,377.338,207.541z"/>
<path style="fill:#AA4141;" d="M430.241,285.306L430.241,285.306c0,42.949-34.768,77.765-77.656,77.765h-91.826
	c-42.888,0-77.656-34.817-77.656-77.765l0,0c0-42.949,34.768-77.765,77.656-77.765V192.96c0-2.684,2.173-4.86,4.854-4.86h-4.854l0,0
	c0-26.478,21.148-47.996,47.45-48.576c26.302,0.58,47.45,22.097,47.45,48.576l0,0h-7.927c2.681,0,4.854,2.176,4.854,4.86v14.581
	C395.473,207.541,430.241,242.358,430.241,285.306z"/>
<path style="fill:#D24A4A;" d="M133.691,309.608v4.86c0,26.843-21.73,48.603-48.535,48.603H56.035
	c-26.805,0-48.535-21.76-48.535-48.603v-4.86c0-2.684,2.173-4.86,4.854-4.86h116.484
	C131.518,304.748,133.691,306.924,133.691,309.608z M382.191,178.379H255.905c-8.041,0-14.561,6.528-14.561,14.581
	s6.519,14.581,14.561,14.581h126.286c8.041,0,14.561-6.528,14.561-14.581S390.233,178.379,382.191,178.379z"/>
<path style="fill:#D5945E;" d="M504.5,397.094v38.883c0,2.684-2.173,4.86-4.854,4.86h-24.268c2.681,0,4.854-2.176,4.854-4.86
	v-38.883c0-2.684-2.173-4.86-4.854-4.86h24.268C502.327,392.234,504.5,394.41,504.5,397.094z"/>
<path style="fill:#C83741;" d="M128.838,304.748h-22.326c2.681,0,4.854,2.176,4.854,4.86v4.86c0,26.843-21.73,48.603-48.535,48.603
	h22.326c26.805,0,48.535-21.76,48.535-48.603v-4.86C133.691,306.924,131.518,304.748,128.838,304.748z M382.191,178.379h-22.326
	c8.041,0,14.561,6.528,14.561,14.581s-6.519,14.581-14.561,14.581h22.326c8.041,0,14.561-6.528,14.561-14.581
	S390.233,178.379,382.191,178.379z"/>
<path d="M155.313,169.067c0-14.468,5.66-28.068,15.938-38.295l1.666-1.658c7.427-7.39,11.518-17.214,11.518-27.662V82.135
	c0-4.142,3.357-7.5,7.5-7.5s7.5,3.358,7.5,7.5v19.318c0,14.469-5.66,28.068-15.938,38.294l-1.666,1.658
	c-7.427,7.391-11.518,17.214-11.518,27.662c0,4.142-3.357,7.5-7.5,7.5S155.313,173.21,155.313,169.067z M404.252,376.738
	c0,2.443-0.408,4.791-1.149,6.988H499.5c6.893,0,12.5,5.607,12.5,12.5v38.296c0,6.893-5.607,12.5-12.5,12.5h-46.713v16.647
	c0,6.798-5.542,12.33-12.354,12.33h-80.568c-6.812,0-12.354-5.531-12.354-12.33v-16.647H164.488v16.647
	c0,6.798-5.542,12.33-12.354,12.33H71.566c-6.812,0-12.354-5.531-12.354-12.33v-16.647H12.5c-6.893,0-12.5-5.607-12.5-12.5v-38.296
	c0-6.893,5.607-12.5,12.5-12.5h17.723c-0.741-2.197-1.149-4.545-1.149-6.988V362.2C11.727,352.289,0,333.619,0,312.249v-2.955
	c0-6.893,5.607-12.5,12.5-12.5h116.191c6.893,0,12.5,5.607,12.5,12.5v2.955c0,21.37-11.727,40.04-29.074,49.951v14.538
	c0,2.443-0.408,4.791-1.149,6.988h124.025c-0.741-2.197-1.149-4.545-1.149-6.988v-11.353c-23.797-7.915-42.938-26.012-52.19-49.083
	c-3.36-1.825-6.334-4.376-8.652-7.449l-37.832-50.194c-12.05-15.987-18.686-35.798-18.686-55.785c0-6.798,5.542-12.33,12.354-12.33
	h30.93c4.589,0,8.905,1.78,12.153,5.013l29.163,29.018c9.803-9.6,21.922-16.852,35.438-20.854
	c-1.706-3.124-2.677-6.704-2.677-10.507c0-12.125,9.864-21.989,21.989-21.989h0.126c5.601-17.404,19.197-30.609,36.175-35.989
	v-4.807c0-14.788,12.073-26.818,26.914-26.818s26.914,12.03,26.914,26.818v4.823c16.942,5.393,30.559,18.602,36.165,35.972h0.136
	c12.124,0,21.988,9.864,21.988,21.989c0,3.803-0.971,7.383-2.677,10.507c15.598,4.619,29.329,13.574,39.793,25.459h24.304
	c25.546,0,46.328,20.697,46.328,46.137v19.318c0,25.44-20.782,46.137-46.328,46.137h-24.304c-9.86,11.2-22.623,19.793-37.115,24.613
	L404.252,376.738L404.252,376.738z M462.494,284.976c0,14.781-3.828,28.685-10.537,40.796h13.714
	c17.274,0,31.328-13.968,31.328-31.137v-19.318c0-17.169-14.054-31.137-31.328-31.137h-13.714
	C458.666,256.292,462.494,270.195,462.494,284.976z M307.135,132.635c0.717-0.027,1.436-0.046,2.159-0.046h19.509
	c0.723,0,1.443,0.018,2.16,0.045v-2.205c0-6.517-5.345-11.818-11.914-11.818s-11.914,5.301-11.914,11.818V132.635z M272.037,171.226
	h94.013c-6.595-14.227-20.965-23.636-37.248-23.636h-19.509C292.954,147.59,278.618,156.985,272.037,171.226z M248.845,193.215
	c0,3.854,3.136,6.989,6.989,6.989h126.43c3.854,0,6.988-3.135,6.988-6.989s-3.135-6.989-6.988-6.989h-126.43
	C251.98,186.226,248.845,189.361,248.845,193.215z M191.31,236.011l-29.969-29.821c-0.412-0.41-0.985-0.646-1.573-0.646h-28.236
	c0.558,15.836,6.053,31.397,15.617,44.086l28.518,37.836c-0.024-0.829-0.063-1.655-0.063-2.49
	C175.603,266.744,181.434,249.852,191.31,236.011z M57.5,354.749h26.191c23.435,0,42.5-19.065,42.5-42.5v-0.455H15v0.455
	C15,335.684,34.065,354.749,57.5,354.749z M51.135,383.726h38.922c3.894,0,7.061-3.135,7.061-6.988v-8.588
	c-4.31,1.035-8.802,1.599-13.426,1.599H57.5c-4.623,0-9.115-0.563-13.426-1.599v8.588C44.074,380.591,47.241,383.726,51.135,383.726
	z M149.488,447.022H74.213v13.977h75.275V447.022z M437.787,447.022h-75.275v13.977h75.275V447.022z M15,398.726v33.296h482v-33.296
	H15z M340.717,362.249c0-4.142,3.357-7.5,7.5-7.5h29.121c38.685,0,70.156-31.3,70.156-69.772c0-38.473-31.472-69.773-70.156-69.773
	H260.759c-21.046,0-39.943,9.277-52.813,23.921c-0.327,0.585-0.732,1.139-1.228,1.638c-0.202,0.203-0.415,0.389-0.633,0.564
	c-9.674,11.961-15.482,27.14-15.482,43.65c0,38.473,31.472,69.773,70.156,69.773h57.852c4.143,0,7.5,3.358,7.5,7.5
	s-3.357,7.5-7.5,7.5h-57.852c-4.045,0-8.018-0.301-11.914-0.847v7.836c0,3.854,3.167,6.988,7.061,6.988h126.286
	c3.894,0,7.061-3.135,7.061-6.988v-7.836c-3.896,0.546-7.87,0.847-11.914,0.847h-29.121
	C344.074,369.749,340.717,366.391,340.717,362.249z M143.795,64.133c7.427,7.391,11.518,17.215,11.518,27.662
	s-4.091,20.271-11.519,27.662l-1.665,1.658c-10.277,10.226-15.938,23.826-15.938,38.294v9.66c0,4.142,3.357,7.5,7.5,7.5
	s7.5-3.358,7.5-7.5v-9.66c0-10.447,4.091-20.271,11.519-27.662l1.665-1.658c10.277-10.226,15.938-23.826,15.938-38.294
	c0-14.467-5.66-28.067-15.938-38.294l-15.394-15.317c-2.936-2.922-7.685-2.91-10.606,0.026s-2.91,7.685,0.026,10.606L143.795,64.133
	z"/>
<g>
</g>
<g>
</g>
<g>
</g>
<g>
</g>
<g>
</g>
<g>
</g>
<g>
</g>
<g>
</g>
<g>
</g>
<g>
</g>
<g>
</g>
<g>
</g>
<g>
</g>
<g>
</g>
<g>
</g>
</svg>
