<?xml version="1.0" encoding="iso-8859-1"?>
<!-- Generator: Adobe Illustrator 19.0.0, SVG Export Plug-In . SVG Version: 6.00 Build 0)  -->
<svg version="1.1" id="Capa_1" xmlns="http://www.w3.org/2000/svg" xmlns:xlink="http://www.w3.org/1999/xlink" x="0px" y="0px"
	 viewBox="0 0 512 512" style="enable-background:new 0 0 512 512;" xml:space="preserve">
<path style="fill:#E6C8A0;" d="M231.054,162.813h263.445c5.523,0,10,4.477,10,10v151.504c0,66.274-53.726,120-120,120h-43.445
	c-66.274,0-120-53.726-120-120V172.813C221.054,167.29,225.531,162.813,231.054,162.813z"/>
<path style="fill:#D2B48C;" d="M504.499,172.52v155.313c0,64.333-52.152,116.484-116.484,116.484h-42.064
	c64.333,0,116.484-52.152,116.484-116.484v-165.02h32.357C500.153,162.813,504.499,167.158,504.499,172.52z"/>
<path style="fill:#B4826E;" d="M459.847,250.176c0,10.722-8.692,19.414-19.414,19.414s-19.414-8.692-19.414-19.414
	c0-10.722,8.692-19.414,19.414-19.414S459.847,239.454,459.847,250.176z M362.776,230.762c-10.722,0-19.414,8.692-19.414,19.414
	c0,10.722,8.692,19.414,19.414,19.414s19.414-8.692,19.414-19.414C382.19,239.454,373.498,230.762,362.776,230.762z M285.12,230.762
	c-10.722,0-19.414,8.692-19.414,19.414c0,10.722,8.692,19.414,19.414,19.414s19.414-8.692,19.414-19.414
	C304.534,239.454,295.842,230.762,285.12,230.762z"/>
<path style="fill:#7DC86E;" d="M221.889,504.5c-48.895,0-91.32-21.85-112.602-53.874c21.282-32.024,63.706-53.874,112.602-53.874
	s91.32,21.85,112.602,53.874C313.208,482.65,270.784,504.5,221.889,504.5z"/>
<path style="fill:#8CE16E;" d="M203.635,387.387c-34.574,34.574-80.023,49.122-117.716,41.527
	c-7.596-37.693,6.953-83.142,41.527-117.716s80.023-49.122,117.716-41.527C252.758,307.364,238.209,352.813,203.635,387.387z"/>
<path d="M440.433,277.09c14.841,0,26.914-12.074,26.914-26.914s-12.073-26.914-26.914-26.914s-26.914,12.074-26.914,26.914
	S425.592,277.09,440.433,277.09z M440.433,238.262c6.569,0,11.914,5.345,11.914,11.914s-5.345,11.914-11.914,11.914
	s-11.914-5.345-11.914-11.914S433.863,238.262,440.433,238.262z M362.777,277.09c14.841,0,26.914-12.074,26.914-26.914
	s-12.073-26.914-26.914-26.914s-26.914,12.074-26.914,26.914S347.936,277.09,362.777,277.09z M362.777,238.262
	c6.569,0,11.914,5.345,11.914,11.914s-5.345,11.914-11.914,11.914s-11.914-5.345-11.914-11.914S356.207,238.262,362.777,238.262z
	 M285.121,277.09c14.841,0,26.914-12.074,26.914-26.914s-12.073-26.914-26.914-26.914s-26.914,12.074-26.914,26.914
	S270.28,277.09,285.121,277.09z M285.121,238.262c6.569,0,11.914,5.345,11.914,11.914s-5.345,11.914-11.914,11.914
	s-11.914-5.345-11.914-11.914S278.551,238.262,285.121,238.262z M494.792,155.312h-28.46c-4.143,0-7.5,3.358-7.5,7.5
	s3.357,7.5,7.5,7.5h28.46c1.217,0,2.207,0.99,2.207,2.207v21.621H228.554v-21.621c0-1.217,0.99-2.207,2.207-2.207H436.73
	c4.143,0,7.5-3.358,7.5-7.5s-3.357-7.5-7.5-7.5H230.761c-9.488,0-17.207,7.719-17.207,17.207v88.229
	c-32.258,3.07-65.262,18.996-91.411,45.146c-7.749,7.748-14.707,16.204-20.684,25.131c-2.304,3.442-1.382,8.101,2.06,10.405
	c3.442,2.305,8.1,1.382,10.405-2.06c5.434-8.117,11.768-15.811,18.826-22.869c30.31-30.309,70.432-45.471,105.925-40.342
	c5.127,35.496-10.033,75.616-40.342,105.925c-27.573,27.573-63.266,42.603-96.209,41.232l86.567-86.567
	c2.929-2.929,2.929-7.678,0-10.606c-2.929-2.929-7.678-2.929-10.606,0l-86.522,86.523c-0.639-16.87,2.988-34.907,10.646-52.121
	c1.684-3.784-0.02-8.217-3.804-9.901c-3.783-1.684-8.216,0.02-9.901,3.804c-10.576,23.773-14.303,49.141-10.651,71.928
	l-14.645,14.645c-14.236-2.778-27.848-8.277-40.141-16.323l-11.458-7.5c-3.464-2.269-8.114-1.298-10.383,2.168
	s-1.298,8.114,2.168,10.383l11.458,7.5c20.868,13.658,45.081,20.878,70.021,20.878h20.492C129.421,491.454,173.634,512,221.889,512
	c49.851,0,95.39-21.927,118.847-57.223c0.606-0.911,0.985-1.923,1.152-2.961h46.127c68.365,0,123.984-55.619,123.984-123.984
	V172.519C511.999,163.032,504.28,155.312,494.792,155.312z M228.554,260.265V209.14h268.445v82.07H254.624
	c0.086-7.801-0.596-15.513-2.109-23.021c-0.596-2.96-2.91-5.274-5.871-5.871C240.722,261.125,234.673,260.459,228.554,260.265z
	 M223.379,376.224c1.924,4.537,4.108,8.955,6.564,13.232c-2.671-0.127-5.355-0.204-8.054-0.204c-3.308,0-6.608,0.108-9.897,0.3
	C216.06,385.269,219.854,380.813,223.379,376.224z M82.36,443.08l6.095-6.095c5.815,0.939,11.734,1.409,17.713,1.409
	c0.952,0,1.906-0.018,2.861-0.041c-1.271,1.565-2.488,3.158-3.655,4.773H84.871C84.033,443.126,83.197,443.099,82.36,443.08z
	 M221.889,497c-38.993,0-74.859-14.611-97.185-38.874h122.424c4.142,0,7.5-3.358,7.5-7.5s-3.358-7.5-7.5-7.5h-122.4
	c2.172-2.349,4.482-4.623,6.926-6.809c0.276-0.247,0.521-0.514,0.751-0.789c20.904-4.502,41.627-14.22,60.12-28.434
	c9.547-1.882,19.421-2.842,29.364-2.842c42.863,0,81.953,17.649,103.427,46.374C303.842,479.35,264.752,497,221.889,497z
	 M388.015,436.816h-54.522c-19.779-23.527-50.125-39.706-84.415-45.351c-6.707-9.303-11.869-19.513-15.35-30.399
	c10.5-17.431,17.26-36.201,19.784-54.855h243.487v21.621C496.999,387.926,448.108,436.816,388.015,436.816z M351.649,12.803
	c-2.929-2.929-2.929-7.678,0-10.606c2.93-2.929,7.678-2.929,10.607,0l15.394,15.394c10.269,10.27,15.924,23.923,15.924,38.445
	c0,14.523-5.655,28.176-15.925,38.444l-1.665,1.666c-7.437,7.436-11.531,17.322-11.531,27.838v9.708c0,4.142-3.357,7.5-7.5,7.5
	s-7.5-3.358-7.5-7.5v-9.708c0-14.523,5.655-28.176,15.925-38.444l1.665-1.666c7.437-7.436,11.531-17.322,11.531-27.838
	s-4.095-20.402-11.531-27.838L351.649,12.803z M378.573,133.691c0-14.523,5.655-28.176,15.924-38.445l1.667-1.667
	c7.436-7.435,11.53-17.322,11.53-27.838V46.328c0-4.142,3.357-7.5,7.5-7.5s7.5,3.358,7.5,7.5v19.414
	c0,14.523-5.655,28.176-15.924,38.445l-1.667,1.667c-7.436,7.435-11.53,17.322-11.53,27.838c0,4.142-3.357,7.5-7.5,7.5
	S378.573,137.833,378.573,133.691z"/>
<g>
</g>
<g>
</g>
<g>
</g>
<g>
</g>
<g>
</g>
<g>
</g>
<g>
</g>
<g>
</g>
<g>
</g>
<g>
</g>
<g>
</g>
<g>
</g>
<g>
</g>
<g>
</g>
<g>
</g>
</svg>
