<?xml version="1.0" encoding="iso-8859-1"?>
<!-- Generator: Adobe Illustrator 19.0.0, SVG Export Plug-In . SVG Version: 6.00 Build 0)  -->
<svg version="1.1" id="Capa_1" xmlns="http://www.w3.org/2000/svg" xmlns:xlink="http://www.w3.org/1999/xlink" x="0px" y="0px"
	 viewBox="0 0 512 512" style="enable-background:new 0 0 512 512;" xml:space="preserve">
<path style="fill:#C83741;" d="M298.02,238.317L44.932,503.177c-2.046,2.141-5.596,1.606-6.92-1.042
	c-6.09-12.18-15.966-22.056-28.146-28.146c-2.649-1.324-3.183-4.874-1.042-6.92l264.859-253.088
	c1.681-1.606,4.337-1.576,5.981,0.068l18.288,18.288C299.596,233.981,299.626,236.637,298.02,238.317z"/>
<path style="fill:#FFA5A5;" d="M289.453,98.988c1.895,1.895,1.895,4.968,0,6.864l-35.338,35.338
	c-1.448,1.448-3.649,1.831-5.502,0.958L173.65,106.81c-3.712-1.75-3.712-7.03,0-8.78l74.963-35.338
	c1.852-0.873,4.053-0.49,5.502,0.958L289.453,98.988z M448.35,257.885l-35.338-35.338c-1.895-1.895-4.969-1.895-6.864,0
	l-35.338,35.338c-1.448,1.448-1.831,3.649-0.958,5.501l35.338,74.963c1.75,3.712,7.031,3.712,8.78,0l35.338-74.963
	C450.181,261.534,449.798,259.333,448.35,257.885z"/>
<path style="fill:#FF4B4B;" d="M504.5,17.207v244.617v53.418c0,7.396-7.94,12.075-14.41,8.492l-89.836-49.755
	c-14.393-7.972-30.577-12.154-47.031-12.154h-93.34c-5.361,0-9.707-4.346-9.707-9.707v-93.34c0-16.454-4.182-32.637-12.154-47.031
	L188.266,21.91c-3.583-6.47,1.096-14.41,8.492-14.41h53.418h244.617C500.154,7.5,504.5,11.846,504.5,17.207z"/>
<path style="fill:#D24A4A;" d="M504.5,17.207v244.617v53.418c0,7.396-7.94,12.075-14.41,8.492l-20.535-11.373V7.5h25.238
	C500.154,7.5,504.5,11.846,504.5,17.207z"/>
<path style="fill:#FFCF65;" d="M504.5,17.207v148.788l-235.915,95.829h-8.703c-5.361,0-9.707-4.346-9.707-9.707v-8.703L346.005,7.5
	h148.788C500.154,7.5,504.5,11.846,504.5,17.207z"/>
<path style="fill:#FFB450;" d="M504.5,17.207v148.788l-34.945,14.195V7.5h25.238C500.154,7.5,504.5,11.846,504.5,17.207z
	 M410.342,56.035c-24.125,0-43.682,19.557-43.682,43.682s19.557,43.682,43.682,43.682s43.682-19.557,43.682-43.682
	S434.467,56.035,410.342,56.035z"/>
<path d="M512,166.064V85.399c0-4.143-3.358-7.5-7.5-7.5s-7.5,3.357-7.5,7.5v75.548l-229.879,93.377h-7.238
	c-1.217,0-2.207-0.99-2.207-2.207v-7.237L351.053,15h143.74c1.217,0,2.207,0.99,2.207,2.207v39.799c0,4.143,3.358,7.5,7.5,7.5
	s7.5-3.357,7.5-7.5V17.207C512,7.719,504.281,0,494.793,0H345.957c-0.03,0-0.06,0-0.089,0h-149.11
	c-6.157,0-11.699,3.167-14.825,8.472c-3.126,5.305-3.211,11.687-0.228,17.072l26.483,47.817l-37.734,17.885
	c-4.371,2.06-7.086,6.341-7.087,11.173s2.714,9.114,7.095,11.18l71.186,33.434c0.085,0.04,0.173,0.068,0.259,0.104
	c0.298,2.263,0.504,4.538,0.628,6.821l-59.061,59.061c-14.075,14.075-32.789,21.827-52.695,21.827
	c-23.913,0-46.394,9.313-63.301,26.221l-65.281,65.28c-2.929,2.93-2.929,7.678,0,10.607c1.464,1.464,3.384,2.196,5.303,2.196
	s3.839-0.732,5.303-2.196l65.282-65.281c14.075-14.075,32.789-21.827,52.694-21.827c23.912,0,46.393-9.312,63.301-26.22
	l48.595-48.595v58.204L3.642,461.646c-2.769,2.646-4.081,6.485-3.51,10.271c0.57,3.786,2.956,7.068,6.38,8.78
	c10.659,5.329,19.463,14.134,24.792,24.793c1.712,3.424,4.994,5.809,8.779,6.379c0.584,0.088,1.169,0.131,1.751,0.131
	c3.191,0,6.282-1.3,8.52-3.641l228.191-238.804c0.071-0.074,0.132-0.154,0.199-0.23h54.343l-48.595,48.595
	c-16.909,16.908-26.221,39.39-26.221,63.302c0,19.905-7.751,38.619-21.827,52.694l-65.281,65.281c-2.929,2.93-2.929,7.678,0,10.607
	c1.464,1.464,3.384,2.196,5.303,2.196s3.839-0.732,5.303-2.196l65.281-65.281c16.908-16.909,26.22-39.39,26.22-63.302
	c0-19.905,7.751-38.62,21.827-52.694l59.185-59.185c3.492,0.042,6.975,0.281,10.428,0.73l33.695,71.475
	c2.06,4.371,6.341,7.086,11.173,7.087l0,0c4.832,0,9.114-2.715,11.18-7.099l17.738-37.801l47.959,26.562
	c2.624,1.453,5.484,2.179,8.341,2.179c3.007,0,6.012-0.804,8.732-2.407c5.304-3.126,8.471-8.667,8.471-14.824V166.118
	C512,166.1,512,166.082,512,166.064z M194.856,16.087c0.239-0.406,0.804-1.087,1.902-1.087h138.105l-77.187,190.022v-46.245
	c0-17.681-4.528-35.2-13.093-50.664l-49.755-89.837C194.296,17.317,194.617,16.492,194.856,16.087z M181.923,102.409l33.548-15.9
	l15.991,28.872c2.325,4.198,4.301,8.574,5.918,13.075L181.923,102.409z M42.564,494.799c-6.108-10.446-14.916-19.253-25.363-25.362
	l225.567-215.542c0.832,8.072,7.266,14.505,15.338,15.337L42.564,494.799z M409.575,330.061l-26.155-55.482
	c4.544,1.625,8.963,3.614,13.2,5.96l28.727,15.91L409.575,330.061z M495.913,317.144c-0.406,0.24-1.231,0.559-2.189,0.03
	l-89.836-49.756c-15.466-8.566-32.986-13.094-50.665-13.094h-46.245L497,177.137v138.106
	C497,316.34,496.319,316.904,495.913,317.144z M365.137,93.682c0,28.222,22.96,51.182,51.182,51.182s51.182-22.96,51.182-51.182
	S444.54,42.5,416.318,42.5S365.137,65.46,365.137,93.682z M452.5,93.682c0,19.95-16.231,36.182-36.182,36.182
	s-36.182-16.231-36.182-36.182S396.368,57.5,416.318,57.5S452.5,73.732,452.5,93.682z"/>
<g>
</g>
<g>
</g>
<g>
</g>
<g>
</g>
<g>
</g>
<g>
</g>
<g>
</g>
<g>
</g>
<g>
</g>
<g>
</g>
<g>
</g>
<g>
</g>
<g>
</g>
<g>
</g>
<g>
</g>
</svg>
