<?xml version="1.0" encoding="iso-8859-1"?>
<!-- Generator: Adobe Illustrator 19.0.0, SVG Export Plug-In . SVG Version: 6.00 Build 0)  -->
<svg version="1.1" id="Capa_1" xmlns="http://www.w3.org/2000/svg" xmlns:xlink="http://www.w3.org/1999/xlink" x="0px" y="0px"
	 viewBox="0 0 512.001 512.001" style="enable-background:new 0 0 512.001 512.001;" xml:space="preserve">
<path style="fill:#FFEBBE;" d="M422.961,215.23c0,114.726-93.004,207.73-207.73,207.73S7.5,329.957,7.5,215.23
	S100.504,7.5,215.23,7.5S422.961,100.504,422.961,215.23z"/>
<path style="fill:#FFCF65;" d="M139.076,78.413L139.076,78.413c-25.652,14.051-46.743,35.175-60.772,60.867
	c-1.673,3.063-6.065,3.063-7.738,0c-14.029-25.692-35.12-46.815-60.772-60.867c-3.058-1.675-3.058-6.074,0-7.75
	C35.446,56.612,56.537,35.489,70.566,9.797l0,0c1.673-3.063,6.065-3.063,7.738,0l0,0c14.029,25.692,35.12,46.815,60.772,60.867l0,0
	C142.134,72.339,142.134,76.738,139.076,78.413z M228.958,248.741L228.958,248.741c-11.053-6.054-20.141-15.156-26.186-26.227
	c-0.721-1.32-2.613-1.32-3.334,0l0,0c-6.045,11.07-15.133,20.172-26.186,26.227l0,0c-1.318,0.722-1.318,2.618,0,3.339
	c11.053,6.055,20.141,15.157,26.186,26.227l0,0c0.721,1.32,2.613,1.32,3.334,0c6.045-11.07,15.133-20.172,26.186-26.227
	C230.276,251.359,230.276,249.463,228.958,248.741z"/>
<path style="fill:#E6AF78;" d="M504.5,133.691v29.121c0,10.722-8.679,19.414-19.384,19.414H368.812
	c-10.705,0-19.384-8.692-19.384-19.414v-29.121c0-10.722,8.679-19.414,19.384-19.414h116.304
	C495.821,114.277,504.5,122.969,504.5,133.691z M96.627,349.188H67.551c-10.706,0-19.384,8.692-19.384,19.414v116.484
	c0,10.722,8.678,19.414,19.384,19.414h29.076c10.705,0,19.384-8.692,19.384-19.414V368.602
	C116.011,357.88,107.333,349.188,96.627,349.188z"/>
<path style="fill:#D5945E;" d="M504.115,143.37v19.443c0,10.722-8.679,19.414-19.384,19.414H368.427
	c-10.705,0-19.384-8.692-19.384-19.414v-29.121c0-1.32,0.134-2.608,0.385-3.854v9.679c0,10.722,8.679,19.414,19.384,19.414h116.304
	C494.503,158.93,502.33,152.245,504.115,143.37z M96.627,349.188H72.882c10.705,0,19.384,8.692,19.384,19.414v116.484
	c0,10.722-8.678,19.414-19.384,19.414h23.745c10.705,0,19.384-8.692,19.384-19.414V368.602
	C116.011,357.88,107.333,349.188,96.627,349.188z"/>
<path style="fill:#F0C087;" d="M156.294,305.9v26.022c0,40.629-32.885,73.566-73.452,73.566h-1.505
	c-40.566,0-73.452-32.937-73.452-73.566l0,0v-30.481v-61.999c0-10.417,8.511-19.192,18.91-18.995
	c10.08,0.191,18.192,8.435,18.192,18.576v-37.16c0-10.141,8.112-18.385,18.192-18.576c10.398-0.198,18.91,8.578,18.91,18.995v14.445
	c0-10.141,8.112-18.385,18.192-18.576c10.398-0.198,18.91,8.578,18.91,18.995v69.431H137
	C147.656,286.577,156.294,295.228,156.294,305.9z M301.289,75.449L301.289,75.449h-30.434h-61.903
	c-10.4,0-19.163,8.524-18.965,18.939c0.191,10.096,8.422,18.221,18.548,18.221h-37.102c-10.126,0-18.356,8.125-18.548,18.221
	c-0.197,10.415,8.565,18.939,18.965,18.939h14.423c-10.126,0-18.356,8.125-18.548,18.221c-0.197,10.415,8.565,18.939,18.965,18.939
	h69.324v17.837c0,10.672,8.638,19.323,19.293,19.323h25.982c40.566,0,73.452-32.937,73.452-73.566v-1.508
	C374.74,108.386,341.855,75.449,301.289,75.449z"/>
<path style="fill:#E6AF78;" d="M95.97,198.763v103.432c0,4.021-3.254,7.28-7.269,7.28s-7.269-3.26-7.269-7.28l0.658-85.467
	C82.089,208.085,87.989,200.839,95.97,198.763z M118.534,328.908l-16.422,16.447c-2.839,2.843-2.839,7.453,0,10.296
	c1.419,1.421,3.28,2.132,5.14,2.132s3.721-0.711,5.14-2.132l18.551-18.58c1.518-1.521,2.216-3.546,2.111-5.537
	c0.006-0.122,0.018-0.242,0.018-0.365v-44.592h-13.88L118.534,328.908z M44.987,201.863v37.16c0-1.678-0.658,63.172-0.658,63.172
	c0,4.021,3.254,7.28,7.269,7.28s7.269-3.26,7.269-7.28V185.108c0-0.403-0.041-0.796-0.104-1.181
	C50.836,186.04,44.987,193.258,44.987,201.863z M278.943,119.874c0-4.021-3.254-7.28-7.269-7.28H169.24
	c-7.895,0.962-14.257,6.879-15.882,14.561h118.316C275.689,127.154,278.943,123.895,278.943,119.874z M325.047,170.466
	c-2.839-2.843-7.441-2.843-10.28,0l-16.422,16.447h-42.264v14.561h44.523c0.123,0,0.244-0.012,0.366-0.018
	c0.129,0.007,0.258,0.018,0.387,0.018c1.86,0,3.721-0.711,5.14-2.132l18.551-18.58C327.886,177.919,327.886,173.309,325.047,170.466
	z M278.943,157.034c0-4.021-3.254-7.28-7.269-7.28h-87.593c-7.895,0.962-14.257,6.879-15.882,14.561h103.475
	C275.689,164.314,278.943,161.055,278.943,157.034z"/>
<path style="fill:#FF4B4B;" d="M404.872,230.762c0-10.722,8.679-19.414,19.384-19.414c10.706,0,19.384,8.692,19.384,19.414
	s-8.678,19.414-19.384,19.414C413.55,250.176,404.872,241.484,404.872,230.762z M424.256,191.934
	c10.706,0,19.384-8.692,19.384-19.414s-8.678-19.414-19.384-19.414c-10.705,0-19.384,8.692-19.384,19.414
	S413.55,191.934,424.256,191.934z M424.256,133.691c10.706,0,19.384-8.692,19.384-19.414s-8.678-19.414-19.384-19.414
	c-10.705,0-19.384,8.692-19.384,19.414S413.55,133.691,424.256,133.691z M450.623,404.072l-14.379-59.044
	c-1.448-5.948-7.057-10.002-13.271-9.365c-5.274,0.541-9.539,4.571-10.795,9.73l-14.29,58.678c-0.539,2.214,0.537,4.494,2.572,5.513
	c7.163,3.587,15.242,5.61,23.795,5.61s16.632-2.023,23.795-5.61C450.085,408.566,451.162,406.286,450.623,404.072z"/>
<path d="M504.5,155.313c-4.142,0-7.5,3.358-7.5,7.5c0,6.569-5.331,11.914-11.884,11.914h-34.074
	c0.059-0.729,0.098-1.463,0.098-2.207c0-12.234-8.2-22.581-19.384-25.84v-6.562c8.805-2.566,15.754-9.524,18.314-18.34h35.047
	c6.553,0,11.884,5.345,11.884,11.914c0,4.142,3.358,7.5,7.5,7.5s7.5-3.358,7.5-7.5c0-14.84-12.06-26.914-26.884-26.914h-10.231
	V75.449c0-14.84-13.039-26.914-29.065-26.914s-29.064,12.074-29.064,26.914v12.988c-8.805,2.565-15.754,9.524-18.314,18.34h-28.088
	c-14.243-23.269-39.872-38.828-69.066-38.828h-92.338c-7.085,0-14.011,2.918-19.003,8.005c-4.942,5.037-7.592,11.634-7.46,18.576
	c0.071,3.771,0.958,7.353,2.49,10.579h-13.546c-14.095,0-25.779,11.475-26.046,25.579c-0.132,6.942,2.518,13.539,7.46,18.576
	c2.968,3.024,6.62,5.282,10.581,6.616c-1.965,3.573-3.119,7.648-3.201,11.968c-0.132,6.942,2.518,13.539,7.46,18.576
	c4.992,5.087,11.918,8.005,19.003,8.005h61.824v10.337c0,14.791,12.02,26.823,26.793,26.823h25.982
	c30.443,0,57.004-16.923,70.825-41.862h31.205c0.092,0,0.181-0.01,0.272-0.014c3.387,4.073,7.953,7.128,13.165,8.647v6.562
	c-11.185,3.259-19.384,13.606-19.384,25.84s8.2,22.582,19.384,25.84v73.001c-5.791,2.416-10.293,7.564-11.865,14.016l-14.29,58.678
	c-1.372,5.634,1.301,11.388,6.5,13.994c8.485,4.25,17.621,6.404,27.154,6.404s18.669-2.155,27.154-6.405
	c5.199-2.604,7.873-8.359,6.5-13.993l-14.379-59.043c-1.54-6.325-6.062-11.277-11.775-13.636v-73.015
	c11.184-3.259,19.384-13.606,19.384-25.84s-8.2-22.581-19.384-25.84v-6.562c5.207-1.517,9.767-4.567,13.153-8.633h40.207
	c14.824,0,26.884-12.074,26.884-26.914C512,158.67,508.642,155.313,504.5,155.313z M445.82,63.535
	c7.755,0,14.065,5.345,14.065,11.914v31.328h-9.816c-2.56-8.816-9.509-15.775-18.314-18.34V75.449
	C431.756,68.88,438.065,63.535,445.82,63.535z M424.256,102.363c6.553,0,11.884,5.345,11.884,11.914s-5.331,11.914-11.884,11.914
	s-11.884-5.345-11.884-11.914S417.703,102.363,424.256,102.363z M301.289,216.588h-25.982c-6.503,0-11.793-5.304-11.793-11.823
	v-10.337h37.023c0.123,0,0.244-0.012,0.366-0.019c0.129,0.007,0.258,0.019,0.387,0.019c1.921,0,3.843-0.734,5.308-2.201
	l18.551-18.58c2.926-2.931,2.923-7.68-0.008-10.607c-2.932-2.927-7.681-2.923-10.607,0.008l-16.354,16.379h-42.165h-69.324
	c-3.083,0-6.107-1.28-8.297-3.511c-2.099-2.139-3.225-4.904-3.17-7.787c0.113-5.989,5.07-10.862,11.049-10.862h85.335
	c4.142,0,7.5-3.358,7.5-7.5s-3.358-7.5-7.5-7.5h-85.335h-0.605H171.85c-3.083,0-6.107-1.28-8.297-3.511
	c-2.099-2.139-3.225-4.904-3.17-7.787c0.113-5.989,5.07-10.862,11.049-10.862H207.5h1.033h63.074c4.142,0,7.5-3.358,7.5-7.5
	s-3.358-7.5-7.5-7.5h-63.074c-5.979,0-10.936-4.873-11.049-10.863c-0.055-2.882,1.071-5.647,3.17-7.786
	c2.189-2.231,5.214-3.511,8.297-3.511h92.338c36.366,0,65.952,29.637,65.952,66.065v1.508
	C367.24,186.951,337.654,216.588,301.289,216.588z M378.553,174.727c2.394-7.647,3.688-15.777,3.688-24.204v-1.508
	c0-9.553-1.671-18.719-4.715-27.237h20.916c2.56,8.816,9.509,15.775,18.314,18.34v6.562c-11.185,3.259-19.384,13.606-19.384,25.84
	c0,0.744,0.038,1.478,0.098,2.207H378.553z M442.828,403.761c-3.557,1.588-7.259,2.693-11.072,3.32v-22.948
	c0-4.142-3.358-7.5-7.5-7.5s-7.5,3.358-7.5,7.5v22.948c-3.813-0.627-7.516-1.731-11.072-3.319l13.782-56.594
	c0.53-2.177,2.287-3.84,4.273-4.043c2.446-0.257,4.638,1.296,5.218,3.678L442.828,403.761z M436.14,230.762
	c0,6.569-5.331,11.914-11.884,11.914s-11.884-5.345-11.884-11.914s5.331-11.914,11.884-11.914
	C430.809,218.848,436.14,224.192,436.14,230.762z M424.256,184.434c-6.553,0-11.884-5.345-11.884-11.914s5.331-11.914,11.884-11.914
	s11.884,5.345,11.884,11.914S430.809,184.434,424.256,184.434z M6.191,84.991c24.441,13.388,44.425,33.404,57.792,57.884
	c2.09,3.826,6.094,6.203,10.452,6.203c4.357,0,8.362-2.377,10.451-6.203c13.368-24.479,33.352-44.495,57.792-57.883
	c3.819-2.092,6.191-6.098,6.191-10.454s-2.373-8.361-6.191-10.452c-24.44-13.388-44.425-33.404-57.792-57.884
	C82.796,2.376,78.792,0,74.435,0s-8.362,2.376-10.452,6.203C50.616,30.683,30.631,50.699,6.191,64.086
	C2.372,66.177,0,70.182,0,74.538S2.372,82.9,6.191,84.991z M74.435,18.167c13.751,23.269,33.058,42.602,56.295,56.372
	c-23.237,13.77-42.543,33.103-56.295,56.372C60.683,107.642,41.376,88.309,18.14,74.539C41.376,60.77,60.683,41.436,74.435,18.167z
	 M232.562,242.164c-9.814-5.376-17.839-13.414-23.207-23.243c-1.649-3.02-4.81-4.896-8.25-4.896s-6.601,1.875-8.25,4.895
	c-5.368,9.83-13.393,17.868-23.206,23.243c-3.013,1.65-4.885,4.81-4.886,8.246c0,3.437,1.871,6.598,4.885,8.249
	c9.813,5.375,17.838,13.413,23.207,23.243c1.649,3.02,4.81,4.896,8.25,4.896s6.601-1.875,8.25-4.896
	c5.368-9.83,13.393-17.868,23.208-23.244c3.013-1.651,4.883-4.812,4.883-8.248C237.446,246.974,235.574,243.814,232.562,242.164z
	 M201.105,266.912c-4.581-6.35-10.14-11.916-16.482-16.501c6.342-4.586,11.901-10.151,16.482-16.501
	c4.581,6.35,10.14,11.915,16.482,16.501C211.245,254.997,205.686,260.563,201.105,266.912z M139.324,279.077h-10.309v-61.931
	c0-7.104-2.922-14.046-8.018-19.046c-5.029-4.934-11.598-7.578-18.534-7.448c-4.31,0.082-8.373,1.233-11.938,3.196
	c-1.335-3.975-3.598-7.638-6.63-10.612c-5.029-4.934-11.604-7.583-18.534-7.447c-14.088,0.268-25.55,11.964-25.55,26.075v13.57
	c-3.217-1.528-6.791-2.414-10.55-2.485c-6.938-0.14-13.506,2.513-18.534,7.447c-5.096,5-8.018,11.941-8.018,19.046v92.481
	c0,29.86,16.217,55.982,40.282,70.048v83.115c0,14.84,12.06,26.914,26.884,26.914c4.142,0,7.5-3.358,7.5-7.5s-3.358-7.5-7.5-7.5
	c-6.553,0-11.884-5.345-11.884-11.914v-76.3c8.072,2.711,16.698,4.202,25.669,4.202h1.505c8.972,0,17.597-1.491,25.669-4.202v76.3
	c0,6.569-5.331,11.914-11.884,11.914c-4.142,0-7.5,3.358-7.5,7.5s3.358,7.5,7.5,7.5c14.824,0,26.884-12.074,26.884-26.914v-83.115
	c24.066-14.066,40.283-40.188,40.283-70.048V305.9C166.117,291.11,154.098,279.077,139.324,279.077z M151.117,331.923
	c0,36.429-29.586,66.065-65.952,66.065H83.66c-36.366,0-65.952-29.637-65.952-66.066v-92.481c0-3.103,1.284-6.142,3.523-8.339
	c2.081-2.042,4.753-3.159,7.545-3.159c0.066,0,0.132,0.001,0.199,0.002c5.975,0.114,10.835,5.083,10.835,11.078v63.172
	c0,4.142,3.358,7.5,7.5,7.5s7.5-3.358,7.5-7.5v-63.172v-2.189v-34.97c0-5.995,4.86-10.964,10.835-11.078
	c2.853-0.042,5.613,1.067,7.744,3.157c2.239,2.197,3.523,5.236,3.523,8.339v12.968v1.478v85.467c0,4.142,3.358,7.5,7.5,7.5
	s7.5-3.358,7.5-7.5v-85.467c0-5.995,4.86-10.964,10.834-11.078c2.868-0.035,5.614,1.067,7.744,3.158
	c2.239,2.197,3.523,5.236,3.523,8.339v69.431v42.242l-16.358,16.384c-2.926,2.932-2.923,7.68,0.008,10.607
	c1.464,1.462,3.382,2.192,5.299,2.192c1.921,0,3.843-0.734,5.308-2.201l18.551-18.58c1.56-1.563,2.279-3.642,2.174-5.687
	c0.006-0.122,0.018-0.243,0.018-0.366v-37.092h10.309c6.503,0,11.793,5.304,11.793,11.823v26.023H151.117z"/>
<g>
</g>
<g>
</g>
<g>
</g>
<g>
</g>
<g>
</g>
<g>
</g>
<g>
</g>
<g>
</g>
<g>
</g>
<g>
</g>
<g>
</g>
<g>
</g>
<g>
</g>
<g>
</g>
<g>
</g>
</svg>
