<?xml version="1.0" encoding="iso-8859-1"?>
<!-- Generator: Adobe Illustrator 19.0.0, SVG Export Plug-In . SVG Version: 6.00 Build 0)  -->
<svg version="1.1" id="Capa_1" xmlns="http://www.w3.org/2000/svg" xmlns:xlink="http://www.w3.org/1999/xlink" x="0px" y="0px"
	 viewBox="0 0 512 512" style="enable-background:new 0 0 512 512;" xml:space="preserve">
<path style="fill:#B4826E;" d="M245.737,371.329l-18.753,5.025l-82.234-269.4l-20.099-75.011
	c-2.775-10.357,3.371-21.002,13.728-23.777l0,0c10.357-2.775,21.002,3.371,23.777,13.728l20.099,75.011L245.737,371.329z
	 M43.73,33.564c-5.361-9.286-17.234-12.467-26.52-7.106l0,0c-9.286,5.361-12.467,17.234-7.106,26.52l38.828,67.253L198.09,359.167
	l16.813-9.707L82.559,100.817L43.73,33.564z"/>
<path style="fill:#A06E5F;" d="M182.255,96.905l-37.505,10.049l-20.099-75.011c-2.775-10.357,3.371-21.002,13.728-23.777l0,0
	c10.357-2.775,21.002,3.371,23.777,13.728L182.255,96.905z M17.21,26.458c-9.286,5.361-12.467,17.234-7.106,26.52l38.828,67.253
	l33.626-19.414L43.73,33.564C38.369,24.279,26.496,21.097,17.21,26.458z"/>
<path style="fill:#FFCF65;" d="M401.605,201.641v29.121c0,10.722-8.692,19.414-19.414,19.414H129.809
	c-10.722,0-19.414-8.692-19.414-19.414v-29.121c0-10.722,8.692-19.414,19.414-19.414h19.414v-19.414
	c0-10.722,8.692-19.414,19.414-19.414h19.414v-19.414c0-10.722,8.692-19.414,19.414-19.414h19.414V85.156
	c0-10.722,8.692-19.414,19.414-19.414h21.355c10.722,0,19.414,8.692,19.414,19.414v19.414h17.473
	c10.722,0,19.414,8.692,19.414,19.414v19.414h19.414c10.722,0,19.414,8.692,19.414,19.414v19.414h19.414
	C392.914,182.227,401.605,190.919,401.605,201.641z"/>
<path style="fill:#FFB450;" d="M401.605,201.641v29.121c0,10.722-8.692,19.414-19.414,19.414h-24.753
	c10.722,0,19.414-8.692,19.414-19.414v-29.121c0-10.722-8.692-19.414-19.414-19.414h-9.707c-5.361,0-9.707-4.346-9.707-9.707v-9.707
	c0-10.722-8.692-19.414-19.414-19.414h-9.707c-5.361,0-9.707-4.346-9.707-9.707v-9.707c0-10.722-8.692-19.414-19.414-19.414h-7.766
	c-5.361,0-9.707-4.346-9.707-9.707v-9.707c0-10.149-7.79-18.466-17.715-19.328c0.561-0.049,1.125-0.086,1.699-0.086h21.355
	c10.722,0,19.414,8.692,19.414,19.414v19.414h17.473c10.722,0,19.414,8.692,19.414,19.414v19.414h19.414
	c10.722,0,19.414,8.692,19.414,19.414v19.414h19.414C392.914,182.227,401.605,190.919,401.605,201.641z"/>
<path style="fill:#D24A4A;" d="M425.873,227.85L425.873,227.85c0,32.869-4.197,65.604-12.488,97.411l-44.833,171.981
	c-1.114,4.275-4.975,7.258-9.393,7.258H150.962c-4.447,0-8.325-3.022-9.412-7.334L97.846,323.833
	c-7.783-30.867-11.719-62.578-11.719-94.411v-1.573c0-2.681,2.173-4.854,4.854-4.854H421.02
	C423.7,222.996,425.873,225.169,425.873,227.85z"/>
<path style="fill:#FF4B4B;" d="M329.067,504.5H150.962c-4.447,0-8.325-3.022-9.412-7.334L97.846,323.833
	c-7.783-30.867-11.719-62.578-11.719-94.411v-1.573c0-2.681,2.173-4.854,4.854-4.854h299.947c2.681,0,4.854,2.173,4.854,4.854l0,0
	c0,32.869-4.197,65.604-12.488,97.41L338.46,497.242C337.346,501.517,333.485,504.5,329.067,504.5z"/>
<path d="M507.67,243.383l-58.242-27.179c-0.993-0.463-2.076-0.704-3.172-0.704h-25.238h-11.914v-13.855
	c0-14.84-12.074-26.914-26.914-26.914h-11.914v-11.914c0-14.84-12.074-26.914-26.914-26.914h-11.914v-11.914
	c0-14.84-12.074-26.914-26.914-26.914h-9.973V85.162c0-14.84-12.074-26.914-26.914-26.914h-21.355
	c-14.84,0-26.914,12.074-26.914,26.914v11.914h-11.914c-6.084,0-11.7,2.032-16.213,5.448l-1.69-7.304
	c-0.02-0.084-0.041-0.167-0.063-0.25l-20.099-75.01c-1.861-6.944-6.314-12.748-12.54-16.342c-6.226-3.595-13.48-4.549-20.423-2.689
	c-6.944,1.861-12.748,6.314-16.342,12.54c-3.595,6.226-4.55,13.479-2.689,20.422l20.098,75.01c0.022,0.083,0.046,0.167,0.071,0.249
	l10.936,35.825c-4.219,4.753-6.789,11.003-6.789,17.843v11.914h-11.327L89.18,97.298c-0.041-0.076-0.083-0.151-0.125-0.226
	L50.227,29.821c-3.595-6.226-9.398-10.679-16.342-12.54c-6.943-1.859-14.197-0.906-20.423,2.689
	C0.61,27.389-3.81,43.882,3.611,56.734l38.828,67.252c0.043,0.075,0.087,0.148,0.133,0.222l56.99,91.292h-8.581H65.743
	c-1.096,0-2.179,0.24-3.172,0.704L4.33,243.383c-3.753,1.751-5.376,6.214-3.624,9.968c1.273,2.727,3.978,4.33,6.801,4.33
	c1.062,0,2.141-0.227,3.167-0.706L67.408,230.5h11.229c0.088,32.065,4.099,64.078,11.938,95.17l18.365,72.837
	c0.857,3.401,3.912,5.668,7.267,5.668c0.607,0,1.224-0.074,1.839-0.229c4.017-1.013,6.452-5.09,5.439-9.106l-18.365-72.837
	c-7.538-29.894-11.402-60.674-11.49-91.503h10.942h145.892c4.142,0,7.5-3.358,7.5-7.5s-3.358-7.5-7.5-7.5H117.895v-13.855
	c0-6.569,5.345-11.914,11.914-11.914h19.385c0.01,0,0.019,0.001,0.029,0.001h91.245c4.142,0,7.5-3.358,7.5-7.5s-3.358-7.5-7.5-7.5
	h-83.746v-11.915c0-6.569,5.345-11.914,11.914-11.914h19.414c4.142,0,7.5-3.358,7.5-7.5v-19.414c0-6.569,5.345-11.914,11.914-11.914
	h19.414c4.142,0,7.5-3.358,7.5-7.5V85.162c0-6.569,5.345-11.914,11.914-11.914h21.355c6.569,0,11.914,5.345,11.914,11.914v19.414
	c0,4.142,3.358,7.5,7.5,7.5h17.473c6.569,0,11.914,5.345,11.914,11.914v11.914h-58.184c-4.142,0-7.5,3.358-7.5,7.5
	s3.358,7.5,7.5,7.5h65.684h19.414c6.569,0,11.914,5.345,11.914,11.914v19.414c0,4.142,3.358,7.5,7.5,7.5h19.414
	c6.569,0,11.914,5.345,11.914,11.914V215.5h-57.772c-4.142,0-7.5,3.358-7.5,7.5s3.358,7.5,7.5,7.5h71.096h10.934
	c-0.22,31.323-4.333,62.555-12.236,92.871l-44.833,171.98c-0.253,0.971-1.132,1.65-2.136,1.65H150.963
	c-1.013,0-1.893-0.686-2.14-1.667l-18.392-72.946c-1.013-4.017-5.091-6.453-9.106-5.439c-4.017,1.013-6.452,5.09-5.439,9.106
	L134.278,499c1.93,7.654,8.791,13,16.685,13h208.196c7.829,0,14.676-5.291,16.65-12.866l44.833-171.979
	c8.225-31.552,12.49-64.056,12.709-96.655h11.242l56.734,26.476c1.026,0.479,2.105,0.706,3.167,0.706
	c2.824,0,5.528-1.603,6.801-4.33C513.046,249.597,511.424,245.134,507.67,243.383z M133.086,20.968
	c1.591-2.756,4.16-4.727,7.234-5.551c3.073-0.825,6.285-0.401,9.04,1.19c2.756,1.591,4.727,4.16,5.551,7.234l18.158,67.766
	l-23.016,6.167l-18.158-67.766C131.073,26.934,131.495,23.724,133.086,20.968z M103.95,194.203L59.407,122.85l20.18-11.651
	l35.991,67.618C110.012,182.299,105.809,187.757,103.95,194.203z M20.962,32.96c5.688-3.285,12.99-1.328,16.275,4.361l35.078,60.757
	L51.68,109.992L16.601,49.234C13.316,43.545,15.273,36.244,20.962,32.96z M180.551,135.903h-11.914c-2.396,0-4.719,0.319-6.932,0.91
	l-7.515-24.618l22.508-6.031l3.37,14.571c0.126,0.544,0.312,1.058,0.543,1.543c-0.036,0.567-0.06,1.137-0.06,1.712L180.551,135.903
	L180.551,135.903z M315.918,203.586v116.483c0,9.245,7.522,16.767,16.767,16.767s16.767-7.522,16.767-16.767
	s-7.522-16.767-16.767-16.767c-4.142,0-7.5-3.358-7.5-7.5s3.358-7.5,7.5-7.5c17.516,0,31.767,14.251,31.767,31.767
	s-14.251,31.767-31.767,31.767s-31.767-14.251-31.767-31.767V203.586c0-4.142,3.358-7.5,7.5-7.5S315.918,199.444,315.918,203.586z
	 M255.029,405.224c-17.516,0-31.767-14.251-31.767-31.767c0-4.142,3.358-7.5,7.5-7.5s7.5,3.358,7.5,7.5
	c0,9.245,7.522,16.767,16.767,16.767c9.246,0,16.767-7.522,16.767-16.767V203.586c0-4.142,3.358-7.5,7.5-7.5s7.5,3.358,7.5,7.5
	v169.871C286.797,390.973,272.546,405.224,255.029,405.224z"/>
<g>
</g>
<g>
</g>
<g>
</g>
<g>
</g>
<g>
</g>
<g>
</g>
<g>
</g>
<g>
</g>
<g>
</g>
<g>
</g>
<g>
</g>
<g>
</g>
<g>
</g>
<g>
</g>
<g>
</g>
</svg>
