<svg height="512" viewBox="0 0 512 512" width="512" xmlns="http://www.w3.org/2000/svg"><g id="Fill_out_line" data-name="Fill out line"><path d="m154.177 82.177h203.647v203.647h-203.647z" fill="#d6323f" transform="matrix(.707 -.707 .707 .707 -55.127 234.912)"/><path d="m240 16h32v40h-32z" fill="#d6323f"/><path d="m112 184 24 24-8 8-3.31 3.32-.69.68a50.91169 50.91169 0 1 1 0-72l12 12-24 24-12-12a16.97056 16.97056 0 1 0 0 24l.69-.68z" fill="#e04446"/><path d="m474.91 184a50.91 50.91 0 0 1 -86.91 36l-12-12 24-24 12 12a16.97056 16.97056 0 1 0 0-24l-.68.69-11.32 11.31-24-24 8-8 3.32-3.31.68-.69a50.91 50.91 0 0 1 86.91 36z" fill="#e04446"/><path d="m184 112-18.34 18.34-8-8a7.85325 7.85325 0 0 0 -4.4-2.23 7.96957 7.96957 0 0 0 -9.15 9.15 7.853 7.853 0 0 0 2.23 4.4l8 8-18.34 18.34-8-8a31.96176 31.96176 0 0 1 -3.08-3.55 33.9328 33.9328 0 0 1 47.53-47.53 31.95549 31.95549 0 0 1 3.55 3.08z" fill="#d6323f"/><path d="m232 64-18.34 18.34-8-8a7.85325 7.85325 0 0 0 -4.4-2.23 7.96957 7.96957 0 0 0 -9.15 9.15 7.853 7.853 0 0 0 2.23 4.4l8 8-18.34 18.34-8-8a31.96176 31.96176 0 0 1 -3.08-3.55 33.9328 33.9328 0 0 1 47.53-47.53 31.95549 31.95549 0 0 1 3.55 3.08z" fill="#e04446"/><path d="m345.94 80a33.81991 33.81991 0 0 1 -6.86 20.45 31.96176 31.96176 0 0 1 -3.08 3.55l-8 8-18.34-18.34 8-8a7.853 7.853 0 0 0 2.23-4.4 7.96957 7.96957 0 0 0 -9.15-9.15 7.85325 7.85325 0 0 0 -4.4 2.23l-8 8-18.34-18.34 8-8a31.95549 31.95549 0 0 1 3.55-3.08 33.93445 33.93445 0 0 1 54.39 27.08z" fill="#e04446"/><path d="m393.94 128a33.81991 33.81991 0 0 1 -6.86 20.45 31.96176 31.96176 0 0 1 -3.08 3.55l-8 8-18.34-18.34 8-8a7.853 7.853 0 0 0 2.23-4.4 7.96957 7.96957 0 0 0 -9.15-9.15 7.85325 7.85325 0 0 0 -4.4 2.23l-8 8-18.34-18.34 8-8a31.95549 31.95549 0 0 1 3.55-3.08 33.93445 33.93445 0 0 1 54.39 27.08z" fill="#d6323f"/><path d="m384 264a33.92919 33.92919 0 0 1 -44.45 3.08 31.95489 31.95489 0 0 1 -3.55-3.08l-8-8 18.34-18.34 8 8a7.88534 7.88534 0 0 0 4.4 2.23 6.709 6.709 0 0 0 1.26.11 7.97847 7.97847 0 0 0 7.89-9.26 7.85313 7.85313 0 0 0 -2.23-4.4l-8-8 18.34-18.34 8 8a31.96176 31.96176 0 0 1 3.08 3.55 33.94951 33.94951 0 0 1 -3.08 44.45z" fill="#d6323f"/><path d="m336 312a33.92919 33.92919 0 0 1 -44.45 3.08 31.95489 31.95489 0 0 1 -3.55-3.08l-8-8 18.34-18.34 8 8a7.88534 7.88534 0 0 0 4.4 2.23 6.709 6.709 0 0 0 1.26.11 7.97847 7.97847 0 0 0 7.89-9.26 7.85313 7.85313 0 0 0 -2.23-4.4l-8-8 18.34-18.34 8 8a31.96176 31.96176 0 0 1 3.08 3.55 33.94951 33.94951 0 0 1 -3.08 44.45z" fill="#e04446"/><path d="m232 304-8 8a31.95489 31.95489 0 0 1 -3.55 3.08 33.93278 33.93278 0 0 1 -47.53-47.53 31.96176 31.96176 0 0 1 3.08-3.55l8-8 18.34 18.34-8 8a7.85313 7.85313 0 0 0 -2.23 4.4 7.97847 7.97847 0 0 0 7.89 9.26 6.709 6.709 0 0 0 1.26-.11 7.88534 7.88534 0 0 0 4.4-2.23l8-8z" fill="#e04446"/><path d="m184 256-8 8a31.95489 31.95489 0 0 1 -3.55 3.08 33.93278 33.93278 0 0 1 -47.53-47.53 31.96176 31.96176 0 0 1 3.08-3.55l8-8 18.34 18.34-8 8a7.85313 7.85313 0 0 0 -2.23 4.4 7.97847 7.97847 0 0 0 7.89 9.26 6.709 6.709 0 0 0 1.26-.11 7.88534 7.88534 0 0 0 4.4-2.23l8-8z" fill="#d6323f"/><path d="m240 312h32v48h-32z" fill="#d6323f"/><g fill="#e04446"><path d="m232 360h48a16 16 0 0 1 16 16v32a0 0 0 0 1 0 0h-80a0 0 0 0 1 0 0v-32a16 16 0 0 1 16-16z"/><path d="m143.029 143.029h33.941v33.941h-33.941z" transform="matrix(.707 -.707 .707 .707 -66.274 160)"/><path d="m191.029 95.029h33.941v33.941h-33.941z" transform="matrix(.707 -.707 .707 .707 -18.274 179.882)"/><path d="m239.029 47.029h33.941v33.941h-33.941z" transform="matrix(.707 -.707 .707 .707 29.726 199.765)"/><path d="m287.029 95.029h33.941v33.941h-33.941z" transform="matrix(.707 -.707 .707 .707 9.844 247.765)"/><path d="m239.029 95.029h33.941v33.941h-33.941z" transform="matrix(.707 -.707 .707 .707 -4.215 213.823)"/><path d="m335.029 143.029h33.941v33.941h-33.941z" transform="matrix(.707 -.707 .707 .707 -10.039 295.765)"/><path d="m287.029 143.029h33.941v33.941h-33.941z" transform="matrix(.707 -.707 .707 .707 -24.098 261.823)"/><path d="m191.029 143.029h33.941v33.941h-33.941z" transform="matrix(.707 -.707 .707 .707 -52.215 193.941)"/><path d="m239.029 143.029h33.941v33.941h-33.941z" transform="matrix(.707 -.707 .707 .707 -38.156 227.882)"/><path d="m335.029 191.029h33.941v33.941h-33.941z" transform="matrix(.707 -.707 .707 .707 -43.98 309.823)"/><path d="m287.029 239.029h33.941v33.941h-33.941z" transform="matrix(.707 -.707 .707 .707 -91.98 289.941)"/><path d="m239.029 287.029h33.941v33.941h-33.941z" transform="matrix(.707 -.707 .707 .707 -139.98 270.059)"/><path d="m191.029 239.029h33.941v33.941h-33.941z" transform="matrix(.707 -.707 .707 .707 -120.098 222.059)"/><path d="m239.029 239.029h33.941v33.941h-33.941z" transform="matrix(.707 -.707 .707 .707 -106.039 256)"/><path d="m143.029 191.029h33.941v33.941h-33.941z" transform="matrix(.707 -.707 .707 .707 -100.215 174.059)"/><path d="m191.029 191.029h33.941v33.941h-33.941z" transform="matrix(.707 -.707 .707 .707 -86.156 208)"/><path d="m287.029 191.029h33.941v33.941h-33.941z" transform="matrix(.707 -.707 .707 .707 -58.039 275.882)"/><path d="m239.029 191.029h33.941v33.941h-33.941z" transform="matrix(.707 -.707 .707 .707 -72.098 241.941)"/></g><path d="m216 392h80v32h-80z" fill="#fdca77"/><path d="m465.65674 142.34326a59.00011 59.00011 0 0 0 -63.74915-12.953c.015-.46283.03382-.925.03382-1.39026a41.909 41.909 0 0 0 -48.54932-41.3924 41.9207 41.9207 0 0 0 -71.04883-36.26434l-2.34326 2.34326v-36.68652h-16v20.68652l-2.34326-2.34326a8 8 0 0 0 -11.31348 0l-2.34326 2.34326v-20.68652h-16v36.68652l-2.34326-2.34326a41.92088 41.92088 0 0 0 -71.05347 36.23674 42.47854 42.47854 0 0 0 -6.60327-.52141 41.89425 41.89425 0 0 0 -41.88824 43.33893 58.88426 58.88426 0 1 0 0 109.20508 41.89424 41.89424 0 0 0 41.88824 43.33881 42.47854 42.47854 0 0 0 6.60327-.52143 41.93568 41.93568 0 0 0 71.05347 36.23676l2.34326-2.34326v38.06274a24.03837 24.03837 0 0 0 -16 22.62378v120h16v-64h16v64h16v-64h16v64h16v-120a24.03837 24.03837 0 0 0 -16-22.62378v-38.06274l2.34326 2.34326a41.92066 41.92066 0 0 0 71.04874-36.26474 42.27475 42.27475 0 0 0 6.608.52942 41.86095 41.86095 0 0 0 41.88824-43.31879 58.91045 58.91045 0 0 0 63.7685-96.25934zm-233.65674-67.02978 12.68652 12.68652-12.68652 12.68652-12.68652-12.68652zm60.68652 12.68652-12.68652 12.68652-12.68652-12.68652 12.68652-12.68652zm-36.68652 107.31348 12.68652 12.68652-12.68652 12.68652-12.68652-12.68652zm-24 1.373-12.68652-12.68648 12.68652-12.68652 12.68652 12.68652zm35.31348-12.68648 12.68652-12.68652 12.68652 12.68652-12.68652 12.68652zm24-24 12.68652-12.68652 12.68652 12.68652-12.68652 12.68652zm-11.31348-11.31348-12.68652-12.68652 12.68652-12.68652 12.68652 12.68652zm-11.31348 11.31348-12.68652 12.68652-12.68652-12.68652 12.68652-12.68652zm-36.68652-11.31348-12.68652-12.68652 12.68652-12.68652 12.68652 12.68652zm-11.31348 11.31348-12.68652 12.68652-12.68652-12.68652 12.68652-12.68652zm-24 24-12.68652 12.68652-12.68652-12.68652 12.68652-12.68652zm11.31348 11.31348 12.68652 12.68652-12.68652 12.68652-12.68652-12.68652zm24 24 12.68652 12.68652-12.68652 12.68652-12.68652-12.68652zm24 24 12.68652 12.68652-12.68652 12.68652-12.68652-12.68652zm11.31348-11.31348 12.68652-12.68652 12.68652 12.68652-12.68652 12.68652zm24-24 12.68652-12.68652 12.68652 12.68652-12.68652 12.68652zm24-24 12.68652-12.68652 12.68652 12.68652-12.68652 12.68652zm24-24 12.68652-12.68652 12.68652 12.68652-12.68652 12.68652zm-11.31348-11.31348-12.68652-12.68652 12.68652-12.68652 12.68652 12.68652zm-24-24-12.68652-12.68652 12.68652-12.68652 12.68652 12.68652zm-35.31348-12.68652-12.68652 12.68652-12.68652-12.68652 12.68652-12.68652zm-60.68652-12.68652 12.68652 12.68652-12.68652 12.68652-12.68652-12.68652zm-24 24 12.68652 12.68652-12.68652 12.68652-12.68652-12.68652zm-24 24 12.68652 12.68652-12.68652 12.68652-12.68652-12.68652zm-24 24 12.68652 12.68652-12.68652 12.68652-12.68652-12.68652zm24 24 12.68652 12.68652-12.68652 12.68652-12.68652-12.68652zm24 24 12.68652 12.68652-12.68652 12.68652-12.68652-12.68652zm24 24 12.68652 12.68652-12.68652 12.68652-12.68652-12.68652zm24 24 12.68652 12.68652-12.68652 12.68652-12.68652-12.68652zm11.31348 36.68652 12.68652-12.68652 12.68652 12.68652-12.68652 12.68652zm36.68652-11.31348-12.68652-12.68652 12.68652-12.68652 12.68652 12.68652zm24-24-12.68652-12.68652 12.68652-12.68652 12.68652 12.68652zm24-24-12.68652-12.68652 12.68652-12.68652 12.68652 12.68652zm24-24-12.68652-12.68652 12.68652-12.68652 12.68652 12.68652zm24-24-12.68652-12.68652 12.68652-12.68652 12.68652 12.68652zm2.34326-87.02978a25.97112 25.97112 0 0 1 0 36.68652l-2.34326 2.34326-12.68652-12.68652 2.34326-2.34326a7.99984 7.99984 0 1 0 -11.31348-11.31348l-2.34326 2.34326-12.68652-12.68652 2.34326-2.34326a25.97112 25.97112 0 0 1 36.68652 0zm-84.68652-48a25.94129 25.94129 0 1 1 36.68652 36.68652l-2.34326 2.34326-12.68652-12.68652 2.34326-2.34326a7.99984 7.99984 0 0 0 -11.31348-11.31348l-2.34326 2.34326-12.68652-12.68652zm-37.65674-10.34326 12.68652 12.68652-12.68652 12.68652-12.68652-12.68652zm-74.34326 10.34326a25.97112 25.97112 0 0 1 36.68652 0l2.34326 2.34326-12.68652 12.68652-2.34326-2.34326a7.99984 7.99984 0 1 0 -11.31348 11.31348l2.34326 2.34326-12.68652 12.68652-2.34326-2.34326a25.97112 25.97112 0 0 1 0-36.68652zm-48 48a25.97112 25.97112 0 0 1 36.68652 0l2.34326 2.34326-12.68652 12.68652-2.34326-2.34326a7.99984 7.99984 0 1 0 -11.31348 11.31348l2.34326 2.34326-12.68652 12.68652-2.34326-2.34326a25.97112 25.97112 0 0 1 0-36.68652zm-15.31348 104.68652a42.91185 42.91185 0 1 1 0-60.68652l6.34326 6.34326-12.68652 12.68652-6.34326-6.34326a24.959 24.959 0 1 0 0 35.31348l6.34326-6.34326 12.68652 12.68652zm-17.65674-30.34326-6.34326 6.34326a8.96631 8.96631 0 1 1 0-12.68652zm32.97022 74.34326a25.97112 25.97112 0 0 1 0-36.68652l2.34326-2.34326 12.68652 12.68652-2.34326 2.34326a7.99984 7.99984 0 1 0 11.31348 11.31348l2.34326-2.34326 12.68652 12.68652-2.34326 2.34326a25.97112 25.97112 0 0 1 -36.68652 0zm84.68652 48a25.94129 25.94129 0 0 1 -36.68652-36.68652l2.34326-2.34326 12.68652 12.68652-2.34326 2.34326a7.99984 7.99984 0 1 0 11.31348 11.31348l2.34326-2.34326 12.68652 12.68652zm13.65674 69.65674a8.00917 8.00917 0 0 1 8-8h32a8.00917 8.00917 0 0 1 8 8v8h-48zm0 24h48v16h-48zm32-48h-16v-20.68652l2.34326 2.34326a7.99945 7.99945 0 0 0 11.31348 0l2.34326-2.34326zm66.34326-45.65674a25.97112 25.97112 0 0 1 -36.68652 0l-2.34326-2.34326 12.68652-12.68652 2.34326 2.34326a7.99984 7.99984 0 1 0 11.31348-11.31348l-2.34326-2.34326 12.68652-12.68652 2.34326 2.34326a25.97112 25.97112 0 0 1 0 36.68652zm48-48a25.97112 25.97112 0 0 1 -36.68652 0l-2.34326-2.34326 12.68652-12.68652 2.34326 2.34326a7.99984 7.99984 0 1 0 11.31348-11.31348l-2.34326-2.34326 12.68652-12.68652 2.34326 2.34326a25.97112 25.97112 0 0 1 0 36.68652zm76-44a42.96023 42.96023 0 0 1 -60.68652 0l-.27722.27722a42.07768 42.07768 0 0 0 -3.72278-4.27722l-2.34326-2.34326 12.68652-12.68652 6.34326 6.34326a24.9704 24.9704 0 1 0 0-35.31348l-6.34326 6.34326-12.68652-12.68652 2.34326-2.34326a42.55722 42.55722 0 0 0 3.72726-4.27274l.27277.27277a42.91185 42.91185 0 0 1 60.68652 60.68652zm-43.02978-30.34326 6.34326-6.34326a8.97072 8.97072 0 1 1 0 12.68652z"/></g></svg>