<?xml version="1.0" encoding="iso-8859-1"?>
<!-- Generator: Adobe Illustrator 19.0.0, SVG Export Plug-In . SVG Version: 6.00 Build 0)  -->
<svg version="1.1" id="Capa_1" xmlns="http://www.w3.org/2000/svg" xmlns:xlink="http://www.w3.org/1999/xlink" x="0px" y="0px"
	 viewBox="0 0 512 512" style="enable-background:new 0 0 512 512;" xml:space="preserve">
<path style="fill:#FFCF65;" d="M473.819,46.328h-29.043c5.347,0,9.681,4.346,9.681,9.707v19.414c0,5.361-4.334,9.707-9.681,9.707
	h29.043c5.347,0,9.681,4.346,9.681,9.707v19.414c0,5.361-4.334,9.707-9.681,9.707h-29.043c5.347,0,9.681,4.346,9.681,9.707v19.414
	c0,5.361-4.334,9.707-9.681,9.707h29.043c5.347,0,9.681,4.346,9.681,9.707v19.414c0,5.361-4.334,9.707-9.681,9.707h-29.043
	c5.347,0,9.681,4.346,9.681,9.707v19.414c0,5.361-4.334,9.707-9.681,9.707c5.347,0,9.681,4.346,9.681,9.707v19.414
	c0,5.361-4.334,9.707-9.681,9.707h29.043c5.347,0,9.681,4.346,9.681,9.707v19.414c0,5.361-4.334,9.707-9.681,9.707h-29.043
	c5.347,0,9.681,4.346,9.681,9.707v19.414c0,5.361-4.334,9.707-19.368,9.707h-232.34c4.34,0,0.006-4.346,0.006-9.707v-19.414
	c0-5.361,4.334-9.707,9.681-9.707h19.356c-5.347,0-9.681-4.346-9.681-9.707v-19.414c0-5.361,4.334-9.707,9.681-9.707h-19.356
	c-5.347,0-9.681-4.346-9.681-9.707v-19.414c0-5.361,4.334-9.707,9.681-9.707c-5.347,0-9.681-4.346-9.681-9.707v-19.414
	c0-5.361,4.334-9.707,9.681-9.707h29.043c-5.347,0-9.681-4.346-9.681-9.707V172.52c0-5.361,4.334-9.707,9.681-9.707h-29.043
	c-5.347,0-9.681-4.346-9.681-9.707v-19.414c0-5.361,4.334-9.707,9.681-9.707h29.043c-5.347,0-9.681-4.346-9.681-9.707V94.863
	c0-5.361,4.334-9.707,9.681-9.707h-29.043c-5.347,0-9.681-4.346-9.681-9.707V56.035c0-5.361,4.334-9.707,9.681-9.707h29.043
	c-5.347,0-9.681-4.346-9.681-9.707V17.207c0-5.361,4.334-9.707,9.681-9.707h232.34c5.347,0,9.681,4.346,9.681,9.707v19.414
	C483.5,41.982,479.165,46.328,473.819,46.328z"/>
<path style="fill:#FFB450;" d="M473.819,46.328h-29.043c5.347,0,9.681,4.346,9.681,9.707v19.414c0,5.361-4.334,9.707-9.681,9.707
	h29.043c5.347,0,9.681,4.346,9.681,9.707v19.414c0,5.361-4.334,9.707-9.681,9.707h-29.043c5.347,0,9.681,4.346,9.681,9.707v19.414
	c0,5.361-4.334,9.707-9.681,9.707h29.043c5.347,0,9.681,4.346,9.681,9.707v19.414c0,5.361-4.334,9.707-9.681,9.707h-29.043
	c5.347,0,9.681,4.346,9.681,9.707v19.414c0,5.361-4.334,9.707-9.681,9.707c5.347,0,9.681,4.346,9.681,9.707v19.414
	c0,5.361-4.334,9.707-9.681,9.707h29.043c5.347,0,9.681,4.346,9.681,9.707v19.414c0,5.361-4.334,9.707-9.681,9.707h-29.043
	c5.347,0,9.681,4.346,9.681,9.707v19.414c0,5.361-4.334,9.707-19.368,9.707h-31.947c15.034,0,19.368-4.346,19.368-9.707v-19.414
	c0-5.361-4.334-9.707-9.681-9.707h29.043c5.347,0,9.681-4.346,9.681-9.707v-19.414c0-5.361-4.334-9.707-9.681-9.707h-29.042
	c5.347,0,9.681-4.346,9.681-9.707v-19.414c0-5.361-4.334-9.707-9.681-9.707c5.347,0,9.681-4.346,9.681-9.707v-19.414
	c0-5.361-4.334-9.707-9.681-9.707h29.043c5.347,0,9.681-4.346,9.681-9.707V172.52c0-5.361-4.334-9.707-9.681-9.707h-29.043
	c5.347,0,9.681-4.346,9.681-9.707v-19.414c0-5.361-4.334-9.707-9.681-9.707h29.043c5.347,0,9.681-4.346,9.681-9.707V94.863
	c0-5.361-4.334-9.707-9.681-9.707h-29.043c5.347,0,9.681-4.346,9.681-9.707V56.035c0-5.361-4.334-9.707-9.681-9.707h29.043
	c5.347,0,9.681-4.346,9.681-9.707V17.207c0-5.361-4.334-9.707-9.681-9.707h31.947c5.347,0,9.681,4.346,9.681,9.707v19.414
	C483.5,41.982,479.165,46.328,473.819,46.328z"/>
<path style="fill:#F0C087;" d="M483.5,289.004v19.414c0,5.361-4.334,9.707-9.681,9.707H220.826c-5.347,0-9.681-4.346-9.681-9.707
	v-19.414c0-5.361,4.334-9.707,9.681-9.707h252.993C479.165,279.297,483.5,283.643,483.5,289.004z M473.819,162.813h-232.34
	c-5.347,0-9.681,4.346-9.681,9.707v19.414c0,5.361,4.334,9.707,9.681,9.707h-29.043c-5.347,0-9.681,4.346-9.681,9.707v19.414
	c0,5.361,4.334,9.707,9.681,9.707h232.34c5.347,0,9.681-4.346,9.681-9.707v-19.414c0-5.361-4.334-9.707-9.681-9.707h29.043
	c5.347,0,9.681-4.346,9.681-9.707V172.52C483.5,167.158,479.165,162.813,473.819,162.813z M473.819,85.156h-29.043
	c5.347,0,9.681-4.346,9.681-9.707V56.035c0-5.361-4.334-9.707-9.681-9.707h-232.34c-5.347,0-9.681,4.346-9.681,9.707v19.414
	c0,5.361,4.334,9.707,9.681,9.707h29.043c-5.347,0-9.681,4.346-9.681,9.707v19.414c0,5.361,4.334,9.707,9.681,9.707h232.34
	c5.347,0,9.681-4.346,9.681-9.707V94.863C483.5,89.502,479.165,85.156,473.819,85.156z"/>
<path style="fill:#E6AF78;" d="M483.5,289.004v19.414c0,5.361-4.334,9.707-9.681,9.707H442.84c5.347,0,9.681-4.346,9.681-9.707
	v-19.414c0-5.361-4.334-9.707-9.681-9.707h30.979C479.165,279.297,483.5,283.643,483.5,289.004z M473.819,162.813H442.84
	c5.347,0,9.681,4.346,9.681,9.707v19.414c0,5.361-4.334,9.707-9.681,9.707h-29.043c5.347,0,9.681,4.346,9.681,9.707v19.414
	c0,5.361-4.334,9.707-9.681,9.707h30.979c5.347,0,9.681-4.346,9.681-9.707v-19.414c0-5.361-4.334-9.707-9.681-9.707h29.043
	c5.347,0,9.681-4.346,9.681-9.707V172.52C483.5,167.158,479.165,162.813,473.819,162.813z M473.819,85.156h-29.043
	c5.347,0,9.681-4.346,9.681-9.707V56.035c0-5.361-4.334-9.707-9.681-9.707h-30.979c5.347,0,9.681,4.346,9.681,9.707v19.414
	c0,5.361-4.334,9.707-9.681,9.707h29.043c5.347,0,9.681,4.346,9.681,9.707v19.414c0,5.361-4.334,9.707-9.681,9.707h30.979
	c5.347,0,9.681-4.346,9.681-9.707V94.863C483.5,89.502,479.165,85.156,473.819,85.156z"/>
<path style="fill:#D5945E;" d="M483.5,172.52v19.414c0,5.361-4.334,9.707-9.681,9.707h-232.34c-5.347,0-9.681-4.346-9.681-9.707
	V172.52c0-5.361,4.334-9.707,9.681-9.707h232.34C479.165,162.813,483.5,167.158,483.5,172.52z M473.819,85.156h-232.34
	c-5.347,0-9.681,4.346-9.681,9.707v19.414c0,5.361,4.334,9.707,9.681,9.707h232.34c5.347,0,9.681-4.346,9.681-9.707V94.863
	C483.5,89.502,479.165,85.156,473.819,85.156z"/>
<path style="fill:#CE8855;" d="M483.5,172.52v19.414c0,5.361-4.334,9.707-9.681,9.707h-29.365c5.346,0,9.681-4.346,9.681-9.707
	V172.52c0-5.361-4.334-9.707-9.681-9.707h29.365C479.165,162.813,483.5,167.158,483.5,172.52z M473.819,85.156h-29.365
	c5.346,0,9.681,4.346,9.681,9.707v19.414c0,5.361-4.334,9.707-9.681,9.707h29.365c5.347,0,9.681-4.346,9.681-9.707V94.863
	C483.5,89.502,479.165,85.156,473.819,85.156z"/>
<path style="fill:#E6AF78;" d="M154.351,504.5C84.845,504.5,28.5,448.002,28.5,378.309s56.345-126.191,125.851-126.191
	s125.851,56.498,125.851,126.191S223.857,504.5,154.351,504.5z"/>
<path style="fill:#D5945E;" d="M280.202,378.309c0,69.694-56.345,126.191-125.851,126.191c-4.316,0-8.579-0.224-12.782-0.652
	c63.459-6.464,112.979-60.203,112.979-125.539s-49.52-119.075-112.979-125.539c4.203-0.428,8.466-0.652,12.782-0.652
	C223.857,252.117,280.202,308.615,280.202,378.309z"/>
<path style="fill:#FFCF65;" d="M154.351,470.525c-50.793,0-91.968-41.287-91.968-92.217s41.176-92.217,91.968-92.217
	s91.968,41.287,91.968,92.217S205.144,470.525,154.351,470.525z"/>
<path d="M491,36.328V17.5C491,7.851,483.148,0,473.5,0H241.798c-9.649,0-17.5,7.851-17.5,17.5v18.828c0,0.851,0.082,1.681,0.2,2.5
	h-12.062c-9.474,0-17.181,7.719-17.181,17.207v19.414c0,9.488,7.707,17.207,17.181,17.207h12.019
	c-0.093,0.724-0.158,1.458-0.158,2.207v19.414c0,0.75,0.064,1.483,0.158,2.207h-11.7c-9.649,0-17.5,7.851-17.5,17.5v18.828
	c0,9.649,7.851,17.5,17.5,17.5h11.7c-0.093,0.724-0.158,1.458-0.158,2.207v19.414c0,0.75,0.064,1.483,0.158,2.207h-12.019
	c-9.474,0-17.181,7.719-17.181,17.207v19.414c0,3.6,1.113,6.942,3.008,9.707c-1.894,2.766-3.008,6.107-3.008,9.707v0.884
	c-12.896-4.176-26.64-6.443-40.904-6.443C80.821,244.617,21,304.591,21,378.309S80.821,512,154.351,512
	s133.351-59.974,133.351-133.691c0-4.678-0.243-9.3-0.713-13.855h157.788c9.474,0,17.181-7.719,17.181-17.207v-19.414
	c0-0.75-0.064-1.483-0.158-2.207h12.02c9.474,0,17.181-7.719,17.181-17.207v-19.414c0-9.488-7.707-17.207-17.181-17.207h-12.02
	c0.093-0.724,0.158-1.458,0.158-2.207v-19.414c0-3.6-1.114-6.942-3.008-9.707c1.894-2.766,3.008-6.107,3.008-9.707v-19.414
	c0-0.75-0.064-1.483-0.158-2.207h12.02c9.474,0,17.181-7.719,17.181-17.207V172.52c0-9.488-7.707-17.207-17.181-17.207h-12.062
	c0.118-0.819,0.2-1.649,0.2-2.5v-18.828c0-0.851-0.082-1.681-0.2-2.5h12.062c9.474,0,17.181-7.719,17.181-17.207V94.863
	c0-9.488-7.707-17.207-17.181-17.207h-12.02c0.093-0.724,0.158-1.458,0.158-2.207V56.035c0-0.75-0.064-1.483-0.158-2.207h11.7
	C483.148,53.828,491,45.978,491,36.328z M212.755,155.313c-1.378,0-2.5-1.122-2.5-2.5v-18.828c0-1.378,1.122-2.5,2.5-2.5h226.212
	h5.49c1.378,0,2.5,1.122,2.5,2.5v18.828c0,1.378-1.122,2.5-2.5,2.5h-3.553H212.755z M210.255,211.348
	c0-1.217,0.978-2.207,2.181-2.207h229.92h2.42c1.203,0,2.181,0.99,2.181,2.207v19.414c0,1.217-0.979,2.207-2.181,2.207h-232.34
	c-1.203,0-2.181-0.99-2.181-2.207L210.255,211.348L210.255,211.348z M154.351,497C89.092,497,36,443.755,36,378.309
	s53.092-118.691,118.351-118.691s118.351,53.245,118.351,118.691S219.61,497,154.351,497z M446.958,347.246
	c0,1.217-0.979,2.207-2.181,2.207H284.565c-1.818-8.253-4.396-16.222-7.662-23.828h167.874c1.203,0,2.181,0.99,2.181,2.207V347.246z
	 M473.819,286.797c1.203,0,2.181,0.99,2.181,2.207v19.414c0,1.217-0.978,2.207-2.181,2.207h-27.106
	c-0.294,0-0.583,0.021-0.868,0.054c-0.355-0.022-0.708-0.054-1.068-0.054h-175.47c-5.06-8.604-11.05-16.594-17.836-23.828h133.931
	c4.142,0,7.5-3.358,7.5-7.5s-3.358-7.5-7.5-7.5H241.479c-1.873,0-3.711,0.313-5.46,0.9c-7.926-6.174-16.562-11.47-25.763-15.747
	v-6.774c0-1.217,0.978-2.207,2.181-2.207h232.34c1.203,0,2.181,0.99,2.181,2.207v19.414c0,1.217-0.979,2.207-2.181,2.207h-30.978
	c-4.142,0-7.5,3.358-7.5,7.5s3.358,7.5,7.5,7.5L473.819,286.797L473.819,286.797z M473.819,170.313c1.203,0,2.181,0.99,2.181,2.207
	v19.414c0,1.217-0.978,2.207-2.181,2.207h-29.043h-2.42H241.479c-1.203,0-2.181-0.99-2.181-2.207V172.52
	c0-1.217,0.978-2.207,2.181-2.207h199.426h3.553H473.819z M473.819,92.656c1.203,0,2.181,0.99,2.181,2.207v19.414
	c0,1.217-0.978,2.207-2.181,2.207h-29.362h-5.49H241.479c-1.203,0-2.181-0.99-2.181-2.207V94.863c0-1.217,0.978-2.207,2.181-2.207
	h38.239c4.142,0,7.5-3.358,7.5-7.5s-3.358-7.5-7.5-7.5h-67.282c-1.203,0-2.181-0.99-2.181-2.207V56.035
	c0-1.217,0.978-2.207,2.181-2.207h29.362h4.521h198.457c1.203,0,2.181,0.99,2.181,2.207v19.414c0,1.217-0.979,2.207-2.181,2.207
	h-8.713h-125.85c-4.142,0-7.5,3.358-7.5,7.5s3.358,7.5,7.5,7.5h125.851h8.713H473.819z M246.319,38.828h-4.521
	c-1.378,0-2.5-1.122-2.5-2.5V17.5c0-1.378,1.122-2.5,2.5-2.5H473.5c1.378,0,2.5,1.122,2.5,2.5v18.828c0,1.378-1.122,2.5-2.5,2.5
	H246.319z M253.819,378.309c0,54.984-44.621,99.717-99.468,99.717s-99.468-44.733-99.468-99.717c0-24.348,8.85-47.794,24.92-66.019
	c2.739-3.106,7.478-3.405,10.586-0.665c3.107,2.74,3.404,7.479,0.665,10.586c-13.652,15.482-21.171,35.405-21.171,56.098
	c0,46.713,37.892,84.717,84.468,84.717s84.468-38.004,84.468-84.717s-37.892-84.717-84.468-84.717
	c-15.494,0-30.643,4.242-43.807,12.268c-3.538,2.157-8.152,1.036-10.308-2.5c-2.156-3.537-1.037-8.152,2.5-10.308
	c15.517-9.46,33.366-14.46,51.615-14.46C209.198,278.592,253.819,323.325,253.819,378.309z M199.32,331.984l-30.976,46.59h15.05
	c4.142,0,7.5,3.358,7.5,7.5s-3.358,7.5-7.5,7.5h-21.542v14.121h21.542c4.142,0,7.5,3.358,7.5,7.5s-3.358,7.5-7.5,7.5h-21.542v21.621
	c0,4.142-3.358,7.5-7.5,7.5s-7.5-3.358-7.5-7.5v-21.621H125.31c-4.142,0-7.5-3.358-7.5-7.5s3.358-7.5,7.5-7.5h21.542v-14.121H125.31
	c-4.142,0-7.5-3.358-7.5-7.5s3.358-7.5,7.5-7.5h15.05l-30.976-46.59c-2.293-3.449-1.356-8.104,2.093-10.398
	s8.105-1.357,10.398,2.093l32.478,48.849l32.478-48.849c2.294-3.449,6.95-4.386,10.398-2.093
	C200.677,323.88,201.614,328.535,199.32,331.984z"/>
<g>
</g>
<g>
</g>
<g>
</g>
<g>
</g>
<g>
</g>
<g>
</g>
<g>
</g>
<g>
</g>
<g>
</g>
<g>
</g>
<g>
</g>
<g>
</g>
<g>
</g>
<g>
</g>
<g>
</g>
</svg>
