<?xml version="1.0"?>
<svg xmlns="http://www.w3.org/2000/svg" viewBox="0 0 512 512" width="512" height="512"><g id="Fill_out_line" data-name="Fill out line"><path d="M440,328q0,8.085-.68994,16H72.69Q72,336.095,72,328a183.52637,183.52637,0,0,1,58.07-134.16q3.15-2.955,6.43-5.76,3.345-2.865,6.84-5.56a182.53644,182.53644,0,0,1,33.53-20.67,183.73615,183.73615,0,0,1,176.51,10.01h.01a181.03821,181.03821,0,0,1,15.29993,10.68q3.46509,2.685,6.8,5.54,3.29992,2.80507,6.45,5.78A183.45593,183.45593,0,0,1,440,328Z" style="fill:#fab53f"/><path d="M375.49,188.08A271.55719,271.55719,0,0,1,256,215.71a271.63224,271.63224,0,0,1-119.5-27.63q3.345-2.865,6.84-5.56a182.53644,182.53644,0,0,1,33.53-20.67,183.73615,183.73615,0,0,1,176.51,10.01h.01a181.03821,181.03821,0,0,1,15.29993,10.68Q372.155,185.22495,375.49,188.08Z" style="fill:#fdca77"/><path d="M353.38,171.86A247.19322,247.19322,0,0,1,256,191.71a247.29925,247.29925,0,0,1-97.36-19.87,182.62466,182.62466,0,0,1,18.23-9.99A231.74886,231.74886,0,0,0,256,175.71a231.42546,231.42546,0,0,0,79.14-13.86A182.94678,182.94678,0,0,1,353.38,171.86Z" style="fill:#fab53f"/><path d="M381.93994,193.86A278.07257,278.07257,0,0,1,256,223.71a278.63559,278.63559,0,0,1-125.93-29.87q6.36-5.97,13.27-11.32A262.81638,262.81638,0,0,0,256,207.71a262.51967,262.51967,0,0,0,112.68994-25.17Q375.59009,187.88,381.93994,193.86Z" style="fill:#fca529"/><path d="M488,179.83v12.81q0,3.315-.07007,6.62a304.09431,304.09431,0,0,1-71.85986,189.75L400,408H112L95.93,389.01A304.09444,304.09444,0,0,1,24.07,199.26q-.075-3.3-.07-6.62V179.83a16.72863,16.72863,0,0,1,.12-2.02,16.00643,16.00643,0,0,1,26.56-9.89l2.39,2.14c115.48,103.53,290.37994,103.53,405.85992,0l2.39014-2.14A16.00639,16.00639,0,0,1,487.88,177.81,16.74089,16.74089,0,0,1,488,179.83Z" style="fill:#fdca77"/><path d="M488,179.83v12.81q0,3.315-.07007,6.62A347.57012,347.57012,0,0,1,256,287.81,347.57039,347.57039,0,0,1,24.07,199.26q-.075-3.3-.07-6.62V179.83a16.72863,16.72863,0,0,1,.12-2.02L34.38,187A331.50512,331.50512,0,0,0,256,271.81,331.50523,331.50523,0,0,0,477.62,187l10.26-9.19A16.74089,16.74089,0,0,1,488,179.83Z" style="fill:#fab53f"/><path d="M24,312h0a40,40,0,0,1,40,40v0a40,40,0,0,1,40-40h0a40,40,0,0,1-40-40v0a40,40,0,0,1-40,40Z" style="fill:#fbd79d"/><path d="M176,136h0a40,40,0,0,1,40,40v0a40,40,0,0,1,40-40h0a40,40,0,0,1-40-40v0a40,40,0,0,1-40,40Z" style="fill:#fbd79d"/><path d="M481.78467,157.919a23.72568,23.72568,0,0,0-25.80615,4.04492l-2.38526,2.13916A296.375,296.375,0,0,1,400.7688,201.8952a191.1793,191.1793,0,0,0-136.77808-65.7127c.00147-.06128.00928-.12092.00928-.1825a7.99977,7.99977,0,0,0-8-8,32.036,32.036,0,0,1-32-32,8,8,0,0,0-16,0,32.036,32.036,0,0,1-32,32,8,8,0,0,0,0,16,31.7916,31.7916,0,0,1,14.46527,3.47021,190.94832,190.94832,0,0,0-79.23852,54.42237A296.36557,296.36557,0,0,1,58.40723,164.103L56.021,161.96387A24.00011,24.00011,0,0,0,16,179.834v12.8086A310.50385,310.50385,0,0,0,35.70886,301.77173,31.81922,31.81922,0,0,1,24,304a8,8,0,0,0,0,16,32.036,32.036,0,0,1,32,32,7.99977,7.99977,0,0,0,8,8c.22662,0,.4494-.01544.67126-.03394a312.87159,312.87159,0,0,0,25.15247,34.21021l16.06934,18.99121A8,8,0,0,0,112,416H400a8,8,0,0,0,6.10693-2.83252l16.06934-18.99121A312.37482,312.37482,0,0,0,496,192.64258V179.834A23.72178,23.72178,0,0,0,481.78467,157.919ZM216,122.50732A48.39193,48.39193,0,0,0,229.49268,136,48.39193,48.39193,0,0,0,216,149.49268,48.39193,48.39193,0,0,0,202.50732,136,48.39193,48.39193,0,0,0,216,122.50732Zm-12.35077,37.41321A31.79349,31.79349,0,0,1,208,176a8,8,0,0,0,16,0,31.89558,31.89558,0,0,1,9.29291-22.52228A178.42282,178.42282,0,0,1,256,152a175.94328,175.94328,0,0,1,67.90076,13.56555A231.10959,231.10959,0,0,1,256,175.71c-5.13916,0-10.34375-.17285-15.46924-.51367l-1.06152,15.96484c5.477.36426,11.03906.54883,16.53076.54883a246.89,246.89,0,0,0,88.06885-16.15472,175.1163,175.1163,0,0,1,16.2666,10.66028A265.65434,265.65434,0,0,1,256,207.71a263.36455,263.36455,0,0,1-88.499-15.24707l-5.36231,15.07422A279.3167,279.3167,0,0,0,256,223.71,281.59555,281.59555,0,0,0,374.17334,197.5697q6.25781,5.6835,12.022,11.9953A295.67441,295.67441,0,0,1,256,239.71a295.67386,295.67386,0,0,1-130.18842-30.14172A174.89591,174.89591,0,0,1,203.64923,159.92053ZM50.50732,312A48.39193,48.39193,0,0,0,64,298.50732,48.39193,48.39193,0,0,0,77.49268,312,48.39193,48.39193,0,0,0,64,325.49268,48.39193,48.39193,0,0,0,50.50732,312ZM409.9624,383.84131,396.28955,400H115.71045L102.0376,383.84131a296.81266,296.81266,0,0,1-28.8197-40.56256A32.05017,32.05017,0,0,1,104,320a8,8,0,0,0,0-16,32.036,32.036,0,0,1-32-32,8,8,0,0,0-16,0,31.83358,31.83358,0,0,1-6.88281,19.79193A294.51845,294.51845,0,0,1,32,192.64258V179.834a8,8,0,0,1,13.33984-5.957l2.38623,2.13916A311.568,311.568,0,0,0,256,255.71a311.57008,311.57008,0,0,0,208.27441-79.69385l2.38526-2.13916A8.00023,8.00023,0,0,1,480,179.834v5.03974l-2.375,2.12921a331.04305,331.04305,0,0,1-95.001,59.772,331.19772,331.19772,0,0,1-106.03369,24.395A333.26766,333.26766,0,0,1,68.523,213.84033l-9.0459,13.19727a345.69691,345.69691,0,0,0,105.12109,48.59326,347.94567,347.94567,0,0,0,91.2959,12.1792q10.82667,0,21.68408-.6709a347.14654,347.14654,0,0,0,111.14454-25.57227,346.542,346.542,0,0,0,90.95056-55.18463A296.39008,296.39008,0,0,1,409.9624,383.84131Z"/></g></svg>
