<?xml version="1.0" encoding="iso-8859-1"?>
<!-- Generator: Adobe Illustrator 19.0.0, SVG Export Plug-In . SVG Version: 6.00 Build 0)  -->
<svg version="1.1" id="Capa_1" xmlns="http://www.w3.org/2000/svg" xmlns:xlink="http://www.w3.org/1999/xlink" x="0px" y="0px"
	 viewBox="0 0 511.999 511.999" style="enable-background:new 0 0 511.999 511.999;" xml:space="preserve">
<path style="fill:#D5945E;" d="M241.439,473.439V249.206h29.121v224.232L241.439,473.439L241.439,473.439z"/>
<path style="fill:#FFB450;" d="M504.5,166.454L504.5,166.454c0,3.073-2.185,5.719-5.206,6.28
	C430.468,185.509,346.557,193.012,256,193.012S81.532,185.51,12.706,172.734c-3.021-0.561-5.206-3.207-5.206-6.28l0,0
	c0-2.567,1.536-4.885,3.901-5.885L256,57.113l244.599,103.455C502.964,161.569,504.5,163.887,504.5,166.454z"/>
<path style="fill:#FF9744;" d="M230.718,67.807L256,57.113l244.599,103.455c2.364,1,3.901,3.318,3.901,5.886
	c0,3.072-2.185,5.719-5.206,6.279c-4.741,0.88-9.56,1.733-14.441,2.562L230.718,67.807z"/>
<path style="fill:#FFCF65;" d="M131.188,188.073L256,57.733l124.812,130.34c-39.455,3.208-81.365,4.939-124.812,4.939
	S170.643,191.281,131.188,188.073z"/>
<path style="fill:#C37A4F;" d="M278.278,418.061c0,6.336-2.649,12.05-6.896,16.106l5.309,54.154
	c0.85,8.669-5.961,16.18-14.671,16.18h-12.042c-8.71,0-15.521-7.512-14.671-16.18l5.309-54.154
	c-4.246-4.057-6.896-9.77-6.896-16.106c0-12.304,9.974-22.278,22.278-22.278C268.304,395.782,278.278,405.757,278.278,418.061z
	 M277.142,47.788h-0.503c-0.973-8.189-3.354-16.171-7.061-23.585l-6.014-12.028c-3.117-6.233-12.011-6.233-15.128,0l-6.014,12.028
	c-3.707,7.414-6.088,15.396-7.061,23.585h-0.503c-7.006,0-12.685,5.679-12.685,12.685s5.679,12.685,12.685,12.685h42.284
	c7.006,0,12.685-5.679,12.685-12.685S284.148,47.788,277.142,47.788z"/>
<path d="M503.521,153.661L296.512,66.105c0.521-1.79,0.815-3.676,0.815-5.631c0-9.02-5.947-16.677-14.126-19.257
	c-1.363-7.069-3.681-13.898-6.915-20.367l-6.015-12.027c-2.719-5.442-8.188-8.822-14.271-8.822s-11.552,3.38-14.271,8.82
	l-6.015,12.028c-3.234,6.469-5.552,13.298-6.915,20.367c-8.179,2.58-14.126,10.237-14.126,19.257c0,1.956,0.294,3.842,0.815,5.631
	L8.48,153.66C3.329,155.839,0,160.86,0,166.454c0,6.692,4.769,12.435,11.337,13.653c32.125,5.964,66.79,10.667,103.167,14.051
	c-2.826,2.989-2.72,7.702,0.252,10.558c1.454,1.397,3.326,2.092,5.195,2.092c1.97,0,3.937-0.771,5.409-2.304l8.354-8.694
	c18.082,1.428,36.54,2.537,55.281,3.317c3.088,7.997,6.554,15.906,10.376,23.552c7.353,14.706,19.769,25.612,34.566,31.073v144.327
	c-4.793,5.287-7.718,12.299-7.718,19.98c0,6.912,2.322,13.427,6.605,18.702l-4.983,50.827c-0.611,6.233,1.451,12.47,5.659,17.109
	c4.207,4.641,10.213,7.302,16.477,7.302h12.041c6.264,0,12.27-2.661,16.477-7.302c4.208-4.64,6.271-10.876,5.659-17.109
	l-4.983-50.827c4.283-5.275,6.605-11.79,6.605-18.702c0-7.682-2.925-14.693-7.718-19.98V253.753
	c14.798-5.462,27.214-16.367,34.566-31.073c3.824-7.648,7.293-15.564,10.383-23.569c18.543-0.774,36.857-1.867,54.839-3.283
	l9.603,10.029c1.473,1.538,3.444,2.313,5.418,2.313c1.865,0,3.732-0.691,5.187-2.083c2.991-2.864,3.095-7.612,0.229-10.604
	L286.239,78.467c0.153-0.078,0.314-0.143,0.465-0.224l207.558,87.788c-25.799,4.682-53.561,8.597-82.584,11.645
	c-4.119,0.433-7.108,4.123-6.676,8.242c0.404,3.854,3.659,6.718,7.45,6.718c0.262,0,0.526-0.014,0.792-0.042
	c30.793-3.233,60.205-7.435,87.417-12.486c6.569-1.219,11.338-6.961,11.338-13.653C512,160.86,508.671,155.839,503.521,153.661z
	 M234.858,55.288h0.503c3.8,0,6.999-2.842,7.447-6.614c0.877-7.377,3.004-14.48,6.321-21.115l6.015-12.029
	c0.08-0.159,0.265-0.529,0.856-0.529s0.776,0.37,0.855,0.529l6.015,12.028c3.317,6.635,5.444,13.738,6.321,21.115
	c0.448,3.772,3.647,6.614,7.447,6.614h0.503c2.859,0,5.186,2.326,5.186,5.186c0,2.858-2.326,5.185-5.186,5.185h-42.283
	c-2.859,0-5.186-2.326-5.186-5.185C229.673,57.614,231.999,55.288,234.858,55.288z M225.296,78.243
	c0.132,0.071,0.272,0.127,0.405,0.196l-97.866,101.842c-38.893-3.272-75.926-8.046-110.098-14.25L225.296,78.243z M244.371,80.658
	h4.129v104.835c-34.563-0.158-68.517-1.414-101.299-3.716L244.371,80.658z M263.919,434.898l5.31,54.154
	c0.201,2.06-0.453,4.038-1.843,5.57c-1.391,1.533-3.296,2.378-5.365,2.378H249.98c-2.069,0-3.975-0.845-5.365-2.378
	c-1.39-1.532-2.044-3.511-1.843-5.57l5.31-54.154c0.226-2.293-0.617-4.563-2.283-6.154c-2.951-2.819-4.576-6.613-4.576-10.684
	c0-8.148,6.63-14.778,14.778-14.778c8.148,0,14.778,6.63,14.778,14.778c0,4.07-1.625,7.864-4.576,10.684
	C264.536,430.336,263.693,432.605,263.919,434.898z M263.061,389.135c-2.265-0.553-4.628-0.853-7.061-0.853s-4.796,0.3-7.061,0.853
	v-131.85c2.325,0.256,4.68,0.391,7.061,0.391s4.736-0.135,7.061-0.391V389.135z M299.211,215.971
	c-8.361,16.723-24.515,26.706-43.211,26.706s-34.85-9.983-43.211-26.705c-2.651-5.302-5.11-10.744-7.396-16.247
	c14.239,0.444,28.621,0.702,43.107,0.768v2.845c0,4.143,3.357,7.5,7.5,7.5s7.5-3.357,7.5-7.5v-2.862
	c14.456-0.066,28.842-0.317,43.114-0.764C304.325,205.22,301.863,210.667,299.211,215.971z M263.5,185.476V80.658h4.068
	l96.844,101.137C331.596,184.094,297.745,185.317,263.5,185.476z"/>
<g>
</g>
<g>
</g>
<g>
</g>
<g>
</g>
<g>
</g>
<g>
</g>
<g>
</g>
<g>
</g>
<g>
</g>
<g>
</g>
<g>
</g>
<g>
</g>
<g>
</g>
<g>
</g>
<g>
</g>
</svg>
