<?xml version="1.0" encoding="iso-8859-1"?>
<!-- Generator: Adobe Illustrator 19.0.0, SVG Export Plug-In . SVG Version: 6.00 Build 0)  -->
<svg version="1.1" id="Capa_1" xmlns="http://www.w3.org/2000/svg" xmlns:xlink="http://www.w3.org/1999/xlink" x="0px" y="0px"
	 viewBox="0 0 512 512" style="enable-background:new 0 0 512 512;" xml:space="preserve">
<path style="fill:#FF9744;" d="M187.229,31.768c0,3.369-0.687,6.577-1.927,9.492c-5.122,12.038-7.78,24.979-7.78,38.06v78.639
	c0,8.041-6.519,14.561-14.561,14.561c-8.042,0-14.561-6.519-14.561-14.561V78.577c0-12.948-2.987-25.628-7.901-37.606
	c-3.194-7.787-2.457-17.602,4.685-26.98C165.201-1.255,187.229,12.684,187.229,31.768z M58.18,106.899
	c-3.386-12.636-4.168-25.824-2.336-38.777c0.444-3.137,0.277-6.414-0.595-9.668c-4.939-18.434-29.824-26.196-45.213-6.29
	C5.565,63.07,7.393,72.742,12.494,79.437c7.847,10.299,14.014,21.774,17.365,34.28l20.546,76.677
	c2.081,7.768,10.065,12.377,17.833,10.296c7.768-2.082,12.377-10.066,10.296-17.833L58.18,106.899z"/>
<path style="fill:#D2B48C;" d="M468.266,204.245c-11.104,11.104-21.122,23.24-29.949,36.224h39.974c2.681,0,4.854,2.173,4.854,4.854
	v14.561c0,49.797-26.789,93.33-66.736,116.996v18.903c0,10.722-8.692,19.414-19.414,19.414H287.791
	c-10.722,0-19.414-8.692-19.414-19.414V376.88c-39.947-23.666-66.736-67.199-66.736-116.996v-14.561c0-2.68,2.173-4.854,4.854-4.854
	h143.181l8.089-8.088c11.638-11.638,24.397-22.098,38.091-31.227l0,0c13.694-9.13,26.453-19.589,38.091-31.227l30.548-30.548
	c7.582-7.582,19.874-7.582,27.456,0l6.864,6.864c7.582,7.582,7.582,19.874,0,27.456L468.266,204.245z"/>
<path style="fill:#E6C8A0;" d="M444.316,245.322v14.561c0,1.03-0.011,2.057-0.034,3.082
	c-1.408,63.253-53.982,113.402-117.25,113.402h-59.514c-39.474-23.777-65.877-67.044-65.877-116.484v-14.561
	c0-2.681,2.173-4.854,4.854-4.854h232.969C442.143,240.469,444.316,242.642,444.316,245.322z"/>
<path style="fill:#7DC86E;" d="M347.321,424.007L347.321,424.007c0,13.639-11.057,24.695-24.695,24.695H90.438
	c-13.639,0-24.695-11.057-24.695-24.695l0,0c0-7.595,3.495-14.767,9.475-19.448l116.094-90.856c8.94-6.997,21.5-6.997,30.44,0
	l116.094,90.856C343.827,409.24,347.321,416.412,347.321,424.007z"/>
<path style="fill:#8CE16E;" d="M308.493,435.957L308.493,435.957c0,4.606-1.147,8.941-3.164,12.745H90.438
	c-13.639,0-24.695-11.056-24.695-24.696l0,0c0-7.595,3.495-14.767,9.475-19.448l105.06-82.221l117.76,92.16
	C304.637,419.663,308.493,427.577,308.493,435.957z"/>
<path style="fill:#916050;" d="M180.073,456.379L180.073,456.379c-22.745,22.745-59.622,22.745-82.367,0l0,0
	c-3.791-3.791-3.791-9.937,0-13.728l0,0c22.745-22.745,59.622-22.745,82.367,0l0,0C183.864,446.442,183.864,452.588,180.073,456.379
	z"/>
<path style="fill:#7DB764;" d="M501.657,487.441L501.657,487.441c-22.745,22.745-59.622,22.745-82.367,0l0,0
	c-3.791-3.791-3.791-9.937,0-13.728l0,0c22.745-22.745,59.622-22.745,82.367,0l0,0C505.448,477.504,505.448,483.65,501.657,487.441z
	"/>
<path style="fill:#B4826E;" d="M7.5,454.023L7.5,454.023c0-32.166,26.076-58.242,58.242-58.242l0,0c5.361,0,9.707,4.346,9.707,9.707
	l0,0c0,32.166-26.076,58.242-58.242,58.242l0,0C11.846,463.73,7.5,459.384,7.5,454.023z"/>
<path d="M423.91,395.779v-14.707c41.298-26.192,66.735-72.114,66.735-121.195v-14.561c0-6.812-5.542-12.354-12.353-12.354h-25.286
	c6.35-8.236,13.228-16.085,20.564-23.42l30.548-30.549C509.2,173.909,512,167.15,512,159.962c0-7.19-2.8-13.949-7.883-19.033
	l-6.863-6.863c-10.494-10.493-27.569-10.491-38.063,0l-30.548,30.549c-11.263,11.264-23.694,21.456-36.947,30.292
	c-14.074,9.382-27.275,20.204-39.235,32.165l-5.891,5.892H206.495c-6.812,0-12.353,5.542-12.353,12.354v14.561
	c0,14.246,2.072,28.23,6.161,41.693c-4.84,0.957-9.513,3.014-13.612,6.222l-16.228,12.701V178.697
	c8.483-3.077,14.56-11.215,14.56-20.747V79.31c0-12.108,2.416-23.925,7.181-35.124c1.676-3.939,2.526-8.121,2.526-12.43
	c0-12.164-6.774-23.078-17.68-28.48c-11.453-5.674-25.064-3.904-36.409,4.735c-0.536,0.408-1.014,0.887-1.422,1.423
	c-8.16,10.716-10.222,23.244-5.657,34.371c4.871,11.872,7.34,23.568,7.34,34.761v79.385c0,9.532,6.078,17.67,14.56,20.747v153.535
	l-36.547,28.603L77.081,204.703c2.623-1.827,4.849-4.203,6.495-7.053c2.946-5.103,3.729-11.048,2.204-16.741l-20.353-75.961
	c-3.134-11.696-3.859-23.736-2.155-35.786c0.6-4.239,0.338-8.498-0.777-12.659C59.347,44.754,49.979,35.965,38.047,33.57
	c-12.535-2.515-25.222,2.716-33.943,13.997c-0.412,0.533-0.75,1.119-1.006,1.742C-2.01,61.771-0.759,74.406,6.531,83.974
	c7.776,10.205,13.188,20.863,16.085,31.676l20.546,76.68c2.467,9.207,10.444,15.493,19.433,16.269l43.483,162.283l-28.405,22.23
	c-3.096-2.986-7.298-4.834-11.929-4.834c-36.25,0-65.742,29.493-65.742,65.744c0,9.488,7.719,17.207,17.207,17.207
	c20.458,0,38.76-9.396,50.826-24.095c5.495,5.339,12.774,8.584,20.649,9.006c0.854,2.046,2.106,3.926,3.721,5.541
	c12.417,12.417,28.926,19.255,46.486,19.255s34.07-6.838,46.487-19.255c1.598-1.599,2.839-3.459,3.692-5.481h133.557
	c17.753,0,32.195-14.443,32.195-32.196c0-0.439-0.02-0.875-0.037-1.312h42.211C411.836,422.693,423.91,410.62,423.91,395.779z
	 M150.548,19.343c6.587-4.669,13.77-5.632,19.843-2.625c5.76,2.854,9.338,8.616,9.338,15.038c0,2.279-0.447,4.484-1.328,6.555
	c0,0.001,0,0.001,0,0.001c-5.56,13.067-8.378,26.86-8.378,40.998v78.641c0,3.894-3.167,7.061-7.061,7.061s-7.061-3.167-7.061-7.061
	V78.566c0-13.155-2.847-26.765-8.462-40.454C145.017,32.206,146.124,25.575,150.548,19.343z M57.651,188.447l-20.546-76.68
	C33.7,99.06,27.428,86.649,18.462,74.883c-3.869-5.079-4.516-11.772-1.855-18.935c5.154-6.215,11.845-9.005,18.487-7.672
	c6.302,1.266,11.25,5.905,12.913,12.11c0.589,2.2,0.729,4.446,0.414,6.675l0,0c-1.988,14.061-1.141,28.115,2.518,41.771
	l20.353,75.961c1.008,3.761-1.232,7.64-4.992,8.648C62.538,194.445,58.659,192.207,57.651,188.447z M400.016,207.385
	c14.072-9.381,27.272-20.203,39.234-32.164l30.548-30.549c4.645-4.647,12.205-4.645,16.849,0l6.863,6.863
	c4.646,4.645,4.646,12.204,0,16.849l-30.548,30.549c-10.466,10.467-20.062,21.91-28.579,34.028h-66.454
	C377.874,223.56,388.639,214.971,400.016,207.385z M17.209,456.229c-1.217,0-2.207-0.99-2.207-2.207
	c0-27.98,22.763-50.743,50.742-50.743c1.217,0,2.207,0.99,2.207,2.207C67.951,433.466,45.188,456.229,17.209,456.229z
	 M174.771,451.074c-9.584,9.584-22.327,14.863-35.88,14.863c-13.554,0-26.296-5.278-35.88-14.863c-0.861-0.86-0.861-2.261,0-3.121
	c9.892-9.893,22.885-14.838,35.879-14.838s25.989,4.946,35.881,14.839c0.534,0.534,0.646,1.143,0.646,1.56
	C175.418,449.93,175.306,450.54,174.771,451.074z M322.627,441.201H188.274c-0.773-1.396-1.737-2.696-2.896-3.856
	c-25.634-25.631-67.341-25.632-92.972,0.001c-1.151,1.15-2.108,2.44-2.878,3.823c-5.277-0.275-10.059-2.922-13.086-7.174
	c3.814-7.893,6.082-16.663,6.443-25.913l113.05-88.477c6.24-4.883,14.956-4.882,21.195,0l21.841,17.093
	c3.261,2.555,7.976,1.98,10.528-1.284c2.553-3.262,1.978-7.976-1.284-10.529l-21.841-17.093c-3.065-2.399-6.453-4.151-9.989-5.292
	c-4.806-13.659-7.244-27.984-7.244-42.624v-11.914h266.503v11.914c0,44.234-23.071,85.611-60.482,108.987H304.408l-33.98-26.593
	c-3.262-2.555-7.975-1.979-10.528,1.284c-2.553,3.262-1.978,7.976,1.284,10.529l72.04,56.38c4.192,3.281,6.598,8.217,6.598,13.541
	C339.822,433.486,332.108,441.201,322.627,441.201z M342.468,398.651l-18.893-14.786h85.335v11.914
	c0,6.569-5.345,11.914-11.914,11.914h-46.602C348.374,404.264,345.712,401.19,342.468,398.651z M413.988,468.409
	c-3.25,3.249-5.041,7.57-5.041,12.167s1.79,8.917,5.04,12.168C426.405,505.162,442.913,512,460.474,512
	c17.56,0,34.069-6.838,46.487-19.255c0-0.001,0-0.001,0-0.001c6.707-6.709,6.707-17.625-0.001-24.336
	C481.327,442.777,439.62,442.776,413.988,468.409z M496.354,482.137c-19.783,19.786-51.976,19.786-71.759,0
	c-0.861-0.86-0.861-2.261-0.001-3.121c9.893-9.893,22.887-14.838,35.88-14.838c12.994,0,25.989,4.946,35.881,14.839
	C497.214,479.876,497.214,481.277,496.354,482.137z"/>
<g>
</g>
<g>
</g>
<g>
</g>
<g>
</g>
<g>
</g>
<g>
</g>
<g>
</g>
<g>
</g>
<g>
</g>
<g>
</g>
<g>
</g>
<g>
</g>
<g>
</g>
<g>
</g>
<g>
</g>
</svg>
