<svg height="512" viewBox="0 0 512 512" width="512" xmlns="http://www.w3.org/2000/svg"><g id="Fill_out_line" data-name="Fill out line"><path d="m96 24h112v32h-112z" fill="#e9352f"/><path d="m176 24h32v32h-32z" fill="#fdca77"/><path d="m96 24h32v32h-32z" fill="#fdca77"/><path d="m96 88h112v32h-112z" fill="#e9352f"/><path d="m176 88h32v32h-32z" fill="#fdca77"/><path d="m96 88h32v32h-32z" fill="#fdca77"/><path d="m96 152h112v32h-112z" fill="#e9352f"/><path d="m176 152h32v32h-32z" fill="#fdca77"/><path d="m96 152h32v32h-32z" fill="#fdca77"/><path d="m96 216h112v32h-112z" fill="#e9352f"/><path d="m176 216h32v32h-32z" fill="#fdca77"/><path d="m96 216h32v32h-32z" fill="#fdca77"/><path d="m96 280h112v32h-112z" fill="#e9352f"/><path d="m176 280h32v32h-32z" fill="#fdca77"/><path d="m96 280h32v32h-32z" fill="#fdca77"/><path d="m96 344h112v32h-112z" fill="#e9352f"/><path d="m176 344h32v32h-32z" fill="#fdca77"/><path d="m96 344h32v32h-32z" fill="#fdca77"/><path d="m304 48h112v32h-112z" fill="#e9352f" transform="matrix(-1 0 0 -1 720 128)"/><path d="m304 48h32v32h-32z" fill="#fdca77" transform="matrix(-1 0 0 -1 640 128)"/><path d="m384 48h32v32h-32z" fill="#fdca77" transform="matrix(-1 0 0 -1 800 128)"/><path d="m304 112h112v32h-112z" fill="#e9352f" transform="matrix(-1 0 0 -1 720 256)"/><path d="m304 112h32v32h-32z" fill="#fdca77" transform="matrix(-1 0 0 -1 640 256)"/><path d="m384 112h32v32h-32z" fill="#fdca77" transform="matrix(-1 0 0 -1 800 256)"/><path d="m304 176h112v32h-112z" fill="#e9352f" transform="matrix(-1 0 0 -1 720 384)"/><path d="m304 176h32v32h-32z" fill="#fdca77" transform="matrix(-1 0 0 -1 640 384)"/><path d="m384 176h32v32h-32z" fill="#fdca77" transform="matrix(-1 0 0 -1 800 384)"/><path d="m304 240h112v32h-112z" fill="#e9352f" transform="matrix(-1 0 0 -1 720 512)"/><path d="m304 240h32v32h-32z" fill="#fdca77" transform="matrix(-1 0 0 -1 640 512)"/><path d="m384 240h32v32h-32z" fill="#fdca77" transform="matrix(-1 0 0 -1 800 512)"/><path d="m304 304h112v32h-112z" fill="#e9352f" transform="matrix(-1 0 0 -1 720 640)"/><path d="m304 304h32v32h-32z" fill="#fdca77" transform="matrix(-1 0 0 -1 640 640)"/><path d="m384 304h32v32h-32z" fill="#fdca77" transform="matrix(-1 0 0 -1 800 640)"/><path d="m304 368h112v32h-112z" fill="#e9352f" transform="matrix(-1 0 0 -1 720 768)"/><path d="m304 368h32v32h-32z" fill="#fdca77" transform="matrix(-1 0 0 -1 640 768)"/><path d="m384 368h32v32h-32z" fill="#fdca77" transform="matrix(-1 0 0 -1 800 768)"/><path d="m304 88h112a8.00008 8.00008 0 0 0 8-8v-32a8.00008 8.00008 0 0 0 -8-8h-112a8.00008 8.00008 0 0 0 -8 8v8h-32v-40h-16v16h-32v-8a8.00008 8.00008 0 0 0 -8-8h-112a8.00008 8.00008 0 0 0 -8 8v32a8.00008 8.00008 0 0 0 8 8h112a8.00008 8.00008 0 0 0 8-8v-8h32v48h-32v-8a8.00008 8.00008 0 0 0 -8-8h-112a8.00008 8.00008 0 0 0 -8 8v32a8.00008 8.00008 0 0 0 8 8h112a8.00008 8.00008 0 0 0 8-8v-8h32v48h-32v-8a8.00008 8.00008 0 0 0 -8-8h-112a8.00008 8.00008 0 0 0 -8 8v32a8.00008 8.00008 0 0 0 8 8h112a8.00008 8.00008 0 0 0 8-8v-8h32v48h-32v-8a8.00008 8.00008 0 0 0 -8-8h-112a8.00008 8.00008 0 0 0 -8 8v32a8.00008 8.00008 0 0 0 8 8h112a8.00008 8.00008 0 0 0 8-8v-8h32v48h-32v-8a8.00008 8.00008 0 0 0 -8-8h-112a8.00008 8.00008 0 0 0 -8 8v32a8.00008 8.00008 0 0 0 8 8h112a8.00008 8.00008 0 0 0 8-8v-8h32v48h-32v-8a8.00008 8.00008 0 0 0 -8-8h-112a8.00008 8.00008 0 0 0 -8 8v32a8.00008 8.00008 0 0 0 8 8h112a8.00008 8.00008 0 0 0 8-8v-8h32v80a32 32 0 0 1 -64 0h-16a48 48 0 0 0 96 0v-56h32v8a8.00008 8.00008 0 0 0 8 8h112a8.00008 8.00008 0 0 0 8-8v-32a8.00008 8.00008 0 0 0 -8-8h-112a8.00008 8.00008 0 0 0 -8 8v8h-32v-48h32v8a8.00008 8.00008 0 0 0 8 8h112a8.00008 8.00008 0 0 0 8-8v-32a8.00008 8.00008 0 0 0 -8-8h-112a8.00008 8.00008 0 0 0 -8 8v8h-32v-48h32v8a8.00008 8.00008 0 0 0 8 8h112a8.00008 8.00008 0 0 0 8-8v-32a8.00008 8.00008 0 0 0 -8-8h-112a8.00008 8.00008 0 0 0 -8 8v8h-32v-48h32v8a8.00008 8.00008 0 0 0 8 8h112a8.00008 8.00008 0 0 0 8-8v-32a8.00008 8.00008 0 0 0 -8-8h-112a8.00008 8.00008 0 0 0 -8 8v8h-32v-48h32v8a8.00008 8.00008 0 0 0 8 8h112a8.00008 8.00008 0 0 0 8-8v-32a8.00008 8.00008 0 0 0 -8-8h-112a8.00008 8.00008 0 0 0 -8 8v8h-32v-48h32v8a8.00008 8.00008 0 0 0 8 8zm40-16v-16h32v16zm64 0h-16v-16h16zm-96-16h16v16h-16zm-144-24v16h-32v-16zm-64 0h16v16h-16zm96 16h-16v-16h16zm-32 48v16h-32v-16zm-64 0h16v16h-16zm96 16h-16v-16h16zm-32 48v16h-32v-16zm-64 0h16v16h-16zm96 16h-16v-16h16zm-32 48v16h-32v-16zm-64 0h16v16h-16zm96 16h-16v-16h16zm-32 48v16h-32v-16zm-64 0h16v16h-16zm96 16h-16v-16h16zm-32 48v16h-32v-16zm-64 0h16v16h-16zm96 16h-16v-16h16zm144 24v-16h32v16zm64 0h-16v-16h16zm-96-16h16v16h-16zm32-48v-16h32v16zm64 0h-16v-16h16zm-96-16h16v16h-16zm32-48v-16h32v16zm64 0h-16v-16h16zm-96-16h16v16h-16zm32-48v-16h32v16zm64 0h-16v-16h16zm-96-16h16v16h-16zm32-48v-16h32v16zm64 0h-16v-16h16zm-96-16h16v16h-16z"/><path d="m168 400h16v24h-16z"/><path d="m200 440h24v16h-24z"/><path d="m128 440h24v16h-24z"/><path d="m143.514 411.515h16v24h-16z" transform="matrix(.707 -.707 .707 .707 -255.092 231.182)"/><path d="m188.485 415.514h24v16h-24z" transform="matrix(.707 -.707 .707 .707 -240.756 265.828)"/></g></svg>