<?xml version="1.0" encoding="iso-8859-1"?>
<!-- Generator: Adobe Illustrator 19.0.0, SVG Export Plug-In . SVG Version: 6.00 Build 0)  -->
<svg version="1.1" id="Capa_1" xmlns="http://www.w3.org/2000/svg" xmlns:xlink="http://www.w3.org/1999/xlink" x="0px" y="0px"
	 viewBox="0 0 512.001 512.001" style="enable-background:new 0 0 512.001 512.001;" xml:space="preserve">
<path style="fill:#FFCF65;" d="M425.873,165.597v152.258c0,10.511-8.692,19.032-19.414,19.032H105.541
	c-10.722,0-19.414-8.521-19.414-19.032V165.597c0-10.511,8.692-19.032,19.414-19.032h159.232
	c0.386-10.178,8.901-18.319,19.377-18.319s18.991,8.141,19.377,18.319h102.931C417.181,146.565,425.873,155.085,425.873,165.597z"/>
<path style="fill:#FFB450;" d="M425.873,165.597v152.258c0,10.511-8.692,19.032-19.414,19.032h-32.357
	c10.722,0,19.414-8.521,19.414-19.032V165.597c0-10.511-8.692-19.032-19.414-19.032h32.357
	C417.181,146.565,425.873,155.085,425.873,165.597z"/>
<path style="fill:#FF9744;" d="M504.5,332.129v23.156H7.5v-23.156c0-2.628,2.173-4.758,4.854-4.758h53.389
	c-5.361,0-9.707-4.26-9.707-9.516v-47.581c0-5.256,4.346-9.516,9.707-9.516h48.535c5.361,0,9.707,4.26,9.707,9.516v47.581
	c0,5.256-4.346,9.516-9.707,9.516h385.369C502.327,327.371,504.5,329.501,504.5,332.129z"/>
<path style="fill:#FF8235;" d="M150.75,344.292l-34.32-33.645c-3.791-3.716-3.791-9.742,0-13.458l34.32-33.645
	c3.791-3.716,9.937-3.716,13.728,0l34.32,33.645c3.791,3.716,3.791,9.742,0,13.458l-34.32,33.645
	C160.687,348.009,154.541,348.009,150.75,344.292z"/>
<path style="fill:#D5945E;" d="M156.988,360.677v38.065c0,2.628-2.173,4.758-4.854,4.758H71.566c-2.681,0-4.854-2.13-4.854-4.758
	v-38.065c0-2.628,2.173-4.758,4.854-4.758h80.568C154.815,355.919,156.988,358.05,156.988,360.677z M440.434,355.919h-80.568
	c-2.681,0-4.854,2.13-4.854,4.758v38.065c0,2.628,2.173,4.758,4.854,4.758h80.568c2.681,0,4.854-2.13,4.854-4.758v-38.065
	C445.287,358.05,443.114,355.919,440.434,355.919z"/>
<path style="fill:#E6AF78;" d="M499.5,374.952h-487c-2.761,0-5-2.239-5-5v-37.581c0-2.761,2.239-5,5-5h487c2.761,0,5,2.239,5,5
	v37.581C504.5,372.713,502.261,374.952,499.5,374.952z"/>
<path style="fill:#D5945E;" d="M504.5,332.129v38.065c0,2.628-2.173,4.758-4.854,4.758h-29.121c2.681,0,4.854-2.13,4.854-4.758
	v-38.065c0-2.628-2.173-4.758-4.854-4.758h29.121C502.327,327.371,504.5,329.501,504.5,332.129z"/>
<path style="fill:#916050;" d="M318.125,127.532c0,10.511-8.692,19.032-19.414,19.032s-19.414-8.521-19.414-19.032
	s8.692-19.032,19.414-19.032S318.125,117.021,318.125,127.532z"/>
<path style="fill:#A06E5F;" d="M395.781,127.532c0,10.511-8.692,19.032-19.414,19.032s-19.414-8.521-19.414-19.032
	s8.692-19.032,19.414-19.032S395.781,117.021,395.781,127.532z M269.59,108.5c-10.722,0-19.414,8.521-19.414,19.032
	s8.692,19.032,19.414,19.032s19.414-8.521,19.414-19.032S280.312,108.5,269.59,108.5z"/>
<path d="M499.646,319.871h-66.359c0.052-0.67,0.086-1.342,0.086-2.017V165.597c0-14.63-12.073-26.532-26.914-26.532h-5.856
	c1.715-3.489,2.679-7.402,2.679-11.532c0-14.63-12.073-26.532-26.914-26.532s-26.914,11.902-26.914,26.532
	c0,4.13,0.963,8.043,2.679,11.532h-29.186c1.715-3.489,2.679-7.402,2.679-11.532c0-14.63-12.073-26.532-26.914-26.532
	c-5.216,0-10.254,1.484-14.571,4.229c-4.199-2.671-9.192-4.229-14.55-4.229c-14.841,0-26.914,11.902-26.914,26.532
	c0,4.13,0.963,8.043,2.679,11.532H105.541c-14.841,0-26.914,11.902-26.914,26.532v87.661H65.742
	c-9.488,0-17.207,7.634-17.207,17.017v47.58c0,0.684,0.053,1.354,0.132,2.017H12.354C5.542,319.871,0,325.37,0,332.129v38.064
	c0,6.759,5.542,12.258,12.354,12.258h46.859v16.291c0,6.759,5.542,12.258,12.354,12.258h80.568c6.812,0,12.354-5.499,12.354-12.258
	v-16.291h183.023v16.291c0,6.759,5.542,12.258,12.354,12.258h80.568c6.812,0,12.354-5.499,12.354-12.258v-16.291h46.859
	c6.812,0,12.354-5.499,12.354-12.258v-38.064C512,325.37,506.458,319.871,499.646,319.871z M364.453,127.532
	c0-6.358,5.345-11.532,11.914-11.532s11.914,5.174,11.914,11.532s-5.345,11.532-11.914,11.532S364.453,133.891,364.453,127.532z
	 M310.625,127.532c0,6.358-5.345,11.532-11.914,11.532c-1.573,0-3.087-0.299-4.492-0.853c1.465-3.27,2.285-6.881,2.285-10.68
	c0-3.798-0.82-7.409-2.284-10.679c1.412-0.557,2.931-0.854,4.491-0.854C305.28,116,310.625,121.174,310.625,127.532z
	 M257.676,127.532c0-6.358,5.345-11.532,11.914-11.532s11.914,5.174,11.914,11.532s-5.345,11.532-11.914,11.532
	S257.676,133.891,257.676,127.532z M63.535,317.854v-47.58c0-1.112,0.99-2.017,2.207-2.017h48.535c1.217,0,2.207,0.904,2.207,2.017
	v16.359l-5.305,5.2c-3.284,3.22-5.093,7.513-5.093,12.086c0.001,4.573,1.81,8.864,5.094,12.083l3.946,3.868H65.742
	C64.525,319.871,63.535,318.967,63.535,317.854z M193.548,305.292l-14.872,14.579h-42.124l-14.872-14.58
	c-0.49-0.48-0.593-1.011-0.594-1.372c0-0.361,0.104-0.893,0.594-1.374L156,268.901c0.874-0.855,2.352-0.858,3.228-0.001
	l34.319,33.644c0.49,0.481,0.594,1.014,0.594,1.375C194.141,304.28,194.037,304.812,193.548,305.292z M149.488,396H74.213v-13.549
	h75.275V396z M437.787,396h-75.275v-13.549h75.275V396z M497,367.451H15v-32.58h318.737c4.143,0,7.5-3.357,7.5-7.5
	s-3.357-7.5-7.5-7.5H200.103l3.946-3.868c3.283-3.219,5.091-7.51,5.092-12.083c0-4.573-1.808-8.865-5.093-12.086l-34.319-33.645
	c-6.68-6.549-17.549-6.551-24.229,0l-14.016,13.74v-1.655c0-9.383-7.719-17.017-17.207-17.017h-20.65v-61.129h2.207
	c4.143,0,7.5-3.357,7.5-7.5s-3.357-7.5-7.5-7.5h-2.207v-11.532c0-6.359,5.345-11.532,11.914-11.532h300.918
	c6.569,0,11.914,5.173,11.914,11.532v11.532h-3.178c-4.143,0-7.5,3.357-7.5,7.5s3.357,7.5,7.5,7.5h3.178v125.726
	c0,0.688-0.082,1.357-0.201,2.017h-55.071c-4.143,0-7.5,3.357-7.5,7.5s3.357,7.5,7.5,7.5H497V367.451z M247.969,184.629
	c0,4.143-3.357,7.5-7.5,7.5h-9.707c-4.143,0-7.5-3.357-7.5-7.5s3.357-7.5,7.5-7.5h9.707
	C244.611,177.129,247.969,180.486,247.969,184.629z M356.953,230.193c-4.143,0-7.5-3.357-7.5-7.5s3.357-7.5,7.5-7.5h9.707
	c4.143,0,7.5,3.357,7.5,7.5s-3.357,7.5-7.5,7.5H356.953z M345.039,232.21c0,4.143-3.357,7.5-7.5,7.5h-9.707
	c-4.143,0-7.5-3.357-7.5-7.5s3.357-7.5,7.5-7.5h9.707C341.682,224.71,345.039,228.067,345.039,232.21z M160.605,213.178
	c0,4.143-3.357,7.5-7.5,7.5h-9.707c-4.143,0-7.5-3.357-7.5-7.5s3.357-7.5,7.5-7.5h9.707
	C157.248,205.678,160.605,209.035,160.605,213.178z M286.797,289.307c0,4.143-3.357,7.5-7.5,7.5h-9.707c-4.143,0-7.5-3.357-7.5-7.5
	s3.357-7.5,7.5-7.5h9.707C283.439,281.807,286.797,285.164,286.797,289.307z"/>
<g>
</g>
<g>
</g>
<g>
</g>
<g>
</g>
<g>
</g>
<g>
</g>
<g>
</g>
<g>
</g>
<g>
</g>
<g>
</g>
<g>
</g>
<g>
</g>
<g>
</g>
<g>
</g>
<g>
</g>
</svg>
