<?xml version="1.0"?>
<svg xmlns="http://www.w3.org/2000/svg" viewBox="0 0 512 512" width="512" height="512"><g id="Fill_out_line" data-name="Fill out line"><path d="M129.78635,319.16509a70.89927,70.89927,0,0,0,16,44.97718,70.89927,70.89927,0,0,0,16-44.97718,71.65572,71.65572,0,0,0-16-45.25A71.65572,71.65572,0,0,0,129.78635,319.16509Z" style="fill:#7ab355"/><path d="M234.9401,363.58526a71.97835,71.97835,0,0,0,29.6538-50.55167,72.02279,72.02279,0,0,0-71.12005,64,71.64786,71.64786,0,0,0,41.46625-13.44833" style="fill:#a3c990"/><path d="M169.47385,349.51115a71.8697,71.8697,0,0,0,2.53,18.96,72.08258,72.08258,0,0,0,42.93994-85.92A72.05286,72.05286,0,0,0,169.47385,349.51115Z" style="fill:#7ab355"/><path d="M224,430.98812a70.89927,70.89927,0,0,0-16-44.97718,70.89927,70.89927,0,0,0-16,44.97718,71.65572,71.65572,0,0,0,16,45.25A71.65572,71.65572,0,0,0,224,430.98812Z" style="fill:#5c8f3a"/><path d="M189.10232,392.68766a71.87018,71.87018,0,0,0-2.53-18.96,72.08259,72.08259,0,0,0-42.93994,85.92A72.05288,72.05288,0,0,0,189.10232,392.68766Z" style="fill:#a3c990"/><path d="M50.93994,336.89A72.06071,72.06071,0,0,0,140,364a72.06071,72.06071,0,0,0-89.06006-27.11Z" style="fill:#a3c990"/><path d="M89.78635,430.30843c36.86-.22,67.36825-28.53932,71.33822-64.38942C124.26446,366.139,93.75632,394.45846,89.78635,430.30843Z" style="fill:#7ab355"/><path d="M462.98,110.44c-11.61987,8.06-22.8,12.78-38.02,12.78A71.692,71.692,0,0,1,376,104a71.62514,71.62514,0,0,1,40.96-12.78C435.86987,91.22,450.14,98.51,462.98,110.44Z" style="fill:#a3c990"/><path d="M386.02524,54.86834a63.90862,63.90862,0,0,1-25.85,51.4,64.05312,64.05312,0,0,1,19.7-78.8A63.58074,63.58074,0,0,1,386.02524,54.86834Z" style="fill:#7ab355"/><path d="M400.51137,161.99611a63.64245,63.64245,0,0,1-5.09008,25.03,64.079,64.079,0,0,1-29.82984-82.06,64.27182,64.27182,0,0,1,28.7699,29.63A63.58073,63.58073,0,0,1,400.51137,161.99611Z" style="fill:#5c8f3a"/><path d="M318.24,461.41992A82.0189,82.0189,0,0,0,336,488H240a81.9346,81.9346,0,0,0,24-57.93994V385.93994A81.825,81.825,0,0,0,259.78,360q-.91517-2.74512-2.02-5.42A82.53832,82.53832,0,0,0,240,328h96a82.00458,82.00458,0,0,0-24,57.93994v44.12012A81.95113,81.95113,0,0,0,318.24,461.41992Z" style="fill:#7ab355"/><path d="M318.24,301.41992A82.0189,82.0189,0,0,0,336,328H240a82.02126,82.02126,0,0,0,24-57.93994V225.94A81.82459,81.82459,0,0,0,259.78,200q-.91517-2.745-2.02-5.42A82.0184,82.0184,0,0,0,240,168h96a82.00458,82.00458,0,0,0-24,57.94v44.12006A81.95113,81.95113,0,0,0,318.24,301.41992Z" style="fill:#7ab355"/><path d="M240,168a81.94105,81.94105,0,0,0,24-57.94107V65.94A81.82459,81.82459,0,0,0,259.78,40q-.91517-2.745-2.02-5.42A82.11829,82.11829,0,0,0,247.02,16h81.97A81.94181,81.94181,0,0,0,312,65.94v44.11891A81.94105,81.94105,0,0,0,336,168l0,0H240Z" style="fill:#7ab355"/><path d="M336,328a81.84531,81.84531,0,0,0-19.78,32H259.78q-.91517-2.74512-2.02-5.42A82.01776,82.01776,0,0,0,240,328Z" style="fill:#699949"/><path d="M336,168a81.84488,81.84488,0,0,0-19.78,32H259.78q-.91517-2.745-2.02-5.42A82.0184,82.0184,0,0,0,240,168Z" style="fill:#699949"/><path d="M328.99,16a81.37671,81.37671,0,0,0-12.77,24H259.78q-.91517-2.745-2.02-5.42A82.11829,82.11829,0,0,0,247.02,16Z" style="fill:#699949"/><path d="M264.59009,313.03A71.51505,71.51505,0,0,1,252.98,344.91992,81.72386,81.72386,0,0,0,240,328a81.3423,81.3423,0,0,0,10.96-13.6001A72.83532,72.83532,0,0,1,264.59009,313.03Z" style="fill:#a3c990"/><path d="M468.42529,104.5791C452.74219,90.00732,436.38867,83.22021,416.96,83.22021a79.68643,79.68643,0,0,0-32.0935,6.69648,72.1054,72.1054,0,0,0,9.15893-35.04853,71.19638,71.19638,0,0,0-6.92676-30.83789,7.99943,7.99943,0,0,0-11.998-2.98095,72.37851,72.37851,0,0,0-29.0752,57.81884,71.47545,71.47545,0,0,0,3.71,22.84534A64.87759,64.87759,0,0,0,321.756,126.09686,74.53376,74.53376,0,0,1,320,110.05908V65.94092a73.97689,73.97689,0,0,1,10.41943-37.84619l-13.74511-8.18946A89.89059,89.89059,0,0,0,310.66455,32H288V48h17.81006A89.90776,89.90776,0,0,0,304,65.94092v44.11816A89.30631,89.30631,0,0,0,319.10876,160H256.89124A89.30631,89.30631,0,0,0,272,110.05908V65.94092a89.97733,89.97733,0,0,0-12.6748-46.03565l-13.74512,8.18946A73.97129,73.97129,0,0,1,256,65.94092v44.11816a73.45818,73.45818,0,0,1-21.65674,52.28418l.01337.01337a7.94248,7.94248,0,0,0-.01337,11.30011A73.45818,73.45818,0,0,1,256,225.94092v44.11816a74.06146,74.06146,0,0,1-1.79395,16.18946l15.61231,3.50292A90.10656,90.10656,0,0,0,272,270.05908V225.94092A89.31009,89.31009,0,0,0,256.89355,176h62.2129a88.96932,88.96932,0,0,0-8.49268,16H288v16h17.79382A90.80159,90.80159,0,0,0,304,225.94092v44.11816A89.31009,89.31009,0,0,0,319.10645,320H288v16h31.10876a88.97548,88.97548,0,0,0-8.49914,16H288v16h17.78491A90.826,90.826,0,0,0,304,385.94092v44.11816A89.31009,89.31009,0,0,0,319.10645,480h-62.2129A89.31009,89.31009,0,0,0,272,430.05908V385.94092a90.36437,90.36437,0,0,0-.66406-10.91113l-15.88184,1.94042A74.24961,74.24961,0,0,1,256,385.94092v44.11816c0,1.80689-.08643,3.59937-.214,5.38379a123.71254,123.71254,0,0,0-40.0351-53.68616,80.07167,80.07167,0,0,0,56.79407-67.84265,8.00031,8.00031,0,0,0-7.95117-8.88037h-.04785a79.74071,79.74071,0,0,0-40.42761,11.25415,81.2,81.2,0,0,0,1.35534-14.77661,79.96586,79.96586,0,0,0-2.8125-21.06787,7.99955,7.99955,0,0,0-10.66845-5.32764,79.718,79.718,0,0,0-42.38086,39.07349,80.12075,80.12075,0,0,0-17.60889-45.30933,7.99982,7.99982,0,0,0-12.43359.00049,80.0398,80.0398,0,0,0-15.93811,67.39075,80.15576,80.15576,0,0,0-75.86414-6.72473,8.00009,8.00009,0,0,0-3.5459,11.68652,79.77939,79.77939,0,0,0,64.66321,36.60535c-.38153.33447-.7721.65588-1.14807.99817A80.40885,80.40885,0,0,0,81.835,429.42822a8.00031,8.00031,0,0,0,7.95117,8.88037H89.834a79.6709,79.6709,0,0,0,45.0047-14.28613,81.05348,81.05348,0,0,0-1.73614,16.665,79.96678,79.96678,0,0,0,2.8125,21.06836A7.99956,7.99956,0,0,0,146.5835,467.083a79.872,79.872,0,0,0,37.61853-30.6897A80.11971,80.11971,0,0,0,201.7832,481.273a7.99941,7.99941,0,0,0,12.4336,0,79.72744,79.72744,0,0,0,17.32763-58.70483,107.40315,107.40315,0,0,1,15.4787,42.84838,74.22741,74.22741,0,0,1-12.67987,16.92676A7.99981,7.99981,0,0,0,240,496h96a7.99981,7.99981,0,0,0,5.65674-13.65674A73.45818,73.45818,0,0,1,320,430.05908V385.94092a73.45818,73.45818,0,0,1,21.65674-52.28418l-.01343-.01343a7.94223,7.94223,0,0,0,.01343-11.3A73.45818,73.45818,0,0,1,320,270.05908V225.94092a73.45818,73.45818,0,0,1,21.65674-52.28418,7.94236,7.94236,0,0,0-.01343-11.30011l.01343-.01337a74.32034,74.32034,0,0,1-11.83765-15.44165,48.20216,48.20216,0,0,1,23.7699-29.27392A71.97154,71.97154,0,0,0,391.77783,194.148a8.00061,8.00061,0,0,0,11.00244-3.9834,72.102,72.102,0,0,0-1.18945-58.99365c-.66162-1.39655-1.38159-2.76215-2.13159-4.10993A80.02723,80.02723,0,0,0,424.96,131.22021c15.48926,0,28.22315-4.24853,42.57959-14.207a7.99951,7.99951,0,0,0,.88574-12.43408Zm-308.575,253.0044c.61963-1.11109,1.2052-2.23682,1.76825-3.37171q.10895,1.86824.30212,3.726C161.23206,357.81519,160.5426,357.69482,159.85028,357.5835Zm70.42755-.499a63.43284,63.43284,0,0,1-27.02,11.14112,63.99588,63.99588,0,0,1,51.53711-46.37793A64.20719,64.20719,0,0,1,230.27783,357.08447Zm-21.209-62.80176a64.67327,64.67327,0,0,1,.40478,7.22852,63.65994,63.65994,0,0,1-31.59472,55.22852,64.56327,64.56327,0,0,1-.40528-7.22852A63.65936,63.65936,0,0,1,209.06885,294.28271Zm-63.28272-6.09814a64.1711,64.1711,0,0,1,8,30.98047,62.571,62.571,0,0,1-8,30.78808,62.56589,62.56589,0,0,1-8-30.78808A64.174,64.174,0,0,1,145.78613,288.18457ZM64.05078,340.87744a64.15,64.15,0,0,1,62.83789,19.13477,64.15,64.15,0,0,1-62.83789-19.13477Zm68.35352,64.68164A64.0975,64.0975,0,0,1,99.58643,421.48a64.75925,64.75925,0,0,1,51.73779-46.73242A64.68741,64.68741,0,0,1,132.4043,405.55908Zm17.103,42.35694a64.55011,64.55011,0,0,1-.40478-7.22852A63.66113,63.66113,0,0,1,180.69727,385.459a64.56327,64.56327,0,0,1,.40527,7.22852A63.65936,63.65936,0,0,1,149.50732,447.916ZM208,461.96875a64.17259,64.17259,0,0,1-8-30.98047,62.5756,62.5756,0,0,1,8-30.78857,62.5717,62.5717,0,0,1,8,30.78857A64.17539,64.17539,0,0,1,208,461.96875ZM376.398,41.3667a56.06137,56.06137,0,0,1,1.62744,13.50146,55.4776,55.4776,0,0,1-14.37305,37.50147,56.08571,56.08571,0,0,1-1.62695-13.50147A55.47862,55.47862,0,0,1,376.398,41.3667ZM391.019,174.9043a56.16637,56.16637,0,0,1-21.02343-57.79151,56.40619,56.40619,0,0,1,17.14209,20.92139,55.31969,55.31969,0,0,1,5.37353,23.96191A55.99605,55.99605,0,0,1,391.019,174.9043ZM424.96,115.22021A63.73788,63.73788,0,0,1,390.28418,105.02,63.7234,63.7234,0,0,1,416.96,99.22021a53.46716,53.46716,0,0,1,32.2168,10.24659A50.849,50.849,0,0,1,424.96,115.22021Z"/></g></svg>
