<?xml version="1.0"?>
<svg xmlns="http://www.w3.org/2000/svg" viewBox="0 0 512 512" width="512" height="512"><g id="Fill_out_line" data-name="Fill out line"><path d="M256,24h0a16,16,0,0,0-16,16V80h32V40A16,16,0,0,0,256,24Z" style="fill:#de5e1d"/><path d="M296,104v40H216V104a40,40,0,0,1,80,0Z" style="fill:#fc6f35"/><path d="M277.62012,70.35A39.71792,39.71792,0,0,1,284,92v8.50259a19.58112,19.58112,0,0,1-19.78686,19.49769L264,120c-19.53,0-35.85986,7-48,18.63V144h80V104A39.95776,39.95776,0,0,0,277.62012,70.35Z" style="fill:#de5e1d"/><path d="M384,376c0,70.68994-57.31006,112-128,112a172.66948,172.66948,0,0,1-20-1.14C174.81006,479.77,128,439.88,128,376c0-44.83008,23.05005-77.8501,57.96-96A144.26157,144.26157,0,0,1,236,265.14,172.7974,172.7974,0,0,1,256,264c25.8501,0,49.91992,5.53,70.04,16C360.95,298.1499,384,331.16992,384,376Z" style="fill:#fc6f35"/><path d="M328,208a97.76544,97.76544,0,0,1-2.91992,24c-5.33008,21.12-17.81006,38.46-35.74,48A70.32338,70.32338,0,0,1,256,288a75.12522,75.12522,0,0,1-16-1.67993A67.01694,67.01694,0,0,1,222.65991,280c-17.92993-9.54-30.40991-26.88-35.74-48A97.76544,97.76544,0,0,1,184,208c0-44.18,27.82007-80,72-80a72.65006,72.65006,0,0,1,23.59009,3.79C309.8501,142.09,328,172.32,328,208Z" style="fill:#fc6f35"/><path d="M384,376c0,70.68994-57.31006,112-128,112a172.66948,172.66948,0,0,1-20-1.14c61.18994-7.09,108-46.98,108-110.86,0-44.83008-23.05-77.8501-57.96-96A144.26157,144.26157,0,0,0,236,265.14,172.7974,172.7974,0,0,1,256,264c25.8501,0,49.91992,5.53,70.04,16C360.95,298.1499,384,331.16992,384,376Z" style="fill:#de5e1d"/><path d="M303.14014,270.18994c-.15015.14-.3.27-.4502.41-.01-.01-.01-.01-.02-.01C302.82007,270.45,302.98,270.32007,303.14014,270.18994Z" style="fill:#de5e1d"/><path d="M302.68994,270.6A133.54766,133.54766,0,0,1,326.04,280H185.96a133.78175,133.78175,0,0,1,23.37012-9.41c-10.82007-9.82-18.52-23.19-22.41016-38.59H256a56.02724,56.02724,0,0,0,55.07007-45.76v-.01c-3.16016-23.03-14.28-42.67-31.48-54.44C309.8501,142.09,328,172.32,328,208a97.76544,97.76544,0,0,1-2.91992,24C321.26,247.14,313.76,260.34,303.22,270.12a.17587.17587,0,0,0-.07983.06994c-.16016.13013-.32007.26-.47022.4C302.67993,270.59,302.67993,270.59,302.68994,270.6Z" style="fill:#de5e1d"/><path d="M302.68994,270.6A133.54766,133.54766,0,0,1,326.04,280H185.96a133.78175,133.78175,0,0,1,23.37012-9.41c-10.82007-9.82-18.52-23.19-22.41016-38.59H256q1.02862,0,2.04839-.03682c39.69867-1.42944,62.14486-46.10087,41.00766-79.73488a69.19526,69.19526,0,0,0-19.466-20.43832C309.8501,142.09,328,172.32,328,208a97.76544,97.76544,0,0,1-2.91992,24C321.26,247.14,313.76,260.34,303.22,270.12a.17587.17587,0,0,0-.07983.06994C302.99,270.33,302.84009,270.46,302.68994,270.6Z" style="fill:#de5e1d"/><path d="M336,288H176a8,8,0,0,1,0-16H336a8,8,0,0,1,0,16Z" style="fill:#fdca77"/><path d="M328,264H184a8,8,0,0,1,0-16H328a8,8,0,0,1,0,16Z" style="fill:#fdca77"/><circle cx="256" cy="272" r="16" style="fill:#fab53f"/><path d="M354.752,290.02148l-10.63281,11.95606C364.97559,320.52588,376,346.12256,376,376c0,31.22461-11.96094,57.62451-34.58984,76.3457C319.85449,470.17871,289.52246,480,256,480s-63.85449-9.82129-85.41016-27.6543C147.96094,433.62451,136,407.22461,136,376c0-29.87744,11.02441-55.47412,31.88086-74.02246l-10.63281-11.95606C132.87988,311.69238,120,341.42334,120,376c0,36.1499,13.9668,66.8125,40.39062,88.67383C184.80859,484.87451,218.76367,496,256,496s71.19141-11.12549,95.60938-31.32617C378.0332,442.8125,392,412.1499,392,376,392,341.42334,379.12012,311.69238,354.752,290.02148Z"/><path d="M192.28516,215.36035C192.0957,213.00293,192,210.52686,192,208c0-25.97461,10.68066-48.91406,28.56934-61.36377A7.99963,7.99963,0,0,0,224,140.06982V104a32,32,0,0,1,64,0v22.48645A79.9342,79.9342,0,0,0,256,120v16c13.35962,0,25.2666,3.56824,35.38965,10.60376.01416.01013.02661.0224.041.03247C309.31934,159.08594,320,182.02539,320,208c0,2.52686-.0957,5.00293-.28516,7.36035l15.94922,1.2793C335.88672,213.8584,336,210.95166,336,208c0-30.02881-11.60742-55.99414-32-71.96289V104a48.01716,48.01716,0,0,0-24-41.54248V40a24,24,0,0,0-48,0V62.45752A48.01716,48.01716,0,0,0,208,104v32.03711C187.60742,152.00586,176,177.97119,176,208c0,2.95166.11328,5.8584.33594,8.63965ZM248,40a8,8,0,0,1,16,0V56.67938a47.44146,47.44146,0,0,0-16,0Z"/><path d="M216,376a8.00008,8.00008,0,0,0,8-8,127.74513,127.74513,0,0,1,23.45264-73.57874q1.07886.41254,2.20459.72156a90.39848,90.39848,0,0,0,24.68554,46.51392,8.00018,8.00018,0,0,0,11.31446-11.31348,74.31657,74.31657,0,0,1-19.91748-36.4165,24.0122,24.0122,0,1,0-30.50977-9.925A143.80792,143.80792,0,0,0,208,368,8.00008,8.00008,0,0,0,216,376Zm40-112a8,8,0,1,1-8,8A8.00917,8.00917,0,0,1,256,264Z"/><path d="M296,288h40a8,8,0,0,0,0-16H296a8,8,0,0,0,0,16Z"/><path d="M176,288h40a8,8,0,0,0,0-16H176a8,8,0,0,0,0,16Z"/><path d="M296,264h32a8,8,0,0,0,0-16H296a8,8,0,0,0,0,16Z"/><path d="M184,248a8,8,0,0,0,0,16h32a8,8,0,0,0,0-16Z"/><path d="M176,240H336a8,8,0,0,0,0-16H176a8,8,0,0,0,0,16Z"/></g></svg>
