<svg height="512" viewBox="0 0 512 512" width="512" xmlns="http://www.w3.org/2000/svg"><g id="Fill_out_line" data-name="Fill out line"><path d="m87.18776 462.63165a56.96913 56.96913 0 0 1 -6.97476-48.59332l31.887-102.03833 55.9-16h176.2l55.9 16 31.887 102.03833a56.96917 56.96917 0 0 1 -6.97472 48.59327 56.96915 56.96915 0 0 1 -47.40128 25.3684h-243.022a56.96916 56.96916 0 0 1 -47.40124-25.36835z" fill="#e04446"/><path d="m312.29 233.68-8.1899 14.32 8 16-56 32-25.8701-15.52-14.1299-8.48h-40l-16-40-16-16 16-48v-24h176a180.83224 180.83224 0 0 1 -23.8101 89.68z" fill="#fdc5ca"/><path d="m336.1001 144a180.83224 180.83224 0 0 1 -23.8101 89.68l-8.1899 14.32-23.7002-23.7-8.2998-8.3-15.02-22.53-6.3101-9.47-10.6699 16-24-32-56-24z" fill="#68737f"/><path d="m240.1 200 11.19775-16.79664a16.17645 16.17645 0 0 1 13.45961-7.20336 16.17643 16.17643 0 0 1 15.14647 21.85636l-12.2876 32.76694a14.45067 14.45067 0 0 1 -13.53055 9.3767 14.4507 14.4507 0 0 1 -10.21817-4.2325l-3.76751-3.7675z" fill="#fdc5ca"/><path d="m264.1 296v29.44l-8.05-13.36-7.95 13.2v-29.28z" fill="#fab53f"/><path d="m288.1001 424v56h-80v-56h16l9.80981-14.72a20.859 20.859 0 0 1 32.09009-3.18 18.74307 18.74307 0 0 1 1.66992 1.9 20.647 20.647 0 0 1 4.33008 10.84 18.97751 18.97751 0 0 1 .1001 2v3.16z" fill="#fdc5ca"/><path d="m425.01 462.63a56.95991 56.95991 0 0 1 -47.40014 25.37h-89.50976v-80h142l1.88989 6.04a56.9742 56.9742 0 0 1 -6.97999 48.59z" fill="#e04446"/><path d="m208 408v80h-73.40991a56.97624 56.97624 0 0 1 -54.38009-73.96l1.8901-6.04z" fill="#e04446"/><path d="m225.664 25.815h48v208h-48z" fill="#d6323f" transform="matrix(.079 -.997 .997 .079 100.63 368.505)"/><path d="m230.06535 41.98834h48.00007a63.99993 63.99993 0 0 1 63.99993 63.99993v.00007a0 0 0 0 1 0 0h-175.99993a0 0 0 0 1 0 0v-.00007a63.99993 63.99993 0 0 1 63.99993-63.99993z" fill="#e04446" transform="matrix(.997 .079 -.079 .997 6.6 -19.738)"/><g fill="#fdca77"><circle cx="264.1" cy="32" r="16"/><path d="m153.83521 98.18624-5.963-.47007-3.77221 47.85154 5.963.47007a24 24 0 0 0 25.81187-22.03962v-.00005a24 24 0 0 0 -22.03966-25.81187z"/><path d="m256 296 56.1-32 32.1 32-64.1 40z"/><path d="m256.1 296-40-24h-24l-24.2 24 64.1 40z"/></g><path d="m192.09961 192a8 8 0 0 0 0-16h-8a8 8 0 1 0 0 16z"/><path d="m439.62305 411.65234-31.8877-102.03857a7.99822 7.99822 0 0 0 -5.43457-5.30469l-53.91378-15.43164-29.7161-29.62292-5.501-11.00238 6.06153-10.60712a187.30578 187.30578 0 0 0 23.16235-68.42078l8.43432.66492q.315.0249.62891.0249a7.99949 7.99949 0 0 0 7.97559-7.37158l3.77148-47.85156a8.00044 8.00044 0 0 0 -7.34668-8.60352l-8.42578-.66424a71.97269 71.97269 0 0 0 -59.814-68.61011 24.00253 24.00253 0 1 0 -47.51801-4.81305c0 .25708.0227.51013.03076.76587l-6.84717-.5398a71.98586 71.98586 0 0 0 -76.35547 58.17945l-2.45019-.19318-.01367-.0014v.0003l-5.96289-.47a7.99382 7.99382 0 0 0 -8.6045 7.34619l-3.77248 47.85157a8.00017 8.00017 0 0 0 7.34668 8.604l8.62891.68024v12.47845l-15.58984 46.76855a8.0004 8.0004 0 0 0 1.93261 8.18653l14.83887 14.83887 15.39063 38.47558a7.98 7.98 0 0 0 4.55957 4.47412l-9.54786 9.46924-53.78515 15.39453a7.99822 7.99822 0 0 0 -5.43457 5.30469l-31.8867 102.03854a64.96856 64.96856 0 0 0 62.01172 84.34766h73.41113a8.00008 8.00008 0 0 0 8-8h64.09961a8.00008 8.00008 0 0 0 8 8h89.51172a64.969 64.969 0 0 0 62.01172-84.34766zm-183.52344-379.65234a8 8 0 1 1 15.31539 3.23224l-15.0271-1.18469a8.00362 8.00362 0 0 1 -.28829-2.04755zm-64.83789 29.416a55.63941 55.63941 0 0 1 40.76367-13.23975l47.85161 3.77248a56.02285 56.02285 0 0 1 51.49317 52.208l-158.38091-12.48534a55.56872 55.56872 0 0 1 18.27246-30.25539zm4.13257 218.584h18.4895l31.22729 18.73645-15.77026 26.17468-48.63082-30.34765zm115.37744-6.02759 20.64136 20.57691-48.6543 30.36181-15.656-25.9851zm-5.43286-44.26587-2.98877 5.23-20.2231-20.22322 5.26856-14.04828a24.17683 24.17683 0 0 0 -42.75391-21.89942l-4.92578 7.38868-17.21587-22.9541a7.99712 7.99712 0 0 0 -3.249-2.55323l-3.23145-1.38489 110.40259 8.70313a171.41261 171.41261 0 0 1 -21.08327 61.74133zm-137.43946-106.3374a15.97131 15.97131 0 0 1 -15.18408 14.71149l2.49219-31.61945a16.01289 16.01289 0 0 1 12.69189 16.90796zm176.21094 29.94092-165.78535-13.06915a32.03851 32.03851 0 0 0 2.51538-31.90082l165.78462 13.06909zm-176.583 75.71875a8.00557 8.00557 0 0 0 -1.7705-2.68555l-12.50391-12.5039 14.43652-43.30957a8.0122 8.0122 0 0 0 .41015-2.52979v-11.86768l42.88281 18.37842 22.7168 30.28906a7.99982 7.99982 0 0 0 13.05664-.3623l11.19824-16.79688a8.16007 8.16007 0 0 1 6.80371-3.64062 8.17716 8.17716 0 0 1 7.65625 11.04736l-12.28806 32.76709a6.48147 6.48147 0 0 1 -6.04 4.18555 6.40716 6.40716 0 0 1 -4.56153-1.88916l-3.76757-3.76758-11.31446 11.31348 3.76758 3.76758a22.30583 22.30583 0 0 0 15.87592 6.57568 22.554 22.554 0 0 0 21.02051-14.56738l.84863-2.26306 21.57031 21.57013 4.03418 8.0689-45.36133 25.9209-27.22461-16.335 8.70117-8.75537a8.00022 8.00022 0 1 0 -11.3496-11.27832l-13.55372 13.6392h-31.25586zm32.47265 250.97119h-65.41113a48.96864 48.96864 0 0 1 -46.74024-63.5752l30.59961-97.92089 48.26489-13.8147 61.05152 38.0979a8.00094 8.00094 0 0 0 11.08789-2.65869l9.24707-15.34815v12.75684a38.15343 38.15343 0 0 1 -6.269 20.97913l-14.85987-5.944-5.9414 14.85546 7.94555 3.17823a38.31447 38.31447 0 0 1 -4.02661 2.041 54.23505 54.23505 0 0 0 -27.97269 27.35307h-44.876v16h47.90041zm16-8v-40h8.09961a8.00018 8.00018 0 0 0 6.65625-3.562l9.8125-14.71826a12.84434 12.84434 0 0 1 22.58301 2.28026h-7.05176a8 8 0 1 0 0 16h24v40zm202.35645-13.80615a48.87267 48.87267 0 0 1 -40.74512 21.80615h-81.51172v-64h64v-16h-72a8.00008 8.00008 0 0 0 -8 8v8h-.40723a28.84582 28.84582 0 0 0 -52.43652-11.15576l-7.4375 11.15576h-3.81836v-8a7.96622 7.96622 0 0 0 -2.23242-5.53491 38.2127 38.2127 0 0 1 17.48342-15.11209 54.204 54.204 0 0 0 15.177-9.76587l14.60132 5.84057 5.9414-14.85546-10.07272-4.02915a54.13624 54.13624 0 0 0 7.20166-27.006v-12.59141l9.14746 15.18274a8.00052 8.00052 0 0 0 11.08789 2.65869l61.08374-38.11743 48.33225 13.83423 30.60058 97.92089a48.76036 48.76036 0 0 1 -5.99513 41.76905z"/></g></svg>