<svg height="512" viewBox="0 0 512 512" width="512" xmlns="http://www.w3.org/2000/svg"><g id="Fill_out_line" data-name="Fill out line"><path d="m113.96094 288.17285-15.78321-2.626a160.15206 160.15206 0 0 1 81.62793-114.27385c9.60547-5.21143 20.582-9.18213 33.55762-12.13916a23.86606 23.86606 0 0 0 18.63672-23.40044v-37.79248a73.45662 73.45662 0 0 0 -21.65723-52.28418l11.31446-11.31348a89.35245 89.35245 0 0 1 26.34277 63.59766v37.79248a39.78448 39.78448 0 0 1 -31.082 39c-11.5332 2.6289-21.17676 6.09717-29.4834 10.603a144.97727 144.97727 0 0 0 -73.47366 102.83645z" fill="#e04446"/><path d="m398.03906 288.17285a144.97727 144.97727 0 0 0 -73.47363-102.83642c-8.30664-4.50586-17.9502-7.97413-29.4834-10.603a39.78448 39.78448 0 0 1 -31.082-39v-37.79251a89.35245 89.35245 0 0 1 26.34277-63.59766l11.31446 11.31348a73.45662 73.45662 0 0 0 -21.65726 52.28418v37.79248a23.86606 23.86606 0 0 0 18.63672 23.40039c12.97558 2.957 23.95215 6.92773 33.55762 12.13916a160.15206 160.15206 0 0 1 81.62793 114.27393z" fill="#e04446"/><g fill="#7ab355"><circle cx="256" cy="120" r="24"/><path d="m128 272a15.99843 15.99843 0 0 1 -31.93994 1.35c-.04006-.44009-.06006-.9-.06006-1.35a16 16 0 0 1 32 0z"/><path d="m416 272c0 .45-.02.90991-.06006 1.35a15.966 15.966 0 1 1 .06006-1.35z"/><path d="m128.2 304.8999a24.00212 24.00212 0 1 1 -22.62993-25.2999 23.8172 23.8172 0 0 1 22.62993 25.2999z"/><path d="m423.87988 321.56006a24.00268 24.00268 0 1 1 8.08012-19.33006 23.88084 23.88084 0 0 1 -8.08012 19.33006z"/><path d="m128.5 356.15991a24.00467 24.00467 0 1 1 2.46-16.78991 23.943 23.943 0 0 1 -2.46 16.78991z"/><path d="m428.16016 349.64a24.00082 24.00082 0 1 1 -18.31006-28.57995 23.79845 23.79845 0 0 1 18.31006 28.57995z"/><path d="m145.55005 385.18994a23.99727 23.99727 0 1 1 -2.69019-13.34 23.98907 23.98907 0 0 1 2.69019 13.34z"/><path d="m411.7998 394.30005a24.00148 24.00148 0 1 1 -9.98974-32.44005 23.87935 23.87935 0 0 1 9.98974 32.44005z"/><circle cx="216" cy="40" r="16"/><circle cx="296" cy="40" r="16"/><path d="m169.57007 416.04a23.9984 23.9984 0 1 1 -6.56007-16.08 23.92774 23.92774 0 0 1 6.56007 16.08z"/><path d="m383.85986 432.95a24.0012 24.0012 0 1 1 -.93994-33.92993 23.878 23.878 0 0 1 .93994 33.92993z"/><path d="m198.14014 454.59a24.02373 24.02373 0 1 1 2.13986-20.14 24.008 24.008 0 0 1 -2.13986 20.14z"/><path d="m346.81982 462.77a24.00218 24.00218 0 1 1 8.17041-32.94995 23.95363 23.95363 0 0 1 -8.17041 32.94995z"/><path d="m303.35986 481.57007a23.99621 23.99621 0 1 1 16.7002-29.55 23.77368 23.77368 0 0 1 -16.7002 29.55z"/><path d="m238.42993 464.88a24.00275 24.00275 0 1 1 -6.30981-23.55 23.93049 23.93049 0 0 1 6.30981 23.55z"/><circle cx="256" cy="464" r="24"/></g><path d="m224 120a32 32 0 1 0 32-32 32.03635 32.03635 0 0 0 -32 32zm32-16a16 16 0 1 1 -16 16 16.01833 16.01833 0 0 1 16-16z"/><path d="m187.43457 185.33643c8.30664-4.50586 17.9502-7.97413 29.4834-10.603a39.74361 39.74361 0 0 0 21.08008-12.53955l-11.99605-10.58788a23.838 23.838 0 0 1 -12.63867 7.52783c-12.97558 2.957-23.95215 6.92773-33.55762 12.13916a160.07531 160.07531 0 0 0 -64.75 64.93164l14.08594 7.58984a144.11123 144.11123 0 0 1 58.29292-58.45804z"/><path d="m281.794 81.75195a73.67662 73.67662 0 0 1 7.03466-18.84723 24.05337 24.05337 0 1 0 -12.87353-9.72815 89.54734 89.54734 0 0 0 -9.77246 25.07148zm14.206-49.75195a8 8 0 1 1 -8 8 8.00917 8.00917 0 0 1 8-8z"/><path d="m285.99805 151.606-11.99605 10.58785a39.74361 39.74361 0 0 0 21.08 12.53955c11.5332 2.6289 21.17676 6.09717 29.4834 10.603a144.11123 144.11123 0 0 1 58.293 58.458l14.08594-7.58984a160.07531 160.07531 0 0 0 -64.75-64.93164c-9.60547-5.21143-20.582-9.18213-33.55762-12.13965a23.83414 23.83414 0 0 1 -12.63867-7.52727z"/><path d="m216 64a23.914 23.914 0 0 0 7.17139-1.09528 73.67662 73.67662 0 0 1 7.03466 18.84723l15.61133-3.5039a89.54734 89.54734 0 0 0 -9.77246-25.07148 23.99062 23.99062 0 1 0 -20.04492 10.82343zm0-32a8 8 0 1 1 -8 8 8.00917 8.00917 0 0 1 8-8z"/><path d="m430.81055 325.98328a31.94932 31.94932 0 0 0 -6.89649-50.15271 23.99654 23.99654 0 1 0 -42.88037 10.53979 31.96537 31.96537 0 0 0 .86768 35.72144 31.97189 31.97189 0 0 0 -7.29053 33.27905 31.97236 31.97236 0 0 0 -15.93652 30.09315 32.0317 32.0317 0 0 0 -23.40992 24.74573 31.98735 31.98735 0 0 0 -29.177 17.59546 31.96243 31.96243 0 0 0 -32.92163 9.20971 31.889 31.889 0 0 0 -34.18139-.09631 31.96731 31.96731 0 0 0 -32.83741-9.11267 31.98909 31.98909 0 0 0 -29.17749-17.59619 31.96944 31.96944 0 0 0 -23.41235-24.72673 32.0324 32.0324 0 0 0 -15.92749-30.12951 32.03048 32.03048 0 0 0 -7.28638-33.27686 31.96673 31.96673 0 0 0 .85645-35.7063 24.01467 24.01467 0 1 0 -42.88135-10.54614 31.95648 31.95648 0 0 0 -6.88525 50.16943 31.95412 31.95412 0 0 0 10.10815 46.22193c-.17065.47461-.33228.95361-.48169 1.43872a31.98445 31.98445 0 0 0 22.6228 40.405 31.98478 31.98478 0 0 0 31.90163 34.40118c.2024 0 .40528-.00928.60816-.01306.0979.49011.20532.97937.32641 1.46765a31.94626 31.94626 0 0 0 40.22657 22.93957 31.97234 31.97234 0 0 0 45.60351 12.67713 31.951 31.951 0 0 0 47.38916-.09693 31.97046 31.97046 0 0 0 45.751-12.58007 31.98345 31.98345 0 0 0 40.22607-22.9397c.1211-.48828.22852-.97766.32642-1.46777.20312.0039.40625.01318.60913.01318a31.98556 31.98556 0 0 0 31.90057-34.40161 31.962 31.962 0 0 0 22.12915-41.83594 31.97759 31.97759 0 0 0 10.98-44.98218q-.41088-.64124-.8496-1.25744zm-30.57715-61.98328a8.0032 8.0032 0 0 1 7.97827 7.57129c-.65942-.00464-1.32178.00415-1.989.04053a31.79825 31.79825 0 0 0 -13.2583 3.71338 7.98718 7.98718 0 0 1 7.26903-11.3252zm-8.21 40.45117a16.00026 16.00026 0 1 1 26.48047 11.1731 32.235 32.235 0 0 0 -6.94336-2.37818 31.80389 31.80389 0 0 0 -15.83594.55713 15.92464 15.92464 0 0 1 -3.70113-9.35205zm-280.0234-40.45117a7.98737 7.98737 0 0 1 7.269 11.32544 31.79929 31.79929 0 0 0 -13.25927-3.71362c-.667-.03687-1.32886-.046-1.988-.04187a8.00324 8.00324 0 0 1 7.97827-7.56995zm-23.74121 38.67432a16.00028 16.00028 0 1 1 28.2605 11.11547 31.9746 31.9746 0 0 0 -22.78223 1.84131 15.99586 15.99586 0 0 1 -5.47827-12.95678zm15.83594 26.20168a15.98115 15.98115 0 0 1 17.99707 22.1936 31.81427 31.81427 0 0 0 -15.41309 3.71948 32.2424 32.2424 0 0 0 -6.05322 4.15064 15.99531 15.99531 0 0 1 3.46924-30.06372zm3.40332 61.68115a16.00008 16.00008 0 1 1 29.94165-5.04224 31.87867 31.87867 0 0 0 -18.56324 13.31348 15.99705 15.99705 0 0 1 -11.37841-8.27126zm42.667 35.13916a32.23135 32.23135 0 0 0 -3.0437 6.678 16.01125 16.01125 0 1 1 14.32765-17.81631 31.82367 31.82367 0 0 0 -11.284 11.13829zm19.15625 30.21631a16 16 0 1 1 23.05127-19.77173 31.881 31.881 0 0 0 -9.03662 20.9873 15.99291 15.99291 0 0 1 -14.01466-1.21559zm41.69726 17.95361a16 16 0 1 1 16.9126-25.21655 31.8839 31.8839 0 0 0 -3.08471 22.635 15.99238 15.99238 0 0 1 -13.8279 2.58153zm44.98144 6.13377a16 16 0 1 1 16-16 16.01833 16.01833 0 0 1 -16 16zm45.21582-6.13379a16.00221 16.00221 0 0 1 -14.02832-2.728 31.88968 31.88968 0 0 0 -3.02441-22.31821 15.99721 15.99721 0 1 1 17.05273 25.04626zm41.69727-17.95361a15.99676 15.99676 0 0 1 -14.01465 1.21533 31.882 31.882 0 0 0 -9.03662-20.98779 15.99638 15.99638 0 1 1 23.05127 19.77246zm35.36718-28.46289a15.99877 15.99877 0 0 1 -13.168 4.92456 32.22506 32.22506 0 0 0 -3.043-6.67749 31.82858 31.82858 0 0 0 -11.28467-11.13892 15.99365 15.99365 0 1 1 27.4956 12.89185zm26.45411-36.89209a15.99373 15.99373 0 0 1 -11.37647 8.27173 31.95738 31.95738 0 0 0 -18.56491-13.32862 15.9934 15.9934 0 1 1 29.94141 5.05689zm15.6123-42.62989a15.99209 15.99209 0 0 1 -8.74707 11.01624 31.8852 31.8852 0 0 0 -21.45068-7.858 15.99273 15.99273 0 1 1 30.19775-3.15821z"/></g></svg>