<svg height="512" viewBox="0 0 512 512" width="512" xmlns="http://www.w3.org/2000/svg"><g id="Fill_out_line" data-name="Fill out line"><path d="m72 72h368v368h-368z" fill="#4f5761"/><path d="m24 56h48v400h-48z" fill="#e04446"/><path d="m32 24h32v32h-32z" fill="#ba8b5d"/><path d="m32 456h32v32h-32z" fill="#ba8b5d" transform="matrix(-1 0 0 -1 96 944)"/><path d="m440 56h48v400h-48z" fill="#e04446"/><path d="m448 24h32v32h-32z" fill="#ba8b5d"/><path d="m448 456h32v32h-32z" fill="#ba8b5d" transform="matrix(-1 0 0 -1 928 944)"/><path d="m72 104h368v304h-368z" fill="#ffefd6"/><path d="m440 56h48v32h-48z" fill="#fdca77"/><path d="m440 424h48v32h-48z" fill="#fdca77"/><path d="m24 56h48v32h-48z" fill="#fdca77"/><path d="m24 424h48v32h-48z" fill="#fdca77"/><g fill="#fdc5ca"><path d="m376 496v-40.40206a95.59787 95.59787 0 0 1 28-67.59794 95.59787 95.59787 0 0 0 28-67.59791v-48.40209l-40-16h-56v240z"/><path d="m344 208v48h-48a24 24 0 0 1 0-48z"/><path d="m320 288v48h-48a23.9801 23.9801 0 0 1 -20.77-36 24.30868 24.30868 0 0 1 2.89-3.99 23.88358 23.88358 0 0 1 17.88-8.01z"/><path d="m320 256v48h-48a23.96185 23.96185 0 0 1 -16.97-7.03c-.31006-.31006-.61005-.63-.91-.96a24.00033 24.00033 0 0 1 17.88-40.01z"/><path d="m432 304v-20.759a75.241 75.241 0 0 0 -17.43925-48.16807 75.2409 75.2409 0 0 0 -57.80175-27.07293h-12.759a24 24 0 0 0 -24 24 24 24 0 0 0 24 24h12.6863a27.31368 27.31368 0 0 1 19.3137 8 27.31368 27.31368 0 0 1 8 19.31369v20.68631z"/></g><path d="m384 320v-48h-40v64h24a16 16 0 0 0 16-16z" fill="#fc979e"/><path d="m368 336h-58.46c.13989-.28.26-.57007.37988-.86a27.28661 27.28661 0 0 0 2.08012-10.45006v-44.68994a24 24 0 0 1 48 0v17.37c0 14.49-2.24 28.39 8 38.63z" fill="#ec808b"/><path d="m192 240h288v32h-288z" fill="#ba8b5d"/><path d="m358.62 272h-45.24a23.98752 23.98752 0 0 1 45.24 0z" fill="#9f764a"/><path d="m160 272h16a16 16 0 0 0 16-16v-3.7771a12.2229 12.2229 0 0 0 -12.2229-12.2229 151.554 151.554 0 0 1 -67.7771-16 48 48 0 0 0 19.2 38.4 47.99993 47.99993 0 0 0 28.8 9.6z" fill="#68737f"/><path d="m304 496v-60.6863a27.31368 27.31368 0 0 0 -8-19.3137 27.31368 27.31368 0 0 1 -8-19.31369v-33.37261a27.31368 27.31368 0 0 1 8-19.3137 27.31368 27.31368 0 0 0 8-19.31369v-44.68631a24 24 0 0 1 24-24 24 24 0 0 1 24 24v17.37263a54.62737 54.62737 0 0 0 16 38.62737v160z" fill="#fdc5ca"/><path d="m480 416h-32v-24h-16v8h-16v16h16v16h-32v16h32v8a7.99977 7.99977 0 0 0 8 8v24a7.99977 7.99977 0 0 0 8 8h32a7.99977 7.99977 0 0 0 8-8v-24a7.99977 7.99977 0 0 0 8-8v-160h-16zm0 16v16h-32v-16zm-8 48h-16v-16h16z"/><path d="m488 48v-24a7.99977 7.99977 0 0 0 -8-8h-32a7.99977 7.99977 0 0 0 -8 8v24a7.99977 7.99977 0 0 0 -8 8v8h-352v-8a7.99977 7.99977 0 0 0 -8-8v-24a7.99977 7.99977 0 0 0 -8-8h-32a7.99977 7.99977 0 0 0 -8 8v24a7.99977 7.99977 0 0 0 -8 8v400a7.99977 7.99977 0 0 0 8 8v24a7.99977 7.99977 0 0 0 8 8h32a7.99977 7.99977 0 0 0 8-8v-24a7.99977 7.99977 0 0 0 8-8v-8h200v-16h-200v-16h184v-16h-184v-288h352v104h16v-120h32v120h16v-160a7.99977 7.99977 0 0 0 -8-8zm-32-16h16v16h-16zm-424 416v-16h32v16zm0-32v-320h32v320zm32-352v16h-32v-16zm-24-32h16v16h-16zm16 448h-16v-16h16zm24-384v-16h352v16zm368-16v-16h32v16z"/><path d="m415.61914 387.69434a82.69652 82.69652 0 0 0 24.38086-58.86034v-45.59279q0-1.61792-.06567-3.24121h40.06567a7.99977 7.99977 0 0 0 8-8v-32a7.99977 7.99977 0 0 0 -8-8h-57.657c-.53906-.68994-1.0791-1.37976-1.63648-2.04883a83.01852 83.01852 0 0 0 -63.94724-29.95117h-60.75928a32.036 32.036 0 0 0 -32 32h-72a7.95831 7.95831 0 0 0 -3.28479.71094 15.94214 15.94214 0 0 0 -4.71521-.71094h-4.22314a144.288 144.288 0 0 1 -64.19922-15.15527 7.99974 7.99974 0 0 0 -11.57764 7.15527 56.001 56.001 0 0 0 56 56h24a15.94214 15.94214 0 0 0 4.71521-.71094 7.95831 7.95831 0 0 0 3.28479.71094h48a31.79259 31.79259 0 0 0 4.29913 15.98975 31.99179 31.99179 0 0 0 27.70087 48.01025h13.74353a35.06414 35.06414 0 0 0 -5.74353 19.31348v33.373a35.08178 35.08178 0 0 0 10.34326 24.97022 19.18705 19.18705 0 0 1 5.65674 13.65678v60.68652h16v-60.68652a35.08178 35.08178 0 0 0 -10.34326-24.97022 19.18705 19.18705 0 0 1 -5.65674-13.65674v-33.373a19.18705 19.18705 0 0 1 5.65674-13.65674 35.08178 35.08178 0 0 0 10.34326-24.97026v-44.68652a16 16 0 0 1 32 0v17.37256a62.21548 62.21548 0 0 0 18.34326 44.28418l11.31348-11.31348a46.32275 46.32275 0 0 1 -13.65674-32.9707v-17.37256h16v24h16v-24h31.91174c.05237 1.0813.08826 2.1626.08826 3.24121v45.59279a66.801 66.801 0 0 1 -19.69434 47.54688l-11.9248 11.9248a82.69652 82.69652 0 0 0 -24.38086 58.86032v48.834h16v-48.834a66.801 66.801 0 0 1 19.69434-47.54688zm-58.85986-171.69434a67.02889 67.02889 0 0 1 43.53662 16h-72.2959a16.01833 16.01833 0 0 1 16-16zm-60.75928 0h20.30493a31.794 31.794 0 0 0 -4.30493 16h-32a16.01833 16.01833 0 0 1 16-16zm-136 48a39.94682 39.94682 0 0 1 -37.71387-26.72754 160.47537 160.47537 0 0 0 57.49073 10.72754l4.22265-.01025.00049.01025v16zm136 16v16h-24a16.01833 16.01833 0 0 1 -16-16zm-40 32a16.00951 16.00951 0 0 1 .5199-4.00562 31.7975 31.7975 0 0 0 15.4801 4.00562h24v12.68652a19.50809 19.50809 0 0 1 -.29944 3.31348h-23.70056a16.01833 16.01833 0 0 1 -16-16zm99.69507-48a31.96928 31.96928 0 0 0 -55.39014 0h-100.30493v-16h272v16z"/></g></svg>