<?xml version="1.0" encoding="iso-8859-1"?>
<!-- Generator: Adobe Illustrator 19.0.0, SVG Export Plug-In . SVG Version: 6.00 Build 0)  -->
<svg version="1.1" id="Capa_1" xmlns="http://www.w3.org/2000/svg" xmlns:xlink="http://www.w3.org/1999/xlink" x="0px" y="0px"
	 viewBox="0 0 512 512" style="enable-background:new 0 0 512 512;" xml:space="preserve">
<path style="fill:#B4826E;" d="M214.284,26.914v77.657l-9.54,281.503h-19.081l-9.54-281.503V26.914
	c0-10.722,8.543-19.414,19.081-19.414l0,0C205.741,7.5,214.284,16.192,214.284,26.914z M103.516,41.308
	c-2.727-10.357-13.19-16.503-23.369-13.728l0,0C69.968,30.355,63.927,41,66.655,51.357l19.754,75.011l80.823,269.399l18.431-5.025
	L123.27,116.319L103.516,41.308z"/>
<path style="fill:#A06E5F;" d="M103.516,41.308l19.754,75.011l-36.861,10.049l-19.754-75.01
	c-2.727-10.357,3.313-21.002,13.492-23.777C90.326,24.805,100.789,30.951,103.516,41.308z M195.203,7.5
	c-10.538,0-19.081,8.692-19.081,19.414v77.656h38.162V26.914C214.284,16.192,205.741,7.5,195.203,7.5z"/>
<path style="fill:#FFEBBE;" d="M417.852,319.945L417.852,319.945c0,15.078-12.013,27.301-26.832,27.301H163.481
	c-14.819,0-26.832-12.223-26.832-27.301l0,0c0-13.434,9.539-24.593,22.1-26.869c-0.411-1.898-0.634-3.868-0.634-5.892l0,0
	c0-13.434,9.539-24.593,22.1-26.869c-0.411-1.898-0.634-3.868-0.634-5.892l0,0c0-13.434,9.539-24.593,22.1-26.869
	c-0.411-1.898-0.634-3.868-0.634-5.892l0,0c0-15.078,12.013-27.301,26.832-27.301h11.806c0-12.062,9.611-21.841,21.466-21.841
	c6.42,0,12.166,2.883,16.099,7.428c3.934-4.545,9.679-7.428,16.099-7.428c11.855,0,21.466,9.778,21.466,21.841h11.806
	c14.819,0,26.832,12.223,26.832,27.301l0,0c0,2.024-0.223,3.994-0.634,5.892c12.56,2.276,22.1,13.435,22.1,26.869l0,0
	c0,2.024-0.223,3.994-0.634,5.892c12.561,2.276,22.1,13.435,22.1,26.869l0,0c0,2.024-0.223,3.994-0.634,5.892
	C408.312,295.352,417.852,306.511,417.852,319.945z"/>
<path style="fill:#FFE1B3;" d="M417.852,319.945L417.852,319.945c0,15.078-12.013,27.301-26.832,27.301H272.246
	c42.008-3.883,46.778-39.627,46.778-77.656c0-28.542-17.577-74.438-31.297-96.305c1.791-0.496,3.675-0.765,5.622-0.765
	c11.855,0,21.466,9.778,21.466,21.841h11.806c14.819,0,26.832,12.223,26.832,27.301l0,0c0,2.024-0.223,3.994-0.634,5.892
	c12.561,2.276,22.1,13.435,22.1,26.869l0,0c0,2.024-0.223,3.994-0.634,5.892c12.561,2.276,22.1,13.435,22.1,26.869l0,0
	c0,2.024-0.223,3.994-0.634,5.892C408.313,295.352,417.852,306.511,417.852,319.945z"/>
<path style="fill:#AA4141;" d="M110.638,337.539H436c5.523,0,10,4.477,10,10V384.5c0,66.274-53.726,120-120,120H220.638
	c-66.274,0-120-53.726-120-120v-36.961C100.638,342.016,105.115,337.539,110.638,337.539z"/>
<path style="fill:#963737;" d="M446,347.246v40.77c0,64.333-51.257,116.484-114.485,116.484h-35.299
	c63.228,0,114.485-52.152,114.485-116.484v-50.477h25.759C441.728,337.539,446,341.885,446,347.246z"/>
<path d="M438.932,330.039h-16.563c0.965-3.232,1.461-6.62,1.461-10.094c0-14.446-8.725-27.078-21.528-32.279
	c0.002-0.161,0.003-0.322,0.003-0.482c0-14.444-8.725-27.077-21.529-32.279c0.002-0.16,0.003-0.321,0.003-0.481
	c0-14.445-8.726-27.078-21.529-32.28c0.002-0.16,0.003-0.321,0.003-0.481c0-19.189-15.435-34.801-34.407-34.801h-5.301
	c-3.286-12.558-14.623-21.841-28.065-21.841c-5.798,0-11.407,1.765-16.145,4.979c-4.736-3.215-10.346-4.979-16.144-4.979
	c-13.442,0-24.779,9.283-28.066,21.841h-5.3c-3.083,0-6.069,0.418-8.914,1.191l2.777-83.231c0.003-0.083,0.004-0.167,0.004-0.25
	V26.914C219.694,12.073,207.746,0,193.06,0s-26.634,12.073-26.634,26.914v77.656c0,0.085,0.001,0.171,0.004,0.256l4.759,139.296
	c0.008,0.23,0.029,0.457,0.057,0.681c-0.87,3.067-1.352,6.292-1.352,9.62c0,0.16,0.001,0.321,0.003,0.481
	c-3.042,1.236-5.844,2.903-8.363,4.902l-33.296-145.165c-0.019-0.08-0.038-0.159-0.06-0.238l-0.012-0.047
	c0-0.002-0.001-0.004-0.001-0.006c0-0.001-0.001-0.003-0.001-0.004L108.37,39.394c-1.849-7.001-6.295-12.836-12.521-16.431
	c-6.145-3.548-13.294-4.478-20.133-2.621c-14.152,3.849-22.592,18.62-18.814,32.93c0,0,19.827,75.073,19.829,75.078
	c0.016,0.06,0.033,0.119,0.05,0.179l53.214,176.878c-2.019,4.445-3.152,9.371-3.152,14.538c0,3.471,0.499,6.859,1.465,10.094H111.74
	c-9.41,0-17.067,7.719-17.067,17.207v40.77C94.674,456.381,149.539,512,216.978,512h116.718C401.134,512,456,456.381,456,388.016
	v-40.77C456,337.758,448.344,330.039,438.932,330.039z M191.42,221.661c0,0.16,0.001,0.321,0.003,0.482
	c-2.074,0.843-4.028,1.899-5.868,3.108l-3.867-113.181h22.753l-2.833,84.9C195.32,203.279,191.42,212.017,191.42,221.661z
	 M193.06,15c6.415,0,11.634,5.345,11.634,11.914V97.07h-23.268V26.914C181.426,20.345,186.645,15,193.06,15z M148.372,287.666
	c-2.466,1.002-4.777,2.285-6.908,3.798l-48.1-159.88l21.998-5.981l34.633,150.995c-1.055,3.35-1.626,6.908-1.626,10.585
	C148.369,287.344,148.37,287.505,148.372,287.666z M79.65,34.817c2.953-0.802,6.039-0.396,8.698,1.137
	c2.737,1.581,4.697,4.162,5.518,7.27l17.908,67.811l-22.489,6.114l-17.88-67.706C69.722,43.072,73.422,36.511,79.65,34.817z
	 M441,388.016C441,448.109,392.863,497,333.695,497H216.978c-59.167,0-107.304-48.891-107.304-108.984v-40.77
	c0-1.217,0.927-2.207,2.066-2.207h82.072c4.143,0,7.5-3.357,7.5-7.5s-3.357-7.5-7.5-7.5h-49.246
	c-1.778-3.042-2.723-6.485-2.723-10.094c0-9.618,6.727-17.814,15.994-19.488c2.003-0.362,3.772-1.521,4.902-3.214
	c1.131-1.691,1.525-3.77,1.094-5.758c-0.309-1.422-0.465-2.869-0.465-4.302c0-9.617,6.727-17.813,15.995-19.488
	c2.002-0.362,3.772-1.522,4.901-3.214c1.131-1.691,1.525-3.77,1.094-5.758c-0.309-1.422-0.465-2.868-0.465-4.301
	c0-9.618,6.727-17.814,15.994-19.488c2.003-0.362,3.772-1.521,4.902-3.214c1.131-1.691,1.525-3.77,1.094-5.758
	c-0.309-1.422-0.465-2.869-0.465-4.302c0-10.918,8.706-19.801,19.407-19.801h11.839c4.143,0,7.5-3.357,7.5-7.5
	c0-7.907,6.292-14.341,14.026-14.341c3.988,0,7.808,1.766,10.48,4.844c1.424,1.641,3.49,2.584,5.664,2.584
	c2.173,0,4.239-0.942,5.664-2.583c2.672-3.079,6.492-4.845,10.481-4.845c7.733,0,14.026,6.434,14.026,14.341
	c0,4.143,3.357,7.5,7.5,7.5h11.84c10.7,0,19.406,8.883,19.406,19.801c0,1.433-0.156,2.881-0.465,4.305
	c-0.431,1.988-0.035,4.066,1.096,5.757s2.899,2.85,4.901,3.212c9.268,1.674,15.994,9.87,15.994,19.488
	c0,1.433-0.156,2.879-0.465,4.301c-0.432,1.988-0.037,4.066,1.094,5.758c1.13,1.691,2.899,2.852,4.901,3.214
	c9.269,1.675,15.995,9.871,15.995,19.488c0,1.433-0.156,2.88-0.465,4.302c-0.432,1.988-0.037,4.066,1.094,5.758
	c1.131,1.692,2.899,2.852,4.902,3.214c9.268,1.674,15.994,9.87,15.994,19.488c0,3.615-0.944,7.054-2.722,10.094H220.281
	c-4.143,0-7.5,3.357-7.5,7.5s3.357,7.5,7.5,7.5h218.651c1.14,0,2.067,0.99,2.067,2.207v40.77H441z M300.365,221.055
	c0-4.143,3.357-7.5,7.5-7.5h9.566c4.143,0,7.5,3.357,7.5,7.5s-3.357,7.5-7.5,7.5h-9.566
	C303.722,228.555,300.365,225.197,300.365,221.055z M262.096,230.762c0-4.143,3.357-7.5,7.5-7.5h9.567c4.143,0,7.5,3.357,7.5,7.5
	s-3.357,7.5-7.5,7.5h-9.567C265.454,238.262,262.096,234.904,262.096,230.762z M317.431,262.09h9.567c4.143,0,7.5,3.357,7.5,7.5
	s-3.357,7.5-7.5,7.5h-9.567c-4.143,0-7.5-3.357-7.5-7.5S313.289,262.09,317.431,262.09z"/>
<g>
</g>
<g>
</g>
<g>
</g>
<g>
</g>
<g>
</g>
<g>
</g>
<g>
</g>
<g>
</g>
<g>
</g>
<g>
</g>
<g>
</g>
<g>
</g>
<g>
</g>
<g>
</g>
<g>
</g>
</svg>
