<svg height="512" viewBox="0 0 512 512" width="512" xmlns="http://www.w3.org/2000/svg"><g id="Fill_out_line" data-name="Fill out line"><path d="m176 56h32v232h-32z" fill="#ba8b5d"/><path d="m176 24h32v32h-32z" fill="#e04446"/><path d="m240 56h32v232h-32z" fill="#ba8b5d"/><path d="m240 24h32v32h-32z" fill="#e04446"/><path d="m304 56h32v232h-32z" fill="#ba8b5d"/><path d="m304 24h32v32h-32z" fill="#e04446"/><path d="m368 288v154a46.00658 46.00658 0 0 1 -46 46h-132a45.968 45.968 0 0 1 -46-46v-154z" fill="#e04446"/><path d="m368 288v154a46.00658 46.00658 0 0 1 -46 46h-132a45.98827 45.98827 0 0 1 -40.97-25.06006 45.62787 45.62787 0 0 0 20.97 5.06006h74a103.997 103.997 0 0 0 104-104v-76z" fill="#d6323f"/><path d="m348 312h20v16h-20z" fill="#fab53f"/><path d="m338.25 408h29.75v16h-39.04a102.94737 102.94737 0 0 0 9.29-16z" fill="#fab53f"/><path d="m416 96h16v40h-16z" fill="#ffefd6"/><path d="m400 376h48v96h-48z" fill="#fca529"/><path d="m488 328v24a40.00174 40.00174 0 0 1 -40 40h-48a40.0163 40.0163 0 0 1 -39.19995-32 40.57075 40.57075 0 0 1 -.8-8v-24z" fill="#fdca77"/><path d="m488 328v24a40.00174 40.00174 0 0 1 -40 40h-48a40.0163 40.0163 0 0 1 -39.19995-32h95.19995a15.99555 15.99555 0 0 0 16-16v-16z" fill="#fab53f"/><path d="m392 160h64v168h-64z" fill="#e04446"/><path d="m456 160h-64l8-32h48z" fill="#e5585a"/><path d="m440 160h16v168h-16z" fill="#d6323f"/><path d="m456 160h-16l-8-32h16z" fill="#e04446"/><path d="m448 80a24 24 0 0 1 -48 0c0-13.25483 24-56 24-56s24 42.74517 24 56z" fill="#e04446"/><path d="m488 488h-128a32.004 32.004 0 0 1 32-32h64a31.99119 31.99119 0 0 1 32 32z" fill="#fdca77"/><path d="m488 488h-32a31.99119 31.99119 0 0 0 -32-32h32a31.99119 31.99119 0 0 1 32 32z" fill="#fab53f"/><path d="m80 96h16v40h-16z" fill="#ffefd6"/><path d="m64 376h48v96h-48z" fill="#fca529"/><path d="m152 328v24a40.00174 40.00174 0 0 1 -40 40h-48a40.0163 40.0163 0 0 1 -39.19995-32 40.57075 40.57075 0 0 1 -.8-8v-24z" fill="#fdca77"/><path d="m152 328v24a40.00174 40.00174 0 0 1 -40 40h-48a40.0163 40.0163 0 0 1 -39.19995-32h95.19995a15.99555 15.99555 0 0 0 16-16v-16z" fill="#fab53f"/><path d="m56 160h64v168h-64z" fill="#e04446"/><path d="m120 160h-64l8-32h48z" fill="#e5585a"/><path d="m104 160h16v168h-16z" fill="#d6323f"/><path d="m120 160h-16l-8-32h16z" fill="#e04446"/><path d="m112 80a24 24 0 0 1 -48 0c0-13.25483 24-56 24-56s24 42.74517 24 56z" fill="#e04446"/><path d="m152 488h-128a32.004 32.004 0 0 1 32-32h64a31.99119 31.99119 0 0 1 32 32z" fill="#fdca77"/><path d="m152 488h-32a31.99119 31.99119 0 0 0 -32-32h32a31.99119 31.99119 0 0 1 32 32z" fill="#fab53f"/><circle cx="424" cy="88" fill="#fc6f35" r="16"/><circle cx="88" cy="88" fill="#fc6f35" r="16"/><path d="m152 296h208v8h16v-16a7.99977 7.99977 0 0 0 -8-8h-24v-256a7.99977 7.99977 0 0 0 -8-8h-32a7.99977 7.99977 0 0 0 -8 8v256h-16v-256a7.99977 7.99977 0 0 0 -8-8h-32a7.99977 7.99977 0 0 0 -8 8v256h-16v-256a7.99977 7.99977 0 0 0 -8-8h-32a7.99977 7.99977 0 0 0 -8 8v256h-24a7.99977 7.99977 0 0 0 -8 8v16h16zm176-264v16h-16v-16zm-16 32h16v216h-16zm-48-32v16h-16v-16zm-16 32h16v216h-16zm-48-32v16h-16v-16zm-16 32h16v216h-16z"/><path d="m322 480h-132a37.98866 37.98866 0 0 1 -11.56738-1.79053l-4.86524 15.24219a53.96009 53.96009 0 0 0 16.43262 2.54834h132a53.96009 53.96009 0 0 0 16.43262-2.54834l-4.86524-15.24219a37.98866 37.98866 0 0 1 -11.56738 1.79053z"/><path d="m208 344h-32a7.99977 7.99977 0 0 0 -8 8v32a7.99977 7.99977 0 0 0 8 8h16v-16h-8v-16h16v24a7.99977 7.99977 0 0 0 8 8h32a7.99977 7.99977 0 0 0 8-8v-32a7.99977 7.99977 0 0 0 -8-8h-16v16h8v16h-16v-24a7.99977 7.99977 0 0 0 -8-8z"/><path d="m304 344h-32a7.99977 7.99977 0 0 0 -8 8v32a7.99977 7.99977 0 0 0 8 8h16v-16h-8v-16h16v24a7.99977 7.99977 0 0 0 8 8h32a7.99977 7.99977 0 0 0 8-8v-32a7.99977 7.99977 0 0 0 -8-8h-16v16h8v16h-16v-24a7.99977 7.99977 0 0 0 -8-8z"/><path d="m136 416v16h16v-8h208v8h16v-16a7.99977 7.99977 0 0 0 -8-8h-224a7.99977 7.99977 0 0 0 -8 8z"/><path d="m120 448v-48.6665a48.07871 48.07871 0 0 0 40-47.3335v-24a7.99977 7.99977 0 0 0 -8-8h-24v-160h-.00635a7.98653 7.98653 0 0 0 -.23242-1.94043l-8-32a8.00059 8.00059 0 0 0 -7.76123-6.05957h-16v-9.01257a32.05728 32.05728 0 0 0 24-30.98743c0-14.60742-20.8457-52.47412-25.02441-59.9165a7.99973 7.99973 0 0 0 -13.95118 0c-4.17871 7.44238-25.02441 45.30908-25.02441 59.9165a32.05728 32.05728 0 0 0 24 30.98743v9.01257h-16a8.00059 8.00059 0 0 0 -7.76123 6.05957l-8 32a7.99244 7.99244 0 0 0 -.23242 1.94043h-.00635v160h-24a7.99977 7.99977 0 0 0 -8 8v24a48.07871 48.07871 0 0 0 40 47.3335v48.6665a40.04521 40.04521 0 0 0 -40 40 7.99977 7.99977 0 0 0 8 8h128a7.99977 7.99977 0 0 0 8-8 39.992 39.992 0 0 0 -40-40zm-48-368c0-5.438 7.43359-22.4834 16.001-39.106 8.56589 16.61821 15.999 33.66313 15.999 39.106a16 16 0 0 1 -32 0zm-1.75391 56h35.50782l4 16h-43.50782zm-6.24609 32h48v152h-48zm-30.62891 312a24.04118 24.04118 0 0 1 22.62891-16h8a7.99977 7.99977 0 0 0 8-8v-64a7.99977 7.99977 0 0 0 -8-8 32.036 32.036 0 0 1 -32-32v-16h112v16h-88v16h83.69507a32.01141 32.01141 0 0 1 -27.69507 16h-24v16h16v48h-16v16h32a24.03251 24.03251 0 0 1 22.64209 16z"/><path d="m496 352v-24a7.99977 7.99977 0 0 0 -8-8h-24v-160h-.00635a7.98653 7.98653 0 0 0 -.23242-1.94043l-8-32a8.00059 8.00059 0 0 0 -7.76123-6.05957h-16v-9.01257a32.05728 32.05728 0 0 0 24-30.98743c0-14.60742-20.8457-52.47412-25.02441-59.9165a7.99973 7.99973 0 0 0 -13.95118 0c-4.17871 7.44238-25.02441 45.30908-25.02441 59.9165a32.05728 32.05728 0 0 0 24 30.98743v9.01257h-16a8.00059 8.00059 0 0 0 -7.76123 6.05957l-8 32a7.99244 7.99244 0 0 0 -.23242 1.94043h-.00635v160h-16v-8h-192v16h176v24a48.07871 48.07871 0 0 0 40 47.3335v48.6665a40.04521 40.04521 0 0 0 -40 40 7.99977 7.99977 0 0 0 8 8h128a7.99977 7.99977 0 0 0 8-8 39.992 39.992 0 0 0 -40-40v-48.6665a48.07871 48.07871 0 0 0 40-47.3335zm-88-272c0-5.438 7.43359-22.4834 16.001-39.106 8.56589 16.61821 15.999 33.66313 15.999 39.106a16 16 0 0 1 -32 0zm-1.75391 56h35.50782l4 16h-43.50782zm-6.24609 32h48v152h-48zm24 216v16h16v48h-16v16h32a24.03251 24.03251 0 0 1 22.64209 16h-109.271a24.04118 24.04118 0 0 1 22.62891-16h8a7.99977 7.99977 0 0 0 8-8v-64a7.99977 7.99977 0 0 0 -8-8 32.036 32.036 0 0 1 -32-32v-16h112v16h-88v16h83.69507a32.01141 32.01141 0 0 1 -27.69507 16z"/></g></svg>