<?xml version="1.0"?>
<svg xmlns="http://www.w3.org/2000/svg" viewBox="0 0 512 512" width="512" height="512"><g id="Fill_out_line" data-name="Fill out line"><rect x="24" y="24" width="32" height="472" style="fill:#68737f"/><path d="M488,408,194.71857,445.60018A16.60678,16.60678,0,0,1,176,429.12822V120L488,80Z" style="fill:#ce2337"/><path d="M317.28143,354.39982,24,392V64L317.28143,26.39982A16.60678,16.60678,0,0,1,336,42.87178v328h0A16.60678,16.60678,0,0,0,317.28143,354.39982Z" style="fill:#e04446"/><polygon points="144 88 156.952 127.862 198.865 127.862 164.957 152.498 177.909 192.36 144 167.724 110.091 192.36 123.043 152.498 89.135 127.862 131.048 127.862 144 88" style="fill:#fdca77"/><path d="M336,370.87v4.26a16.60123,16.60123,0,0,1-14.49,16.47L190.49,408.3999A16.60144,16.60144,0,0,0,176,424.87V372.51L317.28,354.3999A16.60762,16.60762,0,0,1,336,370.87Z" style="fill:#d6323f"/><path d="M493.28516,73.99414a8.00037,8.00037,0,0,0-6.30274-1.9292L344,90.39612V42.87158a24.60611,24.60611,0,0,0-27.73633-24.40674L64,50.80627V24a8.00008,8.00008,0,0,0-8-8H24a8.00008,8.00008,0,0,0-8,8V496H32V399.03979l16-2.05126V496H64V394.93726L168,381.604v47.52442a24.60768,24.60768,0,0,0,27.73633,24.40674l293.28125-37.6001A7.99984,7.99984,0,0,0,496,408V80A8.00123,8.00123,0,0,0,493.28516,73.99414ZM48,32V52.85754L32,54.90881V32ZM32,71.03979,318.29883,34.335A8.60676,8.60676,0,0,1,328,42.87158V347.81982a24.62225,24.62225,0,0,0-11.73633-1.355L32,382.90881ZM318.29883,362.335A8.60676,8.60676,0,0,1,328,370.87158v4.2583a8.62571,8.62571,0,0,1-7.5127,8.53711l-131.00976,16.7959A24.42071,24.42071,0,0,0,184,401.846V379.55273ZM480,400.96,193.70117,437.665A8.60676,8.60676,0,0,1,184,429.12842v-4.2583a8.62571,8.62571,0,0,1,7.5127-8.53711l131.00976-16.7959A24.66031,24.66031,0,0,0,344,375.12988V106.5271L480,89.09131Z"/><path d="M198.86523,119.86182H162.76465l-11.15625-34.334a7.99994,7.99994,0,0,0-15.2168,0l-11.15625,34.334H89.13477A8,8,0,0,0,84.43262,134.334l29.20605,21.21973-11.15527,34.334A8,8,0,0,0,114.794,198.832L144,177.61279,173.20605,198.832a8,8,0,0,0,12.31055-8.94433l-11.15527-34.334L203.56738,134.334a8,8,0,0,0-4.70215-14.47216Zm-38.61035,26.16406a7.99984,7.99984,0,0,0-2.90625,8.94433l5.34278,16.44581L148.70215,161.252a7.99974,7.99974,0,0,0-9.4043,0L125.30859,171.416l5.34278-16.44581a7.99984,7.99984,0,0,0-2.90625-8.94433l-13.98926-10.16406h17.292a7.99991,7.99991,0,0,0,7.6084-5.52784L144,113.88818l5.34375,16.4458a7.99991,7.99991,0,0,0,7.6084,5.52784h17.292Z"/><circle cx="224" cy="240" r="8"/><circle cx="256" cy="200" r="8"/><circle cx="264" cy="144" r="8"/><circle cx="256" cy="88" r="8"/></g></svg>
