<?xml version="1.0" encoding="iso-8859-1"?>
<!-- Generator: Adobe Illustrator 19.0.0, SVG Export Plug-In . SVG Version: 6.00 Build 0)  -->
<svg version="1.1" id="Capa_1" xmlns="http://www.w3.org/2000/svg" xmlns:xlink="http://www.w3.org/1999/xlink" x="0px" y="0px"
	 viewBox="0 0 512 512" style="enable-background:new 0 0 512 512;" xml:space="preserve">
<path style="fill:#FFEBBE;" d="M448.5,396.752v20.385c0,5.361-4.309,9.707-9.625,9.707v9.947c0,2.02-0.703,3.958-1.907,5.572
	c-4.844,6.489-7.718,14.559-7.718,23.309s2.873,16.82,7.718,23.309c1.205,1.614,1.907,3.552,1.907,5.572v0.917
	c0,4.988-4.009,9.031-8.955,9.031H82.75c-10.632,0-19.25-8.692-19.25-19.414v-38.828l0,0v-19.414v-30.092L448.5,396.752
	L448.5,396.752z"/>
<g>
	<path style="fill:#E6C8A0;" d="M448.5,396.752v20.385c0,5.361-4.309,9.707-9.625,9.707v9.947c0,2.02-0.703,3.958-1.907,5.572
		c-4.844,6.489-7.718,14.559-7.718,23.309s2.873,16.82,7.718,23.309c1.205,1.614,1.907,3.552,1.907,5.572v0.917
		c0,4.988-4.009,9.031-8.955,9.031h-25.025c4.946,0,8.955-4.043,8.955-9.031v-0.917c0-2.02-0.703-3.958-1.907-5.572
		c-4.844-6.489-7.718-14.559-7.718-23.309c0-8.751,2.873-16.82,7.718-23.309c1.205-1.614,1.907-3.551,1.907-5.572v-9.947
		c5.316,0,9.625-4.346,9.625-9.707v-20.385H448.5z"/>
	<path style="fill:#E6C8A0;" d="M103.444,391.898v34.945v42.711V504.5H82.75c-10.632,0-19.25-8.692-19.25-19.414v-34.945v-3.883
		v-34.945c0-10.722,8.618-19.414,19.25-19.414L103.444,391.898L103.444,391.898z"/>
</g>
<path style="fill:#69AFEB;" d="M448.5,46.328v370.809c0,5.361-4.309,9.707-9.625,9.707H82.75c-10.632,0-19.25,8.692-19.25,19.414
	v-19.414V56.035c0-10.722,8.619-19.414,19.25-19.414h356.125C444.191,36.621,448.5,40.967,448.5,46.328z"/>
<path style="fill:#5091D7;" d="M448.5,46.328v370.809c0,5.361-4.309,9.707-9.625,9.707H413.85c5.316,0,9.625-4.346,9.625-9.707
	V46.328c0-5.361-4.309-9.707-9.625-9.707h25.025C444.191,36.621,448.5,40.967,448.5,46.328z"/>
<path style="fill:#504B5A;" d="M268.178,362.777c-66.447,0-120.313-54.325-120.313-121.338s53.866-121.338,120.313-121.338
	S388.49,174.426,388.49,241.439S334.625,362.777,268.178,362.777z"/>
<path style="fill:#EDEDEE;" d="M289.353,121.976v46.331c0,26.219-7.34,51.906-21.175,74.103s-21.175,47.884-21.175,74.103v44.389
	c6.874,1.231,13.95,1.875,21.175,1.875c66.447,0,120.313-54.325,120.313-121.338C388.49,181.713,345.701,132.067,289.353,121.976z
	 M300.903,315.213c-10.632,0-19.25-8.692-19.25-19.414c0-10.722,8.618-19.414,19.25-19.414s19.25,8.692,19.25,19.414
	C320.153,306.521,311.534,315.213,300.903,315.213z M235.453,206.494c-10.632,0-19.25-8.692-19.25-19.414s8.618-19.414,19.25-19.414
	s19.25,8.692,19.25,19.414S246.084,206.494,235.453,206.494z"/>
<path style="fill:#FF4B4B;" d="M400.238,163.337c0.535,2.214-0.534,4.494-2.555,5.513c-7.113,3.587-15.136,5.611-23.63,5.611
	s-16.517-2.023-23.63-5.611c-2.021-1.019-3.09-3.299-2.555-5.513l14.191-58.678c1.248-5.159,5.483-9.189,10.721-9.73
	c6.171-0.637,11.741,3.417,13.179,9.365L400.238,163.337z"/>
<path d="M448.5,364.453c4.142,0,7.5-3.357,7.5-7.5V46.328c0-9.488-7.682-17.207-17.125-17.207h-58.092
	C377.336,12.513,362.682,0,345.178,0s-32.158,12.513-35.605,29.121H82.75C68,29.121,56,41.194,56,56.035v390.223v38.828
	C56,499.927,68,512,82.75,512h347.17c9.073,0,16.455-7.416,16.455-16.531v-0.916c0-3.603-1.174-7.08-3.397-10.059
	c-4.074-5.458-6.228-11.967-6.228-18.822s2.154-13.364,6.229-18.823c2.222-2.978,3.396-6.455,3.396-10.058v-4.209
	c5.689-2.801,9.625-8.662,9.625-15.445v-31.543c0-4.143-3.358-7.5-7.5-7.5s-7.5,3.357-7.5,7.5v31.543
	c0,1.217-0.953,2.207-2.125,2.207H82.75c-4.213,0-8.201,0.984-11.75,2.738V56.035c0-6.569,5.271-11.914,11.75-11.914h5.975v351.66
	c0,4.143,3.358,7.5,7.5,7.5s7.5-3.357,7.5-7.5V44.121h242.108c4.142,0,7.5-3.357,7.5-7.5s-3.358-7.5-7.5-7.5H325.13
	C328.152,20.885,335.997,15,345.178,15c11.786,0,21.375,9.699,21.375,21.621v52.26c-5.754,2.423-10.225,7.569-11.784,14.015
	l-8.785,36.327c-22.25-17.225-49.54-26.622-77.806-26.622c-70.476,0-127.813,57.797-127.813,128.838s57.336,128.838,127.813,128.838
	S395.99,312.48,395.99,241.439c0-21.036-5.05-41.517-14.658-59.918c6.863-0.826,13.474-2.821,19.729-5.975
	c5.168-2.607,7.827-8.354,6.467-13.972l-14.279-59.044c-1.529-6.321-6.017-11.269-11.696-13.635V44.121h57.322
	c1.172,0,2.125,0.99,2.125,2.207v310.625C441,361.096,444.358,364.453,448.5,364.453z M431.375,495.469
	c0,0.845-0.652,1.531-1.455,1.531H103.725v-62.391c0-0.09-0.01-0.177-0.013-0.266h327.663v2.447c0,0.34-0.148,0.726-0.417,1.086
	c-1.812,2.427-3.362,4.997-4.651,7.675h-64.432c-4.142,0-7.5,3.357-7.5,7.5s3.358,7.5,7.5,7.5h60.158
	c-0.183,1.689-0.283,3.396-0.283,5.12c0,1.722,0.1,3.428,0.283,5.116H294.5c-4.142,0-7.5,3.357-7.5,7.5s3.358,7.5,7.5,7.5h131.805
	c1.289,2.679,2.839,5.25,4.652,7.678c0.27,0.361,0.418,0.747,0.418,1.087V495.469z M82.75,434.344h5.989
	c-0.003,0.089-0.013,0.176-0.013,0.266V497H82.75C76.271,497,71,491.655,71,485.086v-38.828
	C71,439.688,76.271,434.344,82.75,434.344z M155.365,241.439c0-62.771,50.607-113.838,112.813-113.838
	c4.595,0,9.161,0.288,13.675,0.842v39.864c0,24.849-6.93,49.102-20.041,70.136c-14.595,23.418-22.31,50.414-22.31,78.07v35.033
	C191.141,338.711,155.365,294.214,155.365,241.439z M268.178,355.277c-4.628,0-9.191-0.289-13.675-0.838v-37.925
	c0-24.849,6.93-49.102,20.04-70.137c14.596-23.416,22.311-50.412,22.311-78.069v-36.971c16.588,4.393,32.068,12.579,45.213,24.087
	l-1.487,6.149c-1.36,5.62,1.299,11.366,6.467,13.974c5.355,2.701,10.973,4.55,16.786,5.545
	c11.222,18.071,17.159,38.879,17.159,60.347C380.99,304.21,330.383,355.277,268.178,355.277z M392.449,163.039
	c-3.502,1.573-7.145,2.669-10.896,3.296v-22.937c0-4.143-3.358-7.5-7.5-7.5s-7.5,3.357-7.5,7.5v22.937
	c-3.751-0.627-7.395-1.723-10.896-3.296l13.692-56.617c0.525-2.173,2.253-3.832,4.2-4.033c2.391-0.244,4.546,1.296,5.12,3.668
	L392.449,163.039z M300.903,268.885c-14.75,0-26.75,12.073-26.75,26.914s12,26.914,26.75,26.914s26.75-12.073,26.75-26.914
	S315.653,268.885,300.903,268.885z M300.903,307.713c-6.479,0-11.75-5.345-11.75-11.914s5.271-11.914,11.75-11.914
	s11.75,5.345,11.75,11.914S307.382,307.713,300.903,307.713z M262.203,187.08c0-14.841-12-26.914-26.75-26.914
	s-26.75,12.073-26.75,26.914s12,26.914,26.75,26.914S262.203,201.921,262.203,187.08z M223.703,187.08
	c0-6.569,5.271-11.914,11.75-11.914s11.75,5.345,11.75,11.914s-5.271,11.914-11.75,11.914S223.703,193.649,223.703,187.08z"/>
<g>
</g>
<g>
</g>
<g>
</g>
<g>
</g>
<g>
</g>
<g>
</g>
<g>
</g>
<g>
</g>
<g>
</g>
<g>
</g>
<g>
</g>
<g>
</g>
<g>
</g>
<g>
</g>
<g>
</g>
</svg>
