<?xml version="1.0" encoding="iso-8859-1"?>
<!-- Generator: Adobe Illustrator 19.0.0, SVG Export Plug-In . SVG Version: 6.00 Build 0)  -->
<svg version="1.1" id="Capa_1" xmlns="http://www.w3.org/2000/svg" xmlns:xlink="http://www.w3.org/1999/xlink" x="0px" y="0px"
	 viewBox="0 0 511.999 511.999" style="enable-background:new 0 0 511.999 511.999;" xml:space="preserve">
<path style="fill:#B4826E;" d="M129.62,36.735v60.907H52.442V36.735C52.442,20.589,65.4,7.5,81.384,7.5h19.295
	C116.663,7.5,129.62,20.589,129.62,36.735z M457.629,420.692h-67.531v54.573c0,16.146,12.958,29.235,28.942,29.235h19.295
	c15.984,0,28.942-13.089,28.942-29.235v-44.827C467.276,425.055,462.957,420.692,457.629,420.692z"/>
<path style="fill:#803030;" d="M449.558,110.798H62.442c-5.523,0-10-4.477-10-10v-9.235c0-5.523,4.477-10,10-10h387.116
	c5.523,0,10,4.477,10,10v9.235C459.558,106.321,455.081,110.798,449.558,110.798z"/>
<path style="fill:#C83741;" d="M71.737,96.18c0,13.455-10.798,24.363-24.118,24.363S23.5,109.636,23.5,96.18
	s10.798-24.363,24.118-24.363S71.737,82.725,71.737,96.18z M464.382,71.818c-13.32,0-24.118,10.908-24.118,24.363
	s10.798,24.363,24.118,24.363S488.5,109.636,488.5,96.18S477.702,71.818,464.382,71.818z"/>
<path style="fill:#FFEBBE;" d="M438.334,504.5h-28.942H139.268c-15.984,0-28.942-13.089-28.942-29.235V194.656
	c0-1.28,0.505-2.509,1.405-3.418l14.506-14.653c1.873-1.892,1.873-4.944,0-6.836l-14.506-14.653c-0.9-0.909-1.405-2.138-1.405-3.418
	V36.735c0-16.146-12.958-29.235-28.942-29.235h28.942H380.45c15.984,0,28.942,13.089,28.942,29.235v309.833
	c0,1.288-0.508,2.523-1.413,3.437l-14.471,14.618c-1.888,1.907-1.888,4.983,0,6.891l14.471,14.618
	c0.905,0.914,1.413,2.15,1.413,3.437v85.696C409.392,491.411,422.35,504.5,438.334,504.5z"/>
<path style="fill:#FFE1B3;" d="M438.334,504.5h-27.012c-15.984,0-28.942-13.089-28.942-29.235v-85.688
	c0-1.292-0.508-2.532-1.413-3.445l-14.471-14.618c-1.884-1.903-1.884-4.988,0-6.891l14.471-14.618
	c0.905-0.914,1.413-2.153,1.413-3.445V36.735c0-16.146-12.958-29.235-28.942-29.235h27.012c15.984,0,28.942,13.089,28.942,29.235
	V346.56c0,1.292-0.508,2.532-1.413,3.445l-14.471,14.618c-1.884,1.903-1.884,4.988,0,6.891l14.471,14.618
	c0.905,0.914,1.413,2.153,1.413,3.445v85.688C409.392,491.411,422.35,504.5,438.334,504.5z"/>
<path style="fill:#7DB764;" d="M329.509,385.888L329.509,385.888c0,5.767-4.628,10.441-10.336,10.441h-6.891
	c-5.709,0-10.336-4.675-10.336-10.441v-10.441v-20.882v-6.961h37.9c5.709,0,10.336,4.675,10.336,10.441v6.961
	c0,5.766-4.628,10.441-10.336,10.441l0,0C334.137,375.447,329.509,380.122,329.509,385.888z"/>
<path style="fill:#FF6969;" d="M192.328,240.408c0,10.764-8.638,19.49-19.295,19.49c-10.656,0-19.295-8.726-19.295-19.49
	c0-10.764,8.638-19.49,19.295-19.49C183.689,220.918,192.328,229.644,192.328,240.408z"/>
<path style="fill:#FF4B4B;" d="M315.26,244.78l-54.573-55.126c-7.535-7.611-7.535-19.952,0-27.563l3.168-3.2h14.613v-10.574
	c18.262-8.944,40.542-6.696,56.772,6.766v14.389h14.245c13.326,16.394,15.552,38.9,6.698,57.347h-10.468v14.761l-3.168,3.2
	C335.012,252.392,322.795,252.392,315.26,244.78z M361.191,279.4l-20.004,1.655c-10.522,0.871-18.621,9.751-18.621,20.415
	c0,11.313,9.079,20.483,20.277,20.483l0,0c10.557,0,19.348-8.181,20.21-18.81l1.639-20.207
	C364.855,280.919,363.189,279.234,361.191,279.4z"/>
<path style="fill:#7DB764;" d="M186.471,328.81L186.471,328.81c0-5.767,4.628-10.441,10.336-10.441h6.891
	c5.709,0,10.336,4.675,10.336,10.441v10.441v20.882v6.961h-37.9c-5.709,0-10.336-4.675-10.336-10.441v-6.961
	c0-5.766,4.628-10.441,10.336-10.441l0,0C181.843,339.251,186.471,334.576,186.471,328.81z"/>
<path d="M416.892,348.578v-230.28h24.762c5.753,6.002,13.813,9.745,22.728,9.745c17.434,0,31.618-14.293,31.618-31.862
	s-14.184-31.863-31.618-31.863c-8.915,0-16.974,3.743-22.727,9.745h-24.763V36.735C416.892,16.479,400.544,0,380.45,0h-45.021
	c-4.142,0-7.5,3.357-7.5,7.5s3.358,7.5,7.5,7.5h45.021c11.823,0,21.442,9.75,21.442,21.735v308.759l-17.125,17.298
	c-2.893,2.923-2.893,7.63,0,10.553l17.125,17.298v84.622c0,8.126,2.631,15.645,7.08,21.735H139.268
	c-11.823,0-21.442-9.75-21.442-21.735v-42.2h64.855c0.264,0,0.525-0.014,0.782-0.041c0.006,0,0.011-0.002,0.017-0.002
	c0.254-0.027,0.504-0.067,0.75-0.119c0.042-0.009,0.082-0.022,0.123-0.032c0.208-0.047,0.414-0.1,0.616-0.165
	c0.076-0.024,0.15-0.056,0.225-0.083c0.163-0.058,0.325-0.117,0.483-0.186c0.095-0.042,0.187-0.09,0.281-0.135
	c0.133-0.065,0.267-0.13,0.396-0.203c0.101-0.057,0.199-0.119,0.298-0.181c0.118-0.074,0.235-0.149,0.349-0.229
	c0.096-0.067,0.189-0.138,0.282-0.211c0.115-0.09,0.227-0.183,0.337-0.279c0.082-0.072,0.164-0.145,0.243-0.221
	c0.122-0.117,0.238-0.239,0.352-0.364c0.044-0.048,0.093-0.09,0.136-0.14l6.198-7.155h38.064L269,460.076
	c1.467,1.481,3.398,2.224,5.33,2.224c1.907,0,3.814-0.723,5.276-2.17c2.944-2.914,2.968-7.663,0.054-10.606l-25.941-26.204h27.129
	l17.094,17.267c1.409,1.423,3.328,2.224,5.33,2.224h38.589c4.142,0,7.5-3.357,7.5-7.5s-3.358-7.5-7.5-7.5H306.4l-17.093-17.267
	c-1.409-1.423-3.328-2.224-5.33-2.224h-76.436l46.096-53.216h42.135v30.785c0,9.893,8.001,17.94,17.836,17.94h6.891
	c9.835,0,17.836-8.048,17.836-17.94c0-1.622,1.272-2.941,2.836-2.941c9.835,0,17.836-8.049,17.836-17.941v-6.961
	c0-9.893-8.001-17.941-17.836-17.941h-24.745l13.654-13.792c3.825,2.002,8.163,3.142,12.763,3.142
	c14.355,0,26.516-11.291,27.686-25.704l1.639-20.207c0.257-3.168-0.884-6.271-3.13-8.514c-2.235-2.232-5.324-3.36-8.465-3.104
	l-20.003,1.656c-14.301,1.183-25.503,13.433-25.503,27.889c0,5.335,1.491,10.325,4.074,14.572l-23.821,24.062h-37.608v-72.667
	l32.398-37.401l19.821,20.021c5.064,5.115,11.802,7.932,18.974,7.932s13.91-2.816,18.974-7.932l3.168-3.2
	c1.39-1.404,2.17-3.3,2.17-5.276v-7.262h2.967c2.884,0,5.513-1.654,6.761-4.255c10.253-21.36,7.255-47.001-7.639-65.322
	c-1.424-1.752-3.562-2.77-5.82-2.77h-6.745v-6.89c0-2.231-0.994-4.348-2.712-5.772c-18.187-15.085-43.645-18.117-64.859-7.729
	c-2.571,1.259-4.201,3.872-4.201,6.735v3.073h-7.113c-2.002,0-3.922,0.801-5.331,2.224l-3.168,3.201
	c-10.403,10.508-10.403,27.606,0,38.116l24.169,24.414l-34.983,40.385c-1.181,1.363-1.831,3.106-1.831,4.91v80.167l-28.413,32.801
	v-10.515v-9.745V328.81c0-9.893-8.001-17.941-17.836-17.941h-6.891c-9.835,0-17.836,8.049-17.836,17.941
	c0,1.622-1.272,2.941-2.836,2.941c-9.835,0-17.836,8.049-17.836,17.941v6.961c0,9.893,8.001,17.94,17.836,17.94h30.4v20.331
	l-20.044,23.14h-61.429V195.741l17.125-17.298c2.893-2.923,2.893-7.63,0-10.553l-17.125-17.298V36.735
	c0-8.126-2.631-15.645-7.08-21.735h196.385c4.142,0,7.5-3.357,7.5-7.5s-3.358-7.5-7.5-7.5H100.678H81.384
	C61.29,0,44.942,16.479,44.942,36.735V64.44C28.757,65.814,16,79.521,16,96.181c0,17.569,14.184,31.862,31.618,31.862
	c8.915,0,16.974-3.743,22.728-9.745h32.48v35.379c0,1.976,0.78,3.872,2.17,5.276l14.071,14.214l-14.071,14.214
	c-1.39,1.404-2.17,3.301-2.17,5.276v282.607c0,20.256,16.348,36.735,36.442,36.735H419.04h19.294
	c20.094,0,36.442-16.479,36.442-36.735v-44.827c0-9.509-7.692-17.245-17.147-17.245h-40.736v-25.634c0-1.976-0.78-3.872-2.17-5.276
	l-14.071-14.214l14.071-14.214C416.112,352.45,416.892,350.554,416.892,348.578z M344.008,358.045v6.961
	c0,1.622-1.272,2.941-2.836,2.941c-9.835,0-17.836,8.049-17.836,17.941c0,1.621-1.272,2.94-2.836,2.94h-6.891
	c-1.564,0-2.836-1.319-2.836-2.94v-30.785h30.4C342.736,355.104,344.008,356.423,344.008,358.045z M341.807,288.53l15.009-1.243
	l-1.237,15.249c-0.542,6.683-6.136,11.917-12.734,11.917c-7.045,0-12.777-5.824-12.777-12.983
	C330.066,294.758,335.223,289.074,341.807,288.53z M266.017,167.367l0.967-0.978h6.875l7.614,13.225
	c1.388,2.41,3.911,3.759,6.506,3.759c1.27,0,2.556-0.322,3.735-1.001c3.59-2.067,4.824-6.652,2.758-10.242l-8.505-14.772v-4.104
	c13.931-5.146,29.617-3.096,41.772,5.521v7.614l-17.811,17.991c-2.914,2.943-2.89,7.692,0.054,10.606
	c1.462,1.447,3.369,2.17,5.276,2.17c1.932,0,3.863-0.742,5.33-2.224l17.779-17.959h7.378c8.549,12.322,10.578,28.224,5.461,42.347
	h-4.115l-14.352-8.546c-3.558-2.117-8.161-0.951-10.281,2.607c-2.119,3.559-0.952,8.162,2.607,10.281l13.149,7.829v7.005
	l-0.998,1.009c-2.225,2.247-5.177,3.484-8.313,3.484s-6.089-1.237-8.313-3.484l-54.573-55.126
	C261.374,179.688,261.374,172.057,266.017,167.367z M168.898,359.594c-1.564,0-2.836-1.319-2.836-2.94v-6.961
	c0-1.622,1.272-2.941,2.836-2.941c9.835,0,17.836-8.049,17.836-17.941c0-1.622,1.272-2.941,2.836-2.941h6.891
	c1.564,0,2.836,1.319,2.836,2.941v28.539v2.245L168.898,359.594L168.898,359.594z M81.384,15c11.823,0,21.442,9.75,21.442,21.735
	v37.327h-32.48c-2.933-3.06-6.462-5.537-10.403-7.224V36.735C59.942,24.75,69.561,15,81.384,15z M47.618,113.043
	c-9.163,0-16.618-7.564-16.618-16.862c0-9.299,7.455-16.863,16.618-16.863s16.618,7.564,16.618,16.863
	C64.236,105.479,56.781,113.043,47.618,113.043z M78.431,103.298c0.521-2.29,0.805-4.67,0.805-7.117s-0.284-4.828-0.805-7.118
	h24.395v14.235C102.826,103.298,78.431,103.298,78.431,103.298z M457.628,428.192c1.184,0,2.147,1.007,2.147,2.245v44.827
	c0,11.985-9.619,21.735-21.442,21.735s-21.442-9.75-21.442-21.735v-47.072H457.628z M464.382,79.317
	c9.163,0,16.618,7.564,16.618,16.863c0,9.298-7.455,16.862-16.618,16.862s-16.618-7.564-16.618-16.862
	C447.764,86.882,455.219,79.317,464.382,79.317z M433.569,89.063c-0.521,2.291-0.805,4.671-0.805,7.118s0.284,4.827,0.805,7.117
	h-16.677V89.063H433.569z M351.508,136.326c-4.142,0-7.5-3.357-7.5-7.5v-0.975c0-4.143,3.358-7.5,7.5-7.5s7.5,3.357,7.5,7.5v0.975
	C359.008,132.969,355.65,136.326,351.508,136.326z M233.593,446.029c0,4.143-3.358,7.5-7.5,7.5s-7.5-3.357-7.5-7.5v-0.975
	c0-4.143,3.358-7.5,7.5-7.5s7.5,3.357,7.5,7.5V446.029z M233.593,464.545v0.975c0,4.143-3.358,7.5-7.5,7.5s-7.5-3.357-7.5-7.5
	v-0.975c0-4.143,3.358-7.5,7.5-7.5S233.593,460.402,233.593,464.545z M361.156,447.3c4.142,0,7.5,3.357,7.5,7.5v0.975
	c0,4.143-3.358,7.5-7.5,7.5s-7.5-3.357-7.5-7.5V454.8C353.656,450.657,357.014,447.3,361.156,447.3z M155.886,74.741
	c0-4.143,3.358-7.5,7.5-7.5h9.647c4.142,0,7.5,3.357,7.5,7.5s-3.358,7.5-7.5,7.5h-9.647
	C159.244,82.241,155.886,78.884,155.886,74.741z M155.886,45.506c0-4.143,3.358-7.5,7.5-7.5h9.647c4.142,0,7.5,3.357,7.5,7.5
	s-3.358,7.5-7.5,7.5h-9.647C159.244,53.006,155.886,49.648,155.886,45.506z M155.886,103.977c0-4.143,3.358-7.5,7.5-7.5h9.647
	c4.142,0,7.5,3.357,7.5,7.5s-3.358,7.5-7.5,7.5h-9.647C159.244,111.477,155.886,108.119,155.886,103.977z M155.886,191.683
	c0-4.143,3.358-7.5,7.5-7.5h9.647c4.142,0,7.5,3.357,7.5,7.5s-3.358,7.5-7.5,7.5h-9.647
	C159.244,199.183,155.886,195.825,155.886,191.683z M155.886,162.447c0-4.143,3.358-7.5,7.5-7.5h9.647c4.142,0,7.5,3.357,7.5,7.5
	s-3.358,7.5-7.5,7.5h-9.647C159.244,169.947,155.886,166.59,155.886,162.447z M223.946,74.741c0,4.143-3.358,7.5-7.5,7.5h-9.647
	c-4.142,0-7.5-3.357-7.5-7.5s3.358-7.5,7.5-7.5h9.647C220.588,67.241,223.946,70.599,223.946,74.741z M223.946,45.506
	c0,4.143-3.358,7.5-7.5,7.5h-9.647c-4.142,0-7.5-3.357-7.5-7.5s3.358-7.5,7.5-7.5h9.647
	C220.588,38.006,223.946,41.363,223.946,45.506z M199.299,103.977c0-4.143,3.358-7.5,7.5-7.5h9.647c4.142,0,7.5,3.357,7.5,7.5
	s-3.358,7.5-7.5,7.5h-9.647C202.657,111.477,199.299,108.119,199.299,103.977z M146.239,240.408c0,14.883,12.02,26.99,26.794,26.99
	s26.794-12.107,26.794-26.99s-12.02-26.99-26.794-26.99S146.239,225.525,146.239,240.408z M173.033,228.418
	c6.503,0,11.794,5.379,11.794,11.99s-5.291,11.99-11.794,11.99s-11.794-5.379-11.794-11.99S166.53,228.418,173.033,228.418z"/>
<g>
</g>
<g>
</g>
<g>
</g>
<g>
</g>
<g>
</g>
<g>
</g>
<g>
</g>
<g>
</g>
<g>
</g>
<g>
</g>
<g>
</g>
<g>
</g>
<g>
</g>
<g>
</g>
<g>
</g>
</svg>
