<?xml version="1.0" encoding="iso-8859-1"?>
<!-- Generator: Adobe Illustrator 19.0.0, SVG Export Plug-In . SVG Version: 6.00 Build 0)  -->
<svg version="1.1" id="Capa_1" xmlns="http://www.w3.org/2000/svg" xmlns:xlink="http://www.w3.org/1999/xlink" x="0px" y="0px"
	 viewBox="0 0 512 512" style="enable-background:new 0 0 512 512;" xml:space="preserve">
<path style="fill:#B4826E;" d="M95.553,471.358l-27.456,27.456c-7.582,7.582-19.874,7.582-27.456,0l-27.456-27.456
	c-7.582-7.582-7.582-19.874,0-27.456l27.456-27.456c7.582-7.582,19.874-7.582,27.456,0l27.456,27.456
	C103.135,451.484,103.135,463.776,95.553,471.358z"/>
<path style="fill:#8C4032;" d="M358.436,23.15L358.436,23.15c7.178-7.179,18.971-6.643,25.47,1.155l36.024,43.229l-17.11,17.11
	L359.591,48.62C351.793,42.12,351.258,30.328,358.436,23.15z M342.191,66.02c-6.499-7.799-18.292-8.334-25.47-1.155l0,0
	c-7.178,7.178-6.643,18.971,1.155,25.47l43.229,36.024l17.11-17.11L342.191,66.02z M467.104,148.685l-43.229-36.024l-17.11,17.11
	L442.789,173c6.499,7.799,18.292,8.333,25.47,1.155C475.437,166.977,474.902,155.184,467.104,148.685z M425.388,190.401
	l-43.229-36.024l-17.11,17.11l36.024,43.229c6.499,7.799,18.292,8.334,25.47,1.155l0,0
	C433.722,208.693,433.186,196.9,425.388,190.401z"/>
<path style="fill:#B4826E;" d="M184.226,293.455L455.518,22.162c7.582-7.582,19.874-7.582,27.456,0l6.864,6.864
	c7.582,7.582,7.582,19.874,0,27.456L218.545,327.774c-7.582,7.582-19.874,7.582-27.456,0l-6.864-6.864
	C176.644,313.329,176.644,301.036,184.226,293.455z"/>
<path style="fill:#E6C8A0;" d="M272.635,459.01c-60.653,60.653-158.992,60.653-219.645,0s-60.653-158.992,0-219.645
	s158.992-60.653,219.645,0S333.288,398.357,272.635,459.01z"/>
<path style="fill:#D2B48C;" d="M272.635,459.01c-60.653,60.653-158.992,60.653-219.645,0c-3.051-3.051-5.941-6.202-8.685-9.435
	c61.022,51.807,152.609,48.917,210.211-8.685s60.492-149.189,8.685-210.211c3.232,2.744,6.383,5.634,9.434,8.685
	C333.288,300.018,333.288,398.357,272.635,459.01z"/>
<path style="fill:#963737;" d="M162.813,250.347c6.823,6.824,6.823,17.887,0,24.71c-6.823,6.824-17.887,6.824-24.71,0
	c-6.824-6.823-6.824-17.886,0-24.71C144.926,243.524,155.989,243.524,162.813,250.347z M236.943,349.187
	c-6.823,6.823-6.823,17.886,0,24.71s17.887,6.824,24.71,0s6.823-17.887,0-24.71C254.829,342.364,243.766,342.364,236.943,349.187z
	 M493.27,18.73c-14.974-14.974-39.251-14.974-54.225,0s-14.974,39.251,0,54.225s39.251,14.974,54.225,0
	C508.243,57.981,508.243,33.704,493.27,18.73z"/>
<path style="fill:#D2B48C;" d="M478.709,58.395c-6.932,6.932-18.172,6.932-25.104,0s-6.932-18.172,0-25.104s18.172-6.932,25.104,0
	S485.641,51.462,478.709,58.395z"/>
<path d="M150.464,287.682c6.67,0,12.942-2.598,17.659-7.315c9.737-9.737,9.737-25.58,0-35.317c-9.739-9.738-25.58-9.735-35.319,0
	c-9.737,9.738-9.737,25.581,0,35.317C137.521,285.084,143.793,287.682,150.464,287.682z M143.412,255.657
	c1.943-1.944,4.497-2.916,7.051-2.916c2.555,0,5.109,0.972,7.052,2.916c3.889,3.889,3.889,10.216,0,14.104
	c-1.883,1.884-4.388,2.921-7.051,2.921c-2.664,0-5.169-1.037-7.052-2.921C139.523,265.872,139.523,259.546,143.412,255.657z
	 M249.308,386.525c6.67,0,12.942-2.598,17.658-7.314c4.718-4.717,7.316-10.988,7.316-17.659s-2.598-12.942-7.315-17.659
	c0,0,0,0-0.001,0c-4.717-4.716-10.988-7.314-17.658-7.314s-12.942,2.598-17.66,7.315c-9.737,9.737-9.737,25.58,0.001,35.318
	C236.366,383.927,242.638,386.525,249.308,386.525z M242.255,354.5c1.885-1.884,4.389-2.921,7.053-2.921
	c2.663,0,5.168,1.037,7.051,2.921h0.001c1.884,1.883,2.921,4.388,2.921,7.051s-1.037,5.168-2.922,7.052
	c-1.883,1.884-4.388,2.921-7.051,2.921c-2.664,0-5.168-1.037-7.052-2.921C238.367,364.715,238.367,358.388,242.255,354.5z
	 M466.177,91.688c12.246,0,23.758-4.769,32.417-13.428c17.875-17.874,17.875-46.958,0-64.833C489.934,4.769,478.422,0,466.177,0
	c-12.246,0-23.758,4.769-32.417,13.428c-9.19,9.19-13.642,21.342-13.382,33.411l-4.317,4.317l-26.376-31.651
	c-4.444-5.332-10.969-8.571-17.903-8.885c-6.928-0.315-13.726,2.32-18.633,7.228c-4.908,4.908-7.543,11.7-7.229,18.634
	s3.553,13.459,8.885,17.902l31.652,26.376l-12.114,12.114l-26.376-31.651c-4.444-5.332-10.969-8.571-17.903-8.885
	c-6.94-0.32-13.725,2.32-18.633,7.228s-7.543,11.7-7.229,18.633c0.314,6.934,3.553,13.459,8.885,17.903l31.652,26.376
	l-91.374,91.373c-64.352-43.146-150.777-34.677-205.676,20.219C16.936,264.819,0,305.706,0,349.196
	c0,27.574,6.817,54.097,19.639,77.658L7.883,438.61C2.8,443.694,0,450.453,0,457.642s2.8,13.948,7.883,19.031L35.34,504.13
	c5.246,5.247,12.139,7.87,19.031,7.87c6.893,0,13.786-2.624,19.033-7.87l11.801-11.801c24.121,13.064,50.865,19.607,77.614,19.607
	c41.694,0,83.389-15.871,115.131-47.612c55.107-55.106,63.441-141.198,20.24-205.636l70.8-70.771l26.338,31.605
	c4.444,5.332,10.969,8.571,17.903,8.885c0.372,0.017,0.743,0.025,1.114,0.025c6.543,0,12.875-2.608,17.518-7.253
	c4.908-4.908,7.543-11.7,7.229-18.634s-3.553-13.459-8.885-17.902l-31.599-26.332l12.107-12.102l26.33,31.596
	c4.444,5.332,10.968,8.571,17.902,8.885c0.372,0.017,0.743,0.025,1.115,0.025c6.542,0,12.874-2.608,17.518-7.253
	c4.908-4.908,7.543-11.7,7.229-18.633c-0.314-6.934-3.553-13.459-8.885-17.903l-31.59-26.325l24.947-24.936
	C465.58,91.672,465.877,91.688,466.177,91.688z M444.367,24.034c5.825-5.826,13.571-9.034,21.81-9.034s15.984,3.208,21.809,9.034
	c5.826,5.825,9.035,13.571,9.035,21.81s-3.208,15.984-9.035,21.81c-5.825,5.826-13.571,9.034-21.809,9.034
	s-15.984-3.208-21.81-9.034c-5.826-5.825-9.035-13.571-9.035-21.81S438.541,29.86,444.367,24.034z M364.408,42.858
	c-2.133-1.778-3.377-4.284-3.503-7.058c-0.126-2.774,0.887-5.383,2.851-7.347c1.963-1.963,4.549-2.977,7.346-2.85
	c2.775,0.125,5.281,1.37,7.059,3.503l27.249,32.699l-8.302,8.302L364.408,42.858z M322.691,84.575
	c-2.134-1.778-3.378-4.285-3.504-7.059s0.887-5.383,2.851-7.346c1.963-1.963,4.569-2.978,7.346-2.85
	c2.775,0.126,5.281,1.37,7.059,3.504l27.249,32.699l-8.302,8.302L322.691,84.575z M62.798,493.522
	c-4.646,4.645-12.205,4.647-16.85,0L18.49,466.066c-2.25-2.251-3.489-5.242-3.489-8.425c0-3.182,1.239-6.174,3.49-8.425l9.166-9.166
	c5.822,8.623,12.511,16.753,20.031,24.274c7.577,7.576,15.726,14.238,24.301,20.006L62.798,493.522z M267.342,453.718
	c-57.633,57.633-151.413,57.633-209.046,0C30.376,425.799,15,388.679,15,349.196s15.376-76.603,43.296-104.522
	c49.139-49.139,126.097-57.311,184.238-19.996L129.381,337.829l-1.622-1.622c-2.93-2.929-7.678-2.929-10.608,0
	c-2.929,2.929-2.929,7.678,0,10.607l1.623,1.623l-8.486,8.486c-2.929,2.929-2.929,7.678,0,10.607
	c1.465,1.464,3.385,2.197,5.304,2.197s3.839-0.732,5.304-2.197l8.486-8.486l6.492,6.491l-35.881,35.881
	c-2.929,2.929-2.929,7.678,0,10.607c1.465,1.464,3.385,2.197,5.304,2.197s3.839-0.732,5.304-2.197l35.881-35.88l6.494,6.494
	l-8.487,8.483c-2.93,2.928-2.931,7.677-0.003,10.607c1.465,1.465,3.385,2.198,5.305,2.198c1.919,0,3.838-0.732,5.303-2.196
	l8.489-8.485l1.62,1.62c1.465,1.464,3.385,2.197,5.304,2.197s3.839-0.732,5.304-2.197c2.929-2.929,2.929-7.678,0-10.607
	l-1.618-1.618l113.164-113.118C324.722,327.725,316.67,404.391,267.342,453.718z M420.604,196.168
	c2.133,1.778,3.377,4.284,3.503,7.058c0.126,2.774-0.887,5.383-2.851,7.347c-1.963,1.963-4.563,2.968-7.346,2.85
	c-2.775-0.125-5.281-1.37-7.059-3.503l-27.209-32.65l8.312-8.309L420.604,196.168z M462.321,154.451
	c2.134,1.778,3.378,4.285,3.504,7.059s-0.887,5.383-2.85,7.346c-1.965,1.965-4.566,2.98-7.348,2.85
	c-2.774-0.126-5.28-1.37-7.058-3.503l-27.201-32.642l8.313-8.31L462.321,154.451z M163.584,372.031l-6.496-6.496l209.877-209.873
	c2.929-2.929,2.929-7.678,0-10.607c-2.93-2.929-7.678-2.929-10.608,0L146.48,354.928l-6.492-6.491L424.195,64.235
	c1.258,2.881,2.823,5.659,4.701,8.281l-52.964,52.963c-2.929,2.929-2.929,7.678,0,10.607c1.465,1.464,3.385,2.197,5.304,2.197
	c1.919,0,3.839-0.732,5.304-2.197l52.96-52.96c2.623,1.885,5.42,3.474,8.351,4.753L163.584,372.031z"/>
<g>
</g>
<g>
</g>
<g>
</g>
<g>
</g>
<g>
</g>
<g>
</g>
<g>
</g>
<g>
</g>
<g>
</g>
<g>
</g>
<g>
</g>
<g>
</g>
<g>
</g>
<g>
</g>
<g>
</g>
</svg>
