<?xml version="1.0" encoding="iso-8859-1"?>
<!-- Generator: Adobe Illustrator 19.0.0, SVG Export Plug-In . SVG Version: 6.00 Build 0)  -->
<svg version="1.1" id="Capa_1" xmlns="http://www.w3.org/2000/svg" xmlns:xlink="http://www.w3.org/1999/xlink" x="0px" y="0px"
	 viewBox="0 0 512 512" style="enable-background:new 0 0 512 512;" xml:space="preserve">
<path style="fill:#8CE16E;" d="M504.5,245.818v9.343c0,48.956-29.509,92.434-73.741,111.788
	c-26.948,11.791-53.156,25.178-78.83,39.49l-91.167,50.824c-2.956,1.648-6.567,1.648-9.524,0l-91.167-50.824
	c-25.673-14.312-51.881-27.699-78.83-39.49C37.009,347.595,7.5,304.117,7.5,255.161v-9.343c0-67.568,55.629-122.342,124.25-122.342
	l0,0c68.621,0,124.25,54.775,124.25,122.342c0-67.568,55.629-122.342,124.25-122.342l0,0
	C448.871,123.476,504.5,178.25,504.5,245.818z"/>
<path style="fill:#7DC86E;" d="M504.5,245.818v9.343c0,48.956-29.509,92.434-73.741,111.788
	c-26.948,11.791-53.156,25.178-78.83,39.49l-91.167,50.824c-2.957,1.648-6.567,1.648-9.524,0l-19.805-11.041l91.733-51.139
	c26.375-14.704,53.3-28.456,80.985-40.57c45.442-19.883,75.758-64.549,75.758-114.844v-9.599c0-36.282-15.619-68.967-40.591-91.909
	C478.135,158.852,504.5,199.303,504.5,245.818z"/>
<path style="fill:#7DB764;" d="M76.076,421.098l1.686-9.471c14.896-83.656,95.391-139.513,179.809-124.773l0.116,0.02
	c5.278,0.922,8.802,5.91,7.871,11.14l0,0c-14.896,83.656-95.391,139.513-179.809,124.773L76.076,421.098z"/>
<path style="fill:#74A45F;" d="M246.443,298.013L246.443,298.013c-0.931-5.231,2.593-10.219,7.871-11.14l0.116-0.02
	c84.417-14.74,164.913,41.117,179.809,124.773l1.686,9.471l-9.673,1.689C341.834,437.527,261.339,381.669,246.443,298.013z"/>
<path style="fill:#FFA5A5;" d="M256,313.04l-23.107-22.882c-60.709-60.118-60.709-157.638,0-217.756l16.246-16.088
	c3.79-3.753,9.932-3.753,13.723,0l16.246,16.088c60.709,60.118,60.709,157.638,0,217.756L256,313.04z"/>
<path style="fill:#FF8787;" d="M391.636,90.926l22.755-3.973c5.279-0.922,10.312,2.571,11.244,7.802l3.992,22.419
	c14.909,83.729-41.509,163.578-126,178.331l-32.312,5.642l-5.678-31.89C250.728,185.528,307.145,105.679,391.636,90.926z"/>
<path style="fill:#FF6969;" d="M303.671,295.498l-32.355,5.65l-5.705-32.041c-2.14-12.016-2.801-23.95-2.126-35.624l2.007,11.271
	l32.355-5.649c72.34-12.632,124.088-72.948,128.109-142.548l3.698,20.769C444.549,200.977,388.144,280.747,303.671,295.498z"/>
<path style="fill:#FF8787;" d="M240.685,301.147l-32.312-5.642c-84.491-14.753-140.908-94.602-126-178.331l3.992-22.419
	c0.931-5.231,5.965-8.724,11.244-7.802l22.755,3.973c84.491,14.753,140.908,94.602,126,178.331L240.685,301.147z"/>
<path style="fill:#FFCF65;" d="M297.815,218.032v94.577h-83.63v-94.577c0-22.091,17.909-40,40-40h3.63
	C279.906,178.032,297.815,195.941,297.815,218.032z"/>
<path style="fill:#FF6969;" d="M51.176,209.088H161.75c55.228,0,100,44.771,100,100v13.873H141.176c-55.228,0-100-44.771-100-100
	v-3.873C41.176,213.565,45.653,209.088,51.176,209.088z"/>
<path style="fill:#D24A4A;" d="M470.824,219.088v3.873c0,55.228-44.771,100-100,100H250.25v-13.873c0-55.228,44.771-100,100-100
	h110.574C466.347,209.088,470.824,213.565,470.824,219.088z"/>
<path style="fill:#FF4B4B;" d="M335.573,322.961H250.25v-17.746c0-53.089,43.46-96.126,97.07-96.126h75.615
	c5.361,0,9.707,4.304,9.707,9.613v8.134C432.643,279.924,389.183,322.961,335.573,322.961z"/>
<path d="M491.086,175.594c-12.914-19.759-30.948-35.642-52.231-46.075c-0.416-4.506-1.017-9.013-1.818-13.509l-4.02-22.574
	c-1.651-9.278-10.59-15.495-19.919-13.872l-22.796,3.98c-26.835,4.687-51.505,15.788-72.224,31.884
	c-8.086-17.954-19.351-34.152-33.57-48.232l-16.367-16.209c-6.694-6.63-17.588-6.63-24.283,0L227.49,67.196
	c-14.226,14.087-25.49,30.282-33.573,48.233c-20.721-16.097-45.392-27.199-72.222-31.885l-22.796-3.98
	c-9.332-1.626-18.267,4.593-19.919,13.872l-4.02,22.574c-0.801,4.498-1.402,9.004-1.818,13.51
	c-21.33,10.456-39.397,26.389-52.313,46.201C7.203,196.623,0,220.862,0,245.817v9.344c0,51.288,30.709,97.864,78.234,118.659
	c0.891,0.39,1.775,0.792,2.664,1.186c-4.798,11.203-8.333,23.02-10.521,35.312l-1.686,9.467c-0.35,1.962,0.097,3.983,1.24,5.616
	s2.89,2.743,4.854,3.087l9.56,1.669c9.601,1.676,19.196,2.509,28.721,2.508c20.148,0,39.969-3.726,58.789-11.069l75.731,42.219
	c2.596,1.447,5.505,2.17,8.415,2.17c2.909,0,5.819-0.723,8.414-2.17l75.717-42.211c18.554,7.173,38.545,11.025,59.066,11.025
	c9.404,0,18.92-0.808,28.458-2.473l9.56-1.669c1.964-0.344,3.71-1.454,4.854-3.087s1.59-3.654,1.24-5.616l-1.686-9.467
	c-2.191-12.304-5.725-24.119-10.517-35.315c0.887-0.393,1.77-0.793,2.659-1.182C481.291,353.025,512,306.449,512,255.161v-9.344
	C512,220.809,504.769,196.526,491.086,175.594z M392.883,98.321l22.796-3.98c1.212-0.214,2.365,0.561,2.571,1.724l4.02,22.574
	c5.021,28.196,1.654,56.805-9.685,82.949H347.32c-15.065,0-29.423,3.181-42.412,8.905c-1.727-13.092-9.025-24.464-19.456-31.694
	C306.133,136.429,345.842,106.535,392.883,98.321z M255.997,254.702c-7.751-13.765-18.569-25.618-31.828-34.722
	c-0.819-0.563-1.652-1.1-2.484-1.638v-1.86c0-17.066,14.054-30.951,31.328-30.951h5.974c17.273,0,31.327,13.885,31.327,30.951v1.873
	C276.134,227.51,264.31,239.985,255.997,254.702z M238.046,77.853l16.368-16.209c0.876-0.867,2.298-0.867,3.173,0l16.367,16.209
	c13.964,13.828,24.781,29.9,32.198,47.796c-13.973,13.218-25.616,28.979-34.25,46.712c-4.103-1.184-8.433-1.831-12.916-1.831h-5.974
	c-4.482,0-8.813,0.647-12.916,1.831c-8.635-17.734-20.282-33.495-34.258-46.713C213.253,107.755,224.074,91.689,238.046,77.853z
	 M84.248,360.078C42.181,341.673,15,300.49,15,255.161v-9.344c0-40.612,22.274-78.441,57.479-98.94
	c0.307,18.683,3.907,37.146,10.705,54.71H50.883c-9.488,0-17.207,7.677-17.207,17.112v8.135c0,48.371,33.619,89.104,78.917,100.467
	c-9.955,10.35-18.373,21.824-25.132,34.206C86.389,361.033,85.322,360.548,84.248,360.078z M86.925,415.379l-2.146-0.374
	l0.366-2.059c5.731-32.187,21.632-60.791,45.984-82.73c2.353,0.158,4.724,0.245,7.117,0.245h109.582
	C220.313,392.229,154.247,427.134,86.925,415.379z M257.109,450.713c-0.685,0.382-1.534,0.382-2.219,0l-66.118-36.86
	c0.533-0.28,1.07-0.546,1.601-0.833c27.786-14.989,50.704-37.863,65.611-65.229c15.526,28.686,39.148,51.421,67.161,66.107
	L257.109,450.713z M425.075,415.379c-67.479,11.79-133.68-23.66-160.907-84.918h34.785c4.143,0,7.5-3.357,7.5-7.5
	s-3.357-7.5-7.5-7.5H261.75h-11.5H138.246c-49.389,0-89.57-39.758-89.57-88.626V218.7c0-1.165,0.99-2.112,2.207-2.112h84.022
	c4.142,0,7.5-3.357,7.5-7.5s-3.358-7.5-7.5-7.5H99.411c-11.34-26.146-14.704-54.735-9.681-82.949l4.02-22.573
	c0.207-1.163,1.363-1.938,2.571-1.725l22.796,3.98c47.03,8.212,86.75,38.109,107.432,80.478
	c-10.425,7.225-17.72,18.585-19.453,31.667c-13.258-5.841-27.64-8.878-42.416-8.878c-4.142,0-7.5,3.357-7.5,7.5s3.358,7.5,7.5,7.5
	c37.035,0,69.734,22.008,83.337,56.077c-2.799,8.393-4.552,17.268-5.089,26.482c-0.241,4.135,2.916,7.683,7.05,7.924
	c4.123,0.231,7.683-2.915,7.924-7.051c2.729-46.784,42.007-83.432,89.419-83.432h113.797c1.217,0,2.207,0.947,2.207,2.112v8.135
	c0,48.868-40.181,88.626-89.57,88.626H327.59c-4.143,0-7.5,3.357-7.5,7.5s3.357,7.5,7.5,7.5h46.165c2.39,0,4.759-0.087,7.11-0.245
	c24.36,21.929,40.25,50.488,45.992,82.73l0.366,2.059L425.075,415.379z M497,255.161c0,45.329-27.182,86.512-69.248,104.917
	c-1.07,0.469-2.135,0.95-3.203,1.423c-6.758-12.383-15.171-23.855-25.13-34.202c45.292-11.368,78.905-52.097,78.905-100.464V218.7
	c0-9.436-7.719-17.112-17.207-17.112h-32.298c6.795-17.563,10.389-36.032,10.697-54.712C474.731,167.374,497,205.181,497,245.817
	V255.161z"/>
<g>
</g>
<g>
</g>
<g>
</g>
<g>
</g>
<g>
</g>
<g>
</g>
<g>
</g>
<g>
</g>
<g>
</g>
<g>
</g>
<g>
</g>
<g>
</g>
<g>
</g>
<g>
</g>
<g>
</g>
</svg>
