<?xml version="1.0" encoding="iso-8859-1"?>
<!-- Generator: Adobe Illustrator 19.0.0, SVG Export Plug-In . SVG Version: 6.00 Build 0)  -->
<svg version="1.1" id="Capa_1" xmlns="http://www.w3.org/2000/svg" xmlns:xlink="http://www.w3.org/1999/xlink" x="0px" y="0px"
	 viewBox="0 0 512.001 512.001" style="enable-background:new 0 0 512.001 512.001;" xml:space="preserve">
<path style="fill:#FFB450;" d="M366.013,147.559v224.649l-64.714,33.281h-90.599l-64.713-33.281V147.559l64.713-33.281h90.599
	L366.013,147.559z"/>
<path style="fill:#FF9744;" d="M366.013,147.559v224.649l-23.62,12.148V135.411L366.013,147.559z"/>
<path style="fill:#FFCF65;" d="M301.299,405.488h-90.599V114.277h90.599V405.488z"/>
<path style="fill:#FF4B4B;" d="M56.42,318.348c0.169,1.736-0.733,3.423-2.312,4.222c-6.634,3.36-14.158,5.261-22.138,5.261
	s-15.504-1.902-22.138-5.261c-1.579-0.8-2.481-2.486-2.312-4.222l12.472-128.26c0.589-6.059,5.775-10.686,11.978-10.686
	s11.389,4.627,11.978,10.686L56.42,318.348z M504.48,318.348l-12.472-128.26c-0.589-6.059-5.775-10.686-11.978-10.686
	s-11.389,4.627-11.978,10.686l-12.472,128.26c-0.169,1.736,0.733,3.423,2.312,4.222c6.634,3.36,14.158,5.261,22.138,5.261
	s15.504-1.902,22.138-5.261C503.747,321.771,504.649,320.084,504.48,318.348z"/>
<g>
	<path style="fill:#C83741;" d="M52.123,163.175c0,10.922-9.023,19.776-20.153,19.776s-20.153-8.854-20.153-19.776
		s9.023-19.776,20.153-19.776C43.1,143.398,52.123,152.253,52.123,163.175z M480.03,143.398c-11.13,0-20.153,8.854-20.153,19.776
		s9.023,19.776,20.153,19.776s20.153-8.854,20.153-19.776C500.184,152.253,491.16,143.398,480.03,143.398z"/>
	<path style="fill:#C83741;" d="M310.359,366.66v87.363c0,5.361-4.346,9.707-9.707,9.707h-89.305c-5.361,0-9.707-4.346-9.707-9.707
		V366.66c0-5.361,4.346-9.707,9.707-9.707h89.305C306.013,356.953,310.359,361.299,310.359,366.66z M300.652,56.035h-89.305
		c-5.361,0-9.707,4.346-9.707,9.707v87.363c0,5.361,4.346,9.707,9.707,9.707h89.305c5.361,0,9.707-4.346,9.707-9.707V65.742
		C310.359,60.381,306.013,56.035,300.652,56.035z"/>
</g>
<path style="fill:#FF4B4B;" d="M385.427,366.66c0,11.914-6.681,22.821-17.295,28.234l-56.761,28.948
	c-1.366,0.697-2.877,1.06-4.41,1.06H205.039c-1.533,0-3.044-0.363-4.41-1.06l-56.761-28.948
	c-10.613-5.413-17.295-16.32-17.295-28.234c0-5.361,4.346-9.707,9.707-9.707h239.44C381.081,356.953,385.427,361.299,385.427,366.66
	z M136.28,162.813h239.44c5.361,0,9.707-4.346,9.707-9.707c0-11.914-6.681-22.821-17.295-28.234l-56.761-28.948
	c-1.366-0.697-2.877-1.06-4.41-1.06H205.039c-1.533,0-3.044,0.363-4.41,1.06l-56.761,28.948
	c-10.613,5.413-17.295,16.32-17.295,28.234C126.573,158.467,130.919,162.813,136.28,162.813z"/>
<path style="fill:#FF6969;" d="M323.797,356.953c-11.09,27.743-26.789,51.123-45.577,67.949h-73.182c-1.533,0-3.044-0.363-4.41-1.06
	l-56.761-28.948c-10.613-5.413-17.295-16.32-17.295-28.234c0-5.361,4.346-9.707,9.707-9.707H323.797z M136.28,162.813h187.517
	c-11.09-27.743-26.789-51.123-45.576-67.949h-73.182c-1.533,0-3.044,0.363-4.41,1.06l-56.761,28.948
	c-10.613,5.413-17.295,16.32-17.295,28.234C126.573,158.467,130.919,162.813,136.28,162.813z"/>
<path d="M511.943,317.623l-12.472-128.26c-0.187-1.921-0.676-3.781-1.411-5.535c5.885-5.006,9.621-12.405,9.621-20.654
	c0-12.476-8.539-23.015-20.152-26.249V78.742c8.989-4.344,14.763-13.471,14.763-23.502c0-14.402-11.717-26.119-26.119-26.119h-0.794
	c-4.142,0-7.5,3.357-7.5,7.5s3.358,7.5,7.5,7.5h0.794c6.131,0,11.12,4.988,11.12,11.119c0,4.388-2.59,8.375-6.598,10.159
	l-113.553,50.547L317.86,90.812v-25.07c0-9.488-7.719-17.207-17.207-17.207h-8.282L262.24,3.34C260.849,1.253,258.508,0,256,0
	s-4.85,1.253-6.24,3.34l-30.13,45.195h-8.282c-9.488,0-17.207,7.719-17.207,17.207v25.07l-49.286,25.136
	c-0.022-0.01-0.041-0.022-0.063-0.032L31.306,65.399c-4.007-1.784-6.597-5.771-6.597-10.159c0-6.131,4.988-11.119,11.12-11.119
	h0.794c4.142,0,7.5-3.357,7.5-7.5s-3.358-7.5-7.5-7.5h-0.794C21.427,29.121,9.71,40.838,9.71,55.24
	c0,10.031,5.773,19.159,14.763,23.502v58.184C12.86,140.16,4.321,150.699,4.321,163.175c0,8.25,3.738,15.651,9.625,20.657
	c-0.738,1.76-1.229,3.623-1.415,5.531L0.057,317.624c-0.472,4.865,2.036,9.433,6.388,11.637c7.841,3.972,16.668,6.071,25.527,6.071
	s17.686-2.1,25.527-6.071c4.353-2.204,6.86-6.771,6.388-11.638L51.414,189.362c-0.187-1.921-0.677-3.78-1.411-5.534
	c5.885-5.006,9.621-12.405,9.621-20.654c0-12.476-8.539-23.015-20.153-26.249V85.452l90.664,40.358
	c-6.995,7.184-11.061,16.881-11.061,27.296c0,9.488,7.719,17.207,17.207,17.207h2.207v179.141h-2.207
	c-9.488,0-17.207,7.719-17.207,17.207c0,14.809,8.195,28.188,21.388,34.916l53.68,27.377v22.158v2.912V504.5
	c0,4.143,3.358,7.5,7.5,7.5s7.5-3.357,7.5-7.5v-33.427c0.724,0.094,1.458,0.158,2.207,0.158h9.973v33.27c0,4.143,3.358,7.5,7.5,7.5
	s7.5-3.357,7.5-7.5v-33.27h12.18v33.27c0,4.143,3.358,7.5,7.5,7.5s7.5-3.357,7.5-7.5v-33.27h12.18v33.27c0,4.143,3.358,7.5,7.5,7.5
	s7.5-3.357,7.5-7.5v-33.27h9.973c0.749,0,1.483-0.064,2.207-0.158V504.5c0,4.143,3.358,7.5,7.5,7.5s7.5-3.357,7.5-7.5v-50.477
	v-2.912v-22.158l53.68-27.377c13.192-6.729,21.387-20.107,21.387-34.916c0-9.488-7.719-17.207-17.207-17.207h-2.207v-179.14h2.207
	c9.488,0,17.207-7.719,17.207-17.207c0-10.415-4.067-20.111-11.061-27.295l90.664-40.358v51.474
	c-11.614,3.233-20.153,13.772-20.153,26.249c0,8.25,3.738,15.651,9.625,20.657c-0.738,1.76-1.229,3.623-1.415,5.531l-12.472,128.261
	c-0.472,4.865,2.036,9.433,6.388,11.637c7.84,3.971,16.667,6.071,25.526,6.071h0.001l0,0l0,0c8.859,0,17.686-2.1,25.526-6.071
	C509.908,327.057,512.415,322.489,511.943,317.623z M256,21.021l18.343,27.515h-36.686L256,21.021z M211.348,63.535h89.304
	c1.217,0,2.207,0.99,2.207,2.207v21.621h-93.718V65.742C209.141,64.525,210.131,63.535,211.348,63.535z M36.484,190.814
	L48.737,316.82c-2.98,1.318-6.078,2.255-9.266,2.832v-30.648c0-4.143-3.358-7.5-7.5-7.5s-7.5,3.357-7.5,7.5v30.648
	c-3.187-0.577-6.285-1.513-9.266-2.832l12.253-126.005c0.025-0.255,0.079-0.486,0.141-0.708c1.425,0.224,2.884,0.344,4.372,0.344
	c1.486,0,2.943-0.12,4.366-0.343C36.399,190.332,36.459,190.558,36.484,190.814z M44.624,163.175c0,6.77-5.676,12.276-12.653,12.276
	s-12.652-5.507-12.652-12.276s5.676-12.276,12.652-12.276S44.624,156.405,44.624,163.175z M153.487,170.313h49.714v179.141h-49.714
	V170.313z M300.652,456.23h-89.304c-1.217,0-2.207-0.99-2.207-2.207v-2.912v-18.709h93.718v18.709v2.912
	C302.859,455.24,301.869,456.23,300.652,456.23z M377.927,366.66c0,9.141-5.059,17.399-13.202,21.553l-56.76,28.948
	c-0.31,0.158-0.656,0.241-1.003,0.241H205.039c-0.347,0-0.694-0.083-1.003-0.241l-56.76-28.948
	c-8.144-4.153-13.203-12.412-13.203-21.553c0-1.217,0.99-2.207,2.207-2.207h239.44C376.936,364.453,377.927,365.443,377.927,366.66z
	 M358.513,349.453h-49.714V231.732c0-4.143-3.358-7.5-7.5-7.5s-7.5,3.357-7.5,7.5v117.721h-75.598v-179.14h75.598v31.813
	c0,4.143,3.358,7.5,7.5,7.5s7.5-3.357,7.5-7.5v-31.813h49.714V349.453z M375.72,155.313H136.28c-1.217,0-2.207-0.99-2.207-2.207
	c0-9.141,5.059-17.399,13.202-21.553l56.76-28.948c0.31-0.158,0.656-0.241,1.003-0.241h101.921c0.16,0,0.32,0.022,0.476,0.057
	c0.191,0.081,0.388,0.15,0.587,0.215l56.701,28.918c8.143,4.153,13.203,12.412,13.203,21.553
	C377.927,154.322,376.936,155.313,375.72,155.313z M480.029,150.898c6.977,0,12.652,5.507,12.652,12.276
	s-5.676,12.276-12.652,12.276c-6.977,0-12.653-5.507-12.653-12.276S473.052,150.898,480.029,150.898z M487.529,319.652v-30.648
	c0-4.143-3.358-7.5-7.5-7.5s-7.5,3.357-7.5,7.5v30.648c-3.187-0.577-6.285-1.513-9.266-2.832l12.253-126.005
	c0.025-0.255,0.079-0.486,0.141-0.708c1.425,0.224,2.884,0.344,4.372,0.344c1.486,0,2.943-0.12,4.366-0.343
	c0.062,0.224,0.122,0.45,0.147,0.707l12.253,126.006C493.814,318.138,490.716,319.075,487.529,319.652z"/>
<g>
</g>
<g>
</g>
<g>
</g>
<g>
</g>
<g>
</g>
<g>
</g>
<g>
</g>
<g>
</g>
<g>
</g>
<g>
</g>
<g>
</g>
<g>
</g>
<g>
</g>
<g>
</g>
<g>
</g>
</svg>
