<?xml version="1.0"?>
<svg xmlns="http://www.w3.org/2000/svg" viewBox="0 0 512 512" width="512" height="512"><g id="Fill_out_line" data-name="Fill out line"><path d="M208,104v64l-36.27-29.02A154.50537,154.50537,0,0,0,156.15991,128,159.5568,159.5568,0,0,0,72,104V88l4.07007-.45A285.78333,285.78333,0,0,1,208,104Z" style="fill:#e04446"/><rect x="48" y="88" width="24" height="24" style="fill:#d6323f"/><path d="M432,64V80a159.84667,159.84667,0,0,0-99.73,34.98L296,144V80A285.73647,285.73647,0,0,1,427.93018,63.55005Z" style="fill:#e04446"/><rect x="432" y="64" width="24" height="24" transform="translate(888 152) rotate(-180)" style="fill:#d6323f"/><path d="M424,448v24a222.85705,222.85705,0,0,0-94.9502,4.8L288,488V448a193.32229,193.32229,0,0,1,128.83984-2.39014Z" style="fill:#d6323f"/><rect x="424" y="448" width="24" height="24" transform="translate(872 920) rotate(-180)" style="fill:#ce2337"/><path d="M256,440v40l-41.05-11.2A222.39534,222.39534,0,0,0,120,464V440l7.15991-2.39014A193.203,193.203,0,0,1,256,440Z" style="fill:#d6323f"/><rect x="96" y="440" width="24" height="24" transform="translate(560 344) rotate(90)" style="fill:#ce2337"/><path d="M151.53,89.18994A285.082,285.082,0,0,1,208,104v64l-36.27-29.02A154.50537,154.50537,0,0,0,156.15991,128h18.23023a90.19059,90.19059,0,0,1-21.57007-34.93994Z" style="fill:#d6323f"/><path d="M367.8999,66.8999l-8.71972,26.16016c-.64014,1.8999-1.33008,3.77978-2.1001,5.61987A159.07614,159.07614,0,0,0,332.27,114.98L296,144V80a285.58223,285.58223,0,0,1,29.08008-9.16992c-.02,1.56006-.11035,3.12988-.25,4.68994Z" style="fill:#d6323f"/><path d="M288,448v40l41.0498-11.2A221.5573,221.5573,0,0,1,356.52,471.15991,87.574,87.574,0,0,0,373.58008,436.54,192.91338,192.91338,0,0,0,288,448ZM171.92993,428.3999a103.69865,103.69865,0,0,0,17.74,35.07007,222.31005,222.31005,0,0,1,25.28,5.33008L256,480V440A192.92348,192.92348,0,0,0,171.92993,428.3999Z" style="fill:#d6323f"/><path d="M373.58008,436.54A87.574,87.574,0,0,1,356.52,471.15991a221.5573,221.5573,0,0,0-27.47022,5.64014L288,488V448A192.91338,192.91338,0,0,1,373.58008,436.54Z" style="fill:#ce2337"/><path d="M256,440v40l-41.05-11.2a222.31005,222.31005,0,0,0-25.28-5.33008,103.69865,103.69865,0,0,1-17.74-35.07007A192.92348,192.92348,0,0,1,256,440Z" style="fill:#ce2337"/><path d="M376,376l-4.527-22.14861a52.04039,52.04039,0,0,1,4.43015-33.67477l.34624-.6932a52.04033,52.04033,0,0,1,23.4-23.35108h0a94.61161,94.61161,0,0,0,45.73656-49.59557C446.94873,242.62816,448,240,448,240l16.97914,39.618A86.833,86.833,0,0,1,472,313.8231v.51132C472,347.22423,424,392,424,392Z" style="fill:#de5e1d"/><path d="M328,120H288l5.6499-7.53A61.18061,61.18061,0,0,1,342.58984,88Z" style="fill:#e5585a"/><path d="M342.64014,312c3.1997,0,6.36963-.1499,9.48974-.46L352,312a44.22965,44.22965,0,0,1-42.50977,32H304l16-32-.0498-.31006c2.52978.21,5.08984.31006,7.6499.31006Z" style="fill:#fc6f35"/><path d="M393.96973,134.03a95.28032,95.28032,0,0,0-42.35987-13.73l3.77-2.83008A57.88646,57.88646,0,0,1,416,112Z" style="fill:#fc6f35"/><path d="M416.9502,277.83984a61.18293,61.18293,0,0,1,.43994,7.38013A63.49972,63.49972,0,0,1,392,336l-6.75-33.75A97.891,97.891,0,0,0,416.9502,277.83984Z" style="fill:#fc6f35"/><path d="M414.3999,150.75a46.10018,46.10018,0,0,1,7.73-.6499A46.87016,46.87016,0,0,1,464,176l-29.68018,7.41992A95.7172,95.7172,0,0,0,414.3999,150.75Z" style="fill:#fc6f35"/><path d="M465.33008,249.52,464,256l-29.81006-7.45a94.12423,94.12423,0,0,0,5.7002-37.1001c-.08008-1.61987-.18994-3.23-.3501-4.82983L440,208A35.688,35.688,0,0,1,465.33008,249.52Z" style="fill:#fc6f35"/><path d="M64,280H24a59.09891,59.09891,0,0,1,48.24-46.71l3.33008-.55A102.08289,102.08289,0,0,0,64,280Z" style="fill:#fc6f35"/><path d="M67.66992,307.46a103.15431,103.15431,0,0,0,15.78,33.09009L56,368a41.28714,41.28714,0,0,1,7.23-56.99Z" style="fill:#fc6f35"/><path d="M154.95,176.98a105.64162,105.64162,0,0,0-60.21,29.76L72,184a76.33036,76.33036,0,0,1,69.95-11.3501Z" style="fill:#fc6f35"/><path d="M224,312l-13.60986,34.01A63.6897,63.6897,0,0,0,176,336c-1.05,0-2.1001-.04-3.12988-.12012L175.03,332.28A44.518,44.518,0,0,1,224,312Z" style="fill:#fc6f35"/><path d="M272,368l-32,32a63.77847,63.77847,0,0,0-17.44995-43.92993l2.77-1.66016A33.13141,33.13141,0,0,1,272,368Z" style="fill:#fc6f35"/><path d="M440,336v24a47.99972,47.99972,0,0,1-48,48H367.99023A7.98926,7.98926,0,0,0,360,416a71.99934,71.99934,0,0,1-72,72H272a87.99482,87.99482,0,0,1-88-87.97A16.03843,16.03843,0,0,0,167.91992,384,103.989,103.989,0,0,1,64.06006,283.46C62.23,227.3999,105.7,180.81006,160.68994,176.3501c2.8501-.23,5.74-.3501,8.65015-.3501H208.3999A95.58847,95.58847,0,0,1,276,204l40.68994,40.68994A38.63134,38.63134,0,0,0,344,256c.98,0,1.9502-.04,2.91016-.10986a39.99774,39.99774,0,0,0,4.15966-79.26026A39.30881,39.30881,0,0,0,344,176H288V120h56c.21973,0,.43994,0,.66016.01a95.98723,95.98723,0,0,1,95.23,91.43994C442.46,266.3999,397.6499,312,342.64014,312h-15.04A95.62784,95.62784,0,0,1,260,284a95.588,95.588,0,0,0-67.6001-28H176.83008a41.32863,41.32863,0,0,0-8.66016.91992c-18.48,3.96-32.5498,20.32007-32.15991,39.90015A39.99445,39.99445,0,0,0,176,336c40.79,0,72.66992,38.15991,61.87988,80.72C251.39014,433.29,266.48,440,280,440a40.002,40.002,0,0,0,40-40,32.00409,32.00409,0,0,1,32-32h32a24.00619,24.00619,0,0,0,24-24v-8a16,16,0,0,1,32,0Z" style="fill:#d6323f"/><path d="M344,256c.98,0,1.9502-.04,2.91016-.10986L312,267.53V309.8999l-33.79-22.52978-4.12012,8.25A95.11363,95.11363,0,0,1,260,284a95.588,95.588,0,0,0-67.6001-28H176.83008a41.32863,41.32863,0,0,0-8.66016.91992l-12.26-4.08984L186.54,232.40991a60.89828,60.89828,0,0,1-21.16992-19.5L146.1001,184h22.57983a76.05705,76.05705,0,0,1-7.99-7.6499c2.8501-.23,5.74-.3501,8.65015-.3501H208.3999A95.58847,95.58847,0,0,1,276,204l40.68994,40.68994A38.63134,38.63134,0,0,0,344,256Z" style="fill:#ce2337"/><path d="M374.2002,128l-7.02,21.06006a77.09109,77.09109,0,0,1-16.11036,27.56982A39.30881,39.30881,0,0,0,344,176H288V120h56c.21973,0,.43994,0,.66016.01a89.11612,89.11612,0,0,1-7.0503,7.99Z" style="fill:#ce2337"/><path d="M100.2998,348.09985,88,344l3.65918,18.29517A26.99985,26.99985,0,0,0,118.13477,384H128V352h-3.667A75.99751,75.99751,0,0,1,100.2998,348.09985Z" style="fill:#fc6f35"/><path d="M168,344a75.77743,75.77743,0,0,1-33.88867,8H128l10.48,13.97314a26.99953,26.99953,0,0,0,33.67456,7.94947L184,368Z" style="fill:#fc6f35"/><path d="M352,144a61.05446,61.05446,0,0,1-30.62988,35.31006L312,184v16h24l-2.68994,4.03A44.82517,44.82517,0,0,1,296,224v8l24,16-24,8v24l-24-16-16,32-16-32-24,16V256l-24-8,24-16v-8a44.7934,44.7934,0,0,1-37.31006-19.97L176,200h24V184l-9.37012-4.68994A61.03768,61.03768,0,0,1,160,144h33.37012A6.632,6.632,0,0,0,200,137.37012v-5.82007a6.641,6.641,0,0,0-2.95-5.52A73.65463,73.65463,0,0,1,168,88l28.64014,5.73L208,96l-2.76-11.06006-.8999-3.58984A48.35919,48.35919,0,0,1,208,48l26.52,33.1499L240,88h32l5.48-6.8501L304,48a48.4172,48.4172,0,0,1,3.66016,33.3501L306.75977,84.95,304,96l11.35986-2.27L344,88a73.6559,73.6559,0,0,1-29.0498,38.03,6.62715,6.62715,0,0,0-2.16993,2.38989A6.71987,6.71987,0,0,0,312,131.55005v5.82007A6.63187,6.63187,0,0,0,318.62988,144Z" style="fill:#e04446"/><path d="M300.813,64.79028a40.3664,40.3664,0,0,1-.9126,14.62378l-3.66162,14.64551a7.99951,7.99951,0,0,0,9.33008,9.78516l24.57177-4.91455a66.00023,66.00023,0,0,1-19.62792,20.44653A14.597,14.597,0,0,0,304,131.54614v5.82764A14.64256,14.64256,0,0,0,318.626,152h20.96191a52.71923,52.71923,0,0,1-21.793,20.1582l-9.37256,4.68628A8.00016,8.00016,0,0,0,304,184v16a7.99993,7.99993,0,0,0,8,8h6.93652A36.77483,36.77483,0,0,1,296,216a7.99993,7.99993,0,0,0-8,8v8a8.00048,8.00048,0,0,0,3.5625,6.65649l10.39014,6.92652-8.48243,2.82763A8.00011,8.00011,0,0,0,288,256v9.05176l-11.5625-7.70825a8,8,0,0,0-11.59277,3.07885L256,278.11157l-8.84448-17.68921a8.00011,8.00011,0,0,0-11.593-3.07885L224,265.05176V256a7.9998,7.9998,0,0,0-5.47021-7.58936l-8.48218-2.82763,10.38989-6.92652A8.00048,8.00048,0,0,0,224,232v-8a8.00009,8.00009,0,0,0-8-8,36.77315,36.77315,0,0,1-22.93628-8H200a8.00009,8.00009,0,0,0,8-8V184a8.00016,8.00016,0,0,0-4.42236-7.15552l-9.37256-4.68628A52.72214,52.72214,0,0,1,172.41162,152h20.96216A14.64277,14.64277,0,0,0,208,137.37378v-5.82764a14.59659,14.59659,0,0,0-6.51294-12.16943,66.00128,66.00128,0,0,1-19.62768-20.44629l24.57177,4.91431a8.00012,8.00012,0,0,0,9.33008-9.78492l-3.66162-14.64575a40.35509,40.35509,0,0,1-.91235-14.62378l22.56567,28.20728A8.00063,8.00063,0,0,0,240,96h32a8.001,8.001,0,0,0,6.24707-3.00244L300.813,64.79028M304,48,272,88H240L208,48a48.35709,48.35709,0,0,0-3.66138,33.35449L208,96l-40-8a73.73366,73.73366,0,0,0,29.04932,38.033A6.626,6.626,0,0,1,200,131.54614v5.82764A6.62608,6.62608,0,0,1,193.37378,144H160a61.07582,61.07582,0,0,0,30.62744,35.31372L200,184v16H176l2.68726,4.03076A44.84449,44.84449,0,0,0,216,224v8l-24,16,24,8v24l24-16,16,32,16-32,24,16V256l24-8-24-16v-8a44.84558,44.84558,0,0,0,37.313-19.96924L336,200H312V184l9.37256-4.68628A61.07585,61.07585,0,0,0,352,144H318.626A6.62619,6.62619,0,0,1,312,137.37378v-5.82764a6.62661,6.62661,0,0,1,2.95068-5.51318A73.73267,73.73267,0,0,0,344,88l-40,8,3.66162-14.64551A48.35831,48.35831,0,0,0,304,48Z" style="fill:#fc6f35"/><rect x="240" y="200" width="32" height="40" style="fill:#ce2337"/><path d="M328,392c0,35.3501-20.6499,64-56,64s-56-28.6499-56-64c0-13.25,2.8999-25.55,8.37988-35.76A24.00716,24.00716,0,0,0,248,376a32.01137,32.01137,0,0,0,27.79-47.87988C308.81982,330.08984,328,357.92993,328,392Z" style="fill:#fdca77"/><path d="M296,416a24.0086,24.0086,0,1,1-11.50977-20.49A24.00619,24.00619,0,0,1,296,416Z" style="fill:#fc6f35"/><path d="M296,416a23.99749,23.99749,0,0,1-44.49,12.49,23.99518,23.99518,0,0,0,32.98022-32.98A23.984,23.984,0,0,1,296,416Z" style="fill:#de5e1d"/><path d="M280,192a8,8,0,0,0-16,0Z" style="fill:#68737f"/><path d="M248,192a8,8,0,0,0-16,0Z" style="fill:#68737f"/><path d="M344.40234,248v16A47.652,47.652,0,0,0,392,216.40234H376A31.63364,31.63364,0,0,1,344.40234,248Z"/><path d="M240,168a24.0275,24.0275,0,0,0-24,24h16a8,8,0,0,1,16,0,16.01833,16.01833,0,0,0-16,16v24a16.01833,16.01833,0,0,0,16,16h16a16.01833,16.01833,0,0,0,16-16V208a16.01833,16.01833,0,0,0-16-16,8,8,0,0,1,16,0h16a23.98433,23.98433,0,0,0-40-17.86914A23.90134,23.90134,0,0,0,240,168Zm24,64H248V208h16Z"/><path d="M296,140.68652a3.33372,3.33372,0,0,1,.9707-2.34277l4.68653-4.68652-11.31446-11.31446-4.68652,4.68653A19.1897,19.1897,0,0,0,280,140.68652,3.31712,3.31712,0,0,1,276.68652,144h-8a3.33372,3.33372,0,0,1-2.34277-.9707l-4.68652-4.68653L256,144l-5.65723-5.65723-4.68652,4.68653a3.33372,3.33372,0,0,1-2.34277.9707h-8A3.31712,3.31712,0,0,1,232,140.68652a19.1897,19.1897,0,0,0-5.65625-13.65722l-4.68652-4.68653-11.31446,11.31446,4.68653,4.68652A3.33372,3.33372,0,0,1,216,140.68652a19.33009,19.33009,0,0,0,16.01538,19.01075c-.00391.10107-.01538.20044-.01538.30273a8,8,0,0,0,16,0c0-.19775-.01562-.3916-.02954-.58569A19.11568,19.11568,0,0,0,256,155.22412a19.11653,19.11653,0,0,0,8.02979,4.19019c-.01417.19409-.02979.38794-.02979.58569a8,8,0,0,0,16,0c0-.10229-.01172-.20166-.01514-.30273A19.3301,19.3301,0,0,0,296,140.68652Z"/><path d="M200.116,107.43042a22.01826,22.01826,0,0,0-.116,2.22681V112h16v-2.34277A5.65814,5.65814,0,0,1,221.65723,104H228a4.004,4.004,0,0,1,4,4,20.02229,20.02229,0,0,0,20,20h8a20.02229,20.02229,0,0,0,20-20,4.004,4.004,0,0,1,4-4h6.34277A5.65814,5.65814,0,0,1,296,109.65723V112h16v-2.34277a22.0182,22.0182,0,0,0-.11621-2.22681l12.80273-12.80249A65.5138,65.5138,0,0,0,344,48H328a49.55283,49.55283,0,0,1-10.73584,30.92432,30.483,30.483,0,0,0-7.60693-12.58155L298.34277,77.65723a14.61742,14.61742,0,0,1,3.833,13.86352A21.50165,21.50165,0,0,0,290.34277,88H284a20.02229,20.02229,0,0,0-20,20,4.004,4.004,0,0,1-4,4h-8a4.004,4.004,0,0,1-4-4,20.02229,20.02229,0,0,0-20-20h-6.34277A21.50309,21.50309,0,0,0,209.824,91.52075a14.61817,14.61817,0,0,1,3.83326-13.86352L202.34277,66.34277a30.48564,30.48564,0,0,0-7.60693,12.58155A49.55283,49.55283,0,0,1,184,48H168a65.5138,65.5138,0,0,0,19.31348,46.62793Z"/><path d="M348.04492,99.39844l-14.48437-6.79688A65.73177,65.73177,0,0,1,310.5127,119.377,14.59551,14.59551,0,0,0,304,131.5459V137.374A14.643,14.643,0,0,0,318.626,152h30.06054l7.15528,3.57812a69.344,69.344,0,0,0,3.748-9.04882A8.001,8.001,0,0,0,352,136H320v-3.72266A81.72394,81.72394,0,0,0,348.04492,99.39844Z"/><path d="M160,136a8.001,8.001,0,0,0-7.58984,10.5293,69.344,69.344,0,0,0,3.748,9.04882L163.31348,152H193.374A14.643,14.643,0,0,0,208,137.374V131.5459a14.59551,14.59551,0,0,0-6.5127-12.16895,65.32714,65.32714,0,0,1-19.14648-19.64257l-13.53516,8.53124A81.19527,81.19527,0,0,0,192,132.27734V136Z"/><path d="M339.96875,208.46875l2.6875-4.03125A7.99977,7.99977,0,0,0,336,192H321.88867a1.88812,1.88812,0,0,1-1.85449-1.51953l-15.709,3.03906a17.91583,17.91583,0,0,0,14.86621,14.27637A36.77272,36.77272,0,0,1,296,216a8.00039,8.00039,0,0,0-8,8v8a7.99943,7.99943,0,0,0,3.5625,6.65625l10.38965,6.92676-8.48242,2.82715A8.00026,8.00026,0,0,0,288,256v9.05176l-11.5625-7.708a7.99882,7.99882,0,0,0-11.59277,3.07813L256,278.11133l-8.84473-17.68945a7.99882,7.99882,0,0,0-11.59277-3.07813L224,265.05176V256a8.00026,8.00026,0,0,0-5.46973-7.58984l-8.48242-2.82715,10.38965-6.92676A7.99943,7.99943,0,0,0,224,232v-8a8.00039,8.00039,0,0,0-8-8,36.77272,36.77272,0,0,1-23.19141-8.2041,17.91816,17.91816,0,0,0,14.86621-14.27637l-15.709-3.03906A1.88812,1.88812,0,0,1,190.11133,192H176a7.99977,7.99977,0,0,0-6.65625,12.4375l2.6875,4.03125a52.72446,52.72446,0,0,0,31.7002,22.0957l-16.16895,10.7793a7.99995,7.99995,0,0,0,1.90723,14.24609L208,261.76562V280a7.99977,7.99977,0,0,0,12.4375,6.65625l16.46-10.97266,11.94727,23.89453a8.00009,8.00009,0,0,0,14.31054,0l11.94727-23.89453,16.46,10.97266A7.99977,7.99977,0,0,0,304,280V261.76562l18.53027-6.17578a7.99995,7.99995,0,0,0,1.90723-14.24609l-16.16895-10.7793A52.72446,52.72446,0,0,0,339.96875,208.46875Z"/><path d="M114.34375,175.0293l-4.68652-4.68653L98.34277,181.65723l4.68653,4.68652a46.62921,46.62921,0,0,0,65.9414,0l1.37305-1.37305A30.42341,30.42341,0,0,1,192,176h16V160H192a46.32144,46.32144,0,0,0-32.9707,13.65625l-1.37305,1.37305a30.62563,30.62563,0,0,1-43.3125,0Z"/><path d="M413.65723,181.65723l-11.31446-11.31446-4.68652,4.68653a30.62563,30.62563,0,0,1-43.3125,0l-1.373-1.37305A46.32144,46.32144,0,0,0,320,160H304v16h16a30.42341,30.42341,0,0,1,21.65625,8.9707l1.373,1.37305a46.62921,46.62921,0,0,0,65.9414,0Z"/><path d="M21.46973,103.58984,40,109.7666v.34448l-3.57812,7.15552-8.84376-4.42187-7.15624,14.31054,16,8a7.99449,7.99449,0,0,0,10.73339-3.57715L52.94434,120H72a7.99516,7.99516,0,0,0,7.98877-7.77588,152.464,152.464,0,0,1,60.40283,16.07373l7.2168-14.2793A168.53741,168.53741,0,0,0,80,96.21094V95.18848a277.59566,277.59566,0,0,1,78.53418,3.31347l2.93164-15.72851a293.61323,293.61323,0,0,0-75.835-4.14649l1.52441-3.04883a8.00074,8.00074,0,0,0-3.57715-10.73339l-16-8L60.42188,71.15527l8.84472,4.42285L67.05566,80H52.28125L41.23145,63.4248l5.92382-11.84668L32.84473,44.42188l-8,16a7.999,7.999,0,0,0,.499,8.01562L40,90.42188v2.47875l-8-2.66625V80H16V96A8.00026,8.00026,0,0,0,21.46973,103.58984ZM64,96v8H56V96Z"/><path d="M480,56v9.75391l-16,4v-3.332L478.65625,44.4375a7.999,7.999,0,0,0,.499-8.01562l-8-16-14.31054,7.15624,5.92382,11.84668L451.71875,56H436.94434l-2.21094-4.42188,8.84472-4.42285-7.15624-14.31054-16,8a8.00074,8.00074,0,0,0-3.57715,10.73339l1.52734,3.05518a294.09321,294.09321,0,0,0-59.38965,1.55518l2.03516,15.86914A278.26182,278.26182,0,0,1,424,71.17676v1.01465a167.82311,167.82311,0,0,0-34.00391,5.15527l4.00782,15.49023a151.74467,151.74467,0,0,1,30.00781-4.60913A7.99486,7.99486,0,0,0,432,96h20.68555l13.65722,13.65723a8.00133,8.00133,0,0,0,9.23535,1.498l16-8-7.15624-14.31054-10.8418,5.42089-8.332-8.33178,24.69238-6.1731A7.99866,7.99866,0,0,0,496,72V56ZM448,80h-8V72h8Z"/><path d="M474.53027,455.58984a7.99809,7.99809,0,0,0,4.625-4.01172l8-16-14.31054-7.15624L466.32617,441.458l-8.67627,2.89209,5.93994-17.81983a8.00185,8.00185,0,0,0-1.93261-8.1875l-8-8-11.31446,11.31446,4.50391,4.5039L442.23438,440h-13.29l-2.21094-4.42188,8.84472-4.42285-7.15624-14.31054-16,8a7.99908,7.99908,0,0,0-3.93506,9.89355,200.59913,200.59913,0,0,0-41.39405-6.70459A80.23986,80.23986,0,0,0,368,416h24a55.92588,55.92588,0,0,0,44.3125-21.81836A94.19624,94.19624,0,0,0,480,314.334v-.51074a94.32418,94.32418,0,0,0-7.667-37.35644l-14.707,6.30273A78.39814,78.39814,0,0,1,464,313.82324v.51074a79.24633,79.24633,0,0,1-16.04785,47.55542c.021-.62866.04785-1.25586.04785-1.8894V336a24.08453,24.08453,0,0,0-11.99414-20.78418l-8.01172,13.84961A8.03881,8.03881,0,0,1,432,336v24a40.04584,40.04584,0,0,1-40,40H368a16.02334,16.02334,0,0,0-16,16.00586A64.07271,64.07271,0,0,1,288,480H272a80.00064,80.00064,0,0,1-80-80.0498,23.74218,23.74218,0,0,0-7.043-16.96387,24.07629,24.07629,0,0,0-5.19482-3.92383l7.81494-3.90723a7.99818,7.99818,0,0,0,3.0791-11.59277L177.6438,344.044a56.06417,56.06417,0,0,1,36.562,15.03759A86.71039,86.71039,0,0,0,208,392c0,42.39258,26.31738,72,64,72s64-29.60742,64-72a94.08436,94.08436,0,0,0-.48291-9.4375A23.92208,23.92208,0,0,1,352,376h32a32.05641,32.05641,0,0,0,30.17773-21.334l-15.08593-5.332A16.02941,16.02941,0,0,1,384,360h-3.10449l-1.60156-7.83594a43.66149,43.66149,0,0,1-.43848-15.02148l-15.83594-2.28516a59.58679,59.58679,0,0,0,.59863,20.51074L364.56494,360H352a39.89418,39.89418,0,0,0-19.96533,5.34375,73.62824,73.62824,0,0,0-6.99317-15.69287,51.98055,51.98055,0,0,0,33.05225-30.76026,105.08372,105.08372,0,0,0,21.24561-5.39868l4.81591,24.0774a8.00042,8.00042,0,0,0,12.64453,4.83105,71.72359,71.72359,0,0,0,28.42139-61.92822,104.1344,104.1344,0,0,0,13.77588-22.47705l23.0625,5.76562a7.9986,7.9986,0,0,0,9.77734-6.15527l1.32813-6.48242a43.85284,43.85284,0,0,0-26.10254-49.11768,103.83555,103.83555,0,0,0-2.57959-12.87988l21.45752-5.36475a7.9984,7.9984,0,0,0,5.21484-11.33789,54.51539,54.51539,0,0,0-53.77246-30.11474,104.449,104.449,0,0,0-10.9082-9.46924l15.18262-15.18164a8.00105,8.00105,0,0,0-2.07911-12.8125,65.5365,65.5365,0,0,0-69.001,6.22168l-3.37793,2.53418A8.0009,8.0009,0,0,0,344,120v.32812a7.99969,7.99969,0,0,0,7.3418,7.97266A88.00913,88.00913,0,0,1,431.99707,216.668C431.64062,264.82324,391.625,304,342.79492,304H327.59863a87.74023,87.74023,0,0,1-43.61621-11.62988l-7.96484,13.877a103.72086,103.72086,0,0,0,31.98047,11.86963l-4.88086,9.762a61.159,61.159,0,0,0-26.85059-7.74389,7.99938,7.99938,0,0,0-7.41894,11.96093A24.0112,24.0112,0,0,1,248,368a15.96066,15.96066,0,0,1-15.74414-13.16211,7.98386,7.98386,0,0,0-5.97827-6.344,71.8627,71.8627,0,0,0-6.12671-5.33106l11.27685-28.19116a7.99978,7.99978,0,0,0-5.4873-10.73242,52.20606,52.20606,0,0,0-57.13892,22.92261A32.18937,32.18937,0,0,1,144.00684,296.627c-.28907-15.11133,10.52539-28.50976,25.71582-31.8584l-3.44532-15.625c-22.60742,4.98438-38.70214,25.082-38.26855,47.78907A48.25331,48.25331,0,0,0,156.988,340.01343,68.14489,68.14489,0,0,1,134.11133,344h-9.81445a67.63939,67.63939,0,0,1-21.43262-3.47852l-12.334-4.11132c-.07763-.02588-.15722-.03809-.23535-.06128a96.10463,96.10463,0,0,1-18.291-55.58521A94.63719,94.63719,0,0,1,100.332,212.376L89.0625,201.01855a112.94078,112.94078,0,0,0-18.762,24.5,67.45186,67.45186,0,0,0-54.14527,52.91211A8.00012,8.00012,0,0,0,24,288H56.313a111.88628,111.88628,0,0,0,2.39258,16.39014l-.46924.37548a49.05229,49.05229,0,0,0-8.63672,68.03418,7.99825,7.99825,0,0,0,5.833,3.17969Q55.7168,376,56,376a8.00391,8.00391,0,0,0,5.65723-2.34277l20.09643-20.09644,2.03247,10.16089A35.27032,35.27032,0,0,0,118.2793,392H128a8.00076,8.00076,0,0,0,7.34692-4.83545A111.62177,111.62177,0,0,0,167.99707,392a7.99065,7.99065,0,0,1,5.67578,2.33008A7.85182,7.85182,0,0,1,176,399.94043a96.88027,96.88027,0,0,0,2.075,20.03076,200.65111,200.65111,0,0,0-53.449,10.0542L118.70142,432h-.93482l-6.17676-18.53027A8.00026,8.00026,0,0,0,104,408H88v16H98.23438l2.66625,8H97.2998l-22.76953-7.58984a8.0053,8.0053,0,0,0-8.1875,1.93261l-8,8,11.31446,11.31446,4.5039-4.50391L88,445.7666V456H72a8.00005,8.00005,0,0,0-6.41406,3.21875l-8,10.7334,12.82812,9.5625L76.01465,472h24.886l-2.66625,8H88v16h16a8.00026,8.00026,0,0,0,7.58984-5.46973L117.7666,472H120a8.00756,8.00756,0,0,0,1.314-.11694l.00147.00854a215.50836,215.50836,0,0,1,91.52734,4.63086l1.82618.498A95.27736,95.27736,0,0,0,272,496h16a79.47753,79.47753,0,0,0,39.5166-10.48486l3.64063-.99366a215.57152,215.57152,0,0,1,91.52734-4.62988l.00147-.00854A8.00521,8.00521,0,0,0,424,480h22.11133l14.31055,7.15527a8.00049,8.00049,0,0,0,7.15624,0l16-8-7.15624-14.31054L464,471.05566l-8-4V461.7666ZM392.64355,124.043a103.34983,103.34983,0,0,0-18.43066-7.58887,49.42462,49.42462,0,0,1,27.29-1.27051ZM457.78613,246.2002l-13.36035-3.3396a102.075,102.075,0,0,0,3.44922-21.926A27.81465,27.81465,0,0,1,457.78613,246.2002Zm-26.69238-87.06495a38.50374,38.50374,0,0,1,19.94043,11.85987l-11.88037,2.9707A103.5195,103.5195,0,0,0,431.09375,159.13525ZM61.74219,244.69775A110.26406,110.26406,0,0,0,56.28906,272H34.77148A51.58437,51.58437,0,0,1,61.74219,244.69775ZM57.81641,354.87012a33.05872,33.05872,0,0,1,6.13525-33.50733,112.04256,112.04256,0,0,0,9.20264,18.16895ZM120,376h-1.7207a19.22756,19.22756,0,0,1-18.80371-15.416l-.92774-4.63964A83.5724,83.5724,0,0,0,120,359.89062Zm287.98242-78.50439a55.84476,55.84476,0,0,1-10.99219,22.66162l-2.709-13.54346A106.04814,106.04814,0,0,0,407.98242,297.49561ZM327.59863,320h11.96924A36.03573,36.03573,0,0,1,317.375,335.13794l7.59082-15.18115C325.84277,319.979,326.72021,320,327.59863,320ZM248,384a40.00446,40.00446,0,0,0,39.61133-45.56738,42.62832,42.62832,0,0,1,20.35742,14.5039C315.72754,362.9043,320,376.77734,320,392c0,38.68457-24.10742,56-48,56a32.00767,32.00767,0,1,0-1.6875-.04492C238.34717,447.009,224,419.39307,224,392a75.50787,75.50787,0,0,1,1.85449-16.87793A31.953,31.953,0,0,0,248,384Zm8,32a16,16,0,1,1,16,16A16.01833,16.01833,0,0,1,256,416Zm-43.27734-97.34863-6.4253,16.064a72.08438,72.08438,0,0,0-18.551-5.73926A36.189,36.189,0,0,1,212.72266,318.65137Zm-47.63282,35.40625,7.22657,10.83984-3.69825,1.84863a19.04848,19.04848,0,0,1-23.7666-5.61035l-1.25976-1.68066A84.49092,84.49092,0,0,0,165.08984,354.05762ZM112,456h-8v-8h8Zm16-1.22314v-9.01l1.68555-.56177a184.624,184.624,0,0,1,53.188-9.4126,95.06256,95.06256,0,0,0,11.20605,20.30713A232.38705,232.38705,0,0,0,128,454.77686Zm224.15088,8.96533a79.93,79.93,0,0,0,10.83691-19.88648,184.769,184.769,0,0,1,51.32764,9.34937L416,453.7666v9.01074A232.39854,232.39854,0,0,0,352.15088,463.74219ZM440,464h-8v-8h8Z"/></g></svg>
