<?xml version="1.0"?>
<svg xmlns="http://www.w3.org/2000/svg" viewBox="0 0 512 512" width="512" height="512"><g id="Fill_out_line" data-name="Fill out line"><path d="M488,120V440a47.99972,47.99972,0,0,1-48,48H24V120Z" style="fill:#d6323f"/><path d="M472,120V432a40,40,0,0,1-40,40H200a32,32,0,0,1-32-32V120Z" style="fill:#bf1f31"/><path d="M216,392H437.27083A18.72917,18.72917,0,0,1,456,410.72917v26.54167A18.72917,18.72917,0,0,1,437.27083,456H216a32,32,0,0,1-32-32V424a32,32,0,0,1,32-32Z" style="fill:#d6323f"/><path d="M208,376H456a0,0,0,0,1,0,0v63.99957a16,16,0,0,1-16,16H240a32,32,0,0,1-32-32V376A0,0,0,0,1,208,376Z" style="fill:#ce2337"/><path d="M456,394.73V440a15.97886,15.97886,0,0,0-16-16H216V392H440A47.87293,47.87293,0,0,1,456,394.73Z" style="fill:#d6323f"/><path d="M488,72V440a47.94823,47.94823,0,0,0-48-48H216a31.99139,31.99139,0,0,0-32,32V56a32.004,32.004,0,0,1,32-32H440A47.99956,47.99956,0,0,1,488,72Z" style="fill:#e04446"/><path d="M440,16H216a40.04552,40.04552,0,0,0-40,40v56H24a8.00008,8.00008,0,0,0-8,8V488a8.00008,8.00008,0,0,0,8,8H440a56.06322,56.06322,0,0,0,56-56V72A56.06322,56.06322,0,0,0,440,16Zm40,310.18506a34.96219,34.96219,0,0,1-5.8457-4.3042C468.92676,317.47852,462.42139,312,450.002,312c-12.41845,0-18.92383,5.47852-24.15039,9.88086C421.47656,325.56543,418.58643,328,412.00781,328c-6.57959,0-9.47021-2.43457-13.8457-6.11914C392.93457,317.47852,386.42871,312,374.00928,312s-18.9253,5.47852-24.15283,9.88086C345.481,325.56543,342.59033,328,336.01025,328c-6.58056,0-9.47168-2.43457-13.84765-6.11914C316.93506,317.47852,310.4292,312,298.00928,312c-12.41944,0-18.9253,5.47852-24.15283,9.88086C269.481,325.56543,266.58984,328,260.00977,328c-6.58155,0-9.47315-2.43457-13.84961-6.11914C240.93213,317.47852,234.42578,312,222.00488,312c-12.42041,0-18.92724,5.47852-24.15527,9.88086A34.95816,34.95816,0,0,1,192,326.18652V119.13281c7.47217-1.71435,12.18591-5.67114,16.15527-9.01367C212.53174,106.43457,215.42334,104,222.00488,104s9.47315,2.43457,13.84961,6.11914C241.08252,114.52148,247.58936,120,260.00977,120c12.41992,0,18.92578-5.47852,24.15332-9.88086C288.53857,106.43457,291.4292,104,298.00928,104c6.58056,0,9.47168,2.43457,13.84765,6.11914C317.08447,114.52148,323.59033,120,336.01025,120c12.41944,0,18.9253-5.47852,24.15284-9.88086C364.53857,106.43457,367.4292,104,374.00928,104s9.4707,2.43457,13.84619,6.11914C393.083,114.52148,399.58838,120,412.00781,120c12.41846,0,18.92383-5.47852,24.15039-9.88086C440.5332,106.43457,443.42334,104,450.002,104c6.57959,0,9.47022,2.43457,13.84571,6.11914,3.96887,3.34229,8.68139,7.29907,16.15234,9.01367ZM216,432H440a8,8,0,0,1,0,16H216a24.00087,24.00087,0,0,1-8-46.62891V424A8.00008,8.00008,0,0,0,216,432Zm232-14.624A23.894,23.894,0,0,0,440,416H224V400H440a40.00029,40.00029,0,0,1,8,.80518ZM176,424c-6.573-.00293-9.46381-2.43652-13.8374-6.11914C156.93506,413.47852,150.4292,408,138.00928,408c-12.41944,0-18.9253,5.47852-24.15283,9.88086C109.481,421.56543,106.58984,424,100.00977,424c-6.58155,0-9.47315-2.43457-13.84961-6.11914C80.93213,413.47852,74.42578,408,62.00488,408s-18.92724,5.47852-24.15527,9.88086A34.95816,34.95816,0,0,1,32,422.18652V215.13281c7.47241-1.71435,12.18591-5.67114,16.15527-9.01367C52.53174,202.43457,55.42334,200,62.00488,200s9.47315,2.43457,13.84961,6.11914C81.08252,210.52148,87.58887,216,100.00977,216c12.41992,0,18.92578-5.47852,24.15332-9.88086C128.53857,202.43457,131.4292,200,138.00928,200c6.58056,0,9.47168,2.43457,13.84765,6.11914C157.083,210.52026,163.587,215.99658,176,215.99976ZM216,32H440a40.04552,40.04552,0,0,1,40,40v30.1853a34.99137,34.99137,0,0,1-5.8457-4.30444C468.92676,93.47852,462.42139,88,450.002,88c-12.41845,0-18.92383,5.47852-24.15039,9.88086C421.47656,101.56543,418.58643,104,412.00781,104c-6.57959,0-9.47021-2.43457-13.8457-6.11914C392.93457,93.47852,386.42871,88,374.00928,88s-18.9253,5.47852-24.15283,9.88086C345.481,101.56543,342.59033,104,336.01025,104c-6.58056,0-9.47168-2.43457-13.84765-6.11914C316.93506,93.47852,310.4292,88,298.00928,88c-12.41944,0-18.9253,5.47852-24.15283,9.88086C269.481,101.56543,266.58984,104,260.00977,104c-6.58155,0-9.47315-2.43457-13.84961-6.11914C240.93213,93.47852,234.42578,88,222.00488,88c-12.42041,0-18.92724,5.47852-24.15527,9.88086A34.97158,34.97158,0,0,1,192,102.18652V56A24.02718,24.02718,0,0,1,216,32Zm-40,96v71.99976c-6.573-.00269-9.46381-2.43628-13.8374-6.1189C156.93506,189.47852,150.4292,184,138.00928,184c-12.41944,0-18.9253,5.47852-24.15283,9.88086C109.481,197.56543,106.58984,200,100.00977,200c-6.58155,0-9.47315-2.43457-13.84961-6.11914C80.93213,189.47852,74.42578,184,62.00488,184s-18.92724,5.47852-24.15527,9.88086A34.97158,34.97158,0,0,1,32,198.18652V128ZM440,480H32V439.13281c7.47241-1.71435,12.18591-5.67138,16.15527-9.01367C52.53174,426.43457,55.42334,424,62.00488,424s9.47315,2.43457,13.84961,6.11914C81.08252,434.52148,87.58887,440,100.00977,440c12.41992,0,18.92578-5.47852,24.15332-9.88086C128.53857,426.43457,131.4292,424,138.00928,424c6.58056,0,9.47168,2.43457,13.84765,6.11914C157.08447,434.52148,163.59033,440,176.01025,440c1.12348,0,2.21289-.04834,3.27735-.1377A40.05423,40.05423,0,0,0,216,464H440a24.02718,24.02718,0,0,0,24-24V408.022A39.98535,39.98535,0,0,1,440,480Zm0-96H216a39.79015,39.79015,0,0,0-24,8.022V343.13281c7.47217-1.71435,12.18591-5.67138,16.15527-9.01367C212.53174,330.43457,215.42334,328,222.00488,328s9.47315,2.43457,13.84961,6.11914C241.08252,338.52148,247.58936,344,260.00977,344c12.41992,0,18.92578-5.47852,24.15332-9.88086C288.53857,330.43457,291.4292,328,298.00928,328c6.58056,0,9.47168,2.43457,13.84765,6.11914C317.08447,338.52148,323.59033,344,336.01025,344c12.41944,0,18.9253-5.47852,24.15284-9.88086C364.53857,330.43457,367.4292,328,374.00928,328s9.4707,2.43457,13.84619,6.11914C393.083,338.52148,399.58838,344,412.00781,344c12.41846,0,18.92383-5.47852,24.15039-9.88086C440.5332,330.43457,443.42334,328,450.002,328c6.57959,0,9.47022,2.43457,13.84571,6.11914,3.96887,3.34229,8.68139,7.29932,16.15234,9.01367v57.72852A55.8244,55.8244,0,0,0,440,384Z"/></g></svg>
