<svg height="512" viewBox="0 0 512 512" width="512" xmlns="http://www.w3.org/2000/svg"><g id="Fill_out_line" data-name="Fill out line"><path d="m80 336v-176h408v328h-464v-96z" fill="#7ab355"/><path d="m104 208v-.00011a111.99989 111.99989 0 0 1 111.99989-111.99989h112.00011v64h-111a48 48 0 0 0 -48 48z" fill="#da9065"/><path d="m168 160h160v80h-160z" fill="#ab693d"/><path d="m72 152h128v192h-128z" fill="#fdca77"/><path d="m136 216a16 16 0 0 1 16 16v40a0 0 0 0 1 0 0h-32a0 0 0 0 1 0 0v-40a16 16 0 0 1 16-16z" fill="#9f764a"/><path d="m104 488h200v-80h-128l-72-96z" fill="#ab693d"/><path d="m312 384v64h-88a120.52274 120.52274 0 0 1 -16-1.06006 119.29457 119.29457 0 0 1 -48-17.41994 120.00746 120.00746 0 0 1 -56-101.52v-64h64v40a80.00349 80.00349 0 0 0 80 80z" fill="#da9065"/><path d="m392 384h96v64h-96z" fill="#da9065"/><path d="m392 448h96v40h-96z" fill="#ab693d"/><path d="m424 96h64v64h-64z" fill="#da9065"/><path d="m424 160h64v80h-64z" fill="#ab693d"/><path d="m312 40h128v200h-128z" fill="#fdca77"/><path d="m264 288h128v200h-128z" fill="#fdca77"/><path d="m368 104h16v16h-16z"/><path d="m400 104h16v16h-16z"/><path d="m336 104h16v16h-16z"/><path d="m320 352h16v16h-16z"/><path d="m352 352h16v16h-16z"/><path d="m288 352h16v16h-16z"/><path d="m488 88h-16v-16h-16v16h-8v-72h-16v16h-16v-16h-16v16h-16v-16h-16v16h-16v-16h-16v16h-16v-16h-16v72h-24v-16h-16v16h-16v-16h-16v16h-16v-16h-16v17.07056a120.042 120.042 0 0 0 -16 3.26144v-12.332h-16v18.00415a119.04783 119.04783 0 0 0 -13.84961 7.14331l8.25781 13.70508a103.8201 103.8201 0 0 1 53.5918-14.85254h88v48h-24v-16h-16v16h-16v-16h-16v16h-15a56.34137 56.34137 0 0 0 -9 .73315v-24.73315h-16v16h-16v-16h-16v16h-16v-16h-16v16h-16v-16h-16v16h-16v-16h-16v212.686l-45.65674 45.65677 11.31348 11.31446 45.65726-45.65723h20.686v136a8.00008 8.00008 0 0 0 8 8h384a8.00008 8.00008 0 0 0 8-8v-128h-16v16h-16v-16h-16v16h-16v-16h-16v16h-16v-112h-16v16h-16v-16h-16v16h-16v-16h-16v16h-16v-16h-16v16h-16v-16h-16v112h-8a72.39133 72.39133 0 0 1 -8-.45508v-15.54492h-16v11.87158a72.218 72.218 0 0 1 -29.60791-19.87158h5.60791a8.00008 8.00008 0 0 0 8-8v-96h212.686l61.65722 61.65723 11.31348-11.31446-50.3427-50.34277h44.686a8.00008 8.00008 0 0 0 8-8v-144a8.00008 8.00008 0 0 0 -8-8zm-8 16v48h-8v-16h-16v16h-8v-48zm-48-56v16h-112v-16zm-240 112v16h-112v-16zm-80 229.90625a128.09463 128.09463 0 0 0 112 66.09375h32v24h-144zm160 90.09375v-152h112v152zm208 0h-80v-24h80zm0-88v48h-16v-16h-16v16h-16v-16h-16v16h-16v-48zm-96-96v16h-112v-16zm-136 96h8v48h-16v-16h-16v16a112.37974 112.37974 0 0 1 -16-1.14795v-14.85205h-16v11.33447a111.17378 111.17378 0 0 1 -16-6.15576v-21.17871h-16v11.8584a112.85938 112.85938 0 0 1 -16-13.561v-30.2974h-16v9.63037a111.31637 111.31637 0 0 1 -16-57.63037v-56h48v32a88.09957 88.09957 0 0 0 88 88zm-104-136h-16v-24a8 8 0 0 1 16 0zm32 48v-40a8.00008 8.00008 0 0 0 -8-8h-8v-24a24 24 0 0 0 -48 0v24h-8a8.00008 8.00008 0 0 0 -8 8v64c0 2.6875.09326 5.353.25732 8h-16.25732v-144h112v144h-8.47241a71.54079 71.54079 0 0 1 -7.52759-32zm32-134.98584a40.11577 40.11577 0 0 1 9-1.01416h87v64h-96zm112 62.98584v-152h112v152zm160 0h-32v-64h32z"/></g></svg>