<?xml version="1.0" encoding="iso-8859-1"?>
<!-- Generator: Adobe Illustrator 19.0.0, SVG Export Plug-In . SVG Version: 6.00 Build 0)  -->
<svg version="1.1" id="Capa_1" xmlns="http://www.w3.org/2000/svg" xmlns:xlink="http://www.w3.org/1999/xlink" x="0px" y="0px"
	 viewBox="0 0 512 512" style="enable-background:new 0 0 512 512;" xml:space="preserve">
<path style="fill:#FF4B4B;" d="M481.42,177.788l-146.378-28.15c-6.453-1.241-12.248,4.154-11.472,10.679l6.124,51.489l-1.951,22.484
	l6.516,15.893l28.956,243.463c0.687,5.775-3.824,10.853-9.639,10.853h-195.15c-5.816,0-10.326-5.079-9.639-10.853l28.957-243.471
	l5.961-17.451l-0.361-29.63l5.088-42.778c0.776-6.525-5.019-11.92-11.472-10.679L30.58,177.788
	c-11.973,2.303-23.08-6.872-23.08-19.065V85.157c0-21.444,17.384-38.828,38.828-38.828H173.49l18.63-33.282
	c0.832-1.616,2.497-2.632,4.315-2.632h119.128c1.818,0,3.483,1.016,4.315,2.632l18.63,33.282H465.67
	c21.444,0,38.828,17.384,38.828,38.828v73.567C504.5,170.917,493.393,180.092,481.42,177.788z"/>
<path style="fill:#D24A4A;" d="M363.214,493.648c0.687,5.775-3.824,10.853-9.639,10.853h-36.301l-11.98-327.877
	c-0.547-14.968,11.439-27.4,26.418-27.4l0,0v0.359c-4.966,0.771-8.78,5.366-8.142,10.736l6.124,51.489l-1.594,19.266l6.158,19.111
	L363.214,493.648z"/>
<path style="fill:#FFB450;" d="M280.553,133.407h-49.107L173.49,46.329l18.63-36.196c0.832-1.616,2.497-2.632,4.315-2.632h6.175
	h106.777h6.175c1.818,0,3.483,1.016,4.315,2.632l18.63,36.196L280.553,133.407z"/>
<path style="fill:#C83741;" d="M313.956,7.501L256,94.579L198.044,7.501H313.956z"/>
<path style="fill:#FFCF65;" d="M189.622,230.762l-8.028-12.968l1.902-15.996L313.956,7.501h1.608c1.818,0,3.483,1.016,4.315,2.632
	l18.63,36.196L214.676,230.762H189.622z"/>
<path style="fill:#FFB450;" d="M334.257,250.176H177.743l4.618-38.828h147.278L334.257,250.176z M364.753,469.953
	c-0.29-2.442-2.361-4.28-4.82-4.28H152.066c-2.459,0-4.529,1.839-4.82,4.28l-3.464,29.121c-0.343,2.887,1.912,5.427,4.82,5.427
	h214.795c2.908,0,5.163-2.54,4.82-5.427L364.753,469.953z M7.5,51.183v126.191c0,2.68,2.173,4.854,4.854,4.854h29.121
	c2.681,0,4.854-2.173,4.854-4.854V46.329H12.354C9.673,46.329,7.5,48.502,7.5,51.183z M499.647,46.329h-33.975v131.045
	c0,2.68,2.173,4.854,4.854,4.854h29.121c2.681,0,4.854-2.173,4.854-4.854V51.183C504.5,48.502,502.327,46.329,499.647,46.329z"/>
<path d="M499.5,38.829h-33.828c-0.246,0-0.488,0.014-0.728,0.037c-0.24-0.023-0.482-0.037-0.728-0.037H343.085L326.548,6.7
	c-2.128-4.132-6.336-6.699-10.984-6.699h-117.45c-0.02,0-0.04,0-0.059,0h-1.618c-4.648,0-8.856,2.567-10.984,6.699l-16.537,32.129
	H46.328H12.5c-6.893,0-12.5,5.607-12.5,12.5v125.898c0,6.893,5.607,12.5,12.5,12.5h28.828c5.55,0,10.262-3.639,11.888-8.654
	l125.158-24.069c0.957-0.188,1.614,0.267,1.92,0.552s0.803,0.907,0.688,1.876l-35.781,300.839c-2.907,1.949-4.963,5.097-5.403,8.796
	l-3.463,29.12c-0.417,3.503,0.687,7.025,3.029,9.663c2.343,2.638,5.709,4.15,9.237,4.15h214.795c3.528,0,6.895-1.513,9.237-4.15
	c2.342-2.638,3.446-6.16,3.03-9.662l-3.464-29.122c-0.44-3.699-2.496-6.847-5.404-8.795l-35.78-300.838
	c-0.115-0.969,0.381-1.591,0.688-1.876c0.306-0.285,0.964-0.736,1.92-0.552l125.158,24.069c1.627,5.015,6.338,8.654,11.888,8.654
	H499.5c6.893,0,12.5-5.607,12.5-12.5V51.329C512,44.437,506.393,38.829,499.5,38.829z M329.815,45.825L223.713,203.849h-32.559
	L315.688,18.377L329.815,45.825z M325.812,242.676H186.188l2.834-23.828h133.957L325.812,242.676z M255.773,80.701l-43.728-65.701
	h87.843L255.773,80.701z M196.295,18.411l50.429,75.768l-16.26,24.216l-48.288-72.552L196.295,18.411z M38.828,174.728H15V53.829
	h23.828V174.728z M175.542,142.275L53.828,165.68V53.829h115.645l51.943,78.042l-26.796,39.908l1.258-10.575
	c0.656-5.513-1.298-10.845-5.362-14.627C186.452,142.795,180.994,141.228,175.542,142.275z M151.583,497l2.834-23.828h126.821
	c4.142,0,7.5-3.357,7.5-7.5s-3.358-7.5-7.5-7.5h-120.68l23.846-200.496h143.193l23.846,200.496h-38.171c-4.142,0-7.5,3.357-7.5,7.5
	s3.358,7.5,7.5,7.5h44.312L360.418,497H151.583z M321.485,146.577c-4.064,3.782-6.019,9.114-5.363,14.627l5.072,42.645H241.78
	l100.727-150.02h115.664V165.68l-121.713-23.406C331.006,141.228,325.548,142.794,321.485,146.577z M497,174.728h-23.828V53.829H497
	V174.728z"/>
<g>
</g>
<g>
</g>
<g>
</g>
<g>
</g>
<g>
</g>
<g>
</g>
<g>
</g>
<g>
</g>
<g>
</g>
<g>
</g>
<g>
</g>
<g>
</g>
<g>
</g>
<g>
</g>
<g>
</g>
</svg>
