<?xml version="1.0" encoding="iso-8859-1"?>
<!-- Generator: Adobe Illustrator 19.0.0, SVG Export Plug-In . SVG Version: 6.00 Build 0)  -->
<svg version="1.1" id="Capa_1" xmlns="http://www.w3.org/2000/svg" xmlns:xlink="http://www.w3.org/1999/xlink" x="0px" y="0px"
	 viewBox="0 0 512 512" style="enable-background:new 0 0 512 512;" xml:space="preserve">
<path style="fill:#FF4B4B;" d="M497.011,261.243l-234.673,84.992c-4.102,1.486-8.574,1.486-12.677,0L14.989,261.243
	c-2.16-0.782-3.606-2.884-3.606-5.243l0,0C11.383,116.824,120.902,4,256,4l0,0c135.098,0,244.617,112.824,244.617,252l0,0
	C500.617,258.359,499.172,260.461,497.011,261.243z"/>
<path style="fill:#D24A4A;" d="M500.617,256L500.617,256c0,2.359-1.445,4.461-3.606,5.244l-234.673,84.992
	c-2.153,0.78-4.407,1.139-6.657,1.101v-24.519l165.327-59.877c35.767-12.954,56.409-51.871,46.993-89.704
	c-0.117-0.469-0.234-0.926-0.353-1.371c-14.212-53.143-44.899-99.25-86.042-132.135C452.896,83.766,500.617,164.137,500.617,256z"/>
<path style="fill:#FF4B4B;" d="M281.995,496.72c0.532,2.245-0.53,4.557-2.536,5.591C272.398,505.948,264.432,508,256,508
	s-16.398-2.052-23.459-5.69c-2.006-1.034-3.068-3.346-2.536-5.591l14.088-59.505c1.239-5.232,5.443-9.319,10.643-9.867
	c6.126-0.646,11.656,3.465,13.084,9.497L281.995,496.72z M256,387.906c18.47,0,33.444-15.425,33.444-34.453S274.47,319,256,319
	s-33.444,15.425-33.444,34.453S237.53,387.906,256,387.906z"/>
<path style="fill:#FFCF65;" d="M196.944,327.143l-49.829-18.047c9.734-52.822,54.778-92.763,108.885-92.763l0,0
	c54.107,0,99.151,39.941,108.885,92.763l-49.829,18.047C302.026,303.181,280.445,287.5,256,287.5l0,0
	C231.555,287.5,209.974,303.181,196.944,327.143z"/>
<path style="fill:#FFB450;" d="M299.782,306.609l58.126-21.051c3.109,7.47,5.469,15.349,6.978,23.538l-49.829,18.047
	C310.808,319.331,305.652,312.403,299.782,306.609z"/>
<path style="fill:#D5945E;" d="M256,259.938L256,259.938c31.939,0,59.008,26.752,68.472,63.795l-62.134,22.503
	c-4.102,1.486-8.574,1.486-12.677,0l-62.134-22.503C196.992,286.69,224.061,259.938,256,259.938z"/>
<path style="fill:#E6AF78;" d="M220.015,335.498l-32.487-11.766c9.464-37.043,36.534-63.795,68.472-63.795l0,0
	c24.87,0,46.784,16.224,59.736,40.893L220.015,335.498z"/>
<path d="M420.001,59.423c-3.179-2.655-7.908-2.23-10.564,0.949c-2.655,3.179-2.23,7.909,0.949,10.564
	c54.678,45.665,86.193,112.528,86.609,183.635l-124.944,43.926c-7.068-26.594-22.89-49.246-43.962-65.057l56.483-50.858
	c3.078-2.772,3.327-7.514,0.555-10.592c-2.772-3.079-7.514-3.327-10.592-0.555l-59.43,53.511c-2.622-1.484-5.302-2.874-8.038-4.161
	l47.841-82.863c2.071-3.587,0.842-8.174-2.745-10.245c-3.587-2.072-8.174-0.842-10.245,2.745l-48.953,84.789
	c-2.41-0.78-4.851-1.485-7.32-2.114l27.259-101.729c1.072-4.001-1.302-8.114-5.303-9.186c-3.998-1.067-8.113,1.302-9.186,5.304
	l-27.552,102.823c-2.435-0.303-4.89-0.534-7.363-0.688V99.428c0-4.142-3.358-7.5-7.5-7.5s-7.5,3.358-7.5,7.5v110.193
	c-2.473,0.154-4.928,0.385-7.363,0.688L213.873,108.56c-1.072-4.001-5.184-6.373-9.186-5.304c-4,1.072-6.375,5.185-5.303,9.186
	l26.971,100.656c-2.469,0.629-4.91,1.334-7.32,2.114l-48.862-84.632c-2.071-3.588-6.659-4.816-10.245-2.745
	c-3.587,2.071-4.816,6.658-2.745,10.245l47.75,82.705c-2.557,1.203-5.066,2.497-7.525,3.873l-59.574-53.641
	c-3.078-2.771-7.82-2.522-10.592,0.555c-2.771,3.078-2.523,7.82,0.555,10.592l56.571,50.936
	c-21.299,15.826-37.3,38.61-44.418,65.395L15.004,254.571C15.779,122.341,123.591,15,256,15c46.033,0,90.78,13.02,129.404,37.652
	c3.492,2.228,8.129,1.201,10.356-2.291s1.202-8.129-2.291-10.356C352.433,13.833,304.896,0,256,0
	C187.62,0,123.333,26.628,74.98,74.981C26.629,123.333,0,187.62,0,256c0,5.5,3.487,10.422,8.676,12.246l207.321,72.886
	c-0.972,3.547-1.471,7.213-1.471,10.967c0,20.308,14.675,37.241,33.975,40.782v26.023c-5.799,2.414-10.309,7.563-11.883,14.016
	l-14.312,58.678c-1.375,5.637,1.301,11.394,6.508,13.999C237.309,509.846,246.456,512,256,512s18.69-2.154,27.187-6.403
	c5.207-2.604,7.882-8.361,6.507-13.998l-14.4-59.043c-1.543-6.327-6.072-11.279-11.794-13.638v-26.036
	c19.3-3.541,33.975-20.475,33.975-40.782c0-3.754-0.499-7.421-1.471-10.967l207.321-72.886C508.513,266.422,512,261.5,512,256
	C512,179.901,478.468,108.251,420.001,59.423z M256,224.384c48.275,0,90.104,32.909,101.833,79.112l-27.362,9.62
	c-12.454-36.644-41.583-60.732-74.471-60.732c-9.766,0-19.31,2.109-28.368,6.268c-3.764,1.729-5.415,6.182-3.686,9.946
	c1.729,3.764,6.181,5.414,9.946,3.686c7.08-3.251,14.518-4.9,22.108-4.9c26.386,0,49.971,20.108,60.318,50.708l-56.367,19.817
	c-2.547,0.895-5.354,0.896-7.903,0l-56.357-19.813c3.917-11.532,9.841-21.874,17.356-30.197c2.776-3.074,2.534-7.817-0.54-10.593
	c-3.074-2.776-7.817-2.534-10.593,0.54c-8.845,9.795-15.798,21.876-20.373,35.275l-27.375-9.624
	C165.896,257.293,207.725,224.384,256,224.384z M274.611,493.063c-3.569,1.591-7.285,2.698-11.111,3.325v-22.951
	c0-4.142-3.358-7.5-7.5-7.5s-7.5,3.358-7.5,7.5v22.951c-3.827-0.627-7.543-1.733-11.112-3.325l13.802-56.588
	c0.531-2.178,2.295-3.842,4.29-4.046c2.455-0.251,4.659,1.296,5.241,3.681L274.611,493.063z M282.475,352.1
	c0,14.598-11.876,26.475-26.475,26.475s-26.475-11.876-26.475-26.475c0-2.037,0.229-4.033,0.676-5.974l16.872,5.932
	c2.878,1.012,5.902,1.519,8.927,1.518c3.024,0,6.049-0.506,8.926-1.518l16.873-5.932C282.246,348.067,282.475,350.062,282.475,352.1
	z"/>
<g>
</g>
<g>
</g>
<g>
</g>
<g>
</g>
<g>
</g>
<g>
</g>
<g>
</g>
<g>
</g>
<g>
</g>
<g>
</g>
<g>
</g>
<g>
</g>
<g>
</g>
<g>
</g>
<g>
</g>
</svg>
