<svg height="512" viewBox="0 0 512 512" width="512" xmlns="http://www.w3.org/2000/svg"><g id="Fill_out_line" data-name="Fill out line"><circle cx="256" cy="48" fill="#fab53f" r="24"/><g fill="#fdca77"><path d="m415.68994 128c-39.83008.16992-71.68994 33.31006-71.68994 73.14014v70.85986h70.85986c39.83008 0 72.97022-31.85986 73.14014-71.68994a72.07531 72.07531 0 0 0 -72.31006-72.31006zm-.43994 112h-39.25v-39.25c0-22.32007 17.93994-40.89014 40.25-40.75a40.053 40.053 0 0 1 39.75 39.75c.14014 22.31006-18.43018 40.25-40.75 40.25z"/><path d="m184 200-40 96a54.236 54.236 0 0 1 -43.39014-48.6499l-2.43994-29.27a54.1824 54.1824 0 0 0 -23.94992-40.6001l-50.22-33.48 40-24 55.46 20.16992 32.54 11.83008z"/><path d="m339.14014 384h-166.28028a55.97634 55.97634 0 0 1 -55.80981-60.6499l16.5-198.01026a32.00989 32.00989 0 0 1 31.88989-29.33984h181.12012a32.01013 32.01013 0 0 1 31.89014 29.33984l16.5 198.01026a56.00376 56.00376 0 0 1 -55.81006 60.6499z"/></g><path d="m339.14014 384h-166.28028a55.93283 55.93283 0 0 1 -46.53979-24.83008 56.05135 56.05135 0 0 0 9.67993.83008h53.26c93.59985 0 167.22-80 159.44019-173.29l-7.11036-85.37012a31.37363 31.37363 0 0 0 -.90965-5.33988h5.87988a32.01013 32.01013 0 0 1 31.89014 29.33984l16.5 198.01026a56.00376 56.00376 0 0 1 -55.81006 60.6499z" fill="#fab53f"/><path d="m328 96h-144a31.97287 31.97287 0 0 1 32-32h80a31.99159 31.99159 0 0 1 32 32z" fill="#fdca77"/><path d="m328 96h-144a32.00775 32.00775 0 0 1 1.01-8h110.99a31.89884 31.89884 0 0 0 -9.37012-22.62988c-.46972-.47022-.96-.93018-1.46-1.37012h10.83012a31.99159 31.99159 0 0 1 32 32z" fill="#fab53f"/><path d="m280 312v80a15.9958 15.9958 0 0 1 -16 16h-80a15.99564 15.99564 0 0 1 -16-16v-80z" fill="#e04446"/><path d="m184 408h80v32h-80z" fill="#ce2337"/><path d="m280 312v80a15.9958 15.9958 0 0 1 -16 16h-80a15.99564 15.99564 0 0 1 -16-16h32a55.9973 55.9973 0 0 0 56-56v-24z" fill="#d6323f"/><path d="m136 312v80a15.99564 15.99564 0 0 1 -16 16h-80a15.99564 15.99564 0 0 1 -16-16v-80z" fill="#e04446"/><path d="m40 408h80v32h-80z" fill="#ce2337"/><path d="m136 312v80a15.99564 15.99564 0 0 1 -16 16h-80a15.99564 15.99564 0 0 1 -16-16h32a55.9973 55.9973 0 0 0 56-56v-24z" fill="#d6323f"/><path d="m200 360v80a15.99564 15.99564 0 0 1 -16 16h-80a15.99564 15.99564 0 0 1 -16-16v-80z" fill="#e04446"/><path d="m104 456h80v32h-80z" fill="#ce2337"/><path d="m200 360v80a15.99564 15.99564 0 0 1 -16 16h-80a15.99564 15.99564 0 0 1 -16-16h32a55.9973 55.9973 0 0 0 56-56v-24z" fill="#d6323f"/><path d="m360 360v80a15.9958 15.9958 0 0 1 -16 16h-80a15.99564 15.99564 0 0 1 -16-16v-80z" fill="#e04446"/><path d="m264 456h80v32h-80z" fill="#ce2337"/><path d="m360 360v80a15.9958 15.9958 0 0 1 -16 16h-80a15.99564 15.99564 0 0 1 -16-16h32a55.99714 55.99714 0 0 0 56-56v-24z" fill="#d6323f"/><path d="m416 120a79.9332 79.9332 0 0 0 -29.501 5.65308l-.081-.97437a40.23634 40.23634 0 0 0 -39.86234-36.67871h-11.36084a40.0681 40.0681 0 0 0 -39.19482-32h-9.02148a31.9927 31.9927 0 1 0 -61.97168 0h-9.00684a40.06838 40.06838 0 0 0 -39.19507 32h-11.36059a40.23634 40.23634 0 0 0 -39.86234 36.67871l-.74414 8.93164-58.10351-21.1289a8.005 8.005 0 0 0 -6.85059.6582l-40 24a7.99995 7.99995 0 0 0 -.32129 13.5166l50.22266 33.48242a45.95514 45.95514 0 0 1 20.416 34.60742l2.43848 29.26661a62.56085 62.56085 0 0 0 22.55566 42.94335 8.00026 8.00026 0 0 0 13.0459-5.52148l13.28613-159.42773a24.14113 24.14113 0 0 1 23.91704-22.00684h181.11132a24.14113 24.14113 0 0 1 23.917 22.00684l16.5 198.00683a47.38435 47.38435 0 0 1 -8.4336 31.40918l13.123 9.1543a64.06356 64.06356 0 0 0 11.25586-41.8916l-3.55708-42.68555h16.63916a80 80 0 0 0 0-160zm-302.082 144.64941a46.24478 46.24478 0 0 1 -5.333-17.96484l-2.43848-29.2666a61.87236 61.87236 0 0 0 -27.48632-46.5918l-39.70415-26.46972 25.89161-15.53516 58.61328 21.31348zm126.082-216.64941a16 16 0 1 1 29.84473 8h-27.689a15.89006 15.89006 0 0 1 -2.15573-8zm-24 24h80a24.03919 24.03919 0 0 1 22.624 16h-125.24778a24.0384 24.0384 0 0 1 22.62378-16zm175.03076 108.03369a31.98776 31.98776 0 1 1 24.96924 51.96631h-20.63867zm24.96924 83.96631h-17.97217l-1.33349-16h19.30566a48 48 0 1 0 -26.63037-87.8999l-1.46533-17.58643a63.99347 63.99347 0 1 1 28.0957 121.48633z"/><path d="m360 352h-72v-40a8.00039 8.00039 0 0 0 -8-8h-112a8.00039 8.00039 0 0 0 -8 8v40h-16v-40a8.00039 8.00039 0 0 0 -8-8h-112a8.00039 8.00039 0 0 0 -8 8v80a24.03919 24.03919 0 0 0 16 22.624v25.376a8.00039 8.00039 0 0 0 8 8h41.37622a24.1151 24.1151 0 0 0 14.62378 14.624v25.376a8.00039 8.00039 0 0 0 8 8h80a8.00039 8.00039 0 0 0 8-8v-25.376a24.1151 24.1151 0 0 0 14.62378-14.624h34.75244a24.1151 24.1151 0 0 0 14.62378 14.624v25.376a8.00039 8.00039 0 0 0 8 8h80a8.00039 8.00039 0 0 0 8-8v-25.376a24.03919 24.03919 0 0 0 16-22.624v-80a8.00039 8.00039 0 0 0 -8-8zm-312 64h32v16h-32zm32-56v40h-40a8.00917 8.00917 0 0 1 -8-8v-72h96v32h-40a8.00039 8.00039 0 0 0 -8 8zm96 120h-64v-16h64zm16-40a8.00917 8.00917 0 0 1 -8 8h-80a8.00917 8.00917 0 0 1 -8-8v-72h96zm16-24h32v16h-32zm32-56v40h-32v-40a8.00039 8.00039 0 0 0 -8-8h-24v-32h96v32h-24a8.00039 8.00039 0 0 0 -8 8zm96 120h-64v-16h64zm16-40a8.00917 8.00917 0 0 1 -8 8h-80a8.00917 8.00917 0 0 1 -8-8v-72h96z"/></g></svg>