<?xml version="1.0" encoding="iso-8859-1"?>
<!-- Generator: Adobe Illustrator 19.0.0, SVG Export Plug-In . SVG Version: 6.00 Build 0)  -->
<svg version="1.1" id="Capa_1" xmlns="http://www.w3.org/2000/svg" xmlns:xlink="http://www.w3.org/1999/xlink" x="0px" y="0px"
	 viewBox="0 0 512.001 512.001" style="enable-background:new 0 0 512.001 512.001;" xml:space="preserve">
<path style="fill:#FFCF65;" d="M77.673,53.419l-4.534,4.559l4.534,4.559c2.828,2.844,2.828,7.453,0,10.297
	c-1.414,1.421-3.267,2.132-5.12,2.132c-1.853,0-3.706-0.711-5.12-2.132l-4.535-4.559l-4.535,4.559
	c-1.414,1.421-3.267,2.132-5.12,2.132s-3.706-0.711-5.12-2.132c-2.828-2.844-2.828-7.453,0-10.297l4.534-4.559l-4.534-4.559
	c-2.828-2.844-2.828-7.453,0-10.297c2.828-2.842,7.413-2.842,10.241,0l4.535,4.559l4.535-4.559c2.828-2.842,7.413-2.842,10.241,0
	C80.501,45.966,80.501,50.575,77.673,53.419z M459.346,57.978l4.534-4.559c2.828-2.844,2.828-7.453,0-10.297
	c-2.828-2.842-7.413-2.842-10.241,0l-4.535,4.559l-4.535-4.559c-2.828-2.842-7.413-2.842-10.241,0
	c-2.828,2.844-2.828,7.453,0,10.297l4.534,4.559l-4.534,4.559c-2.828,2.844-2.828,7.453,0,10.297
	c1.414,1.421,3.267,2.132,5.12,2.132s3.706-0.711,5.12-2.132l4.535-4.559l4.535,4.559c1.414,1.421,3.267,2.132,5.12,2.132
	s3.706-0.711,5.12-2.132c2.828-2.844,2.828-7.453,0-10.297L459.346,57.978z"/>
<path style="fill:#FFB450;" d="M287.852,48.566c-0.26,0.891-0.26,1.838,0,2.728l10.15,34.841c1.073,3.682-2.328,7.1-5.99,6.022
	l-34.654-10.205c-0.886-0.261-1.828-0.261-2.714,0L219.99,92.157c-3.662,1.078-7.063-2.34-5.99-6.022l10.15-34.841
	c0.26-0.891,0.26-1.838,0-2.728L214,13.725c-1.073-3.682,2.328-7.1,5.99-6.022l34.654,10.205c0.886,0.261,1.828,0.261,2.714,0
	l34.654-10.205c3.662-1.078,7.063,2.34,5.99,6.022L287.852,48.566z M166.997,67.154c0.91-3.124-1.975-6.024-5.082-5.109
	l-20.624,6.073c-0.752,0.222-1.551,0.222-2.303,0l-20.624-6.073c-3.107-0.915-5.992,1.985-5.082,5.109l6.041,20.735
	c0.22,0.756,0.22,1.559,0,2.315l-6.041,20.735c-0.91,3.124,1.975,6.024,5.082,5.109l20.624-6.073c0.752-0.221,1.551-0.221,2.303,0
	l20.624,6.073c3.107,0.915,5.992-1.985,5.082-5.109l-6.041-20.735c-0.22-0.756-0.22-1.559,0-2.315L166.997,67.154z M392.68,90.204
	c-0.22-0.756-0.22-1.559,0-2.315l6.041-20.735c0.91-3.124-1.975-6.024-5.082-5.109l-20.624,6.073c-0.752,0.222-1.551,0.222-2.303,0
	l-20.624-6.073c-3.107-0.915-5.992,1.985-5.082,5.109l6.041,20.735c0.22,0.756,0.22,1.559,0,2.315l-6.041,20.735
	c-0.91,3.124,1.975,6.024,5.082,5.109l20.624-6.073c0.752-0.221,1.551-0.221,2.303,0l20.624,6.073
	c3.107,0.915,5.992-1.985,5.082-5.109L392.68,90.204z"/>
<path style="fill:#C83741;" d="M263.242,57.978v159.195c0,4.021-3.242,7.28-7.241,7.28s-7.241-3.259-7.241-7.28V57.978
	c0-4.021,3.242-7.28,7.241-7.28S263.242,53.956,263.242,57.978z"/>
<path style="fill:#963737;" d="M275.311,250.177h-38.62c-2.666,0-4.828-2.173-4.828,0v-96.1c0-7.534,2.161-9.707,4.828-9.707h38.621
	c2.666,0,4.828,2.173,4.828,9.707v96.1C280.139,248.004,277.978,250.177,275.311,250.177z"/>
<path style="fill:#D24A4A;" d="M347.725,198.345v286.156c0,11.046-8.954,20-20,20H184.277c-11.046,0-20-8.954-20-20V198.345
	c0-11.046,8.954-20,20-20h143.448C338.771,178.345,347.725,187.299,347.725,198.345z"/>
<path style="fill:#FF4B4B;" d="M308.139,504.501H183.587c-10.665,0-19.31-8.692-19.31-19.414V197.759
	c0-10.722,8.646-19.414,19.31-19.414h124.552c10.665,0,19.31,8.692,19.31,19.414v287.328
	C327.449,495.809,318.804,504.501,308.139,504.501z"/>
<path style="fill:#D24A4A;" d="M249.174,388.918l-52.001-52.28c-3.771-3.791-3.771-9.937,0-13.728l52.001-52.28
	c3.771-3.791,9.884-3.791,13.654,0l52.001,52.28c3.771,3.791,3.771,9.937,0,13.728l-52.001,52.28
	C259.058,392.709,252.944,392.709,249.174,388.918z"/>
<path style="fill:#FFCF65;" d="M310.145,340.262l-43.714,43.948c-2.875,2.891-6.654,4.337-10.431,4.337
	c-3.778,0-7.555-1.446-10.431-4.337l-43.714-43.948c-5.752-5.783-5.752-15.192,0-20.975l43.714-43.948
	c5.752-5.782,15.111-5.781,20.862,0l43.714,43.948C315.897,325.07,315.897,334.479,310.145,340.262z"/>
<path d="M163.183,123.711c3.02,0,5.97-1.184,8.173-3.38c3.012-3.001,4.145-7.404,2.956-11.492l-5.76-19.797l5.761-19.798
	c1.189-4.087,0.056-8.491-2.957-11.492c-3-2.989-7.384-4.105-11.441-2.905l-19.627,5.786l-19.627-5.786
	c-4.059-1.199-8.442-0.083-11.443,2.906c-3.012,3.001-4.145,7.405-2.955,11.492l5.76,19.797l-5.76,19.797
	c-1.189,4.087-0.057,8.49,2.954,11.492c3,2.988,7.384,4.106,11.444,2.907l19.627-5.786l19.629,5.787
	C160.993,123.556,162.092,123.711,163.183,123.711z M153.876,92.295l4.304,14.793l-14.62-4.311c-2.143-0.633-4.407-0.633-6.544,0
	l-14.623,4.311l4.305-14.795c0.619-2.127,0.619-4.376,0-6.505l-4.304-14.793l14.623,4.311c2.141,0.633,4.403,0.633,6.542,0
	l14.623-4.311l-4.305,14.795C153.257,87.917,153.257,90.166,153.876,92.295z M402.785,57.752c-3-2.991-7.385-4.106-11.443-2.906
	l-19.627,5.786l-19.626-5.786c-4.059-1.199-8.442-0.083-11.443,2.906c-3.012,3.001-4.145,7.405-2.955,11.491l5.76,19.798
	l-5.76,19.797c-1.189,4.087-0.057,8.49,2.954,11.492c3,2.988,7.384,4.106,11.444,2.907l19.627-5.786l19.628,5.787
	c1.077,0.317,2.177,0.472,3.268,0.472c3.02,0,5.971-1.185,8.174-3.38c3.011-3.002,4.144-7.405,2.954-11.492l-5.76-19.797
	l5.76-19.797C406.929,65.157,405.797,60.753,402.785,57.752z M374.989,102.779c-2.142-0.635-4.406-0.634-6.545-0.001l-14.623,4.312
	l4.304-14.792c0.621-2.13,0.621-4.381,0-6.508l-4.304-14.794l14.623,4.311c2.141,0.632,4.404,0.632,6.542,0l14.623-4.311
	l-4.303,14.791c-0.621,2.13-0.621,4.381,0,6.509l4.304,14.793L374.989,102.779z M78.107,53.552l-4.392,4.421l4.392,4.421
	c2.92,2.939,2.904,7.687-0.035,10.607c-1.463,1.453-3.375,2.179-5.286,2.179c-1.928,0-3.855-0.738-5.321-2.214l-4.322-4.351
	l-4.322,4.351c-1.466,1.476-3.394,2.214-5.321,2.214c-1.912,0-3.823-0.726-5.286-2.179c-2.938-2.92-2.955-7.668-0.035-10.608
	l4.392-4.421l-4.392-4.421c-2.919-2.939-2.903-7.688,0.035-10.608c2.939-2.919,7.688-2.903,10.606,0.035l4.322,4.351l4.322-4.351
	c2.919-2.939,7.668-2.954,10.606-0.035C81.011,45.864,81.027,50.612,78.107,53.552z M463.822,62.394
	c2.919,2.939,2.903,7.688-0.035,10.608c-1.463,1.453-3.375,2.179-5.286,2.179c-1.928,0-3.855-0.738-5.321-2.214l-4.322-4.351
	l-4.322,4.351c-1.466,1.476-3.394,2.214-5.321,2.214c-1.912,0-3.823-0.726-5.286-2.179c-2.938-2.92-2.955-7.668-0.035-10.608
	l4.392-4.421l-4.392-4.421c-2.919-2.939-2.903-7.688,0.035-10.608c2.939-2.919,7.688-2.903,10.606,0.035l4.322,4.351l4.322-4.351
	c2.919-2.939,7.668-2.954,10.606-0.035c2.938,2.92,2.955,7.668,0.035,10.608l-4.392,4.421L463.822,62.394z M328.322,170.841h-40.714
	v-16.768c0-15.53-8.617-17.207-12.321-17.207h-11.786V91.579l26.345,7.768c1.146,0.337,2.315,0.502,3.475,0.502
	c3.209,0,6.345-1.259,8.687-3.593c3.203-3.191,4.408-7.875,3.143-12.222l-9.924-34.11l9.924-34.11
	c1.265-4.348,0.061-9.031-3.144-12.223c-3.189-3.177-7.85-4.36-12.161-3.089l-33.845,9.98l-33.843-9.978
	c-4.313-1.271-8.973-0.089-12.163,3.088c-3.204,3.192-4.408,7.876-3.143,12.222l9.924,34.111l-9.924,34.109
	c-1.265,4.347-0.062,9.03,3.142,12.223c3.188,3.177,7.848,4.361,12.163,3.09l26.345-7.767v45.287h-11.786
	c-3.705,0-12.321,1.677-12.321,17.207v16.768H183.68c-14.77,0-26.786,12.073-26.786,26.914v44.167c0,4.143,3.358,7.5,7.5,7.5
	s7.5-3.357,7.5-7.5V224.67h168.214v233.503H171.894V272.986c0-4.143-3.358-7.5-7.5-7.5s-7.5,3.357-7.5,7.5v212.101
	c0,14.841,12.016,26.914,26.786,26.914h144.643c14.77,0,26.786-12.073,26.786-26.914V197.755
	C355.108,182.914,343.092,170.841,328.322,170.841z M222.607,83.574l8.784-30.189c0.659-2.265,0.659-4.657,0-6.92l-8.783-30.19
	l29.917,8.82c2.274,0.671,4.678,0.669,6.951,0c0,0,0,0,0.001-0.001l29.917-8.82l-8.784,30.189c-0.659,2.265-0.659,4.657,0,6.921
	l8.784,30.191l-25.893-7.635V57.973c0-4.143-3.358-7.5-7.5-7.5s-7.5,3.357-7.5,7.5v17.968L222.607,83.574z M239.394,154.073
	c0-0.913,0.04-1.64,0.095-2.207h33.023c0.055,0.567,0.095,1.294,0.095,2.207v16.768h-33.214L239.394,154.073L239.394,154.073z
	 M171.894,209.67v-11.914c0-6.569,5.287-11.914,11.786-11.914h144.643c6.499,0,11.786,5.345,11.786,11.914v11.914H171.894z
	 M328.322,497.001H183.679c-6.499,0-11.786-5.345-11.786-11.914v-11.914h168.214v11.914
	C340.108,491.656,334.821,497.001,328.322,497.001z M256.002,397.318c4.588,0,8.899-1.796,12.139-5.057l50.006-50.339
	c6.654-6.699,6.654-17.6,0-24.299c0,0,0,0,0-0.001l-50.005-50.337c-3.24-3.262-7.551-5.058-12.139-5.058l0,0
	c-4.588,0-8.9,1.796-12.14,5.057l-50.006,50.339c-6.654,6.699-6.654,17.6,0,24.3l50.006,50.338
	C247.102,395.522,251.413,397.319,256.002,397.318z M204.497,328.194l50.006-50.338c0.517-0.521,1.1-0.629,1.498-0.629
	c0.398,0,0.981,0.108,1.498,0.629l50.005,50.337c0.865,0.871,0.865,2.287,0,3.157l-50.006,50.339
	c-0.516,0.52-1.099,0.628-1.497,0.628c-0.398,0.001-0.981-0.108-1.498-0.629l-50.005-50.337
	C203.633,330.48,203.633,329.064,204.497,328.194z M282.787,329.772c0-14.841-12.016-26.914-26.786-26.914
	c-14.77,0-26.786,12.073-26.786,26.914s12.016,26.914,26.786,26.914C270.771,356.687,282.787,344.613,282.787,329.772z
	 M244.215,329.772c0-6.569,5.287-11.914,11.786-11.914s11.786,5.345,11.786,11.914s-5.287,11.914-11.786,11.914
	C249.502,341.687,244.215,336.342,244.215,329.772z"/>
<g>
</g>
<g>
</g>
<g>
</g>
<g>
</g>
<g>
</g>
<g>
</g>
<g>
</g>
<g>
</g>
<g>
</g>
<g>
</g>
<g>
</g>
<g>
</g>
<g>
</g>
<g>
</g>
<g>
</g>
</svg>
