<?xml version="1.0" encoding="iso-8859-1"?>
<!-- Generator: Adobe Illustrator 19.0.0, SVG Export Plug-In . SVG Version: 6.00 Build 0)  -->
<svg version="1.1" id="Capa_1" xmlns="http://www.w3.org/2000/svg" xmlns:xlink="http://www.w3.org/1999/xlink" x="0px" y="0px"
	 viewBox="0 0 512 512" style="enable-background:new 0 0 512 512;" xml:space="preserve">
<path style="fill:#FF4B4B;" d="M255.999,279.297L255.999,279.297c8.692,0,15.959,7.02,16.785,16.213l17.478,194.601
	c0.237,2.634-1.026,5.193-3.24,6.406c-9.296,5.097-19.841,7.983-31.023,7.983s-21.727-2.885-31.023-7.983
	c-2.213-1.214-3.476-3.772-3.24-6.406l17.477-194.601C240.04,286.317,247.309,279.297,255.999,279.297z"/>
<path style="fill:#FFCF65;" d="M255.999,298.711c-20.183,0-36.544-17.384-36.544-38.828s16.361-38.828,36.544-38.828
	s36.544,17.384,36.544,38.828S276.182,298.711,255.999,298.711z"/>
<path style="fill:#FFB450;" d="M292.543,259.883c0,21.444-16.361,38.828-36.544,38.828c-5.675,0-11.047-1.374-15.839-3.827
	c12.251-6.27,20.705-19.587,20.705-35.001s-8.454-28.732-20.705-35.001c4.792-2.452,10.164-3.827,15.839-3.827
	C276.182,221.055,292.543,238.439,292.543,259.883z"/>
<path style="fill:#C83741;" d="M255.999,241.193c-10.28,0-18.613-8.854-18.613-19.776s8.333-19.776,18.613-19.776
	s18.613,8.854,18.613,19.776C274.612,232.339,266.279,241.193,255.999,241.193z"/>
<path d="M276.436,182.844c6.931,0,13.86-2.613,19.136-7.84l22.467-22.257c5.134-5.086,7.961-11.854,7.961-19.056
	s-2.827-13.97-7.961-19.056l-22.467-22.257c-5.786-5.732-13.561-8.313-21.144-7.759l9.793-18.333
	c8.772-16.422,7.289-38.732-3.525-53.048C274.246,4.702,265.476,0,255.999,0s-18.247,4.702-24.696,13.239
	c-10.814,14.316-12.298,36.625-3.525,53.048l9.793,18.333c-7.583-0.554-15.357,2.027-21.144,7.759l-22.467,22.257
	c-5.134,5.086-7.961,11.854-7.961,19.056s2.827,13.97,7.961,19.056l22.467,22.257c5.275,5.227,12.205,7.84,19.136,7.84
	c4.46,0,8.917-1.089,12.937-3.254v15.593c-11.507,3.25-19.962,13.777-19.962,26.234c0,0.336,0.013,0.669,0.026,1.002
	c-12.08,8.717-19.257,22.59-19.257,37.464c0,16.079,8.302,30.265,20.872,38.576l-18.391,190.933
	c-0.555,5.764,2.398,11.183,7.526,13.804c11.265,5.759,23.952,8.803,36.685,8.803s25.42-3.044,36.686-8.805
	c5.128-2.622,8.081-8.04,7.526-13.804l-18.392-190.932c12.571-8.31,20.873-22.497,20.873-38.576
	c0-14.932-7.159-28.758-19.257-37.476c0.012-0.329,0.025-0.658,0.025-0.99c0-12.457-8.455-22.983-19.962-26.234V179.59
	C267.518,181.755,271.975,182.844,276.436,182.844z M255.999,114.783l10.607,10.509c2.269,2.248,3.519,5.231,3.519,8.4
	s-1.25,6.152-3.519,8.4L255.999,152.6l-10.607-10.509c-2.269-2.248-3.519-5.231-3.519-8.4s1.25-6.152,3.519-8.4L255.999,114.783z
	 M276.436,99.52c3.107,0,6.214,1.171,8.579,3.515l22.467,22.256c2.269,2.248,3.518,5.231,3.518,8.4s-1.249,6.152-3.518,8.4
	l-22.467,22.257c-4.729,4.685-12.425,4.687-17.157,0l-1.202-1.191l10.508-10.41c5.134-5.086,7.962-11.854,7.962-19.056
	s-2.828-13.97-7.962-19.056l-10.508-10.41l1.202-1.191C270.223,100.691,273.329,99.52,276.436,99.52z M243.271,22.281
	c3.547-4.696,8.067-7.281,12.728-7.281c4.661,0,9.181,2.585,12.728,7.281c7.345,9.723,8.318,25.603,2.264,36.938l-14.992,28.064
	L241.008,59.22C234.953,47.884,235.927,32.003,243.271,22.281z M226.983,164.348l-22.467-22.256c-2.269-2.248-3.518-5.231-3.518-8.4
	s1.249-6.152,3.518-8.4l22.467-22.257c2.365-2.343,5.472-3.515,8.579-3.515c3.105,0,6.213,1.172,8.578,3.515l1.202,1.191
	l-10.508,10.41c-5.134,5.086-7.962,11.854-7.962,19.056s2.828,13.97,7.962,19.056l10.508,10.41l-1.202,1.191
	C239.41,169.036,231.714,169.034,226.983,164.348z M285.216,490.163c-6.871,3.421-14.148,5.566-21.717,6.417V366.66
	c0-4.142-3.357-7.5-7.5-7.5s-7.5,3.358-7.5,7.5v129.92c-7.569-0.851-14.846-2.996-21.717-6.417l17.854-185.346
	c3.639,0.906,7.445,1.394,11.363,1.394c3.918,0,7.723-0.488,11.362-1.394L285.216,490.163z M287.692,259.883
	c0,17.274-14.218,31.328-31.693,31.328s-31.693-14.054-31.693-31.328c0-8.508,3.487-16.543,9.528-22.388
	c5.001,6.783,13.072,11.198,22.165,11.198c9.094,0,17.165-4.416,22.166-11.199C284.21,243.332,287.692,251.343,287.692,259.883z
	 M268.461,221.417c0,6.769-5.591,12.276-12.462,12.276s-12.462-5.507-12.462-12.276s5.591-12.276,12.462-12.276
	S268.461,214.648,268.461,221.417z"/>
<g>
</g>
<g>
</g>
<g>
</g>
<g>
</g>
<g>
</g>
<g>
</g>
<g>
</g>
<g>
</g>
<g>
</g>
<g>
</g>
<g>
</g>
<g>
</g>
<g>
</g>
<g>
</g>
<g>
</g>
</svg>
