<?xml version="1.0" encoding="iso-8859-1"?>
<!-- Generator: Adobe Illustrator 19.0.0, SVG Export Plug-In . SVG Version: 6.00 Build 0)  -->
<svg version="1.1" id="Capa_1" xmlns="http://www.w3.org/2000/svg" xmlns:xlink="http://www.w3.org/1999/xlink" x="0px" y="0px"
	 viewBox="0 0 512 512" style="enable-background:new 0 0 512 512;" xml:space="preserve">
<path style="fill:#B86342;" d="M207.158,17.5v455.645c0,5.523-4.477,10-10,10h-9.1c-5.523,0-10-4.477-10-10V17.5
	c0-5.523,4.477-10,10-10h9.1C202.68,7.5,207.158,11.977,207.158,17.5z"/>
<path style="fill:#8C4032;" d="M266.328,449.17v19.414c0,2.681-2.171,4.854-4.85,4.854H80.43c-2.679,0-4.85-2.173-4.85-4.854V449.17
	c0-2.681,2.171-4.854,4.85-4.854h181.048C264.156,444.316,266.328,446.489,266.328,449.17z"/>
<path style="fill:#7DC86E;" d="M478.5,172.52h-445c-11.046,0-20-8.954-20-20V56.621c0-11.046,8.954-20,20-20h445
	c11.046,0,20,8.954,20,20v95.898C498.5,163.565,489.546,172.52,478.5,172.52z"/>
<path style="fill:#7DB764;" d="M498.5,56.035v97.07c0,10.722-8.686,19.414-19.4,19.414h-23.603c10.714,0,19.4-8.692,19.4-19.414
	v-97.07c0-10.722-8.686-19.414-19.4-19.414H479.1C489.814,36.621,498.5,45.313,498.5,56.035z"/>
<path style="fill:#FF4B4B;" d="M483.95,329.004V464.5c0,22.091-17.909,40-40,40H204.82c-22.091,0-40-17.909-40-40V329.004
	c0-22.091,17.909-40,40-40h239.13C466.041,289.004,483.95,306.913,483.95,329.004z"/>
<path style="fill:#D24A4A;" d="M483.95,327.832v137.84c0,21.444-17.371,38.828-38.8,38.828h-26.513
	c21.429,0,38.8-17.384,38.8-38.828v-137.84c0-21.444-17.371-38.828-38.8-38.828h26.513
	C466.579,289.004,483.95,306.388,483.95,327.832z"/>
<path style="fill:#AA4141;" d="M416.353,289.004V504.5H370.44V289.004H416.353z M232.416,504.5h45.913V289.004h-45.913
	L232.416,504.5L232.416,504.5z"/>
<path d="M479.1,29.121h-46.236c-4.143,0-7.5,3.358-7.5,7.5s3.357,7.5,7.5,7.5H479.1c6.562,0,11.9,5.345,11.9,11.914v97.07
	c0,6.569-5.339,11.914-11.9,11.914H32.9c-6.562,0-11.9-5.345-11.9-11.914v-97.07c0-6.569,5.339-11.914,11.9-11.914h371.187
	c4.143,0,7.5-3.358,7.5-7.5s-3.357-7.5-7.5-7.5h-189.43V17.207C214.657,7.719,206.941,0,197.458,0h-9.7
	c-9.484,0-17.2,7.719-17.2,17.207v11.914H32.9C18.067,29.121,6,41.195,6,56.035v97.07c0,14.84,12.067,26.914,26.9,26.914h137.657
	v115.778c0,0.115,0.012,0.227,0.017,0.341c-8.199,8.54-13.255,20.12-13.255,32.865v107.813H80.43c-6.81,0-12.35,5.542-12.35,12.354
	v19.414c0,6.812,5.54,12.354,12.35,12.354h79.826C166.958,499.052,184.405,512,204.82,512h239.13c26.191,0,47.5-21.309,47.5-47.5
	V329.004c0-26.191-21.309-47.5-47.5-47.5h-60.237c-1.391-32.35-28.118-58.242-60.783-58.242s-59.392,25.892-60.782,58.242h-47.49
	V180.02H479.1c14.833,0,26.9-12.074,26.9-26.914v-97.07C506,41.195,493.933,29.121,479.1,29.121z M185.558,17.207
	c0-1.217,0.987-2.207,2.2-2.207h9.7c1.213,0,2.199,0.99,2.199,2.207v11.914h-14.1V17.207H185.558z M83.08,465.938v-14.121h74.24
	V464.5c0,0.482,0.022,0.959,0.036,1.438H83.08z M172.32,464.5V329.004c0-17.92,14.579-32.5,32.5-32.5h18.46V497h-18.46
	C186.899,497,172.32,482.42,172.32,464.5z M368.78,296.504V497h-91.7V296.504H368.78z M383.78,296.504h23.8V497h-23.8V296.504z
	 M262.08,497h-23.8V296.504h23.8V497z M476.45,329.004V464.5c0,17.92-14.579,32.5-32.5,32.5h-21.37V296.504h21.37
	C461.871,296.504,476.45,311.083,476.45,329.004z M322.93,238.262c24.394,0,44.394,19.166,45.769,43.242h-91.537
	C278.537,257.428,298.536,238.262,322.93,238.262z M199.657,281.79c-4.97,0.54-9.707,1.854-14.1,3.811V180.02h14.1V281.79z
	 M64.65,90.265v28.61c0,3.752,3.048,6.805,6.794,6.805h21.098c0.182-3.981,3.467-7.153,7.492-7.153c4.143,0,7.5,3.358,7.5,7.5
	c0,8.08-6.571,14.653-14.647,14.653H71.444c-12.018,0-21.794-9.782-21.794-21.805v-28.61c0-12.023,9.776-21.805,21.794-21.805
	h21.442c8.076,0,14.647,6.573,14.647,14.653c0,4.142-3.357,7.5-7.5,7.5c-4.025,0-7.311-3.172-7.492-7.153H71.444
	C67.698,83.46,64.65,86.513,64.65,90.265z M164.519,133.181v-21.11h-27.885v21.11c0,4.142-3.357,7.5-7.5,7.5s-7.5-3.358-7.5-7.5
	V75.96c0-4.142,3.357-7.5,7.5-7.5c4.143,0,7.5,3.358,7.5,7.5v21.11h27.885V75.96c0-4.142,3.357-7.5,7.5-7.5s7.5,3.358,7.5,7.5
	v57.221c0,4.142-3.357,7.5-7.5,7.5S164.519,137.323,164.519,133.181z M361.935,140.681c4.143,0,7.5-3.358,7.5-7.5V97.418
	c0-15.967-12.983-28.958-28.942-28.958S311.55,81.451,311.55,97.418v35.763c0,4.142,3.357,7.5,7.5,7.5s7.5-3.358,7.5-7.5v-21.11
	h27.885v21.11C354.435,137.323,357.792,140.681,361.935,140.681z M340.492,83.46c7.57,0,13.738,6.076,13.925,13.61h-27.85
	C326.754,89.536,332.922,83.46,340.492,83.46z M216.787,83.442v42.256c3.978,0.185,7.147,3.459,7.147,7.482
	c0,4.142-3.357,7.5-7.5,7.5H202.14c-4.143,0-7.5-3.358-7.5-7.5c0-4.023,3.17-7.297,7.147-7.482V83.442
	c-3.978-0.185-7.147-3.459-7.147-7.482c0-4.142,3.357-7.5,7.5-7.5h14.295c4.143,0,7.5,3.358,7.5,7.5
	C223.935,79.983,220.765,83.257,216.787,83.442z M288.418,68.46c4.143,0,7.5,3.358,7.5,7.5v57.221c0,3.229-2.066,6.095-5.13,7.116
	c-0.779,0.259-1.578,0.385-2.369,0.385c-2.316,0-4.559-1.076-6.003-3.002l-29.382-39.206v34.708c0,4.142-3.357,7.5-7.5,7.5
	s-7.5-3.358-7.5-7.5V75.96c0-3.229,2.066-6.095,5.13-7.116c3.063-1.018,6.435,0.034,8.372,2.618l29.382,39.206V75.96
	C280.918,71.818,284.275,68.46,288.418,68.46z M425.688,128.59l13.412-16.52h-46.491c-4.143,0-7.5-3.358-7.5-7.5s3.357-7.5,7.5-7.5
	H439.1l-13.412-16.52c-2.611-3.216-2.121-7.939,1.095-10.55c3.217-2.61,7.939-2.121,10.55,1.095l23.302,28.701
	c0.002,0.003,0.004,0.005,0.006,0.008l0.031,0.038c0.009,0.011,0.015,0.024,0.024,0.035c0.253,0.315,0.481,0.652,0.681,1.006
	c0.012,0.021,0.026,0.041,0.038,0.062c0.186,0.337,0.341,0.691,0.475,1.057c0.02,0.054,0.041,0.107,0.059,0.162
	c0.118,0.348,0.211,0.707,0.277,1.076c0.012,0.065,0.02,0.129,0.03,0.195c0.056,0.369,0.094,0.743,0.094,1.127
	c0,0.005,0,0.01,0,0.015c0,0.384-0.038,0.759-0.094,1.127c-0.01,0.065-0.018,0.13-0.03,0.195c-0.066,0.369-0.159,0.728-0.277,1.077
	c-0.018,0.054-0.039,0.107-0.059,0.161c-0.133,0.366-0.288,0.721-0.475,1.057c-0.012,0.021-0.026,0.041-0.038,0.062
	c-0.2,0.354-0.428,0.691-0.681,1.006c-0.009,0.011-0.015,0.024-0.024,0.035l-0.031,0.038c-0.002,0.003-0.004,0.005-0.006,0.008
	l-23.302,28.701c-1.481,1.825-3.646,2.772-5.827,2.772c-1.661,0-3.332-0.549-4.723-1.677
	C423.566,136.53,423.076,131.806,425.688,128.59z"/>
<g>
</g>
<g>
</g>
<g>
</g>
<g>
</g>
<g>
</g>
<g>
</g>
<g>
</g>
<g>
</g>
<g>
</g>
<g>
</g>
<g>
</g>
<g>
</g>
<g>
</g>
<g>
</g>
<g>
</g>
</svg>
