<?xml version="1.0" encoding="iso-8859-1"?>
<!-- Generator: Adobe Illustrator 19.0.0, SVG Export Plug-In . SVG Version: 6.00 Build 0)  -->
<svg version="1.1" id="Capa_1" xmlns="http://www.w3.org/2000/svg" xmlns:xlink="http://www.w3.org/1999/xlink" x="0px" y="0px"
	 viewBox="0 0 512.002 512.002" style="enable-background:new 0 0 512.002 512.002;" xml:space="preserve">
<path style="fill:#A1D7FC;" d="M446.918,479.262c0,13.939-57.439,25.238-128.295,25.238s-128.295-11.3-128.295-25.238
	s57.439-25.238,128.295-25.238S446.918,465.323,446.918,479.262z"/>
<path style="fill:#DCDBDE;" d="M453.501,219.762v165.075c0,6.892-7.623,11.002-13.314,7.179l-76.704-51.523
	c-40.064-26.911-64.129-72.217-64.129-120.732l0,0c0-1.633,0.067-3.249,0.165-4.857l-0.165-66.5
	c0-22.319,6.112-44.205,17.663-63.249V46.328h48.171v38.828c-11.441,18.863-17.536,40.514-17.652,62.612
	c8.925-3.64,18.671-5.662,28.891-5.662l0,0C418.994,142.106,453.501,176.873,453.501,219.762z"/>
<path style="fill:#EDEDEE;" d="M453.501,219.762v139.204l-64.326-43.208c-40.064-26.911-64.129-72.217-64.129-120.732l0,0
	c0-13.448,3.395-26.096,9.366-37.125c1.876-3.466,4.792-6.262,8.314-7.991c10.181-4.997,21.615-7.803,33.702-7.803l0,0
	C418.994,142.106,453.501,176.874,453.501,219.762z M386.062,50.935L386.062,50.935c0-23.988-19.3-43.435-43.109-43.435h-19.758
	c-23.808,0-43.109,19.446-43.109,43.435V94.37h62.867C366.762,94.37,386.062,74.923,386.062,50.935z"/>
<path style="fill:#FF4B4B;" d="M76.217,69.674l197.921-21.145c13.475-1.44,25.217,9.203,25.217,22.856v13.278
	c0,5.361-4.313,9.707-9.634,9.707H63.318c-2.66,0-4.817-2.173-4.817-4.854l0,0C58.501,79.311,66.144,70.75,76.217,69.674z"/>
<path style="fill:#D24A4A;" d="M299.017,67.439c0.219,1.281,0.338,2.598,0.338,3.946v13.277c0,5.361-4.313,9.707-9.634,9.707H63.318
	c-2.66,0-4.817-2.173-4.817-4.854c0-5.885,2.551-11.213,6.634-14.884h224.586C294.177,74.632,297.916,71.579,299.017,67.439z"/>
<path d="M453.501,241.947c-4.142,0-7.5,3.357-7.5,7.5v95.447l-52.645-35.362c-35.719-23.993-58.382-64.105-60.624-107.302
	c-0.214-4.136-3.732-7.313-7.878-7.102c-4.137,0.215-7.316,3.742-7.101,7.879c2.485,47.887,27.621,92.364,67.239,118.976
	l61.009,40.981v21.874c0,0.172,0,0.695-0.588,1.009c-0.534,0.286-0.905,0.038-1.044-0.056l-76.704-51.522
	c-38.078-25.577-60.811-68.384-60.811-114.507c0-38.685,31.21-70.156,69.573-70.156s69.574,31.471,69.574,70.156
	c0,4.143,3.358,7.5,7.5,7.5s7.5-3.357,7.5-7.5c0-46.955-37.939-85.156-84.573-85.156c-7.192,0-14.175,0.915-20.846,2.624
	c1.451-14.678,5.751-29.117,12.597-42.134c0.008-0.015,0.013-0.03,0.021-0.044c15.144-8.813,25.363-25.281,25.363-44.117
	C393.562,22.85,370.859,0,342.953,0h-19.758c-24.121,0-45.028,17.478-49.65,41.054c-0.068,0.006-0.136,0.009-0.204,0.016
	L75.42,62.216C61.499,63.703,51.001,75.44,51.001,89.517c0,6.812,5.525,12.354,12.317,12.354h216.769h9.634h10.792
	c-5.674,14.791-8.658,30.709-8.658,46.535v68.767c0,0.273,0.016,0.542,0.045,0.808c-0.012,0.595-0.045,1.185-0.045,1.782
	c0,26.556,6.816,52.113,19.271,74.529c0,0.018-0.003,0.035-0.003,0.052V397.99h-79.208c-2.761,0-5.299,1.518-6.606,3.949
	c-1.307,2.433-1.172,5.387,0.352,7.689l19.269,29.121c1.443,2.181,3.829,3.362,6.262,3.362c1.421,0,2.858-0.403,4.132-1.246
	c3.454-2.286,4.402-6.939,2.116-10.394l-11.568-17.482h65.252v59.678h-26.22c-4.142,0-7.5,3.357-7.5,7.5s3.358,7.5,7.5,7.5h67.439
	c4.142,0,7.5-3.357,7.5-7.5s-3.358-7.5-7.5-7.5h-26.219v-11.094c28.559,0.33,55.639,2.535,76.933,6.3
	c23.483,4.153,33.012,9.021,35.751,11.39c-2.739,2.368-12.268,7.236-35.751,11.39c-23.151,4.094-53.136,6.349-84.433,6.349
	s-61.282-2.255-84.433-6.349c-23.57-4.168-33.083-9.058-35.781-11.416c5.297-4.877,32.829-14.506,92.588-17.118
	c4.138-0.182,7.346-3.683,7.165-7.82c-0.181-4.139-3.701-7.354-7.82-7.166c-28.5,1.246-54.475,4.423-73.139,8.945
	c-23.452,5.683-34.375,13.05-34.375,23.186c0,11.341,13.863,19.35,43.629,25.205c24.694,4.857,57.426,7.533,92.166,7.533
	s67.471-2.676,92.166-7.533c29.766-5.855,43.629-13.864,43.629-25.205s-13.863-19.35-43.629-25.205
	c-22.908-4.506-52.737-7.131-84.666-7.487v-33.581h59.939c2.56,0,4.942-1.306,6.32-3.462c1.378-2.157,1.561-4.868,0.485-7.19
	l-22.234-48.004l65.371,43.91c2.697,1.812,5.809,2.728,8.932,2.728c2.578,0,5.165-0.625,7.531-1.886
	c5.263-2.805,8.533-8.264,8.533-14.246V249.447C461.001,245.305,457.643,241.947,453.501,241.947z M323.195,15h19.758
	c19.635,0,35.609,16.12,35.609,35.935S362.588,86.87,342.953,86.87h-36.256c0.093-0.725,0.157-1.458,0.157-2.207V71.385
	c0-8.668-3.686-16.953-10.113-22.729c-2.495-2.243-5.324-4.024-8.349-5.316C291.881,27.026,306.433,15,323.195,15z M280.086,86.87
	H66.278c1.099-5.161,5.349-9.163,10.736-9.738l197.92-21.146c4.341-0.46,8.521,0.895,11.781,3.824
	c3.314,2.979,5.14,7.09,5.14,11.574v13.278c0,1.217-0.957,2.207-2.134,2.207L280.086,86.87L280.086,86.87z M306.855,148.405
	c0-15.938,3.419-31.981,9.883-46.535h26.216c1.984,0,3.938-0.128,5.863-0.353c-5.1,13.179-8.057,27.228-8.663,41.334
	c-13.426,6.446-24.902,16.356-33.299,28.572V148.405z M326.123,397.988v-81.547c5.98,7.347,12.671,14.163,20.017,20.345
	c0.114,0.479,0.277,0.954,0.492,1.418l27.69,59.784H326.123z M320.757,46.328v-9.707c0-4.143,3.358-7.5,7.5-7.5s7.5,3.357,7.5,7.5
	v9.707c0,4.143-3.358,7.5-7.5,7.5S320.757,50.471,320.757,46.328z"/>
<g>
</g>
<g>
</g>
<g>
</g>
<g>
</g>
<g>
</g>
<g>
</g>
<g>
</g>
<g>
</g>
<g>
</g>
<g>
</g>
<g>
</g>
<g>
</g>
<g>
</g>
<g>
</g>
<g>
</g>
</svg>
