<svg height="512" viewBox="0 0 128 128" width="512" xmlns="http://www.w3.org/2000/svg"><g><path d="m64.307 113.365a35.454 35.454 0 1 1 -19.385-60.052l29.3 29.3a35.353 35.353 0 0 1 -9.915 30.752z" fill="#fdbd3f"/><path d="m98.933 70.06a29.077 29.077 0 0 1 -14.851 7.985 1.678 1.678 0 0 0 -.169-.188l-34.028-34.028c-.132-.131-.273-.254-.405-.367a29.32 29.32 0 0 1 38.286-21.843 10.531 10.531 0 0 0 10.941-2.384l6.857-6.857 9.593 9.594-6.857 6.857a10.533 10.533 0 0 0 -2.385 10.939 29.318 29.318 0 0 1 -6.982 30.292z" fill="#fdbd3f"/><path d="m83.808 84.976a5.11 5.11 0 0 1 -7.223 0l-34.028-34.028a5.109 5.109 0 0 1 6.819-7.59c.131.113.273.235.4.367l34.032 34.028a1.511 1.511 0 0 1 .169.188 5.1 5.1 0 0 1 -.169 7.035z" fill="#a05c4a"/><rect fill="#a05c4a" height="7.661" rx="2" transform="matrix(.707 .707 -.707 .707 42.876 -75.52)" width="22.984" x="101.107" y="10.165"/><path d="m71.545 118.986-2.991-2.986a4.508 4.508 0 0 1 0-6.376l5.706-5.706a4.5 4.5 0 0 1 2.771-1.3l8.706-.809-.808 8.706a4.513 4.513 0 0 1 -1.3 2.772l-5.7 5.7a4.509 4.509 0 0 1 -6.384-.001z" fill="#d3404e"/></g><path d="m12.931 114.612a1.749 1.749 0 0 0 2.474-2.474 33.688 33.688 0 0 1 28.695-57.168l31.248 31.243a6.84 6.84 0 0 0 8.3 1.073l4.129 4.129a4.162 4.162 0 0 1 0 5.878l-2.826 2.826-8.078.75a6.271 6.271 0 0 0 -3.028 1.12 37.189 37.189 0 0 0 2.212-8.35 1.75 1.75 0 1 0 -3.465-.5 33.38 33.38 0 0 1 -9.519 18.987 33.831 33.831 0 0 1 -32.707 8.695 1.75 1.75 0 0 0 -.918 3.377 37.31 37.31 0 0 0 36.1-9.6c.055-.056.107-.113.162-.169a6.2 6.2 0 0 0 1.61 2.8l2.992 2.992a1.75 1.75 0 1 0 2.474-2.475l-2.991-2.991a2.765 2.765 0 0 1 0-3.9l5.706-5.7a2.764 2.764 0 0 1 1.7-.8l6.607-.614-.613 6.607a2.768 2.768 0 0 1 -.8 1.7l-5.7 5.706a1.75 1.75 0 0 0 2.474 2.475l5.7-5.7a6.269 6.269 0 0 0 1.808-3.848l.75-8.077 2.827-2.826a7.668 7.668 0 0 0 0-10.828l-4.129-4.129a6.848 6.848 0 0 0 .58-5.6 31.058 31.058 0 0 0 20.863-40.021 8.76 8.76 0 0 1 1.968-9.132l5.621-5.619.208.208a3.757 3.757 0 0 0 5.3 0l2.589-2.59a3.754 3.754 0 0 0 0-5.3 1.75 1.75 0 0 0 -2.477 2.472.251.251 0 0 1 0 .355l-2.588 2.589a.253.253 0 0 1 -.355 0l-1.44-1.44v-.006h-.006l-9.584-9.584v-.005l-.006-.005-2.379-2.379a.253.253 0 0 1 0-.356l2.581-2.595a.25.25 0 0 1 .354 0l5.646 5.638a1.75 1.75 0 0 0 2.475-2.474l-5.638-5.639a3.838 3.838 0 0 0 -5.3 0l-2.59 2.59a3.756 3.756 0 0 0 0 5.3l1.148 1.148-5.625 5.624a8.754 8.754 0 0 1 -9.133 1.968 30.931 30.931 0 0 0 -31.695 7 1.75 1.75 0 1 0 2.429 2.519 27.451 27.451 0 0 1 28.129-6.214 12.226 12.226 0 0 0 12.748-2.8l5.619-5.619 7.119 7.119-5.62 5.62a12.228 12.228 0 0 0 -2.8 12.746 27.517 27.517 0 0 1 -19.624 35.772l-33.624-33.624c-.164-.164-.337-.316-.549-.5a6.907 6.907 0 0 0 -4.291-1.511 6.856 6.856 0 0 0 -5.719 10.654 37.2 37.2 0 0 0 -27.528 63.479zm35.3-69.927c.1.086.208.177.308.277l34.012 34a1.854 1.854 0 0 0 .126.155 3.352 3.352 0 0 1 -.11 4.623 3.44 3.44 0 0 1 -4.749 0l-31.691-31.696-.008-.008-2.325-2.325a3.35 3.35 0 0 1 -.879-3.154l23.985 23.981a1.75 1.75 0 1 0 2.474-2.475l-23.986-23.981a3.408 3.408 0 0 1 .79-.1 3.3 3.3 0 0 1 2.057.703zm-25.044 73.267a1.75 1.75 0 0 1 -.835 3.288 1.722 1.722 0 0 1 -.832-.212c-.693-.375-1.38-.776-2.044-1.193a1.75 1.75 0 1 1 1.859-2.965c.602.378 1.226.741 1.852 1.082zm32.082-86.964a1.752 1.752 0 0 1 .413 2.441q-.3.42-.58.853a1.751 1.751 0 0 1 -2.932-1.914q.32-.488.658-.967a1.748 1.748 0 0 1 2.441-.413zm63.809-18.4.574.575a1.75 1.75 0 1 1 -2.476 2.473l-.574-.575a1.75 1.75 0 1 1 2.476-2.473zm-99.42 91.03a1.75 1.75 0 0 1 -3.236 1.334c-11.745-28.493 16.342-44.052 16.627-44.212a1.75 1.75 0 0 1 1.664 3.079c-1.05.57-25.589 14.245-15.055 39.794zm69.821-42.551c8.609-8.955 5.239-20.708 5.091-21.2a1.75 1.75 0 0 1 3.351-1.009c.174.574 4.136 14.181-5.919 24.639a1.75 1.75 0 1 1 -2.523-2.426z" fill="#3a2b28"/></svg>