<?xml version="1.0" encoding="iso-8859-1"?>
<!-- Generator: Adobe Illustrator 19.0.0, SVG Export Plug-In . SVG Version: 6.00 Build 0)  -->
<svg version="1.1" id="Capa_1" xmlns="http://www.w3.org/2000/svg" xmlns:xlink="http://www.w3.org/1999/xlink" x="0px" y="0px"
	 viewBox="0 0 512 512" style="enable-background:new 0 0 512 512;" xml:space="preserve">
<path style="fill:#AA4141;" d="M504.5,256c0,137.243-111.257,248.5-248.5,248.5S7.5,393.243,7.5,256S118.757,7.5,256,7.5
	S504.5,118.757,504.5,256z"/>
<path style="fill:#963737;" d="M504.5,256c0,137.243-111.257,248.5-248.5,248.5c-5.328,0-10.611-0.188-15.855-0.518
	C369.998,495.803,472.79,387.915,472.79,256c0-131.916-102.793-239.803-232.645-247.982C245.389,7.687,250.672,7.5,256,7.5
	C393.243,7.5,504.5,118.757,504.5,256z"/>
<path style="fill:#FFEBBE;" d="M474.408,256c0,120.623-97.785,218.408-218.408,218.408S37.592,376.623,37.592,256
	S135.376,37.592,256,37.592S474.408,135.376,474.408,256z"/>
<path style="fill:#FFCF65;" d="M425.873,256c0,93.818-76.055,169.873-169.873,169.873S86.127,349.818,86.127,256
	S162.182,86.127,256,86.127S425.873,162.182,425.873,256z"/>
<path style="fill:#FFB450;" d="M425.873,256c0,93.818-76.055,169.873-169.873,169.873c-4.685,0-9.324-0.198-13.913-0.57
	c87.309-7.079,155.96-80.17,155.96-169.303s-68.65-162.224-155.96-169.303c4.589-0.372,9.228-0.57,13.913-0.57
	C349.818,86.127,425.873,162.182,425.873,256z"/>
<path style="fill:#FFEBBE;" d="M328.803,256c0,40.208-32.595,72.803-72.803,72.803S183.197,296.208,183.197,256
	s32.595-72.803,72.803-72.803S328.803,215.792,328.803,256z"/>
<path style="fill:#FF4B4B;" d="M275.061,275.061l-87.495,64.361c-4.267,3.139-10.187,2.691-13.933-1.055s-4.194-9.666-1.055-13.933
	l64.361-87.495l87.495-64.361c4.267-3.139,10.187-2.691,13.933,1.055s4.194,9.666,1.055,13.933L275.061,275.061z"/>
<path d="M437.02,74.98C388.667,26.629,324.38,0,256,0S123.333,26.629,74.98,74.98C26.629,123.332,0,187.62,0,256
	s26.629,132.668,74.98,181.02C123.333,485.371,187.62,512,256,512s132.667-26.629,181.02-74.98C485.371,388.668,512,324.38,512,256
	S485.371,123.332,437.02,74.98z M256,497C123.112,497,15,388.888,15,256S123.112,15,256,15s241,108.112,241,241S388.888,497,256,497
	z M415.741,96.259C373.073,53.591,316.342,30.092,256,30.092c-30.619,0-60.315,6.021-88.266,17.896
	c-3.813,1.62-5.59,6.023-3.97,9.836c1.62,3.812,6.024,5.589,9.835,3.971c23.798-10.111,48.961-15.659,74.901-16.557v33.56
	c-43.015,1.799-82.122,18.98-111.939,46.187l-23.76-23.76c11.08-10.295,23.336-19.468,36.636-27.271
	c3.572-2.096,4.77-6.691,2.673-10.264c-2.097-3.574-6.692-4.77-10.264-2.674c-33.395,19.592-61.385,47.609-80.944,81.023
	C40.746,176.474,30.092,215.881,30.092,256c0,60.342,23.499,117.072,66.167,159.741c42.668,42.668,99.399,66.167,159.741,66.167
	s117.073-23.499,159.741-66.167c42.668-42.669,66.167-99.399,66.167-159.741S458.41,138.928,415.741,96.259z M410.732,399.154
	l-23.715-23.715c27.411-30.042,44.644-69.512,46.224-112.91h33.557C465.188,315.169,444.196,363.011,410.732,399.154z
	 M45.203,262.529H78.76c1.579,43.397,18.812,82.868,46.223,112.91l-23.715,23.715C67.804,363.011,46.812,315.169,45.203,262.529z
	 M194.64,204.277c-10.091,11.952-16.767,26.872-18.493,43.252h-82.3c2.013-38.987,17.848-74.377,42.68-101.366L194.64,204.277z
	 M242.303,242.303l86.575-63.684c1.292-0.951,3.051-0.817,4.185,0.317s1.267,2.894,0.317,4.186l-63.684,86.575l-86.575,63.684
	c-1.292,0.949-3.052,0.816-4.185-0.317c-1.134-1.134-1.267-2.895-0.317-4.186L242.303,242.303z M321.303,256
	c0,36.008-29.295,65.303-65.303,65.303c-8.472,0-16.838-1.649-24.609-4.806l48.115-35.393c0.61-0.449,1.149-0.988,1.598-1.598
	l35.394-48.116C319.652,239.163,321.303,247.54,321.303,256z M174.074,347.562c2.268,0.974,4.689,1.479,7.124,1.479
	c3.765,0,7.553-1.179,10.812-3.576l25.672-18.884c9.516,5.172,20.017,8.356,30.817,9.367v82.247
	c-39.37-1.799-75.124-17.683-102.337-42.721L174.074,347.562z M263.5,335.94c16.761-1.56,32.036-8.291,44.223-18.581l58.114,58.113
	c-27.213,25.038-62.967,40.921-102.337,42.72L263.5,335.94L263.5,335.94z M318.244,306.667
	c10.017-12.283,16.461-27.575,17.782-44.291c0.489,0.1,0.995,0.153,1.513,0.153h80.691c-1.561,39.264-17.122,74.987-41.828,102.295
	L318.244,306.667z M337.539,247.529c-0.576,0-1.134,0.071-1.672,0.193c-1.09-10.521-4.245-20.763-9.288-30.039l18.885-25.673v-0.001
	c3.948-5.368,4.576-12.161,2.096-17.934l27.913-27.913c24.832,26.989,40.667,62.379,42.68,101.366h-80.614V247.529z
	 M375.439,124.983C345.621,97.776,306.515,80.596,263.5,78.797V45.24c52.257,1.836,99.734,22.771,135.655,56.028L375.439,124.983z
	 M364.825,135.598l-28.305,28.304c-5.448-1.821-11.594-0.997-16.531,2.634l-25.673,18.885c-0.043-0.024-0.083-0.053-0.127-0.077
	c-9.461-5.124-19.946-8.286-30.689-9.294V93.807C302.382,95.583,337.741,111.095,364.825,135.598z M256,190.697
	c8.452,0,16.836,1.654,24.608,4.808l-48.113,35.392c-0.61,0.449-1.149,0.988-1.598,1.598l-35.393,48.115
	c-3.157-7.772-4.807-16.135-4.807-24.609C190.697,219.992,219.992,190.697,256,190.697z M175.973,262.529
	c0.907,11.142,4.118,21.986,9.446,31.789l-18.884,25.672c-3.631,4.938-4.454,11.083-2.634,16.53l-28.305,28.305
	c-24.706-27.309-40.267-63.032-41.828-102.295L175.973,262.529L175.973,262.529z M135.555,386.081
	c29.942,27.745,69.441,45.303,112.945,47.123v33.557c-52.746-1.854-100.622-23.164-136.66-56.964L135.555,386.081z M263.5,433.203
	c43.503-1.819,83.002-19.378,112.945-47.123l23.715,23.715c-36.038,33.801-83.914,55.111-136.66,56.964V433.203z M433.166,247.529
	c-2.038-43.121-19.547-82.254-47.086-111.974l23.716-23.715c33.593,35.817,54.848,83.327,56.927,135.689H433.166z M248.5,93.807
	v82.253c-16.278,1.515-31.159,7.903-43.167,17.696l-58.158-58.158C174.259,111.095,209.618,95.583,248.5,93.807z M102.182,111.819
	l23.737,23.737c-27.538,29.72-45.048,68.853-47.085,111.974H45.271C47.342,196.61,67.997,148.434,102.182,111.819z M197.912,145.636
	c-2.967,0-5.776-1.772-6.957-4.692c-1.551-3.841,0.304-8.212,4.145-9.764l18-7.272c3.838-1.553,8.211,0.304,9.764,4.145
	c1.551,3.841-0.304,8.212-4.145,9.764l-18,7.272C199.799,145.46,198.848,145.636,197.912,145.636z M205.185,163.636
	c-2.967,0-5.777-1.772-6.957-4.692c-1.551-3.841,0.304-8.212,4.145-9.764l18-7.272c3.838-1.554,8.211,0.304,9.764,4.145
	c1.551,3.841-0.304,8.212-4.145,9.764l-18,7.272C207.071,163.46,206.12,163.636,205.185,163.636z M288.82,370.641
	c-2.967,0-5.777-1.772-6.957-4.692c-1.551-3.841,0.304-8.212,4.145-9.764l18-7.272c3.838-1.554,8.212,0.304,9.764,4.145
	c1.551,3.841-0.304,8.212-4.145,9.764l-18,7.272C290.707,370.465,289.755,370.641,288.82,370.641z M316.9,380.82l-18,7.272
	c-0.92,0.372-1.872,0.548-2.807,0.548c-2.967,0-5.776-1.772-6.957-4.692c-1.551-3.841,0.304-8.212,4.145-9.764l18-7.272
	c3.839-1.553,8.211,0.303,9.764,4.145C322.596,374.897,320.74,379.269,316.9,380.82z M125.485,208.517l7.896-17.736
	c1.684-3.782,6.118-5.485,9.902-3.801s5.486,6.118,3.801,9.902l-7.896,17.736c-1.243,2.792-3.984,4.451-6.856,4.451
	c-1.019,0-2.055-0.209-3.046-0.65C125.502,216.734,123.8,212.301,125.485,208.517z M143.22,216.413l7.896-17.736
	c1.685-3.783,6.117-5.486,9.902-3.801c3.784,1.685,5.486,6.118,3.801,9.902l-7.896,17.736c-1.243,2.792-3.984,4.451-6.856,4.451
	c-1.019,0-2.055-0.209-3.046-0.65C143.237,224.631,141.536,220.197,143.22,216.413z M368.78,295.587l-7.896,17.736
	c-1.243,2.792-3.984,4.451-6.856,4.451c-1.019,0-2.055-0.209-3.046-0.65c-3.784-1.685-5.486-6.118-3.801-9.902l7.896-17.736
	c1.685-3.782,6.117-5.486,9.902-3.801C368.763,287.369,370.464,291.803,368.78,295.587z M386.515,303.483l-7.896,17.736
	c-1.243,2.792-3.984,4.451-6.856,4.451c-1.019,0-2.055-0.209-3.046-0.65c-3.784-1.685-5.486-6.118-3.801-9.902l7.896-17.736
	c1.684-3.782,6.116-5.487,9.902-3.801C386.498,295.266,388.2,299.699,386.515,303.483z M130.136,314.712l-6.958-18.124
	c-1.484-3.866,0.447-8.205,4.314-9.689c3.865-1.483,8.205,0.446,9.69,4.314l6.958,18.124c1.484,3.866-0.447,8.205-4.314,9.689
	c-0.884,0.339-1.793,0.5-2.687,0.5C134.124,319.526,131.281,317.695,130.136,314.712z M141.303,289.63
	c-1.484-3.867,0.447-8.205,4.314-9.689c3.868-1.481,8.206,0.446,9.69,4.314l6.958,18.125c1.484,3.867-0.447,8.205-4.314,9.689
	c-0.884,0.339-1.793,0.5-2.687,0.5c-3.015,0-5.858-1.831-7.003-4.814L141.303,289.63z M370.697,222.37
	c1.484,3.867-0.447,8.205-4.314,9.689c-0.884,0.339-1.793,0.5-2.687,0.5c-3.015,0-5.858-1.831-7.003-4.814l-6.958-18.125
	c-1.484-3.867,0.447-8.205,4.314-9.689c3.869-1.482,8.206,0.447,9.69,4.314L370.697,222.37z M381.864,197.288l6.958,18.124
	c1.484,3.866-0.447,8.205-4.314,9.689c-0.884,0.339-1.793,0.5-2.687,0.5c-3.015,0-5.858-1.831-7.003-4.814l-6.958-18.124
	c-1.484-3.866,0.447-8.205,4.314-9.689C376.039,191.491,380.379,193.421,381.864,197.288z M188.958,369.904
	c1.619-3.813,6.022-5.588,9.834-3.974l17.871,7.585c3.813,1.619,5.592,6.021,3.974,9.835c-1.212,2.856-3.988,4.571-6.907,4.571
	c-0.978,0-1.97-0.192-2.927-0.598l-17.871-7.585C189.118,378.12,187.339,373.718,188.958,369.904z M196.543,352.033
	c1.619-3.813,6.022-5.59,9.834-3.973l17.871,7.586c3.813,1.618,5.592,6.021,3.973,9.834c-1.212,2.856-3.988,4.571-6.907,4.571
	c-0.978,0-1.971-0.192-2.927-0.599l-17.871-7.586C196.704,360.249,194.924,355.846,196.543,352.033z M283.778,146.52
	c1.619-3.813,6.023-5.592,9.834-3.973l17.871,7.586c3.813,1.618,5.592,6.021,3.973,9.834c-1.212,2.856-3.988,4.571-6.907,4.571
	c-0.978,0-1.971-0.192-2.927-0.599l-17.871-7.586C283.939,154.735,282.16,150.332,283.778,146.52z M291.364,128.649
	c1.619-3.813,6.022-5.588,9.834-3.974l17.871,7.585c3.813,1.619,5.592,6.021,3.974,9.835c-1.212,2.856-3.988,4.571-6.907,4.571
	c-0.978,0-1.97-0.192-2.927-0.598l-17.871-7.585C291.525,136.865,289.746,132.463,291.364,128.649z"/>
<g>
</g>
<g>
</g>
<g>
</g>
<g>
</g>
<g>
</g>
<g>
</g>
<g>
</g>
<g>
</g>
<g>
</g>
<g>
</g>
<g>
</g>
<g>
</g>
<g>
</g>
<g>
</g>
<g>
</g>
</svg>
