<?xml version="1.0"?>
<svg xmlns="http://www.w3.org/2000/svg" viewBox="0 0 512 512" ><g id="Fill_out_line" data-name="Fill out line"><path d="M264,344l112-16,96-136-16.60322-2.37189a149.85723,149.85723,0,0,1-70.81044-30.061l-.00007,0A149.85726,149.85726,0,0,0,292.58281,128H145.1825a97.18244,97.18244,0,0,0-47.196,12.2297l-.00007,0A97.18242,97.18242,0,0,0,48,225.18246v16.77241a97.18241,97.18241,0,0,0,66.45064,92.19534l14.58812,4.86271A97.18256,97.18256,0,0,0,159.77054,344Z" style="fill:#fc6f35"/><path d="M146.93945,288A55.86242,55.86242,0,0,1,99.2793,261.01611a55.21481,55.21481,0,0,1-6.25977-42.07617l1.27971-5.11923A7.99957,7.99957,0,0,1,103.99994,208h0a7.99957,7.99957,0,0,1,5.82082,9.70074l-1.27975,5.11958a39.318,39.318,0,0,0,4.24939,29.61052c7.22035,12.31437,25.12129,20.6702,39.3328,19.32476a54.44025,54.44025,0,0,0,46.536-37.03342l.293-.87744a24.21453,24.21453,0,0,1,7.46973-10.94385L230.252,203.043a114.6936,114.6936,0,0,0-67.10536,36.21486,8.0161,8.0161,0,0,1-10.94421.90407l-.00353-.00282a7.98041,7.98041,0,0,1-.97164-11.57714,130.6976,130.6976,0,0,1,82.80111-42.18985l21.08789-2.34326a8.00654,8.00654,0,0,1,8.6001,5.83371,8.26083,8.26083,0,0,1-2.82765,8.45717L216.665,235.19238a8.219,8.219,0,0,0-2.53516,3.71533l-.292.87647A70.42636,70.42636,0,0,1,146.93945,288Z" style="fill:#de5e1d"/><path d="M352.04821,210.47637,448,240v32l-92.83242,42.84573A55.99992,55.99992,0,0,1,331.70035,320h-3.70041A55.99994,55.99994,0,0,1,272,264.00006v-.00012A55.99994,55.99994,0,0,1,327.99994,208h7.57948A56.00016,56.00016,0,0,1,352.04821,210.47637Z" style="fill:#de5e1d"/><rect x="448" y="240" width="40" height="32" style="fill:#ba8b5d"/><path d="M152,300a20,20,0,0,1-36,12,20,20,0,0,1-32,0,19.99995,19.99995,0,1,1-.03-24.04,20,20,0,1,1,32.06006,0A20.00005,20.00005,0,0,1,152,300Z" style="fill:#7ab355"/><circle cx="132" cy="300" r="20" style="fill:#5c8f3a"/><circle cx="100" cy="300" r="20" style="fill:#699949"/><path d="M456,300a20,20,0,0,1-36,12,20,20,0,0,1-32,0,19.99995,19.99995,0,1,1-.03-24.04,20,20,0,1,1,32.06006,0A20.00005,20.00005,0,0,1,456,300Z" style="fill:#7ab355"/><circle cx="436" cy="300" r="20" style="fill:#5c8f3a"/><circle cx="404" cy="300" r="20" style="fill:#699949"/><path d="M312,300a20,20,0,0,1-36,12,20,20,0,0,1-32,0,19.99995,19.99995,0,1,1-.03-24.04,20,20,0,1,1,32.06006,0A20.00005,20.00005,0,0,1,312,300Z" style="fill:#7ab355"/><circle cx="292" cy="300" r="20" style="fill:#5c8f3a"/><circle cx="260" cy="300" r="20" style="fill:#699949"/><rect x="24" y="320" width="464" height="32" rx="15.99998" ry="15.99998" style="fill:#fdca77"/><polygon points="408 384 104 384 64 352 448 352 408 384" style="fill:#fab53f"/><path d="M472,312H461.293a27.9783,27.9783,0,0,0-29.5332-39.67236,28.00187,28.00187,0,0,0-55.51954,0A27.687,27.687,0,0,0,372,272a27.991,27.991,0,0,0-25.293,40H317.293a27.9783,27.9783,0,0,0-29.5332-39.67236,28.00187,28.00187,0,0,0-55.51954,0A27.687,27.687,0,0,0,228,272a27.991,27.991,0,0,0-25.293,40H157.293a27.9783,27.9783,0,0,0-29.5332-39.67236,28.00187,28.00187,0,0,0-55.51954,0A27.687,27.687,0,0,0,68,272a27.991,27.991,0,0,0-25.293,40H40a24,24,0,0,0,0,48H61.19409l37.80884,30.24707A7.998,7.998,0,0,0,104,392H408a7.998,7.998,0,0,0,4.99707-1.75293L450.80591,360H472a24,24,0,0,0,0-48Zm-68-48a12.01343,12.01343,0,0,1,12,12,11.89046,11.89046,0,0,1-2.377,7.17041,7.99977,7.99977,0,0,0,12.79492,9.606,11.99986,11.99986,0,1,1-.02149,14.41894,8,8,0,0,0-12.793,0,12,12,0,0,1-19.207,0l-.00708-.00842A11.88766,11.88766,0,0,1,392,300a12.029,12.029,0,0,1,9.5918-11.76025l-3.1836-15.67969a27.682,27.682,0,0,0-6.33252,2.12573A12.01448,12.01448,0,0,1,404,264Zm-44,36a11.98647,11.98647,0,0,1,18.02759-10.36633,27.716,27.716,0,0,0-.02661,20.746A11.98352,11.98352,0,0,1,360,300ZM260,264a12.01343,12.01343,0,0,1,12,12,11.89046,11.89046,0,0,1-2.377,7.17041,7.99977,7.99977,0,0,0,12.79492,9.606,11.99986,11.99986,0,1,1-.02149,14.41894,8,8,0,0,0-12.793,0,12,12,0,0,1-19.207,0l-.00708-.00842A11.88766,11.88766,0,0,1,248,300a12.029,12.029,0,0,1,9.5918-11.76025l-3.1836-15.67969a27.682,27.682,0,0,0-6.33252,2.12573A12.01448,12.01448,0,0,1,260,264Zm-44,36a11.98647,11.98647,0,0,1,18.02759-10.36633,27.716,27.716,0,0,0-.02661,20.746A11.98352,11.98352,0,0,1,216,300ZM100,264a12.01343,12.01343,0,0,1,12,12,11.89046,11.89046,0,0,1-2.37695,7.17041,7.99977,7.99977,0,0,0,12.79492,9.606,11.99986,11.99986,0,1,1-.02149,14.41894,8,8,0,0,0-12.793,0,12,12,0,0,1-19.207,0l-.00708-.00842A11.88766,11.88766,0,0,1,88,300a12.029,12.029,0,0,1,9.5918-11.76025l-3.1836-15.67969a27.682,27.682,0,0,0-6.33252,2.12573A12.01448,12.01448,0,0,1,100,264ZM56,300a11.98647,11.98647,0,0,1,18.02759-10.36633,27.716,27.716,0,0,0-.02661,20.746A11.98352,11.98352,0,0,1,56,300Zm349.19336,76H106.80664l-20-16H425.19336ZM472,344H40a8,8,0,0,1,0-16H472a8,8,0,0,1,0,16Z"/><path d="M488,232H449.20361l-94.80224-29.16943A63.9179,63.9179,0,0,0,335.5791,200H328a63.55341,63.55341,0,0,0-54.85254,31.01074l13.70508,8.25781A47.67535,47.67535,0,0,1,328,216h7.5791a47.9599,47.9599,0,0,1,14.11621,2.12256L440,245.90869V256h16v-8h24v16h-8v16h16a8.00008,8.00008,0,0,0,8-8V240A8.00008,8.00008,0,0,0,488,232Z"/><path d="M58.31836,262.18652A89.38474,89.38474,0,0,1,56,241.95508V225.18262A89.181,89.181,0,0,1,145.18262,136H292.583a142.53441,142.53441,0,0,1,87.09179,29.88232,158.11607,158.11607,0,0,0,74.58985,31.665l3.6582.523-9.40039,13.31641,13.07227,9.22656,16.9414-24a8.00065,8.00065,0,0,0-5.40429-12.53271l-16.60352-2.37207A142.08953,142.08953,0,0,1,389.49707,153.252,158.61077,158.61077,0,0,0,292.583,120H145.18262A105.18366,105.18366,0,0,0,40,225.18262v16.77246a105.41014,105.41014,0,0,0,2.73438,23.8584Z"/><path d="M93.01953,218.93994a55.59679,55.59679,0,0,0-1.6582,12.99072l16,.13868a39.588,39.588,0,0,1,1.17969-9.249l3.21972-12.88037-15.52148-3.87988Z"/><path d="M198.95215,233.84473l-.293.87744a54.20876,54.20876,0,0,1-33.35547,34.0957l5.39258,15.06348a70.11549,70.11549,0,0,0,43.1416-44.09717l.292-.87647a8.219,8.219,0,0,1,2.53516-3.71533l44.456-37.04638a7.99993,7.99993,0,0,0-6.00488-14.09717l-21.08789,2.34326a130.80452,130.80452,0,0,0-88.27539,48.61035l12.49414,9.99512A114.82838,114.82838,0,0,1,230.252,203.043l-23.83007,19.85791A24.21453,24.21453,0,0,0,198.95215,233.84473Z"/></g></svg>
