<?xml version="1.0" encoding="iso-8859-1"?>
<!-- Generator: Adobe Illustrator 19.0.0, SVG Export Plug-In . SVG Version: 6.00 Build 0)  -->
<svg version="1.1" id="Capa_1" xmlns="http://www.w3.org/2000/svg" xmlns:xlink="http://www.w3.org/1999/xlink" x="0px" y="0px"
	 viewBox="0 0 512.001 512.001" style="enable-background:new 0 0 512.001 512.001;" xml:space="preserve">
<path style="fill:#FFCF65;" d="M354.598,237.626l-34.32-34.32c-3.791-3.791-3.791-9.937,0-13.728l34.32-34.32
	c3.791-3.791,9.937-3.791,13.728,0l34.32,34.32c3.791,3.791,3.791,9.937,0,13.728l-34.32,34.32
	C364.535,241.416,358.389,241.416,354.598,237.626z"/>
<path style="fill:#8CE16E;" d="M211.348,46.328c-10.722,0-19.414-8.692-19.414-19.414S200.626,7.5,211.348,7.5
	s19.414,8.692,19.414,19.414S222.07,46.328,211.348,46.328z"/>
<path style="fill:#B2B1B0;" d="M465.672,285.121L465.672,285.121c0,8.041-6.519,14.561-14.561,14.561h-9.604l-78.955,95.459
	c-26.269,31.76-65.336,50.146-106.552,50.146l0,0c-41.216,0-80.283-18.386-106.552-50.146l-78.955-95.459h-9.604
	c-8.042,0-14.561-6.519-14.561-14.561l0,0c0-8.041,6.519-14.561,14.561-14.561h390.223
	C459.153,270.561,465.672,277.08,465.672,285.121z"/>
<path style="fill:#736F7B;" d="M441.507,299.682l-78.955,95.459c-26.269,31.76-65.336,50.146-106.552,50.146l0,0
	c-41.216,0-80.283-18.386-106.552-50.146l-78.955-95.459H441.507z"/>
<path style="fill:#625D6B;" d="M441.507,299.682l-78.955,95.459c-26.269,31.76-65.336,50.146-106.552,50.146l0,0
	c-5.697,0-11.35-0.364-16.936-1.053c34.832-4.297,66.978-21.723,89.616-49.093l78.955-95.459H441.507z"/>
<path style="fill:#7DB764;" d="M181.075,209.619c1.508,1.508,1.549,3.969,0.042,5.478c-0.009,0.009-0.018,0.019-0.028,0.028
	c-20.85,20.85-54.653,20.85-75.503,0s-20.85-54.653,0-75.503c0.009-0.009,0.018-0.018,0.028-0.028
	c1.509-1.506,3.97-1.466,5.478,0.042L181.075,209.619z"/>
<path style="fill:#8CE16E;" d="M162.899,191.443c-0.884,1.334-1.913,2.6-3.088,3.776c-9.477,9.477-24.842,9.477-34.32,0
	c-9.477-9.477-9.477-24.842,0-34.32c1.175-1.175,2.442-2.204,3.776-3.088L162.899,191.443z"/>
<path style="fill:#FF4B4B;" d="M316.396,18.359c1.508-1.508,3.969-1.549,5.478-0.042c0.009,0.009,0.018,0.018,0.028,0.028
	c20.85,20.85,20.85,54.653,0,75.503s-54.653,20.85-75.503,0c-0.009-0.009-0.018-0.018-0.028-0.028
	c-1.506-1.509-1.466-3.97,0.042-5.478L316.396,18.359z"/>
<path style="fill:#C83741;" d="M298.221,36.534c1.334,0.884,2.6,1.913,3.776,3.088c9.477,9.477,9.477,24.842,0,34.32
	s-24.842,9.477-34.32,0c-1.175-1.175-2.204-2.442-3.088-3.776L298.221,36.534z"/>
<path style="fill:#D5945E;" d="M156.988,460.818v38.828c0,2.681-2.173,4.854-4.854,4.854H71.566c-2.681,0-4.854-2.173-4.854-4.854
	v-38.828c0-2.681,2.173-4.854,4.854-4.854h80.568C154.815,455.965,156.988,458.138,156.988,460.818z M440.434,455.965h-80.568
	c-2.681,0-4.854,2.173-4.854,4.854v38.828c0,2.681,2.173,4.854,4.854,4.854h80.568c2.681,0,4.854-2.173,4.854-4.854v-38.828
	C445.287,458.138,443.114,455.965,440.434,455.965z"/>
<path style="fill:#E6AF78;" d="M7.5,222.025c0-10.722,8.692-19.414,19.414-19.414s19.414,8.692,19.414,19.414
	s-8.692,19.414-19.414,19.414S7.5,232.747,7.5,222.025z M485.086,241.439c10.722,0,19.414-8.692,19.414-19.414
	s-8.692-19.414-19.414-19.414s-19.414,8.692-19.414,19.414S474.364,241.439,485.086,241.439z M499.646,426.844H12.354
	c-2.681,0-4.854,2.173-4.854,4.854v38.828c0,2.681,2.173,4.854,4.854,4.854h487.293c2.681,0,4.854-2.173,4.854-4.854v-38.828
	C504.5,429.017,502.327,426.844,499.646,426.844z"/>
<path style="fill:#D5945E;" d="M504.5,431.697v38.828c0,2.681-2.173,4.854-4.854,4.854h-29.121c2.681,0,4.854-2.173,4.854-4.854
	v-38.828c0-2.681-2.173-4.854-4.854-4.854h29.121C502.327,426.844,504.5,429.017,504.5,431.697z"/>
<path d="M309.935,196.442c0,4.597,1.791,8.918,5.04,12.166l34.32,34.321c3.354,3.354,7.761,5.031,12.167,5.031
	s8.813-1.678,12.167-5.031l34.32-34.32c6.708-6.709,6.708-17.624,0-24.335l-34.32-34.318c-3.249-3.25-7.57-5.041-12.167-5.041
	s-8.917,1.79-12.168,5.04l-34.319,34.319C311.725,187.525,309.935,191.846,309.935,196.442z M325.582,194.882l34.319-34.319
	c0.534-0.535,1.144-0.647,1.561-0.647s1.025,0.112,1.56,0.647l34.32,34.318c0.86,0.86,0.86,2.261,0,3.121l-34.32,34.32
	c-0.859,0.862-2.261,0.86-3.12,0.001l-34.32-34.321c-0.534-0.534-0.646-1.143-0.646-1.56S325.047,195.416,325.582,194.882z
	 M211.348,53.828c14.84,0,26.914-12.073,26.914-26.914S226.188,0,211.348,0s-26.914,12.073-26.914,26.914
	S196.507,53.828,211.348,53.828z M211.348,15c6.569,0,11.914,5.345,11.914,11.914s-5.345,11.914-11.914,11.914
	s-11.914-5.345-11.914-11.914S204.778,15,211.348,15z M499.646,419.344H445.61c-4.143,0-7.5,3.357-7.5,7.5s3.357,7.5,7.5,7.5H497
	v33.535H15v-33.535h399.872c4.143,0,7.5-3.357,7.5-7.5s-3.357-7.5-7.5-7.5h-65.458c6.596-5.686,12.922-12.174,18.917-19.423
	l76.705-92.739h6.075c12.164,0,22.061-9.896,22.061-22.061c0-7.945-4.223-14.921-10.541-18.805l12.786-19.18
	c3.003,1.16,6.261,1.803,9.669,1.803c14.841,0,26.914-12.073,26.914-26.914s-12.073-26.914-26.914-26.914
	s-26.914,12.073-26.914,26.914c0,5.99,1.968,11.527,5.29,16.003l-16.688,25.032H285.772V157.688c0-4.542,2.523-8.625,6.586-10.656
	c3.336-1.669,7.319-1.668,10.655,0c3.707,1.852,8.209,0.351,10.063-3.354c1.853-3.705,0.352-8.21-3.354-10.063
	c-7.535-3.769-16.535-3.771-24.072,0c-9.177,4.587-14.878,13.812-14.878,24.072v105.372H256.65V126.276c0-4.143-3.358-7.5-7.5-7.5
	s-7.5,3.357-7.5,7.5V263.06h-14.12v-78.542c0-10.26-5.701-19.484-14.878-24.073c-7.537-3.77-16.536-3.769-24.072,0
	c-3.705,1.852-5.207,6.356-3.355,10.062c1.853,3.706,6.356,5.21,10.062,3.354c3.336-1.668,7.32-1.668,10.656,0
	c4.063,2.031,6.586,6.115,6.586,10.657v78.542H63.285l-15.802-23.703c3.955-4.686,6.346-10.734,6.346-17.332
	c0-14.841-12.074-26.914-26.914-26.914S0,207.185,0,222.025s12.074,26.914,26.914,26.914c2.821,0,5.541-0.438,8.098-1.247
	l13.015,19.522c-5.565,4.009-9.199,10.539-9.199,17.906c0,12.164,9.896,22.061,22.061,22.061h6.074l76.706,92.739
	c5.99,7.242,12.32,13.728,18.929,19.423H12.354C5.542,419.344,0,424.886,0,431.697v38.828c0,6.812,5.542,12.354,12.354,12.354
	h46.859v16.768c0,6.812,5.542,12.354,12.354,12.354h80.568c6.812,0,12.354-5.542,12.354-12.354v-16.768h183.023v16.768
	c0,6.812,5.542,12.354,12.354,12.354h80.568c6.812,0,12.354-5.542,12.354-12.354v-16.768h46.859c6.812,0,12.354-5.542,12.354-12.354
	v-38.828C512,424.886,506.458,419.344,499.646,419.344z M485.086,210.111c6.569,0,11.914,5.345,11.914,11.914
	s-5.345,11.914-11.914,11.914s-11.914-5.345-11.914-11.914S478.517,210.111,485.086,210.111z M15,222.025
	c0-6.569,5.345-11.914,11.914-11.914s11.914,5.345,11.914,11.914s-5.345,11.914-11.914,11.914S15,228.595,15,222.025z
	 M53.828,285.121c0-3.894,3.167-7.061,7.061-7.061h390.223c3.894,0,7.061,3.167,7.061,7.061s-3.167,7.061-7.061,7.061h-9.578
	c-0.009,0-0.019,0-0.028,0H60.889C56.996,292.182,53.828,289.015,53.828,285.121z M187.752,419.254
	c-11.426-6.99-22.672-16.98-32.525-28.894l-68.798-83.179H425.57l-68.797,83.179c-9.713,11.744-20.756,21.609-31.934,28.529
	c-0.228,0.141-0.445,0.293-0.652,0.454H187.883C187.838,419.315,187.798,419.282,187.752,419.254z M149.488,497H74.213v-14.121
	h75.275V497z M437.787,497h-75.275v-14.121h75.275V497z M143.338,238.232c15.592,0,31.185-5.935,43.055-17.804
	c0.017-0.017,0.033-0.034,0.05-0.051c0.004-0.004,0.009-0.009,0.013-0.013c4.386-4.427,4.355-11.617-0.077-16.05l-18.146-18.146
	c-0.01-0.01-0.021-0.021-0.031-0.031l-33.623-33.624c-0.013-0.013-0.026-0.026-0.039-0.039l-18.143-18.143h-0.001
	c-4.435-4.435-11.631-4.461-16.057-0.067c-0.019,0.018-0.037,0.035-0.054,0.053c-23.741,23.741-23.741,62.37,0,86.111
	C112.153,232.298,127.746,238.232,143.338,238.232z M129.083,168.234l23.393,23.394c-2.843,2.067-6.243,3.2-9.825,3.2
	c-4.479,0-8.689-1.744-11.856-4.912c-3.167-3.166-4.911-7.377-4.911-11.855C125.884,174.477,127.017,171.076,129.083,168.234z
	 M108.432,147.582l9.968,9.968c-4.86,5.728-7.516,12.913-7.516,20.51c0,8.485,3.305,16.463,9.305,22.462
	c6,6.001,13.978,9.306,22.463,9.306c7.597,0,14.782-2.656,20.51-7.515l9.968,9.968c-18.008,15.394-45.207,14.575-62.239-2.458
	C93.858,192.79,93.039,165.592,108.432,147.582z M241.039,99.094c0.019,0.02,0.038,0.038,0.057,0.058
	c11.87,11.869,27.462,17.805,43.055,17.805s31.185-5.936,43.056-17.806c23.739-23.74,23.739-62.369,0-86.109
	c-0.029-0.029-0.06-0.059-0.089-0.088c-4.426-4.359-11.598-4.322-16.024,0.102l-18.149,18.149c-0.009,0.009-0.018,0.018-0.027,0.027
	l-33.626,33.626c-0.013,0.013-0.026,0.026-0.039,0.039L241.11,83.038C236.676,87.473,236.647,94.668,241.039,99.094z
	 M301.604,56.782c0,4.479-1.744,8.688-4.912,11.856c-3.167,3.167-7.377,4.911-11.855,4.911c-3.582,0-6.983-1.132-9.825-3.2
	l23.393-23.393C300.472,49.8,301.604,53.2,301.604,56.782z M264.327,81.034c5.729,4.86,12.913,7.515,20.51,7.515
	c8.485,0,16.463-3.305,22.462-9.305c6.001-6,9.306-13.978,9.306-22.463c0-7.596-2.656-14.781-7.516-20.51l9.968-9.968
	c15.393,18.01,14.573,45.208-2.457,62.239c-17.03,17.032-44.229,17.853-62.24,2.458L264.327,81.034z M126.191,85.156
	c0-4.143,3.358-7.5,7.5-7.5h11.014l-6.61-6.61c-1.407-1.407-2.197-3.314-2.197-5.304V46.328c0-4.143,3.358-7.5,7.5-7.5
	s7.5,3.357,7.5,7.5v16.308l17.216,17.216c0.001,0.001,0.002,0.002,0.003,0.003l6.609,6.609V75.449c0-4.143,3.358-7.5,7.5-7.5
	s7.5,3.357,7.5,7.5v26.014l17.217,17.217c2.929,2.93,2.929,7.678,0,10.607c-1.464,1.464-3.384,2.196-5.303,2.196
	s-3.839-0.732-5.303-2.196l-36.632-36.632h-26.014C129.549,92.656,126.191,89.299,126.191,85.156z M361.356,129.288
	c-2.929-2.93-2.929-7.678,0-10.607l19.414-19.414l0,0l17.217-17.217V65.742c0-4.143,3.357-7.5,7.5-7.5s7.5,3.357,7.5,7.5v19.414
	c0,1.989-0.79,3.896-2.196,5.304l-6.61,6.61h11.014c4.143,0,7.5,3.357,7.5,7.5s-3.357,7.5-7.5,7.5h-26.014l-17.218,17.218
	c-1.465,1.464-3.385,2.196-5.304,2.196S362.821,130.752,361.356,129.288z"/>
<g>
</g>
<g>
</g>
<g>
</g>
<g>
</g>
<g>
</g>
<g>
</g>
<g>
</g>
<g>
</g>
<g>
</g>
<g>
</g>
<g>
</g>
<g>
</g>
<g>
</g>
<g>
</g>
<g>
</g>
</svg>
