<?xml version="1.0" encoding="iso-8859-1"?>
<!-- Generator: Adobe Illustrator 19.0.0, SVG Export Plug-In . SVG Version: 6.00 Build 0)  -->
<svg version="1.1" id="Capa_1" xmlns="http://www.w3.org/2000/svg" xmlns:xlink="http://www.w3.org/1999/xlink" x="0px" y="0px"
	 viewBox="0 0 512 512" style="enable-background:new 0 0 512 512;" xml:space="preserve">
<polygon style="fill:#A3A3A3;" points="441.647,39.662 404.518,56.649 404.518,59.819 400.149,56.649 365.204,83.592 
	400.149,110.535 404.518,107.365 404.518,110.535 441.647,127.522 478.776,110.535 478.776,56.649 "/>
<polygon style="fill:#BDBDBD;" points="367.388,39.662 330.259,56.649 330.259,59.027 326.983,56.649 292.037,83.592 
	326.983,110.535 330.259,108.158 330.259,110.535 367.388,127.522 404.518,110.535 404.518,56.649 "/>
<polygon style="fill:#A3A3A3;" points="293.129,39.662 256,56.649 256,58.234 253.816,56.649 218.871,83.592 253.816,110.535 
	256,108.95 256,110.535 293.129,127.522 330.259,110.535 330.259,56.649 "/>
<g>
	<polygon style="fill:#BDBDBD;" points="218.871,39.662 181.741,56.649 181.741,57.442 180.649,56.649 145.704,83.592 
		180.649,110.535 181.741,109.742 181.741,110.535 218.871,127.522 256,110.535 256,56.649 	"/>
	<polygon style="fill:#BDBDBD;" points="107.482,56.649 70.353,39.662 33.224,56.649 33.224,110.535 70.353,127.522 
		107.482,110.535 144.612,83.592 	"/>
</g>
<g>
	<polygon style="fill:#A3A3A3;" points="83,110.535 83,56.649 95.241,51.1 70.185,39.662 33,56.649 33,110.535 70.241,127.522 
		95.185,116.084 	"/>
	<polygon style="fill:#A3A3A3;" points="144.612,39.662 107.482,56.649 107.482,110.535 144.612,127.522 181.741,110.535 
		181.741,56.649 	"/>
</g>
<polygon style="fill:#BDBDBD;" points="256,122.669 33.224,144.509 33.224,489.109 163.783,489.109 256,316.809 348.217,489.109 
	478.776,489.109 478.776,144.509 "/>
<polygon style="fill:#A3A3A3;" points="280.888,125.12 255.832,122.668 33,144.509 33,489 83,489 83,144.509 "/>
<path style="fill:#8E8E8E;" d="M348.217,309.975v179.134H163.783V309.975c0-50.933,41.284-92.217,92.217-92.217
	S348.217,259.043,348.217,309.975z"/>
<g>
	<path style="fill:#DEDEDE;" d="M322.493,309.975c0,18.764,6.96,33.975,25.724,33.975h130.56c18.764,0,25.724-15.211,25.724-33.975
		H322.493z"/>
	<path style="fill:#DEDEDE;" d="M189.507,309.975c0,18.764-6.96,33.975-25.724,33.975H33.224C14.46,343.95,7.5,328.739,7.5,309.975
		H189.507z"/>
</g>
<path style="fill:#BDBDBD;" d="M57.5,309h-50c0,19,6.96,34,25.724,34h50C64.46,343,57.5,328,57.5,309z"/>
<path style="fill:#DEDEDE;" d="M504.5,110.535c0,18.764-6.96,33.975-25.724,33.975H33.224C14.46,144.51,7.5,129.299,7.5,110.535
	L504.5,110.535z"/>
<path style="fill:#BDBDBD;" d="M57.5,110h-50c0,19,6.96,34,25.724,34h50C64.46,144,57.5,129,57.5,110z"/>
<path style="fill:#DEDEDE;" d="M504.5,22.675c0,18.764-6.96,33.975-25.724,33.975H33.224C14.46,56.649,7.5,41.439,7.5,22.675H504.5z
	"/>
<path style="fill:#BDBDBD;" d="M57.5,22h-50c0,19,6.96,34,25.724,34h50C64.46,56,57.5,41,57.5,22z"/>
<path d="M174.439,161.931c-4.142,0-7.5,3.358-7.5,7.5v14.761c0,4.142,3.358,7.5,7.5,7.5s7.5-3.358,7.5-7.5v-14.761
	C181.939,165.289,178.581,161.931,174.439,161.931z"/>
<path d="M337.561,161.931c-4.142,0-7.5,3.358-7.5,7.5v14.761c0,4.142,3.358,7.5,7.5,7.5s7.5-3.358,7.5-7.5v-14.761
	C345.061,165.289,341.703,161.931,337.561,161.931z"/>
<path d="M281.066,177.518c-3.119-2.726-7.856-2.409-10.583,0.711c-3.523,4.031-8.802,6.342-14.483,6.342s-10.96-2.312-14.483-6.343
	c-2.726-3.119-7.464-3.437-10.583-0.711s-3.437,7.464-0.711,10.583c6.372,7.29,15.768,11.471,25.777,11.471
	s19.405-4.181,25.777-11.47C284.503,184.982,284.185,180.244,281.066,177.518z"/>
<path d="M512,22.783c0-4.142-3.358-7.5-7.5-7.5H94.523c-4.142,0-7.5,3.358-7.5,7.5s3.358,7.5,7.5,7.5h402.015
	c-0.669,5.08-2.058,9.285-4.11,12.373c-2.993,4.504-7.331,6.602-13.651,6.602H33.224c-6.321,0-10.659-2.098-13.651-6.602
	c-2.052-3.088-3.441-7.293-4.11-12.373h49.233c4.142,0,7.5-3.358,7.5-7.5s-3.358-7.5-7.5-7.5H7.5c-4.142,0-7.5,3.358-7.5,7.5
	C0,45.46,9.471,60.155,25.724,63.517v39.626H7.5c-4.142,0-7.5,3.358-7.5,7.5c0,22.677,9.471,37.372,25.724,40.735v151.206H7.5
	c-4.142,0-7.5,3.358-7.5,7.5c0,22.677,9.471,37.372,25.724,40.735v138.399c0,4.142,3.358,7.5,7.5,7.5h445.553
	c4.142,0,7.5-3.358,7.5-7.5v-138.4C502.529,347.454,512,332.76,512,310.083c0-4.142-3.358-7.5-7.5-7.5h-18.224V151.378
	C502.529,148.015,512,133.32,512,110.643c0-4.142-3.358-7.5-7.5-7.5h-18.224V63.517C502.529,60.155,512,45.46,512,22.783z
	 M397.018,103.143h-59.259V64.257h59.259V103.143z M322.759,103.143H263.5V64.257h59.259V103.143z M248.5,103.143h-59.259V64.257
	H248.5V103.143z M174.241,103.143h-59.259V64.257h59.259V103.143z M40.724,64.257h59.259v38.886H40.724V64.257z M19.572,329.957
	c-2.052-3.088-3.441-7.293-4.11-12.373h166.083c-0.669,5.08-2.058,9.285-4.11,12.373c-2.993,4.504-7.331,6.602-13.651,6.602H33.224
	C26.903,336.558,22.565,334.46,19.572,329.957z M40.724,351.558h115.56v130.159H40.724V351.558z M171.283,350.821
	c0.004-0.076,4.149-1.156,4.676-1.354c0.197-0.074,0.391-0.152,0.585-0.23c10.517-4.221,16.612-14.14,18.996-24.835
	c1.032-4.631,1.455-9.389,1.466-14.129c0-0.063,0-0.126,0-0.188c0-4.142-3.358-7.5-7.5-7.5h-17.873
	c0.671-7.619,2.385-15.169,5.086-22.326c9.441-25.014,30.72-44.414,56.415-51.694c16.77-4.751,34.852-4.143,51.268,1.716
	c24.942,8.903,44.772,29.623,52.566,54.925c1.639,5.321,2.812,11.123,3.351,16.783c0.019,0.198,0.028,0.398,0.046,0.596h-17.873
	c-4.142,0-7.5,3.358-7.5,7.5c0,11.8,2.547,24.864,11.431,33.336c3.885,3.705,8.986,6.304,14.293,7.402v130.896H171.283V350.821z
	 M471.276,481.717h-115.56V351.558h115.56V481.717z M492.428,329.957c-2.993,4.504-7.331,6.602-13.651,6.602h-130.56
	c-6.321,0-10.659-2.098-13.651-6.602c-2.052-3.088-3.441-7.293-4.11-12.373h17.762h0.02h148.301
	C495.869,322.664,494.48,326.868,492.428,329.957z M492.428,130.516c-2.993,4.504-7.331,6.602-13.651,6.602h-45.478
	c-4.142,0-7.5,3.358-7.5,7.5s3.358,7.5,7.5,7.5h37.978v150.466H355.438c-0.251-3.368-0.682-6.722-1.272-10.048
	c-4.021-22.55-16.017-43.336-33.417-58.226c-17.94-15.352-41.135-23.943-64.748-23.943c-24.044,0-47.679,8.957-65.736,24.811
	c-17.438,15.311-29.121,36.542-32.768,59.447c-0.416,2.615-0.726,5.242-0.926,7.882c-0.002,0.026-0.005,0.051-0.007,0.077H40.724
	V152.118h362.615c4.142,0,7.5-3.358,7.5-7.5s-3.358-7.5-7.5-7.5H33.224c-6.321,0-10.659-2.098-13.651-6.602
	c-2.052-3.088-3.441-7.293-4.11-12.373h481.076C495.869,123.223,494.48,127.428,492.428,130.516z M412.018,103.143V64.257h59.259
	v38.886C471.277,103.143,412.018,103.143,412.018,103.143z"/>
<g>
</g>
<g>
</g>
<g>
</g>
<g>
</g>
<g>
</g>
<g>
</g>
<g>
</g>
<g>
</g>
<g>
</g>
<g>
</g>
<g>
</g>
<g>
</g>
<g>
</g>
<g>
</g>
<g>
</g>
</svg>
