<?xml version="1.0" encoding="iso-8859-1"?>
<!-- Generator: Adobe Illustrator 19.0.0, SVG Export Plug-In . SVG Version: 6.00 Build 0)  -->
<svg version="1.1" id="Capa_1" xmlns="http://www.w3.org/2000/svg" xmlns:xlink="http://www.w3.org/1999/xlink" x="0px" y="0px"
	 viewBox="0 0 512.001 512.001" style="enable-background:new 0 0 512.001 512.001;" xml:space="preserve">
<rect x="231.119" y="349.6" style="fill:#3B484A;" width="49.759" height="142.28"/>
<path style="fill:#BDBDBD;" d="M448.009,269.683c-21.868-18.886-76.538-19.507-76.538-19.507l-115.514-18.443l-115.514,18.443
	c0,0-54.171,0.616-76.236,19.249c-7.324,6.185-3.033,18.123,6.554,18.123h370.403C450.558,287.548,455.118,275.823,448.009,269.683z
	"/>
<path style="fill:#A3A3A3;" d="M104.208,269.425c22.065-18.633,76.236-19.249,76.236-19.249l95.514-15.25l-20-3.193l-115.514,18.443
	c0,0-54.171,0.616-76.236,19.249c-7.324,6.185-3.033,18.123,6.554,18.123h40C101.176,287.548,96.884,275.61,104.208,269.425z"/>
<g>
	<path style="fill:#3B484A;" d="M118.645,321.522c0,0,2.912-17.958,21.841-33.975h231.027
		c18.929,16.017,21.841,33.975,21.841,33.975l-137.355,28.082L118.645,321.522z"/>
	<path style="fill:#3B484A;" d="M393.354,216.201c0,0-2.912,17.958-21.841,33.975H140.485
		c-18.929-16.017-21.841-33.975-21.841-33.975l137.355-28.081L393.354,216.201z"/>
</g>
<path style="fill:#DEDEDE;" d="M410.341,216.201c0-37.534-36.24-80.892-154.342-80.892s-154.342,43.358-154.342,80.892H410.341z"/>
<path style="fill:#BDBDBD;" d="M275.999,135.755c-6.393-0.291-13.049-0.446-20-0.446c-118.102,0-154.342,43.358-154.342,80.892h40
	C141.657,180.876,173.767,140.398,275.999,135.755z"/>
<path style="fill:#3B484A;" d="M309.478,99.07H202.52c-9.917,0-15.46,11.443-9.312,19.225l15.569,19.707h94.445l15.569-19.707
	C324.939,110.512,319.396,99.07,309.478,99.07z"/>
<path style="fill:#DEDEDE;" d="M314.189,504.5c0-39.799,58.208-135.575,58.208-135.575l-22.24-18.241l-24.591,18.241
	c0,0-4.53,86.716-69.567,86.716s-69.567-86.716-69.567-86.716l-24.591-18.241l-22.24,18.241c0,0,58.208,95.776,58.208,135.575
	H314.189z"/>
<g>
	<path style="fill:#BDBDBD;" d="M325.566,368.925c0,0-0.703,13.411-5.508,29.683h35.398c9.531-17.489,16.941-29.683,16.941-29.683
		l-22.24-18.241L325.566,368.925z"/>
	<path style="fill:#BDBDBD;" d="M139.601,368.925c0,0,7.41,12.194,16.941,29.683h35.398c-4.805-16.272-5.508-29.683-5.508-29.683
		l-24.591-18.241L139.601,368.925z"/>
</g>
<path style="fill:#DEDEDE;" d="M92.198,321c0,26,21.223,47,47.403,47h232.797c26.18,0,47.403-21,47.403-47H92.198z"/>
<path style="fill:#BDBDBD;" d="M132.198,321.608h-40c0,26,21.223,47,47.403,47h40C153.421,368.608,132.198,347.608,132.198,321.608z
	"/>
<path d="M190.312,171.967v10.532c0,4.142,3.358,7.5,7.5,7.5s7.5-3.358,7.5-7.5v-10.532c0-4.142-3.358-7.5-7.5-7.5
	S190.312,167.825,190.312,171.967z"/>
<path d="M306.693,171.967v10.532c0,4.142,3.358,7.5,7.5,7.5s7.5-3.358,7.5-7.5v-10.532c0-4.142-3.358-7.5-7.5-7.5
	S306.693,167.825,306.693,171.967z"/>
<path d="M264.718,176.83c-2.106,2.409-5.283,3.791-8.716,3.791s-6.61-1.382-8.716-3.791c-2.726-3.119-7.463-3.438-10.583-0.71
	c-3.119,2.726-3.437,7.464-0.71,10.583c4.955,5.668,12.248,8.918,20.009,8.918s15.054-3.25,20.009-8.918
	c2.727-3.119,2.408-7.856-0.71-10.583C272.182,173.392,267.444,173.71,264.718,176.83z"/>
<path d="M70.765,295.048h52.383c-5.526,7.398-8.565,14.264-10.188,18.975H92.201c-4.142,0-7.5,3.358-7.5,7.5
	c0,28.801,22.297,52.477,50.533,54.713c4.481,7.574,15.677,26.869,26.775,48.924c23.393,46.489,28.304,68.806,28.304,79.341
	c0,4.142,3.358,7.5,7.5,7.5h116.38c4.142,0,7.5-3.358,7.5-7.5c0-29.658,37.956-99.554,55.064-128.263
	c28.243-2.229,50.548-25.908,50.548-54.714c0-4.142-3.358-7.5-7.5-7.5h-20.759c-1.623-4.71-4.663-11.576-10.188-18.975h52.312
	c7.506,0,14.056-4.566,16.685-11.632c2.59-6.963,0.652-14.581-4.938-19.409c-15.864-13.701-45.951-18.606-64.803-20.359
	c5.995-7.765,9.239-15.031,10.933-19.947h11.3c4.142,0,7.5-3.358,7.5-7.5c0-22.172-11.206-42.603-31.554-57.529
	c-3.339-2.449-8.033-1.729-10.483,1.611s-1.729,8.033,1.611,10.483c17.029,12.493,23.155,26.55,24.867,37.935H109.701
	c2.902-19.763,16.947-32.921,28.938-40.738c17.304-11.282,40.961-18.798,70.614-22.489c0.171-0.009,0.343-0.008,0.514-0.029
	c15.329-1.889,30.795-2.635,46.236-2.635c14.996,0,30.014,0.706,44.909,2.483c19.884,2.373,37.224,6.435,51.789,12.187
	c3.853,1.523,8.209-0.368,9.73-4.221s-0.368-8.209-4.221-9.73c-12.054-4.76-25.787-8.436-41.072-11.041l7.54-9.544
	c4.642-5.875,5.498-13.711,2.233-20.449c-3.264-6.738-9.943-10.924-17.43-10.924h-45.979V7.5c0-4.142-3.358-7.5-7.5-7.5
	s-7.5,3.358-7.5,7.5v84.07h-45.979c-7.487,0-14.167,4.186-17.43,10.924c-3.264,6.738-2.408,14.574,2.233,20.449l7.511,9.508
	c-26.248,4.462-47.795,12.127-64.39,22.946c-23.4,15.255-36.287,36.849-36.287,60.804c0,1.989,0.79,3.897,2.197,5.303
	c1.406,1.407,3.314,2.197,5.303,2.197h11.3c1.693,4.914,4.935,12.176,10.926,19.937c-18.681,1.732-48.54,6.567-64.513,20.056
	c-5.788,4.887-7.85,12.632-5.253,19.731C56.701,290.486,63.236,295.048,70.765,295.048z M199.095,113.644
	c-2.244-2.842-0.153-7.074,3.428-7.074h106.959c3.602,0,5.651,4.26,3.427,7.075l-12.979,16.427c-0.065-0.007-0.133-0.013-0.198-0.02
	c-14.516-1.598-29.13-2.242-43.73-2.242c-14.668,0-29.356,0.643-43.939,2.248C212.063,130.058,199.095,113.645,199.095,113.644z
	 M307.217,497h-102.43c-4.555-35.188-37.565-95.451-52.06-120.575h26.915c1.091,8.542,3.795,23.602,10.29,38.805
	c11.116,26.018,28.752,41.843,51.508,46.478c9.543,1.956,19.604,1.939,29.145-0.005c22.733-4.63,40.37-20.455,51.485-46.473
	c6.495-15.203,9.199-30.263,10.29-38.805h26.915C344.782,401.549,311.772,461.812,307.217,497z M317.219,376.425
	c-1.115,7.815-3.592,20.391-8.941,32.911c-5.185,12.137-11.835,21.45-19.896,27.909v-60.82H317.219z M273.382,445.44
	c-0.215,0.072-0.427,0.149-0.643,0.218c-5.401,1.72-11.076,2.484-16.736,2.484c-5.885,0-11.79-0.836-17.379-2.702v-69.013h34.759
	v69.013H273.382z M223.623,437.247c-7.987-6.4-14.589-15.605-19.753-27.578c-5.424-12.573-7.943-25.338-9.075-33.243h28.828V437.247
	z M372.401,361.425H139.604c-19.44,0-35.678-13.972-39.196-32.403h311.188C408.078,347.453,391.841,361.425,372.401,361.425z
	 M382.914,314.022H129.137c2.477-5.253,6.802-12.219,14.18-18.975H368.69C376.14,301.857,380.458,308.79,382.914,314.022z
	 M382.867,223.701c-2.477,5.253-6.802,12.219-14.18,18.975H143.315c-7.454-6.813-11.772-13.748-14.227-18.975H382.867z
	 M69.05,275.155c16.363-13.818,57.081-17.301,71.444-17.479h230.922c14.467,0.168,55.467,3.669,71.694,17.684
	c1.085,0.937,0.971,2.054,0.684,2.826c-0.208,0.56-0.881,1.862-2.626,1.862H70.765c-1.579,0-2.263-0.965-2.559-1.774
	C67.956,277.587,67.731,276.269,69.05,275.155z"/>
<g>
</g>
<g>
</g>
<g>
</g>
<g>
</g>
<g>
</g>
<g>
</g>
<g>
</g>
<g>
</g>
<g>
</g>
<g>
</g>
<g>
</g>
<g>
</g>
<g>
</g>
<g>
</g>
<g>
</g>
</svg>
