<?xml version="1.0" encoding="iso-8859-1"?>
<!-- Generator: Adobe Illustrator 19.0.0, SVG Export Plug-In . SVG Version: 6.00 Build 0)  -->
<svg version="1.1" id="Capa_1" xmlns="http://www.w3.org/2000/svg" xmlns:xlink="http://www.w3.org/1999/xlink" x="0px" y="0px"
	 viewBox="0 0 512 512" style="enable-background:new 0 0 512 512;" xml:space="preserve">
<circle style="fill:#FFCE6E;" cx="432.18" cy="220.82" r="23.62"/>
<path style="fill:#FFAC55;" d="M428.562,220.823c0-9.47,5.575-17.634,13.62-21.4c-3.037-1.422-6.425-2.221-10-2.221
	c-13.045,0-23.62,10.576-23.62,23.621s10.575,23.621,23.62,23.621c3.575,0,6.963-0.799,10-2.221
	C434.138,238.457,428.562,230.293,428.562,220.823z"/>
<circle style="fill:#FFCE6E;" cx="79.82" cy="220.82" r="23.62"/>
<path style="fill:#FFAC55;" d="M76.197,220.823c0-9.47,5.575-17.634,13.62-21.4c-3.037-1.422-6.425-2.221-10-2.221
	c-13.045,0-23.62,10.576-23.62,23.621s10.575,23.621,23.62,23.621c3.575,0,6.963-0.799,10-2.221
	C81.772,238.457,76.197,230.293,76.197,220.823z"/>
<circle style="fill:#FFCE6E;" cx="256" cy="81.34" r="16.502"/>
<ellipse style="fill:#FFAC55;" cx="256" cy="120.14" rx="38.828" ry="29.09"/>
<ellipse style="fill:#FFCE6E;" cx="256" cy="205.62" rx="92.86" ry="87.43"/>
<path style="fill:#FFAC55;" d="M183.136,205.622c0-45.104,36.28-82.225,82.864-86.921c-3.286-0.332-6.621-0.506-10-0.506
	c-51.287,0-92.864,39.143-92.864,87.427s41.577,87.427,92.864,87.427c3.379,0,6.714-0.174,10-0.506
	C219.416,287.846,183.136,250.725,183.136,205.622z"/>
<g>
	<path style="fill:#FF462E;" d="M181.256,245.978v-11.227c0-3.687-2.989-6.676-6.676-6.676h-15.77c-3.687,0-6.676,2.989-6.676,6.676
		v57.327l-25.238,69.171l25.238,92.289l14.561,20.385l14.561-20.385l16.178-102.539L181.256,245.978z"/>
	<path style="fill:#FF462E;" d="M330.744,245.978v-11.227c0-3.687,2.989-6.676,6.676-6.676h15.77c3.687,0,6.676,2.989,6.676,6.676
		v57.327l25.238,69.171l-25.238,92.289l-14.561,20.385l-14.561-20.385l-16.178-102.539L330.744,245.978z"/>
</g>
<polygon style="fill:#FF6835;" points="181.256,245.978 181.256,453.538 256,476.835 330.744,453.538 330.744,245.978 "/>
<path style="fill:#3B484A;" d="M263.895,304.219c-4.886-2.839-10.903-2.839-15.79,0c-13.521,7.857-39.67,24.794-39.67,38.274
	v111.045L256,476.835l47.564-23.297V342.493C303.564,329.013,277.416,312.076,263.895,304.219z"/>
<path style="fill:#FFCE6E;" d="M85.48,225.423H74.155c-36.812,0-66.655,29.842-66.655,66.655l0,0l72.317,23.157l72.317-23.157l0,0
	C152.135,255.265,122.292,225.423,85.48,225.423z"/>
<path style="fill:#FFAC55;" d="M27.5,292.078L27.5,292.078c0-35.354,27.529-64.262,62.317-66.499
	c-1.435-0.092-2.879-0.156-4.337-0.156H74.155c-36.812,0-66.655,29.842-66.655,66.655l0,0l72.317,23.157l10-3.202L27.5,292.078z"/>
<path style="fill:#FFCE6E;" d="M426.52,225.423h11.325c36.812,0,66.655,29.842,66.655,66.655l0,0l-72.317,23.157l-72.317-23.157l0,0
	C359.865,255.265,389.708,225.423,426.52,225.423z"/>
<path style="fill:#FFAC55;" d="M379.865,292.078L379.865,292.078c0-35.354,27.529-64.262,62.317-66.499
	c-1.435-0.092-2.879-0.156-4.337-0.156H426.52c-36.812,0-66.655,29.842-66.655,66.655l0,0l72.317,23.157l10-3.202L379.865,292.078z"
	/>
<polygon style="fill:#FF6835;" points="7.5,292.078 7.5,453.538 79.817,473.923 152.135,453.538 152.135,292.078 "/>
<polygon style="fill:#E65E30;" points="27.5,453.538 27.5,292.078 7.5,292.078 7.5,453.538 79.817,473.923 89.817,471.104 "/>
<polygon style="fill:#FF6835;" points="504.5,292.078 504.5,453.538 432.183,473.923 359.865,453.538 359.865,292.078 "/>
<g>
	<path style="fill:#3B484A;" d="M61.083,373.494l-5.651-6.782c-2.97-3.564-8.443-3.564-11.413,0l-5.651,6.782
		c-3.638,4.365-5.63,9.867-5.63,15.549v64.494l16.987,15.531l16.987-15.531v-64.494C66.713,383.362,64.721,377.859,61.083,373.494z"
		/>
	<path style="fill:#3B484A;" d="M121.267,373.494l-5.651-6.782c-2.97-3.564-8.443-3.564-11.413,0l-5.651,6.782
		c-3.638,4.365-5.63,9.867-5.63,15.549v64.494l16.987,15.531l16.987-15.531v-64.494
		C126.897,383.362,124.904,377.859,121.267,373.494z"/>
	<path style="fill:#3B484A;" d="M450.917,373.494l5.651-6.782c2.97-3.564,8.443-3.564,11.413,0l5.651,6.782
		c3.638,4.365,5.63,9.867,5.63,15.549v64.494l-16.987,15.531l-16.987-15.531v-64.494
		C445.287,383.362,447.279,377.859,450.917,373.494z"/>
	<path style="fill:#3B484A;" d="M390.733,373.494l5.651-6.782c2.97-3.564,8.443-3.564,11.413,0l5.651,6.782
		c3.638,4.365,5.63,9.867,5.63,15.549v64.494l-16.987,15.531l-16.987-15.531v-64.494
		C385.104,383.362,387.096,377.859,390.733,373.494z"/>
</g>
<rect x="7.5" y="453.54" style="fill:#FFCE6E;" width="497" height="46.594"/>
<rect x="7.5" y="453.54" style="fill:#FFAC55;" width="20" height="46.594"/>
<path d="M211.515,187.859v-9.408c0-4.142-3.358-7.5-7.5-7.5s-7.5,3.358-7.5,7.5v9.408c0,4.142,3.358,7.5,7.5,7.5
	S211.515,192.001,211.515,187.859z"/>
<path d="M315.484,187.859v-9.408c0-4.142-3.357-7.5-7.5-7.5s-7.5,3.358-7.5,7.5v9.408c0,4.142,3.357,7.5,7.5,7.5
	S315.484,192.001,315.484,187.859z"/>
<path d="M256,200.381c7.166,0,13.9-3.004,18.478-8.242c2.726-3.119,2.406-7.857-0.713-10.583c-3.118-2.726-7.856-2.406-10.582,0.712
	c-1.729,1.978-4.346,3.112-7.183,3.112c-2.836,0-5.455-1.135-7.184-3.113c-2.726-3.119-7.465-3.437-10.583-0.711
	c-3.119,2.726-3.437,7.464-0.711,10.583C242.101,197.377,248.835,200.381,256,200.381z"/>
<path d="M463.245,222.406c0.027-0.527,0.057-1.054,0.057-1.583c0-14.574-10.072-26.835-23.62-30.201v-29.266
	c0-4.142-3.357-7.5-7.5-7.5s-7.5,3.358-7.5,7.5v29.266c-13.548,3.366-23.62,15.627-23.62,30.201c0,0.529,0.031,1.056,0.057,1.583
	c-13.524,4.946-25.212,13.727-33.755,25.015v-12.67c0-7.173-5.36-13.104-12.283-14.034c0.849-4.99,1.282-10.039,1.282-15.095
	c0-36.562-21.971-68.358-54.078-84.21c0.019-0.425,0.042-0.851,0.042-1.276c0-13.588-9.435-25.46-23.396-31.77
	c0.694-2.257,1.069-4.618,1.069-7.024c0-10.616-6.93-19.638-16.502-22.795V11.868c0-4.142-3.357-7.5-7.5-7.5
	c-4.142,0-7.5,3.358-7.5,7.5v46.679c-9.572,3.157-16.502,12.18-16.502,22.796c0,2.406,0.376,4.767,1.07,7.024
	c-13.961,6.31-23.396,18.182-23.396,31.77c0,0.42,0.023,0.839,0.042,1.259c-7.911,3.895-15.313,8.791-21.983,14.649
	c-3.112,2.733-3.42,7.472-0.687,10.584c2.734,3.112,7.472,3.42,10.584,0.687c6.939-6.094,14.806-10.99,23.281-14.573
	c11.055-4.676,23.093-7.048,35.092-7.048c11.442,0,22.882,2.169,33.507,6.423c30.461,12.22,51.857,40.564,51.857,73.504
	c0,5.015-0.506,10.024-1.507,14.954h-2.438c-7.816,0-14.176,6.359-14.176,14.176v3.727H188.756v-3.727
	c0-7.816-6.359-14.176-14.176-14.176h-2.437c-1.001-4.929-1.507-9.938-1.507-14.954c0-13.033,3.43-25.971,9.918-37.414
	c2.043-3.604,0.779-8.181-2.824-10.224c-3.603-2.044-8.181-0.779-10.224,2.824c-7.766,13.695-11.871,29.191-11.871,44.813
	c0,5.056,0.433,10.105,1.281,15.095c-6.922,0.93-12.282,6.861-12.282,14.034v12.67c-8.543-11.288-20.231-20.07-33.755-25.015
	c0.027-0.527,0.058-1.054,0.058-1.583c0-14.574-10.072-26.835-23.62-30.201v-29.266c0-4.142-3.358-7.5-7.5-7.5s-7.5,3.358-7.5,7.5
	v29.266c-13.548,3.366-23.62,15.627-23.62,30.201c0,0.529,0.031,1.056,0.058,1.583C20.338,232.798,0,260.107,0,292.078v208.054
	c0,4.142,3.358,7.5,7.5,7.5h497c4.143,0,7.5-3.358,7.5-7.5V292.078C512,260.107,491.662,232.798,463.245,222.406z M247.459,84.169
	c-0.303-0.905-0.461-1.857-0.461-2.827c0-4.964,4.038-9.002,9.002-9.002c4.964,0,9.002,4.038,9.002,9.002
	c0,0.969-0.158,1.922-0.461,2.827c-0.347-0.051-0.697-0.089-1.045-0.134c-2.486-0.318-4.989-0.486-7.496-0.486
	c-2.506,0-5.009,0.167-7.495,0.486C248.156,84.08,247.806,84.118,247.459,84.169z M225.559,115.136
	c2.933-8.162,12.828-14.666,24.89-16.224c0.081-0.01,0.161-0.026,0.243-0.036c3.486-0.43,7.132-0.431,10.619,0
	c0.077,0.009,0.152,0.024,0.229,0.034c12.068,1.556,21.968,8.062,24.902,16.226c-4.099-1.236-8.274-2.2-12.505-2.921
	c-0.206-0.035-0.414-0.068-0.621-0.102c-5.716-0.945-11.522-1.418-17.315-1.418c-9.348,0-18.703,1.234-27.726,3.677
	c-0.138,0.037-0.274,0.078-0.411,0.116C227.094,114.7,226.323,114.905,225.559,115.136z M416.21,218.64
	c1.068-7.86,7.824-13.937,15.973-13.937s14.904,6.077,15.973,13.937c-0.12-0.8-9.601-0.716-10.31-0.716c-0.002,0-11.326,0-11.326,0
	C425.641,217.923,416.302,217.959,416.21,218.64z M338.244,235.575h14.121v210.463h-14.121V235.575z M323.244,253.478v192.56h-12.18
	V342.493c0-12.964-14.603-28.023-43.402-44.759c-3.54-2.057-7.572-3.144-11.662-3.144c-4.089,0-8.122,1.087-11.663,3.145
	c-28.799,16.735-43.402,31.794-43.402,44.759v103.545h-12.18v-192.56h134.489V253.478z M296.064,446.038h-80.129V342.493
	c0-7.493,18.629-21.731,35.938-31.79c2.508-1.458,5.745-1.458,8.252,0c17.31,10.059,35.938,24.297,35.938,31.79v103.545H296.064z
	 M159.635,235.575h14.121v210.463h-14.121V235.575z M134.396,446.038v-56.994c0-7.422-2.617-14.649-7.368-20.351l-5.651-6.782
	c-2.845-3.413-7.025-5.371-11.468-5.371s-8.624,1.958-11.468,5.371l-5.651,6.781c-4.751,5.702-7.368,12.929-7.368,20.351v56.994
	H74.213v-56.994c0-7.422-2.617-14.649-7.368-20.351l-5.651-6.782c-2.845-3.413-7.025-5.371-11.468-5.371s-8.624,1.958-11.468,5.371
	l-5.651,6.781c-4.751,5.702-7.368,12.929-7.368,20.351v56.994H15v-146.46h129.635v146.46h-10.239V446.038z M119.396,446.038h-18.975
	v-56.994c0-3.92,1.382-7.737,3.892-10.749l5.596-6.715l5.596,6.715c2.51,3.012,3.892,6.829,3.892,10.749L119.396,446.038
	L119.396,446.038z M59.213,446.038H40.238v-56.994c0-3.92,1.382-7.737,3.892-10.749l5.596-6.715l5.596,6.715
	c2.51,3.012,3.892,6.829,3.892,10.749L59.213,446.038L59.213,446.038z M63.845,218.64c1.068-7.86,7.824-13.937,15.973-13.937
	s14.904,6.077,15.973,13.937c-0.87-0.122-7.939-0.717-10.31-0.717H74.155C70.714,217.923,67.252,218.163,63.845,218.64z
	 M60.231,234.584c4.546-1.101,9.246-1.661,13.924-1.661H85.48c4.671,0,9.388,0.527,13.924,1.661
	c23.554,5.705,41.65,25.542,44.758,49.994H15.473C18.581,260.125,36.677,240.289,60.231,234.584z M497,461.038v31.594H15v-31.594
	H497z M411.578,446.038h-18.975v-56.994c0-3.92,1.382-7.737,3.892-10.748l5.596-6.715l5.596,6.714
	c2.51,3.012,3.892,6.829,3.892,10.749v56.994H411.578z M471.762,446.038h-18.975v-56.994c0-3.92,1.382-7.737,3.892-10.748
	l5.596-6.715l5.596,6.714c2.51,3.012,3.892,6.829,3.892,10.749v56.994H471.762z M473.917,299.578H497v146.46h-10.238v-56.994
	c0-7.422-2.617-14.649-7.368-20.352l-5.65-6.78c-2.845-3.414-7.024-5.372-11.469-5.372s-8.624,1.958-11.468,5.371l-5.651,6.782
	c-4.751,5.702-7.368,12.929-7.368,20.351v56.994h-11.209v-56.994c0-7.422-2.617-14.649-7.368-20.352l-5.65-6.78
	c-2.845-3.414-7.024-5.372-11.469-5.372s-8.624,1.958-11.468,5.371l-5.651,6.782c-4.751,5.702-7.368,12.929-7.368,20.351v56.994
	h-10.238v-146.46h76.648c4.143,0,7.5-3.358,7.5-7.5s-3.357-7.5-7.5-7.5h-76.176c3.108-24.45,21.201-44.286,44.753-49.993
	c4.545-1.101,9.251-1.662,13.929-1.662h11.326c4.689,0,9.372,0.564,13.929,1.662c23.551,5.707,41.645,25.542,44.753,49.993h-22.61
	c-4.143,0-7.5,3.358-7.5,7.5S469.774,299.578,473.917,299.578z"/>
<g>
</g>
<g>
</g>
<g>
</g>
<g>
</g>
<g>
</g>
<g>
</g>
<g>
</g>
<g>
</g>
<g>
</g>
<g>
</g>
<g>
</g>
<g>
</g>
<g>
</g>
<g>
</g>
<g>
</g>
</svg>
