<?xml version="1.0" encoding="iso-8859-1"?>
<!-- Generator: Adobe Illustrator 19.0.0, SVG Export Plug-In . SVG Version: 6.00 Build 0)  -->
<svg version="1.1" id="Capa_1" xmlns="http://www.w3.org/2000/svg" xmlns:xlink="http://www.w3.org/1999/xlink" x="0px" y="0px"
	 viewBox="0 0 512 512" style="enable-background:new 0 0 512 512;" xml:space="preserve">
<polygon style="fill:#FFAC55;" points="318.485,253.898 256,229.954 193.515,253.898 193.515,301.785 193.515,301.785 
	193.515,301.785 256,325.729 318.485,301.785 318.485,301.785 318.485,301.785 "/>
<polygon style="fill:#FFCE6E;" points="193.515,253.898 193.515,206.01 256,190.811 318.485,206.01 318.485,253.898 "/>
<g>
	<polygon style="fill:#FFAC55;" points="318.485,349.673 256,325.729 193.515,349.673 193.515,397.561 193.515,397.561 
		193.515,397.561 256,421.505 318.485,397.561 318.485,397.561 318.485,397.561 	"/>
	<polygon style="fill:#FFAC55;" points="172.123,253.898 152.782,229.954 127.109,253.898 127.109,253.898 97.207,253.898 
		97.207,301.785 134.015,321.846 172.123,301.785 193.515,277.841 	"/>
	<polygon style="fill:#FFAC55;" points="172.123,349.673 134.015,321.846 67.304,349.673 37.402,349.673 37.402,397.561 
		100.507,421.505 172.123,397.561 193.515,373.617 	"/>
	<polygon style="fill:#FFAC55;" points="339.877,253.898 359.218,229.954 384.891,253.898 384.891,253.898 414.793,253.898 
		414.793,301.785 377.985,321.846 339.877,301.785 318.485,277.841 	"/>
	<polygon style="fill:#FFAC55;" points="339.877,349.673 377.985,321.846 444.696,349.673 474.598,349.673 474.598,397.561 
		411.493,421.505 339.877,397.561 318.485,373.617 	"/>
</g>
<g>
	<polygon style="fill:#FFCE6E;" points="172.123,206.01 127.109,206.01 127.109,253.898 172.123,253.898 193.515,229.954 	"/>
	<polygon style="fill:#FFCE6E;" points="339.877,206.01 384.891,206.01 384.891,253.898 339.877,253.898 318.485,229.954 	"/>
	<polygon style="fill:#FFCE6E;" points="256,84.025 172.123,101.497 172.123,175.611 256,190.811 339.877,175.611 339.877,101.497 	
		"/>
</g>
<path style="fill:#FFAC55;" d="M339.877,66.551H172.123c-5.678,0-10.281,4.603-10.281,10.281v14.384
	c0,5.678,4.603,10.281,10.281,10.281h167.755c5.678,0,10.281-4.603,10.281-10.281V76.833
	C350.158,71.154,345.555,66.551,339.877,66.551z"/>
<path style="fill:#DB8D49;" d="M201.842,91.217V76.833c0-5.678,4.603-10.281,10.281-10.281h-40c-5.678,0-10.281,4.603-10.281,10.281
	v14.384c0,5.678,4.603,10.281,10.281,10.281h40C206.445,101.497,201.842,96.895,201.842,91.217z"/>
<rect x="193.51" y="175.611" style="fill:#FFAC55;" width="124.97" height="30.398"/>
<g>
	<polygon style="fill:#FFCE6E;" points="172.123,301.785 67.304,301.785 67.304,349.673 172.123,349.673 193.515,325.729 	"/>
	<polygon style="fill:#FFCE6E;" points="172.123,397.561 7.5,397.561 7.5,445.449 172.123,445.449 193.515,421.505 	"/>
	<rect x="193.51" y="301.79" style="fill:#FFCE6E;" width="124.97" height="47.888"/>
	<polygon style="fill:#FFCE6E;" points="297.093,445.449 214.907,445.449 193.515,397.561 318.485,397.561 	"/>
	<polygon style="fill:#FFCE6E;" points="339.877,301.785 444.696,301.785 444.696,349.673 339.877,349.673 318.485,325.729 	"/>
	<polygon style="fill:#FFCE6E;" points="339.877,397.561 504.5,397.561 504.5,445.449 339.877,445.449 318.485,421.505 	"/>
</g>
<g>
	<path style="fill:#DB8D49;" d="M206.112,166.818h-25.195c-4.857,0-8.794,3.937-8.794,8.794V445.45h42.784V175.611
		C214.907,170.755,210.969,166.818,206.112,166.818z"/>
	<path style="fill:#DB8D49;" d="M305.888,166.818h25.195c4.857,0,8.794,3.937,8.794,8.794V445.45h-42.784V175.611
		C297.093,170.755,301.031,166.818,305.888,166.818z"/>
</g>
<path d="M205.538,145.747c4.143,0,7.5-3.358,7.5-7.5v-9.133c0-4.142-3.357-7.5-7.5-7.5s-7.5,3.358-7.5,7.5v9.133
	C198.038,142.39,201.396,145.747,205.538,145.747z"/>
<path d="M306.462,145.747c4.143,0,7.5-3.358,7.5-7.5v-9.133c0-4.142-3.357-7.5-7.5-7.5s-7.5,3.358-7.5,7.5v9.133
	C298.962,142.39,302.319,145.747,306.462,145.747z"/>
<path d="M256,150.622c7.017,0,13.614-2.942,18.101-8.073c2.727-3.118,2.41-7.856-0.708-10.583
	c-3.119-2.727-7.856-2.411-10.583,0.708c-1.639,1.873-4.12,2.947-6.81,2.947s-5.172-1.074-6.809-2.947
	c-2.725-3.118-7.464-3.437-10.582-0.711c-3.119,2.726-3.438,7.464-0.711,10.583C242.384,147.678,248.981,150.622,256,150.622z"/>
<path d="M504.5,390.061h-22.402v-40.388c0-4.142-3.357-7.5-7.5-7.5h-22.402v-40.388c0-4.142-3.357-7.5-7.5-7.5h-22.402v-40.388
	c0-4.142-3.357-7.5-7.5-7.5h-22.402V206.01c0-4.142-3.357-7.5-7.5-7.5h-37.514v-91.194c6.062-2.836,10.281-8.977,10.281-16.099
	V76.833c0-9.804-7.977-17.781-17.781-17.781h-25.239c-4.143,0-7.5,3.358-7.5,7.5s3.357,7.5,7.5,7.5h25.239
	c1.533,0,2.781,1.248,2.781,2.781v14.383c0,1.534-1.248,2.781-2.781,2.781H172.123c-1.533,0-2.781-1.248-2.781-2.781V76.833
	c0-1.533,1.248-2.781,2.781-2.781h112.688c4.143,0,7.5-3.358,7.5-7.5s-3.357-7.5-7.5-7.5H172.123
	c-9.805,0-17.781,7.977-17.781,17.781v14.383c0,7.123,4.219,13.263,10.281,16.099v91.194h-37.514c-4.143,0-7.5,3.358-7.5,7.5v40.388
	H97.207c-4.143,0-7.5,3.358-7.5,7.5v40.388H67.305c-4.143,0-7.5,3.358-7.5,7.5v40.388H37.402c-4.143,0-7.5,3.358-7.5,7.5v40.388H7.5
	c-4.143,0-7.5,3.358-7.5,7.5v47.888c0,4.142,3.357,7.5,7.5,7.5h497c4.143,0,7.5-3.358,7.5-7.5V397.56
	C512,393.419,508.643,390.061,504.5,390.061z M467.098,390.061H347.377v-32.888h119.721L467.098,390.061L467.098,390.061z
	 M437.195,342.173h-89.818v-32.888h89.818V342.173z M407.293,294.285h-59.916v-32.888h59.916L407.293,294.285L407.293,294.285z
	 M377.391,213.51v32.888h-30.014V213.51H377.391z M332.377,108.997v50.371c-0.427-0.034-26.487-0.051-26.489-0.051
	c-5.921,0-11.59,3.421-14.376,8.638c-0.028,0.053-0.061,0.103-0.088,0.156h-70.848c-1.592-3.064-4.192-5.584-7.283-7.115
	c-2.223-1.101-4.701-1.679-7.181-1.679c0,0-26.063,0.017-26.489,0.051v-50.371C179.623,108.997,332.377,108.997,332.377,108.997z
	 M289.593,183.111v15.397h-67.186v-15.397H289.593z M289.593,246.398h-67.186V213.51h67.186V246.398z M289.593,294.285h-67.186
	v-32.888h67.186V294.285z M222.407,309.285h67.186v32.888h-67.186L222.407,309.285L222.407,309.285z M222.407,357.173h67.186v32.888
	h-67.186L222.407,357.173L222.407,357.173z M134.609,213.51h30.014v32.888h-30.014L134.609,213.51L134.609,213.51z M104.707,261.397
	h59.916v32.888h-59.916V261.397z M74.805,309.285h89.818v32.888H74.805V309.285z M15,405.061h60.807c4.143,0,7.5-3.358,7.5-7.5
	s-3.357-7.5-7.5-7.5H44.902v-32.888h119.721v32.888H105.05c-4.143,0-7.5,3.358-7.5,7.5s3.357,7.5,7.5,7.5h59.573v32.888H15V405.061z
	 M207.407,437.949h-27.784V175.611c0-0.714,0.58-1.294,1.294-1.294h25.195c0.714,0,1.295,0.581,1.295,1.294V437.949z
	 M222.407,405.061h67.186v32.888h-67.186L222.407,405.061L222.407,405.061z M304.593,175.611c0-0.714,0.581-1.294,1.295-1.294
	h25.195c0.714,0,1.294,0.581,1.294,1.294v262.337h-27.784L304.593,175.611L304.593,175.611z M497,437.949H347.377v-32.888H497
	V437.949z"/>
<g>
</g>
<g>
</g>
<g>
</g>
<g>
</g>
<g>
</g>
<g>
</g>
<g>
</g>
<g>
</g>
<g>
</g>
<g>
</g>
<g>
</g>
<g>
</g>
<g>
</g>
<g>
</g>
<g>
</g>
</svg>
