<?xml version="1.0" encoding="iso-8859-1"?>
<!-- Generator: Adobe Illustrator 19.0.0, SVG Export Plug-In . SVG Version: 6.00 Build 0)  -->
<svg version="1.1" id="Capa_1" xmlns="http://www.w3.org/2000/svg" xmlns:xlink="http://www.w3.org/1999/xlink" x="0px" y="0px"
	 viewBox="0 0 512.001 512.001" style="enable-background:new 0 0 512.001 512.001;" xml:space="preserve">
<g>
	<path style="fill:#F7F7F7;" d="M451.215,97.775c-3.773,0-7.395,0.642-10.772,1.808c-2.905-21.125-21.017-37.4-42.94-37.4
		c-9.032,0-17.418,2.764-24.361,7.49c-7.752-17.012-24.893-28.845-44.808-28.845c-27.188,0-49.229,22.04-49.229,49.229v73.727
		h172.11c18.228,0,33.004-14.776,33.004-33.004S469.443,97.775,451.215,97.775z"/>
	<path style="fill:#F7F7F7;" d="M52.951,253.228c2.877,0,5.639,0.489,8.214,1.379c2.215-16.11,16.027-28.52,32.745-28.52
		c6.888,0,13.282,2.108,18.577,5.712c5.912-12.973,18.982-21.997,34.169-21.997c20.733,0,37.541,16.808,37.541,37.541v56.222H52.951
		c-13.9,0-25.168-11.268-25.168-25.168C27.783,264.497,39.051,253.228,52.951,253.228z"/>
</g>
<path style="fill:#678DBF;" d="M399.031,281.415c0,0-56.049-26.458-56.049-60.361l-75.229-22.979l-75.229,22.979
	c0,33.903-56.049,60.361-56.049,60.361l128.263,19.656L399.031,281.415z"/>
<path style="fill:#597AA6;" d="M166.474,281.415c0,0,56.049-26.458,56.049-60.36l60.229-18.397l-15-4.582l-75.229,22.979
	c0,33.903-56.049,60.36-56.049,60.36l128.263,19.656l15.345-2.246L166.474,281.415z"/>
<path style="fill:#678DBF;" d="M290.594,20.624C288.272,12.837,281.112,7.5,272.987,7.5h-10.468
	c-8.125,0-15.286,5.337-17.607,13.124l-52.388,143.159l75.229,34.293l75.229-34.293L290.594,20.624z"/>
<path style="fill:#597AA6;" d="M222.523,163.783l52.388-143.16c1.308-4.388,4.153-7.997,7.841-10.313
	c-2.857-1.793-6.219-2.811-9.766-2.811h-10.468c-8.125,0-15.286,5.337-17.607,13.124l-52.388,143.16l75.229,34.292l15-6.837
	L222.523,163.783z"/>
<rect x="192.521" y="163.78" style="fill:#DB8D49;" width="150.46" height="57.27"/>
<rect x="192.521" y="163.78" style="fill:#C47E41;" width="30" height="57.27"/>
<polygon style="fill:#DB8D49;" points="264.737,301.071 136.474,320.727 136.474,465.188 264.737,484.844 393,465.188 393,320.727 
	"/>
<polygon style="fill:#C47E41;" points="166.474,465.189 166.474,320.727 279.737,303.37 264.737,301.071 136.474,320.727 
	136.474,465.189 264.737,484.844 279.737,482.545 "/>
<path style="fill:#FFAC55;" d="M393,281.415H136.474c-5.955,0-10.783,4.828-10.783,10.783v17.745
	c0,5.955,4.828,10.783,10.783,10.783H393c5.955,0,10.783-4.828,10.783-10.783v-17.745C403.784,286.243,398.956,281.415,393,281.415z
	"/>
<path style="fill:#DB8D49;" d="M155.691,309.943v-17.745c0-5.956,4.828-10.783,10.783-10.783h-30
	c-5.955,0-10.783,4.828-10.783,10.783v17.745c0,5.956,4.828,10.783,10.783,10.783h30
	C160.519,320.727,155.691,315.899,155.691,309.943z"/>
<path style="fill:#FFAC55;" d="M393,465.188H136.474c-5.955,0-10.783,4.828-10.783,10.783v17.745
	c0,5.955,4.828,10.783,10.783,10.783H393c5.955,0,10.783-4.828,10.783-10.783v-17.745C403.784,470.016,398.956,465.188,393,465.188z
	"/>
<path style="fill:#DB8D49;" d="M155.691,493.717v-17.745c0-5.956,4.828-10.783,10.783-10.783h-30
	c-5.955,0-10.783,4.828-10.783,10.783v17.745c0,5.955,4.828,10.783,10.783,10.783h30C160.519,504.5,155.691,499.672,155.691,493.717
	z"/>
<circle style="fill:#FFFFFF;" cx="264.741" cy="392.96" r="50.31"/>
<path d="M221.756,201.132c4.142,0,7.5-3.358,7.5-7.5v-8.325c0-4.142-3.358-7.5-7.5-7.5s-7.5,3.358-7.5,7.5v8.325
	C214.256,197.774,217.614,201.132,221.756,201.132z"/>
<path d="M313.749,201.132c4.142,0,7.5-3.358,7.5-7.5v-8.325c0-4.142-3.358-7.5-7.5-7.5s-7.5,3.358-7.5,7.5v8.325
	C306.249,197.774,309.607,201.132,313.749,201.132z"/>
<path d="M267.752,205.576c6.589,0,12.785-2.765,17-7.586c2.726-3.119,2.408-7.857-0.711-10.583s-7.857-2.408-10.583,0.711
	c-1.366,1.563-3.445,2.458-5.706,2.458s-4.34-0.896-5.706-2.459c-2.727-3.118-7.464-3.437-10.583-0.71
	c-3.118,2.727-3.436,7.464-0.71,10.583C254.968,202.811,261.164,205.576,267.752,205.576z"/>
<path d="M264.737,335.152c-31.874,0-57.806,25.932-57.806,57.806c0,31.875,25.932,57.806,57.806,57.806s57.806-25.932,57.806-57.806
	C322.543,361.083,296.611,335.152,264.737,335.152z M264.737,435.764c-23.603,0-42.806-19.203-42.806-42.806
	s19.203-42.806,42.806-42.806s42.806,19.203,42.806,42.806S288.34,435.764,264.737,435.764z"/>
<path d="M287.799,385.458h-15.562v-15.562c0-4.142-3.358-7.5-7.5-7.5s-7.5,3.358-7.5,7.5v23.062c0,4.142,3.358,7.5,7.5,7.5h23.062
	c4.142,0,7.5-3.358,7.5-7.5S291.941,385.458,287.799,385.458z"/>
<path d="M227.022,69.51c-3.889-1.422-8.197,0.576-9.621,4.466c0,0-31.917,87.218-31.921,87.23c-0.3,0.821-0.457,1.703-0.457,2.578
	v57.271c0,0.853-0.06,1.705-0.153,2.555c-8.015-12.802-22.266-21.308-38.212-21.308c-14.904,0-28.726,7.427-37.046,19.438
	c-4.937-2.076-10.254-3.152-15.701-3.152c-17.452,0-32.739,11.276-38.312,27.249c-0.879-0.071-1.762-0.107-2.648-0.107
	c-18.013,0-32.668,14.655-32.668,32.668s14.655,32.668,32.668,32.668h65.297c0.423,6.924,4.703,12.811,10.726,15.535v132.716
	c-6.348,2.87-10.783,9.249-10.783,16.656v17.745c0,10.082,8.202,18.283,18.283,18.283h256.527c10.082,0,18.283-8.202,18.283-18.283
	v-17.745c0-7.407-4.435-13.786-10.783-16.656V326.599c6.348-2.87,10.783-9.249,10.783-16.656v-17.745
	c0-4.835-1.9-9.225-4.976-12.498c-0.513-2.173-1.965-4.068-4.072-5.065c-14.395-6.817-51.754-29.732-51.754-53.58v-49.771h100.733
	c22.334,0,40.504-18.17,40.504-40.504s-18.17-40.504-40.504-40.504c-1.712,0-3.416,0.107-5.103,0.322
	c-6.456-20.947-26.096-35.914-48.609-35.914c-7.479,0-14.765,1.619-21.439,4.729c-10.338-16.066-28.305-26.084-47.729-26.084
	c-8.099,0-16.002,1.715-23.277,4.995l-7.348-20.08C294.388,7.489,284.258,0,272.986,0h-10.468c-11.272,0-21.402,7.489-24.723,18.243
	l-10.17,27.791c-1.424,3.89,0.576,8.197,4.465,9.621c3.89,1.424,8.197-0.575,9.621-4.465l10.242-27.988
	c0.053-0.144,0.101-0.289,0.145-0.435c1.363-4.573,5.648-7.767,10.42-7.767h10.468c4.772,0,9.057,3.194,10.42,7.767
	c0.043,0.146,0.092,0.292,0.144,0.435l48.701,133.082H203.254l28.233-77.152C232.911,75.241,230.911,70.934,227.022,69.51z
	 M393.557,288.971c0.082,0.015,0.164,0.034,0.248,0.055c1.421,0.361,2.479,1.64,2.479,3.172v17.745c0,1.811-1.473,3.283-3.283,3.283
	H136.474c-1.811,0-3.283-1.473-3.283-3.283v-17.745c0-1.811,1.473-3.283,3.283-3.283h256.527
	C393.191,288.915,393.376,288.94,393.557,288.971z M35.283,278.396c0-9.742,7.926-17.668,17.668-17.668
	c1.967,0,3.906,0.326,5.766,0.968c4.415,1.524,9.243-1.453,9.878-6.067c1.728-12.566,12.611-22.042,25.315-22.042
	c5.151,0,10.116,1.526,14.358,4.412c3.801,2.586,9.144,1.081,11.044-3.091c4.874-10.695,15.607-17.606,27.345-17.606
	c14.647,0,27.154,10.754,29.596,24.94c-4.341,5.513-9.877,10.671-15.655,15.232c-11.044,8.662-22.395,14.68-26.088,16.547
	c-5.868,0.63-11.194,4.278-14.061,9.412c-2.235,4.001-2.246,8.199-2.258,12.633c-21.663,0.033-43.326,0-64.988,0
	c-0.084,0-0.168,0-0.252,0C43.209,296.064,35.283,288.139,35.283,278.396z M396.284,493.717c0,1.811-1.473,3.283-3.283,3.283
	H136.474c-1.811,0-3.283-1.473-3.283-3.283v-17.745c0-1.811,1.473-3.283,3.283-3.283h192.787c4.142,0,7.5-3.358,7.5-7.5
	s-3.358-7.5-7.5-7.5H143.974V328.227h241.527v129.462h-26.614c-4.142,0-7.5,3.358-7.5,7.5s3.358,7.5,7.5,7.5h34.114
	c1.811,0,3.283,1.473,3.283,3.283V493.717z M371.88,273.915H163.639c9.964-7.06,19.415-15.207,26.538-25.205
	c0.198-0.278,0.37-0.571,0.527-0.871c4.123-5.956,7.233-12.417,8.58-19.284H336.22C339.931,247.46,356.956,263.31,371.88,273.915z
	 M328.334,48.328c16.304,0,31.213,9.599,37.983,24.454c1.904,4.177,7.25,5.675,11.045,3.091c5.951-4.049,12.916-6.19,20.142-6.19
	c17.82,0,33.086,13.293,35.51,30.92c0.637,4.628,5.465,7.593,9.878,6.069c2.686-0.927,5.486-1.397,8.325-1.397
	c14.063,0,25.504,11.441,25.504,25.504s-11.441,25.504-25.504,25.504H348.224l-37.996-103.83
	C315.844,49.742,322.008,48.328,328.334,48.328z M335.482,171.283v42.271H200.023v-42.271H335.482z"/>
<g>
</g>
<g>
</g>
<g>
</g>
<g>
</g>
<g>
</g>
<g>
</g>
<g>
</g>
<g>
</g>
<g>
</g>
<g>
</g>
<g>
</g>
<g>
</g>
<g>
</g>
<g>
</g>
<g>
</g>
</svg>
