<?xml version="1.0" encoding="iso-8859-1"?>
<!-- Generator: Adobe Illustrator 19.0.0, SVG Export Plug-In . SVG Version: 6.00 Build 0)  -->
<svg version="1.1" id="Capa_1" xmlns="http://www.w3.org/2000/svg" xmlns:xlink="http://www.w3.org/1999/xlink" x="0px" y="0px"
	 viewBox="0 0 512 512" style="enable-background:new 0 0 512 512;" xml:space="preserve">
<polygon style="fill:#A3A3A3;" points="347.983,232.378 336.917,198.352 175.083,198.352 164.016,232.378 256,251.641 "/>
<polygon style="fill:#8E8E8E;" points="256,295.087 164.021,320.972 164.016,320.967 128.899,402.005 164.02,503.832 
	201.349,503.832 256,472.265 310.649,503.832 347.98,503.832 347.98,320.972 "/>
<g>
	<polygon style="fill:#BDBDBD;" points="164.016,232.378 136.951,285.414 164.016,320.967 347.983,320.967 347.983,232.378 	"/>
	<path style="fill:#BDBDBD;" d="M310.649,420.263v83.569h-109.3v-83.569c0-15.213,7.565-29.428,20.192-37.931l26.719-17.993
		c4.674-3.146,10.803-3.146,15.478,0l26.719,17.993C303.084,390.835,310.649,405.05,310.649,420.263z"/>
</g>
<path style="fill:#DEDEDE;" d="M128.899,503.832h35.12V26.753c0-10.264-8.319-18.584-18.584-18.584H42.418
	c-10.264,0-18.584,8.319-18.584,18.584v477.078h35.12l34.971-27.652L128.899,503.832z"/>
<path style="fill:#BDBDBD;" d="M128.899,437.115v66.717H58.955v-66.717c0-9.734,4.837-18.828,12.922-24.265l17.097-11.517
	c2.994-2.016,6.914-2.016,9.907,0l17.097,11.517C124.052,418.288,128.899,427.38,128.899,437.115z"/>
<g>
	<path style="fill:#A3A3A3;" d="M63.972,81.507L63.972,81.507c-7.219,0-13.073,5.852-13.073,13.073v103.774l13.073,12.728
		l13.073-12.729V94.578C77.044,87.359,71.192,81.507,63.972,81.507z"/>
	<path style="fill:#A3A3A3;" d="M123.879,81.507L123.879,81.507c-7.219,0-13.073,5.852-13.073,13.073v103.774l13.073,12.729
		l13.073-12.729V94.578C136.951,87.359,131.098,81.507,123.879,81.507z"/>
	<path style="fill:#A3A3A3;" d="M63.972,248.502L63.972,248.502c-7.219,0-13.073,5.852-13.073,13.073v59.393l13.073,12.729
		l13.073-12.729v-59.393C77.044,254.355,71.192,248.502,63.972,248.502z"/>
	<path style="fill:#A3A3A3;" d="M123.879,248.502L123.879,248.502c-7.219,0-13.073,5.852-13.073,13.073v59.393l13.073,12.729
		l13.073-12.729v-59.393C136.951,254.355,131.098,248.502,123.879,248.502z"/>
</g>
<path style="fill:#BDBDBD;" d="M175.083,198.352H12.768c-4.095,0-6.626,4.465-4.523,7.978l15.59,26.047h140.181l15.59-26.047
	C181.709,202.817,179.177,198.352,175.083,198.352z"/>
<path style="fill:#DEDEDE;" d="M383.1,503.832h-35.12V26.753c0-10.264,8.319-18.584,18.584-18.584h103.017
	c10.264,0,18.584,8.319,18.584,18.584v477.078h-35.12l-34.971-27.652L383.1,503.832z"/>
<path style="fill:#BDBDBD;" d="M383.1,437.115v66.717h69.945v-66.717c0-9.734-4.837-18.828-12.922-24.265l-17.097-11.517
	c-2.994-2.016-6.914-2.016-9.907,0l-17.097,11.517C387.947,418.288,383.1,427.38,383.1,437.115z"/>
<g>
	<path style="fill:#A3A3A3;" d="M448.027,81.507L448.027,81.507c7.219,0,13.073,5.852,13.073,13.073v103.774l-13.073,12.729
		l-13.073-12.729V94.578C434.955,87.359,440.807,81.507,448.027,81.507z"/>
	<path style="fill:#A3A3A3;" d="M388.121,81.507L388.121,81.507c7.219,0,13.073,5.852,13.073,13.073v103.774l-13.073,12.729
		l-13.073-12.729V94.578C375.048,87.359,380.901,81.507,388.121,81.507z"/>
	<path style="fill:#A3A3A3;" d="M448.027,248.502L448.027,248.502c7.219,0,13.073,5.852,13.073,13.073v59.393l-13.073,12.729
		l-13.073-12.729v-59.393C434.955,254.355,440.807,248.502,448.027,248.502z"/>
	<path style="fill:#A3A3A3;" d="M388.121,248.502L388.121,248.502c7.219,0,13.073,5.852,13.073,13.073v59.393l-13.073,12.729
		l-13.073-12.729v-59.393C375.048,254.355,380.901,248.502,388.121,248.502z"/>
</g>
<g>
	<path style="fill:#BDBDBD;" d="M336.917,198.352h162.315c4.095,0,6.626,4.465,4.523,7.978l-15.59,26.047H347.983l-15.59-26.047
		C330.29,202.817,332.821,198.352,336.917,198.352z"/>
	<path style="fill:#BDBDBD;" d="M175.083,320.967H12.768c-4.095,0-6.626,4.465-4.523,7.978l15.59,26.047h140.181l15.59-26.047
		C181.709,325.432,179.177,320.967,175.083,320.967z"/>
	<path style="fill:#BDBDBD;" d="M336.917,320.967h162.315c4.095,0,6.626,4.465,4.523,7.978l-15.59,26.047H347.983l-15.59-26.047
		C330.29,325.432,332.821,320.967,336.917,320.967z"/>
</g>
<path d="M201.016,279.137c4.142,0,7.5-3.358,7.5-7.5v-9.951c0-4.142-3.358-7.5-7.5-7.5c-4.142,0-7.5,3.358-7.5,7.5v9.951
	C193.516,275.779,196.874,279.137,201.016,279.137z"/>
<path d="M310.982,279.137c4.142,0,7.5-3.358,7.5-7.5v-9.951c0-4.142-3.358-7.5-7.5-7.5s-7.5,3.358-7.5,7.5v9.951
	C303.482,275.779,306.84,279.137,310.982,279.137z"/>
<path d="M256,284.449c7.453,0,14.458-3.123,19.217-8.568c2.727-3.119,2.408-7.856-0.71-10.583c-3.119-2.727-7.857-2.409-10.583,0.71
	c-1.911,2.186-4.799,3.44-7.923,3.44c-3.124,0-6.012-1.254-7.923-3.44c-2.726-3.119-7.464-3.438-10.583-0.71
	c-3.119,2.726-3.437,7.464-0.71,10.583C241.542,281.326,248.547,284.449,256,284.449z"/>
<path d="M12.768,313.466c-4.59,0-8.847,2.48-11.11,6.473s-2.205,8.919,0.152,12.857l14.526,24.268v146.767
	c0,4.142,3.358,7.5,7.5,7.5h464.33c4.142,0,7.5-3.358,7.5-7.5V357.064l14.525-24.268c2.357-3.938,2.416-8.864,0.152-12.858
	c-2.263-3.993-6.521-6.473-11.111-6.473h-3.566V234.45l14.525-24.268c2.357-3.938,2.416-8.864,0.152-12.858
	c-2.263-3.993-6.521-6.473-11.111-6.473h-3.566V26.753c0-14.383-11.702-26.084-26.084-26.084H366.563
	c-14.383,0-26.084,11.702-26.084,26.084v27.288c0,4.142,3.358,7.5,7.5,7.5c4.142,0,7.5-3.358,7.5-7.5V26.753
	c0-6.111,4.972-11.083,11.083-11.083h103.018c6.111,0,11.083,4.972,11.083,11.083v164.098h-12.065V94.579
	c0-11.344-9.229-20.573-20.573-20.573s-20.572,9.229-20.572,20.573v96.273h-18.762V94.579c0-11.344-9.228-20.573-20.572-20.573
	c-11.344,0-20.573,9.229-20.573,20.573v96.273H355.48V83.941c0-4.142-3.358-7.5-7.5-7.5c-4.142,0-7.5,3.358-7.5,7.5v106.911H171.519
	V157.44c0-4.142-3.358-7.5-7.5-7.5c-4.142,0-7.5,3.358-7.5,7.5v33.411h-12.068V94.579c0-11.344-9.229-20.573-20.573-20.573
	c-11.343,0-20.572,9.229-20.572,20.573v96.273H84.544V94.579c0-11.344-9.228-20.573-20.572-20.573s-20.573,9.228-20.573,20.573
	v96.273H31.335V26.753c0-6.111,4.972-11.083,11.083-11.083h103.018c6.111,0,11.083,4.972,11.083,11.083v101.838
	c0,4.142,3.358,7.5,7.5,7.5c4.142,0,7.5-3.358,7.5-7.5V26.753c0-14.383-11.702-26.084-26.084-26.084H42.418
	c-14.383,0-26.084,11.702-26.084,26.084v164.098h-3.566c-4.59,0-8.847,2.48-11.11,6.473c-2.263,3.993-2.205,8.919,0.152,12.857
	l14.526,24.268v79.016L12.768,313.466L12.768,313.466z M69.544,313.466H58.4v-51.892c0-3.072,2.5-5.572,5.572-5.572
	c3.072,0,5.571,2.499,5.571,5.572V313.466z M171.151,328.467l-11.387,19.025H28.087L16.7,328.467H171.151z M129.45,313.466h-11.144
	v-51.892c0-3.072,2.5-5.572,5.571-5.572c3.072,0,5.572,2.499,5.572,5.572V313.466z M186.734,208.827
	c0.424-0.951,0.741-1.949,0.922-2.975h136.687c0.07,0.397,0.161,0.79,0.269,1.18c0.302,1.094,0.762,2.175,1.345,3.15l8.795,14.695
	H177.246l8.795-14.695C186.304,209.744,186.528,209.289,186.734,208.827z M393.692,313.466h-11.143v-51.892
	c0-3.072,2.5-5.572,5.572-5.572c3.072,0,5.571,2.499,5.571,5.572V313.466z M495.3,328.467l-11.388,19.025H352.235l-11.388-19.025
	H495.3z M453.599,313.466h-11.143v-51.892c0-3.072,2.5-5.572,5.571-5.572c3.072,0,5.572,2.499,5.572,5.572V313.466z
	 M171.519,239.878h168.96v73.588h-168.96V239.878z M94.691,407.553l17.098,11.518c6.018,4.052,9.61,10.797,9.61,18.044v59.217
	H66.454v-59.217c0-7.251,3.591-13.996,9.612-18.045l17.096-11.517c0.286-0.192,0.573-0.233,0.765-0.233
	C94.119,407.321,94.406,407.362,94.691,407.553z M120.168,406.629l-17.098-11.518c-2.711-1.826-5.873-2.792-9.143-2.792
	c-3.271,0-6.432,0.965-9.145,2.792l-17.092,11.514c-10.167,6.837-16.237,18.235-16.237,30.489v59.217H31.335V362.492h125.184
	v133.839H136.4v-59.217C136.4,424.869,130.331,413.473,120.168,406.629z M208.85,420.263c0-1.592,0.099-3.17,0.292-4.727
	c1.352-10.899,7.34-20.753,16.59-26.981c0,0,26.685-17.97,26.718-17.993c2.027-1.365,4.977-1.43,7.099-0.001l26.72,17.993
	c9.249,6.228,15.237,16.082,16.59,26.981c0.193,1.557,0.292,3.135,0.292,4.727v76.068h-94.3v-76.067H208.85z M318.151,420.263
	c0-15.52-6.727-30.096-18.268-40.137c-1.649-1.434-3.396-2.776-5.235-4.015l-26.721-17.994c-3.536-2.38-7.66-3.638-11.928-3.638
	c-4.233,0-8.416,1.274-11.929,3.638l-26.719,17.993c-1.84,1.239-3.586,2.58-5.235,4.015c-11.542,10.04-18.268,24.617-18.268,40.137
	v76.068h-22.329V357.06l14.522-24.262c0.582-0.972,1.043-2.055,1.345-3.148c0.108-0.39,0.2-0.784,0.27-1.182h136.687
	c0.07,0.397,0.162,0.79,0.269,1.18c0.302,1.095,0.762,2.175,1.345,3.15l13.545,22.629l0.977,1.633v139.272H318.15L318.151,420.263
	L318.151,420.263z M400.212,419.071l17.096-11.517c0.286-0.192,0.573-0.233,0.765-0.233c0.191,0,0.479,0.041,0.763,0.232
	l17.102,11.521c6.016,4.045,9.607,10.79,9.607,18.042v59.217h-54.944v-59.217c0-3.17,0.688-6.244,1.965-9.039
	C394.208,424.482,396.826,421.35,400.212,419.071z M480.664,496.331h-20.119v-59.217c0-12.254-6.069-23.651-16.232-30.485
	l-17.097-11.518c-2.711-1.826-5.873-2.792-9.143-2.792c-1.226,0-2.438,0.136-3.615,0.402c-1.963,0.443-3.834,1.249-5.529,2.39
	l-17.095,11.516c-10.164,6.844-16.233,18.241-16.233,30.486v59.217h-20.119V362.492h125.184v133.839H480.664z M468.599,313.466
	v-51.892c0-11.344-9.229-20.573-20.573-20.573s-20.572,9.229-20.572,20.573v51.892h-18.762v-51.892
	c0-11.344-9.229-20.573-20.573-20.573c-11.344,0-20.572,9.229-20.572,20.573v51.892h-12.065v-73.588h125.181v73.588H468.599z
	 M442.455,94.579c0-3.072,2.499-5.572,5.571-5.572c3.072,0,5.572,2.5,5.572,5.572v96.273h-11.143V94.579z M382.549,94.579
	c0-3.072,2.5-5.572,5.572-5.572c3.072,0,5.571,2.5,5.571,5.572v96.273h-11.143V94.579z M495.3,205.852l-11.388,19.025H352.235
	l-11.388-19.025H495.3z M118.307,94.579c0-3.072,2.499-5.572,5.571-5.572s5.572,2.5,5.572,5.572v96.273h-11.144
	C118.307,190.853,118.307,94.579,118.307,94.579z M58.4,94.579c0-3.072,2.5-5.572,5.572-5.572s5.571,2.5,5.571,5.572v96.273H58.4
	V94.579z M171.151,205.852l-11.387,19.025H28.087L16.7,205.852H171.151z M31.335,239.878h125.184v73.588h-12.068v-51.892
	c0-11.344-9.229-20.573-20.573-20.573c-11.343,0-20.572,9.229-20.572,20.573v51.892H84.544v-51.892
	c0-11.344-9.228-20.573-20.572-20.573s-20.573,9.229-20.573,20.573v51.892H31.335V239.878z"/>
<g>
</g>
<g>
</g>
<g>
</g>
<g>
</g>
<g>
</g>
<g>
</g>
<g>
</g>
<g>
</g>
<g>
</g>
<g>
</g>
<g>
</g>
<g>
</g>
<g>
</g>
<g>
</g>
<g>
</g>
</svg>
