<?xml version="1.0" encoding="iso-8859-1"?>
<!-- Generator: Adobe Illustrator 19.0.0, SVG Export Plug-In . SVG Version: 6.00 Build 0)  -->
<svg version="1.1" id="Capa_1" xmlns="http://www.w3.org/2000/svg" xmlns:xlink="http://www.w3.org/1999/xlink" x="0px" y="0px"
	 viewBox="0 0 512 512" style="enable-background:new 0 0 512 512;" xml:space="preserve">
<path style="fill:#FF6835;" d="M432.108,235.426H79.893c-5.058,0-9.159,4.1-9.159,9.159v17.635c0,5.058,4.1,9.159,9.159,9.159
	h352.216c5.058,0,9.159-4.1,9.159-9.159v-17.635C441.267,239.526,437.166,235.426,432.108,235.426z"/>
<g>
	<path style="fill:#FF462E;" d="M118.524,169.092v324.185c0,6.198,5.025,11.223,11.223,11.223h24.021
		c6.198,0,11.223-5.025,11.223-11.223V169.092H118.524z"/>
	<path style="fill:#FF462E;" d="M393.477,169.092v324.185c0,6.198-5.025,11.223-11.223,11.223h-24.021
		c-6.198,0-11.223-5.025-11.223-11.223V169.092H393.477z"/>
</g>
<path style="fill:#FF6835;" d="M438.112,131.234c0,0-1.222,56.358-44.636,56.358H118.524c-43.413,0-44.636-56.358-44.636-56.358
	H438.112z"/>
<path style="fill:#FF462E;" d="M256,155.549c0,0,115.425-1.52,182.112-24.315c47.094-16.098,58.337-77.478,60.878-112.157
	c0.673-9.181-8.768-14.943-15.447-9.411C452.538,35.342,376.643,85.373,256,85.373S59.463,35.342,28.458,9.666
	c-6.68-5.532-16.12,0.23-15.447,9.411c2.541,34.679,13.784,96.059,60.878,112.157C140.576,154.029,256,155.549,256,155.549z"/>
<g>
	<rect x="164.99" y="235.43" style="fill:#E65E30;" width="30.446" height="35.952"/>
	<rect x="88.08" y="235.43" style="fill:#E65E30;" width="30.446" height="35.952"/>
	<rect x="393.48" y="235.43" style="fill:#E65E30;" width="30.446" height="35.952"/>
	<rect x="316.56" y="235.43" style="fill:#E65E30;" width="30.446" height="35.952"/>
</g>
<path d="M189.097,120.425v-13.466c0-4.142-3.358-7.5-7.5-7.5s-7.5,3.358-7.5,7.5v13.466c0,4.142,3.358,7.5,7.5,7.5
	S189.097,124.567,189.097,120.425z"/>
<path d="M337.903,120.425v-13.466c0-4.142-3.357-7.5-7.5-7.5s-7.5,3.358-7.5,7.5v13.466c0,4.142,3.357,7.5,7.5,7.5
	S337.903,124.567,337.903,120.425z"/>
<path d="M256,135.112c9.322,0,18.073-3.896,24.011-10.689c2.726-3.119,2.407-7.857-0.712-10.583
	c-3.118-2.726-7.855-2.408-10.583,0.711c-3.088,3.534-7.723,5.56-12.716,5.56c-4.993,0-9.628-2.027-12.717-5.561
	c-2.726-3.119-7.464-3.438-10.583-0.711c-3.119,2.726-3.438,7.464-0.711,10.583C237.927,131.216,246.678,135.112,256,135.112z"/>
<path d="M22.013,15.184c0.598-0.309,1.065-0.236,1.662,0.259c12.619,10.45,33.819,25.895,63.163,40.136
	c3.726,1.809,8.213,0.254,10.022-3.473c1.808-3.726,0.253-8.213-3.473-10.022c-28-13.589-48.162-28.27-60.145-38.194
	c-5.221-4.323-12.158-5.104-18.104-2.038C8.751,5.146,4.98,12.122,5.53,19.625c2.614,35.68,14.099,97.221,61.225,116.92
	c0.598,5.799,2.16,15.707,6.223,25.694c7.672,18.857,20.738,29.912,38.045,32.34v33.346H79.892c-9.186,0-16.659,7.473-16.659,16.659
	v17.635c0,9.186,7.473,16.658,16.659,16.658h31.132v214.4c0,10.324,8.399,18.723,18.723,18.723h24.021
	c10.324,0,18.723-8.399,18.723-18.723v-214.4h111.544c4.143,0,7.5-3.358,7.5-7.5s-3.357-7.5-7.5-7.5H172.49v-20.952h167.02v20.952
	h-25.516c-4.143,0-7.5,3.358-7.5,7.5s3.357,7.5,7.5,7.5h25.516v214.4c0,10.324,8.399,18.723,18.723,18.723h24.021
	c10.323,0,18.723-8.399,18.723-18.723v-214.4h31.131c9.186,0,16.659-7.473,16.659-16.658v-17.635
	c0-9.186-7.474-16.659-16.659-16.659h-31.131V194.58c17.307-2.428,30.373-13.483,38.045-32.34
	c4.063-9.987,5.626-19.895,6.223-25.694c47.124-19.699,58.61-81.24,61.226-116.921c0.549-7.503-3.223-14.479-9.608-17.772
	c-5.945-3.065-12.882-2.285-18.104,2.038c-15.334,12.698-41.356,31.043-78.245,46.33C356.231,68.57,307.61,77.874,256,77.874
	c-48.503,0-94.474-8.246-136.638-24.508c-3.866-1.49-8.206,0.434-9.697,4.299c-1.491,3.864,0.434,8.206,4.299,9.696
	C157.856,84.29,205.645,92.874,256,92.874c53.591,0,104.145-9.688,150.256-28.797c38.612-16,65.942-35.278,82.069-48.633
	c0.599-0.496,1.063-0.568,1.662-0.259c0.823,0.425,1.656,1.526,1.523,3.345c-2.43,33.146-12.913,90.941-55.824,105.609
	c-17.851,6.102-36.445,9.95-55.027,13.035c-58.459,9.703-121.713,10.83-124.66,10.876c-2.895-0.045-63.599-1.121-121.016-10.28
	c-19.849-3.166-39.58-7.267-58.67-13.63C33.4,109.469,22.919,51.675,20.49,18.529C20.357,16.711,21.189,15.609,22.013,15.184z
	 M79.892,263.878c-0.915,0-1.659-0.744-1.659-1.658v-17.635c0-0.915,0.744-1.659,1.659-1.659h31.132v20.952L79.892,263.878
	L79.892,263.878z M157.49,493.278c0,2.053-1.67,3.723-3.723,3.723h-24.021c-2.053,0-3.723-1.67-3.723-3.723V195.093h31.466v298.185
	H157.49z M172.49,227.926v-32.833h167.02v32.833H172.49z M385.977,493.278c0,2.053-1.67,3.723-3.723,3.723h-24.021
	c-2.053,0-3.723-1.67-3.723-3.723V195.093h31.467L385.977,493.278L385.977,493.278z M432.107,242.926
	c0.915,0,1.659,0.744,1.659,1.659v17.635c0,0.915-0.744,1.658-1.659,1.658h-31.131v-20.952H432.107z M393.477,180.093H118.524
	c-25.256,0-33.348-23.805-35.933-38.26c11.938,3.461,24.087,6.149,36.303,8.421c62.603,11.655,133.257,12.746,137.007,12.795
	c0.033,0,0.066,0,0.099,0c0.033,0,0.066,0,0.099,0c42.559-0.562,85.521-4.065,127.508-11.115
	c15.418-2.589,30.778-5.746,45.802-10.101C426.823,156.292,418.731,180.093,393.477,180.093z"/>
<g>
</g>
<g>
</g>
<g>
</g>
<g>
</g>
<g>
</g>
<g>
</g>
<g>
</g>
<g>
</g>
<g>
</g>
<g>
</g>
<g>
</g>
<g>
</g>
<g>
</g>
<g>
</g>
<g>
</g>
</svg>
