<?xml version="1.0" encoding="iso-8859-1"?>
<!-- Generator: Adobe Illustrator 19.0.0, SVG Export Plug-In . SVG Version: 6.00 Build 0)  -->
<svg version="1.1" id="Capa_1" xmlns="http://www.w3.org/2000/svg" xmlns:xlink="http://www.w3.org/1999/xlink" x="0px" y="0px"
	 viewBox="0 0 512 512" style="enable-background:new 0 0 512 512;" xml:space="preserve">
<path style="fill:#FFAC55;" d="M263.635,10.915c-4.068-4.553-11.221-4.553-15.289,0c-9.379,10.498-22.391,30.584-8.191,50.483
	h31.671C286.026,41.499,273.014,21.413,263.635,10.915z"/>
<g>
	<path style="fill:#E69B4C;" d="M265.99,13.681c-0.798-0.98-1.589-1.908-2.355-2.766c-4.068-4.553-11.221-4.553-15.289,0
		c-9.379,10.498-22.391,30.584-8.191,50.483h20C247.114,43.125,257.021,24.7,265.99,13.681z"/>
	<path style="fill:#E69B4C;" d="M365.631,110.245c-3.528-4.309-7.35-8.439-11.461-12.363c-7.504-7.166-15.708-13.417-24.457-18.691
		c0.071-0.043,0.047-0.068-0.109-0.068c-21.967-13.215-47.379-20.29-73.904-20.29c-26.526,0-51.937,7.075-73.904,20.29
		c-8.791,5.288-17.031,11.563-24.566,18.759c-4.11,3.925-7.933,8.054-11.461,12.363c-19.297,23.542-29.791,52.43-29.842,82.887v0.07
		h279.546v-0.07C395.422,162.675,384.928,133.787,365.631,110.245z"/>
</g>
<g>
	<path style="fill:#FFAC55;" d="M147.669,246.749c0,11.212-4.6,26.306-18.669,20.278c-13.4-5.742-14.069-17.829-17.872-29.994
		c-4.904-15.69-20.989-26.009-20.988-43.524c0-22.868,28.985-28.958,44.003,0l17.915,15.349L147.669,246.749z"/>
	<path style="fill:#FFAC55;" d="M363.732,246.749c0,11.212,4.6,26.306,18.669,20.278c13.4-5.742,14.069-17.829,17.872-29.994
		c4.904-15.69,20.988-26.009,20.988-43.524c0-22.868-28.985-28.958-44.003,0l-17.915,15.349L363.732,246.749z"/>
</g>
<path style="fill:#FF6835;" d="M420.597,454.52h-30.118l-31.135-19.132H139.321l-17.754,19.132H91.403
	c-13.802,0-24.99,11.188-24.99,24.99l0,0l189.609,12.495l189.564-12.495l0,0C445.587,465.708,434.398,454.52,420.597,454.52z"/>
<path style="fill:#FF462E;" d="M445.587,479.51H66.413c-13.802,0-24.99,11.188-24.99,24.99l0,0h429.153l0,0
	C470.577,490.698,459.388,479.51,445.587,479.51z"/>
<path style="fill:#E69B4C;" d="M338.3,391.317l3.003-81.395l-4.076-29.219L255.7,294.278l-80.947-13.576l-4.656,29.219l3.003,81.395
	c-1.83,14.038-3.003,28.295-3.003,41.784h171.206C341.303,419.611,340.13,405.354,338.3,391.317L338.3,391.317z"/>
<path style="fill:#FFCE6E;" d="M340.73,391.044c84.242,0,49.749,63.476,49.749,63.476H221.683
	C221.683,454.52,266.292,391.044,340.73,391.044z"/>
<path style="fill:#FFAC55;" d="M314.908,437.27c-0.973-1.384-11.88-16.606-31.509-33.087c-39.398,18.59-61.716,50.337-61.716,50.337
	h105.348L314.908,437.27z"/>
<path style="fill:#FFCE6E;" d="M171.316,391.044c-84.242,0-49.749,63.476-49.749,63.476h168.796
	C290.363,454.52,245.753,391.044,171.316,391.044z"/>
<path style="fill:#FFAC55;" d="M185.91,391.874c-4.729-0.535-9.592-0.83-14.594-0.83c-84.242,0-49.749,63.476-49.749,63.476h30
	C151.567,454.52,121.571,399.298,185.91,391.874z"/>
<path style="fill:#FFCE6E;" d="M377.837,193.454c-1.091-0.918-16.511-14.38-21.76-46.396c-2.103-12.827-13.152-22.265-26.15-22.265
	H182.118c-12.998,0-24.047,9.439-26.15,22.265c-5.443,33.197-21.826,46.451-21.826,46.451
	c0.122,64.312,54.627,116.412,121.848,116.412s121.725-52.1,121.848-116.412l-0.001-0.001h0.001
	C377.838,193.49,377.837,193.472,377.837,193.454z"/>
<path style="fill:#FFAC55;" d="M197.944,348.124h-17.322c6.574-30.862,13.8-53.846,13.8-53.846l-0.093-0.38
	c-6.779-3.815-13.138-8.239-18.996-13.195h-0.58c0,0-40.901,26.895-40.901,73.958c0,47.064,64.092,35.952,64.092,35.952
	c10.974,0,19.87-8.896,19.87-19.87v-2.748C217.815,357.02,208.918,348.124,197.944,348.124z"/>
<path style="fill:#E69B4C;" d="M153.852,354.66c0-32.424,19.412-55.273,31.489-66.352c-3.475-2.372-6.819-4.907-10.009-7.606h-0.58
	c0,0-40.901,26.895-40.901,73.958c0,38.75,43.442,38.062,58.793,36.61C174.722,389.427,153.852,381.518,153.852,354.66z"/>
<path style="fill:#FFAC55;" d="M314.036,348.124h17.322c-6.574-30.862-13.8-53.846-13.8-53.846l0.093-0.38
	c6.779-3.815,13.138-8.239,18.996-13.195h0.58c0,0,40.901,26.895,40.901,73.958c0,47.064-64.092,35.952-64.092,35.952
	c-10.974,0-19.87-8.896-19.87-19.87v-2.748C294.165,357.02,303.062,348.124,314.036,348.124z"/>
<path d="M189.824,222.794c4.143,0,7.5-3.358,7.5-7.5v-12.872c0-4.142-3.357-7.5-7.5-7.5s-7.5,3.358-7.5,7.5v12.872
	C182.324,219.436,185.682,222.794,189.824,222.794z"/>
<path d="M181.059,241.713h17.531c4.143,0,7.5-3.358,7.5-7.5s-3.357-7.5-7.5-7.5h-17.531c-4.143,0-7.5,3.358-7.5,7.5
	S176.916,241.713,181.059,241.713z"/>
<path d="M322.222,222.794c4.143,0,7.5-3.358,7.5-7.5v-12.872c0-4.142-3.357-7.5-7.5-7.5s-7.5,3.358-7.5,7.5v12.872
	C314.722,219.436,318.079,222.794,322.222,222.794z"/>
<path d="M313.456,241.713h17.531c4.143,0,7.5-3.358,7.5-7.5s-3.357-7.5-7.5-7.5h-17.531c-4.143,0-7.5,3.358-7.5,7.5
	S309.313,241.713,313.456,241.713z"/>
<path d="M256.022,240.986c6.778,0,13.152-2.844,17.487-7.802c2.727-3.119,2.408-7.856-0.71-10.583
	c-3.12-2.727-7.857-2.409-10.583,0.71c-1.486,1.7-3.744,2.675-6.194,2.675c-2.45,0-4.707-0.975-6.192-2.674
	c-2.725-3.119-7.464-3.437-10.582-0.712c-3.119,2.725-3.438,7.463-0.713,10.583C242.868,238.142,249.242,240.986,256.022,240.986z"
	/>
<path d="M59.631,472.728c-14.669,3.128-25.707,16.183-25.707,31.772c0,4.142,3.357,7.5,7.5,7.5h429.152c4.143,0,7.5-3.358,7.5-7.5
	c0-15.589-11.037-28.644-25.707-31.772c-3.128-14.67-16.184-25.708-31.773-25.708h-18.949c3.383-10.478,6.119-26.575-2.055-40.32
	c-5.587-9.395-15.17-15.952-28.608-19.634c0.074-0.061,0.153-0.115,0.226-0.176c9.182-7.727,13.837-18.57,13.837-32.229
	c0-38.459-24.603-64.158-37.155-74.766c4.534-4.427,8.725-9.176,12.533-14.21c3.531,6.478,9.104,10.215,16.018,10.215
	c20.038,0.002,26.184-21.266,30.987-36.63c1.679-5.37,5.175-10.307,8.876-15.533c5.838-8.242,12.455-17.584,12.454-30.229
	c0-15.642-10.712-26.994-25.47-26.994c-0.977,0-1.948,0.069-2.916,0.17c-4.386-22.307-14.289-43.318-28.94-61.19
	c-10.806-13.2-23.983-24.533-38.661-33.215c-15.054-8.943-31.63-15.113-48.932-18.336c4.653-15.11-0.383-32.096-14.614-48.026
	C265.867,2.157,261.042,0,255.99,0c-5.053,0-9.878,2.157-13.237,5.918c-14.199,15.892-19.248,32.842-14.647,47.928
	c-17.569,3.209-34.407,9.456-49.672,18.557c-3.558,2.121-4.723,6.725-2.602,10.282c2.122,3.559,6.724,4.722,10.283,2.602
	c16.455-9.81,34.954-15.944,54.205-18.085c10.327-1.149,20.937-1.137,31.335,0.066c19.217,2.216,37.659,8.408,54.053,18.265
	c0.044,0.028,0.088,0.055,0.132,0.081c12.885,7.768,24.458,17.742,33.989,29.387c13.604,16.596,22.634,36.201,26.287,56.973
	c-3.441,2.281-6.62,5.223-9.469,8.756c-3.669-5.174-8.316-13.561-11.48-25.797c-1.193-4.612-1.648-9.393-3.038-13.956
	c-4.326-14.163-17.335-24.025-32.495-24.025H181.763c-16.729,0-30.839,12.008-33.551,28.552
	c-2.036,12.419-6.124,24.883-13.459,35.226c-2.85-3.536-6.029-6.48-9.47-8.761c3.653-20.771,12.684-40.374,26.29-56.973
	c3.34-4.08,6.986-8.014,10.838-11.691c1.572-1.501,3.131-3.176,3.516-5.397c0.393-2.265-0.355-4.672-1.916-6.349
	c-3.621-3.88-8.609-2.305-11.961,0.899c-4.291,4.098-8.356,8.484-12.08,13.033c-14.652,17.873-24.556,38.882-28.943,61.185
	c-0.966-0.1-1.935-0.168-2.909-0.168c-14.763,0-25.479,11.355-25.479,27.001c0,12.645,6.616,21.987,12.454,30.229
	c4.927,6.957,8.398,13.408,10.605,21.665c2.801,10.48,5.975,22.359,20.348,28.518c3.066,1.314,6.064,1.98,8.912,1.98
	c6.784,0,12.417-3.621,15.998-10.235c3.813,5.042,8.01,9.798,12.55,14.231c-12.552,10.609-37.154,36.307-37.154,74.765
	c0,13.659,4.655,24.502,13.837,32.229c0.128,0.108,0.265,0.202,0.395,0.308c-13.189,3.706-22.611,10.219-28.132,19.503
	c-8.174,13.745-5.437,29.842-2.054,40.32H91.403C75.814,447.02,62.759,458.058,59.631,472.728z M243.314,51.842
	c-5.686-13.319,2.378-26.701,10.626-35.932c1.078-1.206,3.028-1.199,4.101,0.002c8.257,9.244,16.324,22.644,10.602,35.977
	c-0.3-0.025-0.6-0.043-0.9-0.067c-7.892-0.624-15.809-0.634-23.703-0.031C243.798,51.809,243.557,51.823,243.314,51.842z
	 M461.385,497H50.615c2.813-5.902,8.837-9.99,15.798-9.99h379.174C452.548,487.01,458.572,491.098,461.385,497z M436.396,472.01
	H75.604c2.813-5.902,8.837-9.99,15.799-9.99h329.193C427.559,462.02,433.583,466.108,436.396,472.01z M197.944,340.624h-7.987
	c3.511-15.412,6.998-28.228,9.221-35.997c5.798,2.702,11.802,4.97,17.947,6.808c12.486,3.734,25.541,5.646,38.574,5.646
	c12.968,0,26.088-1.91,38.575-5.646c6.145-1.838,12.148-4.105,17.946-6.807c2.224,7.769,5.71,20.585,9.221,35.997h-7.987
	c-15.092,0-27.37,12.278-27.37,27.37v2.748c0,8.126,3.564,15.43,9.206,20.447c-13.491,4.653-26.606,11.423-39.27,20.281
	c-12.7-8.855-26.071-15.681-39.818-20.365c5.586-5.014,9.11-12.283,9.11-20.363v-2.748
	C225.314,352.902,213.036,340.624,197.944,340.624z M386.675,414.324c6.535,10.93,1.876,25.729-0.995,32.696h-91.587
	c-4.523-5.733-9.475-11.123-14.715-16.206c-3.48-3.377-7.075-6.634-10.797-9.743c18.823-12.355,38.632-19.655,59.122-21.825
	c4.214-0.446,9.025-0.706,13.258-0.7C357.584,398.571,378.913,401.342,386.675,414.324z M370.048,354.661
	c0,9.141-2.771,15.922-8.472,20.732c-5.691,4.801-13.516,7.127-21.142,8.155c-8.685,0.018-17.019,1.178-25.697-0.325
	c-0.423-0.073-0.852-0.11-1.281-0.11c-6.821,0-12.37-5.549-12.37-12.37v-2.748c0-6.821,5.549-12.37,12.37-12.37h20.926
	c4.143,0,7.5-3.358,7.5-7.5c0-3.25-2.071-6.009-4.962-7.05c-4.435-20.013-8.909-35.984-11.21-43.814
	c3.687-2.288,7.242-4.753,10.659-7.378C345.941,297.646,370.048,320.581,370.048,354.661z M413.761,193.509
	c0,7.871-4.492,14.214-9.694,21.559c-4.212,5.946-8.567,12.095-10.952,19.726c-2.557,8.182-4.711,26.106-16.67,26.106
	c-2.63,0-4.618-5.599-5.1-11.414c8.974-16.949,13.797-35.9,13.987-55.023c0.06-0.1,0.12-0.2,0.181-0.299
	c3.815-6.21,9.943-12.65,17.779-12.65C409.651,181.515,413.761,186.223,413.761,193.509z M138.072,257.917
	c-1.367,2.895-3.166,3.48-6.118,2.215c-9.832-4.213-10.872-16.388-13.669-25.337c-2.385-7.631-6.74-13.78-10.952-19.727
	c-5.202-7.345-9.694-13.688-9.694-21.559c0-7.291,4.114-12.002,10.48-12.002c6.744,0,12.421,5.013,16.145,10.202
	c0.711,0.991,1.42,2.071,2.116,3.268c0.323,19.245,5.237,37.442,13.738,53.624C139.925,252.159,139.192,255.544,138.072,257.917z
	 M154.456,243.591c-0.063-0.135-0.116-0.274-0.187-0.405c-7.954-14.736-12.177-30.617-12.585-47.237
	c-0.009-0.351,3.077-3.566,3.762-4.46c9.62-12.556,15.032-28.073,17.569-43.557c1.518-9.259,9.402-15.979,18.748-15.979h147.874
	c6.425,0,12.16,3.176,15.61,8.17c3.356,4.858,3.633,11.384,5.021,17.046c5.297,21.66,14.921,33.993,19.73,39.068
	c-1.5,48.185-35.941,88.637-82.49,101.536c-10.33,2.862-21.087,4.308-31.806,4.308c-10.684,0-21.387-1.434-31.687-4.276
	C193.885,289.489,168.822,269.631,154.456,243.591z M149.848,375.413c-5.716-4.811-8.495-11.599-8.495-20.752
	c0-34.078,24.105-57.013,33.677-64.777c3.417,2.625,6.973,5.09,10.66,7.378c-2.301,7.83-6.774,23.8-11.21,43.813
	c-2.891,1.041-4.962,3.8-4.962,7.05c0,4.142,3.357,7.5,7.5,7.5h20.926c6.821,0,12.37,5.549,12.37,12.37v2.748
	c0,6.821-5.549,12.37-12.37,12.37c-0.43,0-0.858,0.037-1.281,0.11c-8.588,1.487-16.712,0.322-25.347,0.322
	c-0.024,0-0.048,0.001-0.072,0.001C163.357,382.486,155.434,380.114,149.848,375.413z M125.37,414.324
	c10.85-18.149,40.732-17.012,58.781-15.084c43.395,4.637,74.926,31.761,90.043,47.779H126.366
	C123.495,440.053,118.836,425.254,125.37,414.324z"/>
<g>
</g>
<g>
</g>
<g>
</g>
<g>
</g>
<g>
</g>
<g>
</g>
<g>
</g>
<g>
</g>
<g>
</g>
<g>
</g>
<g>
</g>
<g>
</g>
<g>
</g>
<g>
</g>
<g>
</g>
</svg>
