<?xml version="1.0" encoding="iso-8859-1"?>
<!-- Generator: Adobe Illustrator 19.0.0, SVG Export Plug-In . SVG Version: 6.00 Build 0)  -->
<svg version="1.1" id="Capa_1" xmlns="http://www.w3.org/2000/svg" xmlns:xlink="http://www.w3.org/1999/xlink" x="0px" y="0px"
	 viewBox="0 0 512 512" style="enable-background:new 0 0 512 512;" xml:space="preserve">
<path style="fill:#A3A3A3;" d="M365.261,501.776c0,0-90.691-252.423-90.693-252.428c-2.76-7.682-10.359-13.052-18.567-13.052
	c-0.674,0-1.321,0.033-1.991,0.102c-7.438,0.761-14.043,5.91-16.575,12.95l-90.693,252.428h41.913l67.346-187.447l67.346,187.447
	H365.261z"/>
<circle style="fill:#DEDEDE;" cx="256" cy="256" r="104.02"/>
<circle style="fill:#BDBDBD;" cx="256" cy="256" r="69.36"/>
<g>
	<circle style="fill:#3B484A;" cx="256" cy="32.81" r="25.31"/>
	<circle style="fill:#3B484A;" cx="341.69" cy="49.915" r="25.31"/>
	<circle style="fill:#3B484A;" cx="414.25" cy="98.61" r="25.31"/>
	<circle style="fill:#3B484A;" cx="462.55" cy="171.42" r="25.31"/>
	<circle style="fill:#3B484A;" cx="479.19" cy="257.2" r="25.31"/>
	<circle style="fill:#3B484A;" cx="461.62" cy="342.8" r="25.31"/>
	<circle style="fill:#3B484A;" cx="170.31" cy="49.915" r="25.31"/>
	<circle style="fill:#3B484A;" cx="49.46" cy="171.42" r="25.31"/>
	<circle style="fill:#3B484A;" cx="50.38" cy="342.8" r="25.31"/>
	<circle style="fill:#3B484A;" cx="412.54" cy="415.09" r="25.31"/>
	<circle style="fill:#3B484A;" cx="256" cy="479.19" r="25.31"/>
	<circle style="fill:#3B484A;" cx="98.18" cy="413.82" r="25.31"/>
	<circle style="fill:#3B484A;" cx="32.812" cy="256" r="25.31"/>
	<circle style="fill:#3B484A;" cx="98.18" cy="98.18" r="25.31"/>
</g>
<path style="fill:#DEDEDE;" d="M256.002,479.19c-123.067,0-223.19-100.122-223.19-223.19S132.934,32.81,256.002,32.81
	S479.191,132.933,479.191,256S379.069,479.19,256.002,479.19z M256.002,72.255C154.684,72.255,72.256,154.682,72.256,256
	s82.428,183.745,183.745,183.745S439.747,357.318,439.747,256S357.319,72.255,256.002,72.255z"/>
<path d="M256.001,332.856c42.379,0,76.856-34.478,76.856-76.856s-34.478-76.856-76.856-76.856S179.145,213.621,179.145,256
	S213.623,332.856,256.001,332.856z M256.001,194.144c34.108,0,61.856,27.749,61.856,61.856s-27.749,61.856-61.856,61.856
	S194.145,290.108,194.145,256S221.894,194.144,256.001,194.144z"/>
<path d="M223.241,257.699v-7.287c0-4.142-3.358-7.5-7.5-7.5s-7.5,3.358-7.5,7.5v7.287c0,4.142,3.358,7.5,7.5,7.5
	S223.241,261.841,223.241,257.699z"/>
<path d="M296.262,265.199c4.142,0,7.5-3.358,7.5-7.5v-7.287c0-4.142-3.358-7.5-7.5-7.5s-7.5,3.358-7.5,7.5v7.287
	C288.762,261.841,292.12,265.199,296.262,265.199z"/>
<path d="M256.001,269.088c6.038,0,11.718-2.537,15.584-6.961c2.726-3.119,2.408-7.857-0.711-10.583
	c-3.119-2.726-7.857-2.408-10.583,0.711c-1.018,1.164-2.582,1.832-4.29,1.832c-1.708,0-3.272-0.668-4.291-1.833
	c-2.727-3.119-7.465-3.436-10.583-0.71c-3.119,2.726-3.437,7.464-0.71,10.583C244.285,266.551,249.965,269.088,256.001,269.088z"/>
<path d="M64.755,256c0,0.009,0.001,0.017,0.001,0.026c0.007,52.686,21.429,100.461,56.018,135.081
	c0.02,0.021,0.037,0.043,0.057,0.063s0.043,0.037,0.063,0.057c14.929,14.916,32.309,27.377,51.471,36.734
	c0.008,0.004,0.016,0.009,0.024,0.013c0.015,0.007,0.031,0.014,0.046,0.022c25.261,12.323,53.619,19.249,83.566,19.249
	c29.948,0,58.306-6.926,83.567-19.25c0.015-0.007,0.03-0.014,0.045-0.021c0.008-0.004,0.015-0.009,0.024-0.013
	c19.142-9.347,36.505-21.792,51.424-36.688c0.037-0.035,0.077-0.066,0.113-0.102c0.036-0.036,0.067-0.076,0.102-0.113
	c34.567-34.621,55.971-82.387,55.971-135.059c0-52.698-21.425-100.485-56.022-135.11c-0.019-0.019-0.035-0.041-0.054-0.06
	s-0.04-0.035-0.06-0.054c-34.625-34.596-82.412-56.022-135.11-56.022c-105.444,0-191.231,85.779-191.245,191.22
	C64.757,255.983,64.755,255.991,64.755,256z M126.25,136.855l45.806,45.806c-15.621,17.857-25.645,40.723-27.321,65.839H79.927
	C81.734,205.552,98.979,166.531,126.25,136.855z M432.077,248.5h-64.809c-1.676-25.116-11.7-47.982-27.321-65.839l45.806-45.806
	C413.024,166.531,430.269,205.551,432.077,248.5z M385.753,375.145l-45.806-45.806c15.621-17.857,25.645-40.723,27.321-65.839
	h64.809C430.269,306.449,413.024,345.469,385.753,375.145z M340.486,410.638l-22.31-62.096c3.904-2.632,7.631-5.506,11.165-8.596
	l45.806,45.806C364.676,395.373,353.045,403.749,340.486,410.638z M326.767,417.397c-7.401,3.255-15.033,6.003-22.816,8.207
	l-21.961-61.125c7.958-1.896,15.649-4.661,23.003-8.27l21.955,61.108C326.887,417.344,326.827,417.371,326.767,417.397z
	 M136.857,385.751l45.806-45.806c3.533,3.091,7.26,5.965,11.165,8.596l-22.31,62.096
	C158.958,403.749,147.327,395.373,136.857,385.751z M159.478,255.985c0.008-53.217,43.305-96.509,96.524-96.509
	c53.224,0,96.524,43.3,96.524,96.524c0,42.342-27.405,78.401-65.408,91.377c-9.996,3.404-20.556,5.147-31.116,5.147
	c-10.545,0-21.142-1.743-31.124-5.15C186.883,334.397,159.484,298.347,159.478,255.985z M185.056,417.318l21.956-61.108
	c7.354,3.608,15.045,6.373,23.003,8.27l-21.961,61.125c-7.781-2.203-15.414-4.951-22.814-8.206
	C185.178,417.371,185.117,417.345,185.056,417.318z M245.053,366.986c1.144,0.112,2.295,0.203,3.449,0.28v64.809
	c-8.766-0.369-17.367-1.382-25.76-2.991L245.053,366.986z M263.501,367.266c1.154-0.077,2.305-0.168,3.449-0.28l22.311,62.098
	c-8.393,1.61-16.994,2.622-25.76,2.991V367.266z M329.34,172.055c-17.857-15.621-40.723-25.645-65.839-27.321V79.925
	c42.949,1.808,81.969,19.052,111.645,46.324L329.34,172.055z M248.501,144.734c-25.116,1.676-47.982,11.7-65.839,27.321
	l-45.806-45.806c29.676-27.272,68.696-44.516,111.645-46.324V144.734z M144.735,263.5c1.676,25.116,11.7,47.982,27.321,65.839
	l-45.806,45.806C98.979,345.469,81.734,306.449,79.927,263.5H144.735z"/>
<path d="M27.597,288.391c1.276,9.044,3.074,17.922,5.372,26.6c-5.824,3.63-10.35,8.977-12.983,15.457
	c-3.299,8.119-3.239,17.037,0.169,25.111c6.171,14.618,22.681,22.917,38.085,19.097c4.131,6.86,8.607,13.49,13.408,19.863
	c-4.072,5.573-6.275,12.267-6.275,19.3c0,8.764,3.413,17.003,9.61,23.2c6.197,6.197,14.436,9.61,23.2,9.61
	c7.035,0,13.729-2.204,19.301-6.275c11.087,8.351,22.95,15.719,35.456,21.991l-13.256,36.894c-0.826,2.298-0.481,4.854,0.923,6.851
	c1.405,1.997,3.693,3.186,6.135,3.186h41.913c3.165,0,5.988-1.986,7.058-4.964l8.443-23.498c6.387,1.472,12.879,2.663,19.454,3.591
	C226.117,500.026,239.685,512,256.001,512s29.885-11.974,32.391-27.595c6.576-0.928,13.068-2.119,19.455-3.592l8.442,23.498
	c1.07,2.978,3.894,4.964,7.058,4.964h41.914c2.441,0,4.73-1.188,6.135-3.186c1.404-1.997,1.749-4.553,0.923-6.85l-13.256-36.895
	c11.945-5.99,23.302-12.983,33.958-20.875c5.612,4.173,12.383,6.431,19.52,6.431c26.1,0.001,41.933-30.684,26.681-51.905
	c5.228-6.826,10.089-13.947,14.542-21.341c2.561,0.635,5.184,0.961,7.848,0.961c13.225,0,25.093-7.873,30.236-20.057
	c6.179-14.638,0.665-32.168-12.814-40.569c2.193-8.284,3.935-16.748,5.199-25.367c15.621-2.43,27.677-15.962,27.765-32.243
	c0.047-8.764-3.321-17.021-9.485-23.252c-4.923-4.977-11.16-8.177-17.934-9.291c-1.171-8.633-2.816-17.117-4.918-25.422
	c5.861-3.567,10.444-8.864,13.146-15.315c3.387-8.083,3.423-17.001,0.102-25.111c-6.015-14.691-22.428-23.158-37.877-19.504
	c-4.375-7.445-9.143-14.632-14.299-21.514c4.084-5.561,6.303-12.246,6.323-19.278c0.023-8.764-3.367-17.013-9.547-23.226
	c-11.231-11.292-29.601-12.816-42.496-3.446c-6.853-5.191-14.006-10.005-21.424-14.418c1.629-6.696,1.111-13.712-1.568-20.205
	c-3.343-8.102-9.641-14.416-17.733-17.781c-14.7-6.112-32.13-0.516-40.487,13.024c-8.297-2.149-16.779-3.831-25.408-5.049
	C285.886,11.974,272.318,0,256.001,0s-29.885,11.974-32.391,27.595c-8.629,1.218-17.11,2.9-25.408,5.048
	c-5.913-9.581-16.375-15.545-27.9-15.545c-4.329,0-8.563,0.848-12.586,2.521c-15.088,6.274-23.022,22.578-19.299,37.985
	c-7.241,4.308-14.231,8.993-20.934,14.042c-5.573-4.072-12.266-6.275-19.3-6.275c-8.764,0-17.003,3.413-23.2,9.61
	c-11.26,11.26-12.737,29.631-3.335,42.5c-5.298,7.033-10.196,14.382-14.676,22.006c-2.454-0.58-4.963-0.88-7.505-0.88
	c-13.38,0-25.302,8.001-30.373,20.384c-6.011,14.681-0.293,32.185,13.248,40.426c-2.002,7.91-3.587,15.983-4.745,24.192
	C11.976,226.115,0.001,239.683,0.001,256S11.976,285.885,27.597,288.391z M52.467,186.142
	c17.219-49.43,51.985-92.502,98.746-118.605c62.522-34.901,141.194-35.967,204.888-2.54
	c62.683,32.896,106.747,97.348,114.332,167.736c6.091,56.52-10.988,114.6-46.757,158.774c-0.013,0.016-0.029,0.031-0.042,0.047
	c-35.474,43.605-87.28,72.412-143.209,78.745c-16.21,1.835-32.638,1.834-48.849,0c-56.072-6.346-108.989-35.798-144.302-80.103
	c-0.015-0.019-0.033-0.036-0.048-0.055C41.359,333.357,28.518,254.889,52.467,186.142z M50.393,360.617
	c-7.182,0-13.626-4.275-16.419-10.891c-2.746-6.505-1.284-14.299,3.641-19.357c2.658,7.783,5.731,15.375,9.173,22.761
	c0.033,0.071,2.416,5.088,3.642,7.487C50.418,360.617,50.406,360.617,50.393,360.617z M98.183,431.629
	c-12.373,0-21.192-13.231-16.458-24.642c5.466,6.301,11.294,12.309,17.405,17.986c1.935,1.797,3.89,3.572,5.885,5.303
	C102.877,431.164,100.565,431.629,98.183,431.629z M189.609,476.941l-6.229,17.334h-25.974l9.203-25.614
	c5.603,2.364,11.323,4.503,17.14,6.426C183.79,475.102,187.688,476.362,189.609,476.941z M256.001,497
	c-7.372,0-13.712-4.502-16.415-10.901c2.126,0.15,4.26,0.268,6.401,0.36c8.807,0.378,17.636,0.261,26.429-0.36
	C269.713,492.498,263.373,497,256.001,497z M354.597,494.276h-25.975l-6.228-17.334c0.091-0.028,0.182-0.059,0.273-0.086
	c7.71-2.334,15.304-5.061,22.726-8.193L354.597,494.276z M429.046,408.382c0.873,2.147,1.321,4.466,1.301,6.853
	c-0.079,9.653-8.161,17.666-17.808,17.666c-2.436,0-4.794-0.484-6.967-1.407c0.134-0.115,0.262-0.236,0.396-0.351
	c8.136-6.986,15.793-14.524,22.893-22.561C428.923,408.515,428.986,408.45,429.046,408.382z M478.122,336.095
	c4.695,11.556-4.097,24.522-16.511,24.521c-0.012,0-0.025,0-0.038,0c1.224-2.396,3.61-7.418,3.646-7.495
	c3.441-7.384,6.513-14.972,9.17-22.753C475.972,331.995,477.241,333.929,478.122,336.095z M486.188,240.816
	c2.093,0.895,4.013,2.195,5.662,3.862c3.346,3.382,5.174,7.865,5.148,12.622c-0.04,7.351-4.573,13.67-10.976,16.347
	c0.446-5.868,0.669-11.763,0.669-17.648C486.691,251.43,486.22,241.31,486.188,240.816z M462.687,153.608
	c7.204,0.06,13.607,4.39,16.341,11.067c2.676,6.534,1.128,14.314-3.849,19.318c-1.622-4.918-3.417-9.78-5.367-14.578
	C467.719,164.264,462.785,153.806,462.687,153.608z M414.246,80.797c12.479,0,21.256,13.174,16.439,24.69
	c-1.714-1.986-3.467-3.937-5.247-5.863c-5.675-6.144-11.682-11.993-17.986-17.49C409.579,81.257,411.878,80.797,414.246,80.797z
	 M341.701,32.098c9.691,0,17.763,8.106,17.8,17.774c-3.614-1.822-7.283-3.549-11.002-5.183c-6.318-2.777-12.766-5.278-19.309-7.473
	C332.456,33.994,336.91,32.098,341.701,32.098z M256.001,15c7.372,0,13.712,4.502,16.415,10.901
	c-2.135-0.151-4.278-0.269-6.429-0.361c-6.655-0.291-13.314-0.282-19.97,0c-2.151,0.092-4.296,0.21-6.432,0.361
	C242.289,19.502,248.63,15,256.001,15z M153.849,43.122c1.815-4.398,5.233-7.826,9.626-9.652c6.547-2.722,14.288-1.238,19.34,3.746
	c-1.071,0.359-2.135,0.735-3.2,1.109c-9.18,3.23-18.357,7.132-27.122,11.552C152.498,47.589,152.949,45.301,153.849,43.122z
	 M80.373,98.181c0-4.757,1.853-9.23,5.216-12.594c5.035-5.035,12.845-6.595,19.425-3.864c-6.305,5.47-12.315,11.3-17.996,17.415
	c-1.794,1.931-3.565,3.882-5.293,5.874C80.838,102.876,80.373,100.564,80.373,98.181z M36.824,183.992
	c-1.601-1.609-2.89-3.529-3.793-5.686c-1.838-4.388-1.858-9.229-0.055-13.632c2.734-6.677,9.137-11.007,16.341-11.067
	c-2.348,4.722-4.532,9.529-6.55,14.401C40.592,173.26,38.605,178.594,36.824,183.992z M25.903,239.585
	c-0.149,2.113-0.267,4.235-0.359,6.364c-0.296,6.701-0.289,13.402,0,20.103c0.092,2.129,0.209,4.25,0.359,6.364
	c-6.399-2.703-10.901-9.043-10.901-16.415S19.504,242.288,25.903,239.585z"/>
<g>
</g>
<g>
</g>
<g>
</g>
<g>
</g>
<g>
</g>
<g>
</g>
<g>
</g>
<g>
</g>
<g>
</g>
<g>
</g>
<g>
</g>
<g>
</g>
<g>
</g>
<g>
</g>
<g>
</g>
</svg>
