<?xml version="1.0" encoding="iso-8859-1"?>
<!-- Generator: Adobe Illustrator 19.0.0, SVG Export Plug-In . SVG Version: 6.00 Build 0)  -->
<svg version="1.1" id="Capa_1" xmlns="http://www.w3.org/2000/svg" xmlns:xlink="http://www.w3.org/1999/xlink" x="0px" y="0px"
	 viewBox="0 0 512 512" style="enable-background:new 0 0 512 512;" xml:space="preserve">
<path style="fill:#FFAC55;" d="M126.083,182.808c-3.094-3.349-8.387-3.349-11.481,0L7.5,298.73l112.842,22.307l112.842-22.307
	L126.083,182.808z"/>
<path style="fill:#DB8D49;" d="M27.5,298.73l102.842-111.313l-4.26-4.61c-3.094-3.349-8.387-3.349-11.481,0L7.5,298.73
	l112.842,22.307l10-1.977L27.5,298.73z"/>
<path style="fill:#FFAC55;" d="M385.917,182.808c3.094-3.349,8.387-3.349,11.481,0L504.5,298.73l-112.842,22.307L278.816,298.73
	L385.917,182.808z"/>
<g>
	<path style="fill:#DB8D49;" d="M298.816,298.73l102.842-111.313l-4.26-4.61c-3.094-3.349-8.387-3.349-11.481,0L278.816,298.73
		l112.842,22.307l10-1.977L298.816,298.73z"/>
	<rect x="7.5" y="298.73" style="fill:#DB8D49;" width="497" height="198.73"/>
</g>
<path style="fill:#FFCE6E;" d="M266.818,206.809c-5.831-6.311-15.804-6.311-21.635,0L43.356,425.257h425.288L266.818,206.809z"/>
<path style="fill:#FFAC55;" d="M266.818,206.809c-5.831-6.311-15.804-6.311-21.635,0L43.356,425.257h30L271,211.336L266.818,206.809
	z"/>
<circle style="fill:#FFCE6E;" cx="183.78" cy="85.24" r="40.446"/>
<path d="M183.777,356.58c4.142,0,7.5-3.358,7.5-7.5v-13.071c0-4.142-3.358-7.5-7.5-7.5s-7.5,3.358-7.5,7.5v13.071
	C176.277,353.222,179.635,356.58,183.777,356.58z"/>
<path d="M328.224,356.58c4.143,0,7.5-3.358,7.5-7.5v-13.071c0-4.142-3.357-7.5-7.5-7.5s-7.5,3.358-7.5,7.5v13.071
	C320.724,353.222,324.081,356.58,328.224,356.58z"/>
<path d="M256,363.557c9.112,0,17.668-3.81,23.473-10.451c2.726-3.119,2.407-7.857-0.712-10.583
	c-3.12-2.725-7.858-2.407-10.583,0.712c-2.956,3.382-7.395,5.322-12.178,5.322s-9.222-1.94-12.179-5.323
	c-2.726-3.12-7.465-3.437-10.583-0.711c-3.119,2.726-3.438,7.464-0.711,10.583C238.333,359.748,246.888,363.557,256,363.557z"/>
<path d="M82.016,243.87c-4.142,0-7.5,3.358-7.5,7.5v6.936c0,4.142,3.358,7.5,7.5,7.5s7.5-3.358,7.5-7.5v-6.936
	C89.516,247.228,86.158,243.87,82.016,243.87z"/>
<path d="M166.168,258.305v-6.936c0-4.142-3.358-7.5-7.5-7.5s-7.5,3.358-7.5,7.5v6.936c0,4.142,3.358,7.5,7.5,7.5
	S166.168,262.447,166.168,258.305z"/>
<path d="M134.738,252.176c-3.119-2.727-7.856-2.409-10.583,0.71c-0.901,1.03-2.291,1.621-3.813,1.621s-2.912-0.591-3.813-1.621
	c-2.727-3.119-7.464-3.438-10.583-0.71c-3.119,2.726-3.437,7.464-0.71,10.583c3.749,4.289,9.255,6.749,15.106,6.749
	s11.357-2.46,15.106-6.749C138.174,259.641,137.856,254.902,134.738,252.176z"/>
<path d="M429.984,265.805c4.143,0,7.5-3.358,7.5-7.5v-6.936c0-4.142-3.357-7.5-7.5-7.5s-7.5,3.358-7.5,7.5v6.936
	C422.484,262.447,425.842,265.805,429.984,265.805z"/>
<path d="M345.832,251.37v6.936c0,4.142,3.357,7.5,7.5,7.5s7.5-3.358,7.5-7.5v-6.936c0-4.142-3.357-7.5-7.5-7.5
	S345.832,247.228,345.832,251.37z"/>
<path d="M395.47,252.887c-0.899,1.03-2.289,1.621-3.812,1.621s-2.913-0.591-3.813-1.622c-2.728-3.119-7.465-3.436-10.583-0.709
	s-3.437,7.464-0.71,10.583c3.75,4.289,9.256,6.749,15.106,6.749c5.852,0,11.357-2.46,15.106-6.75
	c2.726-3.119,2.407-7.857-0.712-10.583C402.933,249.451,398.197,249.769,395.47,252.887z"/>
<path d="M231.723,85.237c0-26.438-21.508-47.946-47.946-47.946S135.831,58.8,135.831,85.237s21.509,47.946,47.946,47.946
	S231.723,111.675,231.723,85.237z M183.777,118.183c-18.167,0-32.946-14.779-32.946-32.946s14.78-32.946,32.946-32.946
	s32.946,14.78,32.946,32.946S201.943,118.183,183.777,118.183z"/>
<path d="M191.277,24.406v-9.869c0-4.142-3.358-7.5-7.5-7.5s-7.5,3.358-7.5,7.5v9.869c0,4.142,3.358,7.5,7.5,7.5
	S191.277,28.548,191.277,24.406z"/>
<path d="M232.094,47.526l6.978-6.978c2.929-2.929,2.929-7.678,0-10.606c-2.929-2.929-7.678-2.929-10.606,0l-6.978,6.978
	c-2.929,2.929-2.929,7.678,0,10.606c1.464,1.464,3.384,2.197,5.303,2.197S230.629,48.991,232.094,47.526z"/>
<path d="M254.476,92.737c4.142,0,7.5-3.358,7.5-7.5s-3.357-7.5-7.5-7.5h-9.869c-4.142,0-7.5,3.358-7.5,7.5s3.358,7.5,7.5,7.5
	H254.476z"/>
<path d="M228.465,140.534c1.465,1.464,3.384,2.197,5.304,2.197c1.919,0,3.839-0.732,5.303-2.196c2.929-2.929,2.929-7.678,0-10.607
	l-6.978-6.979c-2.93-2.929-7.678-2.928-10.607,0c-2.929,2.929-2.929,7.678,0,10.607L228.465,140.534z"/>
<path d="M176.277,146.068v9.869c0,4.142,3.358,7.5,7.5,7.5s7.5-3.358,7.5-7.5v-9.869c0-4.142-3.358-7.5-7.5-7.5
	S176.277,141.926,176.277,146.068z"/>
<path d="M133.785,142.73c1.919,0,3.839-0.732,5.304-2.197l6.978-6.979c2.929-2.929,2.928-7.678,0-10.607
	c-2.93-2.929-7.677-2.928-10.607,0l-6.978,6.979c-2.929,2.929-2.928,7.678,0,10.607C129.946,141.999,131.865,142.73,133.785,142.73z
	"/>
<path d="M113.077,77.737c-4.142,0-7.5,3.358-7.5,7.5s3.358,7.5,7.5,7.5h9.869c4.142,0,7.5-3.358,7.5-7.5s-3.358-7.5-7.5-7.5H113.077
	z"/>
<path d="M135.459,47.526c1.464,1.464,3.384,2.197,5.303,2.197s3.839-0.732,5.303-2.197c2.929-2.929,2.929-7.678,0-10.606
	l-6.978-6.978c-2.929-2.929-7.678-2.929-10.606,0c-2.929,2.929-2.929,7.678,0,10.606L135.459,47.526z"/>
<path d="M511.988,298.4c-0.076-1.712-0.762-3.542-1.979-4.759l-69.694-75.435c-2.813-3.042-7.557-3.231-10.599-0.419
	c-3.042,2.811-3.229,7.556-0.419,10.598l58.063,62.846H355.027l-29.536-31.968l65.934-71.365c0.03-0.033,0.095-0.102,0.232-0.102
	c0.139,0,0.203,0.068,0.232,0.101l17.203,18.62c2.811,3.042,7.556,3.23,10.599,0.419c3.042-2.811,3.229-7.556,0.419-10.598
	l-17.204-18.621c-2.89-3.127-6.99-4.921-11.249-4.921c-4.258,0-8.358,1.793-11.249,4.922l-65.128,70.492l-42.954-46.492
	c-4.194-4.54-10.146-7.144-16.327-7.144s-12.131,2.604-16.326,7.144l-42.953,46.492l-65.129-70.493
	c-2.89-3.128-6.99-4.921-11.249-4.921s-8.359,1.793-11.25,4.922c0,0-107.093,115.914-107.102,115.923
	C0.729,295.007,0,296.868,0,298.73v198.732c0,4.142,3.358,7.5,7.5,7.5h497c4.143,0,7.5-3.358,7.5-7.5c0,0,0-198.719,0-198.732
	C512,298.62,511.992,298.51,511.988,298.4z M120.11,187.896c0.03-0.033,0.094-0.101,0.232-0.101s0.202,0.068,0.231,0.101
	l65.935,71.366l-29.536,31.968H24.64L120.11,187.896z M497,489.962H15V306.23h128.115l-51.577,55.825
	c-0.703,0.76-1.218,1.627-1.548,2.544c-0.99,2.75-0.314,5.946,1.967,8.054c1.521,1.405,3.469,2.061,5.387,1.985
	c0.479-0.019,0.957-0.084,1.426-0.194c0.234-0.055,0.466-0.121,0.696-0.199c0.458-0.156,0.904-0.356,1.33-0.602
	c0.639-0.369,1.234-0.839,1.761-1.41l148.136-160.337c1.384-1.498,3.269-2.323,5.308-2.323c2.04,0,3.925,0.825,5.309,2.323
	l190.194,205.86H60.497l21.94-23.748c2.811-3.042,2.623-7.787-0.419-10.598s-7.788-2.624-10.598,0.419l-33.572,36.337
	c-2.022,2.188-2.557,5.366-1.362,8.096c1.194,2.73,3.892,4.494,6.871,4.494h425.287c2.979,0,5.677-1.764,6.871-4.494
	c1.194-2.729,0.659-5.907-1.362-8.096L368.886,306.23H497V489.962z"/>
<g>
</g>
<g>
</g>
<g>
</g>
<g>
</g>
<g>
</g>
<g>
</g>
<g>
</g>
<g>
</g>
<g>
</g>
<g>
</g>
<g>
</g>
<g>
</g>
<g>
</g>
<g>
</g>
<g>
</g>
</svg>
