<?xml version="1.0" encoding="iso-8859-1"?>
<!-- Generator: Adobe Illustrator 19.0.0, SVG Export Plug-In . SVG Version: 6.00 Build 0)  -->
<svg version="1.1" id="Capa_1" xmlns="http://www.w3.org/2000/svg" xmlns:xlink="http://www.w3.org/1999/xlink" x="0px" y="0px"
	 viewBox="0 0 512.001 512.001" style="enable-background:new 0 0 512.001 512.001;" xml:space="preserve">
<g>
	<polygon style="fill:#DEDEDE;" points="47.957,433.752 47.957,210.847 72.108,195.484 96.26,210.847 96.26,433.752 72.108,450.655 
			"/>
	<polygon style="fill:#DEDEDE;" points="464.042,433.752 464.042,210.847 439.892,195.484 415.74,210.847 415.74,433.752 
		439.892,450.655 	"/>
	<polygon style="fill:#DEDEDE;" points="170.551,433.752 170.551,210.847 194.703,195.484 218.853,210.847 218.853,433.752 
		194.703,450.655 	"/>
	<polygon style="fill:#DEDEDE;" points="293.146,433.752 293.146,210.847 317.297,195.484 341.448,210.847 341.448,433.752 
		317.297,450.655 	"/>
</g>
<g>
	<polygon style="fill:#BDBDBD;" points="47.957,210.847 47.957,235.846 96.26,235.846 96.26,210.847 72.108,195.484 	"/>
	<polygon style="fill:#BDBDBD;" points="415.74,210.847 415.74,235.846 415.74,235.846 464.042,235.846 464.042,235.846 
		464.042,210.847 439.892,195.484 	"/>
	<polygon style="fill:#BDBDBD;" points="170.551,210.847 170.551,235.846 170.551,235.846 218.853,235.846 218.853,235.846 
		218.853,210.847 194.703,195.484 	"/>
	<polygon style="fill:#BDBDBD;" points="293.146,210.847 293.146,235.846 341.448,235.846 341.448,210.847 317.297,195.484 	"/>
</g>
<g>
	<path style="fill:#A3A3A3;" d="M72.108,162.437l-38.715,17.686v16.161c0,8.043,6.52,14.564,14.564,14.564h48.302
		c8.043,0,14.564-6.52,14.564-14.564v-16.161L72.108,162.437z"/>
	<path style="fill:#A3A3A3;" d="M439.892,162.437l38.715,17.686v16.161c0,8.043-6.521,14.564-14.564,14.564h-48.302
		c-8.043,0-14.564-6.52-14.564-14.564v-16.161L439.892,162.437z"/>
	<path style="fill:#A3A3A3;" d="M194.703,162.437l-38.715,17.686v16.161c0,8.043,6.52,14.564,14.564,14.564h48.302
		c8.043,0,14.564-6.52,14.564-14.564v-16.161L194.703,162.437z"/>
	<path style="fill:#A3A3A3;" d="M317.297,162.437l-38.715,17.686v16.161c0,8.043,6.521,14.564,14.564,14.564h48.302
		c8.043,0,14.564-6.52,14.564-14.564v-16.161L317.297,162.437z"/>
</g>
<path style="fill:#DEDEDE;" d="M272.526,12.077c-10.174-6.096-22.879-6.096-33.052,0L18.045,144.75l54.063,17.687h367.784
	l54.063-17.686L272.526,12.077z"/>
<g>
	<path style="fill:#BDBDBD;" d="M493.954,144.75H18.045c-5.419,0-9.812,4.393-9.812,9.812v15.748c0,5.419,4.393,9.812,9.812,9.812
		h475.909c5.419,0,9.812-4.393,9.812-9.812v-15.748C503.767,149.143,499.374,144.75,493.954,144.75z"/>
	<polygon style="fill:#BDBDBD;" points="47.957,408.752 47.957,433.752 72.108,450.655 96.26,433.752 96.26,408.752 	"/>
	<polygon style="fill:#BDBDBD;" points="170.551,408.752 170.551,433.752 194.703,450.655 218.853,433.752 218.853,408.752 	"/>
	<polygon style="fill:#BDBDBD;" points="341.448,433.752 341.448,408.752 293.146,408.752 293.146,433.752 317.297,450.655 	"/>
	<polygon style="fill:#BDBDBD;" points="464.042,408.752 415.74,408.752 415.74,433.752 439.892,450.655 464.042,433.752 	"/>
</g>
<path style="fill:#DEDEDE;" d="M464.042,433.752H47.957c-5.419,0-9.812,4.393-9.812,9.812v15.748c0,5.419,4.393,9.812,9.812,9.812
	l208.043,17.686l208.043-17.686c5.419,0,9.812-4.393,9.812-9.812v-15.748C473.855,438.144,469.462,433.752,464.042,433.752z"/>
<path style="fill:#BDBDBD;" d="M493.954,469.124H18.045c-5.419,0-9.812,4.393-9.812,9.812v15.748c0,5.419,4.393,9.812,9.812,9.812
	h475.909c5.419,0,9.812-4.393,9.812-9.812v-15.748C503.767,473.517,499.374,469.124,493.954,469.124z"/>
<path d="M176.881,88.743v12.962c0,4.142,3.358,7.5,7.5,7.5s7.5-3.358,7.5-7.5V88.743c0-4.142-3.358-7.5-7.5-7.5
	S176.881,84.601,176.881,88.743z"/>
<path d="M335.119,101.705V88.743c0-4.142-3.358-7.5-7.5-7.5c-4.142,0-7.5,3.358-7.5,7.5v12.962c0,4.142,3.358,7.5,7.5,7.5
	C331.761,109.205,335.119,105.847,335.119,101.705z"/>
<path d="M268.029,95.868c-2.92,3.34-7.305,5.256-12.03,5.256c-4.725,0-9.11-1.916-12.03-5.257
	c-2.727-3.119-7.464-3.437-10.583-0.711s-3.437,7.464-0.711,10.583c5.769,6.6,14.271,10.385,23.324,10.385
	c9.054,0,17.555-3.785,23.324-10.385c2.726-3.119,2.408-7.856-0.711-10.583C275.493,92.43,270.755,92.749,268.029,95.868z"/>
<path d="M0.733,478.941v15.748c0,9.546,7.766,17.313,17.313,17.313h475.909c9.546,0,17.313-7.766,17.313-17.313v-15.748
	c0-9.546-7.766-17.312-17.313-17.312h-12.772c0.102-0.758,0.173-1.526,0.173-2.312v-15.749c0-6.857-4.017-12.777-9.813-15.579
	V217.037c8.485-3.076,14.564-11.216,14.564-20.75v-8.661h7.848c9.546,0,17.313-7.767,17.313-17.313v-15.748
	c0-8.736-6.511-15.962-14.931-17.129L334.635,40.549c-3.554-2.129-8.16-0.975-10.289,2.579c-2.129,3.554-0.975,8.16,2.579,10.289
	l139.921,83.837H45.155L243.328,18.516c7.816-4.683,17.527-4.684,25.344,0l34.027,20.389c3.555,2.13,8.16,0.975,10.289-2.579
	c2.129-3.553,0.974-8.16-2.579-10.289L276.381,5.649c-12.571-7.532-28.19-7.532-40.762,0L15.664,137.439
	c-8.421,1.167-14.931,8.392-14.931,17.129v15.748c0,9.546,7.766,17.313,17.313,17.313h7.848v8.661
	c0,9.534,6.079,17.673,14.564,20.75v210.953c-5.795,2.802-9.813,8.722-9.813,15.579v15.749c0,0.786,0.071,1.554,0.173,2.312H18.045
	C8.499,461.629,0.733,469.395,0.733,478.941z M348.948,426.257v-209.22c8.485-3.076,14.564-11.216,14.564-20.75v-8.661h30.165v8.661
	c0,9.534,6.079,17.673,14.564,20.75v209.22H348.948z M226.353,426.257v-209.22c8.485-3.076,14.564-11.216,14.564-20.75v-8.661
	h30.165v8.661c0,9.534,6.079,17.673,14.564,20.75v209.22H226.353z M103.759,426.257v-209.22c8.485-3.076,14.564-11.216,14.564-20.75
	v-8.661h30.165v8.661c0,9.534,6.079,17.673,14.564,20.75v209.22H103.759z M55.456,218.352h33.302v207.906H55.456V218.352z
	 M225.917,196.288c0,3.895-3.169,7.064-7.064,7.064h-48.302c-3.895,0-7.064-3.169-7.064-7.064v-8.661h62.43V196.288z
	 M178.051,218.352h33.302v207.906h-33.302V218.352z M348.512,196.288c0,3.895-3.169,7.064-7.064,7.064h-48.302
	c-3.895,0-7.064-3.169-7.064-7.064v-8.661h62.43V196.288z M300.646,218.352h33.302v207.906h-33.302V218.352z M423.24,218.352h33.302
	v207.906H423.24V218.352z M471.106,196.288c0,3.895-3.169,7.064-7.064,7.064H415.74c-3.895,0-7.064-3.169-7.064-7.064v-8.661h62.43
	V196.288z M15.733,170.316v-15.748c0-1.275,1.038-2.312,2.313-2.312h475.909c1.275,0,2.313,1.037,2.313,2.312v15.748
	c0,1.275-1.038,2.313-2.313,2.313H18.045C16.77,172.628,15.733,171.591,15.733,170.316z M103.323,187.627v8.661
	c0,3.895-3.169,7.064-7.064,7.064H47.957c-3.895,0-7.064-3.169-7.064-7.064v-8.661H103.323z M45.645,459.317v-15.749
	c0-1.275,1.038-2.312,2.313-2.312h416.086c1.275,0,2.313,1.037,2.313,2.312v15.749c0,1.275-1.038,2.312-2.313,2.312H135.986
	c-4.142,0-7.5,3.358-7.5,7.5c0,4.142,3.358,7.5,7.5,7.5h357.969c1.275,0,2.313,1.037,2.313,2.312v15.748
	c0,1.275-1.038,2.313-2.313,2.313H18.045c-1.275,0-2.313-1.038-2.313-2.313v-15.748c0-1.275,1.038-2.312,2.313-2.312h88.059
	c4.142,0,7.5-3.358,7.5-7.5c0-4.142-3.358-7.5-7.5-7.5H47.957C46.682,461.629,45.645,460.592,45.645,459.317z"/>
<g>
</g>
<g>
</g>
<g>
</g>
<g>
</g>
<g>
</g>
<g>
</g>
<g>
</g>
<g>
</g>
<g>
</g>
<g>
</g>
<g>
</g>
<g>
</g>
<g>
</g>
<g>
</g>
<g>
</g>
</svg>
