<?xml version="1.0" encoding="iso-8859-1"?>
<!-- Generator: Adobe Illustrator 19.0.0, SVG Export Plug-In . SVG Version: 6.00 Build 0)  -->
<svg version="1.1" id="Capa_1" xmlns="http://www.w3.org/2000/svg" xmlns:xlink="http://www.w3.org/1999/xlink" x="0px" y="0px"
	 viewBox="0 0 512 512" style="enable-background:new 0 0 512 512;" xml:space="preserve">
<path style="fill:#C79682;" d="M504.5,293.282v-68.857c0-16.534-10.664-31.181-26.398-36.259l-35.439-11.438
	c-7.162-2.312-13.522-6.609-18.338-12.393l-19.246-23.113c-6.004-7.21-14.365-12.064-23.603-13.703l-27.456-4.871
	c-11.667-2.07-21.803-9.237-27.643-19.547l-23.474-41.44c-7.438-13.13-21.219-21.458-36.306-21.769
	c-3.514-0.072-7.046-0.109-10.597-0.109c-137.243,0-248.5,53.767-248.5,120.092v133.408L504.5,293.282L504.5,293.282z"/>
<path style="fill:#946F61;" d="M444.77,181.353C393.846,156.743,326.807,143.19,256,143.19s-137.846,13.553-188.77,38.163
	C42.355,193.374,22.3,207.577,7.5,223.374v69.907h497v-68.857c0-0.359-0.012-0.716-0.022-1.073
	C489.681,207.564,469.633,193.368,444.77,181.353z"/>
<g>
	<path style="fill:#3B484A;" d="M256,80.361L256,80.361c-20.044,0-36.293,16.249-36.293,36.293v81.415h72.585v-81.415
		C292.293,96.61,276.044,80.361,256,80.361z"/>
	<path style="fill:#3B484A;" d="M140.575,114.636L140.575,114.636c-10.413,5.57-16.914,16.42-16.914,28.229v66.85l49.182-16.6
		v-59.144C172.843,117.406,155.181,106.824,140.575,114.636z"/>
	<path style="fill:#3B484A;" d="M53.191,159.911L53.191,159.911c-10.002,5.35-16.247,15.772-16.247,27.115v64.211l47.241-25.268
		v-47.486C84.185,162.572,67.221,152.407,53.191,159.911z"/>
</g>
<g>
	<path style="fill:#333E40;" d="M292.293,144.4c-11.944-0.796-24.06-1.21-36.292-1.21c-12.233,0-24.349,0.414-36.293,1.21v53.669
		h72.585V144.4z"/>
	<path style="fill:#333E40;" d="M172.843,149.663c-17.057,2.735-33.52,6.319-49.182,10.699v49.353l49.182-16.6V149.663z"/>
	<path style="fill:#333E40;" d="M84.185,178.482c0-1.549-0.165-3.042-0.469-4.471c-5.659,2.327-11.165,4.771-16.486,7.342
		c-11.064,5.347-21.168,11.127-30.286,17.286v52.599l47.241-25.269V178.482z"/>
</g>
<path style="fill:#AE8372;" d="M7.5,426.689V293.282c0-66.325,111.257-120.092,248.5-120.092s248.5,53.767,248.5,120.092V426.69H7.5
	V426.689z"/>
<path style="fill:#946F61;" d="M504.5,356.786c-14.8-15.797-34.856-30.002-59.732-42.023
	c-50.924-24.61-117.963-38.164-188.768-38.164s-137.844,13.553-188.768,38.164C42.356,326.784,22.3,340.989,7.5,356.786v69.904h497
	V356.786z"/>
<g>
	<path style="fill:#3B484A;" d="M140.575,248.044L140.575,248.044c-10.413,5.57-16.914,16.42-16.914,28.229v66.85l49.182-16.6
		v-59.145C172.843,250.814,155.181,240.23,140.575,248.044z"/>
	<path style="fill:#3B484A;" d="M53.191,293.319L53.191,293.319c-10.002,5.35-16.247,15.772-16.247,27.115v64.211l47.241-25.268
		v-47.486C84.185,295.979,67.221,285.815,53.191,293.319z"/>
</g>
<g>
	<path style="fill:#333E40;" d="M172.843,283.073c-17.057,2.735-33.52,6.319-49.182,10.699v49.351l49.182-16.6V283.073z"/>
	<path style="fill:#333E40;" d="M84.185,311.89c0-1.548-0.165-3.041-0.468-4.469c-5.658,2.327-11.165,4.77-16.485,7.341
		c-11.064,5.347-21.169,11.128-30.287,17.287v52.596l47.241-25.269L84.185,311.89L84.185,311.89z"/>
</g>
<g>
	<path style="fill:#3B484A;" d="M371.425,248.044L371.425,248.044c10.413,5.57,16.914,16.42,16.914,28.229v66.85l-49.182-16.6
		v-59.145C339.157,250.814,356.819,240.23,371.425,248.044z"/>
	<path style="fill:#3B484A;" d="M458.809,293.319L458.809,293.319c10.002,5.35,16.247,15.772,16.247,27.115v64.211l-47.241-25.268
		v-47.486C427.815,295.979,444.779,285.815,458.809,293.319z"/>
</g>
<g>
	<path style="fill:#333E40;" d="M339.157,283.073c17.057,2.735,33.52,6.319,49.182,10.699v49.351l-49.182-16.6V283.073z"/>
	<path style="fill:#333E40;" d="M427.815,311.89c0-1.548,0.165-3.041,0.468-4.469c5.658,2.327,11.165,4.77,16.485,7.341
		c11.064,5.347,21.169,11.128,30.287,17.287v52.596l-47.241-25.269V311.89H427.815z"/>
</g>
<path style="fill:#AE8372;" d="M36.942,472.22H7.5v-45.526c0-66.328,111.262-120.095,248.5-120.095s248.5,53.767,248.5,120.095
	v45.526h-29.441l-23.622-24.008l-23.622,24.008h-39.478l-24.588-24.008l-24.588,24.008h-46.865L256,448.212l-36.295,24.008H172.84
	l-24.588-21.508l-24.588,21.508H84.186l-23.622-24.008L36.942,472.22z"/>
<g>
	<path style="fill:#3B484A;" d="M292.295,383.469v88.751h-72.589v-88.751c0-20.045,16.25-36.295,36.295-36.295
		C276.045,347.174,292.295,363.424,292.295,383.469z"/>
	<path style="fill:#3B484A;" d="M172.84,400.786v71.434h-49.176v-62.542c0-11.804,6.494-22.656,16.91-28.228
		C155.183,373.635,172.84,384.226,172.84,400.786z"/>
	<path style="fill:#3B484A;" d="M84.186,445.293v26.927H36.942v-18.375c0-11.348,6.251-21.773,16.25-27.122
		C67.218,419.22,84.186,429.383,84.186,445.293z"/>
	<path style="fill:#3B484A;" d="M388.336,409.678v62.542H339.16v-71.434c0-16.56,17.657-27.151,32.266-19.336
		C381.842,387.021,388.336,397.874,388.336,409.678z"/>
	<path style="fill:#3B484A;" d="M475.059,453.845v18.375h-47.244v-26.927c0-15.91,16.968-26.073,30.995-18.57
		C468.807,432.072,475.059,442.497,475.059,453.845z"/>
</g>
<path d="M172.843,203.264c-4.142,0-7.5,3.358-7.5,7.5v15.05c0,4.142,3.358,7.5,7.5,7.5s7.5-3.358,7.5-7.5v-15.05
	C180.343,206.622,176.985,203.264,172.843,203.264z"/>
<path d="M339.157,203.264c-4.143,0-7.5,3.358-7.5,7.5v15.05c0,4.142,3.357,7.5,7.5,7.5s7.5-3.358,7.5-7.5v-15.05
	C346.657,206.622,343.3,203.264,339.157,203.264z"/>
<path d="M281.461,219.12c-3.12-2.727-7.857-2.409-10.583,0.71c-3.62,4.142-9.043,6.517-14.878,6.517s-11.258-2.375-14.877-6.517
	c-2.727-3.119-7.464-3.437-10.583-0.711s-3.437,7.464-0.711,10.583c6.469,7.4,16.008,11.645,26.171,11.645
	s19.702-4.244,26.171-11.645C284.897,226.583,284.579,221.846,281.461,219.12z"/>
<path d="M480.405,181.027l-35.439-11.437c-5.82-1.879-10.965-5.356-14.878-10.056l-19.246-23.113
	c-7.127-8.558-17.091-14.343-28.056-16.289l-27.457-4.871c-9.498-1.685-17.672-7.465-22.427-15.859l-23.475-41.44
	c-8.729-15.41-25.081-25.208-42.677-25.571c-3.58-0.074-7.197-0.111-10.751-0.111c-63.556,0-124.4,11.5-171.323,32.38
	c-3.784,1.684-5.487,6.117-3.803,9.901c1.684,3.785,6.119,5.487,9.901,3.803C135.821,58.321,194.499,47.282,256,47.282
	c3.451,0,6.965,0.036,10.442,0.108c12.331,0.254,23.801,7.139,29.935,17.967l23.475,41.44c6.966,12.298,18.941,20.767,32.857,23.236
	l27.456,4.871c7.484,1.328,14.285,5.276,19.149,11.118l19.246,23.113c5.733,6.885,13.271,11.979,21.798,14.732l35.439,11.438
	c12.682,4.092,21.203,15.794,21.203,29.12v25.138c-0.044-0.061-0.093-0.122-0.138-0.184c-15.395-21.414-38.454-36.444-61.883-47.768
	c-37.4-18.074-84.317-29.811-135.187-34.097v-50.86c0-24.147-19.646-43.792-43.793-43.792s-43.792,19.645-43.792,43.792v50.86
	c-10.82,0.912-21.456,2.167-31.865,3.742v-37.285c0-16.243-13.209-29.457-29.446-29.457c-19.832,0-34.736,19.631-34.736,38.352
	v43.221c-8.474,2.731-16.644,5.725-24.476,8.968v-16.572c0-15.765-12.821-28.59-28.58-28.59c-19.211,0-33.661,18.99-33.661,37.133
	v46.165c-0.234,0.22-0.451,0.445-0.683,0.667c-4.98,4.769-9.596,9.925-13.627,15.525c-0.043,0.06-0.092,0.12-0.135,0.18v-89.688
	c0-30.664,26.564-53.571,48.85-67.389c3.521-2.183,4.605-6.806,2.422-10.326c-2.183-3.521-6.806-4.605-10.326-2.422
	C19.346,102.43,0,130.141,0,159.874V472.22c0,4.142,3.358,7.5,7.5,7.5h497c4.143,0,7.5-3.358,7.5-7.5V224.424
	C512,204.566,499.303,187.127,480.405,181.027z M227.208,116.653c0-15.876,12.917-28.792,28.792-28.792
	c15.877,0,28.793,12.916,28.793,28.792v49.827c-2.321-0.127-4.65-0.238-6.984-0.334c-0.131-0.005-0.263-0.011-0.394-0.016
	c-14.271-0.583-28.559-0.56-42.829,0c-0.131,0.005-0.262,0.011-0.393,0.016c-2.335,0.096-4.663,0.208-6.984,0.334L227.208,116.653
	L227.208,116.653z M131.161,142.865c0-10.552,8.135-23.352,19.736-23.352c6.947,0,14.446,5.527,14.446,14.457v39.805
	c-11.768,2.187-23.189,4.803-34.182,7.832C131.161,181.607,131.161,142.9,131.161,142.865z M56.729,166.523
	c8.741-4.676,19.957,1.77,19.957,11.958v23.294c-6.288,3.05-12.46,6.356-18.449,9.962c-4.716,2.84-9.337,5.854-13.792,9.088v-33.801
	C44.444,178.433,49.151,170.577,56.729,166.523z M44.441,464.72c0,0,0-10.869,0-10.875c0-9.845,7.802-22.14,18.663-22.14
	c6.532,0,13.581,5.195,13.581,13.588v19.427H44.441z M131.164,464.72c0,0,0-55.007,0-55.042c0-10.415,8.257-23.351,19.73-23.351
	c6.947,0,14.445,5.528,14.445,14.459v63.934L131.164,464.72L131.164,464.72z M284.795,464.72h-57.589v-81.251
	c0-15.877,12.917-28.795,28.794-28.795c15.878,0,28.795,12.917,28.795,28.795V464.72z M346.66,464.72v-63.934
	c0-8.931,7.498-14.459,14.445-14.459c11.558,0,19.731,12.895,19.731,23.351v55.042H346.66z M435.314,464.72v-19.427
	c0-8.393,7.05-13.588,13.581-13.588c10.937,0,18.663,12.248,18.663,22.14v10.875H435.314z M497,464.72h-14.441
	c0,0,0-10.867,0-10.875c0-18.065-14.566-37.14-33.663-37.14c-15.76,0-28.581,12.825-28.581,28.588v19.427h-24.479
	c0,0,0-55.008,0-55.042c0-18.678-14.978-38.351-34.73-38.351c-16.236,0-29.445,13.215-29.445,29.459v63.934h-31.865v-81.251
	c0-24.148-19.646-43.795-43.795-43.795s-43.794,19.646-43.794,43.795v81.251H180.34v-63.934c0-16.244-13.209-29.459-29.445-29.459
	c-19.833,0-34.731,19.633-34.731,38.351v55.042H91.686v-19.427c0-15.764-12.821-28.588-28.581-28.588
	c-19.215,0-33.663,18.993-33.663,37.14v10.875H15c0,0,0-38.023,0-38.026c0-12.366,4.711-24.398,11.755-34.422
	c0.038-0.054,0.08-0.108,0.118-0.162c22.411-31.79,63.036-48.924,98.974-59.899c42.037-12.837,86.28-18.112,130.153-18.112
	c27.164,0,54.37,2.089,81.161,6.625c37.739,6.39,75.464,17.29,108.491,37.065c24.297,14.548,50.794,37.274,51.325,67.995
	C496.981,426.087,497,464.72,497,464.72z M76.686,335.188c-2.068,1.003-4.116,2.04-6.155,3.099
	c-9.048,4.7-17.83,9.959-26.086,15.951c0,0,0-33.769,0-33.804c0-9.918,7.73-22.134,18.662-22.134c6.531,0,13.58,5.196,13.58,13.59
	v23.298H76.686z M165.343,307.185c-5.863,1.089-11.641,2.284-17.322,3.584c-0.03,0.007-0.06,0.013-0.09,0.02
	c-5.691,1.304-11.282,2.716-16.769,4.228c0,0,0-38.712,0-38.745c0-10.448,8.222-23.352,19.736-23.352
	c6.947,0,14.445,5.527,14.445,14.457L165.343,307.185L165.343,307.185z M380.839,315.018c-10.993-3.03-22.414-5.646-34.182-7.833
	v-39.807c0-8.93,7.498-14.456,14.445-14.457c11.558,0,19.737,12.89,19.737,23.352V315.018z M435.314,335.187V311.89
	c0-8.394,7.049-13.59,13.58-13.59c10.936,0,18.661,12.244,18.661,22.134v33.804c-0.213-0.155-0.438-0.306-0.652-0.46
	c-9.844-7.078-20.4-13.142-31.294-18.444C435.51,335.285,435.414,335.235,435.314,335.187z M491.931,376.477
	c-2.929-3.471-6.073-6.761-9.375-9.875c0,0,0-46.147,0-46.168c0-18.091-14.537-37.134-33.661-37.134
	c-15.759,0-28.58,12.825-28.58,28.59v16.575c-7.831-3.244-16.002-6.237-24.476-8.968c0,0,0-43.203,0-43.223
	c0-18.68-14.981-38.352-34.736-38.352c-16.236,0-29.445,13.214-29.445,29.457v37.287c-25.02-3.787-50.356-5.566-75.657-5.566
	c-25.303,0-50.635,1.78-75.657,5.567V267.38c0-16.242-13.209-29.456-29.445-29.457c-19.823,0-34.737,19.633-34.737,38.352v43.223
	c-0.016,0.005-0.031,0.01-0.047,0.015c-8.261,2.646-16.415,5.634-24.428,8.954v-16.575c0-15.764-12.82-28.589-28.579-28.59
	c-19.206,0-33.662,18.992-33.662,37.134v46.168c-0.235,0.222-0.455,0.448-0.687,0.671c-4.945,4.735-9.599,9.932-13.625,15.524
	c-0.043,0.059-0.09,0.118-0.133,0.177c0,0,0-89.648,0-89.693c0.001-38.813,37.796-63.369,68.916-78.338
	c41.048-19.745,90.187-32.7,135.835-32.976c0.162-0.001,0.324-0.006,0.486-0.017c23.822-1.684,47.704-1.597,71.527,0
	c0.108,0.008,0.215,0.003,0.322,0.006c51.533,3.651,99.01,15.108,136.366,33.161C472.656,236.479,497,264.238,497,293.282v89.692
	c-0.042-0.059-0.09-0.118-0.133-0.177C495.305,380.627,493.655,378.521,491.931,376.477z"/>
<g>
</g>
<g>
</g>
<g>
</g>
<g>
</g>
<g>
</g>
<g>
</g>
<g>
</g>
<g>
</g>
<g>
</g>
<g>
</g>
<g>
</g>
<g>
</g>
<g>
</g>
<g>
</g>
<g>
</g>
</svg>
