<?xml version="1.0" encoding="iso-8859-1"?>
<!-- Generator: Adobe Illustrator 19.0.0, SVG Export Plug-In . SVG Version: 6.00 Build 0)  -->
<svg version="1.1" id="Capa_1" xmlns="http://www.w3.org/2000/svg" xmlns:xlink="http://www.w3.org/1999/xlink" x="0px" y="0px"
	 viewBox="0 0 512 512" style="enable-background:new 0 0 512 512;" xml:space="preserve">
<path style="fill:#DEDEDE;" d="M16.056,330.26c0-20.275,5.272-43.086,5.272-43.086l53.365-9.649l53.365,9.649
	c0,0,5.272,22.811,5.272,43.086l-58.637,15.694L16.056,330.26z"/>
<path style="fill:#BDBDBD;" d="M36.056,330.26c0-20.275,5.272-43.086,5.272-43.086l43.365-7.841l-10-1.808l-53.365,9.649
	c0,0-5.272,22.811-5.272,43.086l58.637,15.693l10-2.676L36.056,330.26z"/>
<path style="fill:#DEDEDE;" d="M495.945,330.26c0-20.275-5.272-43.086-5.272-43.086l-53.365-9.649l-53.365,9.649
	c0,0-5.272,22.811-5.272,43.086l58.637,15.694L495.945,330.26z"/>
<path style="fill:#BDBDBD;" d="M398.671,330.26c0-20.275,5.272-43.086,5.272-43.086l43.365-7.841l-10-1.808l-53.365,9.649
	c0,0-5.272,22.811-5.272,43.086l58.637,15.693l10-2.676L398.671,330.26z"/>
<polygon style="fill:#A3A3A3;" points="160.823,330.26 7.5,330.26 7.5,500.133 160.823,500.133 192.257,420.437 "/>
<rect x="7.5" y="330.261" style="fill:#949494;" width="20" height="169.87"/>
<polygon style="fill:#A3A3A3;" points="351.178,330.26 504.5,330.26 504.5,500.133 351.178,500.133 319.743,420.437 "/>
<g>
	<path style="fill:#DEDEDE;" d="M114.739,356.601L114.739,356.601c-10.12,0-18.324,8.204-18.324,18.323v23.77h36.647v-23.77
		C133.062,364.805,124.858,356.601,114.739,356.601z"/>
	<path style="fill:#DEDEDE;" d="M53.584,356.601L53.584,356.601c-10.12,0-18.324,8.204-18.324,18.323v23.77h36.647v-23.77
		C71.908,364.805,63.704,356.601,53.584,356.601z"/>
	<path style="fill:#DEDEDE;" d="M114.739,423.567L114.739,423.567c-10.12,0-18.324,8.204-18.324,18.323v23.77h36.647v-23.77
		C133.062,431.77,124.858,423.567,114.739,423.567z"/>
	<path style="fill:#DEDEDE;" d="M53.584,423.567L53.584,423.567c-10.12,0-18.324,8.204-18.324,18.323v23.77h36.647v-23.77
		C71.908,431.77,63.704,423.567,53.584,423.567z"/>
	<path style="fill:#DEDEDE;" d="M397.262,356.601L397.262,356.601c10.12,0,18.323,8.204,18.323,18.323v23.77h-36.647v-23.77
		C378.938,364.805,387.142,356.601,397.262,356.601z"/>
	<path style="fill:#DEDEDE;" d="M458.416,356.601L458.416,356.601c10.12,0,18.323,8.204,18.323,18.323v23.77h-36.647v-23.77
		C440.092,364.805,448.296,356.601,458.416,356.601z"/>
	<path style="fill:#DEDEDE;" d="M397.262,423.567L397.262,423.567c10.12,0,18.323,8.204,18.323,18.323v23.77h-36.647v-23.77
		C378.938,431.77,387.142,423.567,397.262,423.567z"/>
	<path style="fill:#DEDEDE;" d="M458.416,423.567L458.416,423.567c10.12,0,18.323,8.204,18.323,18.323v23.77h-36.647v-23.77
		C440.092,431.77,448.296,423.567,458.416,423.567z"/>
	<polygon style="fill:#DEDEDE;" points="199.554,500.133 160.823,500.133 160.823,296.605 256,274.551 351.178,296.605 
		351.178,500.133 312.446,500.133 256,470.041 	"/>
</g>
<polygon style="fill:#BDBDBD;" points="266,276.868 256,274.551 160.823,296.606 160.823,500.133 180.823,500.133 180.823,296.606 
	"/>
<path style="fill:#DEDEDE;" d="M340.17,132.236c-10.386-6.358-19.385-13.289-27.015-20.064L256,93.408l-57.155,18.764
	c-7.63,6.776-16.628,13.706-27.015,20.064c-40.129,24.588-49.836,70.881-11.008,107.593L256,259.914l95.177-20.085
	C390.006,203.117,380.299,156.824,340.17,132.236z"/>
<g>
	<path style="fill:#BDBDBD;" d="M180.823,239.829c-38.828-36.712-29.121-83.005,11.008-107.593
		c10.386-6.358,19.385-13.289,27.015-20.064L266,96.691l-10-3.283l-57.155,18.764c-7.63,6.775-16.628,13.706-27.015,20.064
		c-40.129,24.588-49.836,70.88-11.008,107.593L256,259.914l10-2.11L180.823,239.829z"/>
	<path style="fill:#BDBDBD;" d="M280.636,74.644L256,61.148l-24.636,13.496c0,0-10.668,18.133-32.519,37.527h114.31
		C291.305,92.777,280.636,74.644,280.636,74.644z"/>
</g>
<path style="fill:#A3A3A3;" d="M251.364,74.644L266,66.627l-10-5.478l-24.636,13.496c0,0-10.668,18.133-32.519,37.528h20
	C240.695,92.777,251.364,74.644,251.364,74.644z"/>
<rect x="160.82" y="239.831" style="fill:#BDBDBD;" width="190.35" height="56.776"/>
<rect x="160.82" y="239.831" style="fill:#A3A3A3;" width="20" height="56.776"/>
<path style="fill:#BDBDBD;" d="M312.446,439.483v60.65H199.554v-60.65c0-29.296,13.988-56.835,37.634-74.123l11.076-8.086
	c4.611-3.368,10.862-3.368,15.473,0l11.076,8.086C298.459,382.649,312.446,410.187,312.446,439.483z"/>
<path style="fill:#DEDEDE;" d="M280.636,47.652h-49.273c-7.454,0-13.496,6.042-13.496,13.496s6.042,13.496,13.496,13.496h49.273
	c7.454,0,13.496-6.042,13.496-13.496S288.09,47.652,280.636,47.652z"/>
<path style="fill:#BDBDBD;" d="M237.868,61.149c0-7.454,6.042-13.496,13.496-13.496h-20c-7.454,0-13.496,6.042-13.496,13.496
	s6.042,13.496,13.496,13.496h20C243.91,74.644,237.868,68.602,237.868,61.149z"/>
<path style="fill:#DEDEDE;" d="M128.057,261.923c0,0-0.092-56.301-53.365-56.301s-53.365,56.301-53.365,56.301l53.365,15.602
	L128.057,261.923z"/>
<path style="fill:#BDBDBD;" d="M41.328,261.923c0,0,0.088-49.002,43.365-55.569c-3.108-0.472-6.431-0.732-10-0.732
	c-53.273,0-53.365,56.301-53.365,56.301l53.365,15.602l10-2.923L41.328,261.923z"/>
<path style="fill:#DEDEDE;" d="M383.943,261.923c0,0,0.092-56.301,53.365-56.301s53.365,56.301,53.365,56.301l-53.365,15.602
	L383.943,261.923z"/>
<g>
	<path style="fill:#BDBDBD;" d="M403.943,261.923c0,0,0.088-49.002,43.365-55.569c-3.108-0.472-6.431-0.732-10-0.732
		c-53.273,0-53.365,56.301-53.365,56.301l53.365,15.602l10-2.923L403.943,261.923z"/>
	<path style="fill:#BDBDBD;" d="M131.894,261.923H17.491c-2.092,0-3.788,1.696-3.788,3.788v17.674c0,2.092,1.696,3.788,3.788,3.788
		h114.403c2.092,0,3.788-1.696,3.788-3.788v-17.674C135.682,263.619,133.986,261.923,131.894,261.923z"/>
</g>
<path style="fill:#A3A3A3;" d="M33.703,283.386v-17.675c0-2.092,1.696-3.788,3.788-3.788h-20c-2.092,0-3.788,1.696-3.788,3.788
	v17.675c0,2.092,1.696,3.788,3.788,3.788h20C35.399,287.173,33.703,285.478,33.703,283.386z"/>
<path style="fill:#BDBDBD;" d="M380.106,261.923h114.403c2.092,0,3.788,1.696,3.788,3.788v17.674c0,2.092-1.696,3.788-3.788,3.788
	H380.106c-2.092,0-3.788-1.696-3.788-3.788v-17.674C376.318,263.619,378.014,261.923,380.106,261.923z"/>
<path style="fill:#A3A3A3;" d="M396.318,283.386v-17.675c0-2.092,1.696-3.788,3.788-3.788h-20c-2.092,0-3.788,1.696-3.788,3.788
	v17.675c0,2.092,1.696,3.788,3.788,3.788h20C398.014,287.173,396.318,285.478,396.318,283.386z"/>
<rect x="351.18" y="330.261" style="fill:#949494;" width="20" height="169.87"/>
<path d="M204.117,184.754v-10.748c0-4.142-3.357-7.5-7.5-7.5s-7.5,3.358-7.5,7.5v10.748c0,4.142,3.357,7.5,7.5,7.5
	S204.117,188.896,204.117,184.754z"/>
<path d="M322.883,184.754v-10.748c0-4.142-3.357-7.5-7.5-7.5s-7.5,3.358-7.5,7.5v10.748c0,4.142,3.357,7.5,7.5,7.5
	S322.883,188.896,322.883,184.754z"/>
<path d="M256,197.991c7.876,0,15.276-3.298,20.303-9.048c2.727-3.119,2.408-7.857-0.711-10.583
	c-3.117-2.726-7.857-2.408-10.582,0.711c-2.178,2.492-5.462,3.92-9.01,3.92s-6.832-1.429-9.01-3.92
	c-2.726-3.119-7.465-3.437-10.582-0.711c-3.119,2.726-3.438,7.464-0.711,10.583C240.724,194.693,248.124,197.991,256,197.991z"/>
<path d="M397.262,349.101c-14.239,0-25.823,11.584-25.823,25.823v23.77c0,4.142,3.357,7.5,7.5,7.5h36.646c4.143,0,7.5-3.358,7.5-7.5
	v-23.77C423.085,360.686,411.501,349.101,397.262,349.101z M408.085,391.194h-21.646v-16.27c0-5.968,4.855-10.823,10.823-10.823
	s10.823,4.855,10.823,10.823V391.194z"/>
<path d="M458.416,349.101c-14.239,0-25.823,11.584-25.823,25.823v23.77c0,4.142,3.357,7.5,7.5,7.5h36.646c4.143,0,7.5-3.358,7.5-7.5
	v-23.77C484.239,360.686,472.655,349.101,458.416,349.101z M469.239,391.194h-21.646v-16.27c0-5.968,4.855-10.823,10.823-10.823
	s10.823,4.855,10.823,10.823V391.194z"/>
<path d="M397.262,416.067c-14.239,0-25.823,11.584-25.823,25.823v23.77c0,4.142,3.357,7.5,7.5,7.5h36.646c4.143,0,7.5-3.358,7.5-7.5
	v-23.77C423.085,427.651,411.501,416.067,397.262,416.067z M408.085,458.16h-21.646v-16.27c0-5.968,4.855-10.823,10.823-10.823
	s10.823,4.855,10.823,10.823V458.16z"/>
<path d="M458.416,416.067c-14.239,0-25.823,11.584-25.823,25.823v23.77c0,4.142,3.357,7.5,7.5,7.5h36.646c4.143,0,7.5-3.358,7.5-7.5
	v-23.77C484.239,427.651,472.655,416.067,458.416,416.067z M469.239,458.16h-21.646v-16.27c0-5.968,4.855-10.823,10.823-10.823
	s10.823,4.855,10.823,10.823V458.16z"/>
<path d="M504.5,322.76h-1.263c-0.588-11.22-2.318-22.202-3.637-29.313c3.67-1.865,6.196-5.67,6.196-10.061v-17.675
	c0-5.134-3.448-9.47-8.147-10.835c-0.743-6.02-2.545-15.133-6.908-24.322c-6.44-13.564-19.57-29.506-45.934-32.067v-30.722
	c0-4.142-3.357-7.5-7.5-7.5s-7.5,3.358-7.5,7.5v30.722c-26.363,2.561-39.494,18.503-45.935,32.067
	c-4.363,9.19-6.164,18.303-6.908,24.323c-4.699,1.365-8.146,5.701-8.146,10.835v17.674c0,4.391,2.526,8.195,6.196,10.061
	c-1.319,7.111-3.048,18.093-3.636,29.313h-12.7v-26.154v-53.623c17.874-17.953,26.478-39.358,24.266-60.592
	c-2.316-22.227-16.479-42.839-38.857-56.551c-9.063-5.549-17.795-12.034-25.952-19.276c-0.001-0.001-0.003-0.002-0.004-0.003
	c-12.158-10.793-20.741-21.235-25.753-28.013c5.581-3.778,9.256-10.167,9.256-17.399c0-11.577-9.419-20.996-20.996-20.996H263.5
	V11.869c0-4.142-3.357-7.5-7.5-7.5s-7.5,3.358-7.5,7.5v28.283h-17.137c-11.577,0-20.996,9.419-20.996,20.996
	c0,7.232,3.676,13.621,9.256,17.399c-5.013,6.78-13.595,17.22-25.753,28.013c-0.001,0.001-0.003,0.002-0.004,0.003
	c-8.157,7.242-16.889,13.728-25.955,19.278c-2.172,1.331-4.333,2.773-6.424,4.286c-3.355,2.428-4.106,7.117-1.679,10.473
	c2.429,3.356,7.118,4.107,10.474,1.679c1.78-1.289,3.62-2.516,5.464-3.646c9.019-5.521,17.726-11.892,25.918-18.961h108.672
	c8.192,7.069,16.899,13.44,25.916,18.959c18.363,11.251,29.943,27.768,31.772,45.314c1.757,16.867-5.113,33.543-19.895,48.384
	H163.872c-21.616-21.749-26.171-47.97-12.096-70.625c2.186-3.519,1.105-8.143-2.413-10.329c-3.519-2.186-8.142-1.106-10.329,2.413
	c-17.775,28.611-12.248,62.528,14.288,89.194v53.623v26.154h-12.699c-0.363-6.947-1.206-14.592-2.525-22.831
	c-0.4-2.5-0.751-4.649-1.072-6.502c3.648-1.873,6.155-5.666,6.155-10.041v-17.674c0-5.134-3.448-9.47-8.147-10.835
	c-0.743-6.02-2.543-15.13-6.907-24.323c-6.441-13.564-19.572-29.506-45.935-32.067v-30.722c0-4.142-3.357-7.5-7.5-7.5
	s-7.5,3.358-7.5,7.5v30.722c-26.363,2.561-39.494,18.503-45.934,32.067c-4.363,9.19-6.164,18.303-6.908,24.323
	c-4.7,1.365-8.147,5.701-8.147,10.835v17.674c0,4.391,2.526,8.196,6.196,10.061c-1.319,7.111-3.049,18.093-3.637,29.313H7.5
	c-4.143,0-7.5,3.358-7.5,7.5v169.873c0,4.142,3.357,7.5,7.5,7.5h497c4.143,0,7.5-3.358,7.5-7.5V330.26
	C512,326.118,508.643,322.76,504.5,322.76z M231.363,55.152h49.273c3.307,0,5.996,2.69,5.996,5.996c0,3.306-2.689,5.996-5.996,5.996
	h-49.273c-3.307,0-5.996-2.69-5.996-5.996C225.367,57.842,228.057,55.152,231.363,55.152z M217.305,104.672
	c9.09-9.683,15.104-17.979,18.158-22.527h41.074c3.054,4.548,9.068,12.844,18.158,22.527H217.305z M383.818,279.674v-10.251h0.124
	h106.729h0.125v10.251h-0.125H383.942H383.818z M397.616,236.587c7.554-15.57,20.907-23.465,39.691-23.465
	c18.783,0,32.138,7.895,39.691,23.465c3.125,6.441,4.669,13.001,5.431,17.835h-90.245
	C392.947,249.588,394.491,243.027,397.616,236.587z M390.053,294.674h94.507c1.22,6.386,3.022,17.189,3.655,28.086H386.398
	C387.029,311.835,388.832,301.046,390.053,294.674z M128.057,279.673H21.328h-0.125v-10.251h0.125h106.729
	c0.007,0.001,0.015,0,0.02,0h0.104v10.251h-0.117C128.062,279.674,128.059,279.673,128.057,279.673z M35.001,236.587
	c7.554-15.57,20.908-23.465,39.691-23.465c18.784,0,32.138,7.895,39.692,23.465c3.124,6.441,4.669,13.001,5.431,17.835H29.57
	C30.332,249.588,31.877,243.027,35.001,236.587z M27.438,294.674h94.506c1.221,6.386,3.022,17.189,3.655,28.086H23.784
	C24.415,311.836,26.218,301.047,27.438,294.674z M15,337.76h1.056h137.267v154.873H15V337.76z M252.688,363.331
	c0.03-0.022,0.063-0.036,0.093-0.057c1.934-1.352,4.62-1.339,6.534,0.058l11.071,8.083c21.641,15.821,34.561,41.268,34.561,68.068
	v53.149h-97.893v-53.149c0-26.801,12.92-52.247,34.556-68.065L252.688,363.331z M279.234,359.303l-11.073-8.084
	c-7.123-5.203-17.204-5.237-24.319-0.001l-11.081,8.089c-25.489,18.636-40.707,48.609-40.707,80.178v53.149h-23.731V304.105H288
	c4.143,0,7.5-3.358,7.5-7.5s-3.357-7.5-7.5-7.5H168.322v-41.776h175.355v41.776H318c-4.143,0-7.5,3.358-7.5,7.5s3.357,7.5,7.5,7.5
	h25.678v188.527h-23.731v-53.149C319.946,407.915,304.729,377.941,279.234,359.303z M497,492.633H358.678V337.76h137.267H497
	V492.633z"/>
<path d="M114.738,349.101c-14.239,0-25.823,11.584-25.823,25.823v23.77c0,4.142,3.357,7.5,7.5,7.5h36.646c4.143,0,7.5-3.358,7.5-7.5
	v-23.77C140.562,360.686,128.978,349.101,114.738,349.101z M125.562,391.194h-21.646v-16.27c0-5.968,4.855-10.823,10.823-10.823
	s10.823,4.855,10.823,10.823V391.194z"/>
<path d="M53.584,349.101c-14.239,0-25.823,11.584-25.823,25.823v23.77c0,4.142,3.357,7.5,7.5,7.5h36.646c4.143,0,7.5-3.358,7.5-7.5
	v-23.77C79.407,360.686,67.823,349.101,53.584,349.101z M64.407,391.194H42.761v-16.27c0-5.968,4.855-10.823,10.823-10.823
	s10.823,4.855,10.823,10.823V391.194z"/>
<path d="M114.738,416.067c-14.239,0-25.823,11.584-25.823,25.823v23.77c0,4.142,3.357,7.5,7.5,7.5h36.646c4.143,0,7.5-3.358,7.5-7.5
	v-23.77C140.562,427.651,128.978,416.067,114.738,416.067z M125.562,458.16h-21.646v-16.27c0-5.968,4.855-10.823,10.823-10.823
	s10.823,4.855,10.823,10.823V458.16z"/>
<path d="M53.584,416.067c-14.239,0-25.823,11.584-25.823,25.823v23.77c0,4.142,3.357,7.5,7.5,7.5h36.646c4.143,0,7.5-3.358,7.5-7.5
	v-23.77C79.407,427.651,67.823,416.067,53.584,416.067z M64.407,458.16H42.761v-16.27c0-5.968,4.855-10.823,10.823-10.823
	s10.823,4.855,10.823,10.823V458.16z"/>
<g>
</g>
<g>
</g>
<g>
</g>
<g>
</g>
<g>
</g>
<g>
</g>
<g>
</g>
<g>
</g>
<g>
</g>
<g>
</g>
<g>
</g>
<g>
</g>
<g>
</g>
<g>
</g>
<g>
</g>
</svg>
