<?xml version="1.0" encoding="iso-8859-1"?>
<!-- Generator: Adobe Illustrator 19.0.0, SVG Export Plug-In . SVG Version: 6.00 Build 0)  -->
<svg version="1.1" id="Capa_1" xmlns="http://www.w3.org/2000/svg" xmlns:xlink="http://www.w3.org/1999/xlink" x="0px" y="0px"
	 viewBox="0 0 512 512" style="enable-background:new 0 0 512 512;" xml:space="preserve">
<g>
	<path style="fill:#AE8372;" d="M284.051,117.58l-28.049-14.751l-28.055,14.751C196.994,351.667,58.67,504.5,58.67,504.5h83.188
		c0-34.19,51.103-61.907,114.141-61.907S370.141,470.31,370.141,504.5h83.188C453.328,504.5,315.004,351.667,284.051,117.58z
		 M281.2,241.394h-50.402c9.422-31.378,16.832-63.072,22.141-94.795h6.12C264.367,178.322,271.778,210.016,281.2,241.394z
		 M173.004,383.587c16.312-31.476,30.623-63.916,42.681-96.808c1.76-4.801,3.463-9.611,5.127-14.432h70.374
		c1.664,4.821,3.367,9.631,5.127,14.432c12.058,32.892,26.369,65.332,42.681,96.808L173.004,383.587L173.004,383.587z"/>
	<path style="fill:#AE8372;" d="M240.038,102.828l8.706-88.75c0.393-4.007,3.96-6.936,7.966-6.543
		c3.523,0.346,6.212,3.148,6.543,6.543l8.706,88.75c0.865,8.815-5.58,16.661-14.395,17.526c-8.815,0.865-16.661-5.58-17.526-14.395
		C239.937,104.929,239.947,103.824,240.038,102.828z"/>
</g>
<path style="fill:#946F61;" d="M256.002,102.828l-28.055,14.751c-1.117,8.444-2.388,16.771-3.773,25h63.649
	c-1.385-8.229-2.656-16.556-3.773-25L256.002,102.828z"/>
<path style="fill:#C79682;" d="M292.932,88.077h-73.866c-8.147,0-14.751,6.604-14.751,14.751s6.604,14.751,14.751,14.751h73.866
	c8.147,0,14.751-6.604,14.751-14.751S301.079,88.077,292.932,88.077z"/>
<path style="fill:#946F61;" d="M122.498,414.541c-5.37,8.948-10.614,17.299-15.637,25h298.275c-5.023-7.701-10.267-16.052-15.637-25
	H122.498z"/>
<path style="fill:#C79682;" d="M420.679,383.587H91.319c-5.659,0-10.247,4.588-10.247,10.247v10.459
	c0,5.66,4.588,10.247,10.247,10.247h329.36c5.659,0,10.247-4.588,10.247-10.247v-10.459
	C430.927,388.175,426.339,383.587,420.679,383.587z"/>
<g>
	<path style="fill:#946F61;" d="M190.021,272.348c-3.067,8.526-6.22,16.875-9.458,25h31.15c1.345-3.518,2.678-7.039,3.971-10.568
		c1.76-4.801,3.463-9.611,5.127-14.432H190.021z"/>
	<path style="fill:#946F61;" d="M291.186,272.348c1.664,4.821,3.367,9.631,5.127,14.432c1.294,3.529,2.626,7.05,3.971,10.568h31.15
		c-3.238-8.125-6.391-16.474-9.458-25H291.186z"/>
</g>
<path style="fill:#C79682;" d="M347.404,241.394h-182.81c-5.659,0-10.247,4.588-10.247,10.247V262.1
	c0,5.66,4.588,10.247,10.247,10.247h182.81c5.659,0,10.247-4.588,10.247-10.247v-10.459
	C357.651,245.982,353.063,241.394,347.404,241.394z"/>
<path d="M214.889,366.391c4.142,0,7.5-3.358,7.5-7.5v-7.44c0-4.142-3.358-7.5-7.5-7.5s-7.5,3.358-7.5,7.5v7.44
	C207.389,363.033,210.747,366.391,214.889,366.391z"/>
<path d="M297.11,366.391c4.142,0,7.5-3.358,7.5-7.5v-7.44c0-4.142-3.358-7.5-7.5-7.5s-7.5,3.358-7.5,7.5v7.44
	C289.61,363.033,292.968,366.391,297.11,366.391z"/>
<path d="M256,370.362c6.119,0,11.875-2.571,15.793-7.053c2.726-3.119,2.408-7.857-0.711-10.583s-7.857-2.409-10.583,0.711
	c-1.069,1.223-2.709,1.925-4.5,1.925c-1.79,0-3.43-0.702-4.5-1.925c-2.727-3.119-7.464-3.437-10.583-0.711
	s-3.437,7.464-0.711,10.583C244.125,367.791,249.881,370.362,256,370.362z"/>
<path d="M51.815,507.542c1.203,2.71,3.89,4.458,6.855,4.458h83.188c4.142,0,7.5-3.358,7.5-7.5
	c0-29.492,48.836-54.407,106.642-54.407s106.642,24.916,106.642,54.407c0,4.142,3.358,7.5,7.5,7.5h83.188
	c2.964,0,5.65-1.747,6.854-4.456c1.203-2.709,0.697-5.874-1.29-8.074c-0.268-0.297-25.327-28.232-56.002-77.429h17.79
	c9.786,0,17.747-7.961,17.747-17.747v-10.459c0-9.786-7.961-17.748-17.747-17.748h-44.34c-16.696-31.219-31.338-63.526-43.622-96.24
	h14.686c9.786,0,17.748-7.961,17.748-17.747v-10.459c0-9.786-7.961-17.748-17.748-17.748h-30.318
	c-10.959-35.936-19.161-72.472-24.421-108.814h0.267c12.27,0,22.251-9.982,22.251-22.251c0-12.27-9.982-22.251-22.251-22.251
	h-15.619L270.72,13.35c-0.683-7.007-6.266-12.592-13.276-13.28C256.961,0.024,256.473,0,255.991,0
	c-7.64,0-13.964,5.738-14.711,13.347l-6.595,67.23h-15.619c-12.27,0-22.251,9.982-22.251,22.251s9.982,22.251,22.251,22.251h0.267
	c-5.26,36.342-13.462,72.879-24.42,108.814h-30.319c-9.786,0-17.748,7.961-17.748,17.748V262.1c0,9.786,7.961,17.747,17.748,17.747
	h14.686c-12.283,32.713-26.926,65.021-43.622,96.24H91.319c-9.786,0-17.747,7.961-17.747,17.748v10.459
	c0,9.786,7.961,17.747,17.747,17.747h17.79c-30.674,49.197-55.733,77.132-56,77.428C51.119,501.667,50.612,504.832,51.815,507.542z
	 M359.364,376.087h-15.795c-15.303-29.927-28.823-60.818-40.214-91.889c-0.525-1.433-1.05-2.88-1.579-4.351h14.931
	C328.708,312.51,343.023,344.807,359.364,376.087z M226.14,279.848h59.72c1.156,3.286,2.285,6.439,3.412,9.514
	c10.735,29.281,23.332,58.398,37.498,86.726H185.23c14.166-28.328,26.763-57.445,37.498-86.727
	C223.854,286.287,224.984,283.134,226.14,279.848z M256,16.944l6.242,63.633h-12.484L256,16.944z M211.815,102.829
	c0-3.999,3.253-7.251,7.251-7.251h73.866c3.999,0,7.251,3.253,7.251,7.251s-3.253,7.251-7.251,7.251h-73.866
	C215.068,110.08,211.815,106.827,211.815,102.829z M234.491,125.08h43.018c5.145,36.327,13.168,72.855,23.9,108.814h-14.608
	c-8.576-29.317-15.413-59.073-20.343-88.533c-0.604-3.614-3.732-6.262-7.397-6.262h-6.12c-3.665,0-6.792,2.648-7.397,6.262
	c-4.93,29.461-11.768,59.217-20.343,88.533h-14.608C221.322,197.935,229.346,161.407,234.491,125.08z M271.188,233.894h-30.377
	c5.931-20.7,11.016-41.6,15.188-62.453C260.172,192.294,265.257,213.194,271.188,233.894z M161.847,262.101v-10.459
	c0-1.515,1.232-2.748,2.748-2.748h182.81c1.515,0,2.748,1.232,2.748,2.748v10.459c0,1.515-1.232,2.747-2.748,2.747h-182.81
	C163.08,264.848,161.847,263.615,161.847,262.101z M195.292,279.848h14.931c-0.528,1.471-1.054,2.918-1.579,4.351
	c-11.391,31.071-24.911,61.962-40.214,91.889h-15.794C168.976,344.807,183.292,312.51,195.292,279.848z M126.726,422.041h43.281
	c4.142,0,7.5-3.358,7.5-7.5s-3.358-7.5-7.5-7.5H91.319c-1.515,0-2.747-1.232-2.747-2.747v-10.459c0-1.515,1.232-2.748,2.747-2.748
	H420.68c1.515,0,2.747,1.232,2.747,2.748v10.459c0,1.515-1.232,2.747-2.747,2.747H199.958c-4.142,0-7.5,3.358-7.5,7.5
	s3.358,7.5,7.5,7.5h185.315c21.568,35.525,40.711,60.955,51.969,74.959H376.97c-6.358-35.268-57.207-61.907-120.971-61.907
	S141.387,461.732,135.029,497H74.757C86.014,482.996,105.157,457.566,126.726,422.041z"/>
<g>
</g>
<g>
</g>
<g>
</g>
<g>
</g>
<g>
</g>
<g>
</g>
<g>
</g>
<g>
</g>
<g>
</g>
<g>
</g>
<g>
</g>
<g>
</g>
<g>
</g>
<g>
</g>
<g>
</g>
</svg>
