<?xml version="1.0" encoding="iso-8859-1"?>
<!-- Generator: Adobe Illustrator 19.0.0, SVG Export Plug-In . SVG Version: 6.00 Build 0)  -->
<svg version="1.1" id="Capa_1" xmlns="http://www.w3.org/2000/svg" xmlns:xlink="http://www.w3.org/1999/xlink" x="0px" y="0px"
	 viewBox="0 0 512 512" style="enable-background:new 0 0 512 512;" xml:space="preserve">
<path style="fill:#D9D9D9;" d="M100.202,230.051l-26.371,19.738L51.3,286.861c-3.912,6.437-6.333,13.669-7.084,21.165
	c-1.329,13.266-7.857,25.466-18.157,33.932l-0.151,0.124C14.254,351.662,7.5,365.956,7.5,381.042v10.263l47.564,22.209
	l35.593-22.209l10.476-42.17c4.657-18.744,7.788-37.833,9.363-57.083l3.458-42.264L100.202,230.051z"/>
<path style="fill:#BDBDBD;" d="M37.5,391.305v-10.264c0-15.086,6.754-29.38,18.408-38.959l0.151-0.125
	c10.3-8.466,16.828-20.666,18.157-33.932c0.751-7.496,3.172-14.727,7.084-21.165l22.531-37.072l6.653-4.979l-10.282-14.758
	l-26.371,19.738L51.3,286.861c-3.912,6.438-6.333,13.669-7.084,21.165c-1.329,13.267-7.857,25.466-18.157,33.932l-0.151,0.125
	C14.254,351.662,7.5,365.956,7.5,381.042v10.264l47.564,22.208l12.84-8.012L37.5,391.305z"/>
<path style="fill:#D9D9D9;" d="M229.791,343.262c-4.712-13.468-7.118-27.634-7.118-41.903v-1.637c0-13.36-2.11-26.636-6.252-39.338
	l-3.455-10.596l-32.357-25.562l-30.415,25.562l-8.133,65.707c-3.197,25.831-9.149,51.245-17.752,75.81l0,0l56.948,29.792
	l55.654-29.789v-6.145C236.909,370.896,234.503,356.73,229.791,343.262z"/>
<path style="fill:#BDBDBD;" d="M154.308,391.305L154.308,391.305c8.604-24.564,14.555-49.979,17.753-75.81l8.133-65.707
	l15.879-13.345l-15.464-12.217l-30.415,25.562l-8.133,65.707c-3.197,25.831-9.149,51.245-17.752,75.81l0,0l56.948,29.792
	l14.828-7.937L154.308,391.305z"/>
<path style="fill:#D9D9D9;" d="M411.798,230.051l26.371,19.738l22.531,37.072c3.912,6.437,6.333,13.669,7.084,21.165
	c1.329,13.266,7.857,25.466,18.157,33.932l0.151,0.124c11.654,9.58,18.408,23.873,18.408,38.96v10.263l-47.564,22.209
	l-35.593-22.209l-10.476-42.17c-4.657-18.744-7.788-37.833-9.363-57.083l-3.458-42.264L411.798,230.051z"/>
<path style="fill:#BDBDBD;" d="M451.343,391.305l-10.476-42.17c-4.657-18.744-7.788-37.833-9.363-57.083l-3.458-42.264l3.469-4.979
	l-19.718-14.758l-13.752,19.738l3.458,42.264c1.575,19.25,4.706,38.339,9.363,57.083l10.476,42.17l35.593,22.208l17.16-8.012
	L451.343,391.305z"/>
<path style="fill:#D9D9D9;" d="M282.209,343.262c4.712-13.468,7.118-27.634,7.118-41.903v-1.637c0-13.36,2.11-26.636,6.252-39.338
	l3.455-10.596l32.357-25.562l30.415,25.562l8.133,65.707c3.197,25.831,9.149,51.245,17.752,75.81l0,0l-56.948,29.792l-55.654-29.789
	v-6.145C275.09,370.896,277.497,356.73,282.209,343.262z"/>
<g>
	<path style="fill:#BDBDBD;" d="M305.09,391.309v-6.145c0-14.269,2.406-28.435,7.118-41.902c4.712-13.468,7.118-27.634,7.118-41.903
		v-1.637c0-13.359,2.11-26.636,6.252-39.337l3.455-10.596l16.893-13.345l-14.536-12.217l-32.357,25.562l-3.455,10.596
		c-4.142,12.702-6.252,25.978-6.252,39.337v1.637c0,14.269-2.406,28.435-7.118,41.903c-4.712,13.468-7.118,27.634-7.118,41.902
		v6.145l55.654,29.789l15.172-7.937L305.09,391.309z"/>
	<path style="fill:#BDBDBD;" d="M353.07,209.433l-21.679-11.966l0,0l0,0c0-12.311-9.98-22.292-22.291-22.292H202.9
		c-12.311,0-22.291,9.98-22.291,22.292l-21.679,11.966l21.679,40.356h150.782l0,0l0,0L353.07,209.433z"/>
</g>
<g>
	<path style="fill:#F7F7F7;" d="M157.097,53.13c-1.219,0-2.416,0.095-3.584,0.277c-4.613-16.009-19.362-27.724-36.856-27.724
		c-18.699,0-34.264,13.381-37.664,31.088c-3.599-2.301-7.872-3.641-12.461-3.641c-12.796,0-23.17,10.374-23.17,23.17
		s10.373,23.17,23.17,23.17h90.565c12.796,0,23.17-10.373,23.17-23.17C180.267,63.504,169.893,53.13,157.097,53.13z"/>
	<path style="fill:#F7F7F7;" d="M427.205,137.986c14.579,0,26.398-11.819,26.398-26.398c0-13.362-9.93-24.398-22.812-26.149
		c0.25-2.058,0.394-4.149,0.394-6.275c0-28.464-23.075-51.539-51.539-51.539c-23.591,0-43.466,15.856-49.584,37.488
		c-6.849-5.505-15.545-8.806-25.016-8.806c-18.69,0-34.379,12.829-38.753,30.161c-2.558-0.826-5.285-1.277-8.118-1.277
		c-14.579,0-26.398,11.819-26.398,26.398s11.819,26.398,26.398,26.398h169.03V137.986z"/>
</g>
<rect x="7.5" y="391.31" style="fill:#2FC8B4;" width="497" height="95.01"/>
<g>
	<path style="fill:#A3A3A3;" d="M158.966,175.176H95.474c-11.953,0-21.642,9.689-21.642,21.642v52.97h106.777v-52.97
		C180.609,184.866,170.919,175.176,158.966,175.176z"/>
	<path style="fill:#A3A3A3;" d="M353.034,175.176h63.493c11.953,0,21.642,9.689,21.642,21.642v52.97H331.391v-52.97
		C331.391,184.866,341.081,175.176,353.034,175.176z"/>
</g>
<path d="M211.36,220.973c4.142,0,7.5-3.358,7.5-7.5v-8.079c0-4.142-3.358-7.5-7.5-7.5s-7.5,3.358-7.5,7.5v8.079
	C203.86,217.615,207.218,220.973,211.36,220.973z"/>
<path d="M300.64,220.973c4.143,0,7.5-3.358,7.5-7.5v-8.079c0-4.142-3.357-7.5-7.5-7.5s-7.5,3.358-7.5,7.5v8.079
	C293.14,217.615,296.497,220.973,300.64,220.973z"/>
<path d="M256,225.285c6.458,0,12.531-2.711,16.664-7.438c2.727-3.119,2.408-7.857-0.71-10.583c-3.119-2.728-7.857-2.409-10.583,0.71
	c-1.284,1.469-3.241,2.311-5.371,2.311c-2.129,0-4.087-0.842-5.371-2.311c-2.726-3.119-7.464-3.437-10.583-0.711
	c-3.119,2.726-3.437,7.464-0.711,10.583C243.468,222.574,249.542,225.285,256,225.285z"/>
<path d="M66.532,106.97h90.565c16.911,0,30.669-13.758,30.669-30.669c0-16.383-12.913-29.807-29.094-30.63
	c-7.215-16.442-23.724-27.487-42.015-27.487c-18.854,0-35.484,11.529-42.425,28.428c-2.499-0.648-5.084-0.98-7.7-0.98
	c-16.912,0-30.67,13.758-30.67,30.67C35.862,93.212,49.621,106.97,66.532,106.97z M66.532,60.631c2.993,0,5.904,0.851,8.42,2.459
	c4.396,2.81,10.426,0.203,11.406-4.904c2.782-14.487,15.525-25.002,30.299-25.002c13.673,0,25.865,9.17,29.649,22.301
	c1.045,3.628,4.623,5.912,8.356,5.335c0.806-0.125,1.625-0.188,2.435-0.188c8.64,0,15.669,7.029,15.669,15.67
	c0,8.64-7.029,15.669-15.669,15.669H66.532c-8.641,0-15.67-7.029-15.67-15.669C50.862,67.66,57.892,60.631,66.532,60.631z"/>
<path d="M379.646,20.125c-22.962,0-43.685,13.47-53.331,33.726c-6.566-3.288-13.867-5.043-21.27-5.043
	c-19.35,0-36.45,11.634-43.755,29.026c-1.034-0.095-2.073-0.143-3.116-0.143c-18.691,0-33.897,15.207-33.897,33.898
	s15.207,33.898,33.897,33.898h169.031c18.691,0,33.897-15.207,33.897-33.898c0-14.463-9.256-27.137-22.421-31.892
	c0.002-0.178,0.003-0.356,0.003-0.533C438.685,46.61,412.2,20.125,379.646,20.125z M446.103,111.589
	c0,10.42-8.478,18.898-18.897,18.898H258.174c-10.42,0-18.897-8.478-18.897-18.898s8.477-18.897,18.896-18.898
	c5.601,0,13.358,3.666,15.392-4.387c3.64-14.423,16.585-24.496,31.48-24.496c7.47,0,14.496,2.473,20.317,7.151
	c4.121,3.312,10.483,1.262,11.915-3.804c5.335-18.859,22.757-32.03,42.368-32.03c24.283,0,44.039,19.756,44.039,44.04
	c0,1.736-0.111,3.494-0.339,5.371c-0.494,4.071,2.372,7.784,6.436,8.336C439.086,94.136,446.103,102.183,446.103,111.589z"/>
<path d="M490.845,336.281l-0.142-0.116c-8.829-7.256-14.318-17.515-15.457-28.886c-0.857-8.556-3.671-16.962-8.138-24.312
	l-21.439-35.276v-50.872c0-16.069-13.073-29.142-29.143-29.142h-63.493c-8.677,0-16.475,3.817-21.819,9.854
	c-5.456-6.047-13.349-9.854-22.115-9.854H202.9c-8.766,0-16.659,3.808-22.115,9.854c-5.343-6.037-13.142-9.854-21.819-9.854H95.474
	c-16.069,0-29.142,13.073-29.142,29.142v50.869l-21.44,35.278c-4.466,7.349-7.28,15.756-8.137,24.313
	c-1.14,11.371-6.629,21.63-15.447,28.878l-0.162,0.132C7.708,347.335,0,363.647,0,381.042v105.274c0,4.142,3.358,7.5,7.5,7.5h497
	c4.143,0,7.5-3.358,7.5-7.5V381.042C512,363.647,504.293,347.335,490.845,336.281z M338.892,196.819
	c0-7.798,6.344-14.142,14.142-14.142h63.493c7.798,0,14.143,6.344,14.143,14.142v45.47h-91.777v-45.47H338.892z M394.029,292.665
	c1.603,19.593,4.819,39.201,9.559,58.279l8.164,32.862h-18.696c-7.495-22.47-12.765-45.732-15.674-69.231l-7.09-57.286h20.843
	L394.029,292.665z M244.395,383.806c-0.147-14.683-2.672-29.15-7.525-43.021c-4.444-12.703-6.697-25.967-6.697-39.426
	c0-14.727-2.049-29.276-6.622-43.3l-0.251-0.771h65.4l-0.251,0.771c-4.534,14.039-6.621,28.564-6.621,43.3
	c0,13.458-2.253,26.723-6.697,39.426c-4.853,13.872-7.379,28.339-7.526,43.021H244.395z M289.288,345.739
	c5.003-14.298,7.539-29.229,7.539-44.379c0-15.227,2.954-29.667,7.65-44.07h50.7l7.318,59.128
	c2.826,22.833,7.79,45.455,14.78,67.389h-94.679C282.744,370.815,284.993,358.015,289.288,345.739z M202.9,182.676h106.2
	c8.156,0,14.791,6.636,14.791,14.792v44.821H188.109v-44.831C188.114,189.307,194.747,182.676,202.9,182.676z M81.332,196.819
	c0-7.798,6.344-14.142,14.142-14.142h63.493c7.798,0,14.143,6.344,14.143,14.142v0.63c0,0.007,0,0.013,0,0.019v44.821H81.332
	V196.819z M118.943,383.806h-18.694l8.164-32.862c4.739-19.077,7.956-38.685,9.559-58.279l2.894-35.376h20.842l-7.09,57.286
	C131.709,338.073,126.438,361.335,118.943,383.806z M15,381.042c0-12.892,5.712-24.98,15.661-33.158l0.161-0.132
	c11.913-9.792,19.32-23.635,20.858-38.979c0.635-6.341,2.72-12.571,6.03-18.017l20.339-33.467h27.766l-2.794,34.152
	c-1.538,18.79-4.622,37.593-9.167,55.886l-9.062,36.479H15V381.042z M497,478.817H15v-80.011h141.672c4.142,0,7.5-3.358,7.5-7.5
	s-3.358-7.5-7.5-7.5h-21.949c6.99-21.935,11.955-44.557,14.781-67.389l7.318-59.128h50.7c4.708,14.435,7.65,28.822,7.65,44.07
	c0,15.149,2.537,30.081,7.539,44.379c4.294,12.275,6.543,25.074,6.689,38.067h-42.767c-4.142,0-7.5,3.358-7.5,7.5s3.358,7.5,7.5,7.5
	H497V478.817z M497,383.806h-69.793l-9.063-36.479c-4.544-18.294-7.628-37.097-9.166-55.886l-2.794-34.152h27.765l20.341,33.467
	c3.31,5.447,5.396,11.677,6.03,18.017c1.537,15.344,8.945,29.188,20.867,38.987l0.142,0.116C491.288,356.062,497,368.15,497,381.042
	L497,383.806L497,383.806z"/>
<g>
</g>
<g>
</g>
<g>
</g>
<g>
</g>
<g>
</g>
<g>
</g>
<g>
</g>
<g>
</g>
<g>
</g>
<g>
</g>
<g>
</g>
<g>
</g>
<g>
</g>
<g>
</g>
<g>
</g>
</svg>
