<?xml version="1.0" encoding="iso-8859-1"?>
<!-- Generator: Adobe Illustrator 19.0.0, SVG Export Plug-In . SVG Version: 6.00 Build 0)  -->
<svg version="1.1" id="Capa_1" xmlns="http://www.w3.org/2000/svg" xmlns:xlink="http://www.w3.org/1999/xlink" x="0px" y="0px"
	 viewBox="0 0 511.999 511.999" style="enable-background:new 0 0 511.999 511.999;" xml:space="preserve">
<g>
	<path style="fill:#FF6835;" d="M100.398,121.997c-0.013,0.08-0.028,0.16-0.043,0.251c-4.58,28.34-19.15,54.317-41.048,73.168
		c-14.968,12.885-32.749,21.857-51.736,26.337V257.5c27.426-4.98,53.221-17.178,74.57-35.557
		c14.506-12.487,26.503-27.418,35.538-43.947c9.036,16.529,21.033,31.46,35.539,43.947c28.535,24.565,65.011,38.093,102.708,38.093
		s74.173-13.528,102.709-38.093c14.505-12.487,26.502-27.418,35.538-43.947c9.036,16.529,21.033,31.46,35.538,43.947
		c21.387,18.411,47.235,30.623,74.715,35.585v-35.739c-19.042-4.468-36.875-13.454-51.881-26.371
		c-21.898-18.851-36.468-44.828-41.05-73.184c-0.013-0.079-0.028-0.157-0.04-0.236l-34.489-0.349
		c-0.021,0.118-0.055,0.23-0.074,0.349c-0.013,0.079-0.028,0.158-0.043,0.252c-4.581,28.34-19.15,54.317-41.049,73.168
		c-22.187,19.1-50.554,29.619-79.874,29.619s-57.687-10.519-79.874-29.618c-21.899-18.852-36.467-44.828-41.052-73.188
		c-0.013-0.078-0.027-0.155-0.04-0.233L100.398,121.997L100.398,121.997z"/>
	<rect x="7.499" y="313.36" style="fill:#FF6835;" width="497" height="35.02"/>
</g>
<g>
	<path style="fill:#E65E30;" d="M165.999,185.709c-16.301-17.627-27.157-39.715-30.998-63.479c-0.013-0.078-0.027-0.155-0.04-0.233
		h-34.563c-0.013,0.081-0.028,0.16-0.043,0.251C96.26,147.592,84.17,171.042,65.999,189.2v44.907
		c5.61-3.691,11.008-7.744,16.142-12.165c14.506-12.487,26.503-27.418,35.538-43.947c9.036,16.528,21.033,31.46,35.539,43.947
		c4.101,3.531,8.371,6.825,12.78,9.892v-46.125H165.999z"/>
	<rect x="65.999" y="313.36" style="fill:#E65E30;" width="100" height="35.02"/>
</g>
<path style="fill:#FF462E;" d="M124.966,89.536h-17.934c-6.094,0-11.033,4.94-11.033,11.033v312.967h40V100.569
	C135.999,94.475,131.059,89.536,124.966,89.536z"/>
<g>
	<path style="fill:#E65E30;" d="M445.999,189.345c-18.251-18.178-30.394-41.687-34.503-67.111c-0.013-0.079-0.028-0.157-0.04-0.236
		l-34.489-0.349c-0.021,0.118-0.055,0.23-0.074,0.349c-0.013,0.079-0.028,0.158-0.043,0.252
		c-3.827,23.677-14.631,45.701-30.851,63.302v46.184c4.358-3.039,8.58-6.3,12.637-9.792c14.505-12.487,26.502-27.418,35.538-43.947
		c9.036,16.529,21.033,31.46,35.538,43.947c5.179,4.458,10.625,8.545,16.287,12.262L445.999,189.345L445.999,189.345z"/>
	<rect x="345.999" y="313.36" style="fill:#E65E30;" width="100" height="35.02"/>
</g>
<path style="fill:#FF462E;" d="M387.032,89.536h17.934c6.094,0,11.033,4.94,11.033,11.033v312.967h-40V100.569
	C375.999,94.475,380.939,89.536,387.032,89.536z"/>
<path style="fill:#42C3E2;" d="M7.644,378.361v102.603h496.855V378.361l0,0c-17.214-9.35-37.992-9.35-55.206,0l0,0
	c-17.214,9.35-37.992,9.35-55.206,0l0,0c-17.214-9.35-37.992-9.35-55.206,0l0,0c-17.214,9.35-37.992,9.35-55.206,0l0,0
	c-17.214-9.35-37.992-9.35-55.206,0l0,0c-17.214,9.35-37.992,9.35-55.206,0l0,0c-17.214-9.35-37.992-9.35-55.206,0l0,0
	c-17.214,9.35-37.992,9.35-55.206,0l0,0C45.635,369.01,24.858,369.01,7.644,378.361L7.644,378.361"/>
<path d="M160.999,412.372c-4.143,0-7.5,3.358-7.5,7.5v17.194c0,4.142,3.357,7.5,7.5,7.5s7.5-3.358,7.5-7.5v-17.194
	C168.499,415.73,165.142,412.372,160.999,412.372z"/>
<path d="M350.999,412.372c-4.143,0-7.5,3.358-7.5,7.5v17.194c0,4.142,3.357,7.5,7.5,7.5s7.5-3.358,7.5-7.5v-17.194
	C358.499,415.73,355.142,412.372,350.999,412.372z"/>
<path d="M284.383,430.223c-3.119-2.727-7.858-2.41-10.583,0.71c-4.339,4.963-10.827,7.81-17.801,7.81s-13.462-2.847-17.801-7.81
	c-2.725-3.118-7.464-3.436-10.582-0.711c-3.119,2.726-3.438,7.464-0.711,10.583c7.187,8.222,17.791,12.938,29.094,12.938
	c11.303,0,21.906-4.715,29.094-12.938C287.819,437.687,287.501,432.949,284.383,430.223z"/>
<path d="M7.499,355.877h81v21.935c-7.7-0.302-15.292-2.36-22.069-6.042c-9.542-5.183-20.324-7.923-31.183-7.923
	s-21.642,2.74-31.184,7.923c-2.416,1.312-3.92,3.841-3.92,6.59v102.604c0,4.142,3.357,7.5,7.5,7.5h496.856
	c4.143,0,7.5-3.358,7.5-7.5V378.361c0-2.75-1.504-5.278-3.92-6.59c-9.542-5.183-20.324-7.923-31.183-7.923
	s-21.642,2.74-31.184,7.923c-6.82,3.704-14.465,5.764-22.214,6.046v-21.94h81c4.143,0,7.5-3.358,7.5-7.5v-35.016
	c0-4.142-3.357-7.5-7.5-7.5h-13v-43.494c3.827,0.98,7.692,1.836,11.595,2.541c0.443,0.08,0.89,0.119,1.333,0.119
	c1.744,0,3.449-0.609,4.809-1.745c1.706-1.425,2.691-3.533,2.691-5.755v-35.739c0-3.482-2.396-6.506-5.787-7.302
	c-17.938-4.208-34.778-12.768-48.7-24.753c-15.627-13.452-27.336-30.821-33.94-50.278v-38.886c0-10.219-8.313-18.533-18.533-18.533
	h-1.611v-51c0-4.142-3.357-7.5-7.5-7.5s-7.5,3.358-7.5,7.5v51h-1.322c-10.22,0-18.533,8.314-18.533,18.533v25.504
	c-5.125,24.593-18.448,47.18-37.592,63.66c-20.825,17.929-47.454,27.803-74.98,27.803c-18.457,0-36.867-4.519-53.241-13.067
	c-3.671-1.917-8.203-0.495-10.119,3.177c-1.917,3.672-0.494,8.203,3.178,10.12c18.508,9.663,39.318,14.77,60.183,14.77
	c31.116,0,61.221-11.164,84.767-31.435c11.128-9.58,20.52-20.985,27.806-33.59v34.146c-4.58,5.204-9.534,10.106-14.756,14.602
	c-27.176,23.394-61.914,36.277-97.816,36.277c-13.511,0-26.856-1.826-39.701-5.35c-21.278-5.838-41.167-16.338-58.115-30.928
	c-5.162-4.443-10.068-9.292-14.612-14.441v-34.083c7.12,12.25,16.229,23.37,26.973,32.751c3.122,2.725,7.857,2.405,10.583-0.716
	c2.725-3.12,2.403-7.858-0.716-10.583c-18.619-16.259-31.674-38.401-36.84-62.411v-26.207c0-10.219-8.313-18.533-18.533-18.533
	h-1.47v-51c0-4.142-3.357-7.5-7.5-7.5s-7.5,3.358-7.5,7.5v51h-1.467c-10.22,0-18.533,8.314-18.533,18.533v38.463
	c-6.577,19.629-18.336,37.144-34.084,50.701c-13.886,11.953-30.68,20.501-48.565,24.721c-3.386,0.799-5.778,3.821-5.778,7.3
	c0,0,0,35.667,0,35.746c0,4.55,4.373,8.193,8.84,7.38c3.9-0.708,7.763-1.567,11.588-2.55v43.532h-13c-4.143,0-7.5,3.358-7.5,7.5
	v35.016C-0.001,352.519,3.356,355.877,7.499,355.877z M88.499,226.325v79.536h-11v-70.644
	C80.762,232.805,88.01,226.757,88.499,226.325z M452.873,384.951c7.351-3.993,15.657-6.104,24.023-6.104
	c6.909,0,13.778,1.44,20.103,4.191v90.426H15.144v-90.426c6.324-2.751,13.193-4.191,20.104-4.191c8.365,0,16.672,2.111,24.022,6.104
	c9.542,5.183,20.325,7.922,31.184,7.922c9.862,0,19.746-2.281,28.609-6.607c8.589-4.192,16.866-7.419,26.597-7.419
	c8.365,0,16.672,2.111,24.022,6.104c9.542,5.183,20.325,7.922,31.184,7.922s21.641-2.739,31.183-7.922
	c7.351-3.993,15.658-6.104,24.023-6.104c8.365,0,16.673,2.111,24.023,6.104c9.542,5.183,20.324,7.922,31.183,7.922
	s21.642-2.739,31.184-7.922c7.351-3.993,15.657-6.104,24.022-6.104c13.344,0,23.352,7.179,35.718,11.039
	c0.197,0.061,0.395,0.121,0.593,0.18c6.113,1.846,12.49,2.806,18.895,2.806C432.548,392.874,443.331,390.134,452.873,384.951z
	 M305.499,305.861v-45.956c9.308-2.931,18.344-6.683,27-11.216v57.172H305.499z M290.499,305.861h-27V267.36
	c9.123-0.419,18.151-1.601,27-3.497V305.861z M248.499,305.861h-27v-41.967c8.849,1.888,17.877,3.063,27,3.474V305.861z
	 M206.499,305.861h-27v-57.097c8.656,4.523,17.693,8.265,27,11.186V305.861z M368.499,320.861v20.016h-225v-20.016H368.499z
	 M143.499,355.877h225v8.002c-0.671-0.021-1.343-0.032-2.016-0.032c-10.858,0-21.641,2.74-31.183,7.923
	c-7.351,3.993-15.658,6.103-24.023,6.103s-16.672-2.11-24.022-6.103c-9.542-5.183-20.325-7.923-31.184-7.923
	s-21.642,2.74-31.184,7.923c-7.351,3.993-15.657,6.103-24.022,6.103s-16.673-2.11-24.023-6.103
	c-9.542-5.183-20.324-7.923-31.183-7.923c-0.72,0-1.441,0.014-2.16,0.038L143.499,355.877L143.499,355.877z M423.499,305.861
	v-79.407c0.441,0.388,0.875,0.79,1.319,1.172c3.131,2.696,6.367,5.253,9.681,7.696v70.539H423.499z M496.999,340.877h-73.5v-20.016
	h73.5V340.877z M476.499,305.861h-27v-60.698c8.601,4.998,17.633,9.23,27,12.605V305.861z M447.653,201.101
	c14.237,12.256,31.168,21.343,49.273,26.488v20.686c-3.366-0.82-6.693-1.769-9.985-2.816c-19.799-6.3-36.521-15.585-52.336-29.2
	c-3.841-3.307-7.567-6.867-11.106-10.61v-32.137C430.176,183.747,438.295,193.045,447.653,201.101z M383.499,100.569
	c0-1.948,1.585-3.533,3.533-3.533h17.934c1.948,0,3.533,1.585,3.533,3.533V376.09c-3.763-1.024-7.404-2.457-10.832-4.32
	c-4.479-2.433-9.248-4.326-14.168-5.653L383.499,100.569L383.499,100.569z M363.528,227.626c1.684-1.45,3.34-2.941,4.971-4.465v82.7
	h-21v-66.073C353.06,236.078,358.418,232.025,363.528,227.626z M148.325,227.626c5.154,4.437,10.561,8.522,16.174,12.258v65.977h-21
	v-82.563C145.083,224.776,146.692,226.22,148.325,227.626z M103.499,100.569c0-1.948,1.585-3.533,3.533-3.533h17.934
	c1.948,0,3.533,1.585,3.533,3.533v265.587c-1.188,0.323-2.368,0.68-3.536,1.07c-7.362,2.456-13.94,6.886-21.464,8.905V100.569z
	 M15.071,227.548c18.051-5.152,34.933-14.226,49.13-26.447c9.428-8.117,17.596-17.489,24.298-27.807v32.201
	c-3.588,3.805-7.362,7.417-11.251,10.763c-17.911,15.419-39.253,26.373-62.177,31.98C15.071,248.238,15.071,227.548,15.071,227.548z
	 M35.499,257.714c9.368-3.385,18.4-7.626,27-12.635v60.783h-27V257.714z M14.999,320.861h73.5v20.016h-73.5V320.861z"/>
<g>
</g>
<g>
</g>
<g>
</g>
<g>
</g>
<g>
</g>
<g>
</g>
<g>
</g>
<g>
</g>
<g>
</g>
<g>
</g>
<g>
</g>
<g>
</g>
<g>
</g>
<g>
</g>
<g>
</g>
</svg>
