<?xml version="1.0" encoding="iso-8859-1"?>
<!-- Generator: Adobe Illustrator 19.0.0, SVG Export Plug-In . SVG Version: 6.00 Build 0)  -->
<svg version="1.1" id="Capa_1" xmlns="http://www.w3.org/2000/svg" xmlns:xlink="http://www.w3.org/1999/xlink" x="0px" y="0px"
	 viewBox="0 0 512 512" style="enable-background:new 0 0 512 512;" xml:space="preserve">
<g>
	<path style="fill:#F7F7F7;" d="M476.927,64.504c-1.428,0-2.831,0.112-4.199,0.324c-5.405-18.758-22.685-32.483-43.182-32.483
		c-21.908,0-40.146,15.678-44.129,36.424c-4.217-2.696-9.223-4.266-14.6-4.266c-14.993,0-27.147,12.154-27.147,27.147
		s12.154,27.147,27.147,27.147h106.111c14.993,0,27.147-12.154,27.147-27.147C504.074,76.658,491.92,64.504,476.927,64.504z"/>
	<path style="fill:#F7F7F7;" d="M142.75,103.849c-1.41,0-2.795,0.11-4.146,0.319c-5.337-18.453-22.398-31.955-42.636-31.955
		c-21.631,0-39.638,15.423-43.571,35.832c-4.163-2.652-9.107-4.196-14.415-4.196c-14.803,0-26.803,11.957-26.803,26.705
		c0,14.749,12,26.706,26.803,26.706H142.75c14.803,0,26.803-11.956,26.803-26.706C169.554,115.805,157.553,103.849,142.75,103.849z"
		/>
</g>
<g>
	<polygon style="fill:#FF6835;" points="471,407.859 404,387.109 471,366.359 	"/>
	<polygon style="fill:#FF6835;" points="84.5,407.859 17.5,387.109 84.5,366.359 	"/>
</g>
<polygon style="fill:#DEDEDE;" points="230.434,8.224 220.434,45.942 271.215,66.221 297.062,90.899 309.93,66.221 "/>
<polygon style="fill:#BDBDBD;" points="309.93,66.221 271.215,66.221 238.396,260.036 309.93,441.852 345.667,474.314 
	381.062,441.852 "/>
<polygon style="fill:#F7F7F7;" points="169.653,66.221 230.434,8.224 271.215,66.221 220.434,97.086 "/>
<polygon style="fill:#DEDEDE;" points="271.215,66.221 169.653,66.221 130.938,441.852 210.333,474.314 309.93,441.852 "/>
<rect x="7.5" y="441.85" style="fill:#2FC8B4;" width="497" height="61.924"/>
<path d="M174.221,349.209v-9.721c0-4.142-3.357-7.5-7.5-7.5s-7.5,3.358-7.5,7.5v9.721c0,4.142,3.357,7.5,7.5,7.5
	S174.221,353.351,174.221,349.209z"/>
<path d="M281.646,349.209v-9.721c0-4.142-3.357-7.5-7.5-7.5s-7.5,3.358-7.5,7.5v9.721c0,4.142,3.357,7.5,7.5,7.5
	S281.646,353.351,281.646,349.209z"/>
<path d="M220.434,361.898c7.332,0,14.223-3.073,18.904-8.43c2.726-3.119,2.407-7.857-0.712-10.583
	c-3.119-2.725-7.857-2.406-10.583,0.712c-1.833,2.097-4.606,3.3-7.609,3.3c-3.002,0-5.776-1.203-7.61-3.301
	c-2.726-3.119-7.464-3.437-10.583-0.71c-3.118,2.726-3.437,7.464-0.71,10.583C206.213,358.826,213.103,361.898,220.434,361.898z"/>
<path d="M476.927,126.284c19.104,0,34.646-15.542,34.646-34.647c0-18.775-15.012-34.111-33.663-34.633
	c-8.076-19.209-27.175-32.172-48.365-32.172c-21.954,0-41.27,13.667-48.938,33.568c-3.159-0.932-6.453-1.41-9.791-1.41
	c-19.104,0-34.647,15.542-34.647,34.647s15.543,34.647,34.647,34.647H476.927z M351.169,91.638c0-10.833,8.813-19.647,19.647-19.647
	c3.752,0,7.403,1.066,10.56,3.084c2.095,1.34,4.718,1.552,7.003,0.571c2.284-0.982,3.934-3.034,4.402-5.476
	c3.376-17.579,18.837-30.338,36.764-30.338c16.591,0,31.385,11.127,35.976,27.06c1.047,3.63,4.628,5.913,8.359,5.334
	c1.006-0.157,2.031-0.236,3.047-0.236c10.833,0,19.646,8.813,19.646,19.647s-8.813,19.647-19.646,19.647h-106.11
	C359.982,111.284,351.169,102.471,351.169,91.638z"/>
<path d="M504.5,434.338h-26v-26.493v-41.5v-10.25c0-4.142-3.357-7.5-7.5-7.5s-7.5,3.358-7.5,7.5v4.722l-61.719,19.114
	c-3.141,0.972-5.281,3.876-5.281,7.164s2.141,6.192,5.281,7.164l61.719,19.114v20.965h-76.224L317.299,64.812
	c-0.349-1.848-1.428-3.557-2.949-4.664L234.854,2.152c-2.827-2.062-7.081-1.884-9.598,0.633l-60.781,57.997
	c-0.027,0.026-0.047,0.056-0.074,0.082c-1.228,1.217-2.031,2.852-2.21,4.575l-3.586,34.794c-4.539-2.364-9.599-3.724-14.827-3.882
	C135.771,77.45,116.901,64.7,95.969,64.7c-21.68,0-40.76,13.435-48.37,33.005c-3.104-0.904-6.339-1.369-9.616-1.369
	c-18.915,0-34.304,15.345-34.304,34.206s15.389,34.206,34.304,34.206H142.75c3.192,0,6.33-0.443,9.339-1.29l-11.519,111.76
	c-0.424,4.121,2.571,7.805,6.692,8.229c0.261,0.027,0.521,0.04,0.777,0.04c3.797,0,7.054-2.873,7.452-6.731
	c0,0,16.582-160.885,16.583-160.901l4.344-42.147h88.029l4.542,44.071c0.426,4.12,4.109,7.114,8.229,6.691
	c3.864-0.398,6.737-3.661,6.732-7.463c0-0.253-0.014-0.509-0.04-0.767l-4.384-42.533h24.189l68.292,360.631h-55.312l-29.744-288.587
	c-0.426-4.12-4.112-7.117-8.23-6.691c-4.065,0.419-7.111,4.162-6.692,8.229l29.585,287.049H139.25l13.15-127.583
	c0.424-4.121-2.571-7.805-6.692-8.229c-4.108-0.42-7.805,2.571-8.229,6.691L124.17,434.338H92v-26.493v-41.5v-10.25
	c0-4.142-3.357-7.5-7.5-7.5s-7.5,3.358-7.5,7.5v4.722l-61.719,19.114C12.14,380.903,10,383.807,10,387.095s2.141,6.192,5.281,7.164
	L77,413.373v20.965H7.5c-4.143,0-7.5,3.358-7.5,7.5v61.924c0,4.142,3.357,7.5,7.5,7.5h497c4.143,0,7.5-3.358,7.5-7.5v-61.924
	C512,437.696,508.643,434.338,504.5,434.338z M429.352,387.095l34.148-10.576v21.151L429.352,387.095z M142.75,149.746H37.982
	c-10.645,0-19.304-8.616-19.304-19.206s8.659-19.206,19.304-19.206c3.691,0,7.282,1.045,10.384,3.021
	c4.402,2.804,10.411,0.205,11.395-4.906C63.084,92.212,78.311,79.7,95.969,79.7c16.342,0,30.911,10.913,35.43,26.539
	c1.048,3.624,4.623,5.905,8.352,5.329c0.992-0.154,2.001-0.231,3-0.231c5.357,0,10.455,2.235,14.084,6.083l-2.97,28.822
	C150.626,148.516,146.764,149.746,142.75,149.746z M188.377,58.707l40.932-39.057l27.464,39.057H188.377z M275.109,58.707
	l-12.444-17.699l24.259,17.699H275.109z M42.852,387.095L77,376.519v21.151L42.852,387.095z M497,496.263H15v-46.924h482V496.263z"
	/>
<g>
</g>
<g>
</g>
<g>
</g>
<g>
</g>
<g>
</g>
<g>
</g>
<g>
</g>
<g>
</g>
<g>
</g>
<g>
</g>
<g>
</g>
<g>
</g>
<g>
</g>
<g>
</g>
<g>
</g>
</svg>
