<?xml version="1.0" encoding="iso-8859-1"?>
<!-- Generator: Adobe Illustrator 19.0.0, SVG Export Plug-In . SVG Version: 6.00 Build 0)  -->
<svg version="1.1" id="Capa_1" xmlns="http://www.w3.org/2000/svg" xmlns:xlink="http://www.w3.org/1999/xlink" x="0px" y="0px"
	 viewBox="0 0 512 512" style="enable-background:new 0 0 512 512;" xml:space="preserve">
<g>
	<circle style="fill:#DB8D49;" cx="121.051" cy="22.916" r="15.416"/>
	<circle style="fill:#DB8D49;" cx="390.951" cy="22.916" r="15.416"/>
</g>
<g>
	<path style="fill:#FFAC55;" d="M121.05,31.77L121.05,31.77c-18.063,0-32.706,14.643-32.706,32.706v8.615l32.706,14.511
		l32.706-14.511v-8.615C153.756,46.413,139.113,31.77,121.05,31.77z"/>
	<path style="fill:#FFAC55;" d="M390.952,31.77L390.952,31.77c18.063,0,32.706,14.643,32.706,32.706v8.615l-32.706,14.511
		l-32.706-14.511v-8.615C358.246,46.413,372.889,31.77,390.952,31.77z"/>
</g>
<g>
	<polygon style="fill:#DB8D49;" points="153.756,102.114 121.05,87.602 88.345,102.114 88.345,194.41 153.756,194.41 
		182.87,148.262 	"/>
	<polygon style="fill:#DB8D49;" points="358.246,102.114 390.952,87.602 423.657,102.114 423.657,194.41 358.246,194.41 
		329.132,148.262 	"/>
</g>
<g>
	<path style="fill:#FFCE6E;" d="M153.756,73.091H88.345c-5.21,0-9.433,4.223-9.433,9.433v10.157c0,5.21,4.223,9.433,9.433,9.433
		h65.411c5.21,0,9.433-4.223,9.433-9.433V82.524C163.189,77.314,158.965,73.091,153.756,73.091z"/>
	<path style="fill:#FFCE6E;" d="M358.246,73.091h65.411c5.21,0,9.433,4.223,9.433,9.433v10.157c0,5.21-4.223,9.433-9.433,9.433
		h-65.411c-5.21,0-9.433-4.223-9.433-9.433V82.524C348.813,77.314,353.037,73.091,358.246,73.091z"/>
	<polygon style="fill:#FFCE6E;" points="256.001,102.114 141.706,119.639 141.706,194.41 370.296,194.41 370.296,119.639 	"/>
</g>
<path style="fill:#FFAC55;" d="M370.296,84.588h-228.59c-4.796,0-8.684,3.888-8.684,8.684v17.683c0,4.796,3.888,8.684,8.684,8.684
	h228.589c4.796,0,8.684-3.888,8.684-8.684V93.272C378.98,88.476,375.092,84.588,370.296,84.588z"/>
<rect x="115.59" y="197.01" style="fill:#FFCE6E;" width="280.81" height="90.86"/>
<g>
	<polygon style="fill:#DB8D49;" points="115.607,194.41 68.028,211.936 68.028,270.349 115.607,287.874 163.187,270.349 
		163.187,211.936 	"/>
	<polygon style="fill:#DB8D49;" points="396.406,194.41 443.985,211.936 443.985,270.349 396.406,287.874 348.827,270.349 
		348.827,211.936 	"/>
	<rect x="243.701" y="202.83" style="fill:#DB8D49;" width="24.596" height="79.23"/>
	<rect x="191.561" y="202.83" style="fill:#DB8D49;" width="24.596" height="79.23"/>
	<rect x="295.851" y="202.83" style="fill:#DB8D49;" width="24.596" height="79.23"/>
</g>
<g>
	<polygon style="fill:#FFAC55;" points="197.954,409.069 163.189,310.601 163.187,310.606 163.187,310.597 90.914,290.478 
		56.579,310.597 56.579,504.5 86.684,504.5 109.883,475.969 133.081,504.5 163.187,504.5 163.187,504.494 163.189,504.5 	"/>
	<polygon style="fill:#FFAC55;" points="314.047,409.069 348.813,310.601 348.816,310.606 348.816,310.597 421.088,290.478 
		455.423,310.597 455.423,504.5 425.318,504.5 402.119,475.969 378.921,504.5 348.816,504.5 348.816,504.494 348.813,504.5 	"/>
</g>
<polygon style="fill:#DB8D49;" points="233.372,504.5 163.187,504.5 163.187,290.478 348.816,290.478 348.816,504.5 278.629,504.5 
	256.001,482.364 "/>
<path style="fill:#FFAC55;" d="M468.679,176.885H43.324c-4.796,0-8.684,3.888-8.684,8.684v17.683c0,4.796,3.888,8.684,8.684,8.684
	h425.355c4.796,0,8.684-3.888,8.684-8.684v-17.683C477.363,180.773,473.475,176.885,468.679,176.885z"/>
<path style="fill:#FFCE6E;" d="M127.55,270.349H20.939c-1.274,0-2.307,1.033-2.307,2.307l0,0c0,20.957,16.989,37.946,37.946,37.946
	h106.611L127.55,270.349z"/>
<path style="fill:#3B484A;" d="M133.081,424.377V504.5H86.684v-80.123c0-17.453,5.687-34.424,16.204-48.345
	c3.502-4.644,10.488-4.644,13.99,0C127.395,389.953,133.081,406.924,133.081,424.377z"/>
<path style="fill:#FFCE6E;" d="M384.452,270.349h106.611c1.274,0,2.307,1.033,2.307,2.307l0,0c0,20.957-16.989,37.946-37.946,37.946
	H348.813L384.452,270.349z"/>
<path style="fill:#3B484A;" d="M378.921,424.377V504.5h46.397v-80.123c0-17.453-5.686-34.424-16.204-48.345
	c-3.502-4.644-10.488-4.644-13.99,0C384.607,389.953,378.921,406.924,378.921,424.377z"/>
<path style="fill:#FFAC55;" d="M233.372,504.5h-29.515v-70.393c0-15.141,3.424-29.869,9.789-43.19s15.672-25.235,27.449-34.749
	c8.697-7.015,21.113-7.015,29.81,0c23.553,19.017,37.238,47.666,37.238,77.939V504.5h-29.515l-22.628-22.136L233.372,504.5z"/>
<path style="fill:#3B484A;" d="M233.372,504.5v-70.393c0-10.477,2.388-21.012,6.905-30.465c3.825-8.006,9.215-15.312,15.729-21.363
	c14.43,13.344,22.622,31.977,22.622,51.828V504.5H233.372z"/>
<path style="fill:#FFAC55;" d="M127.55,270.349v4.614c0,19.683,15.956,35.639,35.639,35.639h185.625
	c19.683,0,35.639-15.956,35.639-35.639v-4.614H127.55z"/>
<path d="M191.56,158.283c4.142,0,7.5-3.357,7.5-7.5V139.12c0-4.143-3.358-7.5-7.5-7.5s-7.5,3.357-7.5,7.5v11.663
	C184.06,154.926,187.418,158.283,191.56,158.283z"/>
<path d="M320.442,158.283c4.142,0,7.5-3.357,7.5-7.5V139.12c0-4.143-3.358-7.5-7.5-7.5s-7.5,3.357-7.5,7.5v11.663
	C312.942,154.926,316.3,158.283,320.442,158.283z"/>
<path d="M256.001,164.509c8.363,0,16.218-3.499,21.552-9.602c2.726-3.118,2.408-7.856-0.711-10.582s-7.856-2.407-10.583,0.711
	c-2.485,2.843-6.224,4.473-10.258,4.473c-4.034,0-7.773-1.63-10.258-4.473c-2.727-3.12-7.464-3.437-10.583-0.711
	s-3.437,7.464-0.711,10.582C239.783,161.01,247.637,164.509,256.001,164.509z"/>
<path d="M455.423,512c4.142,0,7.5-3.357,7.5-7.5V317.472c21.502-3.586,37.947-22.312,37.947-44.816c0-5.407-4.399-9.807-9.807-9.807
	h-39.59v-43.413h17.205c8.924,0,16.184-7.26,16.184-16.184v-17.684c0-8.924-7.26-16.184-16.184-16.184h-37.521V107.84
	c5.58-2.772,9.433-8.517,9.433-15.159V82.523c0-6.642-3.853-12.386-9.433-15.158v-2.889c0-14.232-7.441-26.752-18.63-33.899
	c0.864-2.433,1.339-5.01,1.339-7.661C413.867,10.28,403.587,0,390.952,0s-22.916,10.28-22.916,22.916c0,2.65,0.475,5.228,1.34,7.661
	c-11.189,7.146-18.63,19.666-18.63,33.899v2.89c-3.981,1.978-7.073,5.468-8.521,9.723h-28.391c-4.142,0-7.5,3.357-7.5,7.5
	s3.358,7.5,7.5,7.5l56.462,0.001c0.653,0,1.184,0.531,1.184,1.184v17.683c0,0.652-0.531,1.184-1.184,1.184H141.706
	c-0.653,0-1.184-0.531-1.184-1.184V93.272c0-0.653,0.531-1.185,1.184-1.185h142.627c4.142,0,7.5-3.357,7.5-7.5s-3.358-7.5-7.5-7.5
	H169.777c-1.448-4.255-4.54-7.745-8.521-9.723v-2.89c0-14.233-7.44-26.753-18.63-33.9c0.864-2.433,1.339-5.01,1.339-7.66
	C143.965,10.28,133.686,0,121.05,0S98.135,10.28,98.135,22.916c0,2.65,0.475,5.227,1.339,7.66
	c-11.189,7.147-18.629,19.667-18.629,33.9v2.889c-5.58,2.772-9.433,8.517-9.433,15.158V92.68c0,6.642,3.853,12.386,9.433,15.158
	v61.546H43.323c-8.924,0-16.184,7.26-16.184,16.184v17.684c0,8.924,7.26,16.184,16.184,16.184h17.205v43.413h-39.59
	c-5.407,0-9.807,4.399-9.807,9.807c0,22.505,16.445,41.23,37.947,44.817V343c0,4.143,3.358,7.5,7.5,7.5s7.5-3.357,7.5-7.5v-24.898
	h91.608V497h-15.105v-72.623c0-18.966-6.293-37.741-17.716-52.862c-3.1-4.109-7.832-6.466-12.983-6.466s-9.883,2.356-12.979,6.462
	c-11.426,15.125-17.719,33.9-17.719,52.866V497H64.079V373c0-4.143-3.358-7.5-7.5-7.5s-7.5,3.357-7.5,7.5v131.5
	c0,4.143,3.358,7.5,7.5,7.5H455.423z M184.06,219.436v43.413h-13.374v-43.413H184.06z M236.202,219.436v43.413h-12.547v-43.413
	H236.202z M288.346,219.436v43.413h-12.547v-43.413H288.346z M341.315,219.436v43.413h-13.374v-43.413H341.315z M312.942,262.849
	h-9.596v-43.413h9.596V262.849z M260.799,262.849h-9.596v-43.413h9.596V262.849z M208.656,262.849h-9.596v-43.413h9.596V262.849z
	 M376.805,277.849c-0.047,0.455-0.105,0.907-0.173,1.356c-1.54,10.147-9.03,19.079-18.743,22.388
	c-2.918,0.994-5.993,1.508-9.076,1.508c0,0-185.622,0-185.625,0c-11.049,0-21.329-6.748-25.77-16.855
	c-1.17-2.663-1.925-5.503-2.222-8.396L376.805,277.849L376.805,277.849z M170.689,318.102h170.627V497h-25.671v-62.893
	c0-32.701-14.589-63.235-40.029-83.777c-5.536-4.465-12.501-6.923-19.614-6.923c-7.113,0-14.078,2.458-19.618,6.927
	c-12.419,10.032-22.621,22.948-29.503,37.35c-6.883,14.404-10.522,30.458-10.522,46.424V497h-25.671L170.689,318.102z M240.872,497
	v-62.893c0-9.367,2.134-18.783,6.172-27.231c2.347-4.913,5.399-9.59,8.983-13.793c9.787,11.377,15.101,25.694,15.101,41.024V497
	H240.872z M286.129,497v-62.893c0-21.728-9.123-42.625-25.03-57.335c-2.879-2.662-7.323-2.657-10.196,0.012
	c-7.18,6.67-13.194,14.839-17.391,23.624c-4.997,10.455-7.638,22.107-7.638,33.699V497h-14.515v-62.893
	c0-13.742,3.131-27.559,9.056-39.957c5.923-12.396,14.705-23.513,25.39-32.145c2.877-2.32,6.499-3.599,10.197-3.599
	c3.698,0,7.319,1.278,10.194,3.596c21.893,17.678,34.449,43.959,34.449,72.104V497H286.129z M386.42,497v-72.623
	c0-15.723,5.216-31.287,14.691-43.829c0.311-0.413,0.719-0.499,1.007-0.499s0.696,0.086,1.011,0.503
	c9.472,12.538,14.688,28.103,14.688,43.825V497H386.42z M447.923,497h-15.105v-72.623c0-18.966-6.293-37.741-17.716-52.862
	c-3.1-4.109-7.832-6.466-12.983-6.466s-9.883,2.356-12.979,6.462c-11.426,15.125-17.719,33.9-17.719,52.866V497h-15.105V318.102
	h91.608L447.923,497L447.923,497z M455.423,303.102h-73.938c4.85-5.62,8.458-12.6,9.674-19.957c0.077-0.465,0.671-5.296,0.697-5.296
	h93.57C482.956,292.172,470.442,303.102,455.423,303.102z M436.474,262.849h-80.158v-43.413h80.158V262.849z M425.59,82.523V92.68
	c0,1.066-0.867,1.934-1.933,1.934h-37.178c0-2.725-0.267-5.288-1.376-7.81c-1.043-2.37-2.644-4.492-4.659-6.121
	c-0.036-0.029-0.068-0.064-0.105-0.093h43.318C424.723,80.591,425.59,81.458,425.59,82.523z M377.795,125.295
	c0.047-0.025,0.092-0.054,0.139-0.079c0.075-0.04,0.147-0.084,0.221-0.126c5.693-3.173,8.324-9.174,8.324-15.476h29.678v59.771
	h-38.362L377.795,125.295L377.795,125.295z M383.314,24.998c-0.183-0.671-0.278-1.37-0.278-2.082c0-4.365,3.551-7.916,7.916-7.916
	s7.916,3.551,7.916,7.916c0,0.712-0.095,1.411-0.278,2.082c-2.766-0.532-5.604-0.772-8.419-0.717
	C389.596,24.292,383.277,24.862,383.314,24.998z M365.746,64.476c0-10.996,7.081-20.364,16.921-23.799
	c5.323-1.858,11.237-1.85,16.561-0.003c9.844,3.433,16.93,12.803,16.93,23.803v1.115h-50.411L365.746,64.476L365.746,64.476z
	 M362.795,169.385H149.206v-42.246h213.589L362.795,169.385L362.795,169.385z M86.412,92.681V82.523
	c0-1.065,0.867-1.933,1.933-1.933h43.317c-0.038,0.031-0.072,0.067-0.11,0.097c-1.738,1.404-3.195,3.197-4.221,5.182
	c-1.417,2.742-1.809,5.682-1.809,8.743H88.345C87.279,94.613,86.412,93.746,86.412,92.681z M113.413,24.998
	c-0.183-0.672-0.278-1.37-0.278-2.082c0-4.365,3.551-7.916,7.916-7.916s7.916,3.551,7.916,7.916c0,0.712-0.095,1.41-0.278,2.082
	c-2.51-0.484-5.082-0.729-7.638-0.729C118.534,24.27,115.914,24.514,113.413,24.998z M95.845,64.476
	c0-10.988,7.07-20.351,16.897-23.792c5.334-1.868,11.288-1.862,16.622,0.002c9.825,3.443,16.892,12.805,16.892,23.791v1.115H95.845
	V64.476z M95.845,109.613h29.678c0,2.534,0.232,5.06,1.197,7.426c1.416,3.472,4.058,6.404,7.359,8.182
	c0.043,0.023,0.084,0.05,0.128,0.073v44.091H95.845V109.613z M42.139,203.252v-17.684c0-0.652,0.531-1.184,1.184-1.184h425.355
	c0.653,0,1.184,0.531,1.184,1.184v17.684c0,0.652-0.531,1.184-1.184,1.184H43.323C42.67,204.436,42.139,203.904,42.139,203.252z
	 M75.528,219.436h80.158v43.413H75.528V219.436z M56.577,303.102c-15.018,0-27.531-10.93-30.002-25.253h93.57
	c0.4,6.037,2.098,11.976,4.942,17.315c1.508,2.831,3.332,5.509,5.428,7.938C130.516,303.102,56.579,303.102,56.577,303.102z
	 M94.184,424.377c0-15.723,5.216-31.287,14.691-43.829c0.311-0.413,0.719-0.499,1.007-0.499s0.696,0.086,1.011,0.503
	c9.472,12.538,14.688,28.103,14.688,43.825V497H94.184V424.377z"/>
<g>
</g>
<g>
</g>
<g>
</g>
<g>
</g>
<g>
</g>
<g>
</g>
<g>
</g>
<g>
</g>
<g>
</g>
<g>
</g>
<g>
</g>
<g>
</g>
<g>
</g>
<g>
</g>
<g>
</g>
</svg>
