<?xml version="1.0" encoding="iso-8859-1"?>
<!-- Generator: Adobe Illustrator 19.0.0, SVG Export Plug-In . SVG Version: 6.00 Build 0)  -->
<svg version="1.1" id="Capa_1" xmlns="http://www.w3.org/2000/svg" xmlns:xlink="http://www.w3.org/1999/xlink" x="0px" y="0px"
	 viewBox="0 0 512 512" style="enable-background:new 0 0 512 512;" xml:space="preserve">
<g>
	<polygon style="fill:#A3A3A3;" points="256,89.433 190.406,156.268 190.406,362.253 256,379.726 321.594,362.248 321.594,156.268 	
		"/>
	<polygon style="fill:#A3A3A3;" points="369.572,205.155 436.26,273.104 453.322,347.688 436.26,362.253 402.916,379.026 
		369.572,362.253 343.983,313.713 	"/>
	<polygon style="fill:#A3A3A3;" points="369.572,379.026 343.983,419.482 369.572,500.86 436.26,500.86 453.322,419.482 
		436.26,379.026 	"/>
	<polygon style="fill:#A3A3A3;" points="142.428,205.155 75.74,273.104 58.678,347.688 75.74,362.253 109.084,379.026 
		142.428,362.253 168.017,313.713 	"/>
	<polygon style="fill:#A3A3A3;" points="142.428,379.026 168.017,419.482 142.428,500.86 75.74,500.86 58.678,419.482 
		75.74,379.026 	"/>
	<polygon style="fill:#A3A3A3;" points="238.032,500.86 210.668,500.86 193.603,426.116 210.668,379.726 301.332,379.726 
		321.59,424.174 301.332,500.86 273.968,500.86 256,481.446 	"/>
</g>
<g>
	<rect x="58.681" y="362.25" style="fill:#BDBDBD;" width="100.81" height="33.555"/>
	<rect x="352.51" y="362.25" style="fill:#BDBDBD;" width="100.81" height="33.555"/>
	<rect x="205.6" y="362.25" style="fill:#BDBDBD;" width="100.81" height="33.555"/>
</g>
<g>
	<path style="fill:#DEDEDE;" d="M492.499,227.299L492.499,227.299c-1.605-4.882-8.512-4.882-10.117,0l0,0
		c-7.95,24.18-12.001,49.471-12.001,74.924l-17.059,45.465l17.059,153.172H504.5V302.223
		C504.5,276.77,500.449,251.479,492.499,227.299z"/>
	<path style="fill:#DEDEDE;" d="M357.571,130.228L357.571,130.228c-1.605-4.882-8.512-4.882-10.117,0l0,0
		c-7.95,24.18-12.001,49.471-12.001,74.924l-17.059,142.535l17.059,153.172h34.119V205.152
		C369.572,179.699,365.521,154.408,357.571,130.228z"/>
	<path style="fill:#DEDEDE;" d="M19.501,227.299L19.501,227.299c1.605-4.882,8.512-4.882,10.117,0l0,0
		c7.95,24.18,12.001,49.471,12.001,74.924l17.059,45.465L41.619,500.86H7.5V302.223C7.5,276.77,11.551,251.479,19.501,227.299z"/>
	<path style="fill:#DEDEDE;" d="M154.429,130.228L154.429,130.228c1.605-4.882,8.512-4.882,10.117,0l0,0
		c7.95,24.18,12.001,49.471,12.001,74.924l17.059,142.535l-17.06,153.173h-34.119V205.152
		C142.428,179.699,146.479,154.408,154.429,130.228z"/>
</g>
<g>
	<path style="fill:#BDBDBD;" d="M458.38,198.178L458.38,198.178c-1.605-4.882-8.512-4.882-10.117,0l0,0
		c-7.95,24.18-12.001,49.471-12.001,74.924V500.86h34.119V273.102C470.381,247.648,466.33,222.358,458.38,198.178z"/>
	<rect x="193.61" y="176.03" style="fill:#BDBDBD;" width="124.79" height="33.555"/>
	<path style="fill:#BDBDBD;" d="M323.453,101.107L323.453,101.107c-1.605-4.882-8.512-4.882-10.117,0l0,0
		c-7.95,24.18-12.001,49.471-12.001,74.924V500.86h34.119V176.031C335.454,150.578,331.403,125.287,323.453,101.107z"/>
	<path style="fill:#BDBDBD;" d="M53.62,198.178L53.62,198.178c1.605-4.882,8.512-4.882,10.117,0l0,0
		c7.95,24.18,12.001,49.471,12.001,74.924V500.86H41.619V273.102C41.619,247.648,45.67,222.358,53.62,198.178z"/>
	<path style="fill:#BDBDBD;" d="M188.547,101.107L188.547,101.107c1.605-4.882,8.512-4.882,10.117,0l0,0
		c7.95,24.18,12.001,49.471,12.001,74.924V500.86h-34.119V176.031C176.546,150.578,180.598,125.287,188.547,101.107z"/>
</g>
<g>
	<path style="fill:#3B484A;" d="M273.968,441.2v59.659h-35.935V441.2c0-9.921,8.047-17.958,17.968-17.958
		S273.968,431.28,273.968,441.2z"/>
	<path style="fill:#3B484A;" d="M273.968,264.977v59.659h-35.935v-59.659c0-9.921,8.047-17.958,17.968-17.958
		S273.968,255.056,273.968,264.977z"/>
</g>
<path d="M238.032,332.136h35.936c4.142,0,7.5-3.357,7.5-7.5v-59.659c0-14.037-11.425-25.458-25.468-25.458
	s-25.468,11.421-25.468,25.458v59.659C230.532,328.779,233.89,332.136,238.032,332.136z M245.532,264.977
	c0-5.767,4.696-10.458,10.468-10.458s10.468,4.691,10.468,10.458v52.159h-20.936L245.532,264.977L245.532,264.977z"/>
<path d="M7.5,508.36h497c4.142,0,7.5-3.357,7.5-7.5V302.223c0-26.294-4.164-52.29-12.376-77.267
	c-1.735-5.275-6.631-8.819-12.184-8.819s-10.449,3.545-12.182,8.819c-0.453,1.377-0.889,2.759-1.317,4.143
	c-2.033-11.242-4.848-22.35-8.436-33.264c-1.734-5.275-6.631-8.819-12.184-8.819s-10.449,3.545-12.182,8.819
	c-6.365,19.358-10.287,39.33-11.734,59.577l-5.658-5.765V210.41c0-4.143-3.358-7.5-7.5-7.5s-7.5,3.357-7.5,7.5v23.953
	l-10.643-10.844v-38.751c0-4.143-3.358-7.5-7.5-7.5s-7.5,3.357-7.5,7.5v23.468l-6.062-6.177
	c-0.314-25.236-4.456-50.174-12.346-74.172c-0.87-2.647-2.537-4.857-4.683-6.404V82.811c0-4.143-3.358-7.5-7.5-7.5
	s-7.5,3.357-7.5,7.5v38.672c-2.146,1.546-3.813,3.757-4.683,6.403c-0.453,1.377-0.888,2.759-1.317,4.142
	c-2.033-11.242-4.848-22.35-8.436-33.263c-0.87-2.646-2.537-4.857-4.683-6.403V50.455c0-4.143-3.358-7.5-7.5-7.5s-7.5,3.357-7.5,7.5
	v41.908c-2.146,1.546-3.813,3.756-4.683,6.403c-2.636,8.019-4.85,16.144-6.648,24.349L263.5,86.369V40.884h12.193
	c4.142,0,7.5-3.357,7.5-7.5s-3.358-7.5-7.5-7.5H263.5V11.14c0-4.143-3.358-7.5-7.5-7.5s-7.5,3.357-7.5,7.5v14.744h-12.193
	c-4.142,0-7.5,3.357-7.5,7.5s3.358,7.5,7.5,7.5H248.5v45.485l-36.063,36.745c-1.798-8.205-4.012-16.33-6.648-24.348
	c-0.87-2.647-2.537-4.858-4.683-6.404V50.455c0-4.143-3.358-7.5-7.5-7.5s-7.5,3.357-7.5,7.5v41.907
	c-2.146,1.546-3.813,3.757-4.684,6.404c-3.588,10.914-6.403,22.021-8.436,33.264c-0.428-1.383-0.864-2.765-1.316-4.142
	c-0.87-2.647-2.537-4.858-4.683-6.404V82.811c0-4.143-3.358-7.5-7.5-7.5s-7.5,3.357-7.5,7.5v38.672
	c-2.146,1.546-3.813,3.757-4.684,6.404c-7.89,23.998-12.031,48.936-12.345,74.172l-6.062,6.177v-23.468c0-4.143-3.358-7.5-7.5-7.5
	s-7.5,3.357-7.5,7.5v38.751l-10.643,10.844V210.41c0-4.143-3.358-7.5-7.5-7.5s-7.5,3.357-7.5,7.5v39.237l-5.658,5.765
	c-1.447-20.247-5.369-40.219-11.734-59.577c-1.734-5.274-6.63-8.818-12.183-8.818s-10.449,3.544-12.184,8.818
	c-3.588,10.914-6.403,22.021-8.436,33.264c-0.428-1.383-0.864-2.765-1.316-4.142c-1.734-5.275-6.63-8.82-12.183-8.82
	s-10.449,3.544-12.184,8.819C4.164,249.935,0,275.931,0,302.223V500.86C0,505.002,3.358,508.36,7.5,508.36z M134.928,388.304h-51.69
	v-18.556h51.69V388.304z M83.237,403.304h51.69v90.056h-51.69V403.304z M293.835,354.749h-75.67V217.086h75.67V354.749z
	 M218.165,369.749h75.67v18.556h-75.67V369.749z M293.835,202.086h-75.67v-18.555h75.67V202.086z M218.165,403.304h75.67v90.056
	h-12.367v-52.159c0-14.037-11.425-25.458-25.468-25.458s-25.468,11.421-25.468,25.458v52.159h-12.367L218.165,403.304
	L218.165,403.304z M245.532,493.36v-52.159c0-5.767,4.696-10.458,10.468-10.458s10.468,4.691,10.468,10.458v52.159H245.532z
	 M428.763,388.304h-51.69v-18.556h51.69V388.304z M377.072,403.304h51.69v90.056h-51.69V403.304z M443.763,273.102
	c0-22.387,3.213-44.544,9.559-65.967c6.346,21.423,9.56,43.581,9.56,65.967v150.969c0,4.143,3.358,7.5,7.5,7.5s7.5-3.357,7.5-7.5
	V302.223c0-22.387,3.213-44.544,9.56-65.968c6.346,21.423,9.559,43.581,9.559,65.968V493.36h-19.119v-39.435
	c0-4.143-3.358-7.5-7.5-7.5s-7.5,3.357-7.5,7.5v39.435h-19.119V273.118V273.102z M428.763,354.749h-51.69V223.504l51.69,52.668
	V354.749z M352.513,139.185c6.346,21.424,9.56,43.582,9.56,65.968v0.002V493.36h-19.119V205.153
	C342.954,182.766,346.167,160.609,352.513,139.185z M327.954,176.032v317.329h-19.119V176.032c0-11.957,0.989-24.299,2.85-36.264
	c1.583-10.021,3.817-19.939,6.709-29.703C324.74,131.489,327.954,153.646,327.954,176.032z M256,100.141l40.299,41.061
	c-0.4,2.813-0.745,5.634-1.047,8.461c-0.672,6.273-1.1,12.563-1.294,18.868c0,0-75.915,0-75.916,0
	c-0.289-6.306-0.621-12.589-1.294-18.869c-0.303-2.827-0.647-5.648-1.047-8.461L256,100.141z M149.928,205.153
	c0-22.386,3.214-44.544,9.56-65.968c6.346,21.423,9.559,43.581,9.559,65.968v29.575c0,4.143,3.358,7.5,7.5,7.5s7.5-3.357,7.5-7.5
	v-29.575v-29.121c0-22.386,3.214-44.544,9.56-65.968c2.892,9.764,5.126,19.681,6.711,29.727c1.891,11.979,2.848,24.114,2.848,36.241
	V493.36h-19.119V264.61c0-4.143-3.358-7.5-7.5-7.5s-7.5,3.357-7.5,7.5v228.75h-19.119
	C149.928,493.36,149.928,205.155,149.928,205.153z M134.928,354.749h-51.69v-78.576l51.69-52.668V354.749z M49.119,273.102
	c0-22.386,3.214-44.544,9.56-65.968c6.346,21.423,9.559,43.581,9.559,65.968v0.016v220.243H49.119V302.223V273.102z M15,302.223
	c0-22.386,3.214-44.544,9.56-65.968c6.346,21.423,9.559,43.581,9.559,65.968V493.36H15V302.223z"/>
<g>
</g>
<g>
</g>
<g>
</g>
<g>
</g>
<g>
</g>
<g>
</g>
<g>
</g>
<g>
</g>
<g>
</g>
<g>
</g>
<g>
</g>
<g>
</g>
<g>
</g>
<g>
</g>
<g>
</g>
</svg>
