<?xml version="1.0" encoding="iso-8859-1"?>
<!-- Generator: Adobe Illustrator 19.0.0, SVG Export Plug-In . SVG Version: 6.00 Build 0)  -->
<svg version="1.1" id="Capa_1" xmlns="http://www.w3.org/2000/svg" xmlns:xlink="http://www.w3.org/1999/xlink" x="0px" y="0px"
	 viewBox="0 0 512 512" style="enable-background:new 0 0 512 512;" xml:space="preserve">
<path style="fill:#F7F7F7;" d="M227.205,129.9c14.579,0,26.398-11.819,26.398-26.398c0-13.362-9.93-24.398-22.812-26.149
	c0.25-2.058,0.394-4.149,0.394-6.275c0-28.464-23.075-51.539-51.539-51.539c-23.591,0-43.466,15.856-49.584,37.488
	c-6.849-5.505-15.545-8.806-25.016-8.806c-18.69,0-34.379,12.829-38.753,30.161c-2.558-0.826-5.285-1.277-8.118-1.277
	c-14.579,0-26.398,11.819-26.398,26.398s11.819,26.398,26.398,26.398h169.03V129.9z"/>
<path style="fill:#BDBDBD;" d="M197.075,197.565c1.296-27.827,3.697-56.431,0.104-84.176c-0.986-7.616-2.192-16.574-6.577-23.121
	c-10.02-14.958-50.102-6.597-63.405,1.553c-23.483,14.387-28.032,45.887-28.746,72.056c-0.172,6.326-1.816,12.519-4.806,18.096
	l-13.294,24.805c-4.468,8.336-3.593,18.524,2.23,25.976l0.158,0.203c8.664,11.088,10.559,25.958,5.189,38.965
	c-4.684,11.348-9.181,27.486-9.181,47.626v23.365L195,310.55l3.462-47.457C191.275,243.889,196.149,217.443,197.075,197.565z"/>
<path style="fill:#A3A3A3;" d="M78.748,319.549v23.365l20-5.568v-17.797c0-20.14,4.497-36.279,9.181-47.626
	c5.369-13.007,3.475-27.877-5.189-38.965l-0.158-0.203c-5.823-7.453-6.698-17.64-2.23-25.977l13.294-24.805
	c2.99-5.577,4.633-11.771,4.806-18.096c0.714-26.168,5.263-57.668,28.746-72.056c6.086-3.729,17.777-7.494,29.63-9.058
	c-16.138-2.895-39.958,3.132-49.63,9.058c-23.483,14.388-28.032,45.888-28.746,72.056c-0.172,6.326-1.816,12.519-4.806,18.096
	l-13.294,24.805c-4.468,8.336-3.593,18.524,2.23,25.977l0.158,0.203c8.664,11.088,10.559,25.958,5.189,38.965
	C83.245,283.27,78.748,299.409,78.748,319.549z"/>
<path style="fill:#D9D9D9;" d="M204.033,118.413h-3.484c-10.865,0-20.3,7.482-22.776,18.061l-5.343,22.83
	c-4.508,19.26-2.906,39.446,4.584,57.753l1.445,3.531c2.142,5.236,7.238,8.657,12.895,8.657l0,0c9.301,0,16.944-7.34,17.322-16.633
	l3.481-85.741C212.344,122.258,208.653,118.413,204.033,118.413z"/>
<path style="fill:#2FC8B4;" d="M504.5,134.245C324.202,109.81,250.895,239.353,163.625,285.85S59.077,306.167,7.5,372.492v119.97
	h497V134.245z"/>
<path style="fill:#A3A3A3;" d="M424.777,358.146c0,0-126.443,10.768-164.443,29.434c-25.145,12.352-35.987,37.84-40.444,53.671
	c-1.932,6.863,3.273,13.663,10.403,13.663h39.818c7.686,0,15.354-0.746,22.896-2.228l5.651-1.11
	c13.46-2.644,27.276-2.937,40.836-0.865l1.713,0.262c16.993,2.596,34.347,1.473,50.864-3.291c6.386-1.842,12.916-3.145,19.52-3.895
	l30.807-3.499c7.379-0.838,12.915-7.088,12.953-14.515C455.588,379.021,424.777,358.146,424.777,358.146z"/>
<path style="fill:#BDBDBD;" d="M419.907,102.582c-2.718-18.209-18.379-31.668-36.79-31.668h-54.338
	c-11.938,0-23.137,5.73-30.144,15.396c-12.359,17.048-30.089,46.595-34.109,80.144c-1.96,16.361-6.595,32.277-14.134,46.929
	C236.485,240.411,217,287.462,217,338.913c0,46.667,43.333,48.667,43.333,48.667h119.244c27.296,0,49.423-22.127,49.423-49.423
	v-111.91C429,174.374,424.055,130.366,419.907,102.582z"/>
<g>
	<path style="fill:#A3A3A3;" d="M237,338.914c0-51.452,19.485-98.503,33.392-125.532c7.539-14.652,12.174-30.568,14.134-46.929
		c4.02-33.549,21.75-63.096,34.109-80.144c7.007-9.665,18.206-15.396,30.144-15.396h-20c-11.938,0-23.137,5.73-30.144,15.396
		c-12.359,17.048-30.089,46.595-34.109,80.144c-1.96,16.361-6.595,32.277-14.134,46.929C236.485,240.411,217,287.462,217,338.914
		c0,46.667,43.333,48.667,43.333,48.667h20C280.333,387.58,237,385.58,237,338.914z"/>
	<path style="fill:#A3A3A3;" d="M412.697,293.71c-33.063-3.535-29.197-21.235-29.197-71.796c0-28.119,2.511-50.379,5.077-65.786
		c2.376-14.267,14.723-24.714,29.187-24.714h-4h30l-11.833,81.148l6.766,81.148H412.697z"/>
</g>
<path style="fill:#D9D9D9;" d="M443.764,131.413L443.764,131.413c-14.464,0-26.81,10.447-29.187,24.714
	c-2.566,15.407-5.077,37.667-5.077,65.786c0,50.562-3.866,68.261,29.197,71.796c8.445,0.903,15.803-5.753,15.803-14.246V142.15
	C454.5,136.22,449.693,131.413,443.764,131.413z"/>
<path d="M253.333,338.331c4.142,0,7.5-3.357,7.5-7.5v-9.913c0-4.143-3.358-7.5-7.5-7.5s-7.5,3.357-7.5,7.5v9.913
	C245.833,334.974,249.191,338.331,253.333,338.331z"/>
<path d="M362.878,338.331c4.143,0,7.5-3.357,7.5-7.5v-9.913c0-4.143-3.357-7.5-7.5-7.5s-7.5,3.357-7.5,7.5v9.913
	C355.378,334.974,358.735,338.331,362.878,338.331z"/>
<path d="M308.105,343.622c7.433,0,14.418-3.114,19.165-8.544c2.727-3.119,2.408-7.856-0.71-10.583
	c-3.119-2.726-7.857-2.41-10.583,0.71c-1.898,2.172-4.768,3.417-7.872,3.417s-5.974-1.245-7.872-3.417
	c-2.726-3.119-7.464-3.435-10.583-0.71c-3.118,2.727-3.437,7.464-0.71,10.583C293.687,340.508,300.673,343.622,308.105,343.622z"/>
<path d="M505.508,126.813c-20.28-2.75-40.23-3.659-59.316-2.719c-0.546-0.073-1.099-0.118-1.659-0.142
	c-0.253-0.026-14.198-0.039-14.198-0.039c-0.919-7.654-1.926-15.179-3.009-22.439c-3.238-21.698-22.244-38.061-44.208-38.061H328.78
	c-14.281,0-27.82,6.913-36.217,18.493c-13.915,19.195-31.365,49.289-35.483,83.654c-1.909,15.94-6.403,30.875-13.356,44.389
	c-1.757,3.414-3.594,7.13-5.467,11.117c-2.263,1.888-25.912,21.663-35.293,29.066c-0.783-5.409-0.926-10.951-0.839-15.826
	c8.029-3.85,13.658-11.885,14.044-21.389l3.066-75.519h7.97c18.691,0,33.897-15.207,33.897-33.898
	c0-14.463-9.256-27.137-22.42-31.892c0.001-0.178,0.002-0.355,0.002-0.532c0-32.555-26.485-59.039-59.039-59.039
	c-22.962,0-43.685,13.469-53.331,33.726c-6.567-3.288-13.868-5.044-21.27-5.044c-19.35,0-36.45,11.634-43.755,29.026
	c-1.034-0.095-2.073-0.143-3.116-0.143c-18.691,0-33.898,15.206-33.898,33.897s15.207,33.898,33.898,33.898h35.079
	c-1.521,9.173-2.081,18.237-2.3,26.272c-0.14,5.133-1.495,10.236-3.919,14.758L73.74,203.234c-5.868,10.95-4.717,24.35,2.924,34.128
	l0.166,0.213c6.928,8.864,8.524,20.929,4.167,31.485c-5.804,14.061-9.032,29.185-9.636,45.025
	c-23.325,7.918-42.073,18.172-69.781,53.802C0.556,369.203,0,370.823,0,372.491v119.971c0,4.143,3.358,7.5,7.5,7.5h497
	c4.143,0,7.5-3.357,7.5-7.5V134.245C512,130.492,509.227,127.317,505.508,126.813z M390.924,236.315
	c0.036-4.477,0.076-9.271,0.076-14.402c0-28.668,2.705-50.928,4.976-64.554c0.707-4.245,2.665-8.305,5.62-11.442
	c2.778-2.948,6.414-5.184,10.335-6.23c0.563-0.153,1.135-0.28,1.713-0.388c-2.67,3.715-4.622,7.939-5.772,12.365
	c-0.277,1.065-0.515,2.143-0.693,3.229c-3.437,20.632-5.179,43.18-5.179,67.019c0,5.087-0.039,9.84-0.076,14.278
	c-0.103,12.305-0.668,24.992,1.684,37.136c0.802,4.142,2.079,8.373,4.154,12.069c-5.318-1.063-8.507-2.615-10.551-4.397
	C391.135,275.297,390.7,263.357,390.924,236.315z M447,279.464c0,3.953-3.558,7.212-7.506,6.789
	c-3.256-0.349-9.329-1.695-9.736-1.736c-12.328-3.709-13.121-13.585-12.834-48.201c0.036-4.477,0.076-9.271,0.076-14.402
	c0-28.668,2.705-50.928,4.976-64.554c1.779-10.688,10.943-18.446,21.788-18.446c1.742,0,3.236,1.494,3.236,3.236
	C447,142.15,447,279.447,447,279.464z M179.732,161.014l5.343-22.83c1.503-6.421,7.048-11.364,13.594-12.14
	c1.775-0.21,3.579-0.131,5.364-0.131c0.358,0,0.642,0.303,0.63,0.656l-3.481,85.739c-0.187,4.615-3.495,8.356-7.867,9.241
	c-5.441,1.098-7.578-2.978-9.359-7.332C177.017,197.257,175.556,178.858,179.732,161.014z M58.174,122.399
	c-10.42,0-18.898-8.478-18.898-18.898c0-10.418,8.474-18.894,18.891-18.897c5.554-0.002,13.41,3.49,15.397-4.388
	c3.64-14.423,16.585-24.496,31.481-24.496c7.47,0,14.495,2.473,20.317,7.152c4.131,3.32,10.478,1.283,11.916-3.804
	c5.334-18.858,22.756-32.029,42.368-32.029c24.283,0,44.039,19.756,44.039,44.039c0,1.736-0.111,3.493-0.339,5.371
	c-0.494,4.07,2.372,7.783,6.435,8.336c9.305,1.265,16.322,9.312,16.322,18.717c0,10.421-8.478,18.898-18.897,18.898h-8.107
	c-0.497-1.801-1.326-3.526-2.424-5.038c-2.513-3.457-6.433-5.759-10.672-6.304c-0.314-0.04-1.368-0.135-1.581-0.14
	c-0.063-0.481-0.556-3.965-0.761-5.207c-1.118-6.777-2.933-13.801-6.826-19.617c-6.262-9.354-18.769-11.589-29.23-11.589
	c-14.678,0-31.643,3.148-44.325,10.92c-13.515,8.282-21.993,22.082-26.554,36.975L58.174,122.399L58.174,122.399z M86.961,210.32
	l13.294-24.804c3.521-6.568,5.49-13.981,5.693-21.437c0.596-21.885,3.3-49.835,22.462-64.038
	c10.526-7.802,26.396-10.537,39.194-10.537c8.429,0,14.697,1.846,16.767,4.937c3.417,5.102,4.276,11.716,5.075,17.661
	c0.037,0.273,0.073,0.546,0.109,0.815c-8.766,3.315-15.689,10.515-18.531,19.825c-2.487,8.147-3.956,16.569-5.895,24.853
	c-4.891,20.895-3.181,42.438,4.945,62.302c3.153,7.706,7.609,14.153,16.203,16.237c0.275,0.067,0.552,0.137,0.829,0.193
	c-0.033,9.469,0.802,17.19,2.592,23.923c-20.126,14.752-42.271,26.471-65.358,35.864c-1.521,0.619-3.046,1.228-4.574,1.827
	c-7.55,2.952-15.21,5.584-22.914,8.104c-0.084,0.027-0.167,0.053-0.25,0.08c-3.464,1.109-6.765,2.127-9.934,3.102
	c0.99-12.088,3.734-23.636,8.195-34.443c6.414-15.537,4.033-33.333-6.205-46.435l-0.166-0.213
	C84.499,223.027,83.899,216.034,86.961,210.32z M497,484.962H15V375.079c26.143-33.122,42.094-40.734,66.181-48.434
	c29.683-9.489,58.345-19.456,85.972-34.175c12.604-6.715,24.422-14.812,35.823-23.387c0.012-0.009,0.021-0.021,0.033-0.03
	c7.614-5.738,15.223-11.848,22.912-18.181c-0.375,1.046-0.72,2.089-1.082,3.134c-5.82,16.785-10.255,34.099-12.834,51.685
	c-0.618,4.214,1.868,8.46,6.262,9.092c4.903,0.706,8.013-3.113,8.67-7.517c0.431-2.89,0.915-5.773,1.45-8.646
	c4.256-22.701,12.048-46.6,22.776-69.734c2.022-4.359,4.01-8.402,5.9-12.074c7.771-15.105,12.789-31.749,14.911-49.468
	c3.735-31.169,19.862-58.878,32.734-76.634c5.583-7.7,14.582-12.298,24.072-12.298h54.338c14.595,0,27.222,10.866,29.372,25.274
	c0.982,6.582,1.902,13.385,2.749,20.31c-9.014,0.6-17.614,4.547-23.946,10.987c-5.307,5.397-8.871,12.447-10.113,19.911
	c-3.437,20.632-5.179,43.18-5.179,67.019c0,5.087-0.039,9.84-0.076,14.278c-0.325,39.381-0.505,61.074,35.975,64.976
	c3.14,0.336,6.444,0.043,9.602,0.043c0,0,0,36.936,0,36.946c0,22.801-19.135,41.923-41.923,41.923H260.575
	c-1.196-0.093-10.04-0.935-18.566-6.071c-9.174-5.526-14.781-14.715-16.663-25.149c-0.798-4.424-0.88-8.945-0.805-13.428
	c0.072-4.054-3.322-7.557-7.374-7.629c-4.038-0.068-7.559,3.329-7.63,7.368c-0.118,6.725,0.2,13.426,1.776,19.988
	c3.889,16.195,15.331,29.279,30.701,35.573c-17.565,14.936-25.774,35.806-29.344,48.487c-3.234,11.485,5.754,23.195,17.622,23.195
	h39.818c8.152,0,16.342-0.797,24.342-2.368c14.635-2.876,29.067-4.186,43.909-1.92c6.893,1.052,13.808,1.71,20.787,1.71
	c11.846,0,23.621-1.665,35-4.948c5.966-1.721,12.119-2.948,18.288-3.648l30.807-3.498c11.121-1.265,19.55-10.692,19.606-21.93
	c0.2-39.22-19.751-61.684-29.14-70.076c1.803-5.54,2.79-11.445,2.79-17.578V301.21h1.927c4.29,0.352,8.644-0.586,12.397-2.697
	c6.803-3.825,11.176-11.229,11.176-19.05c0,0,0-137.313,0-137.314c0-1.132-0.111-2.306-0.323-3.419
	c11.538,0.032,23.354,0.744,35.323,2.131L497,484.962L497,484.962z M426.835,369.88c8.125,8.353,21.165,26.368,21.015,55.855
	c-0.019,3.642-2.727,6.694-6.3,7.101l-30.807,3.498c-6.999,0.795-13.981,2.188-20.752,4.141c-10.028,2.894-20.406,4.36-30.844,4.36
	c-6.216,0-12.384-0.579-18.521-1.538c-16.526-2.522-32.758-1.175-49.066,2.029c-7.049,1.385-14.266,2.087-21.45,2.087
	c0,0-39.818,0-39.82,0c-2.124-0.001-3.76-2.075-3.182-4.131c8.39-29.796,24.951-42.833,35.03-48.203c0,0,117.437,0,117.438,0
	c11.502,0,22.922-3.611,32.374-10.155C413.115,384.118,428.341,371.428,426.835,369.88z"/>
<g>
</g>
<g>
</g>
<g>
</g>
<g>
</g>
<g>
</g>
<g>
</g>
<g>
</g>
<g>
</g>
<g>
</g>
<g>
</g>
<g>
</g>
<g>
</g>
<g>
</g>
<g>
</g>
<g>
</g>
</svg>
