<?xml version="1.0" encoding="iso-8859-1"?>
<!-- Generator: Adobe Illustrator 19.0.0, SVG Export Plug-In . SVG Version: 6.00 Build 0)  -->
<svg version="1.1" id="Capa_1" xmlns="http://www.w3.org/2000/svg" xmlns:xlink="http://www.w3.org/1999/xlink" x="0px" y="0px"
	 viewBox="0 0 512.001 512.001" style="enable-background:new 0 0 512.001 512.001;" xml:space="preserve">
<ellipse style="fill:#FFAC55;" cx="261.891" cy="44.724" rx="25.303" ry="37.22"/>
<path style="fill:#DB8D49;" d="M256.587,44.724c0-15.332,6.303-28.495,15.303-34.198c-3.068-1.944-6.448-3.025-10-3.025
	c-13.974,0-25.303,16.666-25.303,37.224s11.328,37.224,25.303,37.224c3.552,0,6.932-1.082,10-3.025
	C262.889,73.218,256.587,60.056,256.587,44.724z"/>
<polygon style="fill:#BDBDBD;" points="295.651,108.907 261.887,92.985 227.985,108.907 224.522,145.227 261.89,165.626 
	299.113,145.227 "/>
<polygon style="fill:#A3A3A3;" points="254.522,145.227 257.985,108.907 276.857,100.044 261.887,92.985 227.985,108.907 
	224.522,145.227 261.89,165.626 276.861,157.422 "/>
<g>
	<path style="fill:#F7F7F7;" d="M164.26,154.791c10.332,0,18.707-8.376,18.707-18.707c0-9.469-7.037-17.29-16.166-18.531
		c0.177-1.459,0.279-2.941,0.279-4.447c0-20.172-16.352-36.524-36.524-36.524c-16.718,0-30.803,11.237-35.139,26.567
		c-4.854-3.901-11.016-6.24-17.728-6.24c-13.245,0-24.363,9.092-27.463,21.374c-1.813-0.585-3.745-0.905-5.753-0.905
		c-10.332,0-18.707,8.376-18.707,18.707c0,10.332,8.375,18.707,18.707,18.707H164.26V154.791z"/>
	<path style="fill:#F7F7F7;" d="M449.439,181.365c-1.936,0-3.837,0.152-5.692,0.44c-7.326-25.425-30.748-44.029-58.531-44.029
		c-29.695,0-54.415,21.25-59.815,49.371c-5.715-3.654-12.502-5.782-19.789-5.782c-20.322,0-36.796,16.474-36.796,36.796
		s16.474,36.796,36.796,36.796h143.827c20.322,0,36.796-16.474,36.796-36.796C486.235,197.839,469.761,181.365,449.439,181.365z"/>
</g>
<polygon style="fill:#DEDEDE;" points="321.632,381.509 261.818,400.695 202.003,381.509 224.522,145.227 299.113,145.227 "/>
<polygon style="fill:#BDBDBD;" points="232.003,381.509 254.522,145.227 224.522,145.227 202.003,381.509 261.818,400.694 
	276.818,395.883 "/>
<path style="fill:#FFAC55;" d="M261.818,400.697l-149.634,19.189c0,0,36.431,30.287,52.397,60.199
	c8.077,15.133,24.011,24.414,41.164,24.414h112.146c17.153,0,33.087-9.282,41.164-24.414c15.966-29.913,52.397-60.199,52.397-60.199
	L261.818,400.697z"/>
<path style="fill:#DB8D49;" d="M194.58,480.086c-15.966-29.913-52.397-60.199-52.397-60.199l134.634-17.266l-15-1.924
	l-149.634,19.189c0,0,36.431,30.287,52.397,60.199c8.077,15.133,24.011,24.415,41.164,24.415h30
	C218.591,504.5,202.657,495.218,194.58,480.086z"/>
<path style="fill:#BDBDBD;" d="M411.452,381.508H112.183c-5.953,0-10.779,4.826-10.779,10.779v16.822
	c0,5.953,4.826,10.779,10.779,10.779h299.269c5.953,0,10.779-4.826,10.779-10.779v-16.822
	C422.231,386.333,417.405,381.508,411.452,381.508z"/>
<path style="fill:#A3A3A3;" d="M131.405,409.108v-16.822c0-5.953,4.826-10.779,10.779-10.779h-30
	c-5.953,0-10.779,4.826-10.779,10.779v16.822c0,5.953,4.826,10.778,10.779,10.778h30
	C136.23,419.886,131.405,415.061,131.405,409.108z"/>
<path style="fill:#BDBDBD;" d="M294.718,45.719h-65.801c-6.058,0-9.994,6.382-7.274,11.795l9.824,19.55l30.42,15.921l30.28-15.921
	l9.824-19.55C304.712,52.101,300.777,45.719,294.718,45.719z"/>
<path style="fill:#A3A3A3;" d="M261.468,77.064l-9.824-19.55c-2.72-5.414,1.215-11.795,7.274-11.795h-30
	c-6.058,0-9.994,6.382-7.274,11.795l9.824,19.55l30.42,15.921l14.966-7.869L261.468,77.064z"/>
<path style="fill:#DEDEDE;" d="M307.919,77.064h-92.202c-4.334,0-7.847,3.513-7.847,7.847v16.148c0,4.334,3.513,7.847,7.847,7.847
	h92.202c4.334,0,7.847-3.513,7.847-7.847V84.911C315.766,80.577,312.253,77.064,307.919,77.064z"/>
<path style="fill:#BDBDBD;" d="M237.869,101.059V84.911c0-4.334,3.513-7.847,7.847-7.847h-30c-4.334,0-7.847,3.513-7.847,7.847
	v16.148c0,4.334,3.513,7.848,7.847,7.848h30C241.383,108.907,237.869,105.393,237.869,101.059z"/>
<path d="M202.008,440.993c-4.143,0-7.5,3.357-7.5,7.5v10.825c0,4.143,3.357,7.5,7.5,7.5s7.5-3.357,7.5-7.5v-10.825
	C209.508,444.351,206.15,440.993,202.008,440.993z"/>
<path d="M321.628,440.993c-4.143,0-7.5,3.357-7.5,7.5v10.825c0,4.143,3.357,7.5,7.5,7.5s7.5-3.357,7.5-7.5v-10.825
	C329.128,444.351,325.771,440.993,321.628,440.993z"/>
<path d="M281.514,452.917c-3.117-2.726-7.856-2.406-10.582,0.713c-2.203,2.521-5.524,3.966-9.114,3.966
	c-3.589,0-6.911-1.446-9.115-3.968c-2.726-3.118-7.464-3.436-10.583-0.71c-3.118,2.727-3.437,7.465-0.71,10.583
	c5.054,5.78,12.492,9.095,20.408,9.095c7.919,0,15.358-3.315,20.409-9.097C284.952,460.38,284.633,455.643,281.514,452.917z"/>
<path d="M190.468,136.083c0-10.649-6.49-20.043-15.9-24.089c-0.593-23.764-20.107-42.913-44.011-42.913
	c-16.381,0-31.234,9.194-38.788,23.218c-4.427-1.891-9.224-2.892-14.079-2.892c-14.068,0-26.561,8.148-32.386,20.481
	c-0.276-0.009-0.554-0.013-0.83-0.013c-14.45,0-26.207,11.757-26.207,26.207c0,14.451,11.757,26.208,26.207,26.208H164.26
	C178.711,162.291,190.468,150.534,190.468,136.083z M33.267,136.083c0-6.18,5.027-11.207,11.207-11.207
	c1.175,0,2.334,0.183,3.446,0.542c1.972,0.637,4.122,0.43,5.938-0.574c1.814-1.005,3.133-2.716,3.641-4.728
	c2.334-9.249,10.637-15.709,20.19-15.709c4.791,0,9.297,1.586,13.03,4.586c1.961,1.576,4.582,2.064,6.979,1.299
	c2.397-0.765,4.251-2.682,4.936-5.104c3.516-12.428,14.997-21.107,27.922-21.107c16.004,0,29.024,13.021,29.024,29.024
	c0,1.137-0.073,2.296-0.225,3.545c-0.493,4.07,2.373,7.782,6.436,8.334c5.517,0.749,9.676,5.521,9.676,11.099
	c0,6.18-5.028,11.208-11.208,11.208H44.474C38.294,147.291,33.267,142.263,33.267,136.083z"/>
<path d="M449.439,262.457c24.425,0,44.296-19.871,44.296-44.296c0-24.581-20.145-44.55-44.765-44.293
	c-10.128-25.949-35.518-43.592-63.755-43.592c-29.507,0-55.359,18.923-64.708,46.166c-3.575-1.279-7.309-2.091-11.116-2.416
	l-5.493-57.62h4.02c8.462,0,15.347-6.885,15.347-15.347V84.911c0-8.463-6.885-15.348-15.347-15.348h-3.589l4.362-8.682
	c2.455-4.885,2.208-10.578-0.661-15.231s-7.847-7.432-13.313-7.432h-0.361C292.111,16.331,278.66,0,261.89,0
	s-30.221,16.331-32.467,38.219h-0.506c-5.467,0-10.444,2.778-13.313,7.432s-3.116,10.347-0.661,15.23l4.363,8.683h-3.589
	c-8.463,0-15.348,6.885-15.348,15.348v16.148c0,8.462,6.885,15.347,15.348,15.347h4.02l-16.764,175.882
	c-0.394,4.124,2.631,7.785,6.754,8.178c4.127,0.399,7.785-2.631,8.178-6.754l13.438-140.985h60.952l21.089,221.281H210.252
	l4.793-50.296c0.394-4.124-2.631-7.785-6.754-8.178c-4.125-0.398-7.785,2.631-8.178,6.754l-4.929,51.72h-83
	c-10.079,0-18.279,8.199-18.279,18.278v16.821c0,9.02,6.574,16.516,15.178,17.996c7.227,6.268,35.715,31.846,48.882,56.514
	c9.344,17.507,27.652,28.383,47.78,28.383h112.146c20.128,0,38.438-10.876,47.781-28.383c13.166-24.668,41.654-50.246,48.882-56.514
	c8.604-1.48,15.177-8.976,15.177-17.996v-16.821c0-10.079-8.199-18.278-18.278-18.278h-83.002L317.82,262.458h131.619V262.457z
	 M321.361,193.465c2.094,1.339,4.715,1.556,7.003,0.571c2.284-0.981,3.934-3.033,4.402-5.476
	c4.816-25.08,26.875-43.284,52.449-43.284c23.669,0,44.774,15.875,51.324,38.604c1.046,3.629,4.625,5.917,8.357,5.335
	c1.499-0.232,3.027-0.351,4.542-0.351c16.154,0,29.296,13.142,29.296,29.296c0,16.153-13.142,29.296-29.296,29.296H316.391
	l-5.539-58.121C314.575,190.012,318.141,191.406,321.361,193.465z M414.73,392.286v16.821c0,1.809-1.471,3.279-3.278,3.279h-43.465
	c-4.143,0-7.5,3.357-7.5,7.5s3.357,7.5,7.5,7.5h24.053c-12.373,11.955-29.616,30.46-39.601,49.168
	C345.708,489.166,332.47,497,317.891,497H205.744c-14.578,0-27.816-7.834-34.548-20.445c-9.984-18.708-27.229-37.213-39.601-49.168
	h206.486c4.143,0,7.5-3.357,7.5-7.5s-3.357-7.5-7.5-7.5H112.184c-1.809,0-3.279-1.471-3.279-3.279v-16.821
	c0-1.808,1.471-3.278,3.279-3.278h299.269C413.26,389.008,414.73,390.479,414.73,392.286z M261.89,15
	c8.317,0,15.521,10.11,17.354,23.219h-34.707C246.368,25.11,253.572,15,261.89,15z M228.345,54.146
	c-0.214-0.426,0.106-0.927,0.572-0.927c0,0,65.697,0,65.801,0c0.477,0,0.781,0.507,0.572,0.928l-7.747,15.417h-51.451
	C236.092,69.563,228.363,54.181,228.345,54.146z M215.369,101.06V84.911c0-0.191,0.156-0.348,0.348-0.348h92.202
	c0.191,0,0.347,0.156,0.347,0.348v16.148c0,0.191-0.155,0.347-0.347,0.347h-92.202C215.525,101.406,215.369,101.251,215.369,101.06z
	 M232.772,137.727l2.033-21.32h54.026l2.033,21.32H232.772z"/>
<g>
</g>
<g>
</g>
<g>
</g>
<g>
</g>
<g>
</g>
<g>
</g>
<g>
</g>
<g>
</g>
<g>
</g>
<g>
</g>
<g>
</g>
<g>
</g>
<g>
</g>
<g>
</g>
<g>
</g>
</svg>
