<?xml version="1.0" encoding="iso-8859-1"?>
<!-- Generator: Adobe Illustrator 19.0.0, SVG Export Plug-In . SVG Version: 6.00 Build 0)  -->
<svg version="1.1" id="Capa_1" xmlns="http://www.w3.org/2000/svg" xmlns:xlink="http://www.w3.org/1999/xlink" x="0px" y="0px"
	 viewBox="0 0 512 512" style="enable-background:new 0 0 512 512;" xml:space="preserve">
<path style="fill:#DEDEDE;" d="M377.828,128.618L255.999,98.241l-121.828,30.377c-3.456,11.851-6.432,24.401-8.938,37.588
	l135.234,31.989l126.296-31.989C384.26,153.019,381.284,140.468,377.828,128.618z"/>
<g>
	<path style="fill:#678DBF;" d="M386.765,166.206h-261.53c-15.589,81.869-12.885,188.046,7.894,300.528l122.871,18.883
		l122.872-18.883C399.65,354.252,402.354,248.075,386.765,166.206z"/>
	<path style="fill:#678DBF;" d="M377.828,128.618H134.171C155.932,54.109,196.464,7.5,255.999,7.5S356.068,54.109,377.828,128.618z"
		/>
</g>
<path style="fill:#BDBDBD;" d="M153.997,173.009c0.4-2.283,0.809-4.557,1.237-6.804c2.506-13.187,5.482-25.737,8.938-37.588
	c0.801-2.743,1.637-5.435,2.489-8.101l-32.489,8.101l0,0c-0.432,1.481-0.857,2.974-1.274,4.477
	c-2.919,10.521-5.472,21.573-7.664,33.111L153.997,173.009z"/>
<g>
	<path style="fill:#597AA6;" d="M255.999,485.617l15-2.305l-107.871-16.578c-20.778-112.483-23.482-218.66-7.894-300.529h-30
		c-6.82,35.818-10.139,76.288-9.974,119.904c0.082,21.808,1.035,44.402,2.857,67.594c1.041,13.252,2.365,26.7,3.973,40.308
		c2.813,23.813,6.494,48.117,11.039,72.723L255.999,485.617z"/>
	<path style="fill:#597AA6;" d="M164.173,128.618C184.051,60.545,219.604,15.769,271,8.54c-2.405-0.338-4.845-0.595-7.319-0.77
		c-0.088-0.006-0.176-0.011-0.263-0.017c-1.042-0.071-2.091-0.123-3.145-0.164c-0.261-0.01-0.521-0.021-0.782-0.029
		c-1.157-0.036-2.319-0.06-3.491-0.06c-36.28,0-65.503,17.308-87.721,47.689c-0.57,0.779-1.135,1.567-1.695,2.363
		c-3.363,4.777-6.56,9.861-9.592,15.236c-1.011,1.792-2.003,3.616-2.976,5.472c-7.79,14.847-14.403,31.731-19.843,50.358H164.173z"
		/>
</g>
<path style="fill:#DEDEDE;" d="M384.005,466.734h-256.01c-14.649,0-26.524,11.875-26.524,26.524V504.5H410.53v-11.242
	C410.529,478.61,398.654,466.734,384.005,466.734z"/>
<path style="fill:#BDBDBD;" d="M157.994,466.734h-30c-14.649,0-26.524,11.875-26.524,26.524V504.5h30v-11.242
	C131.47,478.609,143.345,466.734,157.994,466.734z"/>
<path d="M115.667,403.106c2.329,18.559,5.173,37.371,8.531,56.345c-16.979,1.895-30.227,16.331-30.227,33.807V504.5
	c0,4.143,3.357,7.5,7.5,7.5H410.53c4.143,0,7.5-3.357,7.5-7.5v-11.241c0-17.477-13.248-31.912-30.227-33.807
	c17.764-100.378,26.772-207.104,3.856-307.373c-1.962-8.583-4.167-17.111-6.631-25.564c-11.503-39.387-27.84-70.21-48.559-91.613
	C314.051,11.742,286.977,0,255.999,0s-58.051,11.742-80.469,34.901c-20.719,21.403-37.056,52.227-48.56,91.617
	c-3.487,11.962-6.551,24.844-9.107,38.3c-4.875,25.676-7.724,51.614-9.026,77.707c-1.052,21.091-1.297,42.208-0.732,63.32
	c-0.399,5.355,0.901,10.825,0.585,16.181c-0.03,0.505-0.008,1.01,0.063,1.508c0.776,16.774,2.019,33.903,3.735,51.309
	c0.009,0.36,0.05,0.718,0.111,1.074c0.862,8.651,1.844,17.373,2.938,26.149C115.557,402.416,115.6,402.763,115.667,403.106z
	 M178.733,181.961c9.533,6.375,18.93,13.066,28.17,20.091c-8.089,7.773-16.03,15.805-23.816,24.095
	c-8.969-6.872-18.231-13.565-27.794-20.045C162.962,197.787,170.785,189.734,178.733,181.961z M356.706,206.101
	c-9.564,6.479-18.826,13.173-27.794,20.045c-7.785-8.29-15.726-16.322-23.816-24.095c9.24-7.024,18.638-13.716,28.17-20.091
	C341.215,189.734,349.036,197.787,356.706,206.101z M384.807,371.142c-1.168,1.101-2.338,2.198-3.501,3.312
	c-6.149-9.821-12.48-19.447-18.978-28.876c8.205-7.667,16.563-15.059,25.066-22.176c0.267,0.393,0.534,0.786,0.801,1.179
	C387.46,339.819,386.329,355.361,384.807,371.142z M133.639,398.433c7.86,7.978,15.586,16.22,23.151,24.726
	c-6.568,10.976-12.607,21.654-18.132,31.908c-3.059-17.441-5.68-34.735-7.857-51.806
	C131.744,401.647,132.688,400.036,133.639,398.433z M141.671,385.212c6.145-9.907,12.47-19.624,18.974-29.127
	c8.015,7.86,15.876,15.988,23.581,24.374c-6.833,9.917-13.251,19.725-19.267,29.349C157.34,401.355,149.576,393.145,141.671,385.212
	z M216.335,284.623c1.761-1.982,3.542-3.933,5.321-5.888c8.355,7.904,16.379,15.938,24.095,24.054
	c-7.772,8.524-15.209,17.114-22.325,25.724c-7.843-8.291-15.844-16.327-24.005-24.1
	C204.968,297.674,210.605,291.071,216.335,284.623z M188.417,294.188c-8.39-7.621-16.936-14.981-25.642-22.064
	c7.165-8.783,14.488-17.323,21.961-25.616c8.941,7.188,17.571,14.553,25.896,22.057c-1.842,2.023-3.685,4.043-5.508,6.094
	C199.465,281.026,193.898,287.544,188.417,294.188z M295.664,284.623c5.73,6.448,11.367,13.051,16.913,19.79
	c-8.16,7.773-16.162,15.809-24.005,24.1c-7.116-8.61-14.553-17.2-22.325-25.724c7.716-8.116,15.74-16.15,24.095-24.054
	C292.122,280.69,293.903,282.641,295.664,284.623z M301.368,268.565c8.325-7.504,16.955-14.869,25.896-22.057
	c7.473,8.293,14.796,16.833,21.961,25.616c-8.706,7.083-17.252,14.442-25.642,22.064c-5.482-6.644-11.048-13.161-16.707-19.528
	C305.053,272.608,303.209,270.587,301.368,268.565z M322.017,316.147c7.04,8.934,13.92,18.096,20.625,27.48
	c-8.051,7.835-15.952,15.93-23.697,24.279c-6.592-9.169-13.54-18.401-20.853-27.637
	C305.904,331.961,313.883,323.926,322.017,316.147z M278.299,339.628c-7.588,8.393-15.028,17.022-22.3,25.909
	c-7.272-8.887-14.712-17.516-22.3-25.909c7.101-8.642,14.528-17.267,22.3-25.822C263.773,322.361,271.199,330.986,278.299,339.628z
	 M255.999,291.802c-7.734-8.113-15.771-16.146-24.132-24.052c7.885-8.275,15.934-16.279,24.132-24.016
	c8.199,7.737,16.248,15.74,24.132,24.016C271.771,275.656,263.734,283.689,255.999,291.802z M213.908,340.27
	c-7.314,9.236-14.261,18.468-20.853,27.637c-7.745-8.349-15.646-16.444-23.697-24.279c6.705-9.385,13.585-18.546,20.625-27.48
	C198.117,323.926,206.095,331.961,213.908,340.27z M194.535,391.945c7.515,8.567,14.873,17.387,22.065,26.457
	c-6.614,9.733-13.064,19.704-19.352,29.908c-7.141-9.149-14.46-18.069-21.937-26.75
	C181.296,411.865,187.701,401.965,194.535,391.945z M203.367,379.275c6.568-9.219,13.5-18.507,20.811-27.803
	c7.571,8.434,14.983,17.123,22.233,26.066c-7.12,9.092-14.084,18.422-20.881,27.999
	C218.302,396.538,210.912,387.783,203.367,379.275z M255.999,389.62c7.098,9.159,14.026,18.579,20.795,28.237
	c-7.097,9.234-14.031,18.708-20.795,28.418c-6.765-9.709-13.698-19.184-20.795-28.418
	C241.973,408.199,248.901,398.779,255.999,389.62z M265.588,377.538c7.25-8.943,14.662-17.632,22.233-26.066
	c7.311,9.296,14.243,18.584,20.811,27.803c-7.545,8.509-14.935,17.264-22.163,26.262C279.672,395.96,272.708,386.63,265.588,377.538
	z M317.465,391.945c6.834,10.02,13.238,19.92,19.223,29.615c-7.477,8.681-14.795,17.601-21.937,26.75
	c-6.287-10.204-12.738-20.175-19.352-29.908C302.592,409.333,309.949,400.512,317.465,391.945z M327.775,380.458
	c7.704-8.386,15.565-16.514,23.581-24.374c6.504,9.503,12.829,19.22,18.974,29.127c-7.906,7.933-15.67,16.143-23.287,24.595
	C341.026,400.184,334.608,390.375,327.775,380.458z M378.359,398.433c0.952,1.604,1.896,3.215,2.838,4.827
	c-2.177,17.072-4.798,34.365-7.857,51.806c-5.524-10.254-11.563-20.932-18.132-31.908
	C362.773,414.653,370.499,406.411,378.359,398.433z M353.628,333.19c-6.701-9.324-13.578-18.424-20.605-27.311
	c8.36-7.616,16.877-14.963,25.556-22.028c6.899,8.832,13.644,17.894,20.23,27.181C370.268,318.148,361.872,325.536,353.628,333.19z
	 M389.044,299.549c-6.106-8.529-12.345-16.87-18.713-25.02c6.114-4.724,12.307-9.307,18.571-13.763
	C389.263,273.396,389.307,286.34,389.044,299.549z M388.172,242.976c-9.219,6.333-18.288,12.938-27.195,19.826
	c-7.141-8.759-14.437-17.283-21.88-25.569c8.949-6.824,18.198-13.463,27.748-19.882c7.265,8.24,14.377,16.709,21.314,25.381
	C388.163,242.814,388.167,242.895,388.172,242.976z M317.072,235.458c-8.942,7.214-17.579,14.598-25.914,22.116
	c-7.872-8.268-15.903-16.278-24.084-24.024c8.542-7.679,17.238-15.07,26.082-22.161
	C301.281,219.144,309.255,227.169,317.072,235.458z M255.999,223.336c-8.54-7.712-17.234-15.139-26.074-22.278
	c8.533-7.757,17.229-15.218,26.074-22.385c8.845,7.167,17.541,14.627,26.074,22.385C273.234,208.197,264.54,215.624,255.999,223.336
	z M244.926,233.55c-8.181,7.746-16.212,15.756-24.084,24.024c-8.335-7.518-16.972-14.902-25.914-22.116
	c7.816-8.289,15.791-16.314,23.916-24.069C227.688,218.479,236.384,225.871,244.926,233.55z M172.904,237.233
	c-7.444,8.285-14.739,16.81-21.88,25.569c-8.908-6.888-17.976-13.494-27.195-19.826c0.004-0.081,0.009-0.162,0.014-0.244
	c6.937-8.672,14.049-17.14,21.314-25.381C154.705,223.771,163.954,230.409,172.904,237.233z M141.669,274.529
	c-6.368,8.15-12.607,16.491-18.713,25.02c-0.263-13.209-0.219-26.153,0.142-38.783C129.361,265.221,135.554,269.805,141.669,274.529
	z M153.421,283.851c8.679,7.064,17.197,14.412,25.556,22.028c-7.027,8.887-13.905,17.987-20.605,27.311
	c-8.245-7.654-16.641-15.042-25.181-22.157C139.777,301.745,146.522,292.683,153.421,283.851z M149.671,345.578
	c-6.498,9.429-12.829,19.055-18.978,28.876c-1.163-1.113-2.333-2.21-3.501-3.312c-1.523-15.781-2.653-31.323-3.388-46.561
	c0.267-0.394,0.534-0.787,0.801-1.179C133.108,330.519,141.466,337.911,149.671,345.578z M167.151,435.085
	c6.669,7.855,13.205,15.91,19.597,24.149h-33.286C157.721,451.406,162.283,443.338,167.151,435.085z M208.145,459.234
	c5.897-9.667,11.941-19.122,18.133-28.36c6.983,9.214,13.803,18.669,20.455,28.36H208.145z M265.267,459.234
	c6.651-9.691,13.471-19.146,20.455-28.36c6.192,9.238,12.236,18.693,18.133,28.36H265.267z M344.848,435.085
	c4.869,8.253,9.43,16.321,13.69,24.149h-33.286C331.644,450.995,338.178,442.94,344.848,435.085z M379.539,209.073
	c1.841-1.166,3.692-2.324,5.555-3.473c0.421,3.71,0.804,7.465,1.16,11.252C384.031,214.238,381.792,211.645,379.539,209.073z
	 M383.007,189.31c-4.6,2.763-9.143,5.571-13.617,8.432c-7.565-8.261-15.276-16.285-23.116-24.036h34.242
	C381.418,178.813,382.246,184.019,383.007,189.31z M294.007,191.649c-6.721-6.158-13.539-12.141-20.454-17.943h45.16
	C310.367,179.446,302.127,185.422,294.007,191.649z M217.992,191.649c-8.12-6.227-16.361-12.203-24.706-17.943h45.16
	C231.531,179.508,224.714,185.491,217.992,191.649z M165.725,173.706c-7.84,7.751-15.551,15.774-23.116,24.036
	c-4.474-2.861-9.017-5.67-13.617-8.432c0.761-5.29,1.589-10.496,2.49-15.604L165.725,173.706L165.725,173.706z M126.906,205.6
	c1.863,1.149,3.714,2.307,5.555,3.473c-2.253,2.572-4.492,5.165-6.715,7.779C126.102,213.065,126.486,209.311,126.906,205.6z
	 M403.029,493.259V497H108.971v-3.741c0-10.49,8.534-19.024,19.024-19.024h256.01C394.495,474.234,403.029,482.769,403.029,493.259z
	 M255.999,15c62.797,0,95.196,55.6,111.664,106.117h-39.701c-4.143,0-7.5,3.357-7.5,7.5s3.357,7.5,7.5,7.5h44.191
	c1.982,7.233,3.808,14.79,5.457,22.589h-33.53c-0.079-0.003-0.158,0.001-0.237,0h-84.01c-0.031-0.001-0.062,0-0.093,0h-7.497
	c-0.025,0-0.05-0.001-0.074,0h-84.027c-0.074,0.001-0.149-0.003-0.223,0h-33.531c1.649-7.799,3.475-15.355,5.457-22.589h158.311
	c4.143,0,7.5-3.357,7.5-7.5s-3.357-7.5-7.5-7.5h-153.82C160.803,70.6,193.202,15,255.999,15z"/>
<path d="M195.092,67.198c-4.143,0-7.5,3.357-7.5,7.5V85.72c0,4.143,3.357,7.5,7.5,7.5s7.5-3.357,7.5-7.5V74.698
	C202.592,70.556,199.234,67.198,195.092,67.198z"/>
<path d="M316.907,93.221c4.143,0,7.5-3.357,7.5-7.5V74.698c0-4.143-3.357-7.5-7.5-7.5s-7.5,3.357-7.5,7.5V85.72
	C309.407,89.863,312.765,93.221,316.907,93.221z"/>
<path d="M275.967,79.308c-3.117-2.728-7.856-2.408-10.582,0.711c-2.271,2.597-5.691,4.087-9.386,4.087
	c-3.695,0-7.116-1.49-9.387-4.087c-2.727-3.121-7.465-3.437-10.582-0.711c-3.119,2.726-3.438,7.464-0.711,10.582
	c5.119,5.857,12.656,9.216,20.68,9.216c8.022,0,15.56-3.358,20.679-9.216C279.405,86.771,279.087,82.033,275.967,79.308z"/>
<g>
</g>
<g>
</g>
<g>
</g>
<g>
</g>
<g>
</g>
<g>
</g>
<g>
</g>
<g>
</g>
<g>
</g>
<g>
</g>
<g>
</g>
<g>
</g>
<g>
</g>
<g>
</g>
<g>
</g>
</svg>
