<?xml version="1.0" encoding="iso-8859-1"?>
<!-- Generator: Adobe Illustrator 19.0.0, SVG Export Plug-In . SVG Version: 6.00 Build 0)  -->
<svg version="1.1" id="Capa_1" xmlns="http://www.w3.org/2000/svg" xmlns:xlink="http://www.w3.org/1999/xlink" x="0px" y="0px"
	 viewBox="0 0 512 512" style="enable-background:new 0 0 512 512;" xml:space="preserve">
<path style="fill:#DEDEDE;" d="M372.867,500.456L265.349,381.389c-2.305-2.786-5.733-4.398-9.349-4.398s-7.043,1.612-9.349,4.398
	L139.133,500.456h31.498L256,408.158l85.369,92.297h31.498V500.456z"/>
<rect x="73.32" y="360.55" style="fill:#678DBF;" width="365.37" height="62.34"/>
<path style="fill:#DEDEDE;" d="M68.038,89.27L68.038,89.27c2.868-3.026,7.688-3.026,10.557,0l0,0
	c8.452,8.919,13.339,20.628,13.733,32.909l1.33,41.443l-20.341,13.266l-20.341-13.266l1.33-41.443
	C54.7,109.898,59.586,98.188,68.038,89.27z"/>
<g>
	<path style="fill:#BDBDBD;" d="M72.976,163.622l1.33-41.442c0.313-9.77,3.479-19.172,9.011-27.101
		c-1.422-2.039-2.993-3.984-4.722-5.809l0,0c-2.868-3.026-7.688-3.026-10.557,0l0,0c-8.452,8.919-13.339,20.628-13.733,32.91
		l-1.33,41.442l20.341,13.266l10-6.521L72.976,163.622z"/>
	<path style="fill:#BDBDBD;" d="M52.976,163.622h40.682c6.059,0,10.971,4.912,10.971,10.971v51.154l-31.312,16.178l-31.312-16.178
		v-51.154C42.005,168.534,46.917,163.622,52.976,163.622z"/>
</g>
<path style="fill:#A3A3A3;" d="M62.005,225.747v-51.154c0-6.059,4.912-10.971,10.971-10.971h-20
	c-6.059,0-10.971,4.912-10.971,10.971v51.154l31.312,16.178l10-5.167L62.005,225.747z"/>
<path style="fill:#DEDEDE;" d="M42.005,225.747h62.624c6.621,0,11.988,5.367,11.988,11.988v82.701l-43.3,15l-43.3-15v-82.701
	C30.017,231.114,35.384,225.747,42.005,225.747z"/>
<path style="fill:#BDBDBD;" d="M50.017,320.436v-82.701c0-6.621,5.367-11.988,11.988-11.988h-20
	c-6.621,0-11.988,5.368-11.988,11.988v82.701l43.3,15l10-3.464L50.017,320.436z"/>
<path style="fill:#DEDEDE;" d="M443.962,89.27L443.962,89.27c-2.868-3.026-7.688-3.026-10.557,0l0,0
	c-8.452,8.919-13.339,20.628-13.733,32.909l-1.33,41.443l20.341,13.266l20.341-13.266l-1.33-41.443
	C457.3,109.898,452.414,98.188,443.962,89.27z"/>
<g>
	<path style="fill:#BDBDBD;" d="M438.343,163.622l1.33-41.442c0.313-9.77,3.479-19.172,9.011-27.101
		c-1.422-2.038-2.993-3.984-4.722-5.809l0,0c-2.868-3.026-7.688-3.026-10.556,0l0,0c-8.452,8.919-13.339,20.628-13.733,32.91
		l-1.33,41.442l20.341,13.266l10-6.521L438.343,163.622z"/>
	<path style="fill:#BDBDBD;" d="M459.024,163.622h-40.682c-6.059,0-10.971,4.912-10.971,10.971v51.154l31.312,16.178l31.312-16.178
		v-51.154C469.995,168.534,465.083,163.622,459.024,163.622z"/>
</g>
<path style="fill:#A3A3A3;" d="M427.372,225.747v-51.154c0-6.059,4.912-10.971,10.971-10.971h-20
	c-6.059,0-10.971,4.912-10.971,10.971v51.154l31.312,16.178l10-5.167L427.372,225.747z"/>
<path style="fill:#DEDEDE;" d="M469.995,225.747h-62.624c-6.621,0-11.988,5.367-11.988,11.988v82.701l43.3,15l43.3-15v-82.701
	C481.983,231.114,476.616,225.747,469.995,225.747z"/>
<path style="fill:#BDBDBD;" d="M415.383,320.436v-82.701c0-6.621,5.367-11.988,11.988-11.988h-20
	c-6.621,0-11.988,5.368-11.988,11.988v82.701l43.3,15l10-3.464L415.383,320.436z"/>
<rect x="347.87" y="360.55" style="fill:#597AA6;" width="90.82" height="62.34"/>
<path style="fill:#BDBDBD;" d="M481.983,320.436h-86.6c-12.436,0-22.517,10.081-22.517,22.517v157.503H504.5V342.953
	C504.5,330.517,494.419,320.436,481.983,320.436z"/>
<path style="fill:#A3A3A3;" d="M415.383,320.436h-20c-12.436,0-22.516,10.081-22.516,22.517v157.503h20V342.953
	C392.867,330.517,402.948,320.436,415.383,320.436z"/>
<rect x="399.08" y="398" style="fill:#597AA6;" width="79.22" height="24.889"/>
<g>
	<rect x="399.08" y="447.9" style="fill:#678DBF;" width="79.22" height="24.889"/>
	<rect x="399.08" y="348.1" style="fill:#678DBF;" width="79.22" height="24.889"/>
</g>
<rect x="420.29" y="261.35" style="fill:#597AA6;" width="36.796" height="24.889"/>
<circle style="fill:#A3A3A3;" cx="438.68" cy="79.49" r="15.664"/>
<g>
	<rect x="54.918" y="261.35" style="fill:#597AA6;" width="36.796" height="24.889"/>
	<rect x="73.32" y="360.55" style="fill:#597AA6;" width="90.82" height="62.34"/>
</g>
<path style="fill:#BDBDBD;" d="M30.017,320.436h86.6c12.436,0,22.517,10.081,22.517,22.517v157.503H7.5V342.953
	C7.5,330.517,17.581,320.436,30.017,320.436z"/>
<path style="fill:#A3A3A3;" d="M50.017,320.436h-20c-12.436,0-22.516,10.081-22.516,22.517v157.503h20V342.953
	C27.5,330.517,37.581,320.436,50.017,320.436z"/>
<rect x="33.709" y="398" style="fill:#597AA6;" width="79.22" height="24.889"/>
<g>
	<rect x="33.709" y="447.9" style="fill:#678DBF;" width="79.22" height="24.889"/>
	<rect x="33.709" y="348.1" style="fill:#678DBF;" width="79.22" height="24.889"/>
</g>
<circle style="fill:#A3A3A3;" cx="73.32" cy="79.49" r="15.664"/>
<path d="M478.291,390.501h-79.215c-4.142,0-7.5,3.357-7.5,7.5v24.89c0,4.143,3.358,7.5,7.5,7.5h79.215c4.142,0,7.5-3.357,7.5-7.5
	v-24.89C485.791,393.858,482.433,390.501,478.291,390.501z M470.791,415.391h-64.215v-9.89h64.215V415.391z"/>
<path d="M478.291,440.401h-79.215c-4.142,0-7.5,3.357-7.5,7.5v24.889c0,4.143,3.358,7.5,7.5,7.5h79.215c4.142,0,7.5-3.357,7.5-7.5
	v-24.889C485.791,443.759,482.433,440.401,478.291,440.401z M470.791,465.29h-64.215v-9.889h64.215V465.29z"/>
<path d="M478.291,340.601h-79.215c-4.142,0-7.5,3.357-7.5,7.5v24.89c0,4.143,3.358,7.5,7.5,7.5h79.215c4.142,0,7.5-3.357,7.5-7.5
	v-24.89C485.791,343.958,482.433,340.601,478.291,340.601z M470.791,365.49h-64.215v-9.89h64.215V365.49z"/>
<path d="M457.082,253.852h-36.796c-4.142,0-7.5,3.357-7.5,7.5v24.89c0,4.143,3.358,7.5,7.5,7.5h36.796c4.142,0,7.5-3.357,7.5-7.5
	v-24.89C464.582,257.209,461.224,253.852,457.082,253.852z M449.582,278.741h-21.796v-9.89h21.796V278.741z"/>
<path d="M176.145,381.675v13.096c0,4.143,3.358,7.5,7.5,7.5s7.5-3.357,7.5-7.5v-13.096c0-4.143-3.358-7.5-7.5-7.5
	S176.145,377.532,176.145,381.675z"/>
<path d="M335.855,394.771v-13.096c0-4.143-3.358-7.5-7.5-7.5s-7.5,3.357-7.5,7.5v13.096c0,4.143,3.358,7.5,7.5,7.5
	S335.855,398.913,335.855,394.771z"/>
<path d="M256,409.26c9.125,0,17.692-3.814,23.505-10.465c2.726-3.118,2.408-7.856-0.711-10.582
	c-3.119-2.727-7.857-2.407-10.583,0.711c-2.964,3.391-7.415,5.336-12.211,5.336s-9.247-1.945-12.211-5.336
	c-2.726-3.12-7.464-3.438-10.583-0.711c-3.119,2.726-3.437,7.464-0.711,10.582C238.308,405.445,246.875,409.26,256,409.26z"/>
<path d="M489.483,313.884v-76.15c0-8.089-4.955-15.039-11.988-17.983v-45.159c0-7.587-4.602-14.116-11.159-16.955l-1.146-35.699
	c-0.322-10.044-3.186-19.634-8.344-28.094c3.127-3.949,5.001-8.933,5.001-14.35c0-10.148-6.562-18.786-15.664-21.911V11.545
	c0-4.143-3.358-7.5-7.5-7.5s-7.5,3.357-7.5,7.5v46.038c-9.102,3.125-15.664,11.763-15.664,21.911c0,5.417,1.874,10.401,5.001,14.35
	c-5.158,8.461-8.022,18.05-8.344,28.095l-1.145,35.699c-6.557,2.839-11.159,9.367-11.159,16.955v45.159
	c-7.033,2.944-11.988,9.894-11.988,17.983v76.15c-12.934,3.339-22.517,15.106-22.517,29.068v10.093H231.102
	c-4.142,0-7.5,3.357-7.5,7.5s3.358,7.5,7.5,7.5h134.265v47.346H146.633v-47.346h54.552c4.142,0,7.5-3.357,7.5-7.5
	s-3.358-7.5-7.5-7.5h-54.552v-10.093c0-13.962-9.583-25.729-22.517-29.068v-76.15c0-8.089-4.955-15.039-11.988-17.983v-45.158
	c0-7.588-4.602-14.117-11.159-16.956l-1.146-35.699c-0.322-10.044-3.186-19.634-8.344-28.094c3.127-3.949,5.001-8.933,5.001-14.35
	c0-10.148-6.562-18.786-15.664-21.911V11.545c0-4.143-3.358-7.5-7.5-7.5s-7.5,3.357-7.5,7.5v46.038
	c-9.101,3.125-15.664,11.763-15.664,21.911c0,5.417,1.874,10.401,5.001,14.35c-5.158,8.46-8.022,18.05-8.344,28.094l-1.145,35.699
	c-6.557,2.839-11.159,9.367-11.159,16.956v45.158c-7.033,2.944-11.988,9.894-11.988,17.983v76.15C9.583,317.224,0,328.99,0,342.952
	v157.503c0,4.143,3.358,7.5,7.5,7.5h163.131c2.091,0,4.086-0.873,5.506-2.407l69.516-75.157h20.693l69.516,75.157
	c1.419,1.534,3.415,2.407,5.506,2.407h31.498H504.5c4.142,0,7.5-3.357,7.5-7.5V342.952C512,328.99,502.417,317.224,489.483,313.884z
	 M402.883,237.734c0-2.475,2.014-4.488,4.488-4.488h62.624c2.475,0,4.488,2.014,4.488,4.488v75.201h-71.6V237.734z M414.872,174.592
	c0-1.914,1.557-3.471,3.471-3.471h40.682c1.914,0,3.471,1.557,3.471,3.471v43.654h-47.624L414.872,174.592L414.872,174.592z
	 M427.168,122.419c0.234-7.294,2.279-14.265,5.963-20.439c0.434,0.107,0.872,0.2,1.315,0.282c3.252,0.587,6.577,0.512,9.788-0.282
	c3.684,6.175,5.729,13.145,5.963,20.439l1.082,33.702h-25.192L427.168,122.419z M438.684,71.33c4.501,0,8.164,3.662,8.164,8.164
	c0,2.874-1.496,5.4-3.747,6.855c-0.034,0.021-0.069,0.037-0.103,0.058c-2.609,1.635-6.018,1.636-8.626,0.001
	c-0.029-0.019-0.06-0.033-0.09-0.051c-2.259-1.454-3.761-3.984-3.761-6.864C430.52,74.992,434.182,71.33,438.684,71.33z
	 M365.367,480.959l-45.664-50.568h45.664V480.959z M192.297,430.391l-45.664,50.568v-50.568H192.297z M37.517,237.734
	c0-2.475,2.014-4.488,4.488-4.488h62.624c2.475,0,4.488,2.014,4.488,4.488v75.201h-71.6V237.734z M49.505,174.593
	c0-1.914,1.557-3.472,3.471-3.472h40.681c1.914,0,3.471,1.558,3.471,3.472v43.653H49.505V174.593z M61.802,122.419
	c0.234-7.294,2.279-14.264,5.963-20.439c0.434,0.107,0.873,0.2,1.316,0.282c2.802,0.52,5.678,0.519,8.48-0.002
	c0.44-0.082,0.876-0.174,1.307-0.281c3.684,6.174,5.729,13.145,5.963,20.439l1.081,33.702H60.721L61.802,122.419z M73.316,71.33
	c4.501,0,8.164,3.662,8.164,8.164c0,2.876-1.499,5.404-3.752,6.858c-0.032,0.02-0.066,0.035-0.098,0.055
	c-2.61,1.636-6.019,1.634-8.627,0c-0.034-0.021-0.069-0.037-0.102-0.058c-2.251-1.455-3.748-3.981-3.748-6.855
	C65.153,74.992,68.815,71.33,73.316,71.33z M131.633,492.955H15V342.952c0-8.28,6.736-15.017,15.017-15.017h86.6
	c8.28,0,15.017,6.736,15.017,15.017v150.003H131.633z M167.352,492.955h-11.341l56.497-62.564h12.713L167.352,492.955z
	 M344.648,492.955l-57.869-62.564h12.713l56.497,62.564H344.648z M497,492.955H380.367v-70.064v-62.346v-17.593
	c0-8.28,6.736-15.017,15.017-15.017h86.6c8.28,0,15.017,6.736,15.017,15.017v150.003H497z"/>
<path d="M112.924,390.501H33.709c-4.142,0-7.5,3.357-7.5,7.5v24.89c0,4.143,3.358,7.5,7.5,7.5h79.215c4.142,0,7.5-3.357,7.5-7.5
	v-24.89C120.424,393.858,117.066,390.501,112.924,390.501z M105.424,415.391H41.209v-9.89h64.215
	C105.424,405.501,105.424,415.391,105.424,415.391z"/>
<path d="M112.924,440.401H33.709c-4.142,0-7.5,3.357-7.5,7.5v24.889c0,4.143,3.358,7.5,7.5,7.5h79.215c4.142,0,7.5-3.357,7.5-7.5
	v-24.889C120.424,443.759,117.066,440.401,112.924,440.401z M105.424,465.29H41.209v-9.889h64.215
	C105.424,455.401,105.424,465.29,105.424,465.29z"/>
<path d="M112.924,340.601H33.709c-4.142,0-7.5,3.357-7.5,7.5v24.89c0,4.143,3.358,7.5,7.5,7.5h79.215c4.142,0,7.5-3.357,7.5-7.5
	v-24.89C120.424,343.958,117.066,340.601,112.924,340.601z M105.424,365.49H41.209v-9.89h64.215
	C105.424,355.6,105.424,365.49,105.424,365.49z"/>
<path d="M91.715,253.852H54.918c-4.142,0-7.5,3.357-7.5,7.5v24.89c0,4.143,3.358,7.5,7.5,7.5h36.796c4.142,0,7.5-3.357,7.5-7.5
	v-24.89C99.215,257.209,95.857,253.852,91.715,253.852z M84.215,278.741H62.418v-9.89h21.796L84.215,278.741L84.215,278.741z"/>
<g>
</g>
<g>
</g>
<g>
</g>
<g>
</g>
<g>
</g>
<g>
</g>
<g>
</g>
<g>
</g>
<g>
</g>
<g>
</g>
<g>
</g>
<g>
</g>
<g>
</g>
<g>
</g>
<g>
</g>
</svg>
