<?xml version="1.0" encoding="iso-8859-1"?>
<!-- Generator: Adobe Illustrator 19.0.0, SVG Export Plug-In . SVG Version: 6.00 Build 0)  -->
<svg version="1.1" id="Capa_1" xmlns="http://www.w3.org/2000/svg" xmlns:xlink="http://www.w3.org/1999/xlink" x="0px" y="0px"
	 viewBox="0 0 512 512" style="enable-background:new 0 0 512 512;" xml:space="preserve">
<path style="fill:#DEDEDE;" d="M243.731,255.887v-44.446l-83.951-43.784c-21.408-11.158-46.923-11.158-68.33,0L7.5,211.441v44.446
	l112.8,48.103L243.731,255.887z"/>
<path style="fill:#F7F7F7;" d="M317.475,341.572v-35.188l66.464-34.664c16.948-8.833,37.149-8.833,54.097,0l66.464,34.664v35.188
	l-89.305,38.083L317.475,341.572z"/>
<path style="fill:#946F61;" d="M504.5,341.572v153.546h-75.395l-111.631-23.627V341.572l4.048-2.135
	c7.999-4.223,17.56-4.223,25.559,0s17.57,4.223,25.568,0c7.999-4.223,17.56-4.223,25.559,0s17.56,4.223,25.559,0
	s17.57-4.223,25.568,0c7.999,4.223,17.56,4.223,25.559,0s17.56-4.223,25.559,0L504.5,341.572z"/>
<g>
	<path style="fill:#AE8372;" d="M7.5,255.887V494.91l75.391,0.205l160.84-75.128v-164.1l-5.113-2.697
		c-10.103-5.334-22.18-5.334-32.283,0c-10.103,5.334-22.192,5.334-32.295,0s-22.18-5.334-32.283,0
		c-10.103,5.334-22.18,5.334-32.283,0s-22.192-5.334-32.295,0s-22.18,5.334-32.283,0s-22.18-5.334-32.283,0L7.5,255.887z"/>
	<polygon style="fill:#AE8372;" points="117.527,455.975 82.891,495.115 429.109,495.115 394.473,455.975 368.278,422.667 
		147.405,422.667 	"/>
</g>
<polygon style="fill:#946F61;" points="177.405,422.667 147.405,422.667 117.527,455.975 82.891,495.115 112.891,495.115 
	147.527,455.975 "/>
<polygon style="fill:#BDBDBD;" points="256,389.358 117.527,407.537 117.527,455.975 394.473,455.975 394.473,407.537 "/>
<polygon style="fill:#A3A3A3;" points="271,391.327 256,389.358 117.527,407.537 117.527,455.975 147.527,455.975 147.527,407.537 
	"/>
<polygon style="fill:#AE8372;" points="129.809,375.062 96.805,407.537 415.195,407.537 382.192,375.062 256,351.774 "/>
<polygon style="fill:#946F61;" points="271,354.543 256,351.775 129.809,375.062 96.805,407.537 126.805,407.537 159.809,375.062 
	"/>
<path style="fill:#DEDEDE;" d="M320.681,266.694H191.319c-36.84,22.036-61.51,62.318-61.51,108.368h252.383
	C382.192,329.012,357.522,288.73,320.681,266.694z"/>
<path style="fill:#BDBDBD;" d="M221.319,266.694h-30c-36.84,22.036-61.51,62.318-61.51,108.368h30
	C159.809,329.012,184.479,288.73,221.319,266.694z"/>
<g>
	<path style="fill:#3B484A;" d="M256,431.898L256,431.898c-13.244,0-23.98,10.737-23.98,23.98v0.097h47.961v-0.097
		C279.98,442.635,269.244,431.898,256,431.898z"/>
	<path style="fill:#3B484A;" d="M171.385,431.898L171.385,431.898c-13.244,0-23.98,10.737-23.98,23.98v0.097h47.961v-0.097
		C195.366,442.635,184.629,431.898,171.385,431.898z"/>
	<path style="fill:#3B484A;" d="M340.615,431.898L340.615,431.898c13.244,0,23.98,10.737,23.98,23.98v0.097h-47.961v-0.097
		C316.634,442.635,327.371,431.898,340.615,431.898z"/>
</g>
<path style="fill:#DEDEDE;" d="M267.012,26.501c-0.748-5.51-5.452-9.619-11.012-9.619s-10.264,4.109-11.012,9.619l-28.787,212.187
	L256,252.691l39.799-14.003L267.012,26.501z"/>
<path style="fill:#BDBDBD;" d="M236.201,238.688l28.787-212.187c0.161-1.187,0.515-2.302,1.012-3.332
	c-1.811-3.751-5.637-6.287-10-6.287c-5.56,0-10.265,4.109-11.012,9.619l-28.787,212.187L256,252.691l10-3.519L236.201,238.688z"/>
<g>
	<path style="fill:#AE8372;" d="M284.928,55.71h-57.855c-3.055,0-5.532,2.477-5.532,5.532v8.35c0,3.055,2.477,5.532,5.532,5.532
		h57.855c3.055,0,5.532-2.477,5.532-5.532v-8.35C290.46,58.187,287.983,55.71,284.928,55.71z"/>
	<path style="fill:#AE8372;" d="M294.635,109.099h-77.269c-3.055,0-5.532,2.477-5.532,5.532v8.35c0,3.055,2.477,5.532,5.532,5.532
		h77.269c3.055,0,5.532-2.477,5.532-5.532v-8.35C300.167,111.576,297.69,109.099,294.635,109.099z"/>
	<path style="fill:#AE8372;" d="M316.791,191.624l-47.6-29.177c-8.094-4.961-18.287-4.961-26.381,0l-47.6,29.177
		c-3.275,2.008-4.303,6.29-2.295,9.565l7.949,12.968c2.008,3.275,6.29,4.303,9.565,2.295L256,188.518l45.572,27.935
		c3.275,2.008,7.558,0.98,9.565-2.295l7.949-12.968C321.093,197.914,320.066,193.632,316.791,191.624z"/>
	<path style="fill:#AE8372;" d="M307.968,238.688H204.032c-7.021,0-12.713,5.692-12.713,12.713v15.293h129.362v-15.293
		C320.681,244.38,314.989,238.688,307.968,238.688z"/>
</g>
<path style="fill:#946F61;" d="M234.032,238.688h-30c-7.021,0-12.713,5.692-12.713,12.713v15.293h30v-15.293
	C221.319,244.38,227.011,238.688,234.032,238.688z"/>
<path d="M197.039,329.296c-4.142,0-7.5,3.357-7.5,7.5v10.671c0,4.143,3.358,7.5,7.5,7.5s7.5-3.357,7.5-7.5v-10.671
	C204.539,332.653,201.181,329.296,197.039,329.296z"/>
<path d="M314.961,329.296c-4.142,0-7.5,3.357-7.5,7.5v10.671c0,4.143,3.358,7.5,7.5,7.5s7.5-3.357,7.5-7.5v-10.671
	C322.461,332.653,319.104,329.296,314.961,329.296z"/>
<path d="M275.488,341.078c-3.118-2.726-7.857-2.408-10.583,0.711c-2.152,2.462-5.398,3.874-8.905,3.874s-6.753-1.412-8.905-3.874
	c-2.726-3.12-7.464-3.437-10.583-0.711s-3.437,7.464-0.711,10.582c5.001,5.722,12.363,9.003,20.199,9.003s15.198-3.281,20.199-9.003
	C278.925,348.542,278.607,343.804,275.488,341.078z"/>
<path d="M7.479,502.41l497.021,0.208c4.142,0,7.5-3.357,7.5-7.5V306.385c0-2.795-1.554-5.357-4.032-6.65l-66.466-34.664
	c-9.382-4.891-19.934-7.476-30.515-7.476s-21.133,2.585-30.517,7.476l-29.854,15.57c-6.796-6.81-14.315-12.899-22.435-18.119V251.4
	c0-11.146-9.067-20.213-20.213-20.213h-5.618l-0.911-6.712c1.221,0.33,2.484,0.504,3.76,0.504l0,0c5.072,0,9.683-2.581,12.332-6.902
	l7.949-12.969c4.165-6.796,2.025-15.713-4.771-19.879l-26.826-16.443l-4.446-32.774h5.197c7.186,0,13.032-5.847,13.032-13.032v-8.35
	c0-7.186-5.846-13.032-13.032-13.032h-9.866l-2.574-18.975h2.733c7.186,0,13.032-5.847,13.032-13.032v-8.35
	c0-7.186-5.846-13.032-13.032-13.032h-7.402l-3.082-22.717c-1.245-9.183-9.174-16.11-18.443-16.11s-17.198,6.927-18.444,16.11
	l-3.082,22.718h-7.402c-7.186,0-13.032,5.847-13.032,13.032v8.35c0,7.186,5.846,13.032,13.032,13.032h2.733l-2.574,18.975h-9.866
	c-7.186,0-13.032,5.847-13.032,13.032v8.35c0,7.186,5.846,13.032,13.032,13.032h5.197l-4.446,32.774l-18.366,11.258l-36.502-19.038
	c-11.569-6.029-24.583-9.217-37.631-9.217s-26.062,3.188-37.633,9.218L4.032,204.79C1.554,206.083,0,208.646,0,211.44v44.446V494.91
	C0,499.044,3.345,502.398,7.479,502.41z M292.343,415.037c4.142,0,7.5-3.357,7.5-7.5s-3.358-7.5-7.5-7.5H115.12l17.76-17.476h246.24
	l17.76,17.476h-75.418c-4.142,0-7.5,3.357-7.5,7.5s3.358,7.5,7.5,7.5h65.512v33.438h-15.766
	c-3.339-13.797-15.785-24.077-30.593-24.077c-14.787,0-27.218,10.251-30.579,24.077h-23.443
	c-3.339-13.797-15.785-24.077-30.593-24.077c-14.787,0-27.218,10.251-30.579,24.077h-23.443
	c-3.339-13.797-15.785-24.077-30.593-24.077c-14.787,0-27.218,10.251-30.579,24.077h-15.779v-33.438H292.343z M120.905,463.476
	h270.189l21.362,24.14H99.544L120.905,463.476z M156.663,448.476c2.716-5.38,8.295-9.077,14.722-9.077s12.006,3.697,14.722,9.077
	H156.663z M241.278,448.476c2.716-5.38,8.295-9.077,14.722-9.077s12.006,3.697,14.722,9.077H241.278z M325.893,448.476
	c2.716-5.38,8.295-9.077,14.722-9.077s12.006,3.697,14.722,9.077H325.893z M497,487.618h-64.51l-30.516-34.484v-38.097
	c0,0,13.179,0,13.222,0c6.544,0,9.921-8.261,5.26-12.846l-30.801-30.309c-0.078-3.325-0.256-6.669-0.611-9.977
	c-0.001-0.013-0.002-0.025-0.003-0.038c-0.597-6.085-1.602-12.111-3.022-18.04c2.33,0.07,4.646,0.517,6.813,1.379
	c0.639,0.254,1.267,0.541,1.875,0.862c10.1,5.332,22.462,5.331,32.562,0c5.699-3.01,12.866-3.01,18.565,0
	c10.1,5.334,22.464,5.33,32.562,0c5.699-3.01,12.855-3.01,18.557,0l0.048,0.025v141.525H497z M387.405,278.371
	c7.25-3.778,15.405-5.776,23.583-5.776s16.332,1.998,23.581,5.776L497,310.932v19.112c-0.195-0.054-1.785-0.438-2.389-0.56
	c-7.861-1.577-16.117-0.43-23.219,3.319c-5.699,3.01-12.856,3.01-18.556,0c-10.098-5.333-22.473-5.33-32.571,0
	c-5.699,3.01-12.856,3.01-18.556,0c-4.219-2.226-8.933-3.544-13.687-3.895c-2.14-0.158-4.354-0.151-6.489,0.089
	c-0.09-0.243-0.193-0.482-0.284-0.725c-4.335-11.556-10.265-22.511-17.589-32.445c-0.902-1.224-1.823-2.435-2.765-3.629
	L387.405,278.371z M343.546,294.935c0.007,0.007,0.012,0.015,0.018,0.022c17.672,19.161,28.523,44.201,30.7,70.148
	c0.049,0.583,0.161,2.221,0.175,2.456h-236.89c0.003-0.04,0.003-0.08,0.006-0.12c0.68-10.626,2.807-21.145,6.284-31.206
	c2.381-6.891,5.447-13.691,9.101-20.069c2.059-3.595,0.814-8.177-2.78-10.236c-3.594-2.06-8.177-0.814-10.236,2.779
	c-4.911,8.573-8.862,17.746-11.752,27.194c-2.651,8.664-4.448,17.774-5.287,26.855c-0.274,2.969-0.418,6.1-0.541,9.138
	c-3.486,3.128-29.392,28.907-30.801,30.294c-4.689,4.614-1.313,12.846,5.26,12.846h13.222v38.096l-30.506,34.473L15,487.431V260.41
	c8.286-4.372,17.948-5.047,26.395-0.588c12.098,6.387,27.188,6.387,39.286,0c7.842-4.14,17.451-4.14,25.292,0
	c12.107,6.392,27.182,6.392,39.286,0c7.769-4.103,17.421-4.149,25.28,0c3.543,1.87,7.347,3.221,11.273,4.015
	c-8.527,5.699-16.409,12.399-23.418,19.887c-2.831,3.023-2.675,7.77,0.349,10.601c3.023,2.831,7.77,2.676,10.601-0.349
	c7.123-7.608,15.263-14.281,24.116-19.781h125.117C327.818,279.942,336.222,286.94,343.546,294.935z M313.181,251.4v7.793H198.819
	V251.4c0-2.874,2.339-5.213,5.213-5.213h103.936C310.843,246.188,313.181,248.526,313.181,251.4z M224.788,231.188l2.181-16.077
	L256,197.314l29.031,17.797l2.181,16.076h-62.424V231.188z M305.027,209.774c0,0-45.103-27.649-45.107-27.651
	c-2.36-1.447-5.48-1.448-7.84,0l-45.107,27.651l-7.38-12.04c0,0,47.124-28.885,47.137-28.893c5.636-3.455,12.907-3.455,18.542,0
	l47.136,28.893L305.027,209.774z M252.42,27.509c0.242-1.782,1.781-3.127,3.58-3.127c1.799,0,3.338,1.345,3.58,3.128l2.809,20.7
	h-12.776L252.42,27.509z M229.04,63.21h53.92v4.414h-53.92V63.21z M244.943,82.624h22.114l2.574,18.975h-27.263L244.943,82.624z
	 M219.333,116.599h73.334v4.414h-73.334V116.599z M234.626,158.666l3.074-22.653h36.6l3.074,22.653c0,0-4.263-2.613-4.264-2.613
	c-10.39-6.368-23.833-6.367-34.22,0L234.626,158.666z M15,215.987l79.917-41.679c9.438-4.919,20.053-7.52,30.699-7.52
	s21.261,2.601,30.697,7.518c0,0,30.18,15.741,30.181,15.741c-0.225,0.446-0.487,0.87-0.701,1.323
	c-2.048,4.338-1.783,9.643,0.727,13.738c0,0,7.946,12.962,7.949,12.967c3.307,5.395,9.982,8.053,16.092,6.404l-0.91,6.707
	c0,0-5.615,0-5.618,0c-10.001,0-18.858,7.834-20.065,17.76c-2.231-0.52-4.399-1.321-6.425-2.391c-12.09-6.384-27.196-6.383-39.286,0
	c-7.844,4.141-17.438,4.141-25.28,0c-12.091-6.384-27.207-6.383-39.298,0c-7.738,4.085-17.408,4.156-25.28,0
	c-6.138-3.239-13.058-4.92-19.998-4.86c-4.323,0.037-8.626,0.75-12.734,2.094c-0.221,0.072-0.445,0.138-0.665,0.214v-28.016H15z"/>
<g>
</g>
<g>
</g>
<g>
</g>
<g>
</g>
<g>
</g>
<g>
</g>
<g>
</g>
<g>
</g>
<g>
</g>
<g>
</g>
<g>
</g>
<g>
</g>
<g>
</g>
<g>
</g>
<g>
</g>
</svg>
