<?xml version="1.0" encoding="iso-8859-1"?>
<!-- Generator: Adobe Illustrator 19.0.0, SVG Export Plug-In . SVG Version: 6.00 Build 0)  -->
<svg version="1.1" id="Capa_1" xmlns="http://www.w3.org/2000/svg" xmlns:xlink="http://www.w3.org/1999/xlink" x="0px" y="0px"
	 viewBox="0 0 512 512" style="enable-background:new 0 0 512 512;" xml:space="preserve">
<path style="fill:#F7F7F7;" d="M28.456,272.781c0,0,55.591-246.788,227.544-246.788s227.544,246.788,227.544,246.788v47.891
	l-15.911,6.523l-24.662-6.523c0-82.478-114.017-243.929-186.971-243.929S69.029,238.194,69.029,320.672l-40.573,11.136
	l-7.022-23.727L28.456,272.781z"/>
<g>
	<path style="fill:#DEDEDE;" d="M51.434,307.106l7.31-36.751c0,0,41.707-185.125,163.81-241.091
		C76.755,58.391,28.456,272.781,28.456,272.781l-7.022,35.3l7.022,23.727l28.013-7.689L51.434,307.106z"/>
	<rect x="73.53" y="354.38" style="fill:#DEDEDE;" width="364.94" height="33.27"/>
</g>
<polygon style="fill:#F7F7F7;" points="438.47,354.385 73.53,354.385 46.439,334.213 73.53,320.672 438.47,320.672 474.564,343.965 
	"/>
<g>
	<path style="fill:#2FC8B4;" d="M79.354,403.149c18.231,0,33.01-14.779,33.01-33.01c0-18.231-14.779-33.01-33.01-33.01
		c-1.034,0-2.055,0.054-3.064,0.147c0.093-1.01,0.147-2.03,0.147-3.064c0-18.231-14.779-33.01-33.01-33.01
		c-1.034,0-2.055,0.054-3.064,0.147c0.093-1.01,0.147-2.031,0.147-3.064c0-18.231-14.779-33.01-33.01-33.01v137.874L79.354,403.149
		L79.354,403.149z"/>
	<path style="fill:#2FC8B4;" d="M432.646,403.149c-18.231,0-33.01-14.779-33.01-33.01c0-18.231,14.779-33.01,33.01-33.01
		c1.034,0,2.055,0.054,3.064,0.147c-0.093-1.01-0.147-2.03-0.147-3.064c0-18.231,14.779-33.01,33.01-33.01
		c1.034,0,2.055,0.054,3.064,0.147c-0.093-1.01-0.147-2.031-0.147-3.064c0-18.231,14.779-33.01,33.01-33.01v137.874L432.646,403.149
		L432.646,403.149z"/>
</g>
<polygon style="fill:#BDBDBD;" points="7.5,426.386 7.5,386.978 504.5,386.978 504.5,426.386 477.727,453.159 35.936,453.159 "/>
<path style="fill:#42C3E2;" d="M7.5,426.386c17.219-9.353,38.003-9.353,55.222,0l0,0c17.219,9.353,38.003,9.353,55.222,0l0,0
	c17.219-9.353,38.003-9.353,55.222,0l0,0c17.219,9.353,38.003,9.353,55.222,0l0,0c17.219-9.353,38.003-9.353,55.222,0l0,0
	c17.219,9.353,38.003,9.353,55.222,0l0,0c17.219-9.353,38.003-9.353,55.222,0l0,0c17.219,9.353,38.003,9.353,55.222,0l0,0
	c17.219-9.353,38.003-9.353,55.222,0l0,0v59.621H7.5V426.386z"/>
<path d="M216.429,63.846c4.143,0,7.5-3.357,7.5-7.5v-7.162c0-4.143-3.357-7.5-7.5-7.5s-7.5,3.357-7.5,7.5v7.162
	C208.929,60.488,212.286,63.846,216.429,63.846z"/>
<path d="M295.571,63.846c4.143,0,7.5-3.357,7.5-7.5v-7.162c0-4.143-3.357-7.5-7.5-7.5s-7.5,3.357-7.5,7.5v7.162
	C288.071,60.488,291.429,63.846,295.571,63.846z"/>
<path d="M256,67.668c5.97,0,11.588-2.509,15.413-6.884c2.727-3.118,2.408-7.856-0.71-10.583c-3.118-2.726-7.856-2.409-10.583,0.71
	c-0.976,1.116-2.478,1.757-4.12,1.757c-1.642,0-3.144-0.64-4.118-1.756c-2.727-3.12-7.465-3.439-10.583-0.714
	c-3.119,2.726-3.438,7.464-0.714,10.583C244.409,65.158,250.027,67.668,256,67.668z"/>
<path d="M7.5,493.507h497c4.143,0,7.5-3.357,7.5-7.5V265.275c0-4.143-3.357-7.5-7.5-7.5c-5.745,0-11.212,1.208-16.168,3.374
	c-5.448-20.115-20.038-67.495-47.572-115.494c-21.029-36.659-45.262-65.928-72.025-86.995C334.875,32.008,296.945,18.493,256,18.493
	c-40.867,0-78.731,13.463-112.542,40.016c-26.741,21-50.962,50.187-71.989,86.747c-27.587,47.969-42.304,95.695-47.792,115.897
	c-4.958-2.168-10.428-3.378-16.177-3.378c-4.143,0-7.5,3.357-7.5,7.5v220.731C0,490.149,3.357,493.507,7.5,493.507z M94.413,332.543
	c-2.761-1.115-5.675-1.977-8.616-2.397c-0.692-0.111-1.388-0.209-2.091-0.284c-0.061-0.566-0.133-1.129-0.217-1.69h267.208
	c4.143,0,7.5-3.357,7.5-7.5s-3.357-7.5-7.5-7.5H78.024c-0.328-0.537-0.669-1.065-1.02-1.585
	c3.708-38.394,29.84-94.263,67.239-143.414C183.635,116.402,226.457,84.242,256,84.242s72.365,32.16,111.757,83.931
	c37.399,49.151,63.532,105.02,67.239,143.414c-0.352,0.52-0.692,1.048-1.02,1.585h-53.314c-4.143,0-7.5,3.357-7.5,7.5
	s3.357,7.5,7.5,7.5h47.849c-0.084,0.561-0.156,1.124-0.217,1.69c-3.969,0.427-7.911,1.439-11.57,3.04
	c-6.87,2.937-12.876,7.739-17.254,13.983H185.277c-4.143,0-7.5,3.357-7.5,7.5s3.357,7.5,7.5,7.5h207.709
	c-0.01,0.047-0.016,0.095-0.026,0.143c-0.549,2.665-0.825,5.391-0.825,8.112c0,3.133,0.382,6.29,1.105,9.339H118.773
	c0.055-0.233,0.095-0.47,0.146-0.705c1.201-5.509,1.249-11.22,0.121-16.746c-0.01-0.048-0.016-0.096-0.026-0.143h36.329
	c4.143,0,7.5-3.357,7.5-7.5s-3.357-7.5-7.5-7.5H112.53c-4.369-6.231-10.358-11.025-17.21-13.964
	C95.019,332.792,94.717,332.666,94.413,332.543z M497,394.479v20.57c-0.014-0.005-0.029-0.009-0.044-0.013
	c-16.904-5.444-35.647-3.719-51.259,4.759c-14.742,8.006-33.188,8.081-48.063,0c-19.272-10.471-43.111-10.466-62.382,0
	c-14.848,8.064-33.217,8.065-48.063,0c-19.268-10.468-43.117-10.462-62.382,0c-14.851,8.065-33.212,8.069-48.062,0
	c-19.272-10.472-43.112-10.466-62.383,0c-14.85,8.069-33.214,8.065-48.062,0c-15.604-8.475-34.362-10.208-51.258-4.759
	c-0.014,0.005-0.029,0.009-0.044,0.013v-20.57H497z M15,478.507c0,0,0-47.415,0-47.417c0-0.82,7.191-2.525,8.297-2.792
	c12.049-2.91,24.947-1.242,35.846,4.68c9.544,5.184,20.329,7.924,31.191,7.924c10.839,0,21.666-2.751,31.191-7.924
	c14.85-8.065,33.213-8.068,48.063,0c19.153,10.406,43.095,10.48,62.382,0c14.849-8.068,33.214-8.067,48.063,0
	c19.266,10.467,43.116,10.466,62.382,0c14.849-8.067,33.215-8.067,48.063,0c19.27,10.469,43.111,10.466,62.382,0
	c13.539-7.354,30.028-8.03,44.143-1.888v47.417H15z M497,379.479h-88.078c-0.033-0.084-0.069-0.166-0.101-0.25
	c-2.727-7.126-2.033-15.499,1.889-22.088c4.107-6.902,11.501-11.616,19.497-12.385c1.603-0.154,3.207-0.157,4.811-0.009
	c4.6,0.425,8.585-3.557,8.162-8.154c-0.077-0.842-0.115-1.62-0.115-2.378c0-10.955,7.344-20.98,17.773-24.307
	c3.649-1.164,7.187-0.981,10.942-1.06c4.155-0.087,7.729-3.822,7.327-8.183c-0.387-4.224,0.254-8.541,1.952-12.434
	c0.01-0.023,0.02-0.045,0.03-0.068c2.948-6.79,8.764-12.057,15.912-14.26L497,379.479L497,379.479z M84.472,152.734
	c20.064-34.888,43.027-62.62,68.251-82.429C183.826,45.879,218.574,33.493,256,33.493c37.441,0,72.203,12.396,103.317,36.844
	c25.229,19.823,48.194,47.574,68.26,82.483c29.333,51.03,43.856,102.756,47.633,117.479c-4.409,4.606-7.626,10.143-9.458,16.164
	c-0.556,1.828-0.999,3.758-1.293,5.666c-0.091,0.599-0.172,1.2-0.237,1.805c-0.19,0.02-0.377,0.052-0.566,0.075
	c-2.164,0.263-4.315,0.695-6.407,1.307c-3.092,0.896-6.06,2.146-8.842,3.746c-7.167-40.357-32.564-92.466-68.712-139.973
	c-19.626-25.794-40.671-47.62-60.859-63.118C295.732,78.235,274.592,69.242,256,69.242s-39.732,8.993-62.835,26.729
	c-20.188,15.498-41.233,37.324-60.859,63.118c-36.147,47.507-61.545,99.615-68.712,139.973c-2.781-1.601-5.75-2.85-8.842-3.746
	c-0.048-0.014-0.096-0.029-0.145-0.043c-1.639-0.47-3.3-0.774-4.972-1.093c-0.101-0.016-1.851-0.195-1.857-0.247
	c-0.065-0.605-0.146-1.206-0.237-1.805c-0.205-1.34-0.483-2.671-0.821-3.984c-1.72-6.681-5.17-12.876-9.942-17.858
	C40.521,255.519,54.79,204.345,84.472,152.734z M15,273.9c7.148,2.203,12.964,7.47,15.912,14.26c0.01,0.023,0.02,0.045,0.03,0.068
	c1.679,3.898,2.339,8.211,1.952,12.434c-0.392,4.279,3.041,8.092,7.322,8.183c1.071,0.023,2.139-0.143,3.211-0.143
	c7.041,0,13.872,2.998,18.665,8.147c4.91,5.275,7.386,12.572,6.729,19.741c-0.392,4.272,3.043,8.11,7.333,8.185
	c1.066,0.019,2.132-0.146,3.2-0.146c7.092,0,14.092,3.11,18.884,8.377c6.164,6.699,8.161,16.52,5.322,25.14
	c-0.044,0.134-0.386,1.332-0.48,1.332H15V273.9z"/>
<g>
</g>
<g>
</g>
<g>
</g>
<g>
</g>
<g>
</g>
<g>
</g>
<g>
</g>
<g>
</g>
<g>
</g>
<g>
</g>
<g>
</g>
<g>
</g>
<g>
</g>
<g>
</g>
<g>
</g>
</svg>
