<?xml version="1.0" encoding="iso-8859-1"?>
<!-- Generator: Adobe Illustrator 19.0.0, SVG Export Plug-In . SVG Version: 6.00 Build 0)  -->
<svg version="1.1" id="Capa_1" xmlns="http://www.w3.org/2000/svg" xmlns:xlink="http://www.w3.org/1999/xlink" x="0px" y="0px"
	 viewBox="0 0 512 512" style="enable-background:new 0 0 512 512;" xml:space="preserve">
<circle style="fill:#FF6835;" cx="156.09" cy="103.94" r="83.73"/>
<path style="fill:#AE8372;" d="M100.94,219.458L7.5,271.563l64.857,167.034l216.178,32.847L444,404.809l60.5-104.848v-42.103
	l-40.03-25.33c-4.99-3.15-9.42-7.11-13.11-11.71l-86.86-50.235H184L100.94,219.458z"/>
<path style="fill:#946F61;" d="M184,170.583l-83.06,48.875L7.5,271.563l4.91,12.645l5.129,13.209l96.02-53.544l3.161-1.86
	c-0.11-0.04-0.218-0.088-0.328-0.127c2.764-2.056,5.346-4.341,7.721-6.842l53.42-56.024c3.039-3.186,6.399-6.003,9.999-8.437H184z"
	/>
<path style="fill:#DEDEDE;" d="M241.504,415.566c-2.428-37.661-33.726-67.461-72-67.461c-18.026,0-34.494,6.624-47.142,17.55
	c0-0.065,0.005-0.13,0.005-0.195c0-27.255-22.095-49.35-49.35-49.35c-9.094,0-17.607,2.47-24.923,6.761
	c0.372-2.313,0.573-4.682,0.573-7.1c0-23.419-18.162-42.583-41.167-44.208v220.235h147.82l95.632-31.243L241.504,415.566z"/>
<g>
	<path style="fill:#F7F7F7;" d="M504.5,491.798V299.961c-12.861-6.719-27.485-10.523-43-10.523
		c-43.979,0-80.824,30.529-90.509,71.55c-2.788-0.343-5.62-0.54-8.501-0.54c-30.68,0-56.67,20.031-65.641,47.722
		c-6.133-1.786-12.61-2.762-19.32-2.762c-25.909,0-48.471,14.289-60.268,35.408c-30.592,0.198-56.041,22.039-61.806,50.981H504.5
		V491.798z"/>
	<path style="fill:#F7F7F7;" d="M450.24,219.418l-1.55-0.65c-6.85-2.87-14.13-4.31-21.41-4.31s-14.56,1.44-21.41,4.31
		c-6.85,2.88-14.13,4.32-21.41,4.32s-14.56-1.44-21.41-4.32c-6.85-2.87-14.13-4.31-21.41-4.31s-14.56,1.44-21.41,4.31
		c-6.85,2.88-14.13,4.32-21.41,4.32s-14.56-1.44-21.41-4.32c-6.85-2.87-14.13-4.31-21.41-4.31s-14.56,1.44-21.41,4.31
		c-6.85,2.88-14.13,4.32-21.41,4.32s-14.56-1.44-21.41-4.32c-6.85-2.87-14.13-4.31-21.41-4.31s-14.56,1.44-21.41,4.31
		c-6.85,2.88-14.13,4.32-21.41,4.32s-14.56-1.44-21.41-4.32c-0.9-0.38-1.8-0.73-2.71-1.05c2.42-1.8,4.68-3.8,6.76-5.99l46.77-49.05
		c8.92-9.35,20.93-15.16,33.8-16.35l34.05-3.13c6.13-0.56,12.12-2.18,17.71-4.79l32.83-15.32c7.08-3.3,14.8-5.01,22.61-5.01h21.21
		c14.13,0,27.68,5.59,37.7,15.54l7.29,7.24c6.11,6.08,13.61,10.59,21.84,13.14c5.09,1.58,9.89,3.9,14.24,6.87
		c4.36,2.97,8.27,6.57,11.61,10.73L450.24,219.418z"/>
</g>
<path style="fill:#DEDEDE;" d="M106.13,218.768c6.85,2.88,14.13,4.32,21.41,4.32c2.886,0,5.77-0.236,8.629-0.688l41.364-43.38
	c10.189-10.679,23.906-17.315,38.606-18.675l38.892-3.575c7.001-0.64,13.843-2.49,20.228-5.471l37.498-17.499
	c8.086-3.769,16.904-5.722,25.825-5.722h11.701l0,0c-1.63-1.167-3.323-2.234-5.065-3.207c-0.094-0.053-0.187-0.106-0.281-0.158
	c-0.509-0.28-1.024-0.55-1.541-0.813c-0.156-0.079-0.312-0.157-0.468-0.234c-0.508-0.252-1.019-0.5-1.535-0.736
	c-0.12-0.054-0.241-0.105-0.361-0.159c-1.064-0.478-2.143-0.92-3.236-1.328c-0.105-0.039-0.209-0.082-0.315-0.121
	c-0.438-0.16-0.88-0.307-1.322-0.455c-0.308-0.103-0.615-0.207-0.925-0.305c-0.405-0.128-0.813-0.25-1.221-0.368
	c-0.366-0.106-0.734-0.207-1.103-0.305c-0.374-0.1-0.747-0.2-1.124-0.292c-0.5-0.122-1.004-0.231-1.508-0.339
	c-0.338-0.072-0.676-0.145-1.016-0.21c-0.659-0.127-1.321-0.243-1.986-0.345c-0.283-0.043-0.568-0.079-0.853-0.118
	c-0.52-0.071-1.04-0.138-1.563-0.193c-0.292-0.031-0.585-0.06-0.878-0.087c-0.548-0.049-1.099-0.089-1.65-0.122
	c-0.254-0.015-0.507-0.033-0.761-0.045c-0.802-0.036-1.605-0.06-2.411-0.06h-21.21c-7.81,0-15.53,1.71-22.61,5.01l-16.415,7.66
	l-16.415,7.66c-1.398,0.652-2.82,1.243-4.263,1.771c-0.722,0.264-1.449,0.512-2.18,0.744c-3.658,1.161-7.435,1.925-11.266,2.275
	l-17.025,1.565l-17.025,1.565c-10.457,0.967-20.346,4.984-28.471,11.471c-0.625,0.499-1.24,1.013-1.843,1.541
	c-1.207,1.056-2.37,2.169-3.486,3.338l-23.385,24.525l-23.385,24.525c-1.56,1.643-3.221,3.178-4.975,4.603
	c-0.585,0.475-1.18,0.938-1.785,1.388C104.33,218.038,105.23,218.388,106.13,218.768z"/>
<path d="M163.815,283.622c4.143,0,7.5-3.357,7.5-7.5v-16.685c0-4.143-3.357-7.5-7.5-7.5s-7.5,3.357-7.5,7.5v16.685
	C156.315,280.265,159.673,283.622,163.815,283.622z"/>
<path d="M348.185,283.622c4.143,0,7.5-3.357,7.5-7.5v-16.685c0-4.143-3.357-7.5-7.5-7.5s-7.5,3.357-7.5,7.5v16.685
	C340.685,280.265,344.042,283.622,348.185,283.622z"/>
<path d="M256,292.527c11.03,0,21.382-4.604,28.398-12.63c2.727-3.119,2.408-7.856-0.71-10.583c-3.12-2.726-7.858-2.41-10.583,0.71
	c-4.168,4.769-10.403,7.503-17.105,7.503c-6.703,0-12.938-2.734-17.106-7.503c-2.726-3.119-7.463-3.436-10.583-0.71
	c-3.118,2.727-3.437,7.464-0.71,10.583C234.617,287.924,244.969,292.527,256,292.527z"/>
<path d="M508.511,251.52c0,0-40.036-25.333-40.037-25.334c-5.005-3.167-8.98-7.257-12.681-11.832l-38.104-47.451
	c-3.781-4.709-8.233-8.825-13.229-12.229c-4.982-3.401-10.448-6.038-16.248-7.839c-7.052-2.186-13.543-6.09-18.775-11.299
	l-7.292-7.24c-11.505-11.425-26.771-17.717-42.983-17.717h-21.21c-8.847,0-17.761,1.976-25.782,5.713l-28.507,13.302
	c2.431-8.268,3.667-16.846,3.667-25.656c0-50.308-40.928-91.235-91.235-91.235c-26.674,0-51.939,11.646-69.319,31.95
	c-2.694,3.146-2.326,7.881,0.82,10.574c3.148,2.696,7.881,2.328,10.574-0.82c14.527-16.971,35.64-26.704,57.925-26.704
	c42.036,0,76.235,34.199,76.235,76.235c0,11.06-2.312,21.686-6.876,31.64c-0.446,0.054-0.891,0.11-1.338,0.151l-34.054,3.132
	c-14.676,1.356-28.361,7.976-38.537,18.642l-18.288,19.18c-31.639-9.896-53.377-39.215-53.377-72.744
	c0-8.558,1.427-16.993,4.241-25.073c1.362-3.912-0.705-8.188-4.616-9.55c-3.911-1.361-8.188,0.705-9.55,4.616
	c-3.367,9.67-5.075,19.766-5.075,30.007c0,37.662,22.933,70.877,57.064,84.609c0,0-20.901,21.609-22.977,23.154
	c-0.6,0.446-1.088,0.869-1.734,1.25c0,0-93.293,52.023-93.362,52.061C1.506,266.316,0,268.881,0,271.563v220.235
	c0,4.143,3.357,7.5,7.5,7.5h497c4.143,0,7.5-3.357,7.5-7.5v-233.94C512,255.286,510.683,252.895,508.511,251.52z M189.371,154.036
	c18.839-2.629,38.621-0.409,56.311-8.832l32.826-15.318c6.047-2.818,12.77-4.308,19.442-4.308h21.21
	c12.226,0,23.738,4.745,32.414,13.361l7.285,7.234c6.939,6.905,15.553,12.088,24.907,14.987c8.708,2.699,16.519,8.023,22.226,15.133
	l24.697,30.755c-0.108-0.006-0.216-0.003-0.324-0.009c-9.362-0.459-18.755,1.191-27.402,4.813
	c-11.766,4.93-25.256,4.939-37.016-0.003c-15.441-6.489-33.186-6.465-48.624,0.003c-11.771,4.932-25.247,4.944-37.016-0.003
	c-15.444-6.492-33.183-6.466-48.626,0.003c-11.772,4.931-25.247,4.942-37.015-0.003c-15.446-6.491-33.179-6.468-48.624,0.003
	c-8.853,3.709-18.826,4.72-28.226,2.731c0,0,23.147-24.276,23.156-24.284c0,0,21.399-22.442,21.402-22.446
	C169.5,160.384,179.159,155.461,189.371,154.036z M104.351,226.143c0.313,0.125,0.63,0.231,0.944,0.351
	c14.952,5.685,31.811,5.39,46.554-0.809c11.756-4.943,25.257-4.93,37.015-0.003c15.46,6.479,33.169,6.503,48.625,0.003
	c11.754-4.943,25.26-4.93,37.015-0.003c15.462,6.48,33.168,6.503,48.626,0.003c11.75-4.941,25.266-4.926,37.015-0.003
	c15.457,6.477,33.172,6.501,48.625,0.003c5.901-2.473,12.13-3.727,18.512-3.727c3.823,0,7.667,0.291,11.388,1.205
	c2.528,0.621,6.008,1.385,7.761,3.468c4.028,4.785,8.744,8.897,14.029,12.234L497,261.987c0,0,0,26.419-0.006,26.417
	c-1.259-0.474-4.427-1.54-4.737-1.639c-9.92-3.177-20.338-4.828-30.756-4.828c-22.769,0-45.074,7.827-62.806,22.04
	c-15.761,12.633-27.425,29.862-33.307,49.029c-0.978-0.04-1.944-0.06-2.897-0.06c-30.932,0-58.38,18.37-70.329,46.376
	c-4.82-0.94-9.719-1.415-14.632-1.415c-9.723,0-19.41,1.914-28.44,5.504c-0.471,0.187-1.055,0.545-1.556,0.586
	c-0.181-0.218-0.175-0.567-0.235-0.834c-3.451-15.405-11.469-29.675-22.918-40.552c-14.694-13.985-34.584-22.008-54.876-22.008
	c-14.607,0-28.855,4.025-41.22,11.508c-6.021-24.928-28.517-43.503-55.268-43.503c-5.806,0-11.557,0.891-17.049,2.618
	c-1.212-13.75-8.124-26.697-18.77-35.46c-3.105-2.557-6.501-4.764-10.111-6.54L104.351,226.143z M15,280.535
	c0.006,0.111,2.312,0.782,2.475,0.844c10.736,4.131,19.174,13.361,22.313,24.436c1.443,5.091,1.75,10.591,0.901,15.862
	c-0.989,6.149,5.818,10.817,11.199,7.664c6.394-3.75,13.699-5.731,21.129-5.731c23.046,0,41.802,18.725,41.85,41.76
	c-0.003,0.096-0.005,0.215-0.005,0.283c-0.002,6.303,7.616,9.814,12.402,5.677c11.74-10.141,26.741-15.726,42.24-15.726
	c13.409,0,26.644,4.279,37.543,12.078c14.43,10.325,24.244,26.506,26.544,44.117c0.023,0.282-2.226,1.642-2.47,1.827
	c-7.162,5.465-13.386,12.24-18.213,19.849c-0.042,0.003-0.083,0.008-0.125,0.011c-29.045,2.032-55.01,22.873-63.2,50.811H15
	C15,484.298,15,280.549,15,280.535z M165.408,484.298c0.034-0.088,0.063-0.178,0.097-0.265c2.369-6.075,5.804-11.753,10.134-16.63
	c10.512-11.841,25.812-18.967,41.671-19.086c2.7-0.018,5.183-1.485,6.499-3.843c5.03-9.006,12.366-16.688,21.097-22.173
	c14.74-9.26,33.143-11.797,49.846-6.93c3.898,1.132,7.984-1.032,9.232-4.89c8.242-25.441,31.754-42.534,58.506-42.534
	c5.596,0,13.965,2.536,15.8-5.236c4.342-18.391,15.046-35.215,29.785-47.029c13.387-10.73,29.205-17.033,46.115-18.442
	c14.606-1.216,29.475,1.295,42.81,7.403v179.655H165.408z"/>
<g>
</g>
<g>
</g>
<g>
</g>
<g>
</g>
<g>
</g>
<g>
</g>
<g>
</g>
<g>
</g>
<g>
</g>
<g>
</g>
<g>
</g>
<g>
</g>
<g>
</g>
<g>
</g>
<g>
</g>
</svg>
