<?xml version="1.0" encoding="iso-8859-1"?>
<!-- Generator: Adobe Illustrator 19.0.0, SVG Export Plug-In . SVG Version: 6.00 Build 0)  -->
<svg version="1.1" id="Capa_1" xmlns="http://www.w3.org/2000/svg" xmlns:xlink="http://www.w3.org/1999/xlink" x="0px" y="0px"
	 viewBox="0 0 512 512" style="enable-background:new 0 0 512 512;" xml:space="preserve">
<polygon style="fill:#DEDEDE;" points="105.049,203.893 105.049,367.297 159.356,415.27 255.999,489.628 352.643,415.27 
	406.95,376.892 406.95,203.893 "/>
<g>
	<polygon style="fill:#678DBF;" points="165.285,105.918 238.865,35.964 273.134,35.964 346.714,105.918 346.714,124.234 
		165.285,124.234 	"/>
	<polygon style="fill:#678DBF;" points="147.582,135.743 112.655,181.884 112.655,196.514 138.626,204.189 390.126,204.189 
		404.077,191.968 399.344,181.884 364.417,135.743 346.714,124.234 165.285,124.234 	"/>
</g>
<path style="fill:#597AA6;" d="M364.417,135.743l-17.704-11.509H165.285l-17.704,11.509l-15.787,20.855
	c17.922,7.039,37.076,10.705,56.47,10.705h135.467c19.395,0,38.549-3.666,56.47-10.705L364.417,135.743z"/>
<path style="fill:#F7F7F7;" d="M323.734,142.304H188.266c-23.371,0-46.329-6.336-66.392-18.322l17.222-28.829
	c14.859,8.877,31.862,13.569,49.17,13.569h135.467c17.308,0,34.311-4.692,49.17-13.569l17.223,28.829
	C370.063,135.968,347.105,142.304,323.734,142.304z"/>
<path style="fill:#BDBDBD;" d="M105.049,246.761c8.005,2.22,16.537,3.579,25.649,3.579h250.603c9.111,0,17.642-1.359,25.649-3.58
	v-42.867h-301.9L105.049,246.761L105.049,246.761z"/>
<path style="fill:#F7F7F7;" d="M381.301,220.34H130.699c-21.756,0-40.848-11.975-57.692-22.541c-3.045-1.91-5.921-3.714-8.701-5.374
	l17.222-28.829c3.093,1.848,6.26,3.834,9.322,5.756c13.644,8.557,27.752,17.407,39.848,17.407h250.603
	c12.096,0,26.204-8.85,39.848-17.407c3.063-1.922,6.229-3.908,9.322-5.756l17.222,28.829c-2.78,1.66-5.656,3.465-8.701,5.374
	C422.148,208.364,403.058,220.34,381.301,220.34z"/>
<circle style="fill:#FFAC55;" cx="255.999" cy="31.486" r="23.986"/>
<path style="fill:#DB8D49;" d="M266,45.473c-13.247,0-23.986-10.739-23.986-23.987c0-4.049,1.007-7.862,2.779-11.207
	c-7.599,4.025-12.779,12.009-12.779,21.207c0,13.248,10.739,23.987,23.986,23.987c9.198,0,17.183-5.18,21.207-12.779
	C273.862,44.465,270.049,45.473,266,45.473z"/>
<path style="fill:#FFAC55;" d="M271.417,173.534h-30.834c-4.733,0-8.57,3.837-8.57,8.57v43.579c0,4.733,3.837,8.57,8.57,8.57h30.834
	c4.733,0,8.57-3.837,8.57-8.57v-43.579C279.987,177.371,276.15,173.534,271.417,173.534z"/>
<g>
	<path style="fill:#F7F7F7;" d="M81.412,264.28c-8.611,0-16.251,5.522-18.953,13.698L17.094,415.271l59.486,14.872l82.776-14.872
		V264.28H81.412z"/>
	<path style="fill:#F7F7F7;" d="M449.54,277.979c-2.702-8.176-10.342-13.698-18.953-13.698h-77.944v150.99l82.776,14.872
		l59.486-14.872L449.54,277.979z"/>
</g>
<g>
	<polygon style="fill:#ADADAD;" points="126.021,415.27 17.094,415.27 17.094,504.5 91.701,504.5 168.208,469.48 	"/>
	<polygon style="fill:#ADADAD;" points="385.978,415.27 343.79,469.48 420.298,504.5 494.905,504.5 494.905,415.27 	"/>
</g>
<path style="fill:#3B484A;" d="M255.999,293.206L255.999,293.206c-23.315,0-42.216,18.901-42.216,42.216v79.848h84.432v-79.848
	C298.216,312.107,279.315,293.206,255.999,293.206z"/>
<polygon style="fill:#F7F7F7;" points="385.978,445.014 255.999,430.142 126.021,445.014 110.603,445.014 110.603,474.757 
	255.999,489.628 401.396,474.757 401.396,445.014 "/>
<g>
	<rect x="126.019" y="415.27" style="fill:#BDBDBD;" width="259.96" height="29.743"/>
	<rect x="91.699" y="474.76" style="fill:#BDBDBD;" width="328.6" height="29.743"/>
</g>
<polygon style="fill:#DEDEDE;" points="346.714,504.5 298.216,415.27 213.783,415.27 165.285,504.5 "/>
<path d="M222.643,94.723c4.142,0,7.5-3.357,7.5-7.5v-6.037c0-4.143-3.358-7.5-7.5-7.5s-7.5,3.357-7.5,7.5v6.037
	C215.143,91.365,218.499,94.723,222.643,94.723z"/>
<path d="M289.357,94.723c4.142,0,7.5-3.357,7.5-7.5v-6.037c0-4.143-3.358-7.5-7.5-7.5s-7.5,3.357-7.5,7.5v6.037
	C281.857,91.365,285.215,94.723,289.357,94.723z"/>
<path d="M255.999,97.945c5.372,0,10.431-2.262,13.879-6.206c2.726-3.118,2.408-7.856-0.71-10.583s-7.856-2.409-10.583,0.71
	c-0.59,0.676-1.558,1.079-2.586,1.079c-1.029,0-1.997-0.403-2.588-1.08c-2.727-3.117-7.465-3.436-10.583-0.708
	c-3.118,2.727-3.436,7.465-0.708,10.583C245.57,95.684,250.628,97.945,255.999,97.945z"/>
<path d="M31.541,371.545c-3.936-1.305-8.176,0.835-9.474,4.769L9.973,412.918c-0.003,0.01-0.005,0.02-0.008,0.03
	c-0.244,0.749-0.371,1.535-0.371,2.323V504.5c0,4.143,3.358,7.5,7.5,7.5h477.811c4.142,0,7.5-3.357,7.5-7.5v-89.229
	c0-0.781-0.122-1.579-0.37-2.32c-0.004-0.011-0.005-0.022-0.009-0.033l-45.365-137.292c-3.725-11.271-14.203-18.845-26.074-18.845
	H414.45v-36.612c10.224-4.535,19.671-10.46,28.527-16.016c0,0,5.891-3.693,8.561-5.288c3.502-2.091,4.685-6.785,2.593-10.286
	c0,0-17.211-28.81-17.223-28.829c-2.095-3.507-6.775-4.686-10.285-2.592c-3.2,1.912-6.527,4-9.466,5.844
	c-5.218,3.273-10.505,6.582-15.616,9.36l-25.087-33.142c6.036-2.512,11.899-5.442,17.517-8.798c1.708-1.02,2.94-2.677,3.426-4.605
	c0.486-1.929,0.186-3.972-0.834-5.68l-17.222-28.828c-2.124-3.555-6.727-4.716-10.285-2.592c-6.374,3.807-13.178,6.767-20.237,8.857
	l-62.132-59.071c0.516-2.258,0.798-4.604,0.798-7.016C287.486,14.125,273.362,0,255.999,0s-31.486,14.125-31.486,31.486
	c0,2.412,0.282,4.758,0.798,7.016L163.18,97.573c-7.058-2.09-13.863-5.05-20.237-8.857c-3.556-2.122-8.161-0.964-10.285,2.592
	l-17.222,28.828c-2.125,3.556-0.964,8.161,2.592,10.285c5.635,3.367,11.492,6.299,17.51,8.809l-25.079,33.131
	c-5.112-2.778-21.882-13.291-25.082-15.204c-3.509-2.097-8.194-0.909-10.285,2.592c0,0-17.212,28.812-17.223,28.829
	c-2.099,3.514-0.915,8.192,2.593,10.286c2.671,1.595,26.865,16.769,37.089,21.304v36.612H81.412
	c-11.871,0-22.35,7.573-26.074,18.845l-23.357,70.688c-1.3,3.934,0.835,8.175,4.768,9.475c3.931,1.303,8.174-0.835,9.474-4.768
	l23.357-70.688c1.69-5.115,6.445-8.552,11.832-8.552h70.444v135.99H27.471l8.839-26.752
	C37.609,377.086,35.475,372.844,31.541,371.545z M133.521,422.771h67.649l-8.013,14.743h-59.636V422.771z M378.478,422.771v14.743
	h-59.636l-8.013-14.743H378.478z M412.798,497h-61.624l-8.013-14.743h69.637V497z M393.896,467.257h-58.889l-8.013-14.743h66.902
	V467.257z M290.716,407.771h-69.433v-72.348c0-19.143,15.574-34.717,34.716-34.717s34.716,15.574,34.716,34.717v72.348H290.716z
	 M185.005,452.514l-8.013,14.743h-58.889v-14.743H185.005z M168.839,482.257L160.826,497H99.201v-14.743H168.839z M177.898,497
	l40.345-74.229h75.513L334.101,497H177.898z M487.405,497h-59.607v-22.243c0-4.143-3.358-7.5-7.5-7.5h-11.401v-22.243
	c0-4.143-3.358-7.5-7.5-7.5h-7.918v-14.743h93.927V497H487.405z M442.419,280.332l42.109,127.438H360.143V271.78h70.444
	C435.974,271.78,440.729,275.217,442.419,280.332z M425.135,175.704c0.898-0.563,1.833-1.15,2.789-1.747l9.531,15.954
	c-0.763,0.478-1.536,0.962-2.319,1.453l-0.131,0.082c-12.424,7.794-26.138,16.393-40.832,19.839
	c-4.216,0.986-8.538,1.555-12.872,1.555h-93.815v-18.581c0,0,93.812,0,93.815,0c5.232,0,10.431-1.274,15.307-3.104
	c0.036-0.013,0.071-0.026,0.107-0.039C406.164,187.588,415.751,181.59,425.135,175.704z M272.486,225.683
	c0,0.59-0.479,1.069-1.069,1.069h-30.834c-0.59,0-1.069-0.479-1.069-1.069v-43.579c0-0.59,0.479-1.069,1.069-1.069h30.834
	c0.59,0,1.069,0.479,1.069,1.069V225.683z M255.999,15c9.091,0,16.486,7.396,16.486,16.486c0,8.951-7.53,16.486-16.486,16.486
	c-8.931,0-16.486-7.568-16.486-16.486C239.514,22.396,246.908,15,255.999,15z M232.452,52.409c-0.646,0.614,8.45,6.733,9.316,7.171
	c7.732,3.904,16.911,4.445,25.048,1.478c4.892-1.784,9.27-4.748,12.73-8.649l51.051,48.536c-0.102,0.008-0.203,0.018-0.305,0.026
	c-2.182,0.164-4.371,0.252-6.559,0.252H188.266c-2.186,0-4.378-0.089-6.559-0.252c-0.102-0.008-0.204-0.018-0.305-0.026
	C181.401,100.945,232.449,52.412,232.452,52.409z M124.695,178.404c0,0,25.705-33.958,25.708-33.957
	c1.499,0.431,3.004,0.837,4.517,1.217c0.06,0.015,0.12,0.031,0.18,0.046c10.836,2.725,21.992,4.093,33.165,4.093h112.718
	c4.142,0,7.5-3.357,7.5-7.5s-3.358-7.5-7.5-7.5H188.266c-12.992,0-25.975-2.113-38.308-6.193c-0.048-0.016-0.098-0.024-0.146-0.039
	c-6.013-1.998-11.879-4.456-17.535-7.379l9.551-15.987c6.908,3.472,14.171,6.142,21.66,7.994c0.017,0.004,0.035,0.008,0.052,0.012
	c8.064,2.037,16.412,3.011,24.726,3.011h135.468c8.321,0,16.647-1.021,24.726-3.011c0.017-0.004,0.035-0.008,0.069-0.018
	c7.472-1.847,14.735-4.517,21.643-7.989l9.549,15.984c-5.75,2.966-11.736,5.467-17.883,7.484
	c-9.415,3.099-19.216,5.028-29.098,5.772c-1.001,0.075-2.003,0.139-3.005,0.19c-4.137,0.206-7.324,3.727-7.119,7.863
	c0.204,4.088,3.784,7.309,7.861,7.121c10.513-0.486,21.008-2.266,31.12-5.176l25.706,33.96c-1.956,0.509-3.978,0.854-6.002,0.854
	c0,0-94.006,0-94.067,0c-0.14-0.037-0.38-1.59-0.428-1.751c-1.142-3.78-3.691-7.097-7.073-9.141
	c-2.484-1.502-5.413-2.333-8.316-2.333c0,0-30.833,0-30.834,0c-4.894,0-9.621,2.379-12.666,6.213
	c-1.603,2.018-2.697,4.475-3.151,7.012c0,0-94.066,0-94.067,0C128.676,179.259,126.648,178.913,124.695,178.404z M76.862,191.364
	c-0.784-0.491-1.556-0.976-2.319-1.453l9.531-15.954c0.958,0.598,1.896,1.187,2.796,1.752c9.381,5.884,18.967,11.881,28.417,15.408
	c0.033,0.012,0.065,0.023,0.097,0.035c4.801,1.769,10.077,3.107,15.313,3.107h93.815v18.581c0,0-93.807,0-93.815,0
	c-4.327,0-8.663-0.568-12.872-1.555C102.87,207.777,89.72,199.423,76.862,191.364z M166.856,264.28c0-4.143-3.358-7.5-7.5-7.5
	h-46.807v-31.317c5.801,1.494,11.839,2.376,18.149,2.376h93.959c0.029,0.212,0.077,0.417,0.114,0.626
	c0.674,3.841,2.826,7.426,5.909,9.846c2.77,2.174,6.377,3.439,9.902,3.439h30.834c4.1,0,8.103-1.633,11.063-4.458
	c2.598-2.48,4.381-5.884,4.862-9.454H381.3c6.309,0,12.348-0.883,18.149-2.376v31.317h-46.807c-4.142,0-7.5,3.357-7.5,7.5v143.49
	h-39.427v-72.348c0-27.414-22.303-49.717-49.716-49.717s-49.716,22.303-49.716,49.717v72.348h-39.427L166.856,264.28L166.856,264.28
	z M118.521,422.771v14.743h-7.918c-4.142,0-7.5,3.357-7.5,7.5v22.243H91.701c-4.142,0-7.5,3.357-7.5,7.5V497H24.594v-74.229H118.521
	z"/>
<g>
</g>
<g>
</g>
<g>
</g>
<g>
</g>
<g>
</g>
<g>
</g>
<g>
</g>
<g>
</g>
<g>
</g>
<g>
</g>
<g>
</g>
<g>
</g>
<g>
</g>
<g>
</g>
<g>
</g>
</svg>
