<?xml version="1.0" encoding="iso-8859-1"?>
<!-- Generator: Adobe Illustrator 19.0.0, SVG Export Plug-In . SVG Version: 6.00 Build 0)  -->
<svg version="1.1" id="Capa_1" xmlns="http://www.w3.org/2000/svg" xmlns:xlink="http://www.w3.org/1999/xlink" x="0px" y="0px"
	 viewBox="0 0 512 512" style="enable-background:new 0 0 512 512;" xml:space="preserve">
<path style="fill:#FFAC55;" d="M146.87,54.76c-12.207,0-20.767,12.043-16.754,23.571l1.647,4.733l15.107,13.098l15.107-13.098
	l1.647-4.733C167.636,66.802,159.077,54.76,146.87,54.76z"/>
<path style="fill:#FFCE6E;" d="M104.179,179.734c-28.678,0-41.737-37.653-28.587-60.001c11.713-19.907,39.182-22.847,56.171-36.67
	h30.214c16.989,13.823,44.458,16.762,56.171,36.67c13.15,22.348,0.091,60.001-28.587,60.001l-40.977,19.703L104.179,179.734z"/>
<path style="fill:#FFAC55;" d="M124.179,179.734c-28.678,0-41.737-37.652-28.587-60.001c11.713-19.907,39.182-22.847,56.171-36.669
	h-20c-16.989,13.823-44.457,16.762-56.171,36.669c-13.15,22.349-0.091,60.001,28.587,60.001l44.405,19.703l9.599-4.615
	L124.179,179.734z"/>
<path style="fill:#2FC8B4;" d="M189.56,179.734h-85.382c-9.341,0-16.913,7.572-16.913,16.913l0,0
	c0,9.341,7.572,16.913,16.913,16.913l42.691,19.535l42.691-19.535c9.341,0,16.913-7.572,16.913-16.913l0,0
	C206.473,187.306,198.901,179.734,189.56,179.734z"/>
<path style="fill:#00AE95;" d="M124.179,213.56c-9.341,0-16.913-7.572-16.913-16.913l0,0c0-9.341,7.572-16.913,16.913-16.913h-20
	c-9.341,0-16.913,7.572-16.913,16.913l0,0c0,9.341,7.572,16.913,16.913,16.913l42.691,19.535l10-4.576L124.179,213.56z"/>
<polygon style="fill:#FF462E;" points="183.653,240.155 161.98,213.56 161.977,213.56 131.762,213.56 110.09,240.155 
	72.658,332.274 72.658,467.81 110.09,504.5 183.649,504.5 183.653,504.5 221.085,467.81 221.085,332.274 "/>
<polygon style="fill:#FF6835;" points="131.762,213.56 110.09,315.462 110.09,504.5 35.879,504.5 35.879,349.085 104.179,213.56 "/>
<polygon style="fill:#E65E30;" points="124.179,213.56 104.179,213.56 35.879,349.085 35.879,504.5 55.879,504.5 55.879,349.085 "/>
<polygon style="fill:#FF6835;" points="257.859,349.085 257.859,504.5 183.649,504.5 183.649,315.462 161.977,213.56 189.56,213.56 
	"/>
<path style="fill:#F7F7F7;" d="M238.16,281.845H55.582c-9.284,0-16.81,7.526-16.81,16.81l0,0c0,9.283,7.526,16.809,16.81,16.809
	l91.289,16.81l91.289-16.81c9.284,0,16.81-7.526,16.81-16.809l0,0C254.97,289.371,247.444,281.845,238.16,281.845z"/>
<path style="fill:#DEDEDE;" d="M75.582,315.464c-9.284,0-16.81-7.526-16.81-16.809l0,0c0-9.283,7.526-16.81,16.81-16.81h-20
	c-9.284,0-16.809,7.526-16.809,16.81l0,0c0,9.283,7.526,16.809,16.809,16.809l91.289,16.81l10-1.841L75.582,315.464z"/>
<path style="fill:#2FC8B4;" d="M257.863,315.464H35.879c-9.284,0-16.81,7.526-16.81,16.81l0,0c0,9.284,7.526,16.809,16.81,16.809
	h221.983c9.284,0,16.81-7.526,16.81-16.809l0,0C274.672,322.99,267.146,315.464,257.863,315.464z"/>
<path style="fill:#00AE95;" d="M39.07,332.274L39.07,332.274c0-9.284,7.526-16.81,16.809-16.81h-20
	c-9.284,0-16.809,7.526-16.809,16.81l0,0c0,9.283,7.526,16.809,16.809,16.809h20C46.596,349.083,39.07,341.558,39.07,332.274z"/>
<path style="fill:#FF462E;" d="M356.979,229.032L356.979,229.032c-15.077,0-25.841,14.607-21.375,29.008l0.856,2.761l20.519,13.22
	l20.519-13.22l0.856-2.761C382.82,243.639,372.057,229.032,356.979,229.032z"/>
<g>
	<path style="fill:#FF6835;" d="M428.398,322.062l-0.353-0.269c-21.672-16.615-43.702-33.269-50.547-60.993H336.46
		c-6.882,27.873-29.115,44.557-50.9,61.262l-9.144,26.007l80.563,3.382l71.419-5.352V322.062z"/>
	<path style="fill:#FF6835;" d="M227.713,434.867c-2.538-17.704-0.114-35.72,6.481-52.384l44.685-34.31l78.1,3.279l71.419-5.352
		l51.367,36.384c6.595,16.665,9.019,34.681,6.481,52.384l-20.192,17.626h-203.43L227.713,434.867z"/>
</g>
<g>
	<path style="fill:#E65E30;" d="M276.903,346.685c1.128-1.21,2.276-2.405,3.46-3.572c7.626-7.517,16.375-14.286,25.198-21.051l0,0
		c21.785-16.705,44.018-33.389,50.9-61.262h-20c-3.226,13.066-9.825,23.673-18.17,32.976c-0.556,0.62-1.12,1.235-1.692,1.844
		c-3.428,3.654-7.118,7.111-10.966,10.446c-2.565,2.223-5.201,4.392-7.875,6.529c-1.337,1.068-2.684,2.128-4.038,3.183
		c-0.677,0.527-1.355,1.053-2.034,1.578c-2.037,1.575-4.083,3.141-6.126,4.707L276.903,346.685z"/>
	<path style="fill:#E65E30;" d="M269.664,355.248l-35.47,27.235l0,0c-4.947,12.499-7.547,25.757-7.467,39.074
		c0.027,4.439,0.351,8.884,0.986,13.31l22.323,11.27c-0.921-3.432-1.667-6.886-2.198-10.357l-0.125-0.913
		c-2.538-17.704-0.114-35.72,6.481-52.384C258.009,372.843,263.223,363.66,269.664,355.248z"/>
</g>
<g>
	<path style="fill:#F7F7F7;" d="M453.596,343.113c-7.626-7.517-16.375-14.286-25.198-21.051c-2.834,0.804-5.612,1.867-8.29,3.217
		l0,0c-13.235,6.673-28.851,6.673-42.086,0l0,0c-13.235-6.673-28.851-6.673-42.086,0s-28.851,6.673-42.086,0l0,0
		c-2.678-1.35-5.457-2.413-8.29-3.217c-8.823,6.765-17.572,13.534-25.198,21.051c-11.524,11.36-20.423,24.852-26.169,39.37
		c6.041-0.45,12.016-2.059,17.571-4.86c13.235-6.673,28.851-6.673,42.086,0l0,0c13.235,6.673,28.851,6.673,42.086,0
		s28.851-6.673,42.086,0l0,0c13.235,6.673,28.851,6.673,42.086,0l0,0c13.235-6.673,28.851-6.673,42.086,0l0,0
		c5.555,2.801,11.53,4.41,17.571,4.86C474.019,367.965,465.121,354.473,453.596,343.113z"/>
	<path style="fill:#F7F7F7;" d="M462.194,429.967L462.194,429.967c-13.235-6.673-28.851-6.673-42.086,0l0,0
		c-13.235,6.673-28.851,6.673-42.086,0l0,0c-13.235-6.673-28.851-6.673-42.086,0s-28.851,6.673-42.086,0l0,0
		c-13.235-6.673-28.851-6.673-42.086,0c-7.538,3.801-15.849,5.429-24.052,4.9l0.125,0.913c1.703,11.142,5.385,22.149,11.25,32.602
		l117.892,18.059l117.892-18.059c5.902-10.518,9.592-21.595,11.282-32.808l0.094-0.707
		C478.043,435.396,469.733,433.768,462.194,429.967z"/>
</g>
<g>
	<path style="fill:#DEDEDE;" d="M366.979,484.909l-107.891-16.527c-5.865-10.453-9.547-21.459-11.25-32.602l-0.125-0.913
		c-0.142-0.991-0.263-1.984-0.375-2.977c-6.305,2.398-12.997,3.404-19.625,2.977l0.083,0.609l0.042,0.304
		c1.703,11.142,5.385,22.149,11.25,32.602l117.892,18.059L366.979,484.909z"/>
	<path style="fill:#DEDEDE;" d="M251.765,377.623c1.824-0.92,3.697-1.7,5.599-2.366c5.649-11.764,13.411-22.693,22.998-32.143
		c5.635-5.554,11.884-10.699,18.322-15.737c-1.639-0.606-3.254-1.301-4.834-2.097l0,0c-2.678-1.35-5.457-2.413-8.29-3.217
		c-7.72,5.92-15.383,11.842-22.288,18.266c-0.986,0.917-1.957,1.845-2.91,2.785c-1.44,1.42-2.84,2.873-4.197,4.358
		c-9.502,10.391-16.943,22.309-21.971,35.012C240.235,382.033,246.21,380.424,251.765,377.623z"/>
</g>
<path style="fill:#FF6835;" d="M474.871,468.382H239.088c-9.974,0-18.059,8.086-18.059,18.059c0,9.974,8.085,18.059,18.059,18.059
	h235.783c9.974,0,18.059-8.085,18.059-18.059C492.93,476.467,484.845,468.382,474.871,468.382z"/>
<path style="fill:#E65E30;" d="M241.029,486.441c0-9.974,8.085-18.059,18.059-18.059h-20c-9.974,0-18.059,8.085-18.059,18.059
	s8.085,18.059,18.059,18.059h20C249.114,504.5,241.029,496.415,241.029,486.441z"/>
<path d="M103.511,150.579c4.142,0,7.5-3.357,7.5-7.5v-7.847c0-4.143-3.358-7.5-7.5-7.5s-7.5,3.357-7.5,7.5v7.847
	C96.011,147.222,99.369,150.579,103.511,150.579z"/>
<path d="M190.231,150.579c4.142,0,7.5-3.357,7.5-7.5v-7.847c0-4.143-3.358-7.5-7.5-7.5s-7.5,3.357-7.5,7.5v7.847
	C182.731,147.222,186.089,150.579,190.231,150.579z"/>
<path d="M146.871,154.769c6.335,0,12.294-2.66,16.349-7.3c2.726-3.118,2.408-7.856-0.711-10.582s-7.856-2.407-10.583,0.711
	c-1.206,1.38-3.048,2.171-5.055,2.171s-3.849-0.792-5.056-2.172c-2.727-3.118-7.464-3.436-10.583-0.71
	c-3.118,2.727-3.436,7.465-0.71,10.583C134.578,152.108,140.537,154.769,146.871,154.769z"/>
<path d="M500.43,486.441c0-10.192-5.999-19.007-14.649-23.108c3.784-8.502,6.4-17.426,7.788-26.642
	c0.007-0.045,0.013-0.091,0.019-0.137c0,0,0.093-0.707,0.094-0.72c2.642-18.553,0.242-37.954-6.944-56.112
	c-6.145-15.524-15.784-30.03-27.878-41.951c-7.631-7.521-15.893-13.988-25.907-21.667l-1.013-0.776
	c-20.534-15.74-39.955-30.635-46.639-54.371l0.216-0.696c2.842-9.164,1.208-18.85-4.484-26.574
	c-4.164-5.651-9.978-9.529-16.554-11.209v-25.023h14.895c4.142,0,7.5-3.357,7.5-7.5s-3.358-7.5-7.5-7.5h-14.895v-16.144
	c0-4.143-3.358-7.5-7.5-7.5s-7.5,3.357-7.5,7.5v16.144h-14.895c-4.142,0-7.5,3.357-7.5,7.5s3.358,7.5,7.5,7.5h14.895v25.023
	c-6.576,1.68-12.39,5.558-16.554,11.209c-5.692,7.725-7.326,17.41-4.484,26.573l0.216,0.697
	c-6.683,23.736-26.103,38.629-46.635,54.369c-1.376,1.055-2.752,2.111-4.125,3.17c-3.908-5.699-10.156-9.588-17.347-10.371
	c1.236-2.912,1.921-6.112,1.921-9.47c0-13.403-10.905-24.309-24.31-24.309h-9.568l-28.148-55.854
	c8.012-4.008,13.53-12.292,13.53-21.844c0-5.551-1.866-10.672-4.998-14.778c5.919-3.565,11.004-8.82,14.839-15.526
	c8.979-15.703,9.3-35.962,0.797-50.414c-8.312-14.127-22.504-20.541-36.229-26.745c-6.312-2.852-12.339-5.591-17.502-8.94
	c2.437-7.559,1.175-15.877-3.438-22.368c-3.235-4.551-7.86-7.845-13.072-9.471V34.689h8.177c4.142,0,7.5-3.357,7.5-7.5
	s-3.358-7.5-7.5-7.5h-8.177V7.5c0-4.143-3.358-7.5-7.5-7.5s-7.5,3.357-7.5,7.5v12.189h-8.179c-4.142,0-7.5,3.357-7.5,7.5
	s3.358,7.5,7.5,7.5h8.179v13.716c-5.213,1.626-9.838,4.92-13.073,9.471c-4.613,6.491-5.875,14.809-3.438,22.368
	c-5.163,3.349-11.19,6.087-17.502,8.94c-13.725,6.203-27.917,12.618-36.229,26.745c-8.503,14.451-8.183,34.711,0.796,50.413
	c3.835,6.706,8.921,11.962,14.839,15.527c-3.132,4.105-4.998,9.227-4.998,14.778c0,9.552,5.517,17.835,13.53,21.844l-28.148,55.854
	h-9.565c-13.404,0-24.31,10.905-24.31,24.31c0,3.354,0.683,6.552,1.917,9.462c-12.143,1.343-21.62,11.662-21.62,24.157
	c0,10.788,7.065,19.951,16.81,23.12V504.5c0,4.143,3.358,7.5,7.5,7.5h438.992C488.964,512,500.43,500.534,500.43,486.441z
	 M468.21,424.469c-9.012-3.644-17.11-7.007-27.059-7.007c-13.153,0-22.907,7.249-35.316,9.404
	c-17.534,3.045-31.677-9.404-48.856-9.404c-19.573,0-35.097,14.827-55.256,7.722c-0.087-0.031-0.177-0.056-0.264-0.087
	c-9.752-3.553-17.935-7.635-28.652-7.635c-10.868,0-19.092,4.244-29.006,7.755c-2.664,0.943-5.431,1.603-8.238,1.936
	c-0.369,0.046-0.74,0.078-1.111,0.114c-0.388-0.167-0.205-4.774-0.21-5.227c-0.12-10.653,1.624-21.292,4.972-31.4
	c0.14-0.422,0.287-0.842,0.432-1.262c0.078-0.013,0.155-0.03,0.233-0.043c5.296-0.9,10.464-2.595,15.261-5.014
	c10.904-5.499,24.292-5.567,35.333,0c15.226,7.678,33.614,7.678,48.839,0c11.019-5.556,24.314-5.556,35.333,0
	c15.225,7.675,33.616,7.676,48.839,0c11.018-5.556,24.314-5.553,35.333,0c4.799,2.418,9.962,4.12,15.261,5.014
	c0.083,0.014,0.164,0.032,0.247,0.045c4.289,12.389,6.053,25.303,5.187,37.889C479.504,427.358,471.288,425.713,468.21,424.469z
	 M465.894,371.079c-0.107-0.053-0.216-0.099-0.323-0.153c-15.223-7.673-33.619-7.674-48.839,0c-11.017,5.555-24.315,5.556-35.333,0
	c-15.15-7.64-33.692-7.636-48.839,0c-11,5.545-24.338,5.544-35.333,0c-15.217-7.673-33.625-7.669-48.839,0
	c-0.101,0.051-0.205,0.095-0.307,0.146c0.11-0.188,0.219-0.376,0.33-0.564c7.953-13.447,18.78-24.312,30.888-34.043
	c2.44-1.961,4.985-3.953,7.678-6.031c0.017,0.006,0.034,0.012,0.051,0.018c1.173,0.445,2.326,0.96,3.446,1.525
	c15.221,7.672,33.621,7.667,48.839,0c11.016-5.553,24.317-5.555,35.333,0c10.307,5.197,22.407,7.006,33.868,4.972
	c6.502-1.154,12.324-4.121,18.416-6.496c0.017-0.007,0.034-0.012,0.051-0.019c8.192,6.319,15.116,11.877,21.35,18.022
	C455.16,355.186,461.095,362.849,465.894,371.079z M345.001,242.585c2.834-3.847,7.2-6.053,11.979-6.053s9.144,2.206,11.979,6.053
	c2.317,3.144,3.284,6.94,2.787,10.715h-29.53C341.717,249.525,342.684,245.729,345.001,242.585z M342.103,268.3h29.754
	c7.443,22.603,24.054,37.864,41.632,51.717c-0.196,0.077-0.39,0.159-0.587,0.233c-4.412,1.656-9.122,2.534-13.836,2.534
	c-6.106,0-12.215-1.449-17.666-4.202c-15.136-7.645-33.611-7.679-48.839,0c-9.082,4.58-19.959,5.446-29.728,2.29
	c-0.598-0.193-2.168-0.777-2.363-0.855C318.048,306.164,334.659,290.904,342.103,268.3z M137.835,221.061h18.068l11.333,53.285
	h-40.734L137.835,221.061z M182.572,274.346l-11.333-53.285h13.702l26.854,53.285H182.572z M138.523,66.567
	c1.946-2.737,4.988-4.308,8.347-4.308s6.4,1.57,8.346,4.308c1.884,2.65,2.396,5.912,1.425,8.996h-19.542
	C136.126,72.479,136.639,69.218,138.523,66.567z M82.056,123.537c5.899-10.025,17.353-15.203,29.479-20.684
	c7.791-3.521,15.821-7.151,22.788-12.29h25.093c6.967,5.139,14.998,8.769,22.788,12.29c12.126,5.481,23.581,10.658,29.479,20.684
	c5.772,9.81,5.406,24.351-0.89,35.359c-2.849,4.981-9.395,13.338-21.233,13.338h-85.381c-11.838,0-18.384-8.356-21.233-13.338
	C76.65,147.887,76.284,133.347,82.056,123.537z M189.56,187.234c5.19,0,9.413,4.223,9.413,9.413s-4.223,9.413-9.413,9.413h-85.381
	c-5.19,0-9.413-4.223-9.413-9.413s4.223-9.413,9.413-9.413H189.56z M108.797,221.061H122.5l-11.333,53.285H81.944L108.797,221.061z
	 M55.582,289.346H238.16c5.133,0,9.31,4.176,9.31,9.31s-4.176,9.31-9.31,9.31H55.582c-5.133,0-9.31-4.177-9.31-9.311
	S50.449,289.346,55.582,289.346z M35.879,322.965h221.983c3.558,0,6.661,1.969,8.226,4.927c-4.911,4.089-9.669,8.376-14.057,13.026
	c-0.211,0.223-0.422,0.44-0.632,0.666H35.879c-5.133,0-9.31-4.177-9.31-9.311C26.57,327.141,30.746,322.965,35.879,322.965z
	 M110.089,405.977c-4.142,0-7.5,3.357-7.5,7.5V497h-59.21l0.001-140.416h59.209v26.893c0,4.143,3.358,7.5,7.5,7.5s7.5-3.357,7.5-7.5
	v-26.893h58.56V497h-58.56v-83.523C117.589,409.334,114.231,405.977,110.089,405.977z M191.149,497V356.584h48.303
	c-4.329,6.395-8.016,13.155-11.031,20.223c-7.899,18.517-11.003,39.103-8.139,59.078c0,0,0.004,0.027,0.006,0.041
	c1.056,7.778,3.119,15.418,5.953,22.732c0.609,1.573,1.244,3.134,1.93,4.675c-0.019,0.009-0.036,0.02-0.055,0.028
	c-7.05,3.329-12.354,10.055-14.006,17.671c-1.133,5.225-0.574,10.789,1.582,15.682c0.042,0.094,0.078,0.192,0.121,0.286H191.149z
	 M228.529,486.441c0-5.822,4.737-10.56,10.559-10.56h169.418c4.142,0,7.5-3.357,7.5-7.5s-3.358-7.5-7.5-7.5H243.605
	c-2.868-5.737-5.118-11.785-6.685-18.005c-0.043-0.169-0.165-0.667-0.184-0.747c4.037-0.453,8.066-1.331,11.87-2.771
	c3.799-1.439,7.408-3.343,11.247-4.68c8.297-2.891,17.386-2.914,25.696-0.071c4.62,1.58,8.859,4.061,13.543,5.487
	c11,3.348,22.833,3.105,33.691-0.68c5.604-1.954,10.576-4.981,16.473-6.16c6.239-1.247,12.764-0.966,18.869,0.833
	c0.035,0.01,0.07,0.018,0.105,0.028c4.756,1.404,9.043,4.03,13.756,5.573c11.363,3.721,23.626,3.671,34.929-0.26
	c3.907-1.359,7.507-3.447,11.421-4.795c7.716-2.657,16.108-2.849,23.918-0.557c0.05,0.015,0.101,0.025,0.15,0.04
	c8.363,2.462,16.046,7.038,24.829,8.015c-1.57,6.472-3.868,12.745-6.871,18.751H438.39c-4.142,0-7.5,3.357-7.5,7.5
	s3.358,7.5,7.5,7.5h36.481c5.822,0,10.559,4.737,10.559,10.56S480.693,497,474.871,497H239.088
	C233.266,497,228.529,492.264,228.529,486.441z"/>
<g>
</g>
<g>
</g>
<g>
</g>
<g>
</g>
<g>
</g>
<g>
</g>
<g>
</g>
<g>
</g>
<g>
</g>
<g>
</g>
<g>
</g>
<g>
</g>
<g>
</g>
<g>
</g>
<g>
</g>
</svg>
