<?xml version="1.0" encoding="iso-8859-1"?>
<!-- Generator: Adobe Illustrator 19.0.0, SVG Export Plug-In . SVG Version: 6.00 Build 0)  -->
<svg version="1.1" id="Capa_1" xmlns="http://www.w3.org/2000/svg" xmlns:xlink="http://www.w3.org/1999/xlink" x="0px" y="0px"
	 viewBox="0 0 512 512" style="enable-background:new 0 0 512 512;" xml:space="preserve">
<path style="fill:#FFCE6E;" d="M290.556,7.5h-69.117c-11.219,0-20.314,9.095-20.314,20.314v108.171h109.744V27.814
	C310.87,16.595,301.775,7.5,290.556,7.5z"/>
<g>
	<path style="fill:#FFAC55;" d="M221.44,7.5c-11.219,0-20.314,9.095-20.314,20.313v108.171h30V7.5H221.44z"/>
	<path style="fill:#FFAC55;" d="M327.479,53.806l-150.344,49.567c-8.05,2.484-13.805,9.977-13.805,18.725v104.427l185.337-10.39
		V73.337C348.666,61.887,338.892,52.876,327.479,53.806z"/>
</g>
<path style="fill:#DB8D49;" d="M193.33,98.033l-16.195,5.339c-8.05,2.484-13.805,9.977-13.805,18.725v104.427l30-1.682V98.033z"/>
<path style="fill:#FFCE6E;" d="M363.845,126.537L144.97,175.296c-10.173,0.828-18.006,9.326-18.006,19.532v114.817l258.068-10.39
	V146.069C385.032,134.619,375.257,125.608,363.845,126.537z"/>
<g>
	<path style="fill:#FFAC55;" d="M156.964,172.625l-11.994,2.672c-10.173,0.829-18.006,9.326-18.006,19.532v114.818l30-1.208V172.625
		z"/>
	<path style="fill:#FFAC55;" d="M395.016,234.113l-281.217,27.979c-10.173,0.828-18.006,9.326-18.006,19.532v120.013h320.41V253.645
		C416.203,242.195,406.428,233.184,395.016,234.113z"/>
</g>
<path style="fill:#DB8D49;" d="M113.799,262.092c-10.173,0.828-18.006,9.326-18.006,19.532v120.012h30V260.899L113.799,262.092z"/>
<path style="fill:#FFCE6E;" d="M426.186,323.46L82.628,351.439c-10.173,0.828-18.006,9.326-18.006,19.532v53.562l191.376,31.168
	l191.376-31.169v-81.541C447.374,331.542,437.599,322.53,426.186,323.46z"/>
<g>
	<path style="fill:#FFAC55;" d="M94.622,420.054v-61.259c0-2.991,0.596-5.849,1.666-8.469l-13.66,1.113
		c-10.173,0.828-18.006,9.326-18.006,19.532v53.562l191.376,31.168l28.75-4.682L94.622,420.054z"/>
	<path style="fill:#FFAC55;" d="M447.374,424.533H64.622c-14.828,0-26.848,12.02-26.848,26.848v53.12H75.44l29.356-23.109
		l29.356,23.109h42.088l29.356-23.109l29.356,23.109h42.088l29.356-23.109l29.357,23.109h42.088l29.356-23.109l29.356,23.109h37.666
		v-53.12C474.221,436.553,462.201,424.533,447.374,424.533z"/>
</g>
<path style="fill:#DB8D49;" d="M94.622,424.533h-30c-14.828,0-26.848,12.02-26.848,26.848v53.12h30v-53.12
	C67.775,436.553,79.795,424.533,94.622,424.533z"/>
<g>
	<path style="fill:#3B484A;" d="M104.797,458.282c-16.213,0-29.356,13.144-29.356,29.357V504.5h58.713v-16.861
		C134.153,471.426,121.01,458.282,104.797,458.282z"/>
	<path style="fill:#3B484A;" d="M205.598,458.282c-16.213,0-29.356,13.144-29.356,29.357V504.5h58.713v-16.861
		C234.954,471.426,221.811,458.282,205.598,458.282z"/>
	<path style="fill:#3B484A;" d="M306.398,458.282c-16.213,0-29.356,13.144-29.356,29.357V504.5h58.713v-16.861
		C335.755,471.426,322.612,458.282,306.398,458.282z"/>
	<path style="fill:#3B484A;" d="M407.199,458.282c-16.213,0-29.356,13.144-29.356,29.357V504.5h58.713v-16.861
		C436.556,471.426,423.412,458.282,407.199,458.282z"/>
</g>
<path d="M193.578,188.874c-4.142,0-7.5,3.357-7.5,7.5v11.297c0,4.143,3.358,7.5,7.5,7.5s7.5-3.357,7.5-7.5v-11.297
	C201.078,192.231,197.72,188.874,193.578,188.874z"/>
<path d="M318.419,188.874c-4.143,0-7.5,3.357-7.5,7.5v11.297c0,4.143,3.357,7.5,7.5,7.5s7.5-3.357,7.5-7.5v-11.297
	C325.919,192.231,322.561,188.874,318.419,188.874z"/>
<path d="M276.34,201.238c-3.117-2.729-7.856-2.409-10.582,0.711c-2.362,2.702-5.92,4.252-9.76,4.252c-3.84,0-7.397-1.55-9.759-4.252
	c-2.727-3.119-7.464-3.437-10.583-0.711s-3.437,7.464-0.711,10.582c5.211,5.962,12.885,9.381,21.053,9.381
	c8.169,0,15.842-3.419,21.053-9.381C279.777,208.702,279.459,203.964,276.34,201.238z"/>
<path d="M290.557,0H221.44c-15.336,0-27.813,12.478-27.813,27.813v62.225l-18.776,6.19c-11.38,3.546-19.02,13.932-19.02,25.868
	v43.097l-12.026,2.679c-13.693,1.402-24.339,13.135-24.339,26.955v59.163l-6.346,0.631c-13.927,1.172-24.825,13.019-24.825,27.002
	v61.828l-6.274,0.511c-13.96,1.139-24.896,13.001-24.896,27.008v46.897c-15.343,3.432-26.848,17.15-26.848,33.513v53.12
	c0,4.143,3.358,7.5,7.5,7.5h436.447c4.143,0,7.5-3.357,7.5-7.5v-53.119c0-16.363-11.505-30.081-26.848-33.513c0,0,0-74.823,0-74.876
	c0-15.607-13.739-28.269-29.296-27.008l-1.875,0.153v-62.493c0-7.546-3.183-14.808-8.73-19.922
	c-5.549-5.115-13.04-7.689-20.566-7.085c-0.044,0.004-0.089,0.008-0.133,0.013l-1.741,0.173v-80.754
	c0-14.942-12.144-27.099-27.07-27.099c-3.165,0-6.227,0.909-9.297,1.593V73.337c0-14.941-12.143-27.098-27.068-27.098
	c-3.751,0-7.208,1.512-10.728,2.672V27.813C318.37,12.478,305.893,0,290.557,0z M208.626,27.813c0-7.065,5.748-12.813,12.813-12.813
	h69.117c7.065,0,12.813,5.748,12.813,12.813v26.043l-94.744,31.236V27.813H208.626z M82.94,497v-9.361
	c0-12.052,9.805-21.856,21.856-21.856s21.856,9.805,21.856,21.856V497H82.94z M183.741,497v-9.361
	c0-12.052,9.805-21.856,21.856-21.856s21.856,9.805,21.856,21.856V497H183.741z M284.542,497v-9.361
	c0-12.052,9.805-21.856,21.856-21.856s21.856,9.805,21.856,21.856V497H284.542z M385.343,497v-9.361
	c0-12.052,9.805-21.856,21.856-21.856s21.856,9.805,21.856,21.856V497H385.343z M395.685,241.584
	c3.392-0.261,6.622,0.865,9.121,3.167c2.514,2.317,3.897,5.476,3.897,8.894v63.714l-28.391,2.312
	c-4.129,0.337-7.203,3.956-6.867,8.084s3.963,7.194,8.084,6.867c0,0,45.2-3.681,45.267-3.687
	c6.972-0.568,13.078,5.068,13.078,12.057v74.041H151.838c-4.142,0-7.5,3.357-7.5,7.5s3.358,7.5,7.5,7.5h295.536
	c10.668,0,19.348,8.68,19.348,19.348V497h-22.666v-9.361c0-20.322-16.534-36.856-36.856-36.856s-36.856,16.534-36.856,36.856V497
	h-27.088v-9.361c0-20.322-16.534-36.856-36.856-36.856s-36.856,16.534-36.856,36.856V497h-27.088v-9.361
	c0-20.322-16.534-36.856-36.856-36.856s-36.856,16.534-36.856,36.856V497h-27.088v-9.361c0-20.322-16.534-36.856-36.856-36.856
	s-36.856,16.534-36.856,36.856V497h-22.67v-45.619c0-10.668,8.68-19.348,19.348-19.348h57.699c4.142,0,7.5-3.357,7.5-7.5
	s-3.358-7.5-7.5-7.5H72.123V370.97c0-6.253,4.882-11.549,11.115-12.057l268.517-21.867c4.129-0.337,7.203-3.956,6.867-8.084
	s-3.952-7.203-8.084-6.867L103.293,342.23v-60.606c0-6.254,4.882-11.55,11.114-12.057c0.045-0.004,0.089-0.008,0.134-0.013
	L395.685,241.584z M364.911,133.983c6.873-0.307,12.621,5.23,12.621,12.086v82.246l-107.571,10.703l-135.497,13.48v-57.67
	c0-6.253,4.882-11.549,11.114-12.056C145.922,182.744,364.911,133.983,364.911,133.983z M328.878,61.241
	c6.73-0.08,12.288,5.351,12.288,12.096v50.569L170.83,161.853v-39.756c0-5.341,3.423-9.986,8.517-11.559
	c0.046-0.014,0.091-0.028,0.137-0.043L328.878,61.241z"/>
<g>
</g>
<g>
</g>
<g>
</g>
<g>
</g>
<g>
</g>
<g>
</g>
<g>
</g>
<g>
</g>
<g>
</g>
<g>
</g>
<g>
</g>
<g>
</g>
<g>
</g>
<g>
</g>
<g>
</g>
</svg>
