<?xml version="1.0" encoding="iso-8859-1"?>
<!-- Generator: Adobe Illustrator 19.0.0, SVG Export Plug-In . SVG Version: 6.00 Build 0)  -->
<svg version="1.1" id="Capa_1" xmlns="http://www.w3.org/2000/svg" xmlns:xlink="http://www.w3.org/1999/xlink" x="0px" y="0px"
	 viewBox="0 0 512.001 512.001" style="enable-background:new 0 0 512.001 512.001;" xml:space="preserve">
<path style="fill:#678DBF;" d="M264.368,81.107h-16.734c-44.166,0-79.969,35.804-79.969,79.969l0,0h176.673l0,0
	C344.337,116.911,308.533,81.107,264.368,81.107z"/>
<g>
	<polygon style="fill:#AE8372;" points="96.965,196.627 26.908,215.712 26.908,313.756 96.962,330.97 175.993,313.756 
		186.429,215.712 	"/>
	<polygon style="fill:#AE8372;" points="415.035,196.627 485.093,215.712 485.093,313.756 415.038,330.97 336.008,313.756 
		325.572,215.712 	"/>
</g>
<g>
	<polygon style="fill:#946F61;" points="26.908,215.713 26.908,240.716 183.767,240.716 186.429,215.713 96.965,196.627 	"/>
	<polygon style="fill:#946F61;" points="485.093,215.713 485.093,240.716 328.234,240.716 325.572,215.713 415.035,196.627 	"/>
</g>
<g>
	<path style="fill:#678DBF;" d="M167.664,177.534H54.619c-10.163,0-19.786,4.576-26.199,12.459L7.494,215.716h178.938
		L167.664,177.534z"/>
	<path style="fill:#678DBF;" d="M344.337,177.534h113.045c10.163,0,19.786,4.576,26.199,12.459l20.927,25.722H325.569
		L344.337,177.534z"/>
</g>
<path style="fill:#946F61;" d="M267.162,123.721c-7.049-3.412-15.272-3.412-22.323,0l-77.175,37.356l88.336,16.456l88.336-16.456
	L267.162,123.721z"/>
<polygon style="fill:#FFCE6E;" points="167.664,193.171 167.664,161.077 344.337,161.077 344.337,193.171 256.001,210.539 "/>
<rect x="167.665" y="193.166" style="fill:#AE8372;" width="176.675" height="198.895"/>
<polygon style="fill:#946F61;" points="175.993,313.756 167.664,392.065 52.564,430.894 26.908,430.894 26.908,313.756 "/>
<g>
	<path style="fill:#3B484A;" d="M70.398,247.809c-8.239,0-14.919,6.679-14.919,14.919v19.645h29.839v-19.645
		C85.318,254.488,78.639,247.809,70.398,247.809z"/>
	<path style="fill:#3B484A;" d="M70.398,347.793c-8.239,0-14.919,6.679-14.919,14.919v68.181h29.839v-68.181
		C85.318,354.472,78.639,347.793,70.398,347.793z"/>
	<path style="fill:#3B484A;" d="M124.5,247.809c-8.239,0-14.919,6.679-14.919,14.919v19.645h29.839v-19.645
		C139.419,254.488,132.739,247.809,124.5,247.809z"/>
</g>
<polygon style="fill:#946F61;" points="336.008,313.756 344.337,392.065 459.436,430.894 485.093,430.894 485.093,313.756 "/>
<g>
	<path style="fill:#3B484A;" d="M441.603,247.809c8.239,0,14.919,6.679,14.919,14.919v19.645h-29.839v-19.645
		C426.683,254.488,433.362,247.809,441.603,247.809z"/>
	<path style="fill:#3B484A;" d="M441.603,347.793c8.239,0,14.919,6.679,14.919,14.919v68.181h-29.839v-68.181
		C426.683,354.472,433.362,347.793,441.603,347.793z"/>
	<path style="fill:#3B484A;" d="M387.501,247.809c8.239,0,14.919,6.679,14.919,14.919v19.645h-29.839v-19.645
		C372.582,254.488,379.261,247.809,387.501,247.809z"/>
</g>
<polygon style="fill:#42C3E2;" points="459.433,430.894 52.567,430.894 256.001,231.045 "/>
<path d="M192.953,337.315c-4.143,0-7.5,3.357-7.5,7.5v11.405c0,4.143,3.357,7.5,7.5,7.5c4.143,0,7.5-3.357,7.5-7.5v-11.405
	C200.453,340.673,197.096,337.315,192.953,337.315z"/>
<path d="M318.994,337.315c-4.143,0-7.5,3.357-7.5,7.5v11.405c0,4.143,3.357,7.5,7.5,7.5s7.5-3.357,7.5-7.5v-11.405
	C326.495,340.673,323.136,337.315,318.994,337.315z"/>
<path d="M276.464,349.78c-3.119-2.726-7.858-2.407-10.583,0.71c-2.399,2.744-6.01,4.318-9.907,4.318s-7.508-1.574-9.907-4.318
	c-2.726-3.119-7.463-3.435-10.583-0.71c-3.118,2.726-3.437,7.464-0.71,10.583c5.247,6.003,12.975,9.445,21.201,9.445
	c8.225,0,15.953-3.442,21.201-9.445C279.901,357.245,279.582,352.506,276.464,349.78z"/>
<path d="M55.452,289.873h29.839c4.143,0,7.5-3.357,7.5-7.5v-19.646c0-12.362-10.057-22.42-22.42-22.42s-22.42,10.057-22.42,22.42
	v19.646C47.952,286.515,51.31,289.873,55.452,289.873z M62.952,262.727c0-4.091,3.328-7.419,7.419-7.419
	c4.091,0,7.419,3.328,7.419,7.419v12.145H62.952V262.727z"/>
<path d="M109.554,289.873h29.839c4.143,0,7.5-3.357,7.5-7.5v-19.646c0-12.362-10.057-22.42-22.42-22.42s-22.42,10.057-22.42,22.42
	v19.646C102.053,286.515,105.41,289.873,109.554,289.873z M117.054,262.727c0-4.091,3.328-7.419,7.419-7.419
	c4.091,0,7.419,3.328,7.419,7.419v12.145h-14.838V262.727z"/>
<path d="M426.656,289.873h29.839c4.143,0,7.5-3.357,7.5-7.5v-19.646c0-12.362-10.057-22.42-22.42-22.42s-22.42,10.057-22.42,22.42
	v19.646C419.156,286.515,422.513,289.873,426.656,289.873z M434.156,262.727c0-4.091,3.328-7.419,7.419-7.419
	c4.091,0,7.419,3.328,7.419,7.419v12.145h-14.838V262.727z"/>
<path d="M372.555,289.873h29.839c4.143,0,7.5-3.357,7.5-7.5v-19.646c0-12.362-10.057-22.42-22.42-22.42s-22.42,10.057-22.42,22.42
	v19.646C365.055,286.515,368.413,289.873,372.555,289.873z M380.055,262.727c0-4.091,3.328-7.419,7.419-7.419
	c4.091,0,7.419,3.328,7.419,7.419v12.145h-14.838V262.727z"/>
<path d="M489.372,185.259c-7.873-9.676-19.543-15.226-32.017-15.226H351.81v-8.956c0-0.075-0.003-0.15-0.003-0.241
	c-0.131-48.12-39.316-87.229-87.466-87.229h-16.734c-48.15,0-87.335,39.109-87.466,87.244c0,0.075-0.003,0.15-0.003,0.226v8.956
	H105.29c-4.143,0-7.5,3.357-7.5,7.5c0,4.143,3.357,7.5,7.5,7.5h54.847v23.182h-136.9l10.973-13.488
	c5.012-6.159,12.44-9.692,20.382-9.692h20.712c4.143,0,7.5-3.357,7.5-7.5c0-4.143-3.357-7.5-7.5-7.5H54.592
	c-12.474,0-24.144,5.55-32.018,15.226c0,0-20.888,25.675-20.927,25.723c-3.923,4.822-0.385,12.233,5.818,12.233h11.915v207.679
	c0,4.143,3.357,7.5,7.5,7.5h458.185c4.143,0,7.5-3.357,7.5-7.5V223.216c0,0,11.914,0,11.934,0c4.143,0,7.5-3.357,7.5-7.5
	c0-1.969-0.758-3.76-1.998-5.098L489.372,185.259z M457.355,185.034c7.94,0,15.369,3.533,20.381,9.692l10.974,13.488h-136.9v-23.182
	L457.355,185.034L457.355,185.034z M77.791,395.575l-14.838,14.576v-47.438c0-4.09,3.328-7.418,7.419-7.418
	c4.091,0,7.419,3.328,7.419,7.418V395.575z M175.137,168.577H336.81v17.093H175.137V168.577z M200.347,153.577l47.732-23.105
	c4.893-2.369,10.895-2.369,15.787,0l47.732,23.105H200.347z M255.974,241.558c0,0,26.052,25.594,26.063,25.605
	c2.919,2.868,7.742,2.823,10.607-0.095c2.902-2.955,2.86-7.703-0.095-10.606l-31.319-30.768c-2.918-2.865-7.594-2.865-10.512,0
	l-75.58,74.248V200.67H336.81v99.272l-23.185-22.776c-2.953-2.902-7.702-2.86-10.606,0.095c-2.862,2.912-2.812,7.752,0.095,10.608
	L441.07,423.394H70.878L255.974,241.558z M448.995,410.151l-14.838-14.576v-32.862c0-4.09,3.328-7.418,7.419-7.418
	c4.091,0,7.419,3.328,7.419,7.418V410.151z M247.606,88.607h16.734c35.698,0,65.431,25.951,71.371,59.976l-65.31-31.612
	c-4.472-2.164-9.461-3.309-14.429-3.309s-9.957,1.145-14.429,3.309l-65.31,31.612C182.176,114.558,211.908,88.607,247.606,88.607z
	 M160.137,223.216v83.04H34.382v-83.04L160.137,223.216L160.137,223.216z M34.382,321.257h119.06l-60.651,59.582v-18.125
	c0-12.361-10.057-22.419-22.42-22.419s-22.42,10.056-22.42,22.419v60.682h-13.57V321.257z M477.566,423.393h-13.57v-60.682
	c0-12.361-10.057-22.419-22.42-22.419s-22.42,10.057-22.42,22.419v18.125l-60.65-59.582h119.06L477.566,423.393L477.566,423.393z
	 M477.566,306.256H351.81v-83.04h125.755V306.256z"/>
<g>
</g>
<g>
</g>
<g>
</g>
<g>
</g>
<g>
</g>
<g>
</g>
<g>
</g>
<g>
</g>
<g>
</g>
<g>
</g>
<g>
</g>
<g>
</g>
<g>
</g>
<g>
</g>
<g>
</g>
</svg>
