<?xml version="1.0" encoding="iso-8859-1"?>
<!-- Generator: Adobe Illustrator 19.0.0, SVG Export Plug-In . SVG Version: 6.00 Build 0)  -->
<svg version="1.1" id="Capa_1" xmlns="http://www.w3.org/2000/svg" xmlns:xlink="http://www.w3.org/1999/xlink" x="0px" y="0px"
	 viewBox="0 0 511.998 511.998" style="enable-background:new 0 0 511.998 511.998;" xml:space="preserve">
<polygon style="fill:#DEDEDE;" points="255.998,262.157 82.628,278.111 82.628,431.316 429.368,431.316 429.368,278.111 "/>
<polygon style="fill:#BDBDBD;" points="266,263.078 255.998,262.157 82.628,278.111 82.628,431.316 102.631,431.316 
	102.631,278.111 "/>
<rect x="237.265" y="25.628" style="fill:#F7F7F7;" width="37.47" height="56.847"/>
<g>
	<rect x="237.265" y="25.628" style="fill:#DEDEDE;" width="15.002" height="56.847"/>
	<path style="fill:#DEDEDE;" d="M286.891,29.825l-19.814-18.072c-6.277-5.725-15.882-5.725-22.157,0l-19.814,18.072
		c-1.63,1.486-0.578,4.2,1.627,4.2h58.531C287.469,34.024,288.52,31.311,286.891,29.825z"/>
</g>
<path style="fill:#BDBDBD;" d="M240.107,29.825l19.814-18.072c1.101-1.004,2.308-1.821,3.578-2.473
	c-5.97-3.064-13.404-2.247-18.58,2.473l-19.814,18.072c-1.63,1.486-0.578,4.2,1.627,4.2h15.002
	C239.529,34.024,238.477,31.311,240.107,29.825z"/>
<polygon style="fill:#DEDEDE;" points="255.998,166.942 110.281,182.895 110.281,262.157 401.714,262.157 401.714,182.895 "/>
<g>
	<polygon style="fill:#BDBDBD;" points="266,168.037 255.998,166.942 110.281,182.895 110.281,262.157 130.284,262.157 
		130.284,182.895 	"/>
	<polygon style="fill:#BDBDBD;" points="138.714,407.128 86.48,392.755 34.248,407.128 34.248,504.538 138.714,504.538 
		161.668,444.032 	"/>
</g>
<polygon style="fill:#A3A3A3;" points="96.482,395.508 86.48,392.755 34.248,407.128 34.248,504.539 54.251,504.539 54.251,407.128 
	"/>
<polygon style="fill:#BDBDBD;" points="373.283,407.128 425.515,392.755 477.748,407.128 477.748,504.538 373.283,504.538 
	350.327,444.032 "/>
<g>
	<path style="fill:#3B484A;" d="M282.604,302.136c-7.004,0-12.683,5.679-12.683,12.683v42.113h25.365v-42.113
		C295.287,307.814,289.609,302.136,282.604,302.136z"/>
	<path style="fill:#3B484A;" d="M335.818,302.136c-7.004,0-12.683,5.679-12.683,12.683v42.113H348.5v-42.113
		C348.501,307.814,342.823,302.136,335.818,302.136z"/>
	<path style="fill:#3B484A;" d="M389.031,302.136c-7.004,0-12.683,5.679-12.683,12.683v81.582h25.365v-81.582
		C401.714,307.814,396.036,302.136,389.031,302.136z"/>
	<path style="fill:#3B484A;" d="M229.391,302.136c-7.004,0-12.683,5.679-12.683,12.683v42.113h25.365v-42.113
		C242.073,307.814,236.395,302.136,229.391,302.136z"/>
	<path style="fill:#3B484A;" d="M176.178,302.136c-7.004,0-12.683,5.679-12.683,12.683v42.113h25.365v-42.113
		C188.86,307.814,183.182,302.136,176.178,302.136z"/>
	<path style="fill:#3B484A;" d="M122.964,302.136c-7.004,0-12.683,5.679-12.683,12.683v81.582h25.365v-81.582
		C135.646,307.814,129.968,302.136,122.964,302.136z"/>
</g>
<path style="fill:#F7F7F7;" d="M138.714,378.383H27.058c-6.39,0-9.938,7.395-5.94,12.379l13.129,16.366h104.466l22.955-12.422
	L138.714,378.383z"/>
<path style="fill:#DEDEDE;" d="M47.061,378.383H27.058c-6.39,0-9.938,7.395-5.94,12.379l13.13,16.366h20.003l-13.13-16.366
	C37.123,385.778,40.671,378.383,47.061,378.383z"/>
<polygon style="fill:#A3A3A3;" points="398.286,504.539 373.282,504.539 350.327,444.032 373.282,407.128 398.286,400.248 "/>
<path style="fill:#F7F7F7;" d="M484.937,378.383H373.283l-22.955,16.323l22.955,12.422h104.466l13.129-16.366
	C494.876,385.778,491.327,378.383,484.937,378.383z"/>
<g>
	<polygon style="fill:#DEDEDE;" points="398.286,407.128 373.282,407.128 350.327,394.706 373.282,378.383 398.286,378.383 	"/>
	<polygon style="fill:#DEDEDE;" points="138.714,368.426 138.714,504.538 373.282,504.538 373.282,368.426 255.997,354.054 	"/>
</g>
<g>
	<path style="fill:#3B484A;" d="M86.48,431.316c-7.701,0-13.944,6.243-13.944,13.944v26.58h27.887v-26.58
		C100.425,437.559,94.182,431.316,86.48,431.316z"/>
	<path style="fill:#3B484A;" d="M335.818,404.459c-7.004,0-12.683,5.679-12.683,12.683v42.113H348.5v-42.113
		C348.501,410.138,342.823,404.459,335.818,404.459z"/>
	<path style="fill:#3B484A;" d="M282.604,404.459c-7.004,0-12.683,5.679-12.683,12.683v42.113h25.365v-42.113
		C295.287,410.138,289.609,404.459,282.604,404.459z"/>
	<path style="fill:#3B484A;" d="M229.391,404.459c-7.004,0-12.683,5.679-12.683,12.683v42.113h25.365v-42.113
		C242.073,410.138,236.395,404.459,229.391,404.459z"/>
	<path style="fill:#3B484A;" d="M176.178,404.459c-7.004,0-12.683,5.679-12.683,12.683v42.113h25.365v-42.113
		C188.86,410.138,183.182,404.459,176.178,404.459z"/>
	<path style="fill:#3B484A;" d="M282.604,207.734c-7.004,0-12.683,5.679-12.683,12.683v42.113h25.365v-42.113
		C295.287,213.413,289.609,207.734,282.604,207.734z"/>
	<path style="fill:#3B484A;" d="M335.818,207.734c-7.004,0-12.683,5.679-12.683,12.683v42.113H348.5v-42.113
		C348.501,213.413,342.823,207.734,335.818,207.734z"/>
	<path style="fill:#3B484A;" d="M229.391,207.734c-7.004,0-12.683,5.679-12.683,12.683v42.113h25.365v-42.113
		C242.073,213.413,236.395,207.734,229.391,207.734z"/>
	<path style="fill:#3B484A;" d="M176.178,207.734c-7.004,0-12.683,5.679-12.683,12.683v42.113h25.365v-42.113
		C188.86,213.413,183.182,207.734,176.178,207.734z"/>
	<path style="fill:#3B484A;" d="M425.515,431.316c7.701,0,13.944,6.243,13.944,13.944v26.58h-27.887v-26.58
		C411.571,437.559,417.814,431.316,425.515,431.316z"/>
</g>
<path style="fill:#DEDEDE;" d="M401.714,150.989c0,0-23.774-86.561-145.716-86.561s-145.716,86.561-145.716,86.561l145.716,15.954
	L401.714,150.989z"/>
<path style="fill:#BDBDBD;" d="M130.284,150.989c0,0,22.473-81.772,135.714-86.352c-3.262-0.132-6.587-0.21-10.002-0.21
	c-121.942,0-145.716,86.561-145.716,86.561l145.716,15.954l10.002-1.095L130.284,150.989z"/>
<g>
	<path style="fill:#F7F7F7;" d="M380.472,339.681H131.523c-6.39,0-9.938,7.395-5.939,12.379l13.129,16.366h234.569l13.129-16.366
		C390.41,347.077,386.862,339.681,380.472,339.681z"/>
	<path style="fill:#F7F7F7;" d="M429.368,246.205H82.628c-8.81,0-15.954,7.142-15.954,15.953l0,0c0,8.81,7.142,15.953,15.954,15.953
		h346.74c8.81,0,15.954-7.142,15.954-15.953l0,0C445.321,253.347,438.178,246.205,429.368,246.205z"/>
</g>
<path style="fill:#DEDEDE;" d="M86.677,262.157L86.677,262.157c0-8.81,7.142-15.954,15.954-15.954H82.628
	c-8.81,0-15.954,7.142-15.954,15.953l0,0c0,8.81,7.142,15.953,15.954,15.953h20.003C93.821,278.111,86.677,270.968,86.677,262.157z"
	/>
<path style="fill:#F7F7F7;" d="M401.714,150.989H110.281c-8.81,0-15.954,7.142-15.954,15.953l0,0c0,8.81,7.142,15.953,15.954,15.953
	h291.433c8.81,0,15.954-7.142,15.954-15.953l0,0C417.667,158.131,410.525,150.989,401.714,150.989z"/>
<path style="fill:#DEDEDE;" d="M114.332,166.942L114.332,166.942c0-8.81,7.142-15.954,15.954-15.954h-20.003
	c-8.81,0-15.954,7.142-15.954,15.953l0,0c0,8.81,7.142,15.953,15.954,15.953h20.003
	C121.474,182.895,114.332,175.753,114.332,166.942z"/>
<path d="M86.481,423.775c-11.825,0-21.445,9.62-21.445,21.444v26.579c0,4.144,3.358,7.501,7.501,7.501h27.888
	c4.144,0,7.501-3.358,7.501-7.501v-26.579C107.926,433.395,98.306,423.775,86.481,423.775z M92.923,464.298H80.037v-19.079
	c0-3.553,2.89-6.442,6.443-6.442c3.553,0,6.442,2.89,6.442,6.442L92.923,464.298L92.923,464.298z"/>
<path d="M335.818,396.917c-11.13,0-20.184,9.054-20.184,20.184v42.113c0,4.144,3.358,7.501,7.501,7.501H348.5
	c4.144,0,7.501-3.358,7.501-7.501v-42.113C356.002,405.971,346.948,396.917,335.818,396.917z M341,451.713h-10.363v-34.611
	c0-2.856,2.324-5.182,5.182-5.182c2.857,0,5.182,2.324,5.182,5.182v34.611H341z"/>
<path d="M282.604,396.917c-11.13,0-20.184,9.054-20.184,20.184v42.113c0,4.144,3.358,7.501,7.501,7.501h25.365
	c4.144,0,7.501-3.358,7.501-7.501v-42.113C302.789,405.971,293.734,396.917,282.604,396.917z M287.786,451.713h-10.363v-34.611
	c0-2.856,2.324-5.182,5.182-5.182c2.857,0,5.182,2.324,5.182,5.182v34.611H287.786z"/>
<path d="M229.391,396.917c-11.13,0-20.184,9.054-20.184,20.184v42.113c0,4.144,3.358,7.501,7.501,7.501h25.365
	c4.144,0,7.501-3.358,7.501-7.501v-42.113C249.575,405.971,240.521,396.917,229.391,396.917z M234.573,451.713H224.21v-34.611
	c0-2.856,2.324-5.182,5.182-5.182c2.857,0,5.182,2.324,5.182,5.182v34.611H234.573z"/>
<path d="M176.178,396.917c-11.13,0-20.184,9.054-20.184,20.184v42.113c0,4.144,3.358,7.501,7.501,7.501h25.365
	c4.144,0,7.501-3.358,7.501-7.501v-42.113C196.362,405.971,187.307,396.917,176.178,396.917z M181.359,451.713h-10.363v-34.611
	c0-2.856,2.324-5.182,5.182-5.182s5.182,2.324,5.182,5.182L181.359,451.713L181.359,451.713z"/>
<path d="M411.572,479.301h27.888c4.144,0,7.501-3.358,7.501-7.501v-26.58c0-11.825-9.62-21.444-21.445-21.444
	c-11.825,0-21.444,9.62-21.444,21.444v26.579C404.071,475.942,407.428,479.301,411.572,479.301z M419.073,445.219
	c0-3.553,2.89-6.442,6.442-6.442c3.554,0,6.443,2.89,6.443,6.442v19.078h-12.886v-19.078H419.073z"/>
<path d="M201.36,115.219v-11.246c0-4.144-3.358-7.501-7.501-7.501s-7.501,3.358-7.501,7.501v11.246c0,4.144,3.358,7.501,7.501,7.501
	S201.36,119.363,201.36,115.219z"/>
<path d="M325.639,115.219v-11.246c0-4.144-3.358-7.501-7.501-7.501c-4.144,0-7.501,3.358-7.501,7.501v11.246
	c0,4.144,3.358,7.501,7.501,7.501C322.282,122.72,325.639,119.363,325.639,115.219z"/>
<path d="M255.998,128.723c8.142,0,15.791-3.408,20.984-9.349c2.727-3.118,2.408-7.857-0.71-10.585
	c-3.119-2.727-7.859-2.409-10.585,0.71c-2.345,2.683-5.877,4.222-9.69,4.222c-3.814,0-7.345-1.538-9.69-4.222
	c-2.728-3.119-7.465-3.437-10.585-0.71c-3.118,2.727-3.438,7.466-0.71,10.585C240.208,125.316,247.856,128.723,255.998,128.723z"/>
<path d="M27.058,370.842c-12.443,0-19.578,14.865-11.79,24.574l11.48,14.308v94.773c0,4.144,3.358,7.501,7.501,7.501h443.5
	c4.144,0,7.501-3.358,7.501-7.501v-94.773c0,0,11.461-14.285,11.481-14.309c7.798-9.72,0.62-24.573-11.791-24.573h-48.07v-86.508
	c9.263-3.136,15.953-11.908,15.953-22.217c0-12.933-10.522-23.454-23.454-23.454h-20.152v-49.545
	c9.263-3.137,15.953-11.907,15.953-22.217c0-11.008-7.624-20.263-17.868-22.777c-3.066-8.036-10.883-24.879-27.355-41.705
	c-17.455-17.829-47.949-38.581-97.71-44.109V41.486h3.028c4.126,0,7.755-2.485,9.246-6.333c1.49-3.848,0.483-8.13-2.564-10.91
	c0,0-19.808-18.066-19.814-18.071c-9.025-8.231-23.247-8.227-32.267,0l-19.814,18.07c-3.048,2.78-4.056,7.064-2.564,10.911
	c1.491,3.848,5.121,6.333,9.246,6.333h3.028v16.791c-32.936,3.595-60.984,14.185-83.611,31.632
	c-3.281,2.529-3.891,7.239-1.36,10.521c2.529,3.283,7.242,3.89,10.521,1.36c21.77-16.786,49.372-26.568,82.23-29.184
	c0.104-0.004,0.207,0,0.311-0.008c11.963-0.939,24.332-0.939,36.295,0c0.161,0.013,0.322,0.017,0.483,0.019
	c39.358,3.13,70.935,16.451,94.035,39.73c11.479,11.568,18.295,23.258,22.014,31.102H121.291
	c2.767-5.847,7.276-13.845,14.236-22.409c2.612-3.216,2.124-7.939-1.09-10.553c-3.217-2.613-7.939-2.123-10.553,1.09
	c-10.983,13.514-16.673,25.977-19.186,32.548c-10.246,2.511-17.872,11.768-17.872,22.778c0,10.31,6.689,19.08,15.953,22.217v49.545
	H82.628c-12.933,0-23.454,10.523-23.454,23.455c0,10.31,6.689,19.08,15.953,22.217v86.508
	C75.127,370.842,27.145,370.842,27.058,370.842z M249.973,17.255c3.369-3.072,8.683-3.068,12.049,0l10.117,9.228h-32.282
	C239.857,26.483,249.966,17.262,249.973,17.255z M244.763,41.486h22.469v15.655c-7.485-0.34-14.983-0.334-22.469-0.005
	L244.763,41.486L244.763,41.486z M27.058,385.844h104.155v13.742H37.846l-10.915-13.593
	C26.931,385.95,26.973,385.863,27.058,385.844z M117.782,340.956v-26.177c0-2.857,2.324-5.183,5.182-5.183s5.182,2.324,5.182,5.183
	v17.734c-0.047,0.011-0.092,0.029-0.139,0.04c-4.407,1.022-8.159,4.096-10.112,8.164
	C117.857,340.796,117.82,340.876,117.782,340.956z M117.782,353.577c0.02,0.043,0.048,0.083,0.068,0.125
	c0.504,1.057,1.133,2.071,1.865,2.986c0.007,0.008,0.011,0.017,0.018,0.025l8.412,10.486v3.642h-10.363L117.782,353.577
	L117.782,353.577z M41.749,414.589h89.463v82.408H41.749V414.589z M146.215,407.087v-28.745v-2.456h149.824
	c4.144,0,7.501-3.358,7.501-7.501c0-4.144-3.358-7.501-7.501-7.501H142.311l-10.915-13.593c0-0.044,0.042-0.131,0.127-0.149
	l249-0.009c0.034,0.027,0.076,0.114,0.036,0.193l-10.877,13.558h-43.825c-4.144,0-7.501,3.358-7.501,7.501
	c0,4.144,3.358,7.501,7.501,7.501h39.923v121.11H146.215V407.087z M181.359,332.14h-10.363v-17.361c0-2.857,2.324-5.183,5.182-5.183
	s5.182,2.324,5.182,5.183L181.359,332.14L181.359,332.14z M234.573,332.14H224.21v-17.361c0-2.857,2.324-5.183,5.182-5.183
	c2.857,0,5.182,2.324,5.182,5.183v17.361H234.573z M287.786,332.14h-10.363v-17.361c0-2.857,2.324-5.183,5.182-5.183
	c2.857,0,5.182,2.324,5.182,5.183v17.361H287.786z M341,332.14h-10.363v-17.361c0-2.857,2.324-5.183,5.182-5.183
	c2.857,0,5.182,2.324,5.182,5.183v17.361H341z M383.85,332.513v-17.734c0-2.857,2.324-5.183,5.182-5.183s5.182,2.324,5.182,5.183
	v26.178c-0.037-0.08-0.074-0.16-0.112-0.24c-1.94-4.079-5.717-7.128-10.112-8.164C383.942,332.542,383.897,332.524,383.85,332.513z
	 M383.85,370.842V367.2l8.411-10.486c0.74-0.922,1.931-3.094,1.951-3.137v17.265H383.85z M470.247,496.997h-89.463v-82.408h89.463
	V496.997z M484.99,385.835c0.033,0.027,0.075,0.114,0.037,0.192l-10.879,13.559h-93.366v-13.742L484.99,385.835z M110.281,158.45
	h291.433c4.66,0,8.451,3.792,8.451,8.451c0,4.66-3.792,8.451-8.451,8.451H110.281c-4.66,0-8.451-3.792-8.451-8.451
	C101.83,162.242,105.621,158.45,110.281,158.45z M117.782,190.355h276.431v48.308h-38.211v-18.287
	c0-11.13-9.054-20.184-20.184-20.184c-11.13,0-20.184,9.054-20.184,20.184v18.287h-12.846v-18.287
	c0-11.13-9.054-20.184-20.184-20.184c-11.13,0-20.184,9.054-20.184,20.184v18.287h-12.846v-18.287
	c0-11.13-9.054-20.184-20.184-20.184c-11.13,0-20.184,9.054-20.184,20.184v18.287h-12.846v-18.287
	c0-11.13-9.054-20.184-20.184-20.184s-20.184,9.054-20.184,20.184v18.287h-38.211v-48.308H117.782z M341,238.663h-10.363v-18.287
	c0-2.856,2.324-5.182,5.182-5.182c2.857,0,5.182,2.324,5.182,5.182v18.287H341z M287.786,238.663h-10.363v-18.287
	c0-2.856,2.324-5.182,5.182-5.182c2.857,0,5.182,2.324,5.182,5.182v18.287H287.786z M234.573,238.663H224.21v-18.287
	c0-2.856,2.324-5.182,5.182-5.182c2.857,0,5.182,2.324,5.182,5.182v18.287H234.573z M181.359,238.663h-10.363v-18.287
	c0-2.856,2.324-5.182,5.182-5.182s5.182,2.324,5.182,5.182L181.359,238.663L181.359,238.663z M429.369,253.665
	c4.66,0,8.451,3.792,8.451,8.452c0,4.66-3.792,8.451-8.451,8.451H82.628c-4.66,0-8.451-3.792-8.451-8.452
	c0-4.66,3.792-8.451,8.451-8.451L429.369,253.665L429.369,253.665z M90.129,285.571h331.738v85.27h-12.651v-56.063
	c0-11.13-9.054-20.185-20.184-20.185s-20.184,9.055-20.184,20.185v17.361h-12.846v-17.361c0-11.13-9.054-20.185-20.184-20.185
	c-11.13,0-20.184,9.055-20.184,20.185v17.361h-12.846v-17.361c0-11.13-9.054-20.185-20.184-20.185
	c-11.13,0-20.184,9.055-20.184,20.185v17.361h-12.846v-17.361c0-11.13-9.054-20.185-20.184-20.185
	c-11.13,0-20.184,9.055-20.184,20.185v17.361h-12.846v-17.361c0-11.13-9.054-20.185-20.184-20.185s-20.184,9.055-20.184,20.185
	v17.361h-12.846v-17.361c0-11.13-9.054-20.185-20.184-20.185s-20.184,9.055-20.184,20.185v56.064H90.129V285.571z"/>
<g>
</g>
<g>
</g>
<g>
</g>
<g>
</g>
<g>
</g>
<g>
</g>
<g>
</g>
<g>
</g>
<g>
</g>
<g>
</g>
<g>
</g>
<g>
</g>
<g>
</g>
<g>
</g>
<g>
</g>
</svg>
