<?xml version="1.0" encoding="iso-8859-1"?>
<!-- Generator: Adobe Illustrator 19.0.0, SVG Export Plug-In . SVG Version: 6.00 Build 0)  -->
<svg version="1.1" id="Capa_1" xmlns="http://www.w3.org/2000/svg" xmlns:xlink="http://www.w3.org/1999/xlink" x="0px" y="0px"
	 viewBox="0 0 512 512" style="enable-background:new 0 0 512 512;" xml:space="preserve">
<path style="fill:#8C6454;" d="M495.19,126.901l-19.674-19.182c-6.312-6.154-14.779-9.598-23.594-9.598l0,0
	c-10.323,0-20.08-4.718-26.491-12.809l-13.833-17.46c-2.949-3.723-6.65-6.782-10.86-8.978l-60.245-20.705
	c-6.336-3.305-13.555-4.516-20.623-3.461l-130.21,10.03c-4.269,0.637-8.376,2.087-12.1,4.27l-14.597,8.557
	c-5.184,3.038-11.083,4.64-17.092,4.64h-24.653c-10.323,0-20.08,4.718-26.491,12.809l-8.159,10.297
	C80.157,93.402,70.4,98.12,60.077,98.12l0,0c-8.815,0-17.282,3.444-23.594,9.598L16.81,126.901c-5.953,5.804-9.31,13.766-9.31,22.08
	v328.685h25.238l61.154-48.943h324.215l61.154,48.943H504.5V148.98C504.5,140.666,501.143,132.705,495.19,126.901z"/>
<path style="fill:#E0A993;" d="M75.309,170.276H29.275c-5.263,0-8.931,5.224-7.143,10.174l6.032,16.697l24.128,12.604l24.128-12.604
	l6.032-16.697C84.24,175.5,80.572,170.276,75.309,170.276z"/>
<g>
	<path style="fill:#AE8372;" d="M158.51,170.276v-45.744c0-3.864-4.085-6.361-7.524-4.599l-27.36,14.015
		c-1.316,0.674-2.28,1.879-2.648,3.311l-8.502,33.018l23.017,14.237L158.51,170.276z"/>
	<path style="fill:#AE8372;" d="M353.49,170.276v-45.744c0-3.864,4.085-6.361,7.524-4.599l27.36,14.015
		c1.316,0.674,2.28,1.879,2.648,3.311l8.502,33.018l-23.017,14.237L353.49,170.276z"/>
	<path style="fill:#AE8372;" d="M293.893,119.357h-75.785c-5.881,0-9.611,6.302-6.781,11.457l21.657,39.462L256,184.513
		l23.017-14.237l21.657-39.462C303.503,125.659,299.773,119.357,293.893,119.357z"/>
</g>
<g>
	<path style="fill:#E0A993;" d="M158.51,170.276h-46.034c-5.263,0-8.931,5.224-7.143,10.174l6.032,16.697l24.128,12.604
		l24.128-12.604l6.032-16.697C167.441,175.5,163.774,170.276,158.51,170.276z"/>
	<path style="fill:#E0A993;" d="M436.691,170.276h46.034c5.263,0,8.931,5.224,7.143,10.174l-6.032,16.697l-24.128,12.604
		l-24.128-12.604l-6.032-16.697C427.76,175.5,431.428,170.276,436.691,170.276z"/>
	<path style="fill:#E0A993;" d="M353.49,170.276h46.034c5.263,0,8.931,5.224,7.143,10.174l-6.032,16.697l-24.128,12.604
		l-24.128-12.604l-6.032-16.697C344.559,175.5,348.227,170.276,353.49,170.276z"/>
	<path style="fill:#E0A993;" d="M232.983,170.276h46.034c5.263,0,8.931,5.224,7.143,10.174l-6.032,16.697L256,209.751
		l-24.128-12.604l-6.032-16.697C224.052,175.5,227.72,170.276,232.983,170.276z"/>
</g>
<g>
	<polygon style="fill:#AE8372;" points="28.164,306.822 28.164,197.148 76.42,197.148 76.42,306.822 52.292,318.47 	"/>
	<polygon style="fill:#AE8372;" points="111.365,306.822 111.365,197.148 159.621,197.148 159.621,306.822 135.493,318.47 	"/>
	<polygon style="fill:#AE8372;" points="483.836,306.822 483.836,197.148 435.58,197.148 435.58,306.822 459.708,318.47 	"/>
	<polygon style="fill:#AE8372;" points="400.635,306.822 400.635,197.148 352.379,197.148 352.379,306.822 376.507,318.47 	"/>
	<polygon style="fill:#AE8372;" points="280.128,306.822 280.128,197.148 231.872,197.148 231.872,306.822 256,318.47 	"/>
</g>
<g>
	<polygon style="fill:#946F61;" points="280.128,276.821 231.872,276.821 231.872,306.822 256,318.47 280.128,306.822 	"/>
	<polygon style="fill:#946F61;" points="76.42,276.821 28.164,276.821 28.164,306.822 52.292,318.47 76.42,306.822 	"/>
	<polygon style="fill:#946F61;" points="159.621,276.821 111.365,276.821 111.365,306.822 135.493,318.47 159.621,306.822 	"/>
	<polygon style="fill:#946F61;" points="435.58,276.821 483.836,276.821 483.836,306.822 459.708,318.47 435.58,306.822 	"/>
	<polygon style="fill:#946F61;" points="352.379,276.821 400.635,276.821 400.635,306.822 376.507,318.47 352.379,306.822 	"/>
</g>
<polygon style="fill:#AE8372;" points="356.953,334.972 356.953,306.822 155.047,306.822 155.047,334.972 121.315,409.716 
	155.047,477.665 214.907,477.665 256,459.546 297.093,477.665 356.953,477.665 390.685,409.716 "/>
<path style="fill:#3B484A;" d="M280.471,351.969h-48.942c-9.18,0-16.622,7.442-16.622,16.622v109.074h82.186V368.592
	C297.093,359.411,289.651,351.969,280.471,351.969z"/>
<g>
	<path style="fill:#946F61;" d="M155.047,334.972l-33.732,74.744l33.732,67.949h30V344.694l5.411-7.472
		c6.473-8.94,8.652-19.965,6.366-30.4h-41.777V334.972z"/>
	<path style="fill:#946F61;" d="M356.953,334.972l33.732,74.744l-33.732,67.949h-30V344.694l-5.411-7.472
		c-6.473-8.94-8.652-19.965-6.366-30.4h41.777V334.972z"/>
</g>
<g>
	<polygon style="fill:#AE8372;" points="93.893,320.897 32.738,334.972 32.738,477.665 66.47,477.665 93.893,460.678 
		121.315,477.665 155.047,477.665 155.047,334.972 	"/>
	<polygon style="fill:#AE8372;" points="418.107,320.897 479.262,334.972 479.262,477.665 445.53,477.665 418.107,460.678 
		390.685,477.665 356.953,477.665 356.953,334.972 	"/>
</g>
<g>
	<path style="fill:#3B484A;" d="M112.037,379.78h-36.29c-5.124,0-9.278,4.154-9.278,9.278v88.608h54.845v-88.608
		C121.315,383.934,117.161,379.78,112.037,379.78z"/>
	<path style="fill:#3B484A;" d="M399.963,379.78h36.289c5.124,0,9.278,4.154,9.278,9.278v88.608h-54.845v-88.608
		C390.685,383.934,394.839,379.78,399.963,379.78z"/>
</g>
<g>
	<path style="fill:#E0A993;" d="M159.621,306.822H28.164c-6.589,0-10.402,7.469-6.538,12.806l11.112,15.344h122.309l11.112-15.344
		C170.023,314.291,166.21,306.822,159.621,306.822z"/>
	<path style="fill:#E0A993;" d="M352.379,306.822h131.457c6.589,0,10.402,7.469,6.538,12.806l-11.112,15.344H356.953l-11.112-15.344
		C341.977,314.291,345.79,306.822,352.379,306.822z"/>
</g>
<path d="M183.116,74.13v11.833c0,4.143,3.358,7.5,7.5,7.5s7.5-3.357,7.5-7.5V74.13c0-4.143-3.358-7.5-7.5-7.5
	S183.116,69.988,183.116,74.13z"/>
<path d="M313.884,74.13v11.833c0,4.143,3.358,7.5,7.5,7.5s7.5-3.357,7.5-7.5V74.13c0-4.143-3.358-7.5-7.5-7.5
	S313.884,69.988,313.884,74.13z"/>
<path d="M266.491,80.203c-2.542,2.908-6.366,4.576-10.491,4.576s-7.949-1.668-10.491-4.576c-2.727-3.118-7.464-3.436-10.583-0.71
	c-3.118,2.727-3.436,7.464-0.71,10.583c5.391,6.166,13.331,9.703,21.784,9.703c8.453,0,16.393-3.537,21.784-9.703
	c2.726-3.119,2.408-7.856-0.71-10.583C273.955,76.768,269.218,77.083,266.491,80.203z"/>
<path d="M480.752,102.353c-7.758-7.563-17.997-11.729-28.83-11.729c-8.081,0-15.594-3.633-20.612-9.966l-13.834-17.462
	c-1.107-1.397-2.362-2.773-3.728-4.089c-2.984-2.874-7.732-2.784-10.604,0.199c-2.874,2.983-2.784,7.731,0.199,10.605
	c0.884,0.852,1.684,1.727,2.376,2.6l13.833,17.461c7.881,9.947,19.679,15.651,32.369,15.651c6.898,0,13.418,2.652,18.358,7.469
	l19.674,19.183c4.477,4.364,7.045,10.455,7.045,16.709v24.067c-0.456-1.352-1.082-2.654-1.921-3.849
	c-2.823-4.021-7.441-6.422-12.354-6.422h-46.034c-4.913,0-9.531,2.4-12.354,6.422s-3.512,9.181-1.842,13.8l5.585,15.462v100.861
	h-19.945V198.464l5.585-15.461c1.669-4.62,0.98-9.779-1.842-13.801c-1.584-2.257-3.745-3.979-6.194-5.077l-7.399-28.733
	c-0.903-3.508-3.27-6.467-6.492-8.116l-27.36-14.015c-1.788-0.916-3.784-1.4-5.773-1.4c-6.986,0-12.67,5.686-12.67,12.675v40.269
	c-1.893,1.086-3.567,2.562-4.854,4.397c-2.823,4.021-3.512,9.181-1.842,13.8l5.585,15.462v100.861h-57.251V198.464l5.585-15.462
	c1.669-4.62,0.98-9.779-1.842-13.8c-0.581-0.827-1.253-1.566-1.973-2.25l17.85-32.525c2.617-4.768,2.526-10.409-0.245-15.09
	s-7.672-7.476-13.111-7.476h-75.785c-5.439,0-10.341,2.795-13.111,7.476s-2.862,10.322-0.245,15.09l17.85,32.525
	c-0.719,0.684-1.392,1.423-1.973,2.25c-2.823,4.021-3.512,9.18-1.842,13.8l5.585,15.462v100.861h-57.251V198.464l5.585-15.462
	c1.669-4.62,0.98-9.779-1.842-13.8c-1.288-1.834-2.961-3.311-4.854-4.397v-40.269c0-6.989-5.684-12.675-12.67-12.675
	c-1.989,0-3.985,0.484-5.773,1.4l-27.359,14.014c-3.223,1.65-5.59,4.609-6.493,8.117l-7.399,28.733
	c-2.45,1.098-4.61,2.82-6.194,5.077c-2.823,4.021-3.512,9.18-1.842,13.8l5.585,15.462v100.861H83.92V198.464l5.585-15.462
	c1.669-4.62,0.98-9.779-1.842-13.8c-2.823-4.021-7.441-6.422-12.354-6.422H29.275c-4.913,0-9.531,2.4-12.354,6.422
	c-0.839,1.195-1.465,2.497-1.921,3.849v-24.066c0-6.254,2.568-12.345,7.045-16.709l19.673-19.183
	c4.94-4.816,11.46-7.469,18.359-7.469c12.69,0,24.488-5.704,32.37-15.651l8.158-10.298c5.019-6.334,12.532-9.967,20.613-9.967
	h24.653c7.335,0,14.558-1.961,20.885-5.67l14.597-8.557c2.838-1.664,5.921-2.769,9.167-3.284l129.926-10.009
	c0.178-0.014,0.354-0.033,0.531-0.06c5.536-0.826,11.085,0.104,16.048,2.693c0.332,0.173,0.676,0.32,1.03,0.442l41.665,14.319
	c3.919,1.346,8.184-0.738,9.53-4.655s-0.738-8.184-4.655-9.53l-41.159-14.146c-7.575-3.817-15.994-5.201-24.396-4L189.083,37.264
	c-0.178,0.014-0.355,0.033-0.532,0.06c-5.24,0.783-10.213,2.538-14.784,5.217l-14.598,8.558c-4.029,2.362-8.627,3.61-13.298,3.61
	h-24.653c-12.69,0-24.488,5.705-32.37,15.652L80.69,80.659c-5.019,6.333-12.531,9.966-20.612,9.966
	c-10.833,0-21.071,4.165-28.83,11.729l-19.673,19.183C4.219,128.705,0,138.71,0,148.985V477.67c0,4.143,3.358,7.5,7.5,7.5h497
	c4.142,0,7.5-3.357,7.5-7.5V148.985c0-10.274-4.219-20.279-11.574-27.449L480.752,102.353z M496.921,183.003
	c0.032-0.088,0.049-0.179,0.079-0.268v123.856c-1.428-2.271-3.383-4.094-5.664-5.346V198.464L496.921,183.003z M484.344,314.638
	c0.092,0.18,0.091,0.408-0.044,0.595l-8.866,12.243H360.782c0,0-8.753-12.087-8.864-12.241c-0.281-0.388-0.005-0.91,0.461-0.91
	c0,0,130.981,0,131.456,0C484.069,314.326,484.252,314.458,484.344,314.638z M353.389,177.869c0.004-0.025,0.039-0.075,0.101-0.089
	l46.073,0.001c0.023,0.013,0.058,0.063,0.05,0.125l-4.243,11.745h-37.726L353.389,177.869z M436.691,177.781l46.073,0.001
	c0.023,0.013,0.058,0.063,0.05,0.125l-4.243,11.745h-37.726l-4.255-11.782C436.594,177.844,436.629,177.794,436.691,177.781z
	 M443.08,204.652h33.256v94.674H443.08V204.652z M359.879,299.326v-94.674h33.256v94.674H359.879z M360.99,128.351l23.03,11.797
	l5.828,22.633H360.99V128.351z M232.882,177.869c0.004-0.026,0.039-0.075,0.101-0.089l46.074,0.001
	c0.023,0.013,0.057,0.062,0.049,0.125l-4.243,11.745h-37.726L232.882,177.869z M217.905,126.977
	c0.068-0.115,0.113-0.115,0.203-0.115h75.785c0.089,0,0.135,0,0.203,0.115s0.047,0.155,0.004,0.233l-19.521,35.57h-37.156
	l-19.521-35.57C217.858,127.131,217.836,127.092,217.905,126.977z M239.372,204.652h33.256v94.674h-33.256V204.652z M27.702,315.234
	c-0.277-0.382,0.003-0.908,0.462-0.908c0,0,131.304,0,131.456,0c0.302,0,0.542,0.237,0.581,0.53
	c-0.034,0.151-0.148,0.375-0.304,0.635l-8.679,11.985H36.567C36.567,327.476,27.725,315.265,27.702,315.234z M112.375,177.869
	c0.004-0.026,0.039-0.075,0.101-0.089l46.074,0.001c0.023,0.013,0.057,0.062,0.049,0.125l-4.243,11.745H116.63L112.375,177.869z
	 M127.98,140.149l23.03-11.798v34.43h-28.858L127.98,140.149z M118.865,204.652h33.256v94.674h-33.256
	C118.865,299.326,118.865,204.652,118.865,204.652z M35.664,299.326v-94.674H68.92v94.674H35.664z M29.275,177.781l46.074,0.001
	c0.023,0.013,0.057,0.062,0.049,0.125l-4.243,11.745H33.429l-4.255-11.782C29.178,177.843,29.212,177.794,29.275,177.781z
	 M15.079,183.002l5.585,15.462v102.782c-2.281,1.252-4.236,3.075-5.664,5.346V182.735C15.03,182.824,15.047,182.914,15.079,183.002z
	 M15,323.21c0.176,0.278,10.238,14.196,10.238,14.196v132.763H15V323.21z M40.238,342.476h107.309v127.693h-18.732v-81.107
	c0-9.251-7.526-16.777-16.778-16.777H75.748c-9.251,0-16.778,7.526-16.778,16.777v81.107H40.238V342.476z M73.97,470.169v-81.107
	c0-0.98,0.797-1.777,1.778-1.777h36.289c0.98,0,1.778,0.797,1.778,1.777v81.107H73.97z M162.547,337.407
	c0,0,9.139-12.495,9.852-13.621c1.527-2.195,2.434-4.68,2.708-7.23c0.085-0.736,0.116-1.489,0.088-2.23h161.613
	c-0.003,0.086,0.003,0.172,0.001,0.258c-0.024,1.134,0.076,2.278,0.301,3.389c0.437,2.159,1.366,4.274,2.658,6.059l9.686,13.375
	V470.17h-44.86V368.596c0-13.301-10.821-24.122-24.122-24.122H231.53c-13.301,0-24.122,10.821-24.122,24.122v101.573h-44.86
	L162.547,337.407L162.547,337.407z M222.407,470.169V368.596c0-5.03,4.092-9.122,9.122-9.122h48.942c5.03,0,9.122,4.092,9.122,9.122
	v101.573H222.407z M398.185,470.169v-81.107c0-0.98,0.797-1.777,1.778-1.777h36.289c0.98,0,1.778,0.797,1.778,1.777v81.107H398.185z
	 M453.03,470.169v-81.107c0-9.251-7.526-16.777-16.778-16.777h-36.289c-9.251,0-16.778,7.526-16.778,16.777v81.107h-18.732V342.476
	h107.309v127.693H453.03z M486.762,470.169V337.407l9.687-13.376c0.194-0.269,0.376-0.542,0.551-0.82v146.958L486.762,470.169
	L486.762,470.169z"/>
<g>
</g>
<g>
</g>
<g>
</g>
<g>
</g>
<g>
</g>
<g>
</g>
<g>
</g>
<g>
</g>
<g>
</g>
<g>
</g>
<g>
</g>
<g>
</g>
<g>
</g>
<g>
</g>
<g>
</g>
</svg>
