<?xml version="1.0" encoding="iso-8859-1"?>
<!-- Generator: Adobe Illustrator 19.0.0, SVG Export Plug-In . SVG Version: 6.00 Build 0)  -->
<svg version="1.1" id="Capa_1" xmlns="http://www.w3.org/2000/svg" xmlns:xlink="http://www.w3.org/1999/xlink" x="0px" y="0px"
	 viewBox="0 0 511.998 511.998" style="enable-background:new 0 0 511.998 511.998;" xml:space="preserve">
<polygon style="fill:#E0A993;" points="257.801,416.17 65.986,435.731 65.986,504.538 141.644,504.538 166.84,483.545 
	192.038,504.538 446.012,504.538 446.012,435.731 "/>
<path style="fill:#8C6454;" d="M446.012,401.114h-21.184l-167.027-25.468L87.17,401.114H65.986c-9.559,0-17.309,7.749-17.309,17.309
	c0,9.559,7.749,17.309,17.309,17.309h380.027c9.559,0,17.309-7.749,17.309-17.309S455.572,401.114,446.012,401.114z"/>
<polygon style="fill:#E0A993;" points="365.425,293 299.513,176.59 299.512,176.591 299.512,176.59 299.512,176.59 256,144.513 
	212.486,176.59 146.573,293 157.15,401.114 354.849,401.114 354.848,401.113 354.849,401.114 "/>
<g>
	<polygon style="fill:#AE8372;" points="168.295,144.513 126.623,176.59 87.17,401.114 157.15,401.114 212.486,176.59 	"/>
	<polygon style="fill:#AE8372;" points="385.375,176.59 340.312,153.911 299.513,176.59 299.512,176.59 354.849,401.114 
		424.828,401.114 	"/>
</g>
<path style="fill:#3B484A;" d="M385.375,176.592l-11.725-37.5C357.563,87.639,309.908,52.608,256,52.608l0,0
	c-53.909,0-101.565,35.03-117.651,86.484l-11.725,37.5H385.375z"/>
<g>
	<path style="fill:#DEDEDE;" d="M435.088,81.133l-11.055-16.896l-130.129,85.135l11.054,16.896c3.438,5.257,10.488,6.73,15.744,3.29
		l111.094-72.682C437.053,93.438,438.526,86.39,435.088,81.133z"/>
	<path style="fill:#DEDEDE;" d="M76.91,251.018l11.055,16.896l130.129-85.135l-11.054-16.896c-3.439-5.257-10.488-6.73-15.744-3.29
		L80.202,235.274C74.945,238.713,73.472,245.762,76.91,251.018z"/>
	<path style="fill:#DEDEDE;" d="M379.429,321.166l13.941-14.606L280.882,199.191l-13.941,14.606
		c-4.337,4.544-4.17,11.743,0.374,16.08l96.033,91.663C367.893,325.877,375.092,325.71,379.429,321.166z"/>
	<path style="fill:#DEDEDE;" d="M132.569,10.986l-13.941,14.606l112.487,107.369l13.941-14.606c4.337-4.544,4.17-11.743-0.374-16.08
		L148.65,10.611C144.105,6.274,136.906,6.442,132.569,10.986z"/>
</g>
<g>
	
		<rect x="329.183" y="3.883" transform="matrix(-0.5475 -0.8368 0.8368 -0.5475 440.9563 455.8211)" style="fill:#8C6454;" width="29.074" height="209.61"/>
	
		<rect x="153.744" y="118.644" transform="matrix(0.5475 0.8368 -0.8368 0.5475 263.1295 -39.7082)" style="fill:#8C6454;" width="29.074" height="209.61"/>
	
		<rect x="317.257" y="133.629" transform="matrix(0.6905 -0.7234 0.7234 0.6905 -69.7769 313.8141)" style="fill:#8C6454;" width="29.076" height="209.621"/>
	
		<rect x="165.65" y="-11.107" transform="matrix(-0.6905 0.7234 -0.7234 -0.6905 372.3832 28.0613)" style="fill:#8C6454;" width="29.076" height="209.621"/>
</g>
<circle style="fill:#DEDEDE;" cx="255.997" cy="166.075" r="21.562"/>
<rect x="141.64" y="462.549" style="fill:#AE8372;" width="50.397" height="41.985"/>
<path d="M198.936,333.173c-4.143,0-7.501,3.357-7.501,7.501V351c0,4.144,3.358,7.501,7.501,7.501c4.143,0,7.501-3.357,7.501-7.501
	v-10.327C206.437,336.531,203.079,333.173,198.936,333.173z"/>
<path d="M313.062,333.173c-4.143,0-7.501,3.357-7.501,7.501V351c0,4.144,3.358,7.501,7.501,7.501s7.501-3.357,7.501-7.501v-10.327
	C320.563,336.531,317.204,333.173,313.062,333.173z"/>
<path d="M275.019,344.636c-3.119-2.729-7.857-2.409-10.585,0.711c-2.036,2.329-5.111,3.666-8.436,3.666
	c-3.324,0-6.399-1.336-8.436-3.667c-2.726-3.119-7.466-3.437-10.585-0.712c-3.119,2.727-3.439,7.465-0.711,10.585
	c4.886,5.59,12.078,8.796,19.732,8.796c7.654,0,14.846-3.205,19.732-8.795C278.457,352.101,278.139,347.362,275.019,344.636z"/>
<path d="M470.822,418.384c0-13.68-11.13-24.81-24.81-24.81h-14.886l-14.329-81.548c0,0,6.293-6.592,6.296-6.596
	c2.825-2.96,2.711-7.781-0.247-10.606l-10.9-10.404c0,0-19.179-109.147-19.183-109.165c-0.056-0.317-0.132-0.633-0.229-0.94
	l-11.116-35.552l54.485-35.646c8.708-5.698,11.159-17.42,5.461-26.128l-2.697-4.124c0,0,4.805-3.143,4.807-3.145
	c3.419-2.237,4.409-6.962,2.17-10.385l-15.918-24.331c-2.267-3.466-6.917-4.438-10.384-2.17l-73.459,48.059
	c-24.168-22.837-56.576-35.826-89.885-35.826c-17.288,0-34.06,3.345-49.941,9.93c0,0-52.197-49.821-52.23-49.853
	c-7.438-7.1-19.587-6.815-26.685,0.621l-3.403,3.565l-4.156-3.967c-2.996-2.858-7.744-2.748-10.606,0.247
	c0,0-20.056,21.012-20.075,21.031c-2.828,2.963-2.71,7.782,0.247,10.607l24.045,22.949c2.995,2.86,7.744,2.75,10.606-0.246
	c2.86-2.996,2.75-7.745-0.247-10.606l-18.619-17.773l9.716-10.179l125.783,120.06c-4.031,2.536-7.369,6.035-9.716,10.178
	L144.775,69.6c-2.996-2.858-7.744-2.748-10.606,0.247c-2.86,2.997-2.75,7.745,0.247,10.606l17.281,16.494
	c-9.092,12.001-15.982,25.378-20.512,39.864c0,0-11.708,37.447-11.714,37.464l-0.011,0.035c-0.093,0.298-0.165,0.6-0.22,0.903
	c-0.002,0.012-0.007,0.024-0.009,0.036l-5.059,28.79l-38.082,24.915c-8.709,5.698-11.159,17.42-5.461,26.129l2.697,4.123
	c0,0-4.804,3.142-4.807,3.145c-3.424,2.239-4.411,6.961-2.17,10.385c0,0,15.909,24.317,15.918,24.33
	c2.237,3.418,6.967,4.405,10.384,2.17l5.416-3.543L80.87,393.572H65.986c-13.68,0-24.81,11.13-24.81,24.81
	c0,11.067,7.284,20.461,17.309,23.648v62.467c0,4.144,3.358,7.501,7.501,7.501h380.027c4.143,0,7.501-3.357,7.501-7.501V442.03
	C463.538,438.845,470.822,429.451,470.822,418.384z M415.894,393.575h-55.168l-20.692-83.956c0,0,18.125,17.301,18.136,17.312
	c7.435,7.097,19.586,6.816,26.685-0.621l3.403-3.565l4.156,3.967c2.53,2.416,6.569,2.741,9.457,0.732
	c0.767-0.533,1.41-1.255,2.062-1.938L415.894,393.575z M407.061,300.498l-9.716,10.18l-125.783-120.06
	c4.03-2.536,7.369-6.035,9.716-10.178L407.061,300.498z M368.528,316.076l-96.033-91.661c-1.545-1.475-1.602-3.932-0.128-5.476
	l3.403-3.565l101.635,97.011c0,0-3.402,3.565-3.405,3.568C372.534,317.487,370.054,317.535,368.528,316.076z M252.511,179.641
	c-7.75-2.072-12.568-10.97-9.608-18.684c2.517-6.563,9.752-10.243,16.527-8.533c0.017,0.004,0.034,0.007,0.056,0.014
	c7.915,2.23,12.655,10.961,9.565,18.802C266.545,177.6,259.129,181.411,252.511,179.641z M297.841,169.053h-6.196l4.339-2.838
	L297.841,169.053z M208.683,223.33l43.531-28.48c0.034,0.004,0.067,0.005,0.101,0.009c0.718,0.091,1.441,0.165,2.173,0.203
	l10.428,9.953c-3.365,3.526-6.646,6.785-7.958,11.643c-1.759,6.51,0.188,13.846,5.178,18.609l56.841,54.255l0.851,0.812
	l25.445,103.242H166.724L208.683,223.33z M388.252,261.805l-78.461-74.89l-0.705-2.861h69.991l14.566,82.898L388.252,261.805z
	 M375.171,169.053h-40.05L368.37,147.3L375.171,169.053z M428.81,85.203c1.169,1.786,0.667,4.191-1.12,5.36l-111.094,72.682
	c-0.633,0.414-1.362,0.633-2.109,0.633c-1.318,0-2.533-0.655-3.251-1.752L308.536,158l117.575-76.922L428.81,85.203z
	 M421.279,49.497l7.704,11.776l-145.532,95.212c-0.024-0.07-0.054-0.137-0.079-0.207c-1.56-4.376-4.219-8.408-7.633-11.563
	L421.279,49.497z M218.064,66.46c12.176-4.243,24.892-6.388,37.935-6.388c28.288,0,55.847,10.582,76.934,29.296l-73.154,47.86
	c-0.749-0.098-1.504-0.175-2.269-0.215l-10.429-9.953l3.401-3.564c7.186-7.528,6.907-19.5-0.622-26.686L218.064,66.46z
	 M134.593,19.691c0,0,3.402-3.564,3.406-3.568c1.469-1.536,3.944-1.584,5.472-0.123l96.033,91.661
	c1.545,1.475,1.602,3.932,0.128,5.476l-3.402,3.565L134.593,19.691z M162.628,107.383l58.063,55.42l-4.676,3.059l-2.697-4.124
	c-3.5-5.349-9.408-8.542-15.805-8.542c-3.673,0-7.242,1.065-10.324,3.081l-19.527,12.775l-30.834-0.001l8.678-27.759
	C149.343,129.02,155.09,117.646,162.628,107.383z M132.92,184.055h11.81l-13.344,8.73L132.92,184.055z M83.188,246.873
	c-1.169-1.786-0.667-4.191,1.12-5.36c0,0,111.014-72.629,111.094-72.682c1.769-1.157,4.204-0.651,5.361,1.119l2.698,4.125
	L85.886,250.997L83.188,246.873z M90.719,282.578l-7.704-11.776l145.533-95.212c0.022,0.064,0.05,0.125,0.073,0.189
	c1.586,4.446,4.175,8.377,7.64,11.58L90.719,282.578z M115.282,284.437l74.979-49.053l-38.989,158.191H96.104L115.282,284.437z
	 M149.145,496.999v-26.983h35.391v26.983H149.145z M438.511,496.999H199.538v-34.484c0-4.144-3.358-7.501-7.501-7.501h-50.393
	c-4.143,0-7.501,3.357-7.501,7.501v34.484H73.487v-53.805h365.024V496.999z M446.012,428.192H65.986c-5.408,0-9.807-4.4-9.807-9.808
	s4.4-9.807,9.807-9.807h380.027c5.408,0,9.807,4.399,9.807,9.807S451.42,428.192,446.012,428.192z"/>
<g>
</g>
<g>
</g>
<g>
</g>
<g>
</g>
<g>
</g>
<g>
</g>
<g>
</g>
<g>
</g>
<g>
</g>
<g>
</g>
<g>
</g>
<g>
</g>
<g>
</g>
<g>
</g>
<g>
</g>
</svg>
