<?xml version="1.0" encoding="iso-8859-1"?>
<!-- Generator: Adobe Illustrator 19.0.0, SVG Export Plug-In . SVG Version: 6.00 Build 0)  -->
<svg version="1.1" id="Capa_1" xmlns="http://www.w3.org/2000/svg" xmlns:xlink="http://www.w3.org/1999/xlink" x="0px" y="0px"
	 viewBox="0 0 511.999 511.999" style="enable-background:new 0 0 511.999 511.999;" xml:space="preserve">
<g>
	<path style="fill:#DEDEDE;" d="M90.779,326.909c-8.77-3.615-18.811,0.566-22.425,9.337L7.5,483.925h37.155l55.461-134.591
		C103.73,340.563,99.55,330.523,90.779,326.909z"/>
	<path style="fill:#DEDEDE;" d="M421.221,326.909c8.77-3.615,18.811,0.566,22.425,9.337L504.5,483.925h-37.155l-55.461-134.591
		C408.27,340.563,412.45,330.523,421.221,326.909z"/>
	<path style="fill:#DEDEDE;" d="M256,432.758c-9.486,0-17.176-7.69-17.176-17.177V93.348c0-9.486,7.69-17.176,17.176-17.176
		s17.177,7.69,17.177,17.176v322.234C273.177,425.068,265.486,432.758,256,432.758z"/>
	<path style="fill:#DEDEDE;" d="M84.251,359.969c-5.973,0-11.778-3.12-14.944-8.683c-4.692-8.244-1.813-18.732,6.432-23.424
		l343.53-195.525c8.242-4.693,18.732-1.814,23.424,6.432c4.693,8.244,1.814,18.732-6.432,23.424L92.731,357.718
		C90.05,359.244,87.131,359.969,84.251,359.969z"/>
	<path style="fill:#DEDEDE;" d="M427.749,359.969c5.973,0,11.778-3.12,14.944-8.683c4.692-8.244,1.813-18.732-6.432-23.424
		L92.731,132.337c-8.242-4.693-18.732-1.814-23.424,6.432c-4.693,8.244-1.814,18.732,6.432,23.424l343.53,195.525
		C421.95,359.244,424.868,359.969,427.749,359.969z"/>
	<path style="fill:#DEDEDE;" d="M84.242,164.447c-6.742,0-13.139-3.995-15.877-10.613c-3.628-8.765,0.536-18.812,9.301-22.44
		l171.765-71.093c8.765-3.624,18.811,0.537,22.44,9.302c3.628,8.765-0.537,18.812-9.302,22.44L90.804,163.135
		C88.656,164.025,86.431,164.447,84.242,164.447z"/>
	<path style="fill:#DEDEDE;" d="M84.242,325.609c-6.742,0-13.139,3.995-15.877,10.613c-3.628,8.765,0.536,18.812,9.301,22.44
		l171.765,71.094c8.765,3.624,18.811-0.537,22.44-9.302c3.628-8.765-0.537-18.812-9.302-22.44L90.804,326.919
		C88.656,326.031,86.431,325.609,84.242,325.609z"/>
	<path style="fill:#DEDEDE;" d="M427.758,325.609c6.742,0,13.139,3.995,15.877,10.613c3.628,8.765-0.536,18.812-9.301,22.44
		l-171.765,71.094c-8.765,3.624-18.811-0.537-22.44-9.302c-3.628-8.765,0.537-18.812,9.302-22.44l171.765-71.094
		C423.344,326.031,425.57,325.609,427.758,325.609z"/>
	<path style="fill:#DEDEDE;" d="M84.235,359.966c-9.486,0-17.176-7.69-17.176-17.177V147.265c0-9.486,7.69-17.177,17.176-17.177
		s17.177,7.69,17.177,17.177V342.79C101.412,352.276,93.721,359.966,84.235,359.966z"/>
	<path style="fill:#DEDEDE;" d="M427.765,359.966c9.486,0,17.176-7.69,17.176-17.177V147.265c0-9.486-7.69-17.177-17.176-17.177
		s-17.177,7.69-17.177,17.177V342.79C410.589,352.276,418.279,359.966,427.765,359.966z"/>
	<path style="fill:#DEDEDE;" d="M427.758,164.447c6.742,0,13.139-3.995,15.877-10.613c3.628-8.765-0.536-18.812-9.301-22.44
		L262.569,60.301c-8.765-3.624-18.811,0.537-22.44,9.302c-3.628,8.765,0.537,18.812,9.302,22.44l171.765,71.094
		C423.344,164.025,425.57,164.447,427.758,164.447z"/>
</g>
<circle style="fill:#BDBDBD;" cx="256" cy="76.171" r="48.09"/>
<path style="fill:#A3A3A3;" d="M276,104.266c-26.562,0-48.094-21.532-48.094-48.094c0-8.132,2.026-15.789,5.59-22.504
	c-15.219,8.075-25.59,24.075-25.59,42.504c0,26.562,21.533,48.094,48.094,48.094c18.429,0,34.43-10.37,42.505-25.59
	C291.789,102.239,284.132,104.266,276,104.266z"/>
<circle style="fill:#BDBDBD;" cx="256" cy="413.881" r="48.09"/>
<path style="fill:#A3A3A3;" d="M276,441.978c-26.562,0-48.094-21.532-48.094-48.094c0-8.132,2.026-15.789,5.59-22.505
	c-15.219,8.075-25.59,24.075-25.59,42.505c0,26.562,21.533,48.094,48.094,48.094c18.429,0,34.43-10.37,42.505-25.59
	C291.789,439.952,284.133,441.978,276,441.978z"/>
<circle style="fill:#BDBDBD;" cx="84.23" cy="147.26" r="47.11"/>
<path style="fill:#A3A3A3;" d="M104.235,174.378c-26.02,0-47.113-21.093-47.113-47.113c0-7.858,1.935-15.261,5.337-21.775
	c-15.055,7.864-25.337,23.614-25.337,41.775c0,26.02,21.093,47.113,47.113,47.113c18.161,0,33.912-10.282,41.775-25.337
	C119.496,172.443,112.093,174.378,104.235,174.378z"/>
<circle style="fill:#BDBDBD;" cx="84.23" cy="342.791" r="47.11"/>
<path style="fill:#A3A3A3;" d="M104.235,369.903c-26.02,0-47.113-21.093-47.113-47.113c0-7.858,1.935-15.261,5.337-21.775
	c-15.055,7.864-25.337,23.614-25.337,41.775c0,26.02,21.093,47.113,47.113,47.113c18.161,0,33.912-10.282,41.775-25.337
	C119.496,367.968,112.093,369.903,104.235,369.903z"/>
<g>
	<circle style="fill:#BDBDBD;" cx="256" cy="245.031" r="66.743"/>
	<circle style="fill:#BDBDBD;" cx="427.76" cy="147.26" r="47.11"/>
</g>
<path style="fill:#A3A3A3;" d="M447.765,174.378c-26.02,0-47.113-21.093-47.113-47.113c0-7.858,1.935-15.261,5.337-21.775
	c-15.055,7.864-25.337,23.614-25.337,41.775c0,26.02,21.093,47.113,47.113,47.113c18.161,0,33.912-10.282,41.775-25.337
	C463.026,172.443,455.624,174.378,447.765,174.378z"/>
<circle style="fill:#BDBDBD;" cx="427.76" cy="342.791" r="47.11"/>
<path style="fill:#A3A3A3;" d="M447.765,369.903c-26.02,0-47.113-21.093-47.113-47.113c0-7.858,1.935-15.261,5.337-21.775
	c-15.055,7.864-25.337,23.614-25.337,41.775c0,26.02,21.093,47.113,47.113,47.113c18.161,0,33.912-10.282,41.775-25.337
	C463.026,367.968,455.624,369.903,447.765,369.903z"/>
<path d="M216.739,236.066c-4.142,0-7.5,3.357-7.5,7.5v7.105c0,4.143,3.358,7.5,7.5,7.5s7.5-3.357,7.5-7.5v-7.105
	C224.239,239.424,220.881,236.066,216.739,236.066z"/>
<path d="M295.26,236.066c-4.143,0-7.5,3.357-7.5,7.5v7.105c0,4.143,3.357,7.5,7.5,7.5s7.5-3.357,7.5-7.5v-7.105
	C302.76,239.424,299.403,236.066,295.26,236.066z"/>
<path d="M270.628,244.532c-3.119-2.728-7.856-2.41-10.583,0.708c-0.959,1.096-2.433,1.725-4.045,1.725
	c-1.612,0-3.086-0.628-4.043-1.724c-2.726-3.118-7.463-3.436-10.583-0.71c-3.119,2.726-3.437,7.464-0.71,10.583
	c3.806,4.354,9.396,6.851,15.336,6.851c5.939,0,11.529-2.497,15.336-6.85C274.063,251.997,273.746,247.258,270.628,244.532z"/>
<path d="M469.125,378.393c8.248-9.568,13.253-22.008,13.253-35.603c0-21.236-12.192-39.667-29.937-48.695v-98.134
	c17.745-9.029,29.937-27.459,29.937-48.695c0-30.114-24.499-54.613-54.613-54.613c-13.563,0-25.978,4.981-35.538,13.196
	l-80.76-33.427c-0.604-8.97-3.366-17.658-8.081-25.329c-2.171-3.529-6.791-4.631-10.317-2.462c-3.528,2.17-4.631,6.789-2.462,10.317
	c3.917,6.371,5.987,13.71,5.987,21.222c0,21.869-18.743,40.595-40.594,40.595c-21.741,0-40.594-18.867-40.594-40.595
	c0-22.384,18.21-40.594,40.594-40.594c5.414,0,10.674,1.051,15.634,3.123c3.819,1.599,8.215-0.206,9.812-4.028
	c1.598-3.821-0.206-8.215-4.028-9.812c-6.801-2.842-14.007-4.283-21.417-4.283c-29.392,0-53.514,22.931-55.453,51.839
	l-80.774,33.433c-9.56-8.215-21.975-13.196-35.538-13.196c-30.114,0-54.613,24.499-54.613,54.613
	c0,21.236,12.192,39.667,29.937,48.695v98.134c-17.745,9.029-29.937,27.459-29.937,48.695c0,13.594,5.004,26.034,13.253,35.603
	L0.566,481.067c-0.953,2.313-0.69,4.95,0.702,7.03c1.393,2.079,3.73,3.327,6.232,3.327h37.155c3.039,0,5.777-1.833,6.935-4.643
	l36.906-89.562c11.896-0.923,22.73-5.669,31.278-13.015l80.773,33.433c1.939,28.91,26.062,51.84,55.453,51.84
	s53.513-22.931,55.453-51.84l80.775-33.432c8.548,7.345,19.382,12.09,31.277,13.014l36.906,89.562
	c1.158,2.81,3.896,4.643,6.935,4.643H504.5c2.502,0,4.84-1.248,6.232-3.327c1.392-2.08,1.655-4.717,0.702-7.03L469.125,378.393z
	 M467.378,342.79c0,17.905-13.202,34.018-30.414,38.412c-18.484,4.719-38.489-5.665-45.775-23.215
	c-0.046-0.109-0.086-0.222-0.131-0.332c-10.336-25.416,9.29-54.478,36.707-54.478C449.214,303.178,467.378,321.174,467.378,342.79z
	 M292.552,372.049c-3.584-3.136-7.57-5.821-11.875-7.962v-49.049c8.866-3.135,16.958-7.909,23.922-13.956l67.116,38.201
	L292.552,372.049z M263.928,358.866c-2.625-0.377-5.277-0.576-7.929-0.576c-3.203,0-6.496,0.282-9.677,0.844v-40.495
	c3.204,0.42,6.446,0.632,9.677,0.632c3.222,0,6.482-0.213,9.677-0.632v40.495C265.096,359.032,264.512,358.949,263.928,358.866z
	 M219.448,372.049l-79.163-32.767l67.116-38.2c6.965,6.046,15.056,10.821,23.922,13.956v49.048
	C227.019,366.228,223.033,368.913,219.448,372.049z M108.912,294.095v-98.134c1.875-0.954,3.691-2.008,5.434-3.165l68.607,39.049
	c-0.771,4.282-1.196,8.682-1.196,13.182s0.425,8.9,1.196,13.182l-68.607,39.049C112.602,296.102,110.787,295.049,108.912,294.095z
	 M219.448,118.007c3.585,3.136,7.571,5.821,11.875,7.963v49.048c-8.866,3.134-16.957,7.909-23.922,13.955l-67.116-38.2
	L219.448,118.007z M256,131.766c3.236,0,6.49-0.282,9.677-0.844v40.495c-3.188-0.42-6.408-0.63-9.624-0.63
	c-0.018,0-0.035-0.001-0.053-0.001s-0.036,0.001-0.054,0.001c-3.214,0.001-6.437,0.213-9.623,0.63v-40.495
	C246.542,130.961,253.351,131.766,256,131.766z M292.552,118.007l79.163,32.766l-67.116,38.2
	c-6.965-6.046-15.056-10.82-23.922-13.955v-49.049C284.982,123.826,288.967,121.143,292.552,118.007z M403.089,195.961v98.134
	c-1.875,0.954-3.691,2.007-5.434,3.164l-68.607-39.049c0.771-4.282,1.196-8.682,1.196-13.182s-0.425-8.9-1.196-13.182l68.607-39.048
	C399.398,193.954,401.214,195.007,403.089,195.961z M376.258,324.608l-61.078-34.765c3.701-4.881,6.775-10.204,9.164-15.823
	c0.031-0.073,0.063-0.146,0.094-0.219c0.108-0.257,0.224-0.512,0.329-0.77l61.073,34.761c-3.461,4.136-6.267,8.752-8.359,13.694
	C377.465,321.523,376.616,323.591,376.258,324.608z M271.01,302.339c-9.764,2.559-20.253,2.56-30.017,0.001
	c-25.671-6.727-44.236-30.791-44.236-57.312c0-31.621,26.78-58.743,58.349-59.22c32.398-0.49,60.137,26.764,60.137,59.22
	C315.243,271.637,296.739,295.595,271.01,302.339z M385.839,182.262l-61.072,34.761c-0.106-0.259-0.221-0.515-0.33-0.773
	c-0.03-0.071-0.06-0.141-0.09-0.211c-2.39-5.622-5.464-10.944-9.166-15.828l61.078-34.764c0.055,0.157,0.119,0.31,0.176,0.466
	c0.044,0.12,0.09,0.238,0.135,0.357c0.272,0.735,0.559,1.462,0.862,2.183c0.018,0.042,0.036,0.084,0.054,0.126
	C379.577,173.517,382.381,178.129,385.839,182.262z M134.568,168.454c0.303-0.721,0.591-1.449,0.863-2.185
	c0.045-0.119,0.091-0.237,0.135-0.357c0.057-0.156,0.121-0.31,0.176-0.466l61.078,34.764c-3.697,4.877-6.768,10.193-9.157,15.807
	c-0.036,0.083-0.072,0.167-0.107,0.25c-0.106,0.252-0.219,0.502-0.323,0.756l-61.073-34.761c3.459-4.133,6.263-8.746,8.355-13.686
	C134.533,168.536,134.551,168.495,134.568,168.454z M126.161,307.793l61.073-34.761c0.105,0.258,0.22,0.513,0.329,0.77
	c0.031,0.073,0.063,0.146,0.094,0.219c2.39,5.62,5.464,10.941,9.164,15.823l-61.079,34.765c-0.373-1.059-0.793-2.106-1.231-3.14
	C132.419,316.533,129.617,311.923,126.161,307.793z M437.441,201.018v88.02c-3.185-0.576-6.441-0.86-9.677-0.86
	c-3.167,0-6.505,0.289-9.676,0.86v-88.02c3.186,0.571,6.439,0.86,9.676,0.86C431,201.878,434.256,201.59,437.441,201.018z
	 M467.378,147.266c0,21.223-18.423,39.612-39.613,39.612c-19.29,0-36.427-14.763-39.193-33.886
	c-3.403-23.527,15.44-45.339,39.193-45.339C449.607,107.652,467.378,125.423,467.378,147.266z M381.178,118.799
	c-1.705,2.787-3.143,5.701-4.326,8.745c-0.999,2.571-1.81,5.233-2.413,7.974c-0.01,0.045-0.022,0.089-0.032,0.134l-71.53-29.606
	c0.172-0.269,0.33-0.545,0.496-0.817c1.602-2.607,2.988-5.343,4.138-8.179c1.161-2.853,2.09-5.822,2.766-8.887l71.531,29.607
	C381.59,118.109,381.388,118.456,381.178,118.799z M201.723,88.164c0.683,3.091,1.621,6.086,2.796,8.962
	c1.251,3.063,2.81,6.105,4.605,8.92l-71.531,29.606c-0.01-0.045-0.022-0.089-0.032-0.134c-1.382-6.278-3.891-12.341-7.37-17.748
	L201.723,88.164z M44.622,147.266c0-21.843,17.77-39.613,39.613-39.613c19.122,0,36.264,14.742,39.145,33.619
	c2.775,18.182-8.09,36.68-25.324,43.11C73.072,193.702,44.622,173.872,44.622,147.266z M74.559,289.037v-88.02
	c3.184,0.576,6.442,0.86,9.676,0.86c3.24,0,6.488-0.287,9.677-0.86v88.02C87.532,287.886,80.939,287.891,74.559,289.037z
	 M70.141,305.778c8.869-3.801,19.249-3.412,28.176-0.004c20.29,7.744,30.773,31.75,22.629,51.875
	c-0.046,0.113-0.087,0.228-0.134,0.34c-6.097,14.607-20.744,24.414-36.576,24.414c-0.223,0-0.442-0.013-0.664-0.017
	c-0.011,0-0.022-0.003-0.034-0.003c-21.206-0.011-38.915-18.626-38.915-39.593C44.622,325.911,55.238,311.472,70.141,305.778z
	 M39.634,476.425H18.702l36.11-87.631c5.438,3.487,11.534,5.994,17.846,7.362c0.016,0.003,0.031,0.008,0.047,0.011L39.634,476.425z
	 M130.831,371.266c1.697-2.778,3.138-5.721,4.316-8.752c1.002-2.577,1.815-5.247,2.419-7.995c0.009-0.039,0.02-0.078,0.028-0.117
	l71.531,29.607c-0.165,0.259-0.317,0.526-0.478,0.788c-3.236,5.264-5.591,11.059-6.923,17.094l-71.531-29.607
	C130.409,371.947,130.622,371.608,130.831,371.266z M256,454.457c-21.575-0.138-40.594-18.031-40.594-40.573
	c0-21.618,18.978-40.594,40.594-40.594c21.577,0,39.984,17.971,40.566,39.512C297.165,434.981,278.249,454.599,256,454.457z
	 M310.277,401.892c-1.311-5.939-3.614-11.66-6.776-16.854c-0.208-0.342-0.41-0.689-0.625-1.027l71.531-29.607
	c0.009,0.039,0.02,0.078,0.028,0.117c1.381,6.285,3.894,12.352,7.373,17.766L310.277,401.892z M472.366,476.425l-33.071-80.258
	c0.025-0.005,0.049-0.012,0.074-0.018c6.094-1.328,12.401-3.881,17.819-7.355l36.11,87.631H472.366z"/>
<g>
</g>
<g>
</g>
<g>
</g>
<g>
</g>
<g>
</g>
<g>
</g>
<g>
</g>
<g>
</g>
<g>
</g>
<g>
</g>
<g>
</g>
<g>
</g>
<g>
</g>
<g>
</g>
<g>
</g>
</svg>
