<?xml version="1.0" encoding="iso-8859-1"?>
<!-- Generator: Adobe Illustrator 19.0.0, SVG Export Plug-In . SVG Version: 6.00 Build 0)  -->
<svg version="1.1" id="Capa_1" xmlns="http://www.w3.org/2000/svg" xmlns:xlink="http://www.w3.org/1999/xlink" x="0px" y="0px"
	 viewBox="0 0 512 512" style="enable-background:new 0 0 512 512;" xml:space="preserve">
<polygon style="fill:#DEDEDE;" points="218.065,110.535 122.283,94.535 26.5,110.535 41.667,143.201 122.333,161.535 
	202.898,143.201 "/>
<g>
	<polygon style="fill:#BDBDBD;" points="61.667,143.201 46.5,110.535 132.283,96.205 122.283,94.535 26.5,110.535 41.667,143.201 
		122.333,161.535 132.327,159.26 	"/>
	<polygon style="fill:#BDBDBD;" points="23,401.512 41.667,143.201 203,143.201 221.667,401.512 221.667,425.458 23,425.458 	"/>
</g>
<polygon style="fill:#A3A3A3;" points="61.667,143.201 41.667,143.201 23,401.512 23,425.458 43,425.458 43,401.512 "/>
<path style="fill:#3B484A;" d="M144.902,269.905c-2.102-10.803-11.564-18.601-22.569-18.601s-20.467,7.798-22.569,18.601
	l-6.381,32.794l28.95,15.17l28.95-15.17L144.902,269.905z"/>
<path style="fill:#BDBDBD;" d="M218.065,65.72c0-2.901-2.352-5.253-5.253-5.253h-10.779c-2.901,0-5.253,2.352-5.253,5.253v13.564
	h-21.285V65.72c0-2.901-2.352-5.253-5.253-5.253h-10.779c-2.901,0-5.253,2.352-5.253,5.253v13.564h-21.285V65.72
	c0-2.901-2.352-5.253-5.253-5.253h-10.779c-2.901,0-5.253,2.352-5.253,5.253v13.564H90.355V65.72c0-2.901-2.352-5.253-5.253-5.253
	H74.323c-2.901,0-5.253,2.352-5.253,5.253v13.564H47.785V65.72c0-2.901-2.352-5.253-5.253-5.253H31.753
	c-2.901,0-5.253,2.352-5.253,5.253v44.814h191.565V65.72z"/>
<path style="fill:#A3A3A3;" d="M47.143,63.253c-0.886-1.65-2.607-2.785-4.611-2.785H31.753c-2.901,0-5.253,2.352-5.253,5.253v44.814
	h20V65.72C46.5,64.823,46.746,63.991,47.143,63.253z"/>
<path style="fill:#BDBDBD;" d="M397.714,231.613L397.714,231.613c-21.364,0-38.682,17.318-38.682,38.682v50.438h77.364v-50.438
	C436.397,248.931,419.078,231.613,397.714,231.613z"/>
<path style="fill:#A3A3A3;" d="M407.714,232.925c-3.191-0.852-6.541-1.312-10-1.312l0,0c-21.364,0-38.682,17.318-38.682,38.682
	v50.438h20v-50.438C379.032,252.39,391.199,237.334,407.714,232.925z"/>
<path style="fill:#BDBDBD;" d="M244.952,231.613L244.952,231.613c21.364,0,38.682,17.318,38.682,38.682v50.438H206.27v-50.438
	C206.27,248.931,223.589,231.613,244.952,231.613z"/>
<path style="fill:#A3A3A3;" d="M254.952,232.925c-3.191-0.852-6.541-1.312-10-1.312l0,0c-21.364,0-38.682,17.318-38.682,38.682
	v50.438h20v-50.438C226.27,252.39,238.437,237.334,254.952,232.925z"/>
<path style="fill:#F7F7F7;" d="M445.535,269.802h-19.26c-5.227,0-9.465,4.238-9.465,9.465v14.466h-38.191v-14.466
	c0-5.228-4.238-9.465-9.465-9.465h-19.26c-5.228,0-9.465,4.238-9.465,9.465v14.466h-38.191v-14.466c0-5.228-4.238-9.465-9.465-9.465
	h-19.26c-5.227,0-9.465,4.238-9.465,9.465v14.466h-38.19v-14.466c0-5.228-4.238-9.465-9.465-9.465h-19.26
	c-5.228,0-9.465,4.238-9.465,9.465v146.191L455,425.454V279.268C455,274.04,450.762,269.802,445.535,269.802z"/>
<g>
	<path style="fill:#DEDEDE;" d="M360.429,279.268c0-5.103,4.041-9.251,9.095-9.447c-0.124-0.005-0.245-0.019-0.37-0.019h-19.26
		c-5.228,0-9.465,4.238-9.465,9.465v14.466h20V279.268z"/>
	<path style="fill:#DEDEDE;" d="M436.81,279.268c0-5.103,4.041-9.251,9.095-9.447c-0.124-0.005-0.245-0.019-0.37-0.019h-19.26
		c-5.227,0-9.465,4.238-9.465,9.465v14.466h20V279.268z"/>
	<path style="fill:#DEDEDE;" d="M207.667,279.268c0-5.103,4.04-9.251,9.095-9.447c-0.124-0.005-0.245-0.019-0.37-0.019h-19.26
		c-5.228,0-9.465,4.238-9.465,9.465v146.191h20L207.667,279.268L207.667,279.268z"/>
	<path style="fill:#DEDEDE;" d="M284.048,279.268c0-5.103,4.041-9.251,9.095-9.447c-0.124-0.005-0.245-0.019-0.37-0.019h-19.26
		c-5.227,0-9.465,4.238-9.465,9.465v14.466h20V279.268z"/>
	<rect x="228.99" y="324.651" style="fill:#DEDEDE;" width="31.925" height="32.13"/>
	<rect x="305.37" y="324.651" style="fill:#DEDEDE;" width="31.925" height="32.13"/>
	<rect x="381.75" y="324.651" style="fill:#DEDEDE;" width="31.925" height="32.13"/>
</g>
<path style="fill:#42C3E2;" d="M7.5,391.914c17.219-9.353,38.003-9.353,55.222,0l0,0c17.219,9.353,38.003,9.353,55.222,0l0,0
	c17.219-9.353,38.003-9.353,55.222,0l0,0c17.219,9.353,38.003,9.353,55.222,0l0,0c17.219-9.353,38.003-9.353,55.222,0l0,0
	c17.219,9.353,38.003,9.353,55.222,0l0,0c17.219-9.353,38.003-9.353,55.222,0l0,0c17.219,9.353,38.003,9.353,55.222,0l0,0
	c17.219-9.353,38.003-9.353,55.222,0l0,0v59.621H7.5V391.914z"/>
<path style="fill:#DEDEDE;" d="M151.283,302.7H93.384c-5.427,0-9.826,4.399-9.826,9.826v20.515h77.552v-20.515
	C161.109,307.099,156.71,302.7,151.283,302.7z"/>
<path d="M228.99,364.288h31.925c4.143,0,7.5-3.357,7.5-7.5v-32.134c0-4.143-3.357-7.5-7.5-7.5H228.99c-4.143,0-7.5,3.357-7.5,7.5
	v32.134C221.49,360.931,224.848,364.288,228.99,364.288z M236.49,332.154h16.925v17.134H236.49V332.154z"/>
<path d="M305.371,364.288h31.925c4.143,0,7.5-3.357,7.5-7.5v-32.134c0-4.143-3.357-7.5-7.5-7.5h-31.925c-4.143,0-7.5,3.357-7.5,7.5
	v32.134C297.871,360.931,301.229,364.288,305.371,364.288z M312.871,332.154h16.925v17.134h-16.925V332.154z"/>
<path d="M381.752,364.288h31.925c4.143,0,7.5-3.357,7.5-7.5v-32.134c0-4.143-3.357-7.5-7.5-7.5h-31.925c-4.143,0-7.5,3.357-7.5,7.5
	v32.134C374.252,360.931,377.609,364.288,381.752,364.288z M389.252,332.154h16.925v17.134h-16.925V332.154z"/>
<path d="M70.8,181.172c-4.143,0-7.5,3.357-7.5,7.5v9.317c0,4.143,3.357,7.5,7.5,7.5s7.5-3.357,7.5-7.5v-9.317
	C78.3,184.529,74.942,181.172,70.8,181.172z"/>
<path d="M181.266,197.989v-9.317c0-4.143-3.357-7.5-7.5-7.5s-7.5,3.357-7.5,7.5v9.317c0,4.143,3.357,7.5,7.5,7.5
	S181.266,202.132,181.266,197.989z"/>
<path d="M122.282,210.463c7.116,0,13.806-2.983,18.354-8.186c2.727-3.119,2.408-7.857-0.71-10.583
	c-3.12-2.726-7.857-2.408-10.583,0.71c-1.699,1.944-4.272,3.059-7.061,3.059c-2.787,0-5.36-1.114-7.06-3.059
	c-2.727-3.119-7.464-3.436-10.583-0.71c-3.118,2.726-3.437,7.464-0.71,10.583C108.478,207.48,115.166,210.463,122.282,210.463z"/>
<path d="M508.08,385.323c-9.545-5.184-20.33-7.924-31.191-7.924c-4.846,0-9.676,0.549-14.389,1.614v-99.746
	c0-9.354-7.61-16.966-16.965-16.966h-2.347c-3.39-19.19-18.755-34.377-37.974-37.563v-11.205h6.374c4.143,0,7.5-3.357,7.5-7.5
	s-3.357-7.5-7.5-7.5h-6.374v-8c0-4.143-3.357-7.5-7.5-7.5s-7.5,3.357-7.5,7.5v8h-6.373c-4.143,0-7.5,3.357-7.5,7.5
	s3.357,7.5,7.5,7.5h6.373v11.204c-19.218,3.185-34.575,18.374-37.964,37.563h-2.356c-9.354,0-16.965,7.611-16.965,16.966v6.966
	h-23.19v-6.966c0-9.354-7.61-16.966-16.965-16.966h-2.347c-3.39-19.19-18.755-34.377-37.974-37.563v-11.204h6.374
	c4.143,0,7.5-3.357,7.5-7.5s-3.357-7.5-7.5-7.5h-6.374v-8c0-4.143-3.357-7.5-7.5-7.5s-7.5,3.357-7.5,7.5v8h-6.373
	c-4.143,0-7.5,3.357-7.5,7.5s3.357,7.5,7.5,7.5h6.373v11.203c-7.564,1.253-14.526,4.366-20.401,8.851l-6.444-89.181
	c0,0,14.252-30.696,14.261-30.716c0.455-0.979,0.697-2.079,0.697-3.158l-0.001-44.814c0-7.031-5.721-12.752-12.752-12.752h-10.779
	c-7.032,0-12.753,5.721-12.753,12.752v6.064h-6.285v-6.064c0-7.031-5.721-12.752-12.753-12.752h-10.779
	c-7.032,0-12.753,5.721-12.753,12.752v6.064h-6.285v-6.064c0-7.031-5.721-12.752-12.753-12.752h-10.779
	c-7.032,0-12.753,5.721-12.753,12.752v6.064h-6.284v-6.064c0-7.031-5.722-12.752-12.754-12.752h-10.78
	c-7.032,0-12.753,5.721-12.753,12.752v6.064h-6.285v-6.064c0-7.031-5.721-12.752-12.753-12.752H31.753
	C24.721,52.968,19,58.689,19,65.72c0,0,0,44.807,0,44.814c0,1.081,0.24,2.177,0.697,3.158l14.349,30.906L22.701,301.585
	c-0.299,4.132,2.809,7.723,6.939,8.021c4.146,0.304,7.723-2.809,8.021-6.939l10.984-151.966h147.378l7.212,99.803
	c-1.406,2.966-2.42,6.058-3.215,9.237c-0.211,0.844-0.389,1.704-0.54,2.561h-2.348c-9.354,0-16.965,7.611-16.965,16.966v107.729
	c-0.125-0.056-0.253-0.104-0.378-0.161c-0.187-0.085-0.372-0.175-0.558-0.263c-0.837-0.396-1.668-0.807-2.484-1.25
	c-19.531-10.607-42.852-10.607-62.383,0c-7.353,3.995-15.663,6.106-24.03,6.106c-7.321,0-14.599-1.616-21.229-4.696
	c-5.758-2.674-11.159-5.534-17.344-7.162c-6.347-1.671-12.945-2.391-19.503-2.101l3.248-44.944c0.299-4.132-2.809-7.723-6.94-8.021
	c-4.119-0.3-7.722,2.809-8.021,6.939l-3.505,48.511c-4.545,1.307-8.95,3.104-13.119,5.368C1.504,386.636,0,389.165,0,391.914v59.62
	c0,4.143,3.357,7.5,7.5,7.5h497c4.143,0,7.5-3.357,7.5-7.5v-59.62C512,389.165,510.496,386.636,508.08,385.323z M397.715,239.112
	c14.354,0,26.569,9.876,30.127,23.189h-1.567c-9.354,0-16.965,7.611-16.965,16.966v6.966h-23.19v-6.966
	c0-9.354-7.61-16.966-16.965-16.966h-1.567C371.145,248.988,383.36,239.112,397.715,239.112z M244.952,239.112
	c14.354,0,26.57,9.876,30.128,23.189h-1.567c-9.354,0-16.965,7.611-16.965,16.966v6.966h-23.19v-6.966
	c0-0.584-0.03-1.163-0.088-1.732c-0.87-8.544-8.107-15.234-16.878-15.234h-1.566C218.383,248.988,230.598,239.112,244.952,239.112z
	 M46.454,135.701l-8.203-17.667h110.494c4.143,0,7.5-3.357,7.5-7.5s-3.357-7.5-7.5-7.5H34V67.968h6.285v11.316
	c0,4.143,3.357,7.5,7.5,7.5H69.07c4.143,0,7.5-3.357,7.5-7.5V67.968h6.285v11.316c0,4.143,3.357,7.5,7.5,7.5h21.284
	c4.143,0,7.5-3.357,7.5-7.5V67.968h6.285v11.316c0,4.143,3.357,7.5,7.5,7.5h21.285c4.143,0,7.5-3.357,7.5-7.5V67.968h6.285v11.316
	c0,4.143,3.357,7.5,7.5,7.5h21.285c4.143,0,7.5-3.357,7.5-7.5V67.968h6.284l0.001,35.066h-31.911c-4.143,0-7.5,3.357-7.5,7.5
	s3.357,7.5,7.5,7.5h27.66l-8.203,17.667H46.454L46.454,135.701z M195.167,279.268c0-1.084,0.882-1.966,1.965-1.966h19.26
	c1.084,0,1.966,0.882,1.966,1.966v14.466c0,4.143,3.357,7.5,7.5,7.5h38.19c4.143,0,7.5-3.357,7.5-7.5v-14.466
	c0-1.084,0.882-1.966,1.965-1.966h19.261c1.083,0,1.965,0.882,1.965,1.966v14.466c0,4.143,3.357,7.5,7.5,7.5h38.19
	c4.143,0,7.5-3.357,7.5-7.5v-14.466c0-1.084,0.882-1.966,1.965-1.966h19.261c1.083,0,1.965,0.882,1.965,1.966v14.466
	c0,4.143,3.357,7.5,7.5,7.5h38.19c4.143,0,7.5-3.357,7.5-7.5v-14.466c0-1.084,0.882-1.966,1.965-1.966h19.261
	c1.083,0,1.965,0.882,1.965,1.966v105.113c-0.606,0.304-1.207,0.619-1.803,0.942c-14.73,7.998-33.332,8.007-48.062,0
	c-19.266-10.473-43.117-10.463-62.383,0c-14.849,8.064-33.213,8.066-48.062,0c-19.273-10.47-43.11-10.467-62.383,0
	c-8.925,4.847-19.454,6.92-29.642,5.771V279.268H195.167z M497,444.034H15v-47.442c3.615-1.573,7.411-2.701,11.288-3.393
	c11.097-1.981,22.943-0.079,32.854,5.306c18.616,10.114,41.557,10.527,60.569,0.947c15.984-8.054,33.744-9.711,49.875-0.947
	c19.269,10.469,43.114,10.465,62.382,0c14.847-8.064,33.218-8.063,48.063,0c19.27,10.467,43.114,10.465,62.382,0
	c15.916-8.644,34.091-6.99,49.866,0.943c18.966,9.538,41.92,9.19,60.578-0.943c13.525-7.346,30.035-8.052,44.143-1.913V444.034z"/>
<path d="M92.402,268.473l-5.443,27.977c-6.379,2.559-10.901,8.794-10.901,16.077v20.514c0,4.143,3.357,7.5,7.5,7.5h77.552
	c4.143,0,7.5-3.357,7.5-7.5v-20.514c0-7.283-4.522-13.519-10.901-16.077l-5.443-27.977c-2.781-14.294-15.369-24.669-29.932-24.669
	C107.771,243.804,95.184,254.179,92.402,268.473z M153.609,325.54H91.058v-13.014c0-1.282,1.044-2.326,2.326-2.326h57.899
	c1.282,0,2.326,1.044,2.326,2.326V325.54z M107.127,271.338c1.412-7.263,7.808-12.534,15.206-12.534s13.795,5.271,15.207,12.534
	l4.644,23.862h-39.7L107.127,271.338z"/>
<g>
</g>
<g>
</g>
<g>
</g>
<g>
</g>
<g>
</g>
<g>
</g>
<g>
</g>
<g>
</g>
<g>
</g>
<g>
</g>
<g>
</g>
<g>
</g>
<g>
</g>
<g>
</g>
<g>
</g>
</svg>
