<?xml version="1.0" encoding="iso-8859-1"?>
<!-- Generator: Adobe Illustrator 19.0.0, SVG Export Plug-In . SVG Version: 6.00 Build 0)  -->
<svg version="1.1" id="Capa_1" xmlns="http://www.w3.org/2000/svg" xmlns:xlink="http://www.w3.org/1999/xlink" x="0px" y="0px"
	 viewBox="0 0 512 512" style="enable-background:new 0 0 512 512;" xml:space="preserve">
<circle style="fill:#FFAC55;" cx="348.59" cy="29.707" r="15.913"/>
<polygon style="fill:#678DBF;" points="348.587,176.741 283.087,176.741 250.337,204.4 283.087,232.059 283.087,232.059 
	315.837,249.206 348.587,232.059 381.337,204.4 "/>
<g>
	<polygon style="fill:#597AA6;" points="217.587,176.741 217.587,232.059 250.337,249.206 283.087,232.059 283.087,232.059 
		283.087,176.741 	"/>
	<polygon style="fill:#597AA6;" points="414.087,176.741 348.587,176.741 348.587,232.059 381.337,249.206 414.087,232.059 
		414.087,232.059 446.837,204.4 	"/>
</g>
<polygon style="fill:#678DBF;" points="414.087,176.741 414.087,232.059 414.087,232.059 446.837,249.206 479.587,232.059 
	479.587,232.059 479.587,176.741 "/>
<polygon style="fill:#FFCE6E;" points="65,232.059 57.436,238.609 50,232.059 7.5,232.059 7.5,313.274 14.103,320.732 7.5,328.274 
	7.5,401.99 14.769,411.275 7.5,416.99 7.5,498.207 50,498.207 58.103,491.941 65,498.207 248.5,498.207 256,493.941 263.5,498.207 
	447,498.207 452.769,491.275 462,498.207 504.5,498.207 504.5,232.059 "/>
<path style="fill:#FFAC55;" d="M217.587,146.706c0,0,38.087-68.5,131-68.5s131,68.5,131,68.5l-131,15.017L217.587,146.706z"/>
<path style="fill:#DB8D49;" d="M257.587,146.708c0,0,32.589-58.594,111-67.393c-6.364-0.714-13.025-1.107-20-1.107
	c-92.913,0-131,68.5-131,68.5l131,15.017l20-2.292L257.587,146.708z"/>
<path style="fill:#FFCE6E;" d="M479.587,146.706h-262c-8.294,0-15.017,6.723-15.017,15.017c0,8.294,6.723,15.017,15.017,15.017h262
	c8.294,0,15.017-6.723,15.017-15.017C494.604,153.43,487.881,146.706,479.587,146.706z"/>
<g>
	<path style="fill:#FFAC55;" d="M242.57,161.724c0-8.293,6.723-15.017,15.017-15.017h-40c-8.294,0-15.017,6.723-15.017,15.017
		c0,8.294,6.723,15.017,15.017,15.017h40C249.293,176.741,242.57,170.018,242.57,161.724z"/>
	<rect x="7.5" y="232.061" style="fill:#FFAC55;" width="84.27" height="266.15"/>
</g>
<path d="M188.488,376.555c4.143,0,7.5-3.357,7.5-7.5v-12.219c0-4.143-3.357-7.5-7.5-7.5s-7.5,3.357-7.5,7.5v12.219
	C180.988,373.197,184.346,376.555,188.488,376.555z"/>
<path d="M323.512,376.555c4.143,0,7.5-3.357,7.5-7.5v-12.219c0-4.143-3.357-7.5-7.5-7.5s-7.5,3.357-7.5,7.5v12.219
	C316.012,373.197,319.369,376.555,323.512,376.555z"/>
<path d="M256,383.077c8.657,0,16.789-3.621,22.31-9.936c2.727-3.118,2.408-7.856-0.71-10.583c-3.12-2.726-7.857-2.408-10.583,0.71
	c-2.672,3.056-6.687,4.809-11.017,4.809s-8.345-1.753-11.017-4.809c-2.725-3.119-7.463-3.437-10.582-0.711
	s-3.438,7.464-0.711,10.582C239.21,379.455,247.342,383.077,256,383.077z"/>
<path d="M504.5,224.56h-17.413v-41.607c8.739-3.097,15.017-11.441,15.017-21.229c0-10.891-7.773-19.998-18.062-22.071
	c-4.045-6.198-14.027-19.885-30.97-33.484c-3.229-2.592-7.949-2.075-10.543,1.154c-2.593,3.229-2.076,7.95,1.154,10.543
	c9.525,7.646,16.621,15.354,21.448,21.343H232.054c14.96-18.494,51.829-53.5,116.533-53.5c25.753,0,49.556,5.509,70.75,16.372
	c3.685,1.89,8.205,0.433,10.095-3.253s0.434-8.206-3.253-10.095c-21.244-10.89-44.794-16.875-70.092-17.861V51.881
	C365.328,48.747,372,39.994,372,29.708c0-12.91-10.503-23.414-23.413-23.414s-23.413,10.504-23.413,23.414
	c0,10.286,6.672,19.039,15.913,22.173v18.987c-46.156,1.824-78.363,20.206-97.563,35.763
	c-16.593,13.444-26.393,26.893-30.393,33.021c-10.289,2.074-18.061,11.182-18.061,22.071c0,9.787,6.278,18.131,15.017,21.229v41.607
	h-73.302c-4.143,0-7.5,3.357-7.5,7.5s3.357,7.5,7.5,7.5H248.5v73.716H65v-73.716h42.081c4.143,0,7.5-3.357,7.5-7.5
	s-3.357-7.5-7.5-7.5H7.5c-4.143,0-7.5,3.357-7.5,7.5v266.148c0,4.143,3.357,7.5,7.5,7.5h497c4.143,0,7.5-3.357,7.5-7.5V232.06
	C512,227.917,508.643,224.56,504.5,224.56z M348.587,21.294c4.639,0,8.413,3.774,8.413,8.414c0,4.639-3.774,8.412-8.413,8.412
	s-8.413-3.773-8.413-8.412C340.174,25.068,343.948,21.294,348.587,21.294z M15,328.274h111.012v73.716H15V328.274z M370.988,328.274
	v73.716H141.012v-73.716H370.988z M248.5,416.99v73.717H65V416.99H248.5z M263.5,416.99H447v73.717H263.5V416.99z M385.988,401.99
	v-73.716H497v73.716H385.988z M497,313.274h-35v-73.716h35V313.274z M421.587,224.56v-40.319h50.5v40.318L421.587,224.56
	L421.587,224.56z M356.087,224.56v-40.319h50.5v40.318L356.087,224.56L356.087,224.56z M290.587,224.56v-40.319h50.5v40.318
	L290.587,224.56L290.587,224.56z M217.587,154.208h262c4.145,0,7.517,3.371,7.517,7.516c0,4.146-3.372,7.518-7.517,7.518h-262
	c-4.145,0-7.517-3.372-7.517-7.518C210.07,157.579,213.442,154.208,217.587,154.208z M225.087,184.241h50.5v40.318h-50.5V184.241z
	 M263.5,239.56H447v73.716H263.5V239.56z M50,239.56v73.716H15V239.56L50,239.56L50,239.56z M15,416.99h35v73.717H15V416.99z
	 M462,490.707V416.99h35v73.717H462z"/>
<g>
</g>
<g>
</g>
<g>
</g>
<g>
</g>
<g>
</g>
<g>
</g>
<g>
</g>
<g>
</g>
<g>
</g>
<g>
</g>
<g>
</g>
<g>
</g>
<g>
</g>
<g>
</g>
<g>
</g>
</svg>
