<?xml version="1.0" encoding="iso-8859-1"?>
<!-- Generator: Adobe Illustrator 19.0.0, SVG Export Plug-In . SVG Version: 6.00 Build 0)  -->
<svg version="1.1" id="Capa_1" xmlns="http://www.w3.org/2000/svg" xmlns:xlink="http://www.w3.org/1999/xlink" x="0px" y="0px"
	 viewBox="0 0 512 512" style="enable-background:new 0 0 512 512;" xml:space="preserve">
<polygon style="fill:#BDBDBD;" points="231.09,32.366 242.437,7.5 269.563,7.5 280.91,32.366 256,56.909 "/>
<g>
	<rect x="231.09" y="32.366" style="fill:#F7F7F7;" width="49.82" height="56.837"/>
	<polygon style="fill:#F7F7F7;" points="439.619,322.848 256,306.862 72.382,322.848 72.382,408.588 256,432.566 439.619,411.979 
		438.174,408.588 439.619,408.588 	"/>
</g>
<g>
	<polygon style="fill:#DEDEDE;" points="57.614,306.863 42.846,322.848 42.846,411.979 57.614,424.573 72.382,411.979 
		72.382,322.848 	"/>
	<polygon style="fill:#DEDEDE;" points="136.968,306.863 122.201,322.848 122.201,411.979 136.968,424.573 151.736,411.979 
		151.736,322.848 	"/>
	<polygon style="fill:#DEDEDE;" points="216.323,306.863 201.555,322.848 201.555,411.979 216.323,424.573 231.09,411.979 
		231.09,322.848 	"/>
	<polygon style="fill:#DEDEDE;" points="295.677,306.863 280.91,322.848 280.91,411.979 295.677,424.573 310.445,411.979 
		310.445,322.848 	"/>
	<polygon style="fill:#DEDEDE;" points="375.032,306.863 360.264,322.848 360.264,411.979 375.032,424.573 389.799,411.979 
		389.799,322.848 	"/>
	<polygon style="fill:#DEDEDE;" points="454.386,306.863 439.619,322.848 439.619,411.979 454.386,424.573 469.154,411.979 
		469.154,322.848 	"/>
</g>
<polygon style="fill:#F7F7F7;" points="42.846,408.588 42.846,440.558 256,456.544 469.153,440.558 469.153,408.588 "/>
<path style="fill:#DEDEDE;" d="M42.846,156.212C113.555,52.065,256,56.909,256,56.909s142.445-4.844,213.153,99.303L256,188.506
	L42.846,156.212z"/>
<polygon style="fill:#F7F7F7;" points="469.154,188.506 494.327,156.212 17.673,156.212 42.846,188.506 256,217.57 "/>
<polygon style="fill:#BDBDBD;" points="42.846,188.506 42.846,290.877 256,306.863 469.154,290.877 469.154,188.506 "/>
<g>
	<rect x="166.55" y="224.79" style="fill:#3B484A;" width="24.354" height="35.441"/>
	<rect x="321.09" y="224.79" style="fill:#3B484A;" width="24.354" height="35.441"/>
</g>
<path style="fill:#DEDEDE;" d="M268.761,214.602c-7.651-6.58-17.871-6.58-25.523,0l-107.292,76.275L256,306.863l120.054-15.985
	L268.761,214.602z"/>
<polygon style="fill:#F7F7F7;" points="211.817,266.657 256,235.247 300.183,266.657 "/>
<g>
	<rect x="115.21" y="224.79" style="fill:#3B484A;" width="24.354" height="35.441"/>
	<rect x="63.859" y="224.79" style="fill:#3B484A;" width="24.354" height="35.441"/>
	<rect x="372.44" y="224.79" style="fill:#3B484A;" width="24.354" height="35.441"/>
	<rect x="423.79" y="224.79" style="fill:#3B484A;" width="24.354" height="35.441"/>
</g>
<polygon style="fill:#F7F7F7;" points="494.328,290.877 469.154,322.848 42.846,322.848 17.673,290.877 "/>
<path style="fill:#DEDEDE;" d="M474.923,440.558H37.077c-10.716,0-19.404,8.687-19.404,19.404v12.567L256,488.515l238.328-15.985
	v-12.567C494.327,449.246,485.64,440.558,474.923,440.558z"/>
<g>
	<rect x="17.673" y="472.53" style="fill:#BDBDBD;" width="476.65" height="31.971"/>
	<rect x="42.846" y="322.85" style="fill:#BDBDBD;" width="29.535" height="18.26"/>
	<rect x="122.2" y="322.85" style="fill:#BDBDBD;" width="29.535" height="18.26"/>
	<rect x="201.56" y="322.85" style="fill:#BDBDBD;" width="29.535" height="18.26"/>
	<rect x="280.91" y="322.85" style="fill:#BDBDBD;" width="29.535" height="18.26"/>
	<rect x="360.26" y="322.85" style="fill:#BDBDBD;" width="29.535" height="18.26"/>
	<rect x="439.62" y="322.85" style="fill:#BDBDBD;" width="29.535" height="18.26"/>
</g>
<g>
	<rect x="72.38" y="322.85" style="fill:#DEDEDE;" width="49.819" height="18.26"/>
	<rect x="151.74" y="322.85" style="fill:#DEDEDE;" width="49.819" height="18.26"/>
	<rect x="231.09" y="322.85" style="fill:#DEDEDE;" width="49.819" height="18.26"/>
	<rect x="310.44" y="322.85" style="fill:#DEDEDE;" width="49.819" height="18.26"/>
	<rect x="389.8" y="322.85" style="fill:#DEDEDE;" width="49.819" height="18.26"/>
</g>
<g>
	<rect x="42.846" y="390.33" style="fill:#BDBDBD;" width="29.535" height="18.26"/>
	<rect x="122.2" y="390.33" style="fill:#BDBDBD;" width="29.535" height="18.26"/>
	<rect x="201.56" y="390.33" style="fill:#BDBDBD;" width="29.535" height="18.26"/>
	<rect x="280.91" y="390.33" style="fill:#BDBDBD;" width="29.535" height="18.26"/>
	<rect x="360.26" y="390.33" style="fill:#BDBDBD;" width="29.535" height="18.26"/>
	<rect x="439.62" y="390.33" style="fill:#BDBDBD;" width="29.535" height="18.26"/>
</g>
<g>
	<rect x="72.38" y="390.33" style="fill:#DEDEDE;" width="49.819" height="18.26"/>
	<rect x="151.74" y="390.33" style="fill:#DEDEDE;" width="49.819" height="18.26"/>
	<rect x="231.09" y="390.33" style="fill:#DEDEDE;" width="49.819" height="18.26"/>
	<rect x="310.44" y="390.33" style="fill:#DEDEDE;" width="49.819" height="18.26"/>
	<rect x="389.8" y="390.33" style="fill:#DEDEDE;" width="49.819" height="18.26"/>
</g>
<path d="M211.817,274.157h88.365c0.007,0,0.013,0,0.02,0c4.142,0,7.5-3.357,7.5-7.5c0-2.678-1.403-5.028-3.515-6.354l-43.842-31.168
	c-2.602-1.85-6.09-1.85-8.691,0l-44.183,31.41c-2.66,1.891-3.792,5.284-2.799,8.394
	C205.665,272.047,208.554,274.157,211.817,274.157z M256,244.449l20.689,14.708h-41.378L256,244.449z"/>
<path d="M139.56,267.735c4.142,0,7.5-3.357,7.5-7.5v-35.441c0-4.143-3.358-7.5-7.5-7.5h-24.354c-4.142,0-7.5,3.357-7.5,7.5v35.441
	c0,4.143,3.358,7.5,7.5,7.5H139.56z M122.706,232.294h9.354v20.441h-9.354C122.706,252.735,122.706,232.294,122.706,232.294z"/>
<path d="M88.213,217.294H63.859c-4.142,0-7.5,3.357-7.5,7.5v35.441c0,4.143,3.358,7.5,7.5,7.5h24.354c4.142,0,7.5-3.357,7.5-7.5
	v-35.441C95.713,220.651,92.355,217.294,88.213,217.294z M80.713,252.735h-9.354v-20.441h9.354V252.735z"/>
<path d="M372.44,267.735h24.354c4.142,0,7.5-3.357,7.5-7.5v-35.441c0-4.143-3.358-7.5-7.5-7.5H372.44c-4.142,0-7.5,3.357-7.5,7.5
	v35.441C364.94,264.378,368.298,267.735,372.44,267.735z M379.94,232.294h9.354v20.441h-9.354V232.294z"/>
<path d="M423.787,267.735h24.354c4.142,0,7.5-3.357,7.5-7.5v-35.441c0-4.143-3.358-7.5-7.5-7.5h-24.354c-4.142,0-7.5,3.357-7.5,7.5
	v35.441C416.287,264.378,419.645,267.735,423.787,267.735z M431.287,232.294h9.354v20.441h-9.354V232.294z"/>
<path d="M168.362,100.233v14.504c0,4.143,3.358,7.5,7.5,7.5s7.5-3.357,7.5-7.5v-14.504c0-4.143-3.358-7.5-7.5-7.5
	S168.362,96.091,168.362,100.233z"/>
<path d="M328.638,100.233v14.504c0,4.143,3.358,7.5,7.5,7.5s7.5-3.357,7.5-7.5v-14.504c0-4.143-3.358-7.5-7.5-7.5
	S328.638,96.091,328.638,100.233z"/>
<path d="M270.132,108.792c-3.437,3.932-8.587,6.187-14.132,6.187c-5.545,0-10.695-2.255-14.133-6.188
	c-2.726-3.119-7.464-3.436-10.583-0.71s-3.437,7.464-0.71,10.583c6.286,7.19,15.553,11.314,25.426,11.314
	c9.873,0,19.141-4.124,25.426-11.315c2.726-3.118,2.408-7.856-0.711-10.582C277.597,105.355,272.858,105.673,270.132,108.792z"/>
<path d="M476.653,433.12V325.446c0,0,23.536-29.89,23.567-29.929c3.807-4.835,0.248-12.14-5.893-12.14h-17.674v-92.292l23.589-30.26
	c1.762-2.261,2.082-5.327,0.824-7.902s-3.873-4.209-6.739-4.209h-21.251c-12.122-17.112-26.931-32.358-44.071-45.357
	c-3.302-2.505-8.006-1.856-10.508,1.443c-2.503,3.301-1.857,8.005,1.443,10.508c12.957,9.827,24.473,21.025,34.369,33.406H57.694
	c34.92-43.634,83.65-64.2,119.74-73.844c42.938-11.475,77.968-10.475,78.314-10.464c0.164,0.004,0.333,0.006,0.5,0
	c0.011,0,0.04-0.001,0.089-0.002c2.947-0.076,74.529-1.366,138.845,34.722c3.613,2.027,8.184,0.741,10.21-2.871
	s0.742-8.184-2.871-10.211C360.83,62.648,317.18,54.118,288.41,51.05V32.366c0-1.072-0.248-2.135-0.676-3.113L276.387,4.387
	C275.167,1.715,272.5,0,269.563,0h-27.127c-2.937,0-5.604,1.715-6.823,4.387l-11.347,24.866c-0.441,0.967-0.677,2.051-0.677,3.113
	v18.722c-13.722,1.477-30.841,4.192-49.577,9.169c-58.427,15.521-105.034,46.069-135.079,88.456h-21.26
	c-2.866,0-5.481,1.634-6.739,4.209s-0.938,5.642,0.824,7.902l23.588,30.26v92.293c0,0-17.617,0-17.674,0
	c-6.146,0-9.695,7.311-5.893,12.14l23.567,29.929V433.12c-14.031,0.896-25.173,12.589-25.173,26.842V504.5
	c0,4.143,3.358,7.5,7.5,7.5h476.654c4.142,0,7.5-3.357,7.5-7.5v-44.538C501.827,445.708,490.684,434.016,476.653,433.12z
	 M247.258,15h17.483l4.501,9.866h-26.487L247.258,15z M238.59,39.866l34.82,0.001v9.94c-9.647-0.56-15.905-0.441-17.413-0.402
	c-1.416-0.035-7.688-0.15-17.407,0.425L238.59,39.866L238.59,39.866z M114.701,330.348v70.74h-34.82v-70.74H114.701z
	 M194.055,330.348v70.74h-34.819v-70.74H194.055z M273.41,330.348v70.74h-34.82v-70.74H273.41z M352.764,330.348v70.74h-34.819
	v-70.74H352.764z M461.653,401.088h-14.535v-70.74h14.535V401.088z M432.119,401.088H397.3v-70.74h34.82v70.74H432.119z
	 M382.299,401.088h-14.535v-70.74h14.535V401.088z M302.945,401.088H288.41v-70.74h14.535V401.088z M223.59,401.088h-14.535v-70.74
	h14.535V401.088z M144.236,401.088h-14.535v-70.74h14.535V401.088z M64.881,401.088H50.347v-70.74h14.535v70.74H64.881z
	 M461.653,416.088v16.971H50.346v-16.971H461.653z M50.346,196.006H87.35c4.142,0,7.5-3.357,7.5-7.5s-3.358-7.5-7.5-7.5H46.509
	l-13.48-17.293h445.942l-13.48,17.293H117.229c-4.142,0-7.5,3.357-7.5,7.5s3.358,7.5,7.5,7.5h344.425v87.371h-83.206l-26.743-19.012
	c0.784-1.185,1.243-2.604,1.243-4.131v-35.44c0-4.143-3.358-7.5-7.5-7.5h-24.354c-4.142,0-7.5,3.357-7.5,7.5v12.478l-40.224-28.596
	c-5.075-4.26-11.072-6.509-17.369-6.509c-6.297,0-12.294,2.249-17.369,6.509l-40.224,28.596v-12.478c0-4.143-3.358-7.5-7.5-7.5
	h-24.354c-4.142,0-7.5,3.357-7.5,7.5v35.44c0,1.527,0.459,2.946,1.243,4.131l-26.743,19.012H50.346V196.006z M176.655,252.734
	h-2.603v-20.44h9.354v15.641L176.655,252.734z M247.584,220.714c2.643-1.879,5.013-3.547,8.415-3.547
	c3.398,0,5.776,1.677,8.416,3.547l88.144,62.663H159.44C159.44,283.377,247.564,220.728,247.584,220.714z M337.947,252.734h-2.603
	l-6.751-4.799v-15.641h9.354V252.734z M478.876,298.377l-13.363,16.971H46.487l-13.363-16.971H478.876z M25.173,459.962
	c0-6.563,5.34-11.903,11.904-11.903h437.847c6.564,0,11.904,5.34,11.904,11.903v5.067H25.173V459.962z M486.827,497H25.173v-16.971
	h461.654V497z"/>
<g>
</g>
<g>
</g>
<g>
</g>
<g>
</g>
<g>
</g>
<g>
</g>
<g>
</g>
<g>
</g>
<g>
</g>
<g>
</g>
<g>
</g>
<g>
</g>
<g>
</g>
<g>
</g>
<g>
</g>
</svg>
