<?xml version="1.0" encoding="iso-8859-1"?>
<!-- Generator: Adobe Illustrator 19.0.0, SVG Export Plug-In . SVG Version: 6.00 Build 0)  -->
<svg version="1.1" id="Capa_1" xmlns="http://www.w3.org/2000/svg" xmlns:xlink="http://www.w3.org/1999/xlink" x="0px" y="0px"
	 viewBox="0 0 512.001 512.001" style="enable-background:new 0 0 512.001 512.001;" xml:space="preserve">
<path style="fill:#E0A993;" d="M155.503,62.876c-4.242-6.738-14.062-6.738-18.304,0L106.98,110.87l39.371,18.844l39.371-18.844
	L155.503,62.876z"/>
<path style="fill:#AE8372;" d="M126.978,110.87l29.372-46.648l-0.847-1.345c-4.242-6.738-14.062-6.738-18.304,0l-30.219,47.994
	l39.371,18.844l10-4.786L126.978,110.87z"/>
<path style="fill:#E0A993;" d="M356.499,62.876c4.242-6.738,14.062-6.738,18.304,0l30.219,47.994l-39.371,18.844l-39.371-18.844
	L356.499,62.876z"/>
<path style="fill:#AE8372;" d="M346.279,110.87l29.372-46.648l-0.847-1.345c-4.242-6.738-14.062-6.738-18.304,0l-30.219,47.994
	l39.371,18.844l10-4.786L346.279,110.87z"/>
<polygon style="fill:#BDBDBD;" points="158.939,149.944 158.939,214.941 256.001,228.975 353.063,214.941 353.063,149.944 "/>
<g>
	<rect x="158.935" y="214.943" style="fill:#678DBF;" width="194.122" height="28.069"/>
	<path style="fill:#678DBF;" d="M7.511,218.472c0.709-0.118,71.221-12.342,101.557-60.505l20.371,12.831
		c-36.18,57.44-118.603,70.885-121.928,71.43l0.015-23.759"/>
	<polygon style="fill:#678DBF;" points="92.588,319.211 7.511,319.211 7.511,343.752 92.588,343.752 106.979,334.354 	"/>
</g>
<rect x="106.977" y="110.867" style="fill:#F7F7F7;" width="78.747" height="232.881"/>
<rect x="106.977" y="110.867" style="fill:#DEDEDE;" width="19.999" height="232.881"/>
<g>
	<path style="fill:#BDBDBD;" d="M146.35,254.481c-8.3,0-15.028,6.729-15.028,15.028v74.244h30.057v-74.244
		C161.379,261.208,154.65,254.481,146.35,254.481z"/>
	<rect x="133.766" y="144.196" style="fill:#BDBDBD;" width="25.179" height="25.179"/>
	<rect x="133.766" y="198.574" style="fill:#BDBDBD;" width="25.179" height="25.179"/>
</g>
<path style="fill:#678DBF;" d="M504.491,218.472c-0.709-0.118-71.221-12.342-101.557-60.505l-20.371,12.831
	c36.18,57.44,118.603,70.885,121.928,71.43l-0.015-23.759"/>
<rect x="326.278" y="110.867" style="fill:#F7F7F7;" width="78.747" height="232.881"/>
<rect x="326.278" y="110.867" style="fill:#DEDEDE;" width="19.999" height="232.881"/>
<g>
	<path style="fill:#BDBDBD;" d="M365.652,254.481c8.3,0,15.028,6.729,15.028,15.028v74.244h-30.057v-74.244
		C350.623,261.208,357.352,254.481,365.652,254.481z"/>
	<rect x="353.067" y="144.196" style="fill:#BDBDBD;" width="25.179" height="25.179"/>
	<rect x="353.067" y="198.574" style="fill:#BDBDBD;" width="25.179" height="25.179"/>
</g>
<g>
	<polygon style="fill:#678DBF;" points="311.889,319.211 200.113,319.211 185.722,331.482 200.113,343.752 311.889,343.752 
		326.28,331.482 	"/>
	<polygon style="fill:#678DBF;" points="419.414,319.211 405.023,334.354 419.414,343.752 504.491,343.752 504.491,319.211 	"/>
</g>
<g>
	<rect x="92.587" y="319.209" style="fill:#DEDEDE;" width="107.526" height="78.267"/>
	<rect x="311.889" y="319.209" style="fill:#DEDEDE;" width="107.526" height="78.267"/>
</g>
<path style="fill:#42C3E2;" d="M9.471,374.632v79.548h495.021v-79.548l0,0c-16.577-9.005-45.768-9.005-62.347,0l0,0
	c-16.577,9.005-36.587,9.005-53.164,0l0,0c-16.577-9.005-36.587-9.005-53.164,0l0,0c-16.577,9.005-36.587,9.005-53.164,0l0,0
	c-16.577-9.005-36.587-9.005-53.164,0l0,0c-16.577,9.005-36.587,9.005-53.164,0l0,0c-16.577-9.005-36.587-9.005-53.164,0l0,0
	c-16.577,9.005-36.587,9.005-53.164,0l0,0C53.419,365.628,26.048,365.628,9.471,374.632L9.471,374.632"/>
<g>
	<rect x="185.724" y="214.943" style="fill:#597AA6;" width="25.338" height="28.069"/>
	<rect x="200.113" y="319.209" style="fill:#597AA6;" width="25.338" height="24.541"/>
	<rect x="286.55" y="319.209" style="fill:#597AA6;" width="25.338" height="24.541"/>
	<rect x="300.939" y="214.943" style="fill:#597AA6;" width="25.338" height="28.069"/>
</g>
<path d="M133.752,176.869h25.177c4.142,0,7.5-3.357,7.5-7.5v-25.178c0-4.143-3.358-7.5-7.5-7.5h-25.177c-4.142,0-7.5,3.357-7.5,7.5
	v25.178C126.252,173.512,129.61,176.869,133.752,176.869z M141.251,151.692h10.178v10.179h-10.178V151.692z"/>
<path d="M133.752,231.246h25.177c4.142,0,7.5-3.357,7.5-7.5v-25.178c0-4.143-3.358-7.5-7.5-7.5h-25.177c-4.142,0-7.5,3.357-7.5,7.5
	v25.178C126.252,227.89,129.61,231.246,133.752,231.246z M141.251,206.068h10.178v10.179h-10.178V206.068z"/>
<path d="M204.352,175.703v7.989c0,4.143,3.358,7.5,7.5,7.5c4.142,0,7.5-3.357,7.5-7.5v-7.989c0-4.143-3.358-7.5-7.5-7.5
	C207.71,168.203,204.352,171.561,204.352,175.703z"/>
<path d="M307.63,183.692v-7.989c0-4.143-3.358-7.5-7.5-7.5c-4.142,0-7.5,3.357-7.5,7.5v7.989c0,4.143,3.358,7.5,7.5,7.5
	C304.272,191.192,307.63,187.834,307.63,183.692z"/>
<path d="M239.45,188.07c4.103,4.693,10.131,7.385,16.541,7.385c6.412,0,12.441-2.691,16.541-7.385
	c2.726-3.119,2.407-7.857-0.712-10.583s-7.857-2.407-10.583,0.712c-1.252,1.434-3.165,2.256-5.247,2.256
	c-2.082,0-3.994-0.822-5.248-2.256c-2.727-3.121-7.464-3.437-10.583-0.711C237.043,180.214,236.724,184.952,239.45,188.07z"/>
<path d="M353.053,176.869h25.177c4.142,0,7.5-3.357,7.5-7.5v-25.178c0-4.143-3.358-7.5-7.5-7.5h-25.177c-4.142,0-7.5,3.357-7.5,7.5
	v25.178C345.553,173.512,348.911,176.869,353.053,176.869z M360.553,151.692h10.178v10.179h-10.178V151.692z"/>
<path d="M353.053,231.246h25.177c4.142,0,7.5-3.357,7.5-7.5v-25.178c0-4.143-3.358-7.5-7.5-7.5h-25.177c-4.142,0-7.5,3.357-7.5,7.5
	v25.178C345.553,227.89,348.911,231.246,353.053,231.246z M360.553,206.068h10.178v10.179h-10.178V206.068z"/>
<path d="M504.481,249.727c3.479-0.01,6.655-2.494,7.369-5.992c0.101-0.495,0.151-1.001,0.151-1.506c0-0.188-0.007-0.373-0.021-0.557
	l-0.014-22.746c0.169-2.788-1.24-5.497-3.73-6.938c-0.782-0.453-1.623-0.764-2.515-0.914c-0.639-0.109-63.28-11.229-93.208-52.342
	c0,0,0-47.458,0-47.467c0-1.734-0.357-3.4-1.42-4.817c0,0-29.937-47.544-29.953-47.569c-7.066-11.222-23.945-11.203-30.998,0
	l-30.219,47.993c-0.745,1.183-1.153,2.597-1.153,3.996v31.574h-66.126c-4.142,0-7.5,3.357-7.5,7.5c0,4.143,3.358,7.5,7.5,7.5h66.126
	v49.998H193.211v-49.998h29.532c4.142,0,7.5-3.357,7.5-7.5c0-4.143-3.358-7.5-7.5-7.5h-29.532v-31.574
	c0-1.402-0.411-2.809-1.153-3.996L161.84,58.879c-3.374-5.358-9.167-8.558-15.499-8.558c-6.333,0-12.126,3.199-15.499,8.558
	c0,0-30.218,47.99-30.219,47.993c-0.744,1.182-1.154,2.598-1.154,3.996v47.864c-29.927,41.11-92.569,52.233-93.206,52.342
	c-0.468,0.081-0.935,0.209-1.38,0.375c-3.023,1.125-5.062,4.111-4.867,7.457c0,0-0.015,23.295-0.015,23.317
	c-0.003,4.552,4.222,8.145,8.717,7.405c0.916-0.15,2.897-0.493,5.729-1.076v63.159H7.501c-4.142,0-7.5,3.357-7.5,7.5v24.541
	c0,4.143,3.358,7.5,7.5,7.5h77.578v21.229c-4.002-0.983-7.88-2.466-11.513-4.439c-19.649-10.674-48.022-10.683-67.685,0
	c-2.416,1.313-3.92,3.842-3.92,6.591v79.548c0,4.143,3.358,7.5,7.5,7.5h495.021c4.142,0,7.5-3.357,7.5-7.5v-79.548
	c0-2.749-1.504-5.278-3.92-6.591c-9.098-4.941-21.439-7.663-34.753-7.663s-25.655,2.722-34.753,7.663
	c-3.674,1.996-7.601,3.487-11.652,4.47v-21.259h77.577c4.142,0,7.5-3.357,7.5-7.5V319.21c0-4.143-3.358-7.5-7.5-7.5h-6.946v-63.159
	c2.831,0.583,4.812,0.926,5.735,1.077C503.676,249.697,504.08,249.728,504.481,249.727z M496.971,224.587l0.005,8.513
	c-8.049-1.806-20.618-5.133-34.735-10.717c-0.343-0.167-0.697-0.316-1.067-0.43c-9.34-3.75-19.312-8.483-29.081-14.413
	c-0.068-0.046-0.14-0.085-0.209-0.129c-6.645-4.046-13.191-8.64-19.371-13.86v-11.998
	C441.184,209.651,481.54,221.071,496.971,224.587z M435.388,311.711v-85.151c5.43,2.831,10.828,5.342,16.074,7.563v77.587
	L435.388,311.711L435.388,311.711z M419.404,311.711h-6.892v-99.165c2.596,1.87,5.226,3.652,7.876,5.349v93.817L419.404,311.711
	L419.404,311.711z M392.551,368.042c-18.67-10.14-41.792-10.14-60.463,0c-3.967,2.155-8.269,3.745-12.708,4.715v-46.046h92.525
	v47.02C405.145,373.214,398.518,371.283,392.551,368.042z M149.732,360.379c-10.479,0-20.974,2.615-30.163,7.663
	c-0.014,0.008-0.029,0.014-0.043,0.022c-5.941,3.22-12.573,5.129-19.302,5.667c-0.049,0.004-0.098,0.01-0.147,0.014v-47.033h92.525
	v46.035c-2.456-0.538-7.292-2.188-7.328-2.202c-1.823-0.732-3.613-1.545-5.34-2.481c-0.014-0.007-0.027-0.014-0.041-0.021
	C170.669,363.055,160.222,360.379,149.732,360.379z M60.52,311.711v-77.587c5.246-2.222,10.645-4.733,16.074-7.564v85.151H60.52z
	 M91.593,311.711v-93.818c2.65-1.697,5.28-3.479,7.876-5.349v99.166h-6.891L91.593,311.711L91.593,311.711z M397.513,311.711h-9.344
	v-42.202c0-12.423-10.106-22.528-22.528-22.528c-12.422,0-22.528,10.106-22.528,22.528v42.202h-9.344V118.369h63.743
	L397.513,311.711L397.513,311.711z M373.17,311.711h-15.057v-42.202c0-4.151,3.377-7.529,7.529-7.529
	c4.152,0,7.529,3.378,7.529,7.529L373.17,311.711L373.17,311.711z M207.602,326.711h96.777v9.542h-96.777L207.602,326.711
	L207.602,326.711z M318.771,311.711h-6.891l-111.758,0.001c-0.007,0-0.013-0.001-0.019-0.001h-6.891v-61.205h125.558
	L318.771,311.711L318.771,311.711z M178.212,311.711h-9.344v-42.202c0-12.423-10.106-22.528-22.528-22.528
	c-12.423,0-22.528,10.106-22.528,22.528v42.202h-9.344V118.369h63.745L178.212,311.711L178.212,311.711z M153.869,311.711h-15.057
	v-42.202c0-4.151,3.377-7.529,7.529-7.529c4.151,0,7.529,3.378,7.529,7.529L153.869,311.711L153.869,311.711z M207.602,351.252
	h96.777v22.366c-6.344-0.645-12.543-2.526-18.157-5.576c-18.631-10.12-41.696-10.117-60.324,0
	c-5.656,3.072-11.905,4.958-18.296,5.589V351.252z M362.836,66.872c1.262-2.004,4.309-2.071,5.612,0l22.98,36.498h-51.573
	C339.855,103.369,362.829,66.882,362.836,66.872z M318.771,222.441v13.066H193.211v-13.066H318.771z M143.534,66.872
	c1.288-2.046,4.334-2.03,5.612,0l22.98,36.498h-51.573L143.534,66.872z M99.469,181.551v11.999
	c-6.196,5.235-12.761,9.84-19.425,13.894c-0.05,0.032-0.102,0.06-0.151,0.093c-9.585,5.819-19.726,10.731-30.152,14.845
	c-14.116,5.583-26.686,8.911-34.735,10.717l0.005-8.514C30.443,221.069,70.8,209.649,99.469,181.551z M29.446,244.914
	c4.816-1.331,10.243-2.983,16.074-5.015v71.811H29.446V244.914z M15,336.252v-9.542h70.078v9.542H15z M445.715,381.224
	c6.837-3.715,16.894-5.845,27.593-5.845c8.805,0,17.174,1.443,23.673,4.023v67.278H16.959v-67.29
	c6.399-2.573,14.448-4.012,22.763-4.012c10.121,0,19.846,2.13,26.684,5.845c18.638,10.126,41.686,10.122,60.324,0
	c14.2-7.712,31.813-7.709,46.005,0c18.483,10.04,41.662,10.135,60.323,0c14.217-7.722,31.788-7.723,46.005,0
	c18.64,10.125,41.682,10.125,60.324,0c14.19-7.708,31.676-7.711,45.866,0C403.907,391.359,427.064,391.357,445.715,381.224z
	 M496.982,336.253h-70.078v-9.543h70.078V336.253z M482.536,311.711h-16.074V239.9c5.832,2.031,11.259,3.684,16.074,5.015V311.711z"
	/>
<g>
</g>
<g>
</g>
<g>
</g>
<g>
</g>
<g>
</g>
<g>
</g>
<g>
</g>
<g>
</g>
<g>
</g>
<g>
</g>
<g>
</g>
<g>
</g>
<g>
</g>
<g>
</g>
<g>
</g>
</svg>
