<?xml version="1.0" encoding="iso-8859-1"?>
<!-- Generator: Adobe Illustrator 19.0.0, SVG Export Plug-In . SVG Version: 6.00 Build 0)  -->
<svg version="1.1" id="Capa_1" xmlns="http://www.w3.org/2000/svg" xmlns:xlink="http://www.w3.org/1999/xlink" x="0px" y="0px"
	 viewBox="0 0 511.999 511.999" style="enable-background:new 0 0 511.999 511.999;" xml:space="preserve">
<path style="fill:#678DBF;" d="M256.005,134.461c-19.891-16.605-41.012-31.48-61.213-44.491c-10.362-6.673-23.645-6.673-34.007,0
	c-60.078,38.693-128.299,93.88-148.085,162.024c-14.28,49.181,1.826,116.721,35.354,159.276
	c7.861,9.978,19.891,15.764,32.593,15.764h156.421C237.069,427.034,295.272,167.241,256.005,134.461z"/>
<g>
	<path style="fill:#597AA6;" d="M80.648,392.163c-2.037,0-3.983-0.924-5.203-2.473c-27.213-34.539-40.063-90.751-29.256-127.972
		c13.269-45.699,57.542-93.206,131.6-141.217c74.058,48.012,118.332,95.517,131.601,141.217
		c10.807,37.22-2.044,93.432-29.258,127.972c-1.22,1.548-3.164,2.472-5.201,2.472H80.648V392.163z"/>
	<path style="fill:#597AA6;" d="M256.005,134.461c-7.888-6.584-15.972-12.886-24.112-18.918
		c-48.546,41.527-78.732,83.824-91.584,128.086c-8.35,28.753-8.591,62.339-0.698,97.127c7.248,31.95,21.113,62.427,39.161,86.278
		h58.296C237.069,427.034,295.272,167.24,256.005,134.461z"/>
</g>
<path style="fill:#527099;" d="M280.132,389.69c27.214-34.54,40.064-90.753,29.258-127.972
	c-11.499-39.601-46.297-80.559-103.566-122.027c-33.478,33.785-55.143,68.222-65.513,103.938
	c-8.35,28.753-8.591,62.339-0.698,97.127c4.061,17.9,10.211,35.332,17.994,51.407H274.93
	C276.967,392.163,278.912,391.238,280.132,389.69z"/>
<path style="fill:#42C3E2;" d="M499.299,251.994c-19.786-68.144-88.007-123.33-148.085-162.023c-10.362-6.673-23.645-6.673-34.007,0
	c-60.078,38.693-128.299,93.879-148.085,162.023c-14.28,49.181,1.826,116.721,35.354,159.276
	c7.861,9.978,19.891,15.764,32.593,15.764h194.283c12.702,0,24.732-5.786,32.593-15.764
	C497.473,368.715,513.579,301.174,499.299,251.994z"/>
<path style="fill:#3AACC7;" d="M244.479,411.27c-33.528-42.555-49.634-110.096-35.354-159.276
	C228.583,184.98,294.881,130.5,354.212,91.911c-1.001-0.651-2-1.298-2.997-1.94c-10.362-6.673-23.645-6.673-34.007,0
	c-60.078,38.693-128.299,93.879-148.085,162.023c-14.28,49.18,1.826,116.721,35.354,159.276
	c7.861,9.978,19.891,15.764,32.593,15.764h40.002C264.369,427.034,252.339,421.247,244.479,411.27z"/>
<path d="M253.434,277.128c-4.142,0-7.5,3.357-7.5,7.5v14.624c0,4.143,3.358,7.5,7.5,7.5c4.143,0,7.5-3.357,7.5-7.5v-14.624
	C260.935,280.485,257.577,277.128,253.434,277.128z"/>
<path d="M407.535,284.628v14.624c0,4.143,3.357,7.5,7.5,7.5c4.143,0,7.5-3.357,7.5-7.5v-14.624c0-4.143-3.357-7.5-7.5-7.5
	C410.893,277.128,407.535,280.485,407.535,284.628z"/>
<path d="M348.531,293.298c-3.478,3.978-8.689,6.259-14.296,6.259s-10.818-2.281-14.296-6.259c-2.724-3.119-7.463-3.436-10.583-0.711
	c-3.119,2.726-3.438,7.464-0.711,10.583c6.325,7.237,15.652,11.389,25.59,11.389s19.264-4.15,25.59-11.389
	c2.727-3.118,2.408-7.856-0.711-10.583C355.995,289.861,351.256,290.178,348.531,293.298z"/>
<path d="M445.706,154.635c-23.833-23.932-53.404-47.149-90.405-70.98c-12.796-8.24-29.333-8.24-42.131,0
	c-21.441,13.81-40.373,27.415-57.153,41.07c-16.875-13.737-35.624-27.214-57.137-41.07c-12.71-8.186-29.429-8.18-42.131,0
	c-37,23.83-66.572,47.048-90.404,70.98c-31.062,31.192-51.525,63.241-60.822,95.257c-14.688,50.586,0.732,120.403,36.665,166.01
	c9.324,11.835,23.351,18.622,38.484,18.622h156.421h194.283c15.134,0,29.161-6.787,38.483-18.622
	c7.542-9.572,14.337-20.463,20.194-32.371c1.829-3.717,0.298-8.213-3.419-10.041c-3.717-1.833-8.214-0.299-10.041,3.419
	c-5.395,10.966-11.625,20.961-18.518,29.709c-6.46,8.202-16.192,12.905-26.701,12.905H237.093c-10.508,0-20.24-4.703-26.702-12.905
	c-28.637-36.349-43.422-87.692-37.824-133.697c6.561-54.742,47.635-98.931,88.265-132.714c0.065-0.054,0.122-0.116,0.185-0.172
	c17.419-14.533,37.363-29.013,60.274-43.768c7.863-5.063,18.024-5.063,25.887,0c36.083,23.238,64.835,45.794,87.898,68.953
	c29.267,29.388,48.459,59.283,57.045,88.854c7.915,27.264,6.182,62.299-4.755,96.125c-1.273,3.941,0.888,8.171,4.829,9.445
	c3.944,1.27,8.171-0.889,9.445-4.829c11.837-36.608,13.618-74.853,4.886-104.923C497.231,217.876,476.768,185.828,445.706,154.635z
	 M80.672,419.523c-10.508,0-20.24-4.703-26.702-12.905C21.338,365.201,6.703,299.622,19.928,254.076
	c8.587-29.572,27.779-59.468,57.045-88.855c23.062-23.159,51.814-45.715,87.897-68.953c7.823-5.038,18.064-5.038,25.886,0
	c20.097,12.944,37.703,25.525,53.568,38.289c-5.19,4.51-10.157,9.034-14.906,13.579c-14.232-11.299-30.182-22.693-47.524-33.937
	c-2.482-1.609-5.678-1.609-8.16,0c-13.706,8.886-26.616,17.909-38.371,26.821c-3.301,2.502-3.948,7.206-1.446,10.508
	c2.502,3.301,7.206,3.949,10.509,1.446c10.294-7.803,21.507-15.703,33.39-23.522c14.809,9.748,28.521,19.582,40.895,29.333
	c-0.049,0.051-0.096,0.101-0.144,0.152c-19.471,20.351-36.856,43.132-48.472,68.925c-17.609,39.101-16.899,82.807-4.486,123.355
	c0.028,0.091,0.058,0.182,0.086,0.272c3.475,11.391,7.904,22.517,13.243,33.164H81.059c-25.668-32.87-37.806-85.846-27.643-120.852
	c8.702-29.969,31.896-61.28,68.937-93.066c3.144-2.697,3.505-7.432,0.808-10.576c-2.697-3.145-7.433-3.505-10.577-0.808
	C73.292,193.066,48.539,226.8,39.009,259.617c-11.41,39.297,2.017,98.467,30.567,134.703c2.629,3.339,6.777,5.332,11.095,5.332
	h106.626c3.507,5.676,7.271,11.123,11.311,16.249c0.96,1.218,2.05,2.474,3.148,3.621H80.672V419.523z"/>
<g>
</g>
<g>
</g>
<g>
</g>
<g>
</g>
<g>
</g>
<g>
</g>
<g>
</g>
<g>
</g>
<g>
</g>
<g>
</g>
<g>
</g>
<g>
</g>
<g>
</g>
<g>
</g>
<g>
</g>
</svg>
