<?xml version="1.0" encoding="iso-8859-1"?>
<!-- Generator: Adobe Illustrator 19.0.0, SVG Export Plug-In . SVG Version: 6.00 Build 0)  -->
<svg version="1.1" id="Capa_1" xmlns="http://www.w3.org/2000/svg" xmlns:xlink="http://www.w3.org/1999/xlink" x="0px" y="0px"
	 viewBox="0 0 512 512" style="enable-background:new 0 0 512 512;" xml:space="preserve">
<rect x="82.23" y="303.01" style="fill:#3B484A;" width="347.54" height="184.42"/>
<g>
	<polygon style="fill:#BDBDBD;" points="82.228,303.015 51.18,330.613 51.18,467.237 81.45,485.868 113.277,467.237 
		113.277,330.613 	"/>
	<polygon style="fill:#BDBDBD;" points="429.772,303.015 460.82,330.613 460.82,467.237 430.55,485.868 398.723,467.237 
		398.723,330.613 	"/>
	<polygon style="fill:#BDBDBD;" points="169.114,310.416 153.931,330.613 153.931,467.237 169.114,487.434 184.297,467.237 
		184.297,330.613 	"/>
	<polygon style="fill:#BDBDBD;" points="342.886,310.416 327.703,330.613 327.703,467.237 342.886,487.434 358.069,467.237 
		358.069,330.613 	"/>
	<polygon style="fill:#BDBDBD;" points="256,310.416 240.817,330.613 240.817,467.237 256,487.434 271.183,467.237 271.183,330.613 
			"/>
</g>
<g>
	<polygon style="fill:#A3A3A3;" points="398.723,330.613 398.723,360.612 460.82,360.612 460.82,360.612 460.82,330.613 
		429.772,303.015 	"/>
	<polygon style="fill:#A3A3A3;" points="358.069,360.612 358.069,330.613 342.886,310.416 327.703,330.613 327.703,360.612 	"/>
	<polygon style="fill:#A3A3A3;" points="271.183,360.612 271.183,330.613 256,310.416 240.817,330.613 240.817,360.612 	"/>
	<polygon style="fill:#A3A3A3;" points="184.297,360.612 184.297,330.613 169.114,310.416 153.931,330.613 153.931,360.612 	"/>
	<polygon style="fill:#A3A3A3;" points="51.18,330.613 51.18,360.612 51.18,360.612 113.277,360.612 113.277,330.613 
		82.228,303.015 	"/>
</g>
<path style="fill:#DEDEDE;" d="M460.82,253.549h-38.73L256,221.393L89.91,253.549H51.18c-8.755,0-15.852,7.097-15.852,15.852v45.361
	c0,8.755,7.097,15.852,15.852,15.852h409.64c8.755,0,15.852-7.097,15.852-15.852V269.4
	C476.672,260.645,469.575,253.549,460.82,253.549z"/>
<polygon style="fill:#BDBDBD;" points="89.91,103.637 89.91,253.549 194.272,253.549 256,221.393 317.728,253.549 422.09,253.549 
	422.09,103.637 "/>
<rect x="89.91" y="124.9" style="fill:#A3A3A3;" width="332.18" height="94.34"/>
<path style="fill:#DEDEDE;" d="M450.29,154.901H61.71c-5.11,0-9.252,4.142-9.252,9.252v15.833c0,5.11,4.142,9.252,9.252,9.252
	h388.58c5.11,0,9.252-4.142,9.252-9.252v-15.833C459.542,159.043,455.4,154.901,450.29,154.901z"/>
<path style="fill:#BDBDBD;" d="M386.598,7.5H125.402c-12.939,0-23.428,10.489-23.428,23.428v72.709h308.053V30.928
	C410.026,17.989,399.537,7.5,386.598,7.5z"/>
<rect x="194.27" y="189.24" style="fill:#3B484A;" width="123.46" height="64.31"/>
<g>
	<path style="fill:#DEDEDE;" d="M450.29,90.58H288.683v-5.792c0-6.21-5.034-11.244-11.244-11.244h-42.877
		c-6.21,0-11.244,5.034-11.244,11.244v5.792H61.71c-5.11,0-9.252,4.142-9.252,9.252v15.833c0,5.11,4.142,9.252,9.252,9.252h388.58
		c5.11,0,9.252-4.142,9.252-9.252V99.832C459.542,94.722,455.4,90.58,450.29,90.58z"/>
	<rect x="35.33" y="467.24" style="fill:#DEDEDE;" width="441.34" height="37.26"/>
</g>
<path d="M194.272,25.113c-4.143,0-7.5,3.357-7.5,7.5v11.172c0,4.143,3.357,7.5,7.5,7.5s7.5-3.357,7.5-7.5V32.613
	C201.772,28.471,198.415,25.113,194.272,25.113z"/>
<path d="M317.728,51.285c4.143,0,7.5-3.357,7.5-7.5V32.613c0-4.143-3.357-7.5-7.5-7.5s-7.5,3.357-7.5,7.5v11.172
	C310.228,47.928,313.585,51.285,317.728,51.285z"/>
<path d="M256,57.248c8.103,0,15.713-3.392,20.882-9.305c2.727-3.118,2.408-7.856-0.711-10.582c-3.118-2.729-7.856-2.408-10.582,0.71
	c-2.32,2.654-5.815,4.177-9.589,4.177s-7.269-1.522-9.589-4.177c-2.726-3.119-7.465-3.436-10.582-0.71
	c-3.119,2.726-3.438,7.464-0.711,10.582C240.287,53.856,247.897,57.248,256,57.248z"/>
<path d="M460.82,246.049h-31.23v-49.311h20.7c9.237,0,16.752-7.515,16.752-16.752v-15.833c0-9.237-7.515-16.753-16.752-16.753h-20.7
	v-14.982h20.7c9.237,0,16.752-7.516,16.752-16.753V99.832c0-9.237-7.515-16.752-16.752-16.752h-32.764V30.928
	C417.526,13.874,403.651,0,386.598,0H125.402c-17.054,0-30.929,13.874-30.929,30.928V83.08H61.71
	c-9.237,0-16.752,7.515-16.752,16.752v15.833c0,9.237,7.515,16.753,16.752,16.753h20.7V147.4h-20.7
	c-9.237,0-16.752,7.516-16.752,16.753v15.833c0,9.237,7.515,16.752,16.752,16.752h20.7v49.311H51.18
	c-12.876,0-23.352,10.476-23.352,23.352v45.361c0,10.252,6.645,18.977,15.852,22.109v122.866h-8.352c-4.143,0-7.5,3.357-7.5,7.5
	V504.5c0,4.143,3.357,7.5,7.5,7.5h441.344c4.143,0,7.5-3.357,7.5-7.5v-37.264c0-4.143-3.357-7.5-7.5-7.5h-8.352V336.871
	c9.207-3.132,15.852-11.856,15.852-22.109V269.4C484.172,256.524,473.696,246.049,460.82,246.049z M414.59,246.049h-89.362v-49.311
	h89.362V246.049z M201.772,196.738h108.455v49.311H201.772V196.738z M109.474,30.928c0-8.782,7.146-15.928,15.929-15.928h261.195
	c8.783,0,15.929,7.146,15.929,15.928V83.08H296.105c-0.865-9.539-8.906-17.037-18.667-17.037h-42.877
	c-9.761,0-17.802,7.498-18.667,17.037h-106.42V30.928z M59.958,115.665V99.832c0-0.966,0.786-1.752,1.752-1.752h161.607
	c4.143,0,7.5-3.357,7.5-7.5v-5.793c0-2.064,1.68-3.744,3.744-3.744h42.877c2.064,0,3.744,1.68,3.744,3.744v5.793
	c0,4.143,3.357,7.5,7.5,7.5H450.29c0.966,0,1.752,0.786,1.752,1.752v15.833c0,0.967-0.786,1.753-1.752,1.753H61.71
	C60.744,117.418,59.958,116.632,59.958,115.665z M97.41,132.418h317.18V147.4H97.41V132.418z M59.958,179.986v-15.833
	c0-0.967,0.786-1.753,1.752-1.753h388.58c0.966,0,1.752,0.786,1.752,1.753v15.833c0,0.966-0.786,1.752-1.752,1.752H61.71
	C60.744,181.738,59.958,180.952,59.958,179.986z M58.68,338.113h47.098v121.623H58.68V338.113z M146.431,338.113v121.623h-25.653
	V338.113H146.431z M233.316,338.113v121.623h-41.519V338.113H233.316z M320.202,338.113v121.623h-41.519V338.113H320.202z
	 M391.223,338.113v121.623H365.57V338.113H391.223z M350.569,459.736h-15.367V338.113h15.367V459.736z M263.684,459.736h-15.367
	V338.113h15.367V459.736z M176.798,459.736h-15.367V338.113h15.367V459.736z M469.172,497H42.828v-22.264h426.344V497z
	 M406.223,459.736V338.113h47.098v121.623L406.223,459.736L406.223,459.736z M469.172,314.762c0,4.605-3.746,8.352-8.352,8.352
	H51.18c-4.605,0-8.352-3.746-8.352-8.352V269.4c0-4.605,3.746-8.352,8.352-8.352h68.842c4.143,0,7.5-3.357,7.5-7.5
	s-3.357-7.5-7.5-7.5H97.41v-49.311h89.362v49.311h-36.903c-4.143,0-7.5,3.357-7.5,7.5s3.357,7.5,7.5,7.5H460.82
	c4.605,0,8.352,3.746,8.352,8.352V314.762z"/>
<g>
</g>
<g>
</g>
<g>
</g>
<g>
</g>
<g>
</g>
<g>
</g>
<g>
</g>
<g>
</g>
<g>
</g>
<g>
</g>
<g>
</g>
<g>
</g>
<g>
</g>
<g>
</g>
<g>
</g>
</svg>
