<?xml version="1.0" encoding="iso-8859-1"?>
<!-- Generator: Adobe Illustrator 19.0.0, SVG Export Plug-In . SVG Version: 6.00 Build 0)  -->
<svg version="1.1" id="Capa_1" xmlns="http://www.w3.org/2000/svg" xmlns:xlink="http://www.w3.org/1999/xlink" x="0px" y="0px"
	 viewBox="0 0 512.001 512.001" style="enable-background:new 0 0 512.001 512.001;" xml:space="preserve">
<path style="fill:#597AA6;" d="M481.676,480.37L398.532,336.57V166.981C334.575,122.211,256,125.163,256,125.163
	s-78.576-2.951-142.533,41.818V336.57L30.323,480.37H481.676z"/>
<g>
	<path style="fill:#DEDEDE;" d="M164.141,229.124c0,0-9.932-50.029-46.733-96.218c-1.87-2.347-4.713-3.716-7.716-3.716H99.464
		c-6.256,0-10.94,5.755-9.643,11.877c9.298,43.86,31.932,201.711-82.34,347.284h28.324c0,0,58.624-58.025,112.913-151.779
		l39.67-46.365L164.141,229.124z"/>
	<path style="fill:#DEDEDE;" d="M347.858,229.124c0,0,9.932-50.029,46.733-96.218c1.87-2.347,4.713-3.716,7.716-3.716h10.228
		c6.256,0,10.94,5.755,9.643,11.877c-9.298,43.86-31.932,201.711,82.34,347.284h-28.324c0,0-58.624-58.025-112.913-151.779
		l-39.67-46.365L347.858,229.124z"/>
</g>
<g>
	<path style="fill:#BDBDBD;" d="M227.441,207.401c0,0-17.249-70.101-53.325-112.503c-1.526-1.793-3.753-2.836-6.108-2.836H155.53
		c-5.448,0-9.283,5.334-7.567,10.507c13.181,39.733,49.556,188.612-60.993,385.784h33.806c0,0,61.328-68.946,102.387-193.787
		L256,259.264L227.441,207.401z"/>
	<path style="fill:#BDBDBD;" d="M284.558,207.401c0,0,17.249-70.101,53.325-112.503c1.526-1.793,3.753-2.836,6.108-2.836h12.478
		c5.448,0,9.283,5.334,7.567,10.507c-13.181,39.733-49.556,188.612,60.993,385.784h-33.806c0,0-61.328-68.946-102.387-193.787
		L256,259.264L284.558,207.401z"/>
</g>
<path style="fill:#DEDEDE;" d="M245.344,488.35c0,0-22.236-110.112-22.236-201.678s22.236-201.678,22.236-201.678h21.312
	c0,0,22.236,110.112,22.236,201.678S266.655,488.35,266.655,488.35H245.344z"/>
<path d="M197.494,229.723c-4.143,0-7.501,3.357-7.501,7.501v10.585c0,4.143,3.357,7.501,7.501,7.501s7.501-3.357,7.501-7.501
	v-10.585C204.995,233.08,201.638,229.723,197.494,229.723z"/>
<path d="M314.466,229.723c-4.143,0-7.501,3.357-7.501,7.501v10.585c0,4.143,3.357,7.501,7.501,7.501
	c4.143,0,7.501-3.357,7.501-7.501v-10.585C321.966,233.08,318.609,229.723,314.466,229.723z"/>
<path d="M275.351,241.424c-3.119-2.727-7.859-2.407-10.584,0.712c-2.123,2.429-5.325,3.822-8.787,3.822
	c-3.461,0-6.664-1.394-8.789-3.823c-2.726-3.119-7.465-3.436-10.584-0.71c-3.118,2.726-3.437,7.465-0.71,10.584
	c4.973,5.688,12.293,8.951,20.082,8.951c7.791,0,15.11-3.263,20.083-8.952C278.788,248.888,278.47,244.15,275.351,241.424z"/>
<path d="M459.845,401.468c-1.741-3.758-6.2-5.39-9.96-3.65c-3.758,1.742-5.393,6.201-3.65,9.96
	c11.804,25.463,26.296,49.984,43.172,73.071h-10.083c-9.522-9.849-49.53-52.643-90.995-117.529
	c-4.896-7.667-17.007-27.814-18.039-29.59c-8.814-34.989-13.832-69.945-14.923-103.936c0.011-0.048,0.019-0.085,0.031-0.138
	c0.018-0.077,0.039-0.169,0.059-0.255c0.028-0.123,0.056-0.247,0.089-0.388c2.018-8.637,13.273-51.75,44.893-91.435
	c0.443-0.556,1.134-0.888,1.849-0.888c0,0,10.229,0,10.23,0c1.469,0.001,2.608,1.377,2.303,2.819
	c-7.708,36.359-21.216,132.574,19.711,240.462c1.471,3.874,5.801,5.82,9.674,4.353c3.873-1.47,5.821-5.8,4.353-9.674
	c-39.517-104.169-26.495-196.968-19.063-232.03c1.089-5.134-0.183-10.42-3.488-14.5c-3.313-4.087-8.23-6.432-13.491-6.432h-10.229
	c-5.319,0-10.271,2.385-13.582,6.541c-4.478,5.62-8.564,11.286-12.296,16.909c-4.547-2.28-9.243-4.428-14.034-6.447
	c2.948-14.782,6.24-26.173,8.759-33.764c1.564-4.714,0.764-9.931-2.14-13.954c-2.9-4.017-7.591-6.415-12.546-6.415H343.97
	c-4.551,0-8.859,1.996-11.82,5.477c-8.39,9.861-15.819,21.196-22.294,32.847c-9.834-1.919-19.743-3.328-29.59-4.215
	c-3.5-21.272-6.201-34.776-6.278-35.16c-0.707-3.499-3.781-6.016-7.353-6.016h-3.155V54.5h10.611c4.143,0,7.501-3.357,7.501-7.501
	s-3.357-7.501-7.501-7.501H263.48V23.653c0-4.143-3.357-7.501-7.501-7.501s-7.501,3.357-7.501,7.501v15.848h-10.611
	c-4.143,0-7.501,3.357-7.501,7.501s3.357,7.501,7.501,7.501h10.611v22.992h-3.155c-3.57,0-6.646,2.517-7.353,6.016
	c-0.077,0.383-2.778,13.888-6.278,35.16c-9.836,0.886-19.734,2.293-29.557,4.208c-6.439-11.578-13.868-22.9-22.326-32.841
	c-2.961-3.48-7.271-5.477-11.821-5.477h-12.478c-4.955,0-9.646,2.398-12.545,6.415c-2.904,4.022-3.705,9.24-2.141,13.953
	c2.518,7.591,5.812,18.98,8.761,33.764c-4.791,2.019-9.487,4.167-14.036,6.448c-3.731-5.624-7.818-11.29-12.295-16.909
	c-3.312-4.157-8.263-6.542-13.582-6.542H99.444c-5.262,0-10.179,2.345-13.491,6.432c-3.306,4.08-4.577,9.366-3.488,14.499
	c2.296,10.835,5.37,28.52,6.98,51.24c0.293,4.132,3.887,7.248,8.012,6.953c4.132-0.293,7.245-3.879,6.953-8.012
	c-1.67-23.577-4.873-41.993-7.269-53.295c-0.307-1.459,0.832-2.816,2.305-2.816h10.229c0.715,0,1.405,0.332,1.849,0.889
	c31.67,39.748,42.913,82.941,44.903,91.479c0.008,0.033,0.014,0.06,0.021,0.091c0.05,0.215,0.094,0.407,0.131,0.575
	c0.006,0.024,0.01,0.045,0.015,0.068c-1.091,33.991-6.109,68.948-14.923,103.938c-4.582,7.874-16.608,27.344-17.862,29.312
	c-41.493,64.976-81.632,107.932-91.173,117.807H22.556c68.604-93.808,83.143-191.177,82.961-257.536
	c-0.012-4.136-3.367-7.48-7.522-7.48c-4.143,0.012-7.492,3.378-7.48,7.522c0.183,66.848-15.102,166.28-88.954,260.363
	c-3.796,4.836-0.229,12.132,5.899,12.132c0,0,28.288,0,28.324,0c4.635,0,8.015-4.941,10.875-7.98c0,0,32.779,0,32.819,0
	c-0.479,0.006,0.923,4.136,1.173,4.554c1.278,2.141,3.846,3.424,6.298,3.424c0,0,33.761,0,33.807,0c4.709,0,7.555-4.725,10.196-7.98
	h106.633c0.233,1.201,0.369,1.883,0.386,1.964c0.707,3.499,3.781,6.016,7.353,6.016h21.313c3.57,0,6.645-2.517,7.353-6.016
	c0.016-0.081,0.153-0.763,0.386-1.964h106.631c2.604,3.207,4.22,5.045,4.593,5.464c1.423,1.601,3.462,2.516,5.604,2.516
	c0,0,33.806,0,33.825,0c4.143,0,7.501-3.357,7.501-7.501c0-0.163-0.025-0.319-0.035-0.479c0,0,32.805,0,32.807,0.002
	c2.933,3.114,6.105,7.978,10.873,7.978H504.5c2.87,0,5.489-1.639,6.745-4.22c1.255-2.582,0.927-5.653-0.846-7.912
	C490.261,458.066,473.254,430.393,459.845,401.468z M356.533,181.013c0.756-9.206,1.82-18.265,3.189-27.146
	c2.964,1.302,5.879,2.661,8.737,4.07C363.805,165.95,359.858,173.731,356.533,181.013z M302.62,136.794
	c-5.889,12.077-10.763,24.003-14.618,34.527c-1.556-12.232-3.313-24.702-5.264-37.34
	C289.333,134.674,296.025,135.621,302.62,136.794z M229.224,133.981c-1.951,12.643-3.71,25.119-5.266,37.355
	c-3.811-10.443-8.663-22.389-14.584-34.546C215.959,135.618,222.638,134.673,229.224,133.981z M152.238,153.866
	c1.369,8.882,2.433,17.943,3.189,27.148c-3.325-7.283-7.272-15.063-11.926-23.075C146.358,156.528,149.275,155.169,152.238,153.866z
	 M124.484,389.364c-7.639,20.899-16.609,41.813-26.863,62.62c-0.042,0.084-0.084,0.169-0.126,0.254
	c-3.359,6.799-6.986,13.844-10.625,20.633H60.318C75.886,455.162,99.393,426.559,124.484,389.364z M99.629,480.849
	c0.784-1.458,9.066-17.368,12.29-23.953c16.952-34.621,29.485-67.578,38.57-98.523c0.023-0.079,0.046-0.157,0.069-0.236
	c20.244-69.774,27.833-144.284,14.902-216.147c-0.006-0.033-0.017-0.064-0.023-0.097c-3.362-18.597-7.394-32.704-10.374-41.688
	c-0.026-0.08-0.081-0.246,0.066-0.45c0.14-0.194,0.297-0.194,0.382-0.194h12.479c0.146,0,0.289,0.071,0.396,0.196
	c31.959,37.565,48.985,98.899,51.443,108.234c-2.302,23.712-3.674,45.737-4.098,65.693c0,6.445-0.174,12.886-0.104,19.332
	c0.001,0.125,0.001,0.249,0.002,0.375c-0.69,2.083-4.07,11.964-5.086,14.816c-0.021,0.06-0.042,0.12-0.064,0.18
	c-35.369,99.164-82.676,159.723-93.2,172.462L99.629,480.849L99.629,480.849z M142.438,472.87
	c18.138-24.919,48.473-72.134,74.78-139.616c3.711,57,12.845,113.124,17.578,139.616H142.438z M251.516,480.85
	c-4.336-23.023-19.398-107.905-20.82-183.024c-0.231-12.228-0.068-24.464,0.428-36.684c0.006-0.156,0.012-0.311,0.018-0.467
	c2.898-71.112,16.32-146.664,20.373-168.179h8.929c4.052,21.517,17.474,97.067,20.373,168.179c0.006,0.157,0.012,0.312,0.018,0.468
	c0.489,12.037,0.655,24.484,0.428,36.683c-1.421,75.119-16.483,160.002-20.82,183.025L251.516,480.85L251.516,480.85z
	 M277.165,472.87c4.732-26.491,13.867-82.615,17.578-139.617c26.307,67.482,56.64,114.698,74.78,139.617H277.165z M394.679,480.85
	c-10.517-12.709-57.734-73.074-93.147-172.323c-0.681-1.903-4.175-12.042-5.2-15.136c0.001-0.125,0.001-0.249,0.002-0.375
	c0.067-6.23,0.033-12.46-0.092-18.689c-0.004-0.214-0.007-0.428-0.012-0.643c-0.423-19.955-1.795-41.981-4.098-65.693
	c2.461-9.344,19.496-70.683,51.443-108.233c0.106-0.126,0.251-0.197,0.396-0.197h12.479c0.085,0,0.241,0,0.382,0.194
	c0.147,0.204,0.093,0.37,0.066,0.45c-2.98,8.982-7.011,23.086-10.373,41.68c-0.007,0.035-0.019,0.069-0.025,0.105
	c-9.439,52.999-7.87,107.408,1.66,160.274c3.392,18.816,7.845,37.443,13.218,55.79c0.037,0.125,0.072,0.249,0.109,0.373
	c9.086,30.936,21.617,63.883,38.565,98.491c3.943,8.053,8.032,16.034,12.279,23.931L394.679,480.85L394.679,480.85z M425.089,472.87
	c-0.151-0.282-0.298-0.563-0.449-0.844c-3.481-6.516-6.865-13.086-10.135-19.711c-0.066-0.134-0.133-0.269-0.199-0.402
	c-10.24-20.785-19.199-41.673-26.83-62.55c25.091,37.197,48.599,65.799,64.166,83.507L425.089,472.87L425.089,472.87z"/>
<g>
</g>
<g>
</g>
<g>
</g>
<g>
</g>
<g>
</g>
<g>
</g>
<g>
</g>
<g>
</g>
<g>
</g>
<g>
</g>
<g>
</g>
<g>
</g>
<g>
</g>
<g>
</g>
<g>
</g>
</svg>
