<?xml version="1.0" encoding="iso-8859-1"?>
<!-- Generator: Adobe Illustrator 19.0.0, SVG Export Plug-In . SVG Version: 6.00 Build 0)  -->
<svg version="1.1" id="Capa_1" xmlns="http://www.w3.org/2000/svg" xmlns:xlink="http://www.w3.org/1999/xlink" x="0px" y="0px"
	 viewBox="0 0 511.999 511.999" style="enable-background:new 0 0 511.999 511.999;" xml:space="preserve">
<path style="fill:#736F7B;" d="M122.479,498.787c-7.263,3.653-15.455,5.713-24.128,5.713s-16.865-2.06-24.128-5.713
	c-2.063-1.038-3.155-3.359-2.608-5.614l14.49-59.751c0.893-3.683,3.288-6.795,6.481-8.52H88.7c-5.33,0-9.651-4.346-9.651-9.707
	v-77.656c0-5.361,4.321-9.707,9.651-9.707h19.302c5.33,0,9.651,4.346,9.651,9.707v77.656c0,5.361-4.321,9.707-9.651,9.707h-3.835
	c3.097,1.639,5.467,4.547,6.34,8.148l14.58,60.123C125.634,495.428,124.543,497.749,122.479,498.787z"/>
<path style="fill:#AA4141;" d="M454.815,298.711L454.815,298.711H57.187l0,0c0-120.789,79.286-227.074,194.588-260.852l0,0
	c2.76-0.808,5.691-0.808,8.451,0l0,0C375.529,71.637,454.815,177.922,454.815,298.711z"/>
<g>
	<path style="fill:#D24A4A;" d="M348.652,298.711L348.652,298.711H163.35l0,0c0-109.413,30.317-206.924,75.963-249.426
		c-4.582-4.417-7.44-10.63-7.44-17.518c0-13.402,10.803-24.267,24.128-24.267c13.326,0,24.128,10.865,24.128,24.268
		c0,6.888-2.858,13.101-7.44,17.518C318.335,91.787,348.652,189.298,348.652,298.711z"/>
	<path style="fill:#D24A4A;" d="M463.501,240.762v86.777c0,5.523-4.477,10-10,10h-395c-5.523,0-10-4.477-10-10v-86.777
		c0-5.523,4.477-10,10-10h395C459.024,230.762,463.501,235.239,463.501,240.762z"/>
</g>
<path style="fill:#FF4B4B;" d="M432.617,240.762v86.777c0,5.523-4.477,10-10,10H58.501c-5.523,0-10-4.477-10-10v-86.777
	c0-5.523,4.477-10,10-10h364.116C428.14,230.762,432.617,235.239,432.617,240.762z"/>
<path style="fill:#FFCF65;" d="M284.954,284.15c0,16.083-12.963,29.121-28.953,29.121s-28.953-13.038-28.953-29.121
	s12.963-29.121,28.953-29.121C271.991,255.029,284.954,268.067,284.954,284.15z"/>
<path d="M453.85,223.262h-1.847c-23.397-83.838-84.69-152.197-165.227-184.188c0.552-2.348,0.854-4.792,0.854-7.306
	C287.629,14.251,273.44,0,256.001,0s-31.628,14.251-31.628,31.768c0,2.515,0.302,4.959,0.854,7.308
	C144.734,71.05,83.398,139.409,59.995,223.262h-1.842c-9.457,0-17.151,7.719-17.151,17.207v87.363
	c0,9.488,7.694,17.207,17.151,17.207h13.396v70.156c0,6.295,3.397,11.795,8.438,14.795c-0.384,0.945-0.705,1.926-0.951,2.94
	l-14.229,58.678c-1.366,5.625,1.299,11.375,6.479,13.981c8.457,4.254,17.563,6.41,27.064,6.41s18.607-2.156,27.065-6.41
	c5.18-2.606,7.844-8.355,6.479-13.98l-14.317-59.044c-0.217-0.895-0.511-1.751-0.842-2.588c5.029-3.003,8.417-8.496,8.417-14.782
	v-70.156h328.695c9.457,0,17.151-7.719,17.151-17.207v-87.363C471.001,230.98,463.307,223.262,453.85,223.262z M239.988,59.146
	c4.701,2.784,10.173,4.389,16.013,4.389c5.835,0,11.303-1.602,16-4.382c31.144,32.326,54.326,91.702,64.142,164.108H175.865
	C185.624,151.6,209.243,91.125,239.988,59.146z M256.001,15c9.169,0,16.628,7.521,16.628,16.768s-7.459,16.767-16.628,16.767
	c-9.169,0-16.628-7.521-16.628-16.768S246.831,15,256.001,15z M222.122,56.652c-30.033,36.084-52.01,95.449-61.39,166.609H75.603
	C97.672,148.771,151.512,87.691,222.122,56.652z M108.003,417.402H88.7c-1.187,0-2.151-0.99-2.151-2.207v-11.914h23.605v11.914
	C110.154,416.412,109.189,417.402,108.003,417.402z M110.154,388.281H86.549V374.16h23.605V388.281z M105.852,496.379v-22.941
	c0-4.143-3.357-7.5-7.5-7.5s-7.5,3.357-7.5,7.5v22.941c-3.775-0.627-7.442-1.726-10.965-3.305l13.728-56.607
	c0.527-2.175,2.266-3.835,4.228-4.037c2.427-0.248,4.583,1.296,5.159,3.672l13.815,56.973
	C113.293,494.653,109.626,495.751,105.852,496.379z M110.154,359.16H86.549v-14.121h23.605V359.16z M456.001,327.832
	c0,1.217-0.965,2.207-2.151,2.207H58.152c-1.187,0-2.151-0.99-2.151-2.207v-87.363c0-1.217,0.965-2.207,2.151-2.207h318.167
	c4.143,0,7.5-3.357,7.5-7.5s-3.357-7.5-7.5-7.5h-25.051c-9.364-70.969-31.416-130.56-61.436-166.649
	c70.672,31.042,124.491,92.151,146.562,166.649H404.95c-4.143,0-7.5,3.357-7.5,7.5s3.357,7.5,7.5,7.5h48.899
	c1.187,0,2.151,0.99,2.151,2.207v87.363H456.001z M256.001,247.529c-20.101,0-36.453,16.428-36.453,36.621
	s16.353,36.621,36.453,36.621s36.453-16.428,36.453-36.621S276.102,247.529,256.001,247.529z M256.001,305.771
	c-11.829,0-21.453-9.699-21.453-21.621s9.624-21.621,21.453-21.621c11.829,0,21.453,9.699,21.453,21.621
	S267.83,305.771,256.001,305.771z"/>
<g>
</g>
<g>
</g>
<g>
</g>
<g>
</g>
<g>
</g>
<g>
</g>
<g>
</g>
<g>
</g>
<g>
</g>
<g>
</g>
<g>
</g>
<g>
</g>
<g>
</g>
<g>
</g>
<g>
</g>
</svg>
