<?xml version="1.0" encoding="iso-8859-1"?>
<!-- Generator: Adobe Illustrator 19.0.0, SVG Export Plug-In . SVG Version: 6.00 Build 0)  -->
<svg version="1.1" id="Capa_1" xmlns="http://www.w3.org/2000/svg" xmlns:xlink="http://www.w3.org/1999/xlink" x="0px" y="0px"
	 viewBox="0 0 511.999 511.999" style="enable-background:new 0 0 511.999 511.999;" xml:space="preserve">
<polygon style="fill:#FF6835;" points="75.65,201.88 42.857,244.505 72.021,265.603 436.349,265.603 469.143,244.505 
	436.349,201.88 256,179.973 "/>
<polygon style="fill:#E65E30;" points="111.824,197.486 75.65,201.879 42.857,244.505 63.926,259.747 "/>
<rect x="64.612" y="260.328" style="fill:#FF6835;" width="382.782" height="156.275"/>
<path style="fill:#E65E30;" d="M447.389,260.329H64.611v49.997c9.258,2.104,18.892,3.182,28.817,3.182h325.144
	c9.925,0,19.559-1.077,28.817-3.182L447.389,260.329L447.389,260.329z"/>
<g>
	<rect x="48.321" y="265.768" style="fill:#FF462E;" width="32.576" height="140.924"/>
	<rect x="134.954" y="265.768" style="fill:#FF462E;" width="32.576" height="140.924"/>
	<rect x="431.103" y="265.768" style="fill:#FF462E;" width="32.576" height="140.924"/>
	<rect x="344.461" y="265.768" style="fill:#FF462E;" width="32.576" height="140.924"/>
	<path style="fill:#FF462E;" d="M391.613,32.008H120.387c-5.032,0-9.112,4.079-9.112,9.112v23.44L256,82.554L400.725,64.56V41.12
		C400.725,36.088,396.645,32.008,391.613,32.008z"/>
</g>
<path style="fill:#E63F29;" d="M147.469,64.56V41.12c0-5.032,4.08-9.112,9.112-9.112h-36.194c-5.032,0-9.112,4.08-9.112,9.112v23.44
	L256,82.554l18.097-2.25L147.469,64.56z"/>
<polygon style="fill:#FF6835;" points="75.65,121.734 111.274,64.56 400.725,64.56 436.349,121.734 436.349,145.225 404.82,157.014 
	100.564,157.014 75.65,138.207 "/>
<polygon style="fill:#E65E30;" points="99.323,141.83 147.469,64.56 111.274,64.56 75.65,121.734 75.65,138.207 99.323,156.078 "/>
<polygon style="fill:#2FC8B4;" points="75.65,162.588 75.65,201.88 436.349,201.88 436.349,162.588 436.349,145.225 404.82,157.014 
	100.564,157.014 "/>
<polygon style="fill:#00AE95;" points="132.565,157.014 100.564,157.014 75.65,162.588 75.65,201.879 107.651,201.879 
	107.651,162.588 "/>
<g>
	<path style="fill:#A3A3A3;" d="M160.721,393.427H34.404c-9.21,0-16.678,7.466-16.678,16.678v69.887h84.737
		c5.546-2.331,88.384-43.282,88.384-43.282L160.721,393.427z"/>
	<path style="fill:#A3A3A3;" d="M351.279,393.427h126.317c9.21,0,16.678,7.466,16.678,16.678v69.887h-84.737
		c-5.546-2.331-88.384-43.282-88.384-43.282L351.279,393.427z"/>
</g>
<g>
	<path style="fill:#E63F29;" d="M48.322,305.408c10.313,3.923,21.218,6.451,32.576,7.515v-47.151H48.322V305.408z"/>
	<rect x="134.954" y="265.768" style="fill:#E63F29;" width="32.576" height="47.734"/>
	<rect x="344.461" y="265.768" style="fill:#E63F29;" width="32.576" height="47.734"/>
	<path style="fill:#E63F29;" d="M431.1,312.923c11.359-1.064,22.264-3.592,32.576-7.515v-39.636H431.1V312.923z"/>
</g>
<g>
	<path style="fill:#FF462E;" d="M418.572,283.506H93.428c-61.388,0-84.963-51.544-85.936-53.738l29.777-13.211l-0.047-0.106
		c0.649,1.408,16.368,34.479,56.206,34.479h325.144c40.44,0,56.006-34.029,56.159-34.373l29.777,13.211
		C503.534,231.963,479.96,283.506,418.572,283.506z"/>
	<path style="fill:#FF462E;" d="M390.649,173.923H121.351c-61.388,0-84.963-51.544-85.936-53.738l29.777-13.211l-0.047-0.106
		c0.649,1.408,16.368,34.479,56.206,34.479h269.298c40.44,0,56.006-34.029,56.159-34.373l29.777,13.211
		C475.612,122.379,452.037,173.923,390.649,173.923z"/>
</g>
<path style="fill:#3B484A;" d="M289.134,310.199h-66.268c-8.944,0-16.196,7.251-16.196,16.197v85.647h98.66v-85.647
	C305.329,317.451,298.078,310.199,289.134,310.199z"/>
<g>
	<polygon style="fill:#DEDEDE;" points="160.721,393.427 160.721,422.282 256,436.709 351.279,422.282 351.279,393.427 	"/>
	<polygon style="fill:#DEDEDE;" points="377.042,451.137 256,436.709 134.958,451.137 102.463,451.137 102.463,479.992 
		409.536,479.992 409.536,451.137 	"/>
</g>
<rect x="134.954" y="422.283" style="fill:#BDBDBD;" width="242.088" height="28.855"/>
<path d="M182.281,112.821c4.143,0,7.5-3.358,7.5-7.5V91.977c0-4.142-3.357-7.5-7.5-7.5c-4.143,0-7.5,3.358-7.5,7.5v13.343
	C174.78,109.463,178.139,112.821,182.281,112.821z"/>
<path d="M329.735,112.821c4.143,0,7.5-3.358,7.5-7.5V91.977c0-4.142-3.357-7.5-7.5-7.5c-4.143,0-7.5,3.358-7.5,7.5v13.343
	C322.235,109.463,325.592,112.821,329.735,112.821z"/>
<path d="M256.008,119.943c9.257,0,17.948-3.869,23.845-10.615c2.726-3.119,2.407-7.856-0.712-10.583
	c-3.117-2.726-7.856-2.409-10.583,0.711c-3.047,3.487-7.621,5.486-12.549,5.486c-4.928,0-9.502-2-12.549-5.486
	c-2.727-3.119-7.464-3.437-10.583-0.711c-3.119,2.726-3.438,7.464-0.712,10.583C238.06,116.073,246.751,119.943,256.008,119.943z"/>
<path d="M50.149,222.738c-3.987-4.964-5.904-8.986-6.108-9.428c-1.727-3.742-6.149-5.387-9.898-3.693
	c-0.395,0.178-0.766,0.387-1.113,0.621L4.458,222.913c-1.818,0.807-3.241,2.303-3.956,4.159c-0.716,1.856-0.664,3.92,0.143,5.739
	c0.708,1.596,12.465,27.319,40.186,44.027v109.088h-6.419c-13.331,0-24.178,10.846-24.178,24.178v69.887c0,4.142,3.357,7.5,7.5,7.5
	H494.28c4.143,0,7.5-3.358,7.5-7.5v-69.887c0-13.331-10.846-24.178-24.178-24.178h-6.419V276.838
	c27.721-16.708,39.478-42.43,40.187-44.027c1.658-3.737-0.087-8.245-3.813-9.898l-29.776-13.211
	c-3.747-1.664-8.152,0.029-9.869,3.751c-0.202,0.438-2.092,4.402-6.028,9.307l-18.027-23.432v-32.443
	c27.288-16.715,38.887-42.071,39.591-43.657c1.661-3.741-0.081-8.242-3.813-9.898l-29.776-13.211
	c-3.782-1.679-8.188-0.029-9.87,3.752c-0.137,0.297-1.051,2.216-2.844,4.944l-28.911-46.399V41.12
	c0-9.16-7.452-16.613-16.612-16.613H186.657c-4.143,0-7.5,3.358-7.5,7.5s3.357,7.5,7.5,7.5h204.964c0.889,0,1.611,0.723,1.611,1.612
	v15.939h-274.45V41.12c0-0.889,0.723-1.612,1.611-1.612h36.368c4.143,0,7.5-3.358,7.5-7.5s-3.357-7.5-7.5-7.5h-36.368
	c-9.159,0-16.612,7.452-16.612,16.613v21.295l-28.899,46.38c-1.844-2.795-2.781-4.767-2.921-5.069
	c-1.899-4.115-7.26-5.598-11.01-3.074c0,0-28.559,12.671-28.572,12.677c-3.733,1.657-5.472,6.16-3.813,9.898
	c0.704,1.585,12.302,26.943,39.591,43.657v32.443L50.149,222.738z M55.832,284.202c5.404,2.097,11.255,3.807,17.575,4.988v96.735
	H55.832V284.202z M93.437,291.007h34.029v94.92H88.407v-95.035C88.587,290.9,92.533,291.007,93.437,291.007z M336.974,291.007v94.92
	h-24.136v-59.531c0-13.066-10.63-23.697-23.696-23.697h-66.268c-13.065,0-23.696,10.63-23.696,23.697v59.531h-24.136v-94.92H336.974
	z M418.579,291.007c1.498,0,4.85-0.107,5.029-0.115v95.035h-39.059v-94.92H418.579z M369.549,385.927h-17.576v-94.92h17.576V385.927
	z M369.549,443.636H142.466v-13.854H369.55L369.549,443.636L369.549,443.636z M168.23,414.782v-13.854h175.556v13.854H168.23z
	 M297.837,385.927h-83.659v-59.531c0-4.795,3.9-8.696,8.695-8.696h66.268c4.795,0,8.695,3.901,8.695,8.696V385.927z
	 M160.042,385.927h-17.576v-94.92h17.576V385.927z M25.235,410.103c0-5.06,4.116-9.177,9.177-9.177h118.817v13.854h-18.264
	c-4.143,0-7.5,3.358-7.5,7.5v21.355h-24.994c-4.143,0-7.5,3.358-7.5,7.5v21.355H25.235V410.103z M109.972,458.637h292.072v13.854
	H109.972V458.637z M486.781,410.103v62.387h-69.736v-21.355c0-4.142-3.357-7.5-7.5-7.5h-24.994v-21.355c0-4.142-3.357-7.5-7.5-7.5
	h-18.264v-13.854h118.817C482.664,400.927,486.781,405.043,486.781,410.103z M456.184,385.927H438.61v-96.735
	c6.319-1.182,12.17-2.892,17.575-4.988V385.927z M442.211,238.314c-7.362,3.41-15.497,5.115-23.632,5.115h-60.577
	c-4.143,0-7.5,3.358-7.5,7.5c0,4.142,3.357,7.5,7.5,7.5h60.577c9.615,0,19.273-1.834,28.103-5.679
	c7.268-3.165,13.953-7.556,19.743-12.972c0.277-0.259,9.056-10.079,11.406-13.644l16.258,7.213
	c-5.089,8.372-15.844,22.791-33.899,32.522c-0.022,0.012-0.045,0.019-0.067,0.031c-12.712,6.853-27.141,10.106-41.543,10.106H93.437
	c-14.383,0-28.849-3.261-41.543-10.106c-0.022-0.012-0.045-0.019-0.067-0.031c-18.056-9.731-28.81-24.15-33.899-32.522l16.25-7.209
	c2.381,3.623,5.948,8.322,10.832,13.01c10.477,10.055,24.042,16.679,38.443,18.619c3.309,0.446,6.645,0.664,9.984,0.664h234.627
	c4.143,0,7.5-3.358,7.5-7.5c0-4.142-3.357-7.5-7.5-7.5H93.437c-4.078,0-8.156-0.396-12.147-1.239
	c-0.017-0.004-0.035-0.007-0.053-0.011c-7.277-1.547-14.175-4.62-20.175-9.024l18.29-23.775h353.314l18.295,23.781
	C448.215,235.174,445.28,236.892,442.211,238.314z M115.447,72.06h281.122l30.22,48.5c-6.295,5.476-15.262,10.824-27.299,12.638
	c-0.01,0.001-0.019,0.002-0.029,0.004c-2.915,0.429-5.857,0.645-8.803,0.645H121.358c-13.265,0-26.097-4.569-36.124-13.297
	L115.447,72.06z M45.851,123.764l16.249-7.209c1.85,2.815,4.414,6.28,7.755,9.884c13.221,14.263,32.067,22.409,51.504,22.409
	h269.299c19.416,0,37.853-7.811,51.162-21.959c0.76-0.808,8.075-10.343,8.092-10.336l16.254,7.212
	c-5.041,8.29-15.642,22.507-33.382,32.233c-0.012,0.007-0.025,0.011-0.037,0.017c-12.832,7.05-27.487,10.408-42.088,10.408
	c0,0-269.279,0-269.299,0C90.344,166.423,61.929,150.209,45.851,123.764z M92.226,177.458c9.333,2.67,19.329,3.965,29.132,3.965
	h269.299c13.024,0,26.071-2.243,38.199-7.04v19.997H83.159c0,0,0-19.997,0.01-19.993C86.052,175.527,89.065,176.554,92.226,177.458z
	"/>
<g>
</g>
<g>
</g>
<g>
</g>
<g>
</g>
<g>
</g>
<g>
</g>
<g>
</g>
<g>
</g>
<g>
</g>
<g>
</g>
<g>
</g>
<g>
</g>
<g>
</g>
<g>
</g>
<g>
</g>
</svg>
