<?xml version="1.0" encoding="iso-8859-1"?>
<!-- Generator: Adobe Illustrator 19.0.0, SVG Export Plug-In . SVG Version: 6.00 Build 0)  -->
<svg version="1.1" id="Capa_1" xmlns="http://www.w3.org/2000/svg" xmlns:xlink="http://www.w3.org/1999/xlink" x="0px" y="0px"
	 viewBox="0 0 512 512" style="enable-background:new 0 0 512 512;" xml:space="preserve">
<polygon style="fill:#A3A3A3;" points="51.249,328.785 29.374,307.314 7.5,328.785 7.5,383.311 29.374,403.763 51.249,386.664 
	75.449,357.487 "/>
<g>
	<polygon style="fill:#D9D9D9;" points="256,328.785 112.336,302.731 51.249,328.785 51.249,386.664 121.007,445.424 
		241.439,445.424 256,422.172 288.033,365.827 	"/>
	<polygon style="fill:#D9D9D9;" points="478.291,308.773 460.752,328.785 436.551,357.487 460.752,386.664 482.626,403.763 
		504.5,383.311 504.5,328.785 	"/>
</g>
<path style="fill:#BDBDBD;" d="M492.411,35.513h-31.044c-6.676,0-12.089,5.412-12.089,12.089v24.69h-55.222v-24.69
	c0-6.677-5.412-12.089-12.089-12.089h-31.044c-6.677,0-12.089,5.412-12.089,12.089v24.69h-55.222v-24.69
	c0-6.677-5.412-12.089-12.089-12.089h-31.044c-6.677,0-12.089,5.412-12.089,12.089v24.69h-55.222v-24.69
	c0-6.677-5.412-12.089-12.089-12.089h-31.044c-6.677,0-12.089,5.412-12.089,12.089v24.69H62.722v-24.69
	c0-6.677-5.412-12.089-12.089-12.089H19.589c-6.677,0-12.089,5.412-12.089,12.089v59.047l76.686,55.534h333.922l86.393-55.534
	V47.602C504.5,40.926,499.088,35.513,492.411,35.513z"/>
<polygon style="fill:#D9D9D9;" points="460.752,106.649 418.107,162.183 460.752,217.717 482.626,237.37 504.5,217.717 
	504.5,106.649 "/>
<polygon style="fill:#A3A3A3;" points="51.249,106.649 7.5,106.649 7.5,217.717 29.374,243.842 51.249,217.717 84.186,162.183 "/>
<polygon style="fill:#D9D9D9;" points="256,106.649 51.249,106.649 51.249,217.717 112.336,250.313 256,217.717 293.857,162.183 "/>
<g>
	<polygon style="fill:#A3A3A3;" points="256,106.649 256,217.717 351.452,243.842 460.752,217.717 460.752,106.649 	"/>
	<polygon style="fill:#A3A3A3;" points="399.664,298.848 256,328.785 256,422.172 270.561,445.424 390.993,445.424 460.752,386.664 
		460.752,328.785 	"/>
</g>
<g>
	<polygon style="fill:#BDBDBD;" points="112.336,217.717 7.5,217.717 7.5,328.785 112.336,328.784 143.398,277.102 	"/>
	<polygon style="fill:#BDBDBD;" points="399.664,217.717 368.602,277.102 399.664,328.784 504.5,328.785 504.5,217.717 	"/>
</g>
<path style="fill:#00AE95;" d="M232.168,431.667C191.063,397.702,107.871,390.628,7.5,383.31v93.176h151.789l75.225-18.847
	L232.168,431.667z"/>
<path style="fill:#2FC8B4;" d="M504.5,476.487V383.31c-154.312,0-285.109,38.129-345.211,93.176H504.5V476.487z"/>
<rect x="112.34" y="217.72" style="fill:#949494;" width="287.33" height="111.07"/>
<path d="M169.607,287.667c4.143,0,7.5-3.358,7.5-7.5v-15.636c0-4.142-3.357-7.5-7.5-7.5s-7.5,3.358-7.5,7.5v15.636
	C162.107,284.309,165.465,287.667,169.607,287.667z"/>
<path d="M342.393,287.667c4.143,0,7.5-3.358,7.5-7.5v-15.636c0-4.142-3.357-7.5-7.5-7.5s-7.5,3.358-7.5,7.5v15.636
	C334.893,284.309,338.25,287.667,342.393,287.667z"/>
<path d="M256,296.013c10.475,0,20.305-4.373,26.97-11.998c2.727-3.118,2.408-7.856-0.71-10.583c-3.12-2.727-7.858-2.409-10.583,0.71
	c-3.816,4.366-9.53,6.87-15.677,6.87c-6.146,0-11.859-2.504-15.677-6.87c-2.727-3.119-7.464-3.437-10.583-0.71
	c-3.118,2.726-3.437,7.464-0.71,10.583C235.695,291.64,245.525,296.013,256,296.013z"/>
<path d="M7.5,483.987h497c4.143,0,7.5-3.358,7.5-7.5V106.649V47.602c0-10.801-8.787-19.589-19.589-19.589h-31.044
	c-10.802,0-19.59,8.788-19.59,19.589v17.19h-40.222v-17.19c0-10.801-8.787-19.589-19.589-19.589h-31.045
	c-10.802,0-19.589,8.788-19.589,19.589v17.19H291.11v-17.19c0-10.801-8.787-19.589-19.589-19.589h-31.045
	c-10.802,0-19.589,8.788-19.589,19.589v17.19h-40.222v-17.19c0-10.801-8.787-19.589-19.589-19.589h-31.045
	c-10.802,0-19.589,8.788-19.589,19.589v17.19H70.223v-17.19c0-10.801-8.788-19.589-19.59-19.589H19.589
	C8.787,28.013,0,36.801,0,47.602v59.047v369.838C0,480.629,3.357,483.987,7.5,483.987z M248.5,114.149v96.068H58.748v-96.068
	C58.748,114.149,248.5,114.149,248.5,114.149z M453.252,114.149v96.068H263.5v-96.068
	C263.5,114.149,453.252,114.149,453.252,114.149z M497,114.149v96.068h-28.748v-96.068C468.252,114.149,497,114.149,497,114.149z
	 M468.32,376.519c-0.023,0.001-0.045,0.001-0.068,0.002v-40.237H497v39.557c-0.073,0.001-0.146,0.003-0.219,0.003
	C492.063,375.845,473.084,376.333,468.32,376.519z M289.402,403.493c-8.695,2.495-17.34,5.164-25.902,8.081v-75.29h189.752v40.942
	c-56.956,3.17-110.826,11.611-158.438,24.734C293.006,402.459,291.204,402.976,289.402,403.493z M231.038,421.369
	c-18.693-13.266-40.79-20.62-62.853-26.048c-31.894-7.847-69.476-12.208-109.437-15.596l0.001-43.44H248.5v80.673
	c-5.193,1.962-10.259,3.983-15.191,6.061C233.179,422.92,231.667,421.815,231.038,421.369z M15,225.217h89.836v96.067H15V225.217z
	 M392.164,225.217v96.068H119.836v-96.067h272.328V225.217z M497,225.217v96.068h-89.836v-96.067H497V225.217z M15,336.285h28.748
	l-0.001,42.217c-9.489-0.746-19.086-1.457-28.747-2.163C15,376.339,15,336.285,15,336.285z M43.748,210.217H15v-96.068h28.748
	V210.217z M15,391.38c11.697,0.862,23.83,1.781,35.633,2.759c37.637,3.119,75.494,6.559,112.321,15.289
	c21.345,5.123,39.838,11.786,54.293,20.771c-7.582,3.605-14.792,7.354-21.614,11.238c-11.298,6.432-22.234,13.593-32.358,21.764
	c-2.327,1.88-4.624,3.802-6.865,5.785H15V391.38z M180.422,468.983c22.537-16.365,48.078-28.511,74.072-38.3
	c14.435-5.436,29.165-10.064,44.025-14.185c0.031-0.009,0.063-0.017,0.094-0.026c44.02-12.139,93.429-20.137,145.323-23.638
	c0.193-0.013,0.385-0.026,0.579-0.039c17.472-1.158,34.976-1.793,52.485-1.938v78.13C497,468.987,180.416,468.987,180.422,468.983z
	 M15,47.602c0-2.53,2.059-4.589,4.589-4.589h31.044c2.531,0,4.59,2.059,4.59,4.589v24.69c0,4.142,3.357,7.5,7.5,7.5h55.222
	c4.143,0,7.5-3.358,7.5-7.5v-24.69c0-2.53,2.059-4.589,4.589-4.589h31.045c2.53,0,4.589,2.059,4.589,4.589v24.69
	c0,4.142,3.357,7.5,7.5,7.5h55.222c4.143,0,7.5-3.358,7.5-7.5v-24.69c0-2.53,2.059-4.589,4.589-4.589h31.045
	c2.53,0,4.589,2.059,4.589,4.589v24.69c0,4.142,3.357,7.5,7.5,7.5h55.222c4.143,0,7.5-3.358,7.5-7.5v-24.69
	c0-2.53,2.059-4.589,4.589-4.589h31.045c2.53,0,4.589,2.059,4.589,4.589v24.69c0,4.142,3.357,7.5,7.5,7.5h55.222
	c4.143,0,7.5-3.358,7.5-7.5v-24.69c0-2.53,2.059-4.589,4.59-4.589h31.044c2.53,0,4.589,2.059,4.589,4.589v51.547H15V47.602z"/>
<g>
</g>
<g>
</g>
<g>
</g>
<g>
</g>
<g>
</g>
<g>
</g>
<g>
</g>
<g>
</g>
<g>
</g>
<g>
</g>
<g>
</g>
<g>
</g>
<g>
</g>
<g>
</g>
<g>
</g>
</svg>
