<?xml version="1.0" encoding="iso-8859-1"?>
<!-- Generator: Adobe Illustrator 19.0.0, SVG Export Plug-In . SVG Version: 6.00 Build 0)  -->
<svg version="1.1" id="Capa_1" xmlns="http://www.w3.org/2000/svg" xmlns:xlink="http://www.w3.org/1999/xlink" x="0px" y="0px"
	 viewBox="0 0 512 512" style="enable-background:new 0 0 512 512;" xml:space="preserve">
<path style="fill:#FF4B4B;" d="M256.001,504.5L256.001,504.5c-96.69,0-176.112-77.085-179.886-174.593l-4.97-128.414
	C67.046,95.601,150.998,7.5,256.001,7.5l0,0c105.003,0,188.954,88.101,184.856,193.992l-4.97,128.414
	C432.113,427.415,352.691,504.5,256.001,504.5z"/>
<path style="fill:#D24A4A;" d="M440.857,201.492l-4.97,128.414C432.113,427.415,352.691,504.5,256.001,504.5l0,0
	c-4.856,0-9.666-0.204-14.427-0.585c90.047-7.218,161.874-81.397,165.458-174.008l4.97-128.414
	C415.911,100.498,339.726,15.69,241.574,8.061c4.759-0.37,9.57-0.561,14.427-0.561l0,0C361.004,7.5,444.956,95.601,440.857,201.492z
	"/>
<path style="fill:#AA4141;" d="M440.857,201.492l-2.865,74.019l-101.096-16.726c-30.011-4.965-52.04-31.14-52.04-61.832l0,0
	c0-21.284,10.706-41.112,28.427-52.651l34.427-22.416c17.087-11.126,29.341-28.396,34.272-48.306l1.206-4.87
	c0.658-2.657,1.457-5.247,2.36-7.781C421.429,96.469,442.982,146.586,440.857,201.492z M227.146,196.954L227.146,196.954
	c0-21.284-10.706-41.112-28.427-52.651l-34.427-22.416c-17.088-11.126-29.341-28.396-34.272-48.306l-1.206-4.87
	c-0.658-2.657-1.457-5.247-2.36-7.781C90.573,96.468,69.02,146.585,71.145,201.492l2.865,74.019l101.096-16.726
	C205.117,253.82,227.146,227.646,227.146,196.954z M256.001,366.66c-26.56,0-48.091,15.211-48.091,33.975
	s21.531,33.974,48.091,33.974s48.091-15.211,48.091-33.975S282.561,366.66,256.001,366.66z"/>
<path style="fill:#FFE1B3;" d="M415.458,196.787c-6.933,19.791-25.626,33.975-47.611,33.975s-40.678-14.184-47.611-33.975
	c6.933-19.791,25.626-33.975,47.611-33.975S408.525,176.996,415.458,196.787z M144.155,162.813
	c-21.984,0-40.678,14.183-47.611,33.975c6.933,19.791,25.626,33.975,47.611,33.975s40.678-14.184,47.611-33.975
	C184.833,176.996,166.14,162.813,144.155,162.813z"/>
<path style="fill:#E6C8A0;" d="M371.42,329.803v132.444c-15.746,13.286-33.772,23.887-53.376,31.153l-4.108-53.891
	c-2.298-30.152-27.211-53.436-57.176-53.436l0,0c-29.796,0-54.628,23.03-57.141,52.995L195.03,493.8
	c-20.02-7.274-38.415-18.024-54.448-31.553V330.513c0-17.564,14.108-31.802,31.512-31.802h11.771c7.968,0,14.427,6.519,14.427,14.56
	l0,0c0,18.764,15.072,33.975,33.664,33.975h48.091c18.592,0,33.664-15.211,33.664-33.975l0,0c0-8.042,6.459-14.56,14.427-14.56
	h12.474l0,0C357.627,298.711,371.42,312.631,371.42,329.803z"/>
<path style="fill:#D2B48C;" d="M315.884,494.193l-0.971-12.735c22.126-12.49,41.386-29.564,56.506-49.977v30.766
	C355.096,476.021,336.326,486.916,315.884,494.193z"/>
<path style="fill:#FFCF65;" d="M294.474,85.156c0,21.444-17.225,38.828-38.473,38.828s-38.473-17.384-38.473-38.828
	s17.225-38.828,38.473-38.828S294.474,63.712,294.474,85.156z"/>
<path d="M151.657,191.934v9.707c0,4.142-3.358,7.5-7.5,7.5s-7.5-3.358-7.5-7.5v-9.707c0-4.142,3.358-7.5,7.5-7.5
	S151.657,187.792,151.657,191.934z M448.353,201.783l-4.97,128.414c-1.9,49.094-22.275,94.891-57.371,128.954
	C350.9,493.231,304.728,512,256.003,512s-94.896-18.769-130.01-52.849c-35.096-34.063-55.47-79.86-57.371-128.954l-4.97-128.414
	c-2.075-53.61,17.181-104.339,54.222-142.841C154.441,20.933,203.496,0,256.003,0c18.283,0,36.366,2.579,53.747,7.666
	c3.976,1.164,6.255,5.329,5.092,9.305c-1.164,3.976-5.327,6.255-9.305,5.092c-13.632-3.99-27.74-6.288-42.034-6.888v24.28
	c21.793,3.62,38.473,22.73,38.473,45.702s-16.68,42.081-38.473,45.702v208.888h16.545c14.427,0,26.164-11.876,26.164-26.475
	c0-12.164,9.836-22.061,21.927-22.061h12.474c21.123,0,38.308,17.313,38.308,38.592v115.509
	c29.174-29.845,47.719-70.401,49.472-115.696l1.85-47.785l-94.57-15.646c-33.791-5.591-58.316-34.707-58.316-69.231
	c0-23.925,11.901-45.957,31.835-58.936l34.426-22.416c15.554-10.127,26.593-25.69,31.085-43.824l1.207-4.87
	c0.315-1.274,0.674-2.57,1.065-3.877c-12.848-12.087-27.596-22.372-43.952-30.339c-3.724-1.813-5.272-6.303-3.458-10.027
	s6.304-5.271,10.027-3.458C408.653,52.845,451.344,124.51,448.353,201.783z M256.003,53.828c-17.079,0-30.973,14.054-30.973,31.328
	s13.895,31.328,30.973,31.328s30.973-14.054,30.973-31.328S273.082,53.828,256.003,53.828z M81.178,266.724l92.706-15.338
	c26.518-4.387,45.765-27.279,45.765-54.432c0-18.833-9.353-36.166-25.02-46.366l-34.426-22.416
	c-18.651-12.143-31.906-30.762-37.368-52.45c-30.352,34.669-45.997,78.891-44.194,125.48L81.178,266.724z M172.096,291.211h11.771
	c12.091,0,21.927,9.896,21.927,22.061c0,14.598,11.737,26.475,26.164,26.475h16.545V130.858
	c-21.793-3.62-38.473-22.73-38.473-45.702s16.68-42.081,38.473-45.702V15.168c-42.591,1.766-82.349,18.547-113.466,47.885
	c0.388,1.3,0.745,2.588,1.058,3.855l1.207,4.869c4.492,18.134,15.531,33.697,31.085,43.824l34.426,22.416
	c19.934,12.979,31.835,35.011,31.835,58.936c0,34.525-24.525,63.641-58.316,69.231l-94.57,15.646l1.85,47.785
	c1.753,45.295,20.298,85.85,49.472,115.696V330.514C133.084,308.842,150.585,291.211,172.096,291.211z M310.137,488.33
	l-3.678-48.251c-0.443-5.812-1.877-11.34-4.116-16.426c-10.11,11.326-27.407,18.456-46.341,18.456
	c-18.476,0-35.159-6.58-45.37-17.353c-1.87,4.649-3.095,9.661-3.538,14.939l-4.108,48.991C219.687,494.083,237.5,497,256.001,497
	C274.917,497,293.115,493.961,310.137,488.33z M256.003,427.109c16.498,0,31.551-6.822,37.717-16.839
	c-9.182-10.259-22.431-16.697-36.958-16.697c-15.207,0-28.791,6.734-37.927,17.545C225.347,420.772,239.864,427.109,256.003,427.109
	z M363.922,329.803c0-13.009-10.456-23.592-23.308-23.592H328.14c-3.82,0-6.927,3.167-6.927,7.061
	c0,22.869-18.466,41.475-41.164,41.475h-48.091c-22.698,0-41.164-18.605-41.164-41.475c0-3.893-3.107-7.061-6.927-7.061h-11.771
	c-13.24,0-24.012,10.902-24.012,24.303v128.443c12.186,9.842,25.733,18.03,40.31,24.262l3.754-44.777
	c1.372-16.36,8.727-31.491,20.712-42.606c12.002-11.131,27.593-17.262,43.902-17.262c16.4,0,32.057,6.19,44.084,17.431
	c12.01,11.225,19.316,26.472,20.571,42.935l3.338,43.791c14.143-6.169,27.3-14.189,39.168-23.774L363.922,329.803L363.922,329.803z
	 M389.178,75.697c-5.458,21.698-18.716,40.327-37.375,52.475l-34.426,22.416c-15.667,10.2-25.02,27.533-25.02,46.365
	c0,27.153,19.247,50.045,45.765,54.433l92.706,15.338l2.536-65.522C435.181,154.284,418.761,109.612,389.178,75.697z
	 M367.849,155.313c24.541,0,46.519,15.671,54.689,38.995c0.563,1.605,0.563,3.354,0,4.959
	c-8.171,23.324-30.149,38.995-54.689,38.995s-46.518-15.671-54.689-38.995c-0.563-1.605-0.563-3.354,0-4.959
	C321.331,170.983,343.308,155.313,367.849,155.313z M367.849,170.313c-17.295,0-32.881,10.535-39.579,26.475
	c6.698,15.94,22.284,26.475,39.579,26.475s32.881-10.535,39.579-26.475C400.73,180.847,385.144,170.313,367.849,170.313z
	 M144.157,238.262c-24.541,0-46.519-15.671-54.689-38.995c-0.563-1.605-0.563-3.354,0-4.959
	c8.171-23.324,30.149-38.995,54.689-38.995s46.518,15.671,54.689,38.995c0.563,1.605,0.563,3.354,0,4.959
	C190.675,222.591,168.698,238.262,144.157,238.262z M183.736,196.787c-6.698-15.94-22.284-26.475-39.579-26.475
	s-32.881,10.535-39.579,26.475c6.698,15.94,22.284,26.475,39.579,26.475C161.452,223.262,177.038,212.727,183.736,196.787z
	 M360.349,191.934v9.707c0,4.142,3.358,7.5,7.5,7.5s7.5-3.358,7.5-7.5v-9.707c0-4.142-3.358-7.5-7.5-7.5
	S360.349,187.792,360.349,191.934z"/>
<g>
</g>
<g>
</g>
<g>
</g>
<g>
</g>
<g>
</g>
<g>
</g>
<g>
</g>
<g>
</g>
<g>
</g>
<g>
</g>
<g>
</g>
<g>
</g>
<g>
</g>
<g>
</g>
<g>
</g>
</svg>
