<?xml version="1.0" encoding="iso-8859-1"?>
<!-- Generator: Adobe Illustrator 19.0.0, SVG Export Plug-In . SVG Version: 6.00 Build 0)  -->
<svg version="1.1" id="Capa_1" xmlns="http://www.w3.org/2000/svg" xmlns:xlink="http://www.w3.org/1999/xlink" x="0px" y="0px"
	 viewBox="0 0 512 512" style="enable-background:new 0 0 512 512;" xml:space="preserve">
<g>
	<rect x="77.175" y="154.849" style="fill:#E9B875;" width="357.651" height="37.963"/>
	<rect x="63.188" y="222.782" style="fill:#E9B875;" width="385.623" height="59.941"/>
	<polygon style="fill:#E9B875;" points="448.824,222.782 63.176,222.782 52.199,204.8 52.199,192.812 459.801,192.812 
		459.801,204.8 	"/>
</g>
<path style="fill:#DA9D4F;" d="M355.902,154.849L355.902,154.849H156.098l0,0c0,9.931-8.051,17.982-17.982,17.982h-60.94v19.98
	h357.651v-19.98h-60.94C363.954,172.831,355.902,164.78,355.902,154.849z"/>
<rect x="176.078" y="129.873" style="fill:#E9B875;" width="159.844" height="62.939"/>
<g>
	<path style="fill:#80CBC4;" d="M315.941,109.893v19.98H196.059v-19.98c0-8.272,6.713-14.985,14.985-14.985
		c8.272,0,14.985,6.713,14.985,14.985c0-8.272,6.713-14.985,14.985-14.985S256,101.621,256,109.893
		c0-8.272,6.713-14.985,14.985-14.985c8.272,0,14.985,6.713,14.985,14.985c0-8.272,6.713-14.985,14.985-14.985
		C309.228,94.907,315.941,101.621,315.941,109.893z"/>
	<circle style="fill:#80CBC4;" cx="256" cy="48.952" r="14.985"/>
</g>
<g>
	<rect x="63.188" y="282.724" style="fill:#E9B875;" width="38.962" height="221.783"/>
	<rect x="149.854" y="282.724" style="fill:#E9B875;" width="38.962" height="221.783"/>
	<rect x="236.519" y="282.724" style="fill:#E9B875;" width="38.962" height="221.783"/>
	<rect x="323.184" y="282.724" style="fill:#E9B875;" width="38.962" height="221.783"/>
	<rect x="409.85" y="282.724" style="fill:#E9B875;" width="38.962" height="221.783"/>
</g>
<rect x="196.059" y="109.893" style="fill:#26A69A;" width="119.883" height="19.98"/>
<g>
	<rect x="63.188" y="222.782" style="fill:#DA9D4F;" width="385.623" height="19.98"/>
	<rect x="63.188" y="282.724" style="fill:#DA9D4F;" width="38.962" height="19.98"/>
	<rect x="149.854" y="282.724" style="fill:#DA9D4F;" width="38.962" height="19.98"/>
	<rect x="236.519" y="282.724" style="fill:#DA9D4F;" width="38.962" height="19.98"/>
	<rect x="323.184" y="282.724" style="fill:#DA9D4F;" width="38.962" height="19.98"/>
	<rect x="409.85" y="282.724" style="fill:#DA9D4F;" width="38.962" height="19.98"/>
	<rect x="176.078" y="172.831" style="fill:#DA9D4F;" width="159.844" height="19.98"/>
</g>
<path d="M456.304,497.015l0.012-272.126l10.977-17.982v-6.602h23.477v-14.985h-48.453v-22.978h17.483v-14.985H343.415v-9.99h17.483
	V122.38h-37.463v-12.488c0-12.394-10.083-22.478-22.478-22.478c-5.752,0-11.005,2.175-14.985,5.742
	c-3.98-3.568-9.233-5.742-14.985-5.742c-2.626,0-5.148,0.458-7.493,1.289V70.142c8.72-3.093,14.985-11.422,14.985-21.189
	s-6.265-18.096-14.985-21.189v-4.272l26.711-8.347l-4.471-14.302l-22.24,6.949V0h-14.985v8.103l-23.24-7.263l-4.471,14.302
	l27.71,8.66v3.96c-8.72,3.093-14.985,11.422-14.985,21.189s6.265,18.096,14.985,21.189v18.562c-2.345-0.832-4.866-1.289-7.493-1.289
	c-5.752,0-11.005,2.175-14.985,5.742c-3.98-3.568-9.233-5.742-14.985-5.742c-12.395,0-22.478,10.084-22.478,22.478v12.488h-37.463
	v14.985h17.483v9.99H52.199v14.985h17.483v22.978H21.229v14.985h23.477v6.604l10.989,17.982v272.125H0.25V512h511.5v-14.985H456.304
	z M293.463,109.893c0-4.132,3.361-7.493,7.493-7.493c4.132,0,7.493,3.361,7.493,7.493v12.488h-14.985V109.893z M270.985,102.4
	c4.132,0,7.493,3.361,7.493,7.493v12.488h-14.985v-12.488C263.493,105.761,266.853,102.4,270.985,102.4z M256,41.46
	c4.132,0,7.493,3.361,7.493,7.493s-3.361,7.493-7.493,7.493s-7.493-3.361-7.493-7.493S251.868,41.46,256,41.46z M233.522,109.893
	c0-4.132,3.361-7.493,7.493-7.493c4.132,0,7.493,3.361,7.493,7.493v12.488h-14.985V109.893z M203.551,109.893
	c0-4.132,3.361-7.493,7.493-7.493c4.132,0,7.493,3.361,7.493,7.493v12.488h-14.985V109.893z M183.571,137.366h144.859v9.99H183.571
	V137.366z M84.667,162.341h342.665v22.978H84.667V162.341z M94.658,497.015H70.681V290.217h23.977V497.015z M142.361,497.015
	h-32.718V290.217h32.718V497.015z M181.323,497.015h-23.977V290.217h23.977V497.015z M229.026,497.015h-32.718V290.217h32.718
	V497.015z M267.988,497.015h-23.977V290.217h23.977V497.015z M315.692,497.015h-32.718V290.217h32.718V497.015z M354.654,497.015
	h-23.977V290.217h23.977V497.015z M402.357,497.015h-32.718V290.217h32.718V497.015z M441.319,497.015h-23.977V290.217h23.986
	L441.319,497.015z M441.329,275.231H70.681v-44.956h370.65L441.329,275.231z M452.308,202.694l-7.689,12.596H67.39l-7.698-12.598
	v-2.388h392.617V202.694z"/>
<path style="fill:#FFFFFF;" d="M425.085,260.246H410.1V245.26h14.985V260.246z M392.617,260.246h-14.985V245.26h14.985V260.246z
	 M360.148,260.246h-14.985V245.26h14.985V260.246z M327.68,260.246h-14.985V245.26h14.985V260.246z M295.212,260.246h-14.985V245.26
	h14.985V260.246z M262.743,260.246h-14.985V245.26h14.985V260.246z M230.275,260.246H215.29V245.26h14.985V260.246z
	 M197.807,260.246h-14.985V245.26h14.985V260.246z M165.339,260.246h-14.985V245.26h14.985V260.246z M132.87,260.246h-14.985V245.26
	h14.985V260.246z M100.402,260.246H85.417V245.26h14.985V260.246z"/>
<g>
</g>
<g>
</g>
<g>
</g>
<g>
</g>
<g>
</g>
<g>
</g>
<g>
</g>
<g>
</g>
<g>
</g>
<g>
</g>
<g>
</g>
<g>
</g>
<g>
</g>
<g>
</g>
<g>
</g>
</svg>
