<svg id="Capa_1" enable-background="new 0 0 512.002 512.002" height="512" viewBox="0 0 512.002 512.002" width="512" xmlns="http://www.w3.org/2000/svg"><g><g><path d="m341.527 386-9.244-8.213 2.952-6.564c-11.364-27.543-20.81-55.638-28.625-85.224l-7.001-6.645 3.28-8.131c-1.218-5.029-2.399-10.099-3.532-15.224l-9.212-7.682 6.088-7.094c-4.388-21.749-8.08-44.427-11.169-68.368-4.344-33.663-8.801-68.208-12.157-94.214l-24.868-5.462c-3.04 23.56-33 229.738-56.31 278.891l35.437-10.847 9.323-55.223-3.698-9.317 6.193-5.459h34.034l26.592 95.324-117.192 10.796-62.518 120.158 58.647-8.002s2.323-6.308 3.449-9.365c13.835-37.572 48.564-56.679 76.902-56.679 68.064 0 85.684 74.046 85.684 74.046l52.735-8.002c-22.188-35.12-40.581-69.006-55.79-103.5z" fill="#adb5c1"/><path d="m299.357 256c-1.078-4.879-2.121-9.803-3.124-14.776h-67.925c5.353-26.281 9.822-53.867 13.629-83.368 3.553-27.531 7.181-55.654 10.221-79.214h20.749c-.685-5.305-1.324-10.263-1.907-14.776l-15-15-15 15c-3.437 26.637-8.834 68.46-14.064 108.99-16.897 130.962-51.593 224.43-121.889 331.644h67.977l8.972-24.365c25.34-68.815 122.668-68.816 148.009-.002l8.973 24.367h67.977c-3.299-5.031-6.494-10.024-9.638-15h-45.34l-3.72-10.102c0-.001-.001-.003-.002-.004l-34.389-93.394h27.661c-2.165-4.91-4.253-9.836-6.292-14.776h-26.811l-5.523-15-11.856-70.224h15.565c-1.289-4.878-2.519-9.813-3.721-14.776h-14.339l-2.532-15zm-28.872.224 16.883 100h-50.267 47.276l5.523 15h-58.323l5.524-15h-9.476l-5.524 15h-31.763c10.915-27.687 19.989-55.782 27.634-85.224h18.518l5.065-30 10.045.106-2.55 15.118h-27.37c1.205-5.025 2.359-10.109 3.489-15.224zm-91.938 233.276h-46.888c20.989-35.382 38.275-69.27 52.65-103.5h32.351zm91.119-73.96c-41.259 0-62.626 22.321-62.627 22.322l19.097-51.862h69.206l15.416 41.865c-11.405-7.676-25.039-12.325-41.092-12.325z" fill="#909ba6"/><path d="m191.786 341.224-10 25 153.43-10v-15z" fill="#c8d2dc"/><path d="m191.786 341.224h-15v30h158.43v-15h-143.43z" fill="#adb5c1"/><path d="m250.781 33.865.22 20 25.22-5 5.221-15z" fill="#c8d2dc"/><path d="m250.781 33.865h-20.221l10.441 30h30l5.22-15h-20.22z" fill="#adb5c1"/></g><g><g><path d="m338.979 512.002c-.059 0-.117 0-.175-.002h-165.606c-.116.002-.232.002-.349 0h-67.696c-.075.001-.151.001-.227 0h-51.795c-4.142 0-7.5-3.358-7.5-7.5s3.358-7.5 7.5-7.5h47.855c28.756-44.225 51.125-85.906 68.3-127.262v-21.014h-3.923c-4.142 0-7.5-3.358-7.5-7.5s3.358-7.5 7.5-7.5h17.649c9.397-27.016 17.162-54.948 23.569-85h-8.462c-4.142 0-7.5-3.358-7.5-7.5s3.358-7.5 7.5-7.5h11.514c3.793-19.565 7.059-40.07 9.866-61.828l12.973-100.537c-3.994-.167-7.181-3.458-7.181-7.493 0-3.368 2.219-6.217 5.275-7.165l-7.089-20.37c-.798-2.293-.437-4.832.97-6.811s3.685-3.155 6.113-3.155h17.941v-18.865c0-4.142 3.358-7.5 7.5-7.5s7.5 3.358 7.5 7.5v18.865h17.941c2.428 0 4.706 1.176 6.113 3.155s1.768 4.517.97 6.811l-7.089 20.37c3.056.948 5.275 3.797 5.275 7.165 0 4.035-3.187 7.326-7.181 7.493l4.359 33.781c.53 4.108-2.371 7.868-6.479 8.398-4.109.533-7.868-2.371-8.398-6.479l-4.605-35.694h-16.812l-13.219 102.45c-2.712 21.019-5.848 40.898-9.468 59.908h18.996c.091-.002.182-.002.272 0h4.325v-50.272c0-4.142 3.358-7.5 7.5-7.5s7.5 3.358 7.5 7.5v50.272h4.325c.091-.002.182-.002.272 0h18.996c-3.62-19.01-6.755-38.89-9.468-59.908l-4.783-37.07c-.53-4.108 2.371-7.868 6.479-8.398 4.104-.531 7.868 2.371 8.398 6.479l4.783 37.07c2.808 21.758 6.073 42.263 9.866 61.828h11.514c4.142 0 7.5 3.358 7.5 7.5s-3.358 7.5-7.5 7.5h-8.462c6.408 30.052 14.172 57.984 23.569 85h17.649c4.142 0 7.5 3.358 7.5 7.5s-3.358 7.5-7.5 7.5h-3.923v21.015c7.715 18.582 16.209 36.691 25.943 55.311 1.919 3.67.499 8.202-3.172 10.121-3.67 1.92-8.202.5-10.121-3.172-4.089-7.822-7.964-15.556-11.659-23.274h-32.005l25.285 68.664c.02.052.039.104.058.155l7.163 19.456h48.968c-7.548-11.845-14.66-23.532-21.217-34.875-2.074-3.585-.847-8.173 2.739-10.247s8.174-.847 10.247 2.739c7.933 13.719 16.694 27.961 26.071 42.382h47.855c4.142 0 7.5 3.358 7.5 7.5s-3.358 7.5-7.5 7.5h-51.795c-.075.001-.151.001-.226 0h-67.696c-.059.002-.117.003-.175.003zm-155.201-15.002h144.446l-5.293-14.373c-12.702-34.357-42.894-46.604-66.93-46.604s-54.229 12.247-66.93 46.604zm-64.953 0h48.969l7.165-19.457c.019-.052.038-.104.058-.155l25.285-68.664h-32.025c-13.8 28.798-30.156 57.988-49.452 88.276zm137.176-75.977c17.251 0 33.805 4.888 47.872 14.136.71.467 1.412.944 2.106 1.432l-10.262-27.867h-79.433l-10.262 27.867c.694-.488 1.396-.964 2.106-1.432 14.068-9.248 30.622-14.136 47.873-14.136zm50.177-27.299h30.566c-2.24-4.982-4.414-9.975-6.53-15h-29.56zm-84.369 0h68.385l-5.523-15h-13.669c-4.142 0-7.5-3.358-7.5-7.5s3.358-7.5 7.5-7.5h56.715v-15h-143.43v15h56.715c4.142 0 7.5 3.358 7.5 7.5s-3.358 7.5-7.5 7.5h-13.669zm-46.562 0h30.577l5.523-15h-29.561c-2.105 4.995-4.284 9.991-6.539 15zm115.929-60h21.954c-6.046-17.819-11.408-36.045-16.158-55h-15.082zm-55.138 0h39.926l-9.286-55h-21.354zm-37.165 0h21.954l9.286-55h-15.081c-4.752 18.954-10.114 37.181-16.159 55zm80.485-70h14.017c-1.133-4.943-2.229-9.945-3.286-15h-13.263zm-31.502 0h16.289l-2.532-15h-11.225zm-29.229 0h14.017l2.532-15h-13.263c-1.057 5.055-2.153 10.057-3.286 15zm27.705-207.359h19.338l5.221-15h-29.779z"/></g></g></g></svg>