<svg id="Capa_1" enable-background="new 0 0 512 512" height="512" viewBox="0 0 512 512" width="512" xmlns="http://www.w3.org/2000/svg"><g><g><path d="m485.72 66.653-444.439-44.982-15-.019v468.694h123.146l30-15v-210.547c0-43.698 35.425-79.123 79.123-79.123s79.123 35.425 79.123 79.123l-.1 220.548 25 5h123.147v-15l-16.077-151.061 16.077-166.061v-15l-6.766-8.287 6.766-8.287z" fill="#f4daa7"/><path d="m41.281 21.671 444.439.554v44.427h-444.439zm108.146 136.555h-108.146v317.121h108.146zm213.146 0v317.121h123.147v-317.121zm-321.292-15h444.439v-16.573h-444.439z" fill="#f8e7c7"/><g fill="#f0c87e"><path d="m149.427 475.347h30v15h-30z"/><path d="m255.995 158.226h.01c58.855.003 106.566 47.713 106.568 106.568 0-59.457 0-106.568 0-106.568h-213.146v106.573c0-58.857 47.712-106.57 106.568-106.573z"/><path d="m347.673 264.799c0-50.574-39.663-89.573-86.123-89.573s-82.123 38.999-82.123 89.573c0-42.29 34.283-76.573 76.573-76.573s76.573 34.283 76.573 76.573 0 225.548 0 225.548h30c0-4.191 0-9.238 0-15h-15s.1-159.973.1-210.548z"/></g><path d="m119.427 367.095c0-16-3-25.552-3-25.552s3-9.458 3-25.299-13.753-21.445-30.718-21.445c-5.09 0-9.887.502-14.114 1.629-1.367 3.753-6.604 9.86-6.604 19.816v101.701h51.436c0-15.921-3-25.425-3-25.425s3-9.425 3-25.425z" fill="#f4daa7"/><path d="m72.991 367.095c0-15.921 3-25.425 3-25.425s-3-9.505-3-25.425c0-9.956.237-16.063 1.604-19.816-9.861 2.627-16.604 8.673-16.604 19.816 0 15.921 3 25.425 3 25.425s-3 9.505-3 25.425 3 25.425 3 25.425-3 9.505-3 25.425h15c0-15.921 3-25.425 3-25.425s-3-9.505-3-25.425z" fill="#f0c87e"/><path d="m67.991 480.347 51.436-5c0-17.898 0-46.741 0-57.402h-51.436z" fill="#f8e7c7"/><path d="m57.991 490.347h61.436s0-6.168 0-15h-46.436s0-41.481 0-57.402h-15z" fill="#f4daa7"/><path d="m402.573 480.347 51.436-5c0-17.898 0-46.741 0-57.402h-51.436z" fill="#f8e7c7"/><path d="m407.573 417.946h-15v72.402h61.436s0-6.168 0-15h-46.436c0-.001 0-41.482 0-57.402z" fill="#f4daa7"/><path d="m454.009 367.095c0-16-3-25.552-3-25.552s3-9.458 3-25.299-13.753-21.445-30.718-21.445c-5.09 0-9.887.502-14.114 1.629-1.367 3.753-6.604 9.86-6.604 19.816v101.701h51.436c0-15.921-3-25.425-3-25.425s3-9.425 3-25.425z" fill="#f4daa7"/><path d="m410.573 392.52s-3-9.505-3-25.425 3-25.425 3-25.425-3-9.505-3-25.425c0-9.956.237-16.063 1.604-19.816-9.861 2.627-16.604 8.673-16.604 19.816 0 15.921 3 25.425 3 25.425s-3 9.505-3 25.425 3 25.425 3 25.425-3 9.505-3 25.425h15c0-15.92 3-25.425 3-25.425z" fill="#f0c87e"/><path d="m71.281 188.226-10 31.573 58.206-10v-21.573z" fill="#f4daa7"/><path d="m71.281 188.226h-15v36.573h63.206v-15h-48.206z" fill="#f0c87e"/><path d="m407.513 188.226-10 31.573 58.207-10v-21.573z" fill="#f4daa7"/><path d="m407.513 188.226h-15v36.573h63.207v-15h-48.207z" fill="#f0c87e"/><path d="m504.5 81.653h-497l8.539 30h479.922z" fill="#f8e7c7"/></g><g><g><path d="m504.5 497.847h-192.341c-4.143 0-7.5-3.358-7.5-7.5s3.357-7.5 7.5-7.5h12.914v-210.548c-4.143 0-7.5-3.358-7.5-7.5 0-4.007 3.142-7.28 7.097-7.489-3.743-34.579-33.112-61.584-68.67-61.584s-64.926 27.005-68.67 61.584c3.955.209 7.097 3.482 7.097 7.489 0 4.142-3.358 7.5-7.5 7.5v115.646c0 4.142-3.358 7.5-7.5 7.5s-7.5-3.358-7.5-7.5v-115.646h-15v210.548h15v-64.902c0-4.142 3.358-7.5 7.5-7.5s7.5 3.358 7.5 7.5v64.902h12.914c4.142 0 7.5 3.358 7.5 7.5s-3.358 7.5-7.5 7.5h-192.341c-4.142 0-7.5-3.358-7.5-7.5s3.358-7.5 7.5-7.5h11.28v-210.743c-3.318-.774-5.79-3.75-5.79-7.304s2.472-6.53 5.79-7.304v-91.769h-2.742c-4.142 0-7.5-3.358-7.5-7.5s3.358-7.5 7.5-7.5h2.742v-31.573h-2.742c-3.352 0-6.296-2.224-7.213-5.447l-8.539-30c-.644-2.262-.189-4.696 1.228-6.573s3.633-2.98 5.985-2.98h11.28v-45h-2.742c-4.142 0-7.5-3.358-7.5-7.5s3.358-7.5 7.5-7.5h346.535c4.143 0 7.5 3.358 7.5 7.5s-3.357 7.5-7.5 7.5h-328.792v45h115.646c4.142 0 7.5 3.358 7.5 7.5s-3.358 7.5-7.5 7.5h-131.993l4.269 15h468.596l4.27-15h-315.141c-4.142 0-7.5-3.358-7.5-7.5s3.358-7.5 7.5-7.5h298.793v-45h-85.646c-4.143 0-7.5-3.358-7.5-7.5s3.357-7.5 7.5-7.5h103.388c4.143 0 7.5 3.358 7.5 7.5s-3.357 7.5-7.5 7.5h-2.741v45h11.28c2.353 0 4.568 1.104 5.985 2.98 1.417 1.877 1.872 4.311 1.229 6.573l-8.539 30c-.918 3.223-3.862 5.447-7.214 5.447h-2.741v31.573h2.741c4.143 0 7.5 3.358 7.5 7.5s-3.357 7.5-7.5 7.5h-2.741v91.769c3.318.774 5.79 3.75 5.79 7.304s-2.472 6.53-5.79 7.304v210.744h11.28c4.143 0 7.5 3.358 7.5 7.5s-3.358 7.499-7.501 7.499zm-42.991-15h16.711v-57.402h-16.711zm-61.436 0h46.436v-57.402h-46.436zm-30 0h15v-57.402h-15zm-30 0h15v-210.548h-15zm-213.146 0h15v-57.402h-15zm-61.436 0h46.436v-57.402h-46.436zm-31.711 0h16.71v-57.402h-16.71zm427.513-72.402h16.927v-138.146h-108.147v138.146h15.216c.501-8.606 1.758-14.806 2.52-17.92-.971-3.951-2.735-12.861-2.735-25.431 0-12.595 1.771-21.578 2.736-25.542-.969-3.944-2.736-12.844-2.736-25.308 0-8.703 3.724-28.945 38.218-28.945 10.604 0 19.221 1.965 25.61 5.839 8.248 5.002 12.607 12.992 12.607 23.105 0 16.882-3.211 27.25-3.348 27.683-1.247 3.95-5.457 6.142-9.41 4.895-3.942-1.245-6.133-5.444-4.901-9.388.07-.233 2.659-8.939 2.659-23.19 0-3.449 0-13.945-23.218-13.945s-23.218 10.496-23.218 13.945c0 14.291 2.631 22.972 2.657 23.059.449 1.454.454 3.037-.002 4.488-.019.061-2.655 8.845-2.655 23.304 0 14.437 2.629 23.092 2.655 23.178.452 1.458.456 3.048-.003 4.504-.015.049-1.753 5.812-2.407 15.668h45.945c-.654-9.857-2.394-15.624-2.415-15.694-.447-1.455-.45-3.038.008-4.489.014-.043 2.143-7.088 2.575-18.902.151-4.14 3.598-7.367 7.77-7.221 4.14.152 7.372 3.63 7.221 7.77-.366 9.996-1.81 17.18-2.65 20.611.762 3.114 2.02 9.316 2.521 17.926zm-334.582 0h15.216v-138.146h-108.147v138.146h16.926c.501-8.611 1.759-14.813 2.521-17.925-.968-3.955-2.737-12.896-2.737-25.425s1.769-21.471 2.737-25.425c-.968-3.955-2.737-12.896-2.737-25.425 0-10.114 4.36-18.104 12.608-23.105 6.389-3.875 15.006-5.839 25.61-5.839 10.591 0 19.21 1.977 25.619 5.874 8.243 5.014 12.6 12.991 12.6 23.071 0 12.464-1.767 21.364-2.737 25.308.966 3.965 2.737 12.948 2.737 25.542 0 12.57-1.765 21.48-2.735 25.431.762 3.113 2.019 9.312 2.519 17.918zm-60.975 0h45.946c-.654-9.857-2.394-15.624-2.416-15.694-.449-1.46-.449-3.05.014-4.506.018-.058 2.646-8.713 2.646-23.15 0-14.458-2.637-23.243-2.664-23.33-.445-1.455-.445-3.038.015-4.489.018-.06 2.649-8.741 2.649-23.032 0-3.449 0-13.945-23.218-13.945s-23.218 10.496-23.218 13.945c0 14.375 2.634 23.108 2.661 23.194.447 1.455.45 3.038-.008 4.488-.019.06-2.652 8.793-2.652 23.168s2.634 23.108 2.661 23.194c.447 1.454.45 3.038-.008 4.488-.016.05-1.754 5.813-2.408 15.669zm304.337-153.146h108.147v-91.573h-108.147zm-30.332 0h15.051c-3.661-48.661-42.632-87.631-91.292-91.292v15.051c40.389 3.586 72.655 35.853 76.241 76.241zm-182.533 0h15.051c3.586-40.388 35.854-72.655 76.242-76.242v-15.051c-48.662 3.662-87.632 42.633-91.293 91.293zm-123.428 0h108.146v-91.573h-108.146zm278.72-91.573c17.698 10.133 32.44 24.875 42.573 42.573v-42.573zm-155.573 0v42.573c10.133-17.698 24.875-32.44 42.573-42.573zm99.073-15h222.22v-31.573h-444.44v31.573zm199.72 81.573h-63.206c-4.143 0-7.5-3.358-7.5-7.5v-36.573c0-4.142 3.357-7.5 7.5-7.5h63.206c4.143 0 7.5 3.358 7.5 7.5v36.573c0 4.142-3.358 7.5-7.5 7.5zm-55.706-15h48.206v-21.573h-48.206zm-280.527 15h-63.207c-4.142 0-7.5-3.358-7.5-7.5v-36.573c0-4.142 3.358-7.5 7.5-7.5h63.207c4.142 0 7.5 3.358 7.5 7.5v36.573c0 4.142-3.358 7.5-7.5 7.5zm-55.707-15h48.207v-21.573h-48.207zm389.122-157.646c-4.411 0-8-3.589-8-8s3.589-8 8-8 8 3.589 8 8-3.588 8-8 8zm-32.817 0c-4.411 0-8-3.589-8-8s3.589-8 8-8 8 3.589 8 8-3.589 8-8 8zm-32.816 0c-4.411 0-8-3.589-8-8s3.589-8 8-8 8 3.589 8 8-3.589 8-8 8zm-32.818 0c-4.411 0-8-3.589-8-8s3.589-8 8-8 8 3.589 8 8-3.589 8-8 8zm-32.817 0c-4.411 0-8-3.589-8-8s3.589-8 8-8 8 3.589 8 8-3.589 8-8 8zm-32.817 0c-4.411 0-8-3.589-8-8s3.589-8 8-8 8 3.589 8 8-3.588 8-8 8zm-32.817 0c-4.411 0-8-3.589-8-8s3.589-8 8-8 8 3.589 8 8-3.589 8-8 8zm-32.817 0c-4.411 0-8-3.589-8-8s3.589-8 8-8 8 3.589 8 8-3.589 8-8 8zm-32.817 0c-4.411 0-8-3.589-8-8s3.589-8 8-8 8 3.589 8 8-3.589 8-8 8zm-32.817 0c-4.411 0-8-3.589-8-8s3.589-8 8-8 8 3.589 8 8-3.589 8-8 8zm-32.817 0c-4.411 0-8-3.589-8-8s3.589-8 8-8 8 3.589 8 8-3.589 8-8 8zm-32.817 0c-4.411 0-8-3.589-8-8s3.589-8 8-8 8 3.589 8 8-3.589 8-8 8zm-32.817 0c-4.411 0-8-3.589-8-8s3.589-8 8-8 8 3.589 8 8-3.589 8-8 8z"/></g></g></g></svg>