<svg id="Capa_1" enable-background="new 0 0 512 512" height="512" viewBox="0 0 512 512" width="512" xmlns="http://www.w3.org/2000/svg"><g><g><path d="m41.335 228.375v167.069l33.153-10v-147.069z" fill="#e9edf1"/><path d="m51.335 238.375h23.154l8.988-23.125-27.988-14.739-27.989 14.739 8.988 23.125v172.069h38v-25h-19.161c-2.205 0-3.993-1.788-3.993-3.993v-143.076z" fill="#c8d2dc"/><path d="m121.527 228.375v167.069l33.153-10v-147.069z" fill="#e9edf1"/><path d="m131.527 238.375h23.154l8.988-23.125-27.988-14.739-27.988 14.739 8.988 23.125v172.069h38v-25h-19.161c-2.205 0-3.993-1.788-3.993-3.993z" fill="#c8d2dc"/><path d="m201.732 228.375v167.069l33.153-10v-147.069z" fill="#e9edf1"/><path d="m211.732 238.375h23.154l8.988-23.125-27.988-14.739-27.988 14.739 8.988 23.125v172.069h38v-25h-19.161c-2.205 0-3.993-1.788-3.993-3.993z" fill="#c8d2dc"/><path d="m281.937 228.375v167.069l33.153-10v-147.069z" fill="#e9edf1"/><path d="m291.937 238.375h23.154l8.988-23.125-27.988-14.739-27.988 14.739 8.988 23.125v172.069h38v-25h-19.161c-2.205 0-3.993-1.788-3.993-3.993z" fill="#c8d2dc"/><path d="m362.141 228.375v167.069l33.154-10v-147.069z" fill="#e9edf1"/><path d="m372.141 238.375h23.154l8.988-23.125-27.988-14.739-27.988 14.739 8.988 23.125v172.069h38v-25h-19.161c-2.205 0-3.993-1.788-3.993-3.993z" fill="#c8d2dc"/><path d="m442.346 228.375v167.069l33.154-10v-147.069z" fill="#e9edf1"/><path d="m452.346 238.375h23.154l8.988-23.125-27.988-14.739-27.988 14.739 8.988 23.125v172.069h38v-25h-19.161c-2.205 0-3.993-1.788-3.993-3.993z" fill="#c8d2dc"/><path d="m32.5 175.25v35l452-10v-15z" fill="#c8d2dc"/><path d="m27.5 160.25v55h457v-15h-442v-15h442v-25z" fill="#adb5c1"/><path d="m42.5 400.444-10 25 452-10v-15z" fill="#e9edf1"/><path d="m42.5 400.444h-15v40h457v-25h-442z" fill="#c8d2dc"/><path d="m22.5 430.444-10 25 492-10v-15z" fill="#e9edf1"/><path d="m22.5 430.444h-15v30h497v-15h-482z" fill="#c8d2dc"/><path d="m504.5 155.25-482.103 9.43c-5.36 0-9.705-4.345-9.705-9.705l9.808-33.717 96.4-29.652 7.142.803 7.858-5.417 114.354-35.175c3.846-1.183 7.729 1.698 7.729 5.722 0 4.485.017 22.443.017 22.443s28.412-13.416 32.625-15.405 9.017-2.333 13.47-.963l60.479 18.603 5.811 5.403 8.072-1.132 114.3 35.158c2.498.768 4.753 2.007 6.68 3.601l7.063 15.004z" fill="#e9edf1"/><path d="m22.5 151.75v-11.5h482c0-5.933-2.691-11.38-7.067-15h-131.111l10.135-38.764-13.883-4.271-11.251 43.035h-217.423v-38.259l-15 4.614v33.645h-96.4v-3.993l-1.257.387c-8.169 2.513-13.743 10.059-13.743 18.606v15c0 8.284 6.716 15 15 15h467c8.284 0 15-6.716 15-15h-478.5c-1.933 0-3.5-1.567-3.5-3.5z" fill="#c8d2dc"/></g><g><path d="m504.5 467.944h-218.5c-4.143 0-7.5-3.358-7.5-7.5s3.357-7.5 7.5-7.5h211v-15h-482v15h241c4.143 0 7.5 3.358 7.5 7.5s-3.357 7.5-7.5 7.5h-248.5c-4.142 0-7.5-3.358-7.5-7.5v-30c0-4.142 3.358-7.5 7.5-7.5h12.5v-22.5c0-4.142 3.358-7.5 7.5-7.5h1.488v-153.163l-8.479-21.814c-.336-.866-.509-1.788-.509-2.717v-37.638c-11.234-1.248-20-10.8-20-22.362v-15c0-11.914 7.651-22.272 19.038-25.774l227.011-69.828c4.073-1.255 8.551-.487 11.978 2.048 3.426 2.536 5.466 6.595 5.457 10.857l-.021 10.609 21.961-10.37c5.917-2.795 12.62-3.273 18.877-1.35l115.622 35.565c3.959 1.218 6.182 5.415 4.964 9.374-1.219 3.959-5.417 6.182-9.374 4.963l-47.663-14.659-10.737 41.065h137.265c-1.461-1.818-3.461-3.21-5.825-3.938l-46.003-14.15c-3.959-1.218-6.182-5.415-4.964-9.374s5.416-6.182 9.374-4.963l46.003 14.15c11.387 3.503 19.037 13.861 19.037 25.775v15c0 11.562-8.766 21.114-20 22.362v37.638c0 .931-.173 1.853-.511 2.72l-8.489 21.813-.001 153.161h1.501c4.143 0 7.5 3.358 7.5 7.5v22.5h12.5c4.143 0 7.5 3.358 7.5 7.5v30c0 4.142-3.357 7.5-7.5 7.5zm-469.5-45h442v-15h-442zm410.012-30h22.987l.001-154.569c0-.931.173-1.853.511-2.72l5.022-12.905h-34.048l5.017 12.908c.337.866.51 1.788.51 2.717zm-42.217 0h27.217v-153.163l-6.619-17.031h-13.979l-6.619 17.031v31.743c0 4.142-3.357 7.5-7.5 7.5s-7.5-3.358-7.5-7.5v-33.149c0-.929.173-1.851.51-2.717l5.017-12.908h-34.04l5.017 12.908c.337.866.51 1.788.51 2.717l-.001 154.569h22.988v-91.419c0-4.142 3.357-7.5 7.5-7.5s7.5 3.358 7.5 7.5v91.419zm-80.205 0h27.217l.001-153.163-6.619-17.031h-13.979l-6.619 17.031v153.163zm-37.987 0h22.987v-154.569c0-.929.173-1.851.51-2.717l5.017-12.908h-34.04l5.017 12.908c.337.866.51 1.788.51 2.717v154.569zm-42.218 0h27.217v-153.163l-6.619-17.031h-13.979l-6.62 17.031v153.163zm-37.988 0h22.988v-154.569c0-.929.173-1.851.509-2.717l5.017-12.908h-34.041l5.017 12.908c.336.866.509 1.788.509 2.717v154.569zm-42.217 0h27.217v-153.163l-6.62-17.031h-13.977l-6.62 17.031zm-37.987 0h22.987v-154.569c0-.929.173-1.851.509-2.717l5.017-12.908h-34.041l5.017 12.908c.336.866.509 1.788.509 2.717v154.569zm-42.205 0h27.205v-153.163l-6.62-17.031h-13.965l-6.62 17.031zm-38 0h23v-154.569c0-.929.173-1.851.509-2.717l5.017-12.908h-34.052l5.017 12.908c.336.867.509 1.788.509 2.717zm-8.988-185.194h442v-30h-30.7v7.5c0 4.142-3.357 7.5-7.5 7.5s-7.5-3.358-7.5-7.5v-7.5h-30.7v7.5c0 4.142-3.357 7.5-7.5 7.5s-7.5-3.358-7.5-7.5v-7.5h-30.7v7.5c0 4.142-3.357 7.5-7.5 7.5s-7.5-3.358-7.5-7.5v-7.5h-30.7v7.5c0 4.142-3.357 7.5-7.5 7.5s-7.5-3.358-7.5-7.5v-7.5h-30.7v7.5c0 4.142-3.357 7.5-7.5 7.5-4.142 0-7.5-3.358-7.5-7.5v-7.5h-30.7v7.5c0 4.142-3.358 7.5-7.5 7.5s-7.5-3.358-7.5-7.5v-7.5h-30.7v7.5c0 4.142-3.358 7.5-7.5 7.5s-7.5-3.358-7.5-7.5v-7.5h-30.7v7.5c0 4.142-3.358 7.5-7.5 7.5s-7.5-3.358-7.5-7.5v-7.5h-30.7v7.5c0 4.142-3.358 7.5-7.5 7.5s-7.5-3.358-7.5-7.5v-7.5h-30.7zm449.5-45h5c4.136 0 7.5-3.365 7.5-7.5v-7.5h-291.017c-4.142 0-7.5-3.358-7.5-7.5s3.358-7.5 7.5-7.5h135.625l11.891-45.479-53.609-16.49c-2.673-.821-5.535-.617-8.063.576l-28.399 13.41-.033 16.009c-.008 4.142-3.359 7.5-7.515 7.485-4.142-.008-7.493-3.373-7.485-7.515l.084-41.152-122.079 37.551v35.605h49.583c4.142 0 7.5 3.358 7.5 7.5s-3.358 7.5-7.5 7.5h-160.983v7.5c0 4.135 3.364 7.5 7.5 7.5zm-466.877-30h93.777v-30.991l-87.952 27.054c-2.364.727-4.365 2.119-5.825 3.937z"/></g></g></svg>