<svg id="Capa_1" enable-background="new 0 0 512 512" height="512" viewBox="0 0 512 512" width="512" xmlns="http://www.w3.org/2000/svg"><g><g><path d="m46 57.322-5 387.356 440-5-.001-91.839-7.245-13.158 7.246-1.842v-91.839l-3.782-6.696 3.782-8.304v-38.42h-180l-15 53.42h-60l-5 10-20-20 10.25-5-.25-38.42h-35.857l-4.571 6.581-10.429-6.581-9.143-23.419v-30h-30l-10.428-7.579 4.571-7.421-24.143-61.839z" fill="#f8e7c7"/><path d="m481 226h-180v-38.42h-15v53.42h14.528l.472 30 24.143 61.839h-74.999l-24.144-61.839v-30h-15v30l24.143 61.839h-189.143v-91.839h165l.25-15h-21.107l-15-38.42h-15l15 38.42h-129.143v-91.839h75l-5.857-15h-69.143v-61.839h-15v397.357h450v-15h-80.858l-24.143-61.839v-30h105l.001-15h-140.858l-24.143-61.84-.472-30h165.473zm-435 213.678v-91.839h225v30l24.143 61.839zm314.999-91.839v30l24.143 61.839h-74.999l-24.143-61.839v-30z" fill="#f4daa7"/><path d="m46 194.161-10 41.839 25-10c0-6.351 0-13.128 0-16.84 0-8.284-6.716-14.999-15-14.999z" fill="#bd7f54"/><path d="m61 226h-15v-31.839c-8.284 0-14.999 6.716-14.999 15 0 7.508-.001 27.557-.001 31.25v.589h29.999s.001-7.177.001-15z" fill="#b36d3c"/><path d="m106 194.161c-8.284 0-15 6.716-15 15v16.84l15 10 15-10c0-6.351 0-13.128 0-16.84 0-8.285-6.716-15-15-15z" fill="#bd7f54"/><path d="m91 241h29.999s0-7.177 0-15h-29.999z" fill="#b36d3c"/><path d="m46 301-10 41.839 25-10c0-6.351 0-13.128 0-16.84 0-8.284-6.716-14.999-15-14.999z" fill="#bd7f54"/><path d="m61 332.839h-15v-31.839c-8.284 0-14.999 6.716-14.999 15 0 7.508-.001 27.557-.001 31.25v.589h29.999s.001-7.177.001-15z" fill="#b36d3c"/><path d="m106 301c-8.284 0-15 6.716-15 15v16.84l15 10 15-10c0-6.351 0-13.128 0-16.84 0-8.285-6.716-15-15-15z" fill="#bd7f54"/><path d="m91 347.839h29.999s0-7.177 0-15h-29.999z" fill="#b36d3c"/><path d="m166 301c-8.284 0-15 6.716-15 15v16.84l15 10 15-10c0-6.351 0-13.128 0-16.84 0-8.285-6.716-15-15-15z" fill="#bd7f54"/><path d="m151 347.839h29.999s0-7.177 0-15h-29.999z" fill="#b36d3c"/><path d="m270.999 332.839c0-6.351 0-13.128 0-16.84 0-8.284-6.716-15-15-15-6.655 0-12.289 4.338-14.251 10.337l8.395 31.502z" fill="#bd7f54"/><path d="m240.999 347.839h29.999s0-7.177 0-15h-20.856l-8.395-21.502c-.479 1.469-.747 3.033-.747 4.663 0 8.284-.001 31.839-.001 31.839z" fill="#b36d3c"/><path d="m361 332.839c0-6.351 0-13.128 0-16.84 0-8.284-6.716-15-15-15-6.655 0-12.289 4.338-14.251 10.337l8.395 31.502z" fill="#bd7f54"/><path d="m331 347.839h29.999s0-7.177 0-15h-20.856l-8.395-21.502c-.48 1.469-.748 3.033-.748 4.662.001 8.285 0 31.84 0 31.84z" fill="#b36d3c"/><path d="m406 301c-8.284 0-15 6.716-15 15v16.84l15 10 15-10c0-6.351 0-13.128 0-16.84 0-8.285-6.716-15-15-15z" fill="#bd7f54"/><path d="m391 347.839h29.999s0-7.177 0-15h-29.999z" fill="#b36d3c"/><path d="m466 301c-8.284 0-15 6.716-15 15v16.84l15 10 15-10c0-6.351 0-13.128 0-16.84 0-8.285-6.716-15-15-15z" fill="#bd7f54"/><path d="m451 347.839h29.999s0-7.177 0-15h-29.999z" fill="#b36d3c"/><path d="m46 407.839-10 41.839 25-10c0-6.351 0-13.128 0-16.84 0-8.283-6.716-14.999-15-14.999z" fill="#bd7f54"/><path d="m61 439.678h-15v-31.839c-8.284 0-14.999 6.716-14.999 15 0 7.508-.001 27.557-.001 31.25v.589h29.999s.001-7.177.001-15z" fill="#b36d3c"/><path d="m106 407.839c-8.284 0-15 6.716-15 15v16.84l15 10 15-10c0-6.351 0-13.128 0-16.84 0-8.284-6.716-15-15-15z" fill="#bd7f54"/><path d="m91 454.678h29.999s0-7.177 0-15h-29.999z" fill="#b36d3c"/><path d="m166 407.839c-8.284 0-15 6.716-15 15v16.84l15 10 15-10c0-6.351 0-13.128 0-16.84 0-8.284-6.716-15-15-15z" fill="#bd7f54"/><path d="m151 454.678h29.999s0-7.177 0-15h-29.999z" fill="#b36d3c"/><path d="m226 407.839c-8.284 0-15 6.716-15 15v16.84l15 10 15-10c0-6.351 0-13.128 0-16.84 0-8.284-6.716-15-15-15z" fill="#bd7f54"/><path d="m211 454.678h29.999s0-7.177 0-15h-29.999z" fill="#b36d3c"/><path d="m330.999 439.678c0-6.351 0-13.128 0-16.84 0-8.284-6.716-15-15-15-6.655 0-12.289 4.338-14.251 10.337l8.395 31.502z" fill="#bd7f54"/><path d="m301 454.678h29.999s0-7.177 0-15h-20.856l-8.395-21.502c-.48 1.469-.748 3.033-.748 4.662z" fill="#b36d3c"/><path d="m421 439.678c0-6.351 0-13.128 0-16.84 0-8.284-6.716-15-15-15-6.655 0-12.289 4.338-14.251 10.337l8.395 31.502z" fill="#bd7f54"/><path d="m391 454.678h30s0-7.177 0-15h-20.856l-8.395-21.502c-.48 1.469-.748 3.033-.748 4.662 0 8.285-.001 31.84-.001 31.84z" fill="#b36d3c"/><path d="m466 407.839c-8.284 0-15 6.716-15 15v16.84l15 10 15-10c0-6.351 0-13.128 0-16.84 0-8.284-6.716-15-15-15z" fill="#bd7f54"/><path d="m451 454.678h29.999s0-7.177 0-15h-29.999z" fill="#b36d3c"/></g><g><g><path d="m504.5 462.178h-113.5-383.5c-4.142 0-7.5-3.358-7.5-7.5s3.358-7.5 7.5-7.5h16v-91.839c-4.142 0-7.5-3.358-7.5-7.5s3.358-7.5 7.5-7.5v-91.839c-4.142 0-7.5-3.358-7.5-7.5s3.358-7.5 7.5-7.5v-91.871c-3.819-.348-6.811-3.559-6.811-7.469s2.992-7.121 6.811-7.469v-61.87c-4.142 0-7.5-3.358-7.5-7.5s3.358-7.5 7.5-7.5h67.5c3.089 0 5.863 1.895 6.986 4.772l28.136 72.066h33.114c4.142 0 7.5 3.358 7.5 7.5s-3.358 7.5-7.5 7.5h-.736v21.088l6.767 17.332h45.733c4.142 0 7.5 3.358 7.5 7.5v45.921h82.5c4.142 0 7.5 3.358 7.5 7.5v28.588l15.798 40.466c2.614-9.531 11.354-16.554 21.703-16.554 12.406 0 22.5 10.093 22.5 22.5v24.339h15v-24.339c0-12.406 10.093-22.5 22.5-22.5 12.406 0 22.5 10.093 22.5 22.5v24.339h15v-24.339c0-12.406 10.093-22.5 22.5-22.5 2.628 0 5.153.453 7.5 1.285v-16.285h-142.501c-4.142 0-7.5-3.358-7.5-7.5s3.358-7.5 7.5-7.5h142.5v-15h-142.5c-1.989 0-3.897-.79-5.303-2.197-1.407-1.407-2.197-3.314-2.197-5.303v-23.419c0-4.142 3.358-7.5 7.5-7.5 4.142 0 7.5 3.358 7.5 7.5v15.919h45v-15.919c0-4.142 3.358-7.5 7.5-7.5s7.5 3.358 7.5 7.5v15.919h45v-15.919c0-4.142 3.358-7.5 7.5-7.5s7.5 3.358 7.5 7.5v15.919h15v-38.419h-180v16.919c0 4.142-3.358 7.5-7.5 7.5s-7.5-3.358-7.5-7.5v-24.419c0-4.142 3.358-7.5 7.5-7.5h195c4.142 0 7.5 3.358 7.5 7.5v45.919h.047c4.142 0 7.5 3.358 7.5 7.5s-3.358 7.5-7.5 7.5h-.047v91.839h.047c4.142 0 7.5 3.358 7.5 7.5s-3.358 7.5-7.5 7.5h-.047v91.839h16c4.142 0 7.5 3.358 7.5 7.5s-3.358 7.5-7.5 7.5zm-46-15h15v-24.339c0-4.136-3.364-7.5-7.5-7.5s-7.5 3.364-7.5 7.5zm-30 0h15v-24.339c0-12.407 10.093-22.5 22.5-22.5 2.628 0 5.153.453 7.5 1.285v-16.285h-82.5c-4.142 0-7.5-3.358-7.5-7.5s3.358-7.5 7.5-7.5h82.5v-15h-105v21.088l15.798 40.466c2.614-9.531 11.354-16.554 21.703-16.554 12.406 0 22.5 10.093 22.5 22.5zm-30 0h15v-24.339c0-4.136-3.364-7.5-7.5-7.5s-7.5 3.364-7.5 7.5zm-60.001 0h41.521l-24.143-61.839h-54.877c-4.142 0-7.5-3.358-7.5-7.5s3.358-7.5 7.5-7.5h52.5v-15h-75v21.088l15.798 40.464c2.615-9.53 11.354-16.552 21.702-16.552 12.407 0 22.5 10.093 22.5 22.5zm-29.999 0h14.999l.001-24.339c0-4.136-3.365-7.5-7.5-7.5s-7.5 3.364-7.5 7.5zm-60 0h41.521l-24.143-61.839h-114.378c-4.142 0-7.5-3.358-7.5-7.5s3.358-7.5 7.5-7.5h112v-15h-225v15h83c4.142 0 7.5 3.358 7.5 7.5s-3.358 7.5-7.5 7.5h-83v16.285c2.347-.832 4.872-1.285 7.5-1.285 12.406 0 22.5 10.093 22.5 22.5v24.339h15v-24.339c0-12.407 10.093-22.5 22.5-22.5 12.406 0 22.5 10.093 22.5 22.5v24.339h15v-24.339c0-12.407 10.093-22.5 22.5-22.5 12.406 0 22.5 10.093 22.5 22.5v24.339h15v-24.339c0-12.407 10.093-22.5 22.5-22.5 12.406 0 22.5 10.093 22.5 22.5zm-30 0h15v-24.339c0-4.136-3.364-7.5-7.5-7.5s-7.5 3.364-7.5 7.5zm-60 0h15v-24.339c0-4.136-3.364-7.5-7.5-7.5s-7.5 3.364-7.5 7.5zm-60 0h15v-24.339c0-4.136-3.364-7.5-7.5-7.5s-7.5 3.364-7.5 7.5zm-60 0h15v-24.339c0-4.136-3.364-7.5-7.5-7.5s-7.5 3.364-7.5 7.5zm420-106.839h15v-24.339c0-4.135-3.364-7.5-7.5-7.5s-7.5 3.364-7.5 7.5zm-60 0h15v-24.339c0-4.135-3.364-7.5-7.5-7.5s-7.5 3.364-7.5 7.5zm-60 0h15v-24.339c0-4.135-3.364-7.5-7.5-7.5s-7.5 3.364-7.5 7.5zm-60 0h41.52l-24.144-61.839h-54.876c-4.142 0-7.5-3.358-7.5-7.5s3.358-7.5 7.5-7.5h52.5v-15h-75v21.088l15.798 40.464c2.615-9.53 11.354-16.552 21.702-16.552 12.407 0 22.5 10.093 22.5 22.5zm-30 0h15v-24.339c0-4.135-3.365-7.5-7.5-7.5s-7.5 3.364-7.5 7.5zm-60 0h41.521l-24.144-61.839h-167.377v16.285c2.347-.832 4.872-1.285 7.5-1.285 12.406 0 22.5 10.093 22.5 22.5v24.339h15v-24.339c0-12.406 10.093-22.5 22.5-22.5 12.406 0 22.5 10.093 22.5 22.5v24.339h15v-24.339c0-12.406 10.093-22.5 22.5-22.5 12.406 0 22.5 10.093 22.5 22.5zm-30 0h15v-24.339c0-4.135-3.364-7.5-7.5-7.5s-7.5 3.364-7.5 7.5zm-60 0h15v-24.339c0-4.135-3.364-7.5-7.5-7.5s-7.5 3.364-7.5 7.5zm-60 0h15v-24.339c0-4.135-3.364-7.5-7.5-7.5s-7.5 3.364-7.5 7.5zm0-76.839h165v-15h-22.326c-.115.003-.23.003-.345 0h-142.329zm147.623-30h17.377v-38.419h-32.377zm-57.623 0h41.521l-16.801-43.033c-.044-.106-.086-.213-.125-.321l-7.217-18.485h-107.378v16.285c2.347-.832 4.872-1.285 7.5-1.285 12.406 0 22.5 10.093 22.5 22.5v24.34h15v-24.34c0-12.406 10.093-22.5 22.5-22.5 12.406 0 22.5 10.093 22.5 22.5zm-30 0h15v-24.34c0-4.135-3.364-7.5-7.5-7.5s-7.5 3.364-7.5 7.5zm-60 0h15v-24.34c0-4.135-3.364-7.5-7.5-7.5s-7.5 3.364-7.5 7.5zm0-76.839h105v-15h-105zm0-30h71.52l-24.143-61.839h-47.377zm22.5-21.42c-4.142 0-7.5-3.358-7.5-7.5v-10.419c0-4.142 3.358-7.5 7.5-7.5s7.5 3.358 7.5 7.5v10.419c0 4.142-3.358 7.5-7.5 7.5z"/></g></g></g></svg>