<?xml version="1.0" encoding="iso-8859-1"?>
<!-- Generator: Adobe Illustrator 19.0.0, SVG Export Plug-In . SVG Version: 6.00 Build 0)  -->
<svg version="1.1" id="Capa_1" xmlns="http://www.w3.org/2000/svg" xmlns:xlink="http://www.w3.org/1999/xlink" x="0px" y="0px"
	 viewBox="0 0 512 512" style="enable-background:new 0 0 512 512;" xml:space="preserve">
<g>
	<rect x="7.743" y="399.61" style="fill:#FF5352;" width="496.515" height="104.898"/>
	<rect x="319.189" y="310.697" style="fill:#FF5352;" width="62.439" height="88.913"/>
	<rect x="412.098" y="195.809" style="fill:#FF5352;" width="62.439" height="203.801"/>
</g>
<path style="fill:#F23030;" d="M504.258,399.61v104.898H375.384V419.59h-44.347c0,0,12.208-9.021,26.674-19.98h54.387v-50.92
	L449.312,287l25.225,41.819v70.791H504.258z"/>
<path style="fill:#FF5352;" d="M489.114,180.675c-30.404-14.954-39.428-38.89-69.059-54.169c-0.349,0.21-0.685,0.43-1.045,0.63
	c-9.826,5.482-17.61,11.141-21.921,19.352c27.502,13.4,37.563,34.126,60.791,49.322h16.657
	C480.826,191.024,485.854,186.492,489.114,180.675z"/>
<path style="fill:#EDCE83;" d="M331.772,238.112c-1.717,1.439-3.598,2.756-5.669,3.911c-7.291,4.067-13.454,8.235-17.911,13.467
	l55.205,55.206h18.232c4.702-3.578,8.691-7.018,11.773-10.954L331.772,238.112z"/>
<path style="fill:#81C784;" d="M123.63,205.099c-38.258,38.258-60.42,16.315-98.589,54.241c1.641,1.465,3.365,2.925,5.18,4.403
	h74.927c13.72-10.436,22.478-19.846,22.478-39.411c0-7.668-1.402-13.926-3.975-19.26L123.63,205.099z"/>
<polygon style="fill:#FF5352;" points="292.465,309.698 292.465,399.61 84.668,399.61 84.668,309.698 105.148,269.477 
	167.587,146.857 167.587,103.899 205.3,103.899 205.3,146.857 "/>
<path style="fill:#F23030;" d="M147.606,224.331c0,24.406-10.57,38.492-22.478,48.932V399.61h-40.46v-89.912l57.324-112.57
	C145.768,205.24,147.606,214.151,147.606,224.331z"/>
<rect x="30.221" y="263.742" style="fill:#FF5352;" width="74.927" height="135.867"/>
<path style="fill:#F23030;" d="M292.465,309.698v15.265c-3.327,6.354-7.782,11.539-12.738,16.084v58.563h-102.4v-58.882
	c-10.01-9.561-18.122-21.509-18.692-39.641c-0.979-30.76,17.573-45.336,35.855-55.536c6.793-3.786,7.812-10.26,7.812-13.777v-20.21
	l37.863,0.43L292.465,309.698z"/>
<path style="fill:#80D8FF;" d="M234.771,231.918h-12.488c0,12.585-6.072,24.396-18.063,31.085
	c-15.738,8.779-26.235,18.013-25.619,37.453c0.454,14.292,7.828,22.358,18.706,31.22h62.44
	c11.433-8.696,18.732-16.538,18.732-32.843c0-18.573-9.868-27.236-24.912-35.84C242.233,256.512,234.771,244.974,234.771,231.918z"
	/>
<path style="fill:#E9B875;" d="M190.315,44.044l-7.493-0.087c0,7.551-3.643,14.724-10.837,18.738
	c-9.443,5.268-15.741,10.808-15.371,22.472c0.272,8.576,4.447,13.415,10.974,18.732h37.713c6.86-5.218,11.239-9.923,11.239-19.706
	c0-11.143-5.921-16.342-14.947-21.504C194.791,58.8,190.315,51.877,190.315,44.044z"/>
<path style="fill:#FFFFFF;" d="M123.651,205.071c-4.348-9.01-12.044-15.378-21.977-21.422
	c-36.223,34.896-56.069,17.288-92.438,52.651c2.527,9.292,8.158,16.22,15.805,23.04c38.169-37.926,60.331-15.983,98.589-54.241
	L123.651,205.071z"/>
<g>
	<path style="fill:#81C784;" d="M97.732,181.323c-13.601-7.777-22.555-21.623-22.555-37.291H60.192
		c0,15.102-7.287,29.275-21.676,37.303C19.631,191.87,7.035,202.951,7.774,226.279c0.116,3.657,0.63,6.96,1.463,10.019
		c36.368-35.362,56.214-17.755,92.438-52.651C100.395,182.869,99.083,182.095,97.732,181.323z"/>
	<path style="fill:#81C784;" d="M300.483,279.477c0.454,14.292,7.828,22.358,18.706,31.22h44.207l-55.206-55.206
		C303.026,261.552,300.152,269.043,300.483,279.477z"/>
	<path style="fill:#81C784;" d="M400.36,277.854c0-18.573-9.868-27.236-24.912-35.84c-11.334-6.482-18.796-18.019-18.796-31.076
		h-12.488c0,10.411-4.168,20.284-12.393,27.173l61.63,61.63C397.815,294.109,400.36,287.452,400.36,277.854z"/>
	<path style="fill:#81C784;" d="M489.114,180.675c2.666-4.758,4.155-10.373,4.155-17.709c0-18.573-9.868-27.236-24.912-35.84
		c-11.334-6.482-18.796-18.163-18.796-31.22h-12.488c0,12.208-5.731,23.808-17.018,30.599
		C449.685,141.785,458.711,165.72,489.114,180.675z"/>
	<path style="fill:#81C784;" d="M397.091,146.487c-2.593,4.939-3.93,10.8-3.698,18.102c0.454,14.292,7.828,22.358,18.706,31.22
		h45.783C434.654,180.614,424.592,159.887,397.091,146.487z"/>
</g>
<rect x="30.221" y="263.742" style="fill:#F23030;" width="74.927" height="19.98"/>
<path style="fill:#DA9D4F;" d="M198.122,81.92h-23.002c-6.3,0-12.28-3.133-15.579-8.501c-0.033-0.054-0.066-0.108-0.099-0.162
	c-1.947,3.178-2.987,6.996-2.831,11.909c0.272,8.576,4.447,13.415,10.973,18.732h37.713c6.86-5.218,11.239-9.923,11.239-19.706
	c0-4.498-0.978-8.016-2.722-10.965c-0.02,0.033-0.039,0.066-0.059,0.099C210.492,78.759,204.461,81.92,198.122,81.92z"/>
<rect x="167.587" y="103.899" style="fill:#F23030;" width="37.713" height="19.98"/>
<rect x="197.308" y="331.676" style="fill:#FF5352;" width="62.439" height="67.934"/>
<g>
	<rect x="412.098" y="195.809" style="fill:#F23030;" width="62.439" height="19.98"/>
	<rect x="319.189" y="310.697" style="fill:#F23030;" width="62.439" height="19.98"/>
	<rect x="197.308" y="331.676" style="fill:#F23030;" width="62.439" height="19.98"/>
</g>
<path style="fill:#4CAF50;" d="M127.626,224.331c0-3.242-0.265-6.219-0.749-8.994c-0.382,0.041-0.612,0.083-0.622,0.124
	c-4.043,16.197-18.986,27.302-35.681,27.302H46.362c-6.635,3.76-13.655,8.959-21.321,16.577c1.641,1.465,3.365,2.925,5.18,4.403
	h74.927C118.868,253.307,127.626,243.897,127.626,224.331z"/>
<path style="fill:#40C4FF;" d="M247.691,309.698h-38.148c-9.663,0-18.891-4.448-24.575-12.262c-2.128-2.926-3.786-6.075-4.879-9.646
	c-1.112,3.699-1.639,7.871-1.487,12.667c0.454,14.292,7.828,22.358,18.706,31.22h62.439c11.433-8.696,18.732-16.538,18.732-32.843
	c0-4.099-0.483-7.714-1.394-10.954c-0.132,0.468-0.272,0.927-0.421,1.378C272.581,301.608,260.7,309.698,247.691,309.698z"/>
<path style="fill:#FFFFFF;" d="M230.9,231.918h-4.745c0,12.585-2.308,24.396-6.864,31.085c-5.98,8.779-9.969,18.013-9.735,37.453
	c0.172,14.292,2.975,22.358,7.108,31.22h23.727c4.345-8.696,7.118-16.538,7.118-32.843c0-18.573-3.75-27.236-9.467-35.84
	C233.735,256.512,230.9,244.974,230.9,231.918z"/>
<path style="fill:#D8D7DA;" d="M210.113,309.698c1.03,8.931,3.402,15.228,6.551,21.979h23.727c3.25-6.505,5.619-12.533,6.608-21.979
	H210.113z"/>
<path style="fill:#4CAF50;" d="M393.401,278.763c-0.031,0.039-0.062,0.079-0.093,0.118c-5.498,6.96-14.028,10.836-22.898,10.836
	h-39.562c-9.029,0-17.632-4.068-23.183-11.188c-2.624-3.367-4.621-7.004-5.837-11.231c-1.015,3.578-1.49,7.594-1.345,12.179
	c0.454,14.292,7.828,22.358,18.706,31.22h62.439c4.702-3.578,8.691-7.018,11.773-10.954c4.413-5.633,6.958-12.291,6.958-21.889
	c0-3.892-0.439-7.345-1.263-10.457C397.931,271.794,395.991,275.458,393.401,278.763z"/>
<path style="fill:#EABE5C;" d="M370.411,289.717h-27.995l20.979,20.98h18.232c4.702-3.578,8.691-7.018,11.773-10.954l-12.072-12.072
	C377.888,289.01,374.181,289.717,370.411,289.717z"/>
<path style="fill:#4CAF50;" d="M489.114,158.696c-0.233,0.416-0.475,0.824-0.725,1.228c-5.476,8.799-15.334,13.906-25.699,13.906
	h-38.387c-9.642,0-18.845-4.44-24.523-12.231c-2.135-2.929-3.799-6.082-4.895-9.657c-1.11,3.696-1.644,7.856-1.493,12.647
	c0.454,14.292,7.828,22.358,18.706,31.22h62.439c6.289-4.784,11.317-9.317,14.577-15.134c2.666-4.758,4.155-10.373,4.155-17.709
	c0-4.113-0.486-7.738-1.403-10.986C491.179,154.419,490.264,156.644,489.114,158.696z"/>
<g>
	<path style="fill:#F23030;" d="M462.69,173.83h-30.232c7.664,7.668,15.291,15.349,25.424,21.979h16.656
		c6.289-4.784,11.317-9.317,14.577-15.134c-5.594-2.751-10.459-5.807-14.865-9.056C470.619,173.06,466.694,173.83,462.69,173.83z"/>
	<rect x="30.221" y="379.629" style="fill:#F23030;" width="262.244" height="19.98"/>
	<rect x="319.189" y="379.629" style="fill:#F23030;" width="62.439" height="19.98"/>
	<rect x="412.098" y="379.629" style="fill:#F23030;" width="62.439" height="19.98"/>
</g>
<rect x="395.365" y="399.61" style="fill:#FF5352;" width="107.895" height="104.898"/>
<path style="fill:#81C784;" d="M477.256,372.011l-27.944-46.329l-27.944,46.329c-6.603,10.947-15.469,20.357-26.004,27.599h107.895
	C492.724,392.367,483.859,382.957,477.256,372.011z"/>
<path style="fill:#616161;" d="M449.775,426.587c-13.44-0.255-24.44,11.07-24.44,24.512v53.408h47.953V450.56
	C473.288,437.473,462.804,426.835,449.775,426.587z"/>
<path style="fill:#424242;" d="M449.775,426.587c-13.44-0.255-24.44,11.07-24.44,24.512v20.979c0-13.442,11-24.767,24.44-24.512
	c13.028,0.248,23.513,10.885,23.513,23.973v-20.98C473.288,437.473,462.804,426.835,449.775,426.587z"/>
<rect x="395.365" y="399.61" style="fill:#F23030;" width="107.895" height="19.98"/>
<path d="M505.69,392.117c-8.898-6.475-16.312-14.517-22.017-23.977l-1.642-2.723V199.468c9.863-7.912,18.732-17.773,18.732-36.502
	c0-23.936-14.807-34.407-28.685-42.345c-9.266-5.298-15.022-14.769-15.022-24.715v-7.493h-6.244V72.429h12.488V57.444H450.81V44.956
	h-14.985v12.488h-12.488v14.985h12.488v15.984h-6.244v7.493c0,10.647-5.183,19.645-14.22,24.686
	c-14.672,8.184-30.256,19.026-29.457,44.235c0.528,16.686,9.183,26.4,18.702,34.497v61.096
	c-5.121-12.262-15.515-19.236-25.438-24.911c-9.407-5.379-15.022-14.565-15.022-24.571v-7.493h-6.244v-18.127h12.488v-14.985
	h-12.488v-12.488h-14.985v12.488h-12.488v14.985h12.488v18.127h-6.244v7.493c0,10.555-5.183,19.5-14.22,24.541
	c-14.672,8.184-30.256,19.026-29.457,44.235c0.528,16.686,9.183,26.4,18.702,34.497v77.905h-11.739v-49.452h-14.985v49.452H267.24
	v-56.782c9.863-7.912,18.732-17.773,18.732-36.502c0-23.936-14.807-34.407-28.685-42.345c-9.407-5.379-15.022-14.565-15.022-24.571
	v-7.493h-6.244v-19.299h12.488V190.14H236.02v-12.488h-14.985v12.488h-12.488v14.985h12.488v19.299h-6.244v7.493
	c0,10.555-5.183,19.5-14.22,24.541c-14.672,8.184-30.256,19.026-29.457,44.235c0.528,16.686,9.183,26.4,18.702,34.497v56.926
	h-77.175V267.414c11.734-9.288,21.742-20.037,22.438-40.755l0.224,0.114l36.878-72.423h28.632l7.508,14.026l13.212-7.072
	l-8.739-16.326v-37.475c5.859-4.94,11.239-11.554,11.239-23.309c0-15.206-8.997-22.448-18.721-28.009
	c-4.698-2.686-7.504-7.226-7.504-12.141v-7.407l-3.746-0.043v-9.12h12.488V12.488h-12.488V0h-14.985v12.488h-12.488v14.985h12.488
	v8.947l-3.746-0.043v7.58c0,5.269-2.55,9.715-6.995,12.194c-10.277,5.732-19.718,13.245-19.21,29.252
	c0.338,10.654,5.46,17.045,10.969,21.958v37.697l-29.35,57.64c-6.186-13.534-17.998-21.421-29.292-27.88
	c-11.761-6.725-18.782-18.234-18.782-30.786v-7.493h-7.493v-17.156h12.488v-14.985H75.176V91.91H60.191v12.488H47.703v14.985h12.488
	v17.156h-7.493v7.493c0,13.225-6.5,24.436-17.834,30.759c-17.22,9.607-35.513,22.318-34.581,51.725
	c0.625,19.727,11.075,31.159,22.443,40.748v124.852H0.25V512h511.5V392.117H505.69z M197.807,139.364H175.08v-27.973h22.728V139.364
	z M175.635,69.238c4.751-2.651,8.513-6.456,11.038-10.992c2.587,4.421,6.402,8.204,11.199,10.947
	c8.668,4.956,11.174,8.321,11.174,14.999c0,5.596-1.702,8.412-6.338,12.213h-32.38c-4.625-4.091-6.082-6.925-6.226-11.477
	C163.879,77.873,166.465,74.353,175.635,69.238z M483.113,392.117h-67.627c4.624-4.939,8.747-10.35,12.298-16.236l21.528-35.692
	l21.528,35.692C474.387,381.762,478.493,387.182,483.113,392.117z M441.819,290.716v32.881l-22.228,36.852V203.301h47.454v137.272
	l-10.24-16.976v-32.881H441.819z M443.389,106.219c2.916,11.274,10.516,21.272,21.249,27.411
	c14.02,8.017,21.138,14.757,21.138,29.335c0,2.588-0.213,4.881-0.624,6.979c-10.422-6.395-18.076-14.047-26.091-22.067
	c-7.639-7.645-15.492-15.487-25.928-22.378C438.157,120.12,441.679,113.515,443.389,106.219z M420.169,135.102
	c11.565,6.645,19.718,14.788,28.291,23.367c8.483,8.489,17.218,17.214,29.457,24.609c-1.693,1.722-3.659,3.433-5.942,5.237h-11.78
	c-8.459-5.826-15.116-12.456-22.111-19.458c-8.595-8.604-17.449-17.447-29.942-24.902
	C411.207,140.809,415.214,137.996,420.169,135.102z M400.881,164.352c-0.081-2.563,0.078-4.877,0.435-7.021
	c10.462,6.403,18.134,14.078,26.166,22.118c2.938,2.941,5.916,5.92,9.065,8.866h-21.744
	C405.833,180.732,401.206,174.587,400.881,164.352z M350.457,221.29c2.871,11.226,10.38,21,21.271,27.228
	c14.02,8.017,21.138,14.757,21.138,29.335c0,3.669-0.409,6.763-1.245,9.513l-49.347-49.347
	C346.189,233.158,348.987,227.476,350.457,221.29z M329.752,248.567c0.402-0.224,0.788-0.464,1.18-0.698l52.044,52.044
	c-1.193,1.078-2.486,2.166-3.909,3.291h-12.568l-47.62-47.62C321.897,253.199,325.512,250.932,329.752,248.567z M374.135,318.189
	v73.928h-47.454v-73.928H374.135z M307.972,279.239c-0.145-4.56,0.425-8.372,1.658-11.713l35.676,35.676H321.89
	C312.92,295.619,308.297,289.475,307.972,279.239z M270.986,298.833c0,11.936-4.278,17.824-13.801,25.35h-5.563
	c2.179-6.748,3.379-14.421,3.379-25.35c0-12.959-1.746-21.789-4.797-29.127C263.982,277.632,270.986,284.381,270.986,298.833z
	 M225.483,267.221c1.183-1.736,2.244-3.757,3.188-6.001c0.937,2.191,1.98,4.188,3.131,5.92c4.495,6.763,8.214,13.816,8.214,31.693
	c0,12.6-1.793,19.411-4.374,25.35h-14.091c-2.828-6.895-4.379-13.505-4.504-23.817C216.821,281.526,220.909,273.937,225.483,267.221
	z M252.254,339.169v52.948h-47.454v-52.948H252.254z M186.091,300.219c-0.477-15.026,6.629-22.071,20.774-30.098
	c-3.145,7.614-4.963,16.943-4.801,30.425c0.117,9.695,1.392,16.98,3.541,23.637h-5.595
	C191.039,316.599,186.416,310.455,186.091,300.219z M120.133,224.331c0,15.005-5.666,22.589-17.543,31.919h-62.84
	c13.294-10.468,24.564-13.483,36.362-16.638c13.43-3.59,27.247-7.29,43.701-20.894C120.022,220.485,120.133,222.346,120.133,224.331
	z M97.655,271.235v120.882H37.714V271.235H97.655z M15.353,221.046c1.128-15.79,10.535-24.086,26.814-33.169
	c13.788-7.691,22.781-20.95,24.988-36.353h1.107c2.052,13.201,9.496,25.037,20.931,33.207
	c-13.314,10.859-24.252,14.276-35.729,17.857C41.731,206.248,29.678,210.016,15.353,221.046z M17.889,238.453
	c15.316-13.842,27.349-17.602,40.037-21.56c13.453-4.197,27.332-8.535,44.579-23.818c4.909,3.348,8.802,6.757,11.667,10.692
	c-15.792,14.371-28.519,17.783-41.929,21.368c-14.356,3.838-29.155,7.795-47.144,23.85C21.93,245.603,19.528,242.214,17.889,238.453
	z M387.872,497.015H15.236v-89.912h372.636V497.015z M392.934,392.117h-3.813v-77.761c6.214-4.985,12.029-10.746,15.485-19.008
	v86.489C401.073,385.613,397.167,389.037,392.934,392.117z M465.796,497.015h-32.968V451.1c0-4.579,1.895-9.065,5.2-12.307
	c3.181-3.122,7.303-4.802,11.606-4.713c8.912,0.169,16.162,7.563,16.162,16.481V497.015z M496.766,497.015h-15.984V450.56
	c0-17.026-13.845-31.141-30.864-31.463c-8.363-0.153-16.309,3.038-22.385,9c-6.158,6.042-9.69,14.426-9.69,23.004v45.914h-14.985
	v-89.912h93.908L496.766,497.015L496.766,497.015z"/>
<g>
	<path style="fill:#FFFFFF;" d="M372.886,481.53h-14.985v-29.971h14.985V481.53z M372.886,436.574h-14.985v-14.985h14.985V436.574z"
		/>
	<path style="fill:#FFFFFF;" d="M336.478,481.53h-14.985v-29.971h14.985V481.53z M336.478,436.574h-14.985v-14.985h14.985V436.574z"
		/>
	<path style="fill:#FFFFFF;" d="M300.069,481.53h-14.985v-29.971h14.985V481.53z M300.069,436.574h-14.985v-14.985h14.985V436.574z"
		/>
	<path style="fill:#FFFFFF;" d="M263.66,481.53h-14.985v-29.971h14.985V481.53z M263.66,436.574h-14.985v-14.985h14.985V436.574z"/>
	<path style="fill:#FFFFFF;" d="M227.251,481.53h-14.985v-29.971h14.985V481.53z M227.251,436.574h-14.985v-14.985h14.985V436.574z"
		/>
	<path style="fill:#FFFFFF;" d="M190.842,481.53h-14.985v-29.971h14.985V481.53z M190.842,436.574h-14.985v-14.985h14.985V436.574z"
		/>
	<path style="fill:#FFFFFF;" d="M154.433,481.53h-14.985v-29.971h14.985V481.53z M154.433,436.574h-14.985v-14.985h14.985V436.574z"
		/>
	<path style="fill:#FFFFFF;" d="M118.024,481.53h-14.985v-29.971h14.985V481.53z M118.024,436.574h-14.985v-14.985h14.985V436.574z"
		/>
	<path style="fill:#FFFFFF;" d="M81.615,481.53H66.63v-29.971h14.985V481.53z M81.615,436.574H66.63v-14.985h14.985V436.574z"/>
	<path style="fill:#FFFFFF;" d="M45.206,481.53H30.221v-29.971h14.985V481.53z M45.206,436.574H30.221v-14.985h14.985V436.574z"/>
	<path style="fill:#FFFFFF;" d="M145.109,375.633h-14.985v-14.339h14.985V375.633z M145.109,346.309h-14.985v-37.854l25.345-74.316
		l14.183,4.837l-24.543,71.965V346.309z M174.489,224.792l-14.183-4.837l4.837-14.183l14.183,4.837L174.489,224.792z
		 M184.164,196.426l-14.183-4.837l4.837-14.183l14.183,4.837L184.164,196.426z"/>
	<path style="fill:#FFFFFF;" d="M450.81,265.74h-14.985v-14.985h14.985V265.74z M450.81,235.77h-14.985v-14.985h14.985V235.77z"/>
</g>
<g>
</g>
<g>
</g>
<g>
</g>
<g>
</g>
<g>
</g>
<g>
</g>
<g>
</g>
<g>
</g>
<g>
</g>
<g>
</g>
<g>
</g>
<g>
</g>
<g>
</g>
<g>
</g>
<g>
</g>
</svg>
