<svg id="Capa_1" enable-background="new 0 0 512.792 512.792" height="512" viewBox="0 0 512.792 512.792" width="512" xmlns="http://www.w3.org/2000/svg"><g><g><path d="m319.34 327.379v172.914l115-10v-45l-4.46-7 4.46-8v-45l-4-7 4-8v-22.914c0-3.823.335-7.139.859-10z" fill="#f4daa7"/><path d="m329.34 445.292h105v-15h-105v-45h105v-15h-105v-32.914h105.859c1.968-10.734 6.641-15 6.641-15l-68.915-65-66.085 65s7.5 6.835 7.5 25v157.914h120v-15h-105z" fill="#f0c87e"/><path d="m405.152 132.379-8.37-17 8.37-13s-23.171-32.39-30.813-81.879c-7.641 49.489-30.812 81.879-30.812 81.879l8.37 13-8.37 17-29.188 30 60 15 60-15z" fill="#5f6c75"/><path d="m441.84 192.379h-7.5l-10-7.56 10-7.44v-15h-105l-15 30-10 125 145-10v-107.5c0-4.142-3.358-7.5-7.5-7.5z" fill="#f8e7c7"/><path d="m314.34 304.628v-112.249h-7.5c-4.142 0-7.5 3.358-7.5 7.5v115c0 4.142 3.358 7.5 7.5 7.5h135c4.142 0 7.5-3.358 7.5-7.5v-7.5h-132.25c-1.519 0-2.75-1.232-2.75-2.751z" fill="#f4daa7"/><path d="m329.34 162.379h-15v30h120v-15h-101.5c-1.933 0-3.5-1.567-3.5-3.5z" fill="#f4daa7"/><path d="m405.152 117.379-53.255 5 6.63-20h46.625z" fill="#f8e7c7"/><path d="m358.527 102.379h-15v30h61.625v-15h-43.125c-1.933 0-3.5-1.567-3.5-3.5z" fill="#f4daa7"/><path d="m411.84 292.379h-75c-4.142 0-7.5-3.358-7.5-7.5v-75c0-4.142 3.358-7.5 7.5-7.5h75c4.142 0 7.5 3.358 7.5 7.5v75c0 4.142-3.358 7.5-7.5 7.5z" fill="#cf9875"/><path d="m374.34 202.379c-9.617 0-18.522 3.026-25.835 8.165-5.139 7.313-12.165 20.218-12.165 29.835 0 24.853 20.147 45 45 45 9.617 0 22.522-7.026 29.835-12.165 5.139-7.313 8.165-16.218 8.165-25.835 0-24.853-20.147-45-45-45z" fill="#e9edf1"/><path d="m340.34 236.379c0-9.617 3.027-18.522 8.165-25.835-11.586 8.141-19.165 21.599-19.165 36.835 0 24.853 20.147 45 45 45 15.236 0 28.694-7.579 36.835-19.165-7.313 5.139-16.218 8.165-25.835 8.165-24.853 0-45-20.147-45-45z" fill="#c8d2dc"/><path d="m264.34 445.292s-16.92-32.39-22.5-81.879c-5.58 49.489-22.5 81.879-22.5 81.879l22.5 11.323z" fill="#5f6c75"/><path d="m148.452 445.292s-16.92-32.39-22.5-81.879c-5.58 49.489-22.5 81.879-22.5 81.879l22.5 11.323z" fill="#5f6c75"/><path d="m118.452 505.292h31.437l33.697-7.441 50.754 7.441h29.999l.001-60h-30l-10.103 49.619-75.785-19.619v-30h-30l-10 30.124z" fill="#f8e7c7"/><path d="m118.452 445.292v60h-15v-60zm100.888 0v30l-7.377 3-7.623-3h-55.888v30h55.888l5.85-2 9.15 2h15v-60z" fill="#f4daa7"/><path d="m204.34 475.292h15v30h-15z" fill="#f0c87e"/></g><g><g><path d="m434.34 512.792c-4.143 0-7.5-3.358-7.5-7.5v-52.5h-25v52.5c0 4.142-3.357 7.5-7.5 7.5s-7.5-3.358-7.5-7.5v-52.5h-25v52.5c0 4.142-3.357 7.5-7.5 7.5s-7.5-3.358-7.5-7.5v-52.5h-25v52.5c0 4.142-3.357 7.5-7.5 7.5h-50.001c-1.989 0-3.896-.79-5.304-2.197-1.406-1.407-2.196-3.314-2.196-5.303l.001-52.5h-30l-.001 52.5c0 4.142-3.358 7.5-7.5 7.5-4.143 0-7.5-3.358-7.5-7.5v-22.5h-20.443v22.5c0 4.142-3.357 7.5-7.5 7.5s-7.5-3.358-7.5-7.5v-22.5h-20.443v22.5c0 4.142-3.357 7.5-7.5 7.5s-7.5-3.358-7.5-7.5v-52.5h-30v52.5c0 4.142-3.357 7.5-7.5 7.5h-40c-4.143 0-7.5-3.358-7.5-7.5s3.357-7.5 7.5-7.5h32.5v-52.5c0-1.209.292-2.401.853-3.473.158-.306 16.262-31.716 21.647-78.831v-12.575c0-4.142 3.357-7.5 7.5-7.5s7.5 3.358 7.5 7.5v12.576c5.386 47.115 21.488 78.525 21.651 78.837.555 1.068.849 2.262.849 3.466v22.5h20.443v-22.5c0-4.142 3.357-7.5 7.5-7.5s7.5 3.358 7.5 7.5v22.5h20.444v-22.5c0-.007 0-.015 0-.022 0-.001 0-.002 0-.004 0-.006 0-.013 0-.02 0-.002 0-.005 0-.007 0-.004 0-.009 0-.014s0-.011 0-.017c0-.001 0-.002.001-.003.014-1.255.336-2.436.895-3.47.929-1.832 16.355-32.832 21.604-78.747v-12.576c0-4.142 3.357-7.5 7.5-7.5s7.5 3.358 7.5 7.5v12.575c5.244 45.881 20.652 76.869 21.606 78.75.562 1.042.884 2.232.894 3.497v.002.012.018.005.021l-.001 52.5h35.001v-150.413c0-10.015-2.533-15.596-4.07-18.061-6.3-1.778-10.93-7.578-10.93-14.439v-115c0-8.271 6.729-15 15-15v-22.5c0-1.954.762-3.83 2.124-5.23l27.063-27.816v-26.954c0-1.565.489-3.091 1.4-4.364.215-.303 22.071-31.446 29.412-78.096v-12.419c0-4.142 3.357-7.5 7.5-7.5s7.5 3.358 7.5 7.5v12.419c7.34 46.65 29.196 77.793 29.417 78.104.903 1.27 1.395 2.797 1.395 4.356v26.954l27.064 27.816c1.361 1.4 2.124 3.276 2.124 5.23v22.5c8.271 0 15 6.729 15 15v27.5c0 4.142-3.357 7.5-7.5 7.5s-7.5-3.358-7.5-7.5v-27.5h-21.318c-4.143 0-7.5-3.358-7.5-7.5s3.357-7.5 7.5-7.5h6.318v-15h-105v15h6.317c4.143 0 7.5 3.358 7.5 7.5s-3.357 7.5-7.5 7.5h-21.316v115h135v-57.5c0-4.142 3.357-7.5 7.5-7.5s7.5 3.358 7.5 7.5v57.5c0 6.861-4.63 12.661-10.93 14.439-1.537 2.465-4.07 8.046-4.07 18.061v157.914c0 4.142-3.357 7.499-7.5 7.499zm-32.5-75h25v-45h-25v4.56c0 4.142-3.357 7.5-7.5 7.5s-7.5-3.358-7.5-7.5v-4.56h-25v45h25v-10.44c0-4.142 3.357-7.5 7.5-7.5s7.5 3.358 7.5 7.5zm-80 0h25v-45h-25zm-90.903 0h21.806c-3.108-7.593-7.209-18.879-10.902-33.154-3.695 14.276-7.795 25.562-10.904 33.154zm-115.888 0h21.807c-3.109-7.593-7.209-18.88-10.903-33.155-3.695 14.276-7.795 25.563-10.904 33.155zm286.791-60h25v-30.414c0-7.228 1.071-13.002 2.513-17.5h-110.026c1.441 4.498 2.513 10.272 2.513 17.5v30.414h25v-25.414c0-4.142 3.357-7.5 7.5-7.5s7.5 3.358 7.5 7.5v25.414h25v-25.414c0-4.142 3.357-7.5 7.5-7.5s7.5 3.358 7.5 7.5zm45.213-50.022c-.001 0-.001 0 0 0zm-114.952-172.891h84.478l-14.594-15h-7.645c-4.143 0-7.5-3.358-7.5-7.5s3.357-7.5 7.5-7.5h3.312v-15h-46.624v15h13.313c4.143 0 7.5 3.358 7.5 7.5s-3.357 7.5-7.5 7.5h-17.646zm24.805-60h34.868c-5.066-9.146-11.874-23.246-17.434-41.188-5.56 17.942-12.368 32.041-17.434 41.188zm17.434 205c-17.39 0-32.831-8.498-42.391-21.56-.137-.162-.269-.331-.394-.507-.121-.169-.233-.342-.338-.518-5.91-8.493-9.378-18.807-9.378-29.916 0-28.949 23.552-52.5 52.5-52.5s52.5 23.551 52.5 52.5-23.551 52.501-52.499 52.501zm-25.579-25.102c6.705 6.263 15.702 10.102 25.579 10.102 20.678 0 37.5-16.822 37.5-37.5 0-18.109-12.904-33.262-30-36.747v22.207l.973-.692c3.379-2.402 8.059-1.61 10.459 1.764 2.401 3.375 1.611 8.058-1.764 10.458l-9.668 6.877v6.132c0 4.142-3.357 7.5-7.5 7.5-2.754 0-5.162-1.485-6.466-3.697zm18.079-64.145c-17.096 3.485-30 18.637-30 36.747 0 5.402 1.148 10.541 3.213 15.185l26.787-19.055z"/></g></g></g></svg>