<?xml version="1.0" encoding="iso-8859-1"?>
<!-- Generator: Adobe Illustrator 19.0.0, SVG Export Plug-In . SVG Version: 6.00 Build 0)  -->
<svg version="1.1" id="Capa_1" xmlns="http://www.w3.org/2000/svg" xmlns:xlink="http://www.w3.org/1999/xlink" x="0px" y="0px"
	 viewBox="0 0 512 512" style="enable-background:new 0 0 512 512;" xml:space="preserve">
<path style="fill:#B0BEC5;" d="M308.132,70.936c-17.034-2.183-34.471-3.303-52.145-3.303c-17.8,0-35.365,1.137-52.52,3.353
	c-26.449,62.634-47.663,164.936-47.663,276.193c0,54.4,4.021,114.803,11.135,157.307h178.123
	c7.114-42.504,11.135-102.907,11.135-157.307C356.196,235.892,334.644,133.566,308.132,70.936z"/>
<path style="fill:#82B1FF;" d="M343.23,197.075c-30.287-31.12-87.744-62.451-120.323-100.307
	c-10.393,0.896-20.597,2.201-30.567,3.905c-0.774,2.313-1.542,4.646-2.299,7.027c7.565,79.596,164.151,129.664,164.151,187.377
	l0.441-0.07C352.579,260.609,348.601,227.635,343.23,197.075z"/>
<path style="fill:#90A4AE;" d="M163.98,484.446c0.917,7.02,1.903,13.73,2.959,20.039h178.123c1.056-6.309,2.042-13.019,2.959-20.039
	H163.98z"/>
<path style="fill:#82B1FF;" d="M308.132,70.936c-17.034-2.183-34.471-3.303-52.145-3.303c-17.8,0-35.365,1.137-52.52,3.353
	c-2.809,6.653-5.559,13.758-8.231,21.269l10.797-1.395c16.377-2.115,33.184-3.187,49.953-3.187c16.645,0,33.333,1.057,49.598,3.141
	l10.804,1.385C313.706,84.688,310.947,77.587,308.132,70.936z"/>
<path style="fill:#B0BEC5;" d="M308.132,70.936C291.339,31.263,272.556,7.515,256,7.515c-16.901,0-35.768,23.767-52.533,63.47
	c17.154-2.215,34.72-3.353,52.52-3.353C273.661,67.632,291.098,68.752,308.132,70.936z"/>
<g>
	<path style="fill:#82B1FF;" d="M356.196,349.072v0.05c-0.04,24.037-0.862,49.216-2.385,73.433l-0.621-0.1
		c0-66.64-185.232-124.243-185.362-217.845l-0.471-0.1c3.527-21.472,7.745-41.822,12.474-60.709l0.08,0.01
		C180.032,231.933,352.589,286.51,356.196,349.072z"/>
	<path style="fill:#82B1FF;" d="M349.943,468.335c-1.403,12.975-3.036,25.159-4.88,36.151h-15.851
		c-39.838-53.334-165.974-105.276-173.088-180.793c0.641-24.418,2.284-48.284,4.739-71.269
		C164.241,344.643,342.729,402.566,349.943,468.335z"/>
</g>
<g>
	<path style="fill:#448AFF;" d="M192.656,99.736c-0.881,2.615-1.754,5.26-2.615,7.965c7.565,79.595,164.151,129.663,164.151,187.376
		l0.441-0.07c-0.664-11.125-1.55-22.08-2.598-32.873C334.331,212.417,213.012,166.579,192.656,99.736z"/>
	<path style="fill:#448AFF;" d="M168.76,196.245c-0.479,2.736-0.947,5.49-1.403,8.264l0.471,0.1
		c0.13,93.603,185.362,151.205,185.362,217.845l0.621,0.1c0.655-10.413,1.171-21.005,1.561-31.607
		C333.057,332.039,181.923,277.787,168.76,196.245z"/>
	<path style="fill:#448AFF;" d="M156.644,309.002c-0.209,4.875-0.39,9.768-0.519,14.691
		c7.114,75.517,133.25,127.459,173.088,180.793h15.851c0.759-4.53,1.482-9.272,2.168-14.179
		C302.468,436.18,178.139,382.936,156.644,309.002z"/>
</g>
<path style="fill:#82B1FF;" d="M263.214,504.485h-96.278c-1.052-6.312-2.044-13.015-2.956-20.039
	c-3.256-24.939-5.611-53.875-6.934-83.293c16.562,30.379,46.821,57.703,79.676,83.293
	C245.439,491.239,254.337,497.912,263.214,504.485z"/>
<path style="fill:#448AFF;" d="M263.214,504.485h-96.278c-1.052-6.312-2.044-13.015-2.956-20.039h72.742
	C245.439,491.239,254.337,497.912,263.214,504.485z"/>
<path style="fill:#90A4AE;" d="M255.987,46.591c-14.188,0-28.222,0.734-42.023,2.149c-3.563,6.71-7.075,14.139-10.496,22.244
	c17.154-2.215,34.72-3.353,52.52-3.353c17.675,0,35.111,1.12,52.145,3.303c-3.43-8.102-6.944-15.527-10.503-22.234
	C283.953,47.311,270.047,46.591,255.987,46.591z"/>
<path d="M357.037,472.423h0.661c0-1.396-0.073-2.784-0.204-4.167c3.802-35.414,6.068-77.254,6.206-117.196h0.066
	c0-0.71-0.025-1.419-0.061-2.125c0.001-0.585,0.004-1.172,0.004-1.755c0-82.264-12.15-168.32-33.372-236.831
	c4.651,0.963,9.27,2.009,13.845,3.156l3.655-14.578c-7.527-1.887-15.156-3.532-22.87-4.941c-1.502-4.306-3.186-8.936-5.044-13.753
	c4.812,0.781,9.593,1.649,14.335,2.608l2.977-14.732c-7.898-1.596-15.897-2.95-23.972-4.07C299.466,32.625,279.483,0,256,0
	c-23.8,0-43.862,32.66-57.657,64.089c-8.093,1.13-16.107,2.496-24.021,4.104l2.994,14.728c4.755-0.966,9.549-1.844,14.375-2.631
	c-1.853,4.818-3.532,9.448-5.028,13.755c-7.703,1.414-15.322,3.064-22.839,4.956l3.667,14.575c4.571-1.15,9.184-2.198,13.83-3.165
	c-12.778,41.503-22.23,89.586-27.675,139.464h-0.348c0.001,0.903,0.019,1.802,0.051,2.697c-2.263,21.331-3.789,42.97-4.533,64.546
	h-0.528c0,2.23,0.113,4.506,0.317,6.759c-0.209,7.786-0.317,15.559-0.317,23.301c0,17.849,0.433,36.136,1.242,54.109v1.794
	l0.091,0.167c1.596,34.222,4.559,67.197,8.522,93.723H79.656V512h353.691v-15.029h-79.491
	C355.002,489.287,356.066,481.063,357.037,472.423z M313.602,107.304c0.448,1.374,0.897,2.739,1.342,4.146
	c6.398,20.182,11.972,42.001,16.658,64.852c-10.791-8.984-23.02-18.002-35.701-27.35c-19.844-14.628-40.234-29.661-56.609-45.726
	c5.539-0.242,11.105-0.367,16.695-0.367C275.548,102.858,294.824,104.354,313.602,107.304z M256,15.029
	c9.966,0,24.699,14.861,39.924,46.983c-13.177-1.256-26.517-1.895-39.937-1.895c-13.538,0-26.995,0.649-40.283,1.927
	C230.967,29.9,245.855,15.029,256,15.029z M208.727,77.907c15.528-1.83,31.332-2.76,47.26-2.76c15.805,0,31.491,0.917,46.908,2.719
	c1.731,4.242,3.459,8.736,5.179,13.435c-17.052-2.308-34.464-3.473-52.088-3.473c-17.743,0-35.27,1.18-52.432,3.518
	C205.271,86.645,206.997,82.151,208.727,77.907z M198.048,107.354c7.182-1.134,14.437-2.054,21.755-2.759
	c18.451,20.514,43.197,38.774,67.181,56.453c18.666,13.761,36.328,26.79,49.212,39.614c3.142,18.256,5.721,37.016,7.706,56.007
	c-14.212-16.049-35.28-31.585-57.036-47.622c-39.633-29.216-84.483-62.281-89.176-100.576
	C197.808,108.098,197.929,107.724,198.048,107.354z M190.008,134.538c15.943,33.531,53.764,61.416,87.939,86.607
	c35.346,26.055,68.73,50.664,68.73,73.931h0.397c0.383,6.305,0.698,12.616,0.945,18.921c-15.115-18.503-39.28-36.318-64.291-54.754
	c-44.918-33.111-95.797-70.621-96.295-114.868C188.27,141.06,189.132,137.787,190.008,134.538z M233.957,496.971h-15.029h-45.584
	c-3.048-19.819-5.517-43.546-7.243-68.81c19.459,24.681,46.487,47.376,74.578,68.81H233.957z M294.074,496.971h-15.029H265.69
	c-40.422-30.018-81.137-62.272-101.215-97.937c-0.488-11.16-0.828-22.435-1.006-33.647c20.37,32.431,57.983,60.161,92.321,85.474
	c21.623,15.939,42.297,31.182,56.955,46.111h-18.671V496.971z M338.656,496.971h-5.77c-15.646-19.477-41.196-38.319-68.178-58.209
	c-45.28-33.378-96.579-71.196-101.053-115.353c0.284-10.219,0.746-20.458,1.386-30.677c19.623,35.843,60.63,66.078,98.017,93.638
	c38.937,28.702,75.793,55.889,79.312,82.023C341.255,478.554,340.013,488.149,338.656,496.971z M345.145,438.492
	c-15.629-21.8-43.857-42.611-73.172-64.22c-47.497-35.012-101.187-74.597-103.554-121.301c0.38-3.532,0.783-7.052,1.202-10.564
	c18.213,36.979,60.117,67.876,98.189,95.94c40.043,29.517,77.865,57.395,77.865,84.103h0.601
	C345.934,427.869,345.555,433.221,345.145,438.492z M347.94,388.525c-15.401-21.134-42.787-41.323-71.211-62.276
	c-47.492-35.008-101.322-74.688-101.386-121.655h-0.348c1.53-9.259,3.201-18.39,5.011-27.358
	c16.612,36.459,57.628,66.699,94.805,94.105c37.307,27.501,72.559,53.503,73.864,78.301
	C348.647,362.495,348.395,375.549,347.94,388.525z"/>
<rect x="49.597" y="496.971" width="15.029" height="15.029"/>
<rect x="448.376" y="496.971" width="14.027" height="15.029"/>
<g>
	<path style="fill:#FFFFFF;" d="M295.783,199.118c-10.783-7.949-21.922-16.159-32.463-24.621l9.409-11.72
		c10.3,8.268,21.313,16.386,31.961,24.235L295.783,199.118z"/>
	<rect x="290.067" y="118.231" style="fill:#FFFFFF;" width="15.029" height="15.029"/>
	
		<rect x="250.964" y="283.04" transform="matrix(-0.7772 -0.6292 0.6292 -0.7772 287.2532 682.8088)" style="fill:#FFFFFF;" width="27.072" height="15.028"/>
	
		<rect x="250.972" y="406.276" transform="matrix(-0.7772 -0.6292 0.6292 -0.7772 209.7253 901.8329)" style="fill:#FFFFFF;" width="27.072" height="15.028"/>
</g>
<g>
</g>
<g>
</g>
<g>
</g>
<g>
</g>
<g>
</g>
<g>
</g>
<g>
</g>
<g>
</g>
<g>
</g>
<g>
</g>
<g>
</g>
<g>
</g>
<g>
</g>
<g>
</g>
<g>
</g>
</svg>
