<svg id="Capa_1" enable-background="new 0 0 512.001 512.001" height="512" viewBox="0 0 512.001 512.001" width="512" xmlns="http://www.w3.org/2000/svg"><g><g><path d="m256.001 7.5c-1.847 0-3.609.35-5.243.961-1.119 2.1-5.757 8.494-5.757 11.039 0 8.284 6.716 15 15 15 1.847 0 7.609-4.35 9.243-4.961 1.119-2.1 1.757-4.494 1.757-7.039 0-8.284-6.716-15-15-15z" fill="#c8d2dc"/><path d="m249.001 15.5c0-2.545.639-4.939 1.757-7.039-5.695 2.128-9.757 7.602-9.757 14.039 0 8.284 6.716 15 15 15 5.739 0 10.721-3.226 13.243-7.961-1.634.611-3.396.961-5.243.961-8.284 0-15-6.716-15-15z" fill="#adb5c1"/><path d="m345.357 25.274c-1.847 0-3.609.35-5.243.961-1.119 2.1-5.757 8.494-5.757 11.039 0 8.284 6.716 15 15 15 1.847 0 7.609-4.35 9.243-4.961 1.119-2.1 1.757-4.494 1.757-7.039 0-8.284-6.715-15-15-15z" fill="#c8d2dc"/><path d="m338.357 33.274c0-2.545.639-4.939 1.757-7.039-5.695 2.128-9.757 7.602-9.757 14.039 0 8.284 6.716 15 15 15 5.739 0 10.721-3.226 13.243-7.961-1.634.611-3.396.961-5.243.961-8.284 0-15-6.715-15-15z" fill="#adb5c1"/><path d="m421.11 75.891c-1.847 0-3.609.35-5.243.961-1.119 2.1-5.757 8.494-5.757 11.039 0 8.284 6.716 15 15 15 1.847 0 7.609-4.35 9.243-4.961 1.119-2.1 1.757-4.494 1.757-7.039 0-8.285-6.715-15-15-15z" fill="#c8d2dc"/><path d="m414.11 83.891c0-2.545.639-4.939 1.757-7.039-5.695 2.128-9.757 7.602-9.757 14.039 0 8.284 6.716 15 15 15 5.739 0 10.721-3.226 13.243-7.961-1.634.611-3.396.961-5.243.961-8.284 0-15-6.716-15-15z" fill="#adb5c1"/><path d="m471.727 151.643c-1.847 0-3.609.35-5.243.961-1.119 2.1-5.757 8.494-5.757 11.039 0 8.284 6.716 15 15 15 1.847 0 7.609-4.35 9.243-4.961 1.119-2.1 1.757-4.494 1.757-7.039 0-8.284-6.716-15-15-15z" fill="#c8d2dc"/><path d="m464.727 159.643c0-2.545.639-4.939 1.757-7.039-5.695 2.128-9.757 7.602-9.757 14.039 0 8.284 6.716 15 15 15 5.739 0 10.721-3.226 13.243-7.961-1.634.611-3.396.961-5.243.961-8.285 0-15-6.715-15-15z" fill="#adb5c1"/><path d="m489.501 241c-1.847 0-3.609.35-5.243.961-1.119 2.1-5.757 8.494-5.757 11.039 0 8.284 6.716 15 15 15 1.847 0 7.609-4.35 9.243-4.961 1.119-2.1 1.757-4.494 1.757-7.039 0-8.284-6.716-15-15-15z" fill="#c8d2dc"/><path d="m482.501 249c0-2.545.639-4.939 1.757-7.039-5.695 2.128-9.757 7.602-9.757 14.039 0 8.284 6.716 15 15 15 5.739 0 10.721-3.226 13.243-7.961-1.634.611-3.396.961-5.243.961-8.284 0-15-6.716-15-15z" fill="#adb5c1"/><path d="m471.727 330.357c-1.847 0-3.609.35-5.243.961-1.119 2.1-5.757 8.494-5.757 11.039 0 8.284 6.716 15 15 15 1.847 0 7.609-4.35 9.243-4.961 1.119-2.1 1.757-4.494 1.757-7.039 0-8.285-6.716-15-15-15z" fill="#c8d2dc"/><path d="m464.727 338.357c0-2.545.639-4.939 1.757-7.039-5.695 2.128-9.757 7.602-9.757 14.039 0 8.284 6.716 15 15 15 5.739 0 10.721-3.226 13.243-7.961-1.634.611-3.396.961-5.243.961-8.285 0-15-6.716-15-15z" fill="#adb5c1"/><path d="m421.11 406.109c-1.847 0-3.609.35-5.243.961-1.119 2.1-5.757 8.494-5.757 11.039 0 8.284 6.716 15 15 15 1.847 0 7.609-4.35 9.243-4.961 1.119-2.1 1.757-4.494 1.757-7.039 0-8.284-6.715-15-15-15z" fill="#c8d2dc"/><path d="m414.11 414.109c0-2.545.639-4.939 1.757-7.039-5.695 2.128-9.757 7.602-9.757 14.039 0 8.284 6.716 15 15 15 5.739 0 10.721-3.226 13.243-7.961-1.634.611-3.396.961-5.243.961-8.284 0-15-6.715-15-15z" fill="#adb5c1"/><path d="m345.357 456.726c-1.847 0-3.609.35-5.243.961-1.119 2.1-5.757 8.494-5.757 11.039 0 8.284 6.716 15 15 15 1.847 0 7.609-4.35 9.243-4.961 1.119-2.1 1.757-4.494 1.757-7.039 0-8.284-6.715-15-15-15z" fill="#c8d2dc"/><path d="m338.357 464.726c0-2.545.639-4.939 1.757-7.039-5.695 2.128-9.757 7.602-9.757 14.039 0 8.284 6.716 15 15 15 5.739 0 10.721-3.226 13.243-7.961-1.634.611-3.396.961-5.243.961-8.284 0-15-6.716-15-15z" fill="#adb5c1"/><path d="m256.001 474.5c-1.847 0-3.609.35-5.243.961-1.119 2.1-5.757 8.494-5.757 11.039 0 8.284 6.716 15 15 15 1.847 0 7.609-4.35 9.243-4.961 1.119-2.1 1.757-4.494 1.757-7.039 0-8.284-6.716-15-15-15z" fill="#c8d2dc"/><path d="m249.001 482.5c0-2.545.639-4.939 1.757-7.039-5.695 2.128-9.757 7.602-9.757 14.039 0 8.284 6.716 15 15 15 5.739 0 10.721-3.226 13.243-7.961-1.634.611-3.396.961-5.243.961-8.284 0-15-6.716-15-15z" fill="#adb5c1"/><path d="m166.644 456.726c-1.847 0-3.609.35-5.243.961-1.119 2.1-5.757 8.494-5.757 11.039 0 8.284 6.716 15 15 15 1.847 0 7.609-4.35 9.243-4.961 1.119-2.1 1.757-4.494 1.757-7.039 0-8.284-6.715-15-15-15z" fill="#c8d2dc"/><path d="m159.644 464.726c0-2.545.639-4.939 1.757-7.039-5.695 2.128-9.757 7.602-9.757 14.039 0 8.284 6.716 15 15 15 5.739 0 10.721-3.226 13.243-7.961-1.634.611-3.396.961-5.243.961-8.284 0-15-6.716-15-15z" fill="#adb5c1"/><path d="m90.891 406.109c-1.847 0-3.609.35-5.243.961-1.119 2.1-5.757 8.494-5.757 11.039 0 8.284 6.716 15 15 15 1.847 0 7.609-4.35 9.243-4.961 1.119-2.1 1.757-4.494 1.757-7.039 0-8.284-6.715-15-15-15z" fill="#c8d2dc"/><path d="m83.891 414.109c0-2.545.639-4.939 1.757-7.039-5.695 2.128-9.757 7.602-9.757 14.039 0 8.284 6.716 15 15 15 5.739 0 10.721-3.226 13.243-7.961-1.634.611-3.396.961-5.243.961-8.284 0-15-6.715-15-15z" fill="#adb5c1"/><path d="m40.275 330.357c-1.847 0-3.609.35-5.243.961-1.119 2.1-5.757 8.494-5.757 11.039 0 8.284 6.716 15 15 15 1.847 0 7.609-4.35 9.243-4.961 1.119-2.1 1.757-4.494 1.757-7.039 0-8.285-6.716-15-15-15z" fill="#c8d2dc"/><path d="m33.275 338.357c0-2.545.639-4.939 1.757-7.039-5.695 2.128-9.757 7.602-9.757 14.039 0 8.284 6.716 15 15 15 5.739 0 10.721-3.226 13.243-7.961-1.634.611-3.396.961-5.243.961-8.284 0-15-6.716-15-15z" fill="#adb5c1"/><path d="m22.501 241c-1.847 0-3.609.35-5.243.961-1.119 2.1-5.757 8.494-5.757 11.039 0 8.284 6.716 15 15 15 1.847 0 7.609-4.35 9.243-4.961 1.119-2.1 1.757-4.494 1.757-7.039 0-8.284-6.716-15-15-15z" fill="#c8d2dc"/><path d="m15.501 249c0-2.545.639-4.939 1.757-7.039-5.695 2.128-9.757 7.602-9.757 14.039 0 8.284 6.716 15 15 15 5.739 0 10.721-3.226 13.243-7.961-1.635.611-3.396.961-5.243.961-8.284 0-15-6.716-15-15z" fill="#adb5c1"/><path d="m40.275 151.643c-1.847 0-3.609.35-5.243.961-1.119 2.1-5.757 8.494-5.757 11.039 0 8.284 6.716 15 15 15 1.847 0 7.609-4.35 9.243-4.961 1.119-2.1 1.757-4.494 1.757-7.039 0-8.284-6.716-15-15-15z" fill="#c8d2dc"/><path d="m33.275 159.643c0-2.545.639-4.939 1.757-7.039-5.695 2.128-9.757 7.602-9.757 14.039 0 8.284 6.716 15 15 15 5.739 0 10.721-3.226 13.243-7.961-1.634.611-3.396.961-5.243.961-8.284 0-15-6.715-15-15z" fill="#adb5c1"/><path d="m90.891 75.891c-1.847 0-3.609.35-5.243.961-1.119 2.1-5.757 8.494-5.757 11.039 0 8.284 6.716 15 15 15 1.847 0 7.609-4.35 9.243-4.961 1.119-2.1 1.757-4.494 1.757-7.039 0-8.285-6.715-15-15-15z" fill="#c8d2dc"/><path d="m83.891 83.891c0-2.545.639-4.939 1.757-7.039-5.695 2.128-9.757 7.602-9.757 14.039 0 8.284 6.716 15 15 15 5.739 0 10.721-3.226 13.243-7.961-1.634.611-3.396.961-5.243.961-8.284 0-15-6.716-15-15z" fill="#adb5c1"/><path d="m166.644 25.274c-1.847 0-3.609.35-5.243.961-1.119 2.1-5.757 8.494-5.757 11.039 0 8.284 6.716 15 15 15 1.847 0 7.609-4.35 9.243-4.961 1.119-2.1 1.757-4.494 1.757-7.039 0-8.284-6.715-15-15-15z" fill="#c8d2dc"/><path d="m159.644 33.274c0-2.545.639-4.939 1.757-7.039-5.695 2.128-9.757 7.602-9.757 14.039 0 8.284 6.716 15 15 15 5.739 0 10.721-3.226 13.243-7.961-1.634.611-3.396.961-5.243.961-8.284 0-15-6.715-15-15z" fill="#adb5c1"/><path d="m256.001 241c-1.847 0-3.609.35-5.243.961-1.119 2.1-5.757 8.494-5.757 11.039 0 8.284 6.716 15 15 15 1.847 0 7.609-4.35 9.243-4.961 1.119-2.1 1.757-4.494 1.757-7.039 0-8.284-6.716-15-15-15z" fill="#c8d2dc"/><path d="m249.001 249c0-2.545.639-4.939 1.757-7.039-5.695 2.128-9.757 7.602-9.757 14.039 0 8.284 6.716 15 15 15 5.739 0 10.721-3.226 13.243-7.961-1.634.611-3.396.961-5.243.961-8.284 0-15-6.716-15-15z" fill="#adb5c1"/></g><g><g><path d="m305.424 512.001c-3.506 0-6.638-2.469-7.348-6.038l-5.354-26.913c-5.243.852-10.537 1.521-15.865 2.006 1.06 2.608 1.644 5.459 1.644 8.443 0 12.407-10.094 22.5-22.5 22.5s-22.5-10.093-22.5-22.5c0-2.984.584-5.835 1.644-8.443-5.328-.484-10.622-1.154-15.865-2.006l-5.354 26.913c-.808 4.062-4.765 6.697-8.818 5.893-4.063-.808-6.701-4.757-5.893-8.819l5.347-26.882c-5.194-1.203-10.341-2.591-15.419-4.155-.146 12.281-10.183 22.227-22.498 22.227-12.406 0-22.5-10.093-22.5-22.5 0-6.106 2.445-11.653 6.408-15.711-13.755-7.273-26.801-16.009-38.943-26.129-3.427 8.058-11.424 13.723-20.718 13.723-12.406 0-22.5-10.093-22.5-22.5 0-9.294 5.665-17.291 13.723-20.717-10.119-12.143-18.854-25.188-26.129-38.943-4.058 3.962-9.604 6.408-15.71 6.408-12.406 0-22.5-10.093-22.5-22.5 0-12.315 9.945-22.352 22.227-22.499-4.58-14.862-7.627-30.267-9.058-46.001-2.608 1.06-5.459 1.644-8.443 1.644-12.406 0-22.5-10.093-22.5-22.5s10.094-22.5 22.5-22.5c2.984 0 5.835.584 8.443 1.644 1.431-15.734 4.478-31.139 9.058-46.001-12.281-.146-22.227-10.183-22.227-22.499 0-12.407 10.094-22.5 22.5-22.5 6.106 0 11.652 2.445 15.71 6.408 7.274-13.755 16.01-26.8 26.129-38.943-8.058-3.427-13.723-11.423-13.723-20.717 0-12.407 10.094-22.5 22.5-22.5 9.294 0 17.291 5.665 20.718 13.723 12.143-10.12 25.188-18.855 38.943-26.129-3.963-4.058-6.408-9.604-6.408-15.711 0-12.407 10.094-22.5 22.5-22.5 12.315 0 22.352 9.946 22.498 22.227 14.863-4.58 30.268-7.627 46.002-9.058-1.06-2.608-1.644-5.459-1.644-8.443 0-12.407 10.094-22.5 22.5-22.5s22.5 10.093 22.5 22.5c0 2.987-.585 5.839-1.646 8.45 15.688 1.436 31.094 4.49 46.004 9.099.121-12.303 10.167-22.275 22.499-22.275 12.406 0 22.5 10.093 22.5 22.5 0 6.13-2.464 11.694-6.453 15.756 7.176 3.792 14.173 7.986 20.96 12.571 3.433 2.319 4.335 6.981 2.017 10.414-2.319 3.433-6.981 4.334-10.413 2.016-8.041-5.433-16.394-10.274-25.008-14.509l9.646 35.918 40.871-5.357c-.563-1.968-.866-4.046-.866-6.192 0-12.407 10.094-22.5 22.5-22.5s22.5 10.093 22.5 22.5c0 9.294-5.665 17.291-13.723 20.717 10.12 12.143 18.855 25.188 26.129 38.943 4.058-3.962 9.604-6.408 15.71-6.408 12.406 0 22.5 10.093 22.5 22.5 0 12.315-9.945 22.352-22.227 22.499 4.58 14.862 7.627 30.267 9.058 46.001 2.608-1.06 5.459-1.644 8.443-1.644 12.406 0 22.5 10.093 22.5 22.5s-10.094 22.5-22.5 22.5c-2.984 0-5.835-.584-8.443-1.644-1.431 15.734-4.478 31.139-9.058 46.001 12.281.146 22.227 10.183 22.227 22.499 0 12.407-10.094 22.5-22.5 22.5-6.106 0-11.652-2.445-15.71-6.408-7.274 13.755-16.01 26.8-26.129 38.943 8.058 3.427 13.723 11.423 13.723 20.717 0 12.407-10.094 22.5-22.5 22.5-9.294 0-17.291-5.665-20.718-13.723-12.143 10.12-25.188 18.855-38.943 26.129 3.963 4.058 6.408 9.604 6.408 15.711 0 12.407-10.094 22.5-22.5 22.5-12.315 0-22.352-9.946-22.498-22.227-5.078 1.564-10.225 2.952-15.419 4.155l5.347 26.882c.809 4.063-1.83 8.011-5.893 8.819-.495.098-.988.145-1.472.145zm-49.423-30.001c-4.136 0-7.5 3.364-7.5 7.5s3.364 7.5 7.5 7.5 7.5-3.364 7.5-7.5-3.365-7.5-7.5-7.5zm29.957-36.958-16.545 21.537c6.887-.434 13.681-1.2 20.375-2.281zm-63.744 19.255c6.694 1.082 13.488 1.847 20.375 2.281l-16.545-21.537zm45.28-188.96 37.006 186.038c6.696-1.581 13.273-3.482 19.708-5.687l-4.984-2.875c-3.589-2.069-4.82-6.655-2.751-10.244s6.657-4.82 10.243-2.75l7.129 4.11 7.601-28.304c-7.578 4.052-15.474 7.578-23.648 10.547-3.896 1.415-8.196-.596-9.61-4.489-1.414-3.894.596-8.196 4.489-9.61 31.723-11.522 58.896-32.206 78.581-59.814 20.113-28.208 30.744-61.494 30.744-96.262 0-91.533-74.467-166-166-166s-166 74.467-166 166c0 16.906 2.53 33.579 7.521 49.556 1.234 3.954-.969 8.16-4.923 9.395-3.953 1.236-8.16-.969-9.396-4.922-.164-.528-.327-1.057-.487-1.586l-14.647 25.403 28.333 7.609c-.688-1.284-1.361-2.576-2.02-3.878-1.87-3.697-.389-8.208 3.308-10.078 3.698-1.871 8.208-.388 10.078 3.308 13.65 26.995 34.432 49.78 60.095 65.892 15.012 9.424 31.354 16.319 48.423 20.51l28.221-141.87c-6.587-3.929-11.007-11.126-11.007-19.337 0-12.407 10.094-22.5 22.5-22.5s22.5 10.093 22.5 22.5c0 8.212-4.42 15.409-11.007 19.338zm-79.7 180.352c6.435 2.204 13.012 4.105 19.708 5.687l3.83-19.258zm50.311-19.568 17.896 23.294 17.893-23.292c-11.897 1.169-23.959 1.165-35.789-.002zm120.5-26.561-9.621 35.827c16.818-8.29 32.368-18.748 46.303-31.019zm-241.89 4.808c13.935 12.271 29.484 22.729 46.303 31.019l-9.621-35.827zm53.833 1.227 7.609 28.335 25.417-14.655c-11.408-3.445-22.472-8.021-33.026-13.68zm250.562-1.986c-4.136 0-7.5 3.364-7.5 7.5s3.364 7.5 7.5 7.5 7.5-3.364 7.5-7.5-3.364-7.5-7.5-7.5zm-330.219 0c-4.136 0-7.5 3.364-7.5 7.5s3.364 7.5 7.5 7.5 7.5-3.364 7.5-7.5-3.364-7.5-7.5-7.5zm140.111 6.512c16.429 2.488 33.485 2.499 50 .008l-25.001-125.687zm139.766-24.095 29.068 3.81-3.816-29.118c-7.616 9.305-16.069 17.768-25.252 25.308zm-254.787-25.308-3.816 29.118 29.122-3.817c-9.259-7.591-17.735-16.069-25.306-25.301zm293.579-12.113 4.809 36.681c12.271-13.934 22.729-29.485 31.019-46.302zm-342.946-9.621c8.29 16.817 18.748 32.368 31.019 46.302l4.809-36.681zm362.686-40.517c-3.443 11.396-8.019 22.431-13.687 32.981l28.318-7.605zm7.836-16.437 18.554 32.177c5.948-17.367 9.688-35.735 10.889-54.795zm-391.713-22.618c1.2 19.06 4.94 37.428 10.889 54.795l18.554-32.177zm7.164-13.412 23.288 17.891c-.582-5.925-.874-11.896-.874-17.891 0-6.037.297-12.006.877-17.893zm383.537-17.893c.58 5.887.877 11.856.877 17.893 0 6.009-.291 11.974-.869 17.886l23.283-17.886zm53.377 10.393c-4.136 0-7.5 3.364-7.5 7.5s3.364 7.5 7.5 7.5 7.5-3.364 7.5-7.5-3.365-7.5-7.5-7.5zm-233.5 0c-4.136 0-7.5 3.364-7.5 7.5s3.364 7.5 7.5 7.5 7.5-3.364 7.5-7.5-3.365-7.5-7.5-7.5zm-233.5 0c-4.136 0-7.5 3.364-7.5 7.5s3.364 7.5 7.5 7.5 7.5-3.364 7.5-7.5-3.365-7.5-7.5-7.5zm17.774-89.356c-4.136 0-7.5 3.364-7.5 7.5s3.364 7.5 7.5 7.5 7.5-3.364 7.5-7.5-3.364-7.5-7.5-7.5zm126.369-126.37c-4.136 0-7.5 3.364-7.5 7.5s3.364 7.5 7.5 7.5 7.5-3.364 7.5-7.5-3.364-7.5-7.5-7.5zm178.713 0c-4.136 0-7.5 3.364-7.5 7.5s3.364 7.5 7.5 7.5 7.5-3.364 7.5-7.5-3.364-7.5-7.5-7.5zm126.369 126.37c-4.136 0-7.5 3.364-7.5 7.5s3.364 7.5 7.5 7.5 7.5-3.364 7.5-7.5-3.364-7.5-7.5-7.5zm0 178.712c-4.136 0-7.5 3.364-7.5 7.5s3.364 7.5 7.5 7.5 7.5-3.364 7.5-7.5-3.364-7.5-7.5-7.5zm-126.369 126.37c-4.136 0-7.5 3.364-7.5 7.5s3.364 7.5 7.5 7.5 7.5-3.364 7.5-7.5-3.364-7.5-7.5-7.5zm-178.713 0c-4.136 0-7.5 3.364-7.5 7.5s3.364 7.5 7.5 7.5 7.5-3.364 7.5-7.5-3.364-7.5-7.5-7.5zm-126.369-126.37c-4.136 0-7.5 3.364-7.5 7.5s3.364 7.5 7.5 7.5 7.5-3.364 7.5-7.5-3.364-7.5-7.5-7.5zm396.861-117.886 29.448 22.623c-1.178-18.905-4.842-37.335-10.834-54.906zm-380.825-32.177c-5.948 17.367-9.688 35.735-10.889 54.795l29.442-22.619zm359.207-17.267c5.622 10.452 10.248 21.515 13.748 33.064l14.665-25.434zm-347.448 7.631 14.665 25.434c3.5-11.549 8.126-22.612 13.748-33.064zm341.49-24.762 35.99 9.666c-8.188-16.662-18.628-32.284-31.164-46.485zm-311.927-36.681c-12.271 13.934-22.729 29.485-31.019 46.302l35.827-9.622zm272.964-.717c9.283 7.612 17.794 16.124 25.406 25.407l3.833-29.239zm-258.432-3.833 3.833 29.239c7.612-9.283 16.123-17.794 25.406-25.407zm4.55-14.532 36.682 4.808 9.621-35.827c-16.819 8.29-32.369 18.748-46.303 31.019zm304.395-14.241c-4.136 0-7.5 3.364-7.5 7.5s3.364 7.5 7.5 7.5 7.5-3.364 7.5-7.5-3.364-7.5-7.5-7.5zm-330.219 0c-4.136 0-7.5 3.364-7.5 7.5s3.364 7.5 7.5 7.5 7.5-3.364 7.5-7.5-3.364-7.5-7.5-7.5zm217.519-.657c11.55 3.5 22.612 8.125 33.064 13.748l-7.63-28.413zm-130.253-14.665-7.63 28.413c10.452-5.623 21.515-10.249 33.064-13.748zm77.844 6.931c6.037 0 12.007.297 17.894.877l-17.894-23.292-17.894 23.292c5.887-.58 11.857-.877 17.894-.877zm13.41-29.581 22.62 29.444 32.23-18.584c-17.624-6.019-36.038-9.679-54.85-10.86zm-81.617 10.892 32.177 18.553 22.618-29.442c-19.061 1.2-37.428 4.94-54.795 10.889zm68.207-41.311c-4.136 0-7.5 3.364-7.5 7.5s3.364 7.5 7.5 7.5 7.5-3.364 7.5-7.5-3.365-7.5-7.5-7.5z"/></g></g></g></svg>