<svg id="Capa_1" enable-background="new 0 0 512 512" height="512" viewBox="0 0 512 512" width="512" xmlns="http://www.w3.org/2000/svg"><g><g><path d="m476.5 124.543h-33.995l-.333 40 49.327-10v-15c.001-8.284-6.715-15-14.999-15z" fill="#adb5c1"/><path d="m447.738 151.043s0-6.5 0-11.202c0-12.027-5.233-15.298-5.233-15.298h-24.767l15 48 13.357-3h36.74l8.665 3v-18h-40.262c-1.933 0-3.5-1.567-3.5-3.5z" fill="#909ba6"/><path d="m84.921 124.543h-49.421l-10 40 74.421-10v-15c0-8.284-6.715-15-15-15z" fill="#c8d2dc"/><path d="m35.5 151.043v-26.5c-8.284 0-15 6.716-15 15v33l23-3h36.918l19.503 3v-18h-60.921c-1.933 0-3.5-1.567-3.5-3.5z" fill="#adb5c1"/><path d="m308.455 124.543h-79.283l-10 40 104.283-10v-15c0-8.284-6.715-15-15-15z" fill="#c8d2dc"/><path d="m229.173 151.043v-26.5c-8.284 0-15 6.716-15 15v33l13.357-3h87.26l8.665 3v-18h-90.783c-1.932 0-3.499-1.567-3.499-3.5z" fill="#adb5c1"/><path d="m417.738 124.543c-13.284 0-42.141 4-42.141 4s-26.868-4-37.141-4-10 40-10 40l104.283-10v-15c-.001-8.284-1.717-15-15.001-15z" fill="#adb5c1"/><path d="m338.455 151.043v-26.5c-8.284 0-15 6.716-15 15v33l8.048-3h88.26l12.974 3v-18h-90.783c-1.932 0-3.499-1.567-3.499-3.5z" fill="#909ba6"/><path d="m504.5 182.543c0-7.18-5.82-13-13-13h-11.75s-15.47 5.875-14.577 13.576c1.538 13.271 1.675 126.004.163 139.337l37.754-10c.863-2.541 1.411-5.393 1.411-8.562-.001-15.517-.001-121.351-.001-121.351z" fill="#adb5c1"/><path d="m478.7 258.5c0-20.904-1.989-62.109-3.527-75.38-.893-7.701 4.577-13.576 4.577-13.576h-3.429c-7.18 0-14.148 6.397-14.148 13.576l-26.334 96.833 24.575 47.505 15.679 10 15.408-10s8.227-5.099 11.589-15h-27.754c1.511-13.334 3.364-33.785 3.364-53.958z" fill="#909ba6"/><path d="m462.173 183.12c-.893-7.701-8.801-13.576-18.26-13.576h-22.729c-6.388 3.331-11.109 8.651-11.68 13.576-1.538 13.271-3.527 54.476-3.527 75.38 0 20.173 1.853 46.624 3.365 59.957l52.994-6c1.512-13.333 3.365-33.784 3.365-53.957-.001-20.904-1.99-62.109-3.528-75.38z" fill="#c8d2dc"/><path d="m412.977 258.5c0-20.904 1.989-62.109 3.527-75.38.571-4.925 1.568-10.319 4.68-13.576h-1.419c-9.459 0-17.368 5.875-18.26 13.576-1.538 13.271-3.527 54.476-3.527 75.38 0 34.078 5.287 68.957 5.287 68.957l29.475 10 27.675-10s.88-5.81 1.922-15h-45.994c-1.514-13.333-3.366-33.784-3.366-53.957z" fill="#adb5c1"/><path d="m349.764 183.12c-2.465-7.35-8.801-13.576-18.26-13.576h-15.294c-6.388 3.331-11.109 8.651-11.679 13.576-1.538 13.271-3.528 54.476-3.528 75.38 0 20.173 1.853 46.624 3.365 59.957l55.348-6c2.487-26.687 5.287-83.89-9.952-129.337z" fill="#adb5c1"/><path d="m308.002 258.5c0-20.904 1.989-62.109 3.528-75.38.571-4.925 1.568-10.319 4.679-13.576h-1.419c-9.459 0-17.368 5.875-18.26 13.576-1.538 13.271-3.528 54.476-3.528 75.38 0 34.078 5.287 68.957 5.287 68.957l30.165 10 29.55-10s.836-5.619 1.711-15h-48.348c-1.512-13.333-3.365-33.784-3.365-53.957z" fill="#909ba6"/><path d="m16.855 322.457c1.484 0 46.581-10 46.581-10l-10.903-138.227c-2.165-2.823-5.074-4.687-9.033-4.687h-18s-7.181 2.944-8.149 16.632c-2.83 40.04-4.851 125.317-4.851 129.381 0 4.103 2 6.901 4.355 6.901z" fill="#adb5c1"/><path d="m56.5 182.543c-.938-3.083-2.211-6.011-3.973-8.309-1.367 2.788-2.179 6.273-2.369 8.885-1.155 15.837-3.527 51.939-3.527 75.38 0 19.002 1.561 37.629 3.033 53.957-11.282 0-21.758 0-22.808 0-2.355 0-4.355-2.798-4.355-6.9 0-4.967 0-90.508 0-126.863 0-6.411 3-9.15 3-9.15h-5c-7.18 0-13 5.82-13 13v123.014c0 9.644 8.355 21.9 8.355 21.9l22.113 10 25.949-10-3.741-116.668c-.001 0-1.547-21.246-3.677-28.246z" fill="#909ba6"/><path d="m136.12 253.194-3.916-2.826c-3.62-2.612-5.888-6.696-6.188-11.15-.685-10.157-1.979-48.561-2.853-56.098-.892-7.701-8.801-13.576-18.26-13.576h-24.485s-7.368 5.875-8.26 13.576c-1.538 13.271-3.527 54.476-3.527 75.38 0 18.661 1.585 42.559 3.02 55.841.192 1.776 1.693 3.115 3.479 3.115l60.644-5 6.419-44.98c.787-5.519-1.552-11.02-6.073-14.282z" fill="#c8d2dc"/><path d="m76.65 309.341c-1.434-13.282-3.02-32.181-3.02-50.841 0-20.904 1.989-62.109 3.527-75.38.893-7.701 3.26-13.576 3.26-13.576-9.459 0-17.368 5.875-18.26 13.576-1.538 13.271-3.527 54.476-3.527 75.38 0 34.078 5.287 68.957 5.287 68.957l36.004 10 33.711-10 2.141-15h-55.644c-1.786 0-3.287-1.34-3.479-3.116z" fill="#adb5c1"/><path d="m245.79 183.12c-.892-7.701-8.801-13.576-18.26-13.576h-24.476c-5.299 1.779-9.88 8.24-10.498 13.576-1.538 13.271-3.527 54.476-3.527 75.38 0 20.173 1.853 45.624 3.364 58.957l53.56-5c1.512-13.333 3.365-33.784 3.365-53.957-.001-20.904-1.99-62.109-3.528-75.38z" fill="#c8d2dc"/><path d="m194.028 258.5c0-20.904 1.989-62.109 3.527-75.38.618-5.336 1.73-10.751 5.498-13.576h-2.238c-9.459 0-17.368 5.875-18.26 13.576-1.538 13.271-3.527 54.476-3.527 75.38 0 34.078 5.287 68.957 5.287 68.957l29.858 10 29.858-10s.88-5.81 1.922-15h-48.56c-1.512-13.333-3.365-33.784-3.365-53.957z" fill="#adb5c1"/><path d="m504.5 357.457h-489.5c-4.142 0-7.5-3.358-7.5-7.5v-15c0-4.142 3.358-7.5 7.5-7.5h489.5c4.142 0 7.5 3.358 7.5 7.5v15c0 4.142-3.358 7.5-7.5 7.5z" fill="#94ccd4"/></g><g><g><path d="m255.489 394.957h-47.989c-4.143 0-7.5-3.358-7.5-7.5s3.357-7.5 7.5-7.5h47.989c4.143 0 7.5 3.358 7.5 7.5s-3.357 7.5-7.5 7.5zm209.361-30h-137.35c-4.143 0-7.5-3.358-7.5-7.5s3.357-7.5 7.5-7.5h137.35c4.143 0 7.5 3.358 7.5 7.5s-3.358 7.5-7.5 7.5zm-260 0h-137.35c-4.143 0-7.5-3.358-7.5-7.5s3.357-7.5 7.5-7.5h137.35c4.143 0 7.5 3.358 7.5 7.5s-3.358 7.5-7.5 7.5zm286.657-29.999c-.042 0-.084 0-.126-.001h-96.262c-4.143 0-7.5-3.358-7.5-7.5 0-3.994 3.122-7.259 7.059-7.487-1.583-12.572-4.201-37.056-4.201-61.47 0-20.78 1.939-62.109 3.577-76.244.21-1.815.662-3.561 1.326-5.213h-40.013c.572 1.174 1.076 2.405 1.507 3.691h.001c17.271 51.508 12.208 116.325 9.622 139.348 3.484.647 6.122 3.702 6.122 7.374 0 4.142-3.357 7.5-7.5 7.5h-79.63c-4.143 0-7.5-3.358-7.5-7.5s3.357-7.5 7.5-7.5h4.213c-1.583-12.576-4.199-37.051-4.199-61.457 0-20.78 1.939-62.109 3.577-76.244.211-1.815.662-3.561 1.326-5.213h-38.492c.664 1.652 1.115 3.397 1.326 5.212 1.638 14.135 3.577 55.464 3.577 76.244 0 24.406-2.616 48.881-4.2 61.457h2.872c4.143 0 7.5 3.358 7.5 7.5s-3.357 7.5-7.5 7.5h-80.64c-4.143 0-7.5-3.358-7.5-7.5s3.357-7.5 7.5-7.5h.879c-1.584-12.576-4.2-37.051-4.2-61.457 0-20.78 1.939-62.109 3.577-76.244 1.336-11.523 12.389-20.213 25.711-20.213h5.856v-22.5c0-12.407 10.094-22.5 22.5-22.5h79.282c5.558 0 10.651 2.025 14.582 5.377 3.881-3.431 9.174-5.377 15.418-5.377 9.625 0 31.952 3.165 37.176 3.925 5.851-.801 29.197-3.925 37.107-3.925h27c4.143 0 7.5 3.358 7.5 7.5s-3.357 7.5-7.5 7.5h-5.785c.832 2.347 1.285 4.872 1.285 7.5v22.5h8.674c6.788 0 12.986 2.256 17.611 5.993 3.936-3.672 9.199-5.993 14.797-5.993h7.681v-22.5c0-4.136-3.364-7.5-7.5-7.5h-6.762c-4.143 0-7.5-3.358-7.5-7.5s3.357-7.5 7.5-7.5h6.762c12.406 0 22.5 10.093 22.5 22.5v23.92c7.604 3 13 10.422 13 19.08v121.352c0 6.699-1.88 12.283-4.372 16.743 2.58 1.186 4.372 3.793 4.372 6.819 0 4.142-3.357 7.5-7.5 7.5h-12.866c-.043.002-.085.003-.127.003zm-22.507-15.001h20.036c2.694-2.246 7.964-7.706 7.964-16.062v-121.352c0-3.033-2.467-5.5-5.5-5.5h-15.18c-3.056 0-6.401 2.958-6.635 5.767.418 3.774.88 9.586 1.341 16.875.261 4.134-2.879 7.697-7.013 7.958-4.135.254-7.696-2.879-7.958-7.013-.462-7.323-.919-13.037-1.32-16.539-.008-.057-.014-.113-.021-.17-.487-3.799-5.314-6.878-10.803-6.878h-24.147c-5.518 0-10.367 3.113-10.811 6.94-1.437 12.395-3.478 53.025-3.478 74.517 0 24.609 2.85 49.947 4.331 61.457h44.062c1.481-11.51 4.331-36.848 4.331-61.457 0-6.944-.22-16.438-.637-27.456-.156-4.139 3.073-7.622 7.212-7.778 4.167-.17 7.621 3.072 7.778 7.211.423 11.203.646 20.893.646 28.022.002 24.407-2.614 48.882-4.198 61.458zm-164.167 0h46.555c2.31-20.357 7.799-85.146-8.734-134.453-.666-1.985-3.438-8.461-11.149-8.461h-16.715c-5.517 0-10.366 3.113-10.81 6.94-1.437 12.395-3.478 53.025-3.478 74.517.001 24.609 2.85 49.947 4.331 61.457zm-113.974 0h46.627c1.481-11.51 4.331-36.848 4.331-61.457 0-21.491-2.041-62.122-3.478-74.517-.443-3.826-5.293-6.939-10.811-6.939h-26.713c-5.518 0-10.367 3.113-10.811 6.94-1.437 12.395-3.478 53.025-3.478 74.517.002 24.608 2.852 49.946 4.333 61.456zm140.096-157.914h89.283v-22.5c0-4.136-3.364-7.5-7.5-7.5-6.369 0-28.227 2.836-36.112 3.929-.706.099-1.426.094-2.134-.011-7.322-1.09-28.07-3.918-36.037-3.918-3.492 0-7.5.853-7.5 7.5zm-109.282 0h94.282v-22.5c0-4.136-3.364-7.5-7.5-7.5h-79.282c-4.136 0-7.5 3.364-7.5 7.5zm-205.812 172.914c-.035 0-.071 0-.106 0h-8.255c-4.143 0-7.5-3.358-7.5-7.5 0-2.79 1.522-5.223 3.782-6.516-2.023-4.624-3.782-10.149-3.782-15.384v-123.014c0-8.658 5.396-16.08 13-19.08v-23.92c0-12.407 10.094-22.5 22.5-22.5h49.421c12.406 0 22.5 10.093 22.5 22.5v22.604c12.174 1.015 21.941 9.319 23.192 20.108.24 2.066.508 6.082.844 12.635.212 4.137-2.97 7.662-7.106 7.874-4.174.212-7.663-2.97-7.874-7.107-.31-6.053-.566-9.981-.764-11.673-.443-3.828-5.293-6.941-10.81-6.941h-24.485c-5.517 0-10.366 3.113-10.81 6.94-.604 5.213-1.315 15.415-1.937 27.089-.003.083-.007.165-.013.247-.851 16.037-1.529 34.792-1.529 47.181 0 24.609 2.85 49.947 4.331 61.457h56.666l7.641-53.54c.396-2.769-.768-5.505-3.036-7.141l-3.916-2.826c-5.447-3.932-8.83-10.028-9.283-16.727-.326-4.846-.387-6.95-.44-8.806-.028-.986-.056-1.937-.125-3.291-.212-4.137 2.97-7.662 7.106-7.875 4.133-.221 7.662 2.97 7.874 7.106.076 1.492.107 2.54.139 3.626.052 1.805.105 3.672.413 8.229.15 2.23 1.278 4.262 3.095 5.573l3.915 2.825c6.804 4.909 10.294 13.119 9.108 21.425l-7.338 51.42h2.57c4.143 0 7.5 3.358 7.5 7.5s-3.357 7.5-7.5 7.5h-128.881c-.036.002-.072.002-.107.002zm4.191-15h35.278c-1.584-12.576-4.2-37.051-4.2-61.457 0-12.081.656-31.111 1.527-47.704-.6-7.985-1.991-21.66-3.332-26.069-2.339-7.683-4.963-7.683-5.825-7.683h-23c-3.033 0-5.5 2.467-5.5 5.5v123.014c0 4.403 2.829 10.445 5.052 14.399zm7.948-157.914h64.421v-22.5c0-4.136-3.364-7.5-7.5-7.5h-49.421c-4.136 0-7.5 3.364-7.5 7.5z"/></g></g></g></svg>