<?xml version="1.0" encoding="iso-8859-1"?>
<!-- Generator: Adobe Illustrator 19.0.0, SVG Export Plug-In . SVG Version: 6.00 Build 0)  -->
<svg version="1.1" id="Capa_1" xmlns="http://www.w3.org/2000/svg" xmlns:xlink="http://www.w3.org/1999/xlink" x="0px" y="0px"
	 viewBox="0 0 512 512" style="enable-background:new 0 0 512 512;" xml:space="preserve">
<g>
	<path style="fill:#C83741;" d="M162.813,306.208v19.31c0,2.666-2.173,4.828-4.854,4.828H58.947c-2.681,0-4.854-2.161-4.854-4.828
		v-19.31c0-2.666,2.173-4.827,4.854-4.827h99.012C160.64,301.38,162.813,303.542,162.813,306.208z M453.053,301.38h-99.012
		c-2.681,0-4.854,2.161-4.854,4.827v19.31c0,2.666,2.173,4.828,4.854,4.828h99.012c2.681,0,4.854-2.161,4.854-4.828v-19.31
		C457.906,303.542,455.733,301.38,453.053,301.38z M349.188,200.001c0-2.666-2.173-4.828-4.854-4.828H167.666
		c-2.681,0-4.854,2.161-4.854,4.828v19.31c0,2.666,2.173,4.828,4.854,4.828h176.668c2.681,0,4.854-2.161,4.854-4.828V200.001z"/>
	<path style="fill:#C83741;" d="M173.811,183.46h8.415v80.15h-8.415H57.417c-14.835,0-26.86-11.962-26.86-26.717l39.316-15.664
		c18.07-7.199,33.523-19.677,44.321-35.787l0,0c0.83-1.239,2.228-1.983,3.725-1.983L173.811,183.46L173.811,183.46z M442.127,221.23
		c-18.07-7.199-33.523-19.677-44.321-35.787l0,0c-0.83-1.239-2.228-1.983-3.725-1.983h-55.893h-8.415v80.15h8.415h116.394
		c14.835,0,26.86-11.962,26.86-26.717L442.127,221.23z M418.543,117.931L418.543,117.931l-42.625-16.983
		c-19.591-7.805-36.345-21.333-48.051-38.799c-0.9-1.343-2.415-2.15-4.038-2.15h-60.597h-14.461h-60.597
		c-1.623,0-3.138,0.807-4.038,2.15c-11.707,17.466-28.46,30.994-48.051,38.799L93.46,117.931l0,0
		c0,15.997,13.038,28.966,29.121,28.966h126.191h14.461h126.191C405.505,146.897,418.543,133.929,418.543,117.931z"/>
</g>
<path style="fill:#FF4B4B;" d="M68.654,257.932v197.932c0,2.666-2.173,4.828-4.854,4.828H44.387c-2.681,0-4.854-2.161-4.854-4.828
	V257.932c0-2.666,2.173-4.828,4.854-4.828h19.414C66.481,253.104,68.654,255.266,68.654,257.932z M467.613,253.104h-19.414
	c-2.681,0-4.854,2.161-4.854,4.828v197.932c0,2.666,2.173,4.828,4.854,4.828h19.414c2.681,0,4.854-2.161,4.854-4.828V257.932
	C472.467,255.266,470.294,253.104,467.613,253.104z"/>
<path style="fill:#963737;" d="M75.901,238.102h106.326v35.622H70.711h-9.295c-19.659,0-37.747-10.681-47.161-27.847l-6.193-11.293
	c-1.94-3.538,1.466-7.615,5.318-6.366C33.567,234.766,54.667,238.102,75.901,238.102z M498.62,228.219
	c-20.187,6.548-41.288,9.883-62.521,9.883H329.773v35.622h111.516h9.295c19.659,0,37.747-10.681,47.161-27.847l6.193-11.293
	C505.878,231.046,502.472,226.969,498.62,228.219z"/>
<path style="fill:#FF4B4B;" d="M182.227,151.724v265.518c0,2.666-2.173,4.828-4.854,4.828h-19.414c-2.681,0-4.854-2.161-4.854-4.828
	V151.724c0-2.666,2.173-4.828,4.854-4.828h19.414C180.054,146.897,182.227,149.058,182.227,151.724z M354.041,146.897h-19.414
	c-2.681,0-4.854,2.161-4.854,4.828v265.518c0,2.666,2.173,4.828,4.854,4.828h19.414c2.681,0,4.854-2.161,4.854-4.828V151.724
	C358.895,149.058,356.722,146.897,354.041,146.897z"/>
<path style="fill:#963737;" d="M437.166,108.526L437.166,108.526c4.176-1.355,7.869,3.066,5.766,6.901l-6.714,12.244
	c-10.206,18.611-29.817,30.191-51.131,30.191h-10.078H136.991h-10.078c-21.313,0-40.925-11.58-51.131-30.191l-6.714-12.244
	c-2.103-3.836,1.589-8.256,5.766-6.901l0,0c21.887,7.099,44.763,10.715,67.784,10.715h226.765
	C392.403,119.241,415.28,115.625,437.166,108.526z"/>
<path style="fill:#FFCF65;" d="M189.992,373.794v72.414c0,2.666-2.173,4.828-4.854,4.828h-34.945c-2.681,0-4.854-2.161-4.854-4.828
	v-72.414c0-2.666,2.173-4.828,4.854-4.828h34.945C187.819,368.967,189.992,371.128,189.992,373.794z M71.566,368.967H36.621
	c-2.681,0-4.854,2.162-4.854,4.828v72.414c0,2.666,2.173,4.828,4.854,4.828h34.945c2.681,0,4.854-2.161,4.854-4.828v-72.414
	C76.42,371.128,74.247,368.967,71.566,368.967z M475.379,368.967h-34.945c-2.681,0-4.854,2.162-4.854,4.828v72.414
	c0,2.666,2.173,4.828,4.854,4.828h34.945c2.681,0,4.854-2.161,4.854-4.828v-72.414C480.232,371.128,478.059,368.967,475.379,368.967
	z M361.807,368.967h-34.945c-2.681,0-4.854,2.162-4.854,4.828v72.414c0,2.666,2.173,4.828,4.854,4.828h34.945
	c2.681,0,4.854-2.161,4.854-4.828v-72.414C366.66,371.128,364.487,368.967,361.807,368.967z"/>
<path style="fill:#FFB450;" d="M504.5,448.139v19.31c0,2.666-2.173,4.828-4.854,4.828H12.354c-2.681,0-4.854-2.161-4.854-4.828
	v-19.31c0-2.666,2.173-4.828,4.854-4.828h487.293C502.327,443.312,504.5,445.473,504.5,448.139z"/>
<path d="M499.5,436.913h-11.768v-62.308c0-5.188-3.221-9.63-7.766-11.455v-89.032c10.111-5.525,18.637-13.887,24.36-24.368
	l6.194-11.341c2.364-4.332,1.855-9.583-1.297-13.38c-3.156-3.8-8.231-5.267-12.927-3.737c-6.775,2.207-13.646,4.026-20.588,5.471
	l-30.797-12.321c-16.736-6.696-30.868-18.154-40.867-33.135c-2.227-3.336-5.951-5.329-9.965-5.329h-27.687v-10.706h18.692
	c24.071,0,46.186-13.113,57.713-34.222l6.714-12.295c1.605-2.937,1.919-6.283,1.028-9.345l15.533-15.514
	c2.931-2.927,2.934-7.676,0.007-10.607c-2.928-2.93-7.677-2.933-10.606-0.006L438.238,100.5c-1.133,0.043-2.274,0.235-3.394,0.601
	c-7.472,2.434-15.053,4.435-22.711,6.017c-0.294-0.167-0.597-0.322-0.919-0.451l-32.51-13.006
	c-17.09-6.837-31.691-18.227-42.439-33.059l16.814-16.795c2.931-2.927,2.934-7.676,0.007-10.607
	c-2.928-2.931-7.677-2.932-10.606-0.006l-18.833,18.811H188.172c-0.22,0-0.434,0.029-0.652,0.04L169.083,33.63
	c-2.931-2.927-7.68-2.924-10.607,0.006c-2.927,2.931-2.924,7.68,0.006,10.607L175.36,61.1
	c-10.712,14.585-25.168,25.801-42.064,32.56l-33.429,13.374c-0.043,0.017-0.083,0.04-0.125,0.057
	c-7.616-1.578-15.154-3.571-22.585-5.991c-1.121-0.365-2.261-0.557-3.394-0.6L56.525,83.284c-2.931-2.927-7.68-2.924-10.607,0.006
	c-2.927,2.931-2.924,7.68,0.006,10.607l15.534,15.515c-0.891,3.062-0.577,6.407,1.027,9.344l6.714,12.295
	c11.528,21.109,33.642,34.222,57.713,34.222h18.692v10.706h-27.687c-4.013,0-7.737,1.992-9.963,5.328
	c-10,14.982-24.132,26.44-40.868,33.136l-30.796,12.32c-6.941-1.446-13.813-3.265-20.587-5.471
	c-4.697-1.53-9.771-0.063-12.927,3.738c-3.152,3.797-3.661,9.049-1.296,13.38l6.193,11.34c5.724,10.48,14.25,18.843,24.361,24.368
	v89.032c-4.545,1.825-7.766,6.268-7.766,11.455v62.308H12.5c-6.893,0-12.5,5.607-12.5,12.5V468.5c0,6.893,5.607,12.5,12.5,12.5h487
	c6.893,0,12.5-5.607,12.5-12.5v-19.086C512,442.521,506.393,436.913,499.5,436.913z M443.08,436.913v-59.655h29.652v59.655H443.08z
	 M374.16,436.913v-62.308c0-5.188-3.221-9.63-7.766-11.455v-24.674h69.451v24.674c-4.545,1.825-7.766,6.268-7.766,11.455v62.308
	L374.16,436.913L374.16,436.913z M329.508,436.913v-59.655h29.652v59.655H329.508z M197.492,436.913v-62.308
	c0-5.188-3.221-9.63-7.766-11.455V231.826h132.547V363.15c-4.545,1.825-7.766,6.268-7.766,11.455v62.308L197.492,436.913
	L197.492,436.913z M152.84,436.913v-59.655h29.652v59.655H152.84z M83.92,436.913v-62.308c0-5.188-3.221-9.63-7.766-11.455v-24.674
	h69.451v24.674c-4.545,1.825-7.766,6.268-7.766,11.455v62.308L83.92,436.913L83.92,436.913z M145.605,281.619v12.771H76.154v-12.771
	H145.605z M76.154,309.39h69.451v14.086H76.154V309.39z M322.273,165.273v22.467H189.727v-22.467H322.273z M189.727,202.74h132.547
	v14.086H189.727V202.74z M366.395,309.39h69.451v14.086h-69.451V309.39z M435.846,294.39h-69.451v-12.771h69.451V294.39z
	 M464.967,362.258h-14.121v-80.644c4.819-0.021,9.553-0.602,14.121-1.703V362.258z M491.163,242.561
	c-8.104,14.839-23.652,24.058-40.578,24.058h-84.19v-20.771h69.704c19.562,0,38.936-2.724,57.695-8.104L491.163,242.561z
	 M392.481,190.979c11.631,16.856,27.801,29.766,46.859,37.391l5.667,2.267c-2.964,0.135-5.934,0.212-8.909,0.212h-69.704V190.98
	L392.481,190.979L392.481,190.979z M351.395,362.258h-14.121V165.273h14.121V362.258z M82.365,123.862l-3.58-6.555
	c20.736,6.097,42.177,9.185,63.833,9.185h156.579c4.143,0,7.5-3.358,7.5-7.5s-3.357-7.5-7.5-7.5H142.618
	c-4.202,0-8.396-0.125-12.576-0.374l8.826-3.531c20.649-8.261,38.154-22.278,50.708-40.583h132.85
	c12.553,18.306,30.058,32.322,50.707,40.583l8.826,3.531c-4.18,0.248-8.373,0.374-12.575,0.374h-41.309c-4.143,0-7.5,3.358-7.5,7.5
	s3.357,7.5,7.5,7.5h41.309c21.654,0,43.097-3.088,63.832-9.185l-3.579,6.556c-8.897,16.291-25.967,26.411-44.549,26.411H126.913
	C108.332,150.273,91.261,140.153,82.365,123.862z M174.727,165.273v196.985h-14.121V165.273H174.727z M72.659,228.369
	c19.059-7.625,35.229-20.534,46.86-37.391h26.086v39.869H75.901c-2.975,0-5.945-0.076-8.909-0.212L72.659,228.369z M20.837,242.561
	l-2.631-4.818c18.76,5.38,38.133,8.104,57.695,8.104h69.705v20.771h-84.19C44.49,266.619,28.941,257.401,20.837,242.561z
	 M61.154,281.615v80.644H47.033v-82.347C51.601,281.013,56.335,281.594,61.154,281.615z M39.268,377.258H68.92v59.655H39.268
	V377.258z M497,466H15v-14.086h482V466z"/>
<g>
</g>
<g>
</g>
<g>
</g>
<g>
</g>
<g>
</g>
<g>
</g>
<g>
</g>
<g>
</g>
<g>
</g>
<g>
</g>
<g>
</g>
<g>
</g>
<g>
</g>
<g>
</g>
<g>
</g>
</svg>
