<svg viewBox="0 0 512.01627 512" xmlns="http://www.w3.org/2000/svg"><path d="m266.671875 405.332031 53.332031-10.667969-53.332031-202.667968-74.667969-10.664063-21.332031 21.332031-74.667969-21.332031 32-42.667969 170.667969 21.332032 96 330.667968-128-42.667968zm0 0" fill="#1e88e5"/><path d="m266.671875 405.332031v42.664063l-245.332031 10.667968 74.664062-277.332031 74.667969 21.332031-42.667969 181.332032zm0 0" fill="#64b5f6"/><path d="m138.671875 10.664062-10.667969 128-32 42.667969-74.664062 277.332031h-10.667969l53.332031-373.332031zm0 0" fill="#2196f3"/><path d="m501.339844 501.332031-106.667969-10.667969-96-330.667968-170.667969-21.332032 10.667969-128 224 53.332032zm0 0" fill="#64b5f6"/><path d="m394.671875 501.332031c-1.132813 0-2.261719-.195312-3.371094-.535156l-126.121093-42.046875-243.394532 10.582031c-3.199218-.023437-6.65625-1.324219-8.789062-4.011719-2.132813-2.644531-2.859375-6.164062-1.984375-9.429687l74.667969-277.332031c.382812-1.300782.980468-2.539063 1.792968-3.628906l32-42.664063c2.304688-3.074219 6.164063-4.695313 9.855469-4.183594l170.664063 21.332031c4.226562.515626 7.722656 3.523438 8.917968 7.597657l96 330.664062c1.109375 3.820313 0 7.917969-2.835937 10.667969-2.027344 1.941406-4.695313 2.988281-7.402344 2.988281zm-128-64c1.152344 0 2.28125.191407 3.371094.53125l108.714843 36.246094-88.386718-304.425781-157.546875-19.671875-27.046875 36.054687-70.359375 261.3125 230.804687-10.046875zm0 0"/><path d="m266.671875 415.996094c-.535156 0-1.089844-.042969-1.621094-.125l-138.667969-21.335938c-2.945312-.445312-5.546874-2.109375-7.210937-4.585937-1.664063-2.453125-2.21875-5.503907-1.535156-8.40625l42.667969-181.332031c.445312-1.941407 1.429687-3.710938 2.835937-5.097657l21.332031-21.335937c2.371094-2.367188 5.675782-3.433594 9.046875-3.027344l74.667969 10.664062c4.242188.597657 7.699219 3.714844 8.808594 7.851563l53.332031 202.667969c.75 2.835937.300781 5.84375-1.257813 8.363281-1.554687 2.496094-4.074218 4.222656-6.953124 4.820313l-53.332032 10.667968c-.707031.148438-1.410156.210938-2.113281.210938zm-125.652344-40.789063 125.394531 19.285157 40.386719-8.0625-48.640625-184.875-62.378906-8.917969-15.425781 15.425781zm0 0"/><path d="m501.339844 511.996094c-.363282 0-.707032-.019532-1.070313-.0625l-106.664062-10.667969c-5.867188-.574219-10.132813-5.800781-9.558594-11.667969.597656-5.84375 5.738281-10.199218 11.667969-9.535156l90.539062 9.042969-131.925781-416.125-212.328125-50.5625-67.945312 67.925781-51.09375 357.78125c5.117187.769531 9.042968 5.207031 9.042968 10.539062 0 5.886719-4.777344 10.667969-10.664062 10.667969h-10.667969c-3.09375 0-6.039063-1.324219-8.066406-3.691406-2.023438-2.324219-2.941407-5.417969-2.492188-8.46875l53.332031-373.335937c.339844-2.300782 1.386719-4.414063 3.007813-6.058594l74.667969-74.664063c2.644531-2.605469 6.460937-3.585937 10.023437-2.816406l224 53.332031c3.648438.875 6.570313 3.585938 7.703125 7.148438l138.667969 437.332031c1.085937 3.414063.382813 7.167969-1.878906 9.960937-2.046875 2.496094-5.097657 3.925782-8.296875 3.925782zm0 0"/><path d="m128.003906 149.332031c-.277344 0-.574218-.023437-.894531-.042969-5.867187-.46875-10.21875-5.65625-9.75-11.519531l10.667969-128c.488281-5.847656 5.480468-10.175781 11.519531-9.7304685 5.867187.4687495 10.21875 5.6523435 9.75 11.5195315l-10.667969 128c-.449218 5.570312-5.121094 9.773437-10.625 9.773437zm0 0"/><path d="m170.671875 213.332031c-.980469 0-1.964844-.128906-2.945313-.429687l-74.664062-21.332032c-5.65625-1.601562-8.941406-7.507812-7.320312-13.183593 1.621093-5.675781 7.597656-9.003907 13.183593-7.296875l74.667969 21.335937c5.675781 1.597657 8.9375 7.527344 7.339844 13.183594-1.34375 4.671875-5.613282 7.722656-10.261719 7.722656zm0 0"/><path d="m266.671875 458.664062c-5.886719 0-10.667969-4.777343-10.667969-10.667968v-42.664063c0-5.890625 4.78125-10.667969 10.667969-10.667969s10.667969 4.777344 10.667969 10.667969v42.664063c0 5.890625-4.78125 10.667968-10.667969 10.667968zm0 0"/></svg>
