<?xml version="1.0" encoding="iso-8859-1"?>
<svg id="beijing" enable-background="new 0 0 300 300" viewBox="0 0 300 300" xmlns="http://www.w3.org/2000/svg"><circle cx="116" cy="130" fill="#edebdc" r="90"/><path d="m206 108c-2.209 0-4-1.791-4-4v-16c0-2.209 1.791-4 4-4s4 1.791 4 4v16c0 2.209-1.791 4-4 4z" fill="#4c241d"/><path d="m94 112c-2.209 0-4-1.791-4-4v-20c0-2.209 1.791-4 4-4s4 1.791 4 4v20c0 2.209-1.791 4-4 4z" fill="#4c241d"/><path d="m270 260h-232c-2.209 0-4-1.791-4-4s1.791-4 4-4h232c2.209 0 4 1.791 4 4s-1.791 4-4 4z" fill="#4c241d"/><path d="m50 204h208v52h-208z" fill="#e66353"/><path d="m258 260h-208c-2.209 0-4-1.791-4-4v-52c0-2.209 1.791-4 4-4h208c2.209 0 4 1.791 4 4v52c0 2.209-1.791 4-4 4zm-204-8h200v-44h-200z" fill="#4c241d"/><path d="m50 240h208v16h-208z" fill="#edebdc"/><path d="m258 260h-208c-2.209 0-4-1.791-4-4v-16c0-2.209 1.791-4 4-4h208c2.209 0 4 1.791 4 4v16c0 2.209-1.791 4-4 4zm-204-8h200v-8h-200z" fill="#4c241d"/><path d="m142 220h20v36h-20z" fill="#edebdc"/><path d="m162 260h-20c-2.209 0-4-1.791-4-4v-36c0-2.209 1.791-4 4-4h20c2.209 0 4 1.791 4 4v36c0 2.209-1.791 4-4 4zm-16-8h12v-28h-12z" fill="#4c241d"/><path d="m174 228h20v28h-20z" fill="#e66353"/><path d="m194 260h-20c-2.209 0-4-1.791-4-4v-28c0-2.209 1.791-4 4-4h20c2.209 0 4 1.791 4 4v28c0 2.209-1.791 4-4 4zm-16-8h12v-20h-12z" fill="#4c241d"/><path d="m110 228h20v28h-20z" fill="#e66353"/><path d="m130 260h-20c-2.209 0-4-1.791-4-4v-28c0-2.209 1.791-4 4-4h20c2.209 0 4 1.791 4 4v28c0 2.209-1.791 4-4 4zm-16-8h12v-20h-12z" fill="#4c241d"/><path d="m74 164.392h160v39.608h-160z" fill="#e66353"/><path d="m234 208h-160c-2.209 0-4-1.791-4-4v-39.607c0-2.209 1.791-4 4-4h160c2.209 0 4 1.791 4 4v39.607c0 2.209-1.791 4-4 4zm-156-8h152v-31.607h-152z" fill="#4c241d"/><path d="m66 188h72v16h-72z" fill="#edebdc"/><path d="m138 208h-72c-2.209 0-4-1.791-4-4v-16c0-2.209 1.791-4 4-4h72c2.209 0 4 1.791 4 4v16c0 2.209-1.791 4-4 4zm-68-8h64v-8h-64z" fill="#4c241d"/><path d="m170 188h72v16h-72z" fill="#edebdc"/><path d="m242 208h-72c-2.209 0-4-1.791-4-4v-16c0-2.209 1.791-4 4-4h72c2.209 0 4 1.791 4 4v16c0 2.209-1.791 4-4 4zm-68-8h64v-8h-64z" fill="#4c241d"/><path d="m74 164h160v12h-160z" fill="#9dc1e4"/><path d="m234 180h-160c-2.209 0-4-1.791-4-4v-12c0-2.209 1.791-4 4-4h160c2.209 0 4 1.791 4 4v12c0 2.209-1.791 4-4 4zm-156-8h152v-4h-152z" fill="#4c241d"/><path d="m219.716 144h-130.796c-19.619 20.422-39.239 6.807-39.239 6.807 6.54 13.614 26.159 13.059 26.159 13.059h156.955s19.619.555 26.159-13.059c.001 0-19.618 13.615-39.238-6.807z" fill="#ffce56"/><path d="m75.395 167.873c-3.229 0-22.264-.646-29.318-15.334-.787-1.637-.371-3.598 1.01-4.777 1.383-1.176 3.389-1.271 4.877-.242.674.461 17.158 11.314 34.072-6.291.754-.785 1.797-1.229 2.885-1.229h130.797c1.088 0 2.131.443 2.885 1.229 16.914 17.613 33.395 6.752 34.09 6.281 1.498-1.02 3.494-.904 4.865.271 1.371 1.18 1.787 3.127 1.004 4.758-7.576 15.775-28.961 15.355-29.879 15.326l-156.843.002c-.055.002-.207.006-.445.006zm-7.098-8.807c4.105.857 7.354.795 7.439.803l157.059-.002c.115-.008 3.412.053 7.529-.803-6.773-.619-14.541-3.518-22.273-11.064h-127.465c-7.736 7.551-15.512 10.447-22.289 11.066z" fill="#4c241d"/><path d="m86 124h136v20h-136z" fill="#9dc1e4"/><path d="m222 148h-136c-2.209 0-4-1.791-4-4v-20c0-2.209 1.791-4 4-4h136c2.209 0 4 1.791 4 4v20c0 2.209-1.791 4-4 4zm-132-8h128v-12h-128z" fill="#4c241d"/><path d="m204.938 100h-109.876c0 19.543-35.211 26.947-35.211 26.947 38.635 6.737 141.662 6.737 180.297 0 .001 0-35.21-7.404-35.21-26.947z" fill="#ffce56"/><g fill="#4c241d"><path d="m150 135.994c-35.654 0-71.311-1.701-90.836-5.105-1.889-.33-3.275-1.953-3.311-3.869-.035-1.918 1.297-3.59 3.172-3.986 8.912-1.887 32.037-9.701 32.037-23.033 0-2.209 1.791-4 4-4h109.875c2.209 0 4 1.791 4 4 0 13.332 23.125 21.146 32.037 23.033 1.875.396 3.207 2.068 3.172 3.986-.035 1.916-1.422 3.539-3.311 3.869-19.524 3.404-55.181 5.105-90.835 5.105zm-72.488-10.805c39.309 3.797 105.668 3.797 144.977 0-9.17-4.207-19.057-11-21.148-21.189h-102.681c-2.092 10.189-11.978 16.982-21.148 21.189z"/><path d="m90 192c-2.209 0-4-1.791-4-4v-12c0-2.209 1.791-4 4-4s4 1.791 4 4v12c0 2.209-1.791 4-4 4z"/><path d="m110 192c-2.195 0-3.982-1.771-4-3.971l-.086-11.436c-.016-2.209 1.762-4.012 3.971-4.029h.029c2.195 0 3.982 1.771 4 3.971l.086 11.436c.016 2.209-1.762 4.012-3.971 4.029-.009 0-.019 0-.029 0z"/><path d="m198 192c-2.209 0-4-1.791-4-4v-12c0-2.209 1.791-4 4-4s4 1.791 4 4v12c0 2.209-1.791 4-4 4z"/><path d="m218 192c-2.209 0-4-1.791-4-4v-12c0-2.209 1.791-4 4-4s4 1.791 4 4v12c0 2.209-1.791 4-4 4z"/><path d="m130 192c-2.209 0-4-1.791-4-4v-12c0-2.209 1.791-4 4-4s4 1.791 4 4v12c0 2.209-1.791 4-4 4z"/><path d="m178 192c-2.209 0-4-1.791-4-4v-12c0-2.209 1.791-4 4-4s4 1.791 4 4v12c0 2.209-1.791 4-4 4z"/></g><path d="m146 128h12v20h-12z" fill="#edebdc"/><path d="m158 152h-12c-2.209 0-4-1.791-4-4v-20c0-2.209 1.791-4 4-4h12c2.209 0 4 1.791 4 4v20c0 2.209-1.791 4-4 4zm-8-8h4v-12h-4z" fill="#4c241d"/></svg>
