<svg viewBox="0 0 512 512.04377" xmlns="http://www.w3.org/2000/svg"><path d="m501.355469 85.378906h-10.667969v-32c0-5.890625-4.777344-10.667968-10.664062-10.667968h-64c-5.890626 0-10.667969 4.777343-10.667969 10.667968v32h-21.332031v-32c0-5.890625-4.78125-10.667968-10.667969-10.667968h-64c-5.886719 0-10.667969 4.777343-10.667969 10.667968v32h-10.664062c-5.890626 0-10.667969 4.777344-10.667969 10.664063v119.554687c-135.019531 34.300782-260.992188 196.585938-275.179688 215.335938-1.386719 1.855468-2.1523435 4.117187-2.1523435 6.445312v64c0 5.886719 4.7773435 10.664063 10.6640625 10.664063h64c4.90625 0 9.195312-3.347657 10.367188-8.128907 19.84375-80.980468 117.78125-214.738281 265.515624-247.316406-107.285156 54.378906-179.882812 194.839844-179.882812 244.78125 0 5.886719 4.78125 10.664063 10.667969 10.664063h149.332031c3.992188 0 7.636719-2.21875 9.472656-5.78125 10.945313-21.097657 93.804688-81.320313 164.117188-101.289063 4.585937-1.300781 7.746094-5.484375 7.746094-10.261718v-298.667969c0-5.886719-4.78125-10.664063-10.667969-10.664063zm0 0" fill="#90a4ae"/><path d="m394.6875 160.042969c-29.394531 0-53.332031 23.914062-53.332031 53.335937v32c0 5.886719 4.777343 10.664063 10.667969 10.664063h85.332031c5.886719 0 10.667969-4.777344 10.667969-10.664063v-32c0-29.421875-23.9375-53.335937-53.335938-53.335937zm0 0" fill="#455a64"/><path d="m190.101562 217.644531c-40.105468-20.90625-130.132812-69.761719-126.078124-100.265625 4.265624-32.640625 37.117187-42.242187 70.183593-53.976562 29.015625-10.238282 58.242188-22.183594 68.480469-52.691406h42.667969c3.414062 53.332031-61.441407 72.746093-74.667969 96-13.226562 23.253906 20.695312 29.441406 74.667969 53.332031zm0 0" fill="#cfd8dc"/><path d="m195.050781 208.191406c-117.78125-61.4375-121.003906-85.246094-120.449219-89.425781.726563-5.484375-2.878906-10.625-8.296874-11.800781-5.398438-1.191406-10.859376 1.964844-12.480469 7.277344l-1.855469 5.84375c-6.675781 20.566406-16.746094 51.648437 3.542969 78.402343 16.636719 22.035157 55.976562 48.851563 78.355469 61.523438 1.644531.917969 3.457031 1.367187 5.246093 1.367187 2.21875 0 4.417969-.683594 6.273438-2.050781 17.792969-12.90625 34.132812-23.53125 49.941406-32.382813 3.414063-1.921874 5.503906-5.566406 5.441406-9.472656-.066406-3.902344-2.261719-7.464844-5.71875-9.28125zm0 0" fill="#90a4ae"/><path d="m352.023438 256.042969c-153.816407 32-256 168.960937-277.335938 256h106.667969c0-57.8125 110.292969-256 256-256zm0 0" fill="#cfd8dc"/><path d="m330.6875 512.042969h-149.332031c-5.886719 0-10.667969-4.777344-10.667969-10.664063 0-62.488281 113.664062-266.667968 266.667969-266.667968 5.886719 0 10.667969 4.777343 10.667969 10.667968 0 5.886719-4.78125 10.664063-10.667969 10.664063-132.523438 0-232.726563 171.519531-244.222657 234.667969h131.773438c21.121094-28.5 98.007812-82.347657 165.78125-103.914063v-280.085937h-10.664062c-5.890626 0-10.667969-4.777344-10.667969-10.667969v-32h-42.667969v32c0 5.890625-4.777344 10.667969-10.664062 10.667969h-42.667969c-5.886719 0-10.667969-4.777344-10.667969-10.667969v-32h-42.664062v32c0 5.890625-4.78125 10.667969-10.667969 10.667969h-10.667969v117.332031c0 5.890625-4.777344 10.667969-10.664062 10.667969-5.890626 0-10.667969-4.777344-10.667969-10.667969v-128c0-5.886719 4.777343-10.664063 10.667969-10.664063h10.664062v-32c0-5.890625 4.78125-10.667968 10.667969-10.667968h64c5.886719 0 10.667969 4.777343 10.667969 10.667968v32h21.332031v-32c0-5.890625 4.777343-10.667968 10.667969-10.667968h64c5.886718 0 10.664062 4.777343 10.664062 10.667968v32h10.667969c5.886719 0 10.667969 4.777344 10.667969 10.664063v298.667969c0 4.777343-3.160157 8.960937-7.746094 10.261718-70.269532 19.945313-153.152344 80.167969-164.117188 101.3125-1.835937 3.539063-5.480468 5.757813-9.472656 5.757813zm0 0"/><path d="m74.6875 512.042969h-64c-5.886719 0-10.6640625-4.777344-10.6640625-10.664063v-64c0-2.328125.7656245-4.589844 2.1757815-6.445312 14.460937-19.113282 145.40625-187.710938 283.582031-217.34375 5.804688-1.171875 11.433594 2.410156 12.671875 8.214844 1.238281 5.757812-2.429687 11.414062-8.191406 12.671874-104.617188 22.421876-217.128907 138.964844-268.90625 206.507813v49.726563h45.140625c25.921875-89.644532 127.59375-223.382813 283.351562-255.765626 5.800782-1.324218 11.410156 2.472657 12.628906 8.277344 1.191407 5.78125-2.519531 11.414063-8.277343 12.609375-149.78125 31.144531-249.152344 166.460938-269.144531 248.082031-1.171876 4.78125-5.460938 8.128907-10.367188 8.128907zm0 0"/><path d="m437.355469 256.042969c-5.886719 0-10.667969-4.777344-10.667969-10.664063v-32c0-17.644531-14.355469-32-32-32-17.640625 0-32 14.355469-32 32v32c0 5.886719-4.777344 10.664063-10.664062 10.664063-5.890626 0-10.667969-4.777344-10.667969-10.664063v-32c0-29.421875 23.9375-53.335937 53.332031-53.335937 29.398438 0 53.335938 23.914062 53.335938 53.335937v32c0 5.886719-4.78125 10.664063-10.667969 10.664063zm0 0"/><path d="m245.355469 170.710938c-1.449219 0-2.921875-.300782-4.332031-.917969-11.390626-5.054688-21.867188-9.324219-31.210938-13.097657-28.949219-11.734374-46.441406-18.816406-51.453125-33.324218-2.371094-6.847656-1.34375-14.25 3.070313-21.953125 5.546874-9.703125 16.320312-17.535157 28.800781-26.578125 21.738281-15.765625 46.355469-33.644532 44.480469-63.46875-.363282-5.867188 4.09375-10.941406 9.984374-11.3046878 6.078126-.6835942 10.941407 4.0937498 11.304688 9.9843748 2.601562 41.511719-29.695312 64.957031-53.246094 82.066407-10.050781 7.277343-19.519531 14.144531-22.808594 19.882812-1.128906 1.984375-1.683593 3.671875-1.425781 4.394531 1.832031 5.335938 21.757813 13.417969 39.292969 20.523438 9.539062 3.882812 20.246094 8.214843 31.875 13.375 5.375 2.390625 7.804688 8.707031 5.417969 14.082031-1.773438 3.988281-5.675781 6.335938-9.75 6.335938zm0 0"/><path d="m64.023438 128.042969c-.449219 0-.898438-.019531-1.367188-.085938-5.84375-.765625-9.960938-6.121093-9.214844-11.945312 4.863282-37.332031 38.761719-49.214844 71.550782-60.691407l5.675781-2.007812c5.589843-1.941406 11.648437.960938 13.609375 6.507812 1.964844 5.546876-.9375 11.648438-6.484375 13.609376l-5.738281 2.007812c-33.769532 11.839844-54.507813 20.671875-57.453126 43.304688-.703124 5.375-5.289062 9.300781-10.578124 9.300781zm0 0"/><path d="m134.230469 74.050781c-4.394531 0-8.492188-2.730469-10.046875-7.105469-1.964844-5.566406.9375-11.648437 6.484375-13.632812 28.84375-10.21875 53.398437-20.714844 61.910156-45.992188 1.875-5.589843 7.890625-8.515624 13.523437-6.699218 5.589844 1.875 8.578126 7.914062 6.699219 13.503906-11.5625 34.34375-42.089843 47.65625-75.007812 59.304688-1.171875.425781-2.390625.621093-3.5625.621093zm0 0"/><path d="m139.136719 261.292969c-1.792969 0-3.605469-.449219-5.25-1.367188-22.335938-12.585937-61.652344-39.339843-78.375-61.4375-20.3125-26.839843-10.15625-58.09375-3.4375-78.785156l1.773437-5.503906c1.640625-5.292969 7.039063-8.449219 12.457032-7.253907 5.398437 1.195313 9.003906 6.335938 8.296874 11.796876-.339843 2.601562.171876 27.09375 120.472657 89.386718 3.476562 1.8125 5.695312 5.375 5.757812 9.300782.066407 3.925781-2.027343 7.554687-5.441406 9.472656-16.59375 9.34375-33.40625 20.203125-49.960937 32.339844-1.855469 1.367187-4.074219 2.050781-6.292969 2.050781zm-72.789063-113.621094c-2.601562 13.011719-2.496094 26.496094 6.1875 37.929687 11.625 15.402344 41.429688 37.738282 65.960938 52.308594 9.878906-7.039062 19.863281-13.675781 29.804687-19.796875-57.921875-31.148437-87.402343-53.71875-101.953125-70.441406zm0 0"/></svg>
