<svg viewBox="0 0 512 512" xmlns="http://www.w3.org/2000/svg"><g id="Fill_out_line" data-name="Fill out line"><path d="m248 48h16v24h-16z" fill="#fab53f"/><path d="m176 144h160v48h-160z" fill="#d4e4f0"/><path d="m408 288h-304v120h88v-16h128v16h88z" fill="#e04446"/><path d="m192 392h128v96h-128z" fill="#ffefd6"/><path d="m240 392h32v96h-32z" fill="#d4e4f0"/><path d="m224 320h64v72h-64z" fill="#d6323f"/><path d="m320 320h56v88h-56z" fill="#d6323f"/><path d="m136 320h56v88h-56z" fill="#d6323f"/><path d="m416 208h-13.89468a135.55407 135.55407 0 0 1 -50.3435-9.69527l-15.76182-6.30473h-160l-15.76182 6.30473a135.55407 135.55407 0 0 1 -50.3435 9.69527h-13.89468l32 16h256z" fill="#68737f"/><path d="m448 272a135.554 135.554 0 0 1 -60.62161-14.31082l-3.37839-1.68918h-256l-3.37836 1.68918a135.554 135.554 0 0 1 -60.62164 14.31082l32 16h320z" fill="#68737f"/><path d="m128 224h256v32h-256z" fill="#d4e4f0"/><path d="m352 144 32-16-46.092-7.682a84.03579 84.03579 0 0 1 -65.908-56.31795v-.00005h-32v.00005a84.03579 84.03579 0 0 1 -65.908 56.31795l-46.092 7.682 32 16z" fill="#68737f"/><circle cx="256" cy="40" fill="#fdca77" r="16"/><path d="m104 288h304v16h-304z" fill="#d4e4f0"/><path d="m240 144h32v48h-32z" fill="#529ddf"/><path d="m16 408h176v80h-176z" fill="#e1cab4"/><path d="m320 408h176v80h-176z" fill="#e1cab4"/><g fill="#ffefd6"><path d="m24 456h168v32h-168z"/><path d="m24 376h168v32h-168z"/><path d="m320 456h168v32h-168z"/><path d="m320 376h168v32h-168z"/><path d="m128 352h16v56h-16z"/></g><path d="m480 352v16h-40v-16h-16v16h-40v-16h-16v16h-40v-16h-16v32h-16v-64a8.00008 8.00008 0 0 0 -8-8h-64a8.00008 8.00008 0 0 0 -8 8v64h-16v-32h-16v16h-40v-16h-16v16h-40v-16h-16v16h-40v-16h-16v56a8.00008 8.00008 0 0 0 8 8h160v32h-40v-16h-16v16h-40v-16h-16v16h-40v-16h-16v56a8.00008 8.00008 0 0 0 8 8h464a8.00008 8.00008 0 0 0 8-8v-56h-16v16h-40v-16h-16v16h-40v-16h-16v16h-40v-32h160a8.00008 8.00008 0 0 0 8-8v-56zm0 32v16h-40v-16zm-56 0v16h-40v-16zm-224 48h32v16h-32zm0-32h32v16h-32zm48 0h16v80h-16zm32 32h32v16h-32zm32-16h-32v-16h32zm-80-88h48v56h-48zm-104 56v16h-40v-16zm-96 0h40v16h-40zm112 16v-16h40v16zm40 64v16h-40v-16zm-56 0v16h-40v-16zm-96 0h40v16h-40zm168 0h32v16h-32zm80 16v-16h32v16zm200-16v16h-40v-16zm-56 0v16h-40v-16zm-56 0v16h-40v-16zm-40-80h40v16h-40z"/><path d="m60.42236 279.15527 32 16a7.99737 7.99737 0 0 0 3.57764.84473v48h16v-48h288v48h16v-48a7.99737 7.99737 0 0 0 3.57764-.84473l32-16a7.99986 7.99986 0 0 0 -3.57764-15.15527 128.21418 128.21418 0 0 1 -56-12.96313v-22.09278l27.57764-13.78882a7.99986 7.99986 0 0 0 -3.57764-15.15527 198.778 198.778 0 0 1 -72-13.4458v-34.5542h8a7.99583 7.99583 0 0 0 3.57764-.84473l32-16a8.00015 8.00015 0 0 0 -2.2627-15.04687l-46.09131-7.68067a75.86869 75.86869 0 0 1 -59.63427-50.958 7.98347 7.98347 0 0 0 -5.90168-5.26758 24 24 0 1 0 -35.37536 0 7.98347 7.98347 0 0 0 -5.90168 5.26758 75.866 75.866 0 0 1 -59.63378 50.957l-46.0918 7.68164a8.00015 8.00015 0 0 0 -2.2627 15.04687l32 16a7.99583 7.99583 0 0 0 3.57764.84476h8v34.55444a198.78508 198.78508 0 0 1 -72 13.44556 7.99986 7.99986 0 0 0 -3.57764 15.15527l27.57764 13.78882v22.093a128.219 128.219 0 0 1 -56 12.96291 7.99986 7.99986 0 0 0 -3.57764 15.15527zm75.57764-47.15527h240v16h-240zm192-48h-48v-32h48zm-64-32v32h-16v-32zm-8-120a8 8 0 1 1 -8 8 8.00917 8.00917 0 0 1 8-8zm-102.418 99.84668 21.8252-3.63672a91.813 91.813 0 0 0 70.16653-56.20996h20.85254a91.813 91.813 0 0 0 70.167 56.21l21.82471 3.63672-8.30665 4.15328h-188.22266zm78.418 20.15332v32h-48v-32zm-55.88916 48.57227 1.43016-.57227h156.918l1.43067.57227a214.96792 214.96792 0 0 0 50.32471 13.376l-4.10305 2.05173h-252.22266l-4.103-2.05176a214.97192 214.97192 0 0 0 50.32517-13.37597zm-47.91113 64.27246 1.689-.84473h252.22262l1.68945.84473a143.97666 143.97666 0 0 0 35.95947 12.331l-5.64892 2.82427h-316.22266l-5.64892-2.82422a143.98691 143.98691 0 0 0 35.95996-12.33105z"/><path d="m384 336v-16a8.00008 8.00008 0 0 0 -8-8h-56a8.00008 8.00008 0 0 0 -8 8v16h16v-8h40v8z"/><path d="m200 336v-16a8.00008 8.00008 0 0 0 -8-8h-56a8.00008 8.00008 0 0 0 -8 8v16h16v-8h40v8z"/></g></svg>
