<svg viewBox="0 0 512 512" xmlns="http://www.w3.org/2000/svg"><g id="Fill_out_line" data-name="Fill out line"><path d="m248 48h16v16h-16z" fill="#fab53f"/><path d="m456 152 32 16v24h-48v-40z" fill="#fab53f"/><path d="m56 152-32 16v24h48v-40z" fill="#fab53f"/><path d="m48 192h416v224h-416z" fill="#fdca77"/><path d="m200 160h112v256h-112z" fill="#e04446"/><path d="m368 160h96v256h-96z" fill="#e04446"/><path d="m48 160h96v256h-96z" fill="#e04446"/><g fill="#d6323f"><path d="m48 192h48v224h-48z"/><path d="m416 192h48v224h-48z"/><path d="m48 208h48v32h-48z"/><path d="m416 208h48v32h-48z"/><path d="m56 184h88v32h-88z"/><path d="m368 184h88v32h-88z"/></g><path d="m144 184h224v32h-224z" fill="#fab53f"/><path d="m272 376h-32a32.03635 32.03635 0 0 0 -32 32v8h16v-8a16.01833 16.01833 0 0 1 16-16h32a16.01833 16.01833 0 0 1 16 16v8h16v-8a32.03635 32.03635 0 0 0 -32-32z" fill="#fab53f"/><path d="m224 352h64a0 0 0 0 1 0 0v8a32 32 0 0 1 -32 32 32 32 0 0 1 -32-32v-8a0 0 0 0 1 0 0z" fill="#fdca77"/><path d="m232 320h48v32h-48z" fill="#fab53f"/><path d="m104 448h304v32h-304z" fill="#68737f"/><path d="m104 416h304v32h-304z" fill="#68737f"/><path d="m88 192h32v224h-32z" fill="#fdca77"/><path d="m88 320h32v64h-32z" fill="#c1d7e6"/><path d="m88 384h32v96h-32z" fill="#d4e4f0"/><circle cx="104" cy="368" fill="#d4e4f0" r="16"/><path d="m392 192h32v224h-32z" fill="#fdca77"/><path d="m392 320h32v64h-32z" fill="#c1d7e6"/><path d="m392 384h32v96h-32z" fill="#d4e4f0"/><circle cx="408" cy="368" fill="#d4e4f0" r="16"/><path d="m448 188 24-84-.00006.00006a97.75713 97.75713 0 0 1 -122.40122 12.83911l-93.59872-60.83917-93.59872 60.83917a97.75713 97.75713 0 0 1 -122.40122-12.83911l-.00006-.00006 24 84z" fill="#fdca77"/><path d="m143.53958 160.00194a129.66379 129.66379 0 0 0 36.30124-16.33251l76.15918-49.50343 76.15918 49.50341a129.72766 129.72766 0 0 0 33.82763 15.62641z" fill="#fab53f"/><circle cx="256" cy="40" fill="#fdca77" r="16"/><path d="m24 192h64v32h-64z" fill="#d6323f"/><path d="m424 192h64v32h-64z" fill="#d6323f"/><path d="m456 224h32v192h-32z" fill="#fdca77"/><path d="m392 184h32v32h-32z" fill="#fab53f"/><path d="m88 184h32v32h-32z" fill="#fab53f"/><path d="m424 416h64v64h-64z" fill="#c1d7e6"/><path d="m24 224h32v192h-32z" fill="#fdca77" transform="matrix(-1 0 0 -1 80 640)"/><path d="m24 416h64v64h-64z" fill="#c1d7e6" transform="matrix(-1 0 0 -1 112 896)"/><path d="m56 160h400v32h-400z" fill="#e04446"/><path d="m176 192h160v48h-160z" fill="#d6323f"/><path d="m88 224h-16v-16h-48v-16h64z" fill="#ce2337"/><path d="m424 224h16v-16h48v-16h-64z" fill="#ce2337"/><path d="m56 224h32v16h-32z" fill="#ce2337"/><path d="m424 224h32v16h-32z" fill="#ce2337"/><path d="m489.94043 160.23877-23.97559-5.994 13.72754-48.04706a8.00029 8.00029 0 0 0 -13.34961-7.85449 89.90128 89.90128 0 0 1 -29.62695 19.62805 19.21343 19.21343 0 0 0 -3.2041-10.12512l-21.20117-31.80269a4.43384 4.43384 0 0 1 6.82422-5.59473l15.208 15.208 11.31446-11.31348-15.208-15.208a20.434 20.434 0 0 0 -31.45118 25.78375l21.20117 31.80224a3.32028 3.32028 0 0 1 -.41406 4.17969 3.31264 3.31264 0 0 1 -5.03711-.417l-15.32422-21.4541a41.85973 41.85973 0 0 0 -53.03028-13.1709 26.056 26.056 0 0 1 -36.92968-16.98584l-5.70313-22.81348-15.52148 3.88086 5.21582 20.86365-20.81738-13.53148a24.00014 24.00014 0 1 0 -33.27515 0l-20.81763 13.53144 5.21582-20.86365-15.52148-3.88086-5.70313 22.81348a26.056 26.056 0 0 1 -36.92968 16.98584 41.85919 41.85919 0 0 0 -53.03028 13.1709l-15.32422 21.45361a3.31272 3.31272 0 0 1 -5.03808.417 3.32065 3.32065 0 0 1 -.41309-4.1792l21.20122-31.80177a20.43411 20.43411 0 0 0 -31.45122-25.78418l-15.208 15.208 11.31445 11.31349 15.208-15.208a4.434 4.434 0 0 1 6.82422 5.59526l-21.20117 31.80219a19.21359 19.21359 0 0 0 -3.2041 10.12512 89.89881 89.89881 0 0 1 -29.627-19.62805 8.00029 8.00029 0 0 0 -13.34961 7.85449l13.72783 48.04706-23.97583 5.994a8.00005 8.00005 0 0 0 -6.05957 7.76119v312a8.00008 8.00008 0 0 0 8 8h464a8.00008 8.00008 0 0 0 8-8v-312a8.00005 8.00005 0 0 0 -6.05957-7.76123zm-9.94043 14.00732v9.75391h-16v-13.75378zm-126.4502-74.07666a25.93294 25.93294 0 0 1 32.8545 8.16016l11.52978 16.14241a90.05259 90.05259 0 0 1 -43.9751-14.34014l-10.05224-6.534a42.30845 42.30845 0 0 0 9.64306-3.42843zm-97.5498-68.16943a7.99994 7.99994 0 0 1 .002 15.99988h-.0039a7.99994 7.99994 0 0 1 .0019-15.99988zm-130.4043 76.32959a25.93267 25.93267 0 0 1 32.8545-8.16016 42.30381 42.30381 0 0 0 9.64257 3.42865l-10.05177 6.53376a90.04859 90.04859 0 0 1 -43.9751 14.33947zm-27.5039 31.72559a106.08907 106.08907 0 0 0 68.66992-16.5083l89.23828-58.00538 89.23926 58.00538a105.68971 105.68971 0 0 0 112.335 1.82177l-7.60893 26.63135h-80.71582a8.00094 8.00094 0 0 0 -.98877-.374 121.75644 121.75644 0 0 1 -31.74121-14.66407l-76.15918-49.50343a8 8 0 0 0 -8.7207 0l-76.15918 49.50341a121.59785 121.59785 0 0 1 -33.08647 15.03809h-80.35933l-7.60889-26.63135a106.02588 106.02588 0 0 0 43.66602 14.68653zm-34.0918 43.94482v-16h384v16zm352 16v112h-16v-112zm-88 0v32h-144v-32zm-216 0v112h-16v-112zm69.83594-48.11963q1.18946-.73974 2.36523-1.50342l71.79883-46.66943 71.7998 46.66948q.80421.52368 1.61622 1.03516zm-149.83594 22.36572 16-3.99987v13.75378h-16zm0 25.75391h48v16h-48zm0 32h16v176h-16zm48 240h-48v-48h48zm32 0h-16v-80h16zm-8-96a8 8 0 1 1 8-8 8.00917 8.00917 0 0 1 -8 8zm280 96h-256v-16h256zm0-32h-256v-16h256zm-104-80a24 24 0 0 1 -48 0zm-40-16v-16h32v16zm-6.20337 49.25256a39.90572 39.90572 0 0 0 44.407 0 16.02441 16.02441 0 0 1 9.79637 14.74744h-64a16.02432 16.02432 0 0 1 9.79663-14.74744zm182.20337 78.74744h-16v-80h16zm-8-96a8 8 0 1 1 8-8 8.00917 8.00917 0 0 1 -8 8zm0-32a23.99394 23.99394 0 0 0 -21.6543 34.34106 7.974 7.974 0 0 0 -2.3457 5.65894v24h-80a31.98666 31.98666 0 0 0 -14.23633-26.59314 39.74774 39.74774 0 0 0 6.23633-21.40686v-8a8.00008 8.00008 0 0 0 -8-8v-24a8.00008 8.00008 0 0 0 -8-8h-48a8.00008 8.00008 0 0 0 -8 8v24a8.00008 8.00008 0 0 0 -8 8v8a39.74824 39.74824 0 0 0 6.24121 21.41443 31.9776 31.9776 0 0 0 -14.24121 26.58557h-80v-24a7.9748 7.9748 0 0 0 -2.34546-5.65894 24 24 0 1 0 -43.30908 0 7.9748 7.9748 0 0 0 -2.34546 5.65894v24h-16v-176h16v104h16v-8h16v8h16v-136h40v40a8.00008 8.00008 0 0 0 8 8h160a8.00008 8.00008 0 0 0 8-8v-40h40v136h16v-8h16v8h16v-104h16v176h-16v-24a7.974 7.974 0 0 0 -2.3457-5.65894 23.99394 23.99394 0 0 0 -21.6543-34.34106zm72 128h-48v-48h48zm0-64h-16v-176h16zm-48-192v-16h48v16z"/></g></svg>
