<?xml version="1.0"?>
<svg xmlns="http://www.w3.org/2000/svg" viewBox="0 0 512 512"><g id="Fill_out_line" data-name="Fill out line"><path d="M456,496H56l8.61-47.3a63.976,63.976,0,0,1,39.49-48.05981,63.07889,63.07889,0,0,1,7.89-2.54L200,376H312l88.01,22.1001a63.05921,63.05921,0,0,1,7.85,2.52978A63.95072,63.95072,0,0,1,447.39,448.7Z" style="fill:#d4e4f0"/><path d="M168,384.04V496H120V434.74a35.751,35.751,0,0,0-8.3-22.90015,68.4183,68.4183,0,0,1-7.6-11.1997,63.07889,63.07889,0,0,1,7.89-2.54l8-2.01026Z" style="fill:#c1d7e6"/><path d="M407.86,400.62988a66.6175,66.6175,0,0,1-7.57,11.21A35.83014,35.83014,0,0,0,392,434.74V496H344V384.04l48.01,12.0498,8,2.01026A63.05921,63.05921,0,0,1,407.86,400.62988Z" style="fill:#c1d7e6"/><rect x="200" y="376" width="112" height="120" style="fill:#fdc5ca"/><path d="M312,376v45.2a71.90738,71.90738,0,0,1-112,0V376Z" style="fill:#fc979e"/><path d="M312,376a56,56,0,0,1-112,0l16-32h80Z" style="fill:#fdc5ca"/><path d="M336,160V344a16,16,0,1,1-32,0v-8H208v8a16,16,0,0,1-32,0V160a24.002,24.002,0,0,0,24-24,23.65792,23.65792,0,0,0,7.97-1.37012A23.98146,23.98146,0,0,0,224,112V88l32-32,32,32v24a23.97638,23.97638,0,0,0,16.03,22.62988A23.70114,23.70114,0,0,0,312,136a24.002,24.002,0,0,0,24,24Z" style="fill:#68737f"/><polygon points="292.131 197 219.869 197 220 152 292.131 152 292.131 197" style="fill:#3e454d"/><path d="M312,136H200a24.00619,24.00619,0,0,0,24-24V88l32-32,32,32v24a24.002,24.002,0,0,0,24,24Z" style="fill:#e04446"/><path d="M176,248h32a0,0,0,0,1,0,0v96a16,16,0,0,1-16,16h0a16,16,0,0,1-16-16V248a0,0,0,0,1,0,0Z" style="fill:#fc979e"/><path d="M304,248h32a0,0,0,0,1,0,0v96a16,16,0,0,1-16,16h0a16,16,0,0,1-16-16V248a0,0,0,0,1,0,0Z" style="fill:#fc979e"/><path d="M303.54,359.08008q-1.275,1.04992-2.61,2.04a75.25947,75.25947,0,0,1-92.47-2.04L216,344h80Z" style="fill:#fc979e"/><path d="M256.00006,360h-.00012a75.26565,75.26565,0,0,1-72.09141-53.63822l0-.00008A187.5222,187.5222,0,0,1,176,252.47758V232a48,48,0,0,1,48-48h64.0001a48,48,0,0,1,48,48v20.47763a187.5222,187.5222,0,0,1-7.90851,53.88412l0,.00008A75.26565,75.26565,0,0,1,256.00006,360Z" style="fill:#fdc5ca"/><path d="M256,176a16.33163,16.33163,0,0,1-16.1084-19.0166L243.38867,136h25.22266l3.49707,20.9834A16.33163,16.33163,0,0,1,256,176Z" style="fill:#68737f"/><path d="M306.47,169.7A14.34251,14.34251,0,0,1,292.13,184a14.08637,14.08637,0,0,1-2.61-.24,14.31582,14.31582,0,0,1-11.51-11.73L272,136h24l9.72,29.1499A14.26784,14.26784,0,0,1,306.47,169.7Z" style="fill:#68737f"/><polygon points="232 136 256 88 280 136 232 136" style="fill:#fdca77"/><path d="M387.53,334.79l-7.07-8.25A51.767,51.767,0,0,1,368,292.8501V144l-26.36-26.35986a73.90478,73.90478,0,0,1-21.64-52.25A41.38048,41.38048,0,0,0,278.61,24H233.39A41.38887,41.38887,0,0,0,192,65.39014a73.95335,73.95335,0,0,1-21.64,52.25L144,144V292.8501A51.767,51.767,0,0,1,131.54,326.54l-7.07,8.25a51.761,51.761,0,0,0-4.48,61.2998A52.55847,52.55847,0,0,0,124,401.6001,51.74151,51.74151,0,0,1,136,434.74V496h32V384l32-8,14.3-28.60986Q211.885,345.785,209.61,344H208a16,16,0,0,1-32,0V160a24.002,24.002,0,0,0,24-24,24.00619,24.00619,0,0,0,24-24V88l32-32,32,32v24a24.002,24.002,0,0,0,24,24,24.002,24.002,0,0,0,24,24V344a16,16,0,1,1-32,0h-1.61c-.48.37988-.97.75-1.46,1.12012-1.05.78979-2.13,1.5498-3.23,2.27978L312,376l32,8V496h32V434.74a51.74,51.74,0,0,1,12-33.13989,52.55847,52.55847,0,0,0,4.01-5.51026,51.76635,51.76635,0,0,0-4.48-61.2998Z" style="fill:#d4e4f0"/><polygon points="344 384 344 496 312 496 312 376 327.89 379.97 344 384" style="fill:#e04446"/><path d="M327.89,379.97A71.66341,71.66341,0,0,1,312,421.2V376Z" style="fill:#d6323f"/><polygon points="200 376 200 496 168 496 168 384 184.11 379.97 200 376" style="fill:#e04446"/><path d="M200,376v45.2a71.66341,71.66341,0,0,1-15.89-41.23Z" style="fill:#d6323f"/><path d="M205.5336,169.7A14.34251,14.34251,0,0,0,219.87356,184a14.0864,14.0864,0,0,0,2.61-.24,14.31583,14.31583,0,0,0,11.51-11.73l6.01-36.03h-24l-9.72,29.1499A14.26784,14.26784,0,0,0,205.5336,169.7Z" style="fill:#68737f"/><path d="M214.3,347.39014,200,376l-24,6V344a16,16,0,0,0,32,0v-1.3A72.00689,72.00689,0,0,0,214.3,347.39014Z" style="fill:#68737f"/><path d="M297.7,347.39014,312,376l24,6V344a16,16,0,0,1-32,0v-1.3A72.00689,72.00689,0,0,1,297.7,347.39014Z" style="fill:#68737f"/><path d="M256,296h16V280h-8V240h48V224H256a8.00008,8.00008,0,0,0-8,8v56A8.00008,8.00008,0,0,0,256,296Z"/><path d="M216,280a27.13227,27.13227,0,0,0,19.313-8l2.34326-2.34277-11.3125-11.31446L224,260.68555a11.31251,11.31251,0,0,1-16.00049,0l-2.34326-2.34278-11.3125,11.31446L196.68652,272A27.13424,27.13424,0,0,0,216,280Z"/><path d="M304,260.68555a11.31251,11.31251,0,0,1-16.00049,0l-2.34326-2.34278-11.3125,11.31446L276.68652,272a27.31257,27.31257,0,0,0,38.62647,0l2.34326-2.34277-11.3125-11.31446Z"/><rect x="200" y="224" width="40" height="16"/><path d="M232,328h11.0752a14.83342,14.83342,0,0,0,25.8496,0H280V312H268.22314A14.73858,14.73858,0,0,0,256,318.4248,14.73858,14.73858,0,0,0,243.77686,312H232Z"/><circle cx="256" cy="208" r="8"/><path d="M345.94043,376.23926l-28.43024-7.10742-.67334-1.34668A23.96145,23.96145,0,0,0,344,344V160a8.00008,8.00008,0,0,0-8-8,16.01833,16.01833,0,0,1-16-16,8.00008,8.00008,0,0,0-8-8,16.01833,16.01833,0,0,1-16-16V88a8.00076,8.00076,0,0,0-2.34326-5.65723l-32-32a8.00182,8.00182,0,0,0-11.31348,0l-32,32A8.00076,8.00076,0,0,0,216,88v24a16.01833,16.01833,0,0,1-16,16,8.00008,8.00008,0,0,0-8,8,16.01833,16.01833,0,0,1-16,16,8.00008,8.00008,0,0,0-8,8V344a23.96145,23.96145,0,0,0,27.16315,23.78516l-.67334,1.34668-28.43024,7.10742A7.9992,7.9992,0,0,0,160,384V496h16V390.24609l16-4V496h16V418.2644a63.86841,63.86841,0,0,0,96,0V496h16V386.24609l16,4V496h16V384A7.9992,7.9992,0,0,0,345.94043,376.23926ZM320,352a8.00738,8.00738,0,0,1-7.71472-5.91455A82.34308,82.34308,0,0,0,328,326.59668V344A8.00917,8.00917,0,0,1,320,352Zm8-185.0127v25.87427a56.23272,56.23272,0,0,0-16.69739-11.76294,22.0428,22.0428,0,0,0,2.00354-18.47656l-2.17932-6.53809A32.05222,32.05222,0,0,0,328,166.9873ZM290.23389,144l7.89355,23.68164a6.3203,6.3203,0,1,1-12.23047,3.03711L281.44385,144Zm-45.28955-16L256,105.88867,267.05566,128Zm-14.38819,16L226.103,170.71973a6.32051,6.32051,0,1,1-12.23047-3.03907L221.76611,144Zm16.03516,27.63965a12.30987,12.30987,0,0,1-2.7544-9.998h-.00024L246.777,144h18.446l2.94043,17.6416h-.00036a12.331,12.331,0,0,1-21.57178,9.998ZM232,91.31348l24-24,24,24V112a31.933,31.933,0,0,0,1.091,8.29346L263.15527,84.42188a8.00009,8.00009,0,0,0-14.31054,0L230.909,120.29346A31.933,31.933,0,0,0,232,112ZM184,166.9873a32.05392,32.05392,0,0,0,16.87274-10.90283l-2.17889,6.53662a22.04471,22.04471,0,0,0,2.00354,18.47754A56.23272,56.23272,0,0,0,184,192.86157ZM184,232a40.04552,40.04552,0,0,1,40-40h64a40.04552,40.04552,0,0,1,40,40v20.47754a179.3897,179.3897,0,0,1-7.57129,51.585,67.26528,67.26528,0,0,1-128.85742,0A179.3897,179.3897,0,0,1,184,252.47754Zm0,112V326.59668a82.34308,82.34308,0,0,0,15.71472,19.48877A7.99509,7.99509,0,0,1,184,344Zm72,80a48.05719,48.05719,0,0,1-47.96582-46.17969l9.58643-19.17285a83.42373,83.42373,0,0,0,76.75878,0l9.58643,19.17285A48.05719,48.05719,0,0,1,256,424Z"/><path d="M455.25781,447.27051a72.14475,72.14475,0,0,0-51.56518-56.46289A59.5849,59.5849,0,0,0,393.606,329.58008l-7.07178-8.249A43.78819,43.78819,0,0,1,376,292.85352V144a8.00076,8.00076,0,0,0-2.34326-5.65723l-26.35742-26.35742A65.46061,65.46061,0,0,1,328,65.39258,49.44869,49.44869,0,0,0,278.60693,16H233.39307A49.44869,49.44869,0,0,0,184,65.39258a65.46061,65.46061,0,0,1-19.29932,46.59277l-26.35742,26.35742A8.00076,8.00076,0,0,0,136,144V292.85352a43.78587,43.78587,0,0,1-10.53369,28.47656l-7.07276,8.251a59.58382,59.58382,0,0,0-10.08612,61.22681,72.1445,72.1445,0,0,0-51.56524,56.46265l-8.6128,47.2959,15.74122,2.86718L72.4834,450.1377a56.1144,56.1144,0,0,1,41.45752-44.28223l2.687-.67481c.404.51807.80658,1.03687,1.23,1.54493A43.84133,43.84133,0,0,1,128,434.73828V496h16V434.73828a59.86985,59.86985,0,0,0-13.8501-38.25488,43.63908,43.63908,0,0,1,.3916-56.48926l7.07276-8.251A59.79672,59.79672,0,0,0,152,292.85352v-145.54l24.01416-24.01368A81.35726,81.35726,0,0,0,200,65.39258,33.43036,33.43036,0,0,1,233.39307,32h45.21386A33.43036,33.43036,0,0,1,312,65.39258a81.35726,81.35726,0,0,0,23.98584,57.90722L360,147.31348v145.54a59.79909,59.79909,0,0,0,14.38623,38.89062l7.07178,8.249a43.63984,43.63984,0,0,1,.39209,56.49024A59.86985,59.86985,0,0,0,368,434.73828V496h16V434.73828a43.84133,43.84133,0,0,1,10.14209-28.01269c.4234-.50806.826-1.02686,1.23-1.54493l2.68744.67481a56.11454,56.11454,0,0,1,41.457,44.28223l8.61279,47.29589,15.74122-2.86718Z"/></g></svg>
