<?xml version="1.0" encoding="iso-8859-1"?>
<!-- Generator: Adobe Illustrator 19.0.0, SVG Export Plug-In . SVG Version: 6.00 Build 0)  -->
<svg version="1.1" id="Capa_1" xmlns="http://www.w3.org/2000/svg" xmlns:xlink="http://www.w3.org/1999/xlink" x="0px" y="0px"
	 viewBox="0 0 512 512" style="enable-background:new 0 0 512 512;" xml:space="preserve">
<path style="fill:#FFCF65;" d="M250,17.207v286.431c0,3.014-1.4,5.857-3.789,7.694L192.823,352.4c-3.489,2.684-8.348,2.684-11.837,0
	l-53.389-41.068c-2.389-1.838-3.789-4.68-3.789-7.694V17.207c0-5.361,4.346-9.707,9.707-9.707h106.777
	C245.654,7.5,250,11.846,250,17.207z"/>
<path style="fill:#FFB450;" d="M250,17.207v286.431c0,3.014-1.4,5.857-3.788,7.694l-40.217,30.936v-38.63V105.865V17.207
	c0-5.361-4.346-9.707-9.707-9.707h44.005C245.654,7.5,250,11.846,250,17.207z"/>
<path style="fill:#FF8235;" d="M157.845,70.596c0-13.403,10.865-24.268,24.268-24.268s24.268,10.865,24.268,24.268
	s-10.865,24.268-24.268,24.268S157.845,83.998,157.845,70.596z M182.113,133.691c-13.403,0-24.268,10.865-24.268,24.268
	s10.865,24.268,24.268,24.268s24.268-10.865,24.268-24.268S195.515,133.691,182.113,133.691z"/>
<path style="fill:#FF4B4B;" d="M206.318,395.781c0,10.722-8.692,19.414-19.414,19.414s-19.414-8.692-19.414-19.414
	s8.692-19.414,19.414-19.414S206.318,385.059,206.318,395.781z"/>
<path style="fill:#963737;" d="M143.398,221.348v242.09c0,5.523-4.477,10-10,10H36.914c-5.523,0-10-4.477-10-10v-242.09
	c0-5.523,4.477-10,10-10h96.484C138.921,211.348,143.398,215.825,143.398,221.348z"/>
<path style="fill:#C83741;" d="M105.541,211.348v262.09h-68.92c-5.361,0-9.707-4.346-9.707-9.707V221.055
	c0-5.361,4.346-9.707,9.707-9.707L105.541,211.348L105.541,211.348z"/>
<path style="fill:#FFCF65;" d="M376.074,395.781H306.77c-5.523,0-10-4.477-10-10V66.035c0-5.523,4.477-10,10-10h69.305
	c5.523,0,10,4.477,10,10v319.746C386.074,391.304,381.597,395.781,376.074,395.781z"/>
<path style="fill:#FFB450;" d="M376.367,395.781h-35.593V56.035h35.593c5.361,0,9.707,4.346,9.707,9.707v320.332
	C386.074,391.435,381.728,395.781,376.367,395.781z"/>
<path style="fill:#FF8235;" d="M448.877,221.055h-28.535c-5.523,0-10-4.477-10-10v-77.07c0-5.523,4.477-10,10-10h28.535
	c5.523,0,10,4.477,10,10v77.07C458.877,216.578,454.4,221.055,448.877,221.055z"/>
<path style="fill:#FF4B4B;" d="M504.5,191.934v19.414c0,21.444-17.384,38.828-38.828,38.828h-62.125
	c-21.444,0-38.828-17.384-38.828-38.828v-19.414c0-21.444,17.384-38.828,38.828-38.828h62.125
	C487.116,153.105,504.5,170.489,504.5,191.934z M356.953,504.5h112.662V349.188H356.953V504.5z"/>
<path style="fill:#D24A4A;" d="M504.5,191.934v19.414c0,21.444-17.384,38.828-38.828,38.828h-42.711
	c21.444,0,38.828-17.384,38.828-38.828v-19.414c0-21.444-17.384-38.828-38.828-38.828h42.711
	C487.116,153.105,504.5,170.489,504.5,191.934z M440.494,504.5h29.121V349.188h-29.121V504.5z"/>
<path style="fill:#963737;" d="M437.551,427.329c0,13.403-10.865,24.268-24.268,24.268c-13.403,0-24.268-10.865-24.268-24.268
	s10.865-24.268,24.268-24.268C426.686,403.062,437.551,413.926,437.551,427.329z"/>
<path style="fill:#FFCF65;" d="M105,250.25v19.5c0,5.661-4.589,10.25-10.25,10.25h-19.5C69.589,280,65,275.411,65,269.75v-19.5
	c0-5.661,4.589-10.25,10.25-10.25h19.5C100.411,240,105,244.589,105,250.25z M94.75,306.998h-19.5c-5.661,0-10.25,4.589-10.25,10.25
	v19.5c0,5.661,4.589,10.25,10.25,10.25h19.5c5.661,0,10.25-4.589,10.25-10.25v-19.5C105,311.587,100.411,306.998,94.75,306.998z
	 M94.75,375.998h-19.5c-5.661,0-10.25,4.589-10.25,10.25v19.5c0,5.661,4.589,10.25,10.25,10.25h19.5
	c5.661,0,10.25-4.589,10.25-10.25v-19.5C105,380.587,100.411,375.998,94.75,375.998z"/>
<path d="M240.469,0H133.691c-9.488,0-17.207,7.719-17.207,17.207v186.641h-79.57c-9.649,0-17.5,7.851-17.5,17.5v21.813H7.5
	c-4.143,0-7.5,3.358-7.5,7.5s3.357,7.5,7.5,7.5h11.914v159.727H7.5c-4.143,0-7.5,3.358-7.5,7.5s3.357,7.5,7.5,7.5h11.914v27.203
	v3.347v39.121c0,4.142,3.357,7.5,7.5,7.5s7.5-3.358,7.5-7.5v-21.821c0.819,0.118,1.649,0.2,2.5,0.2h11.621v21.621
	c0,4.142,3.357,7.5,7.5,7.5s7.5-3.358,7.5-7.5v-21.621h14.121v21.621c0,4.142,3.357,7.5,7.5,7.5s7.5-3.358,7.5-7.5v-21.621h14.121
	v21.621c0,4.142,3.357,7.5,7.5,7.5s7.5-3.358,7.5-7.5v-21.621h11.621c0.851,0,1.681-0.082,2.5-0.2v21.821c0,4.142,3.357,7.5,7.5,7.5
	s7.5-3.358,7.5-7.5v-39.121v-3.347V338.584l25.689,19.761c0.944,0.726,1.951,1.328,2.992,1.832v9.761
	c-11.201,3.256-19.414,13.605-19.414,25.843s8.213,22.586,19.414,25.843v12.985c0,4.142,3.357,7.5,7.5,7.5s7.5-3.358,7.5-7.5
	v-12.985c11.201-3.256,19.414-13.605,19.414-25.843s-8.213-22.586-19.414-25.843v-9.761c1.042-0.504,2.048-1.106,2.992-1.832
	l53.389-41.068c4.204-3.234,6.715-8.333,6.715-13.639V75.45c0-4.142-3.357-7.5-7.5-7.5s-7.5,3.358-7.5,7.5v228.188
	c0,0.681-0.322,1.334-0.861,1.749l-53.389,41.068c-0.791,0.61-1.9,0.61-2.691,0l-34.836-26.797v-98.311
	c0-9.649-7.851-17.5-17.5-17.5h-1.914V17.207c0-1.217,0.99-2.207,2.207-2.207h106.777c1.217,0,2.207,0.99,2.207,2.207v29.121
	c0,4.142,3.357,7.5,7.5,7.5s7.5-3.358,7.5-7.5V17.207C257.676,7.719,249.957,0,240.469,0z M198.994,395.781
	c0,6.569-5.345,11.914-11.914,11.914s-11.914-5.345-11.914-11.914s5.345-11.914,11.914-11.914S198.994,389.212,198.994,395.781z
	 M135.898,221.348V460.09v3.347c0,1.378-1.121,2.5-2.5,2.5H36.914c-1.379,0-2.5-1.122-2.5-2.5v-3.347V221.348
	c0-1.378,1.121-2.5,2.5-2.5h87.061c0.003,0,0.006,0,0.01,0s0.006,0,0.01,0h9.404C134.777,218.848,135.898,219.969,135.898,221.348z
	 M187.08,38.828c-17.517,0-31.768,14.251-31.768,31.768s14.251,31.768,31.768,31.768s31.768-14.251,31.768-31.768
	S204.597,38.828,187.08,38.828z M187.08,87.363c-9.246,0-16.768-7.522-16.768-16.768s7.521-16.768,16.768-16.768
	s16.768,7.522,16.768,16.768S196.326,87.363,187.08,87.363z M218.848,157.959c0-17.517-14.251-31.768-31.768-31.768
	s-31.768,14.251-31.768,31.768s14.251,31.768,31.768,31.768S218.848,175.476,218.848,157.959z M187.08,174.727
	c-9.246,0-16.768-7.522-16.768-16.768s7.521-16.768,16.768-16.768s16.768,7.522,16.768,16.768S196.326,174.727,187.08,174.727z
	 M187.08,213.555c4.143,0,7.5,3.358,7.5,7.5v87.363c0,4.142-3.357,7.5-7.5,7.5s-7.5-3.358-7.5-7.5v-87.363
	C179.58,216.913,182.938,213.555,187.08,213.555z M460.01,296.504c4.143,0,7.5-3.358,7.5-7.5V257.57
	c24.793-1.559,44.49-22.215,44.49-47.395v-17.07c0-25.562-20.299-46.462-45.623-47.452v-11.962c0-9.488-7.719-17.207-17.207-17.207
	h-7.061V7.5c0-4.142-3.357-7.5-7.5-7.5s-7.5,3.358-7.5,7.5v108.984h-7.061c-9.488,0-17.207,7.719-17.207,17.207v11.962
	c-3.179,0.124-6.277,0.563-9.268,1.286v-32.661V65.742V7.5c0-4.142-3.357-7.5-7.5-7.5s-7.5,3.358-7.5,7.5v41.193
	c-0.724-0.094-1.458-0.158-2.207-0.158h-69.891c-0.75,0-1.483,0.064-2.207,0.158V7.5c0-4.142-3.357-7.5-7.5-7.5s-7.5,3.358-7.5,7.5
	v58.242v48.535v203.848c0,4.142,3.357,7.5,7.5,7.5s7.5-3.358,7.5-7.5V114.277V65.742c0-1.217,0.99-2.207,2.207-2.207h69.891
	c1.217,0,2.207,0.99,2.207,2.207v48.535v38.828c0,0.121,0.012,0.239,0.018,0.359c-12.865,8.508-21.374,23.097-21.374,39.641v17.07
	c0,16.545,8.508,31.134,21.374,39.642c-0.006,0.12-0.018,0.238-0.018,0.359v91.511h-21.621h-9.707c-4.143,0-7.5,3.358-7.5,7.5
	s3.357,7.5,7.5,7.5h2.207v31.594h-42.977c-1.217,0-2.207-0.99-2.207-2.207v-38.828c0-4.142-3.357-7.5-7.5-7.5s-7.5,3.358-7.5,7.5
	v38.828c0,9.488,7.719,17.207,17.207,17.207h42.977V497h-2.207c-4.143,0-7.5,3.358-7.5,7.5s3.357,7.5,7.5,7.5h9.707h112.661H504.5
	c4.143,0,7.5-3.358,7.5-7.5s-3.357-7.5-7.5-7.5h-27.386V356.688H504.5c4.143,0,7.5-3.358,7.5-7.5s-3.357-7.5-7.5-7.5h-34.886h-76.04
	v-85.345c2.634,0.636,5.352,1.053,8.135,1.228v31.433c0,4.142,3.357,7.5,7.5,7.5s7.5-3.358,7.5-7.5v-31.328h10.4v31.328
	c0,4.142,3.357,7.5,7.5,7.5s7.5-3.358,7.5-7.5v-31.328h10.4v31.328C452.51,293.146,455.867,296.504,460.01,296.504z M462.114,497
	h-97.661V356.688h97.661V497z M420.049,131.484h29.121c1.217,0,2.207,0.99,2.207,2.207v11.914h-33.535v-11.914
	C417.842,132.475,418.832,131.484,420.049,131.484z M372.219,193.105c0-17.92,14.579-32.5,32.5-32.5h5.613c0.003,0,0.006,0,0.01,0
	s0.006,0,0.01,0h48.516c0.003,0,0.006,0,0.01,0s0.006,0,0.01,0h5.613c17.921,0,32.5,14.58,32.5,32.5v17.07
	c0,17.92-14.579,32.5-32.5,32.5H404.72c-17.921,0-32.5-14.58-32.5-32.5v-17.07H372.219z M107.217,444.316c0,4.142-3.357,7.5-7.5,7.5
	H70.596c-4.143,0-7.5-3.358-7.5-7.5s3.357-7.5,7.5-7.5h29.121C103.859,436.816,107.217,440.174,107.217,444.316z M413.284,461.523
	c17.517,0,31.768-14.251,31.768-31.768s-14.251-31.768-31.768-31.768s-31.768,14.251-31.768,31.768S395.768,461.523,413.284,461.523
	z M413.284,412.988c9.246,0,16.768,7.522,16.768,16.768s-7.521,16.768-16.768,16.768s-16.768-7.522-16.768-16.768
	S404.038,412.988,413.284,412.988z M94.57,232.969H75.742c-9.649,0-17.5,7.851-17.5,17.5v18.828c0,9.649,7.851,17.5,17.5,17.5H94.57
	c9.649,0,17.5-7.851,17.5-17.5v-18.828C112.07,240.819,104.22,232.969,94.57,232.969z M97.07,269.297c0,1.378-1.121,2.5-2.5,2.5
	H75.742c-1.379,0-2.5-1.122-2.5-2.5v-18.828c0-1.378,1.121-2.5,2.5-2.5H94.57c1.379,0,2.5,1.122,2.5,2.5V269.297z M94.57,300.918
	H75.742c-9.649,0-17.5,7.851-17.5,17.5v18.828c0,9.649,7.851,17.5,17.5,17.5H94.57c9.649,0,17.5-7.851,17.5-17.5v-18.828
	C112.07,308.769,104.22,300.918,94.57,300.918z M97.07,337.246c0,1.378-1.121,2.5-2.5,2.5H75.742c-1.379,0-2.5-1.122-2.5-2.5
	v-18.828c0-1.378,1.121-2.5,2.5-2.5H94.57c1.379,0,2.5,1.122,2.5,2.5V337.246z M94.57,368.867H75.742c-9.649,0-17.5,7.851-17.5,17.5
	v18.828c0,9.649,7.851,17.5,17.5,17.5H94.57c9.649,0,17.5-7.851,17.5-17.5v-18.828C112.07,376.718,104.22,368.867,94.57,368.867z
	 M97.07,405.195c0,1.378-1.121,2.5-2.5,2.5H75.742c-1.379,0-2.5-1.122-2.5-2.5v-18.828c0-1.378,1.121-2.5,2.5-2.5H94.57
	c1.379,0,2.5,1.122,2.5,2.5V405.195z M396.38,376.367c0-4.142,3.357-7.5,7.5-7.5h18.808c4.143,0,7.5,3.358,7.5,7.5
	s-3.357,7.5-7.5,7.5H403.88C399.737,383.867,396.38,380.509,396.38,376.367z M430.188,483.145c0,4.142-3.357,7.5-7.5,7.5H403.88
	c-4.143,0-7.5-3.358-7.5-7.5s3.357-7.5,7.5-7.5h18.808C426.83,475.645,430.188,479.002,430.188,483.145z M324.519,85.156
	c0-4.142,3.357-7.5,7.5-7.5h18.807c4.143,0,7.5,3.358,7.5,7.5s-3.357,7.5-7.5,7.5h-18.807
	C327.876,92.656,324.519,89.298,324.519,85.156z M324.519,114.277c0-4.142,3.357-7.5,7.5-7.5h18.807c4.143,0,7.5,3.358,7.5,7.5
	s-3.357,7.5-7.5,7.5h-18.807C327.876,121.777,324.519,118.419,324.519,114.277z M324.519,143.398c0-4.142,3.357-7.5,7.5-7.5h18.807
	c4.143,0,7.5,3.358,7.5,7.5s-3.357,7.5-7.5,7.5h-18.807C327.876,150.898,324.519,147.541,324.519,143.398z M324.519,259.883
	c0-4.142,3.357-7.5,7.5-7.5h18.807c4.143,0,7.5,3.358,7.5,7.5s-3.357,7.5-7.5,7.5h-18.807
	C327.876,267.383,324.519,264.025,324.519,259.883z M324.519,289.004c0-4.142,3.357-7.5,7.5-7.5h18.807c4.143,0,7.5,3.358,7.5,7.5
	s-3.357,7.5-7.5,7.5h-18.807C327.876,296.504,324.519,293.146,324.519,289.004z M324.519,318.125c0-4.142,3.357-7.5,7.5-7.5h18.807
	c4.143,0,7.5,3.358,7.5,7.5s-3.357,7.5-7.5,7.5h-18.807C327.876,325.625,324.519,322.267,324.519,318.125z"/>
<g>
</g>
<g>
</g>
<g>
</g>
<g>
</g>
<g>
</g>
<g>
</g>
<g>
</g>
<g>
</g>
<g>
</g>
<g>
</g>
<g>
</g>
<g>
</g>
<g>
</g>
<g>
</g>
<g>
</g>
</svg>
