<svg viewBox="0 0 512 512" xmlns="http://www.w3.org/2000/svg"><g id="Fill_out_line" data-name="Fill out line"><path d="m112 432h280v32h-280z" fill="#f09b22"/><path d="m400 275.84v140.16h-288v-140.16a97.05715 97.05715 0 0 1 87.4-96.58l1.29-.13 7.31-.7301 24-2.3999h48l31.31 3.13.69.07.6.06006a97.05715 97.05715 0 0 1 87.4 96.57994z" fill="#fdca77"/><path d="m311.31 179.13a51.33474 51.33474 0 0 1 -14.34 27.9 57.94113 57.94113 0 0 1 -81.93994 0 51.40457 51.40457 0 0 1 -14.34-27.9l7.31-.7301 23.99994-2.3999h48z" fill="#fab53f"/><path d="m312 179.2v21.2a95.602 95.602 0 0 1 -95.6 95.6h-8.4v-117.6001l24-2.3999h48l31.31 3.13z" fill="#fab53f"/><path d="m312 200.3999v61.66016a81.94113 81.94113 0 0 1 -81.94 81.93994h-30.06v-48h16.4a95.598 95.598 0 0 0 95.6-95.6001z" fill="#fab53f"/><path d="m312 262.06006v129.93994h-168v-32h40v-16h46.06a81.94453 81.94453 0 0 0 81.94-81.93994z" fill="#fab53f"/><path d="m311.31 179.13a51.33474 51.33474 0 0 1 -14.34 27.9 57.94113 57.94113 0 0 1 -81.93994 0 51.29893 51.29893 0 0 1 -7.03-8.78v-19.8501l23.99994-2.3999h48z" fill="#fca529"/><path d="m416 416a31.99119 31.99119 0 0 1 -32 32h-248v-32h120l120-32h8a31.99576 31.99576 0 0 1 32 32z" fill="#fca529"/><path d="m312 376-8-8h-24l-16 10.66992-8 5.33008h-128a32 32 0 1 0 0 64h8l120-28.8 8-1.91992 72-17.28008v-24z" fill="#fab53f"/><path d="m208 296v32a56 56 0 0 1 -56 56h-8v-24a16 16 0 0 1 16-16 16 16 0 0 0 16-16v-32z" fill="#f09b22"/><path d="m256 24a24 24 0 0 1 24 24v16a0 0 0 0 1 0 0h-48a0 0 0 0 1 0 0v-16a24 24 0 0 1 24-24z" fill="#fdca77"/><path d="m256 208a57.94108 57.94108 0 0 1 -40.97053-16.97055 51.31363 51.31363 0 0 1 -15.02947-36.28426v-50.74519a16 16 0 0 1 16-16h80a16 16 0 0 1 16 16v50.74521a51.31363 51.31363 0 0 1 -15.02942 36.28423 57.94108 57.94108 0 0 1 -40.97058 16.97056z" fill="#fdca77"/><path d="m200 104a48 48 0 0 1 48-48h16.0001a48 48 0 0 1 48 48 16 16 0 0 0 -16-16h-80.0001a16 16 0 0 0 -16 16z" fill="#fab53f"/><rect fill="#fab53f" height="88" rx="16" width="32" x="312" y="96"/><rect fill="#fab53f" height="88" rx="16" width="32" x="168" y="96"/><path d="m384 408h-48v-56l8-8h32l8 8h8l13.18824 8.79216a12.99412 12.99412 0 0 1 3.60392 18.0196 12.99412 12.99412 0 0 1 -20 1.98039l-4.79216-4.79215z" fill="#fab53f"/><path d="m208 296h-32l-8-16v-64h48v32l6.70179-3.35089a10.39572 10.39572 0 0 1 13.94732 4.6491 10.3957 10.3957 0 0 1 -1.94733 12l-18.70178 18.70179z" fill="#fab53f"/><g fill="#fdca77"><path d="m91.09327 472.01a42.94634 42.94634 0 0 1 -3.09 15.99h-48a43.083 43.083 0 0 1 20.89-54.61c1.01-.5 2.05-.96008 3.11-1.39a43.10593 43.10593 0 0 1 27.09 40.01z"/><path d="m420.90889 472.01a42.94615 42.94615 0 0 0 3.09 15.99h48a43.083 43.083 0 0 0 -20.89-54.61c-1.01-.5-2.05-.96008-3.11-1.39a43.10592 43.10592 0 0 0 -27.09 40.01z"/><path d="m139.09219 472.01a42.94615 42.94615 0 0 1 -3.09 15.99h-48a43.083 43.083 0 0 1 20.89-54.61c1.01-.5 2.05-.96008 3.11-1.39a43.10592 43.10592 0 0 1 27.09 40.01z"/><path d="m372.90889 472.01a42.94615 42.94615 0 0 0 3.09 15.99h48a43.083 43.083 0 0 0 -20.89-54.61c-1.01-.5-2.05-.96008-3.11-1.39a43.10592 43.10592 0 0 0 -27.09 40.01z"/><path d="m187.09111 472.01a42.94615 42.94615 0 0 1 -3.09 15.99h-48a43.083 43.083 0 0 1 20.89-54.61c1.01-.5 2.05-.96008 3.11-1.39a43.10592 43.10592 0 0 1 27.09 40.01z"/><path d="m324.90889 472.01a42.94615 42.94615 0 0 0 3.09 15.99h48a43.083 43.083 0 0 0 -20.89-54.61c-1.01-.5-2.05-.96008-3.11-1.39a43.10592 43.10592 0 0 0 -27.09 40.01z"/><path d="m235.09 472.01a42.94615 42.94615 0 0 1 -3.09 15.99h-48a43.083 43.083 0 0 1 20.89-54.61c1.01-.5 2.05-.96008 3.11-1.39a43.10592 43.10592 0 0 1 27.09 40.01z"/><path d="m276.90889 472.01a42.94615 42.94615 0 0 0 3.09 15.99h48a43.083 43.083 0 0 0 -20.89-54.61c-1.01-.5-2.05-.96008-3.11-1.39a43.10592 43.10592 0 0 0 -27.09 40.01z"/><path d="m256 432a43.08127 43.08127 0 0 0 -24 56h48a43.08127 43.08127 0 0 0 -24-56z"/></g><path d="m128 392h120v16h16v-19.71875l18.42236-12.28125h18.26416l5.65674 5.65674a7.99877 7.99877 0 0 0 5.65674 2.34326h16v9.69263l-49.86719 11.968 3.73438 15.5586 46.41546-11.13965a7.99605 7.99605 0 0 0 7.71735 5.92042h48a7.99977 7.99977 0 0 0 8-8v-14.6239a24.03756 24.03756 0 0 1 16 22.6239h16a39.8744 39.8744 0 0 0 -12.13116-28.65454 20.99231 20.99231 0 0 0 -2.24286-33.20972l-1.626-1.084v-77.21629a105.02543 105.02543 0 0 0 -59.85-94.82239 23.8515 23.8515 0 0 0 3.85002-13.01306v-56a23.98488 23.98488 0 0 0 -33.75275-21.9209 56.23946 56.23946 0 0 0 -30.24725-36.66479v-5.41431a32 32 0 0 0 -64 0v5.41431a56.23946 56.23946 0 0 0 -30.24725 36.66479 23.98488 23.98488 0 0 0 -33.75275 21.9209v56a23.8517 23.8517 0 0 0 3.85 13.01318 105.02508 105.02508 0 0 0 -59.85 94.82227v108.1864a39.96212 39.96212 0 0 0 -16 31.97815h16a24.0275 24.0275 0 0 1 24-24zm80-288a8.00917 8.00917 0 0 1 8-8h80a8.00917 8.00917 0 0 1 8 8v50.74512a43.03162 43.03162 0 0 1 -12.686 30.62744 49.94168 49.94168 0 0 1 -70.62792 0 43.03162 43.03162 0 0 1 -12.68608-30.62744zm8 98.47534a65.92842 65.92842 0 0 0 86.62744-5.7893c.47083-.47071.91962-.95728 1.37256-1.44092v5.15674a87.59292 87.59292 0 0 1 -82.99414 87.4746l1.56885-3.13769 17.78369-17.78369a18.39694 18.39694 0 0 0 -16.3584-31.09766v-19.85742a7.99977 7.99977 0 0 0 -8-8zm0 125.52466v-24h.40186a102.91788 102.91788 0 0 0 73.25488-30.34326 104.46136 104.46136 0 0 0 14.34326-17.87769v6.28a73.94074 73.94074 0 0 1 -73.94092 73.94095h-14.5769a64.24516 64.24516 0 0 0 .51782-8zm-8-104v16h-8a7.99924 7.99924 0 0 0 -7.15527 4.42236l-8 16 14.31054 7.15528 5.78907-11.57764h11.05566v-.01465a7.98429 7.98429 0 0 0 3.57812-.83008l6.70118-3.35058a2.39543 2.39543 0 0 1 3.21435 1.07226 2.39132 2.39132 0 0 1 -.44873 2.76465l-18.70166 18.70166a7.99469 7.99469 0 0 0 -1.49853 2.0791l-5.78907 11.57764h-22.11132l-4.94434-9.88867v-54.11133zm-24 104v-24h16v24a48.05436 48.05436 0 0 1 -48 48v-16a8.00917 8.00917 0 0 1 8-8 24.02687 24.02687 0 0 0 24-24zm96 32a7.996 7.996 0 0 0 -4.43751 1.34375l-21.98437 14.65625h-59.3139a64.25954 64.25954 0 0 0 17.04907-24h18.74579a89.35089 89.35089 0 0 0 63.59766-26.34326 90.92155 90.92155 0 0 0 10.34326-12.39295v46.73621zm64 40v-44.68652l3.31348-3.31348h25.373l5.65674 5.65674a7.99877 7.99877 0 0 0 5.65678 2.34326h5.57764l11.17285 7.44824a5.00056 5.00056 0 0 1 1.38525 6.92627 4.99459 4.99459 0 0 1 -7.687.76074l-4.792-4.792a7.9775 7.9775 0 0 0 -5.65674-2.32372v-.01953h-12.686l-5.65722-5.65674-11.31348 11.31348 8 8a7.99877 7.99877 0 0 0 5.6567 2.34326h8v16zm34.46338-171.36426a88.96407 88.96407 0 0 1 13.53662 47.19971v68.16455h-4.68652l-5.65674-5.65674a7.99877 7.99877 0 0 0 -5.65674-2.34326h-24v-64h-16v68.68652l-5.65674 5.65674a7.99877 7.99877 0 0 0 -2.34326 5.65674v16h-8v-177.3761a23.87355 23.87355 0 0 0 11.97333 1.04114 89.1502 89.1502 0 0 1 46.49005 36.9707zm-50.46338-124.63574a8.00917 8.00917 0 0 1 8 8v56a8 8 0 0 1 -16 0v-56a8.00917 8.00917 0 0 1 8-8zm-88-56a16 16 0 0 1 32 0v.58057a56.18545 56.18545 0 0 0 -8-.58057h-16a56.18545 56.18545 0 0 0 -8 .58057zm8 16h16a39.962 39.962 0 0 1 31.97815 16h-79.9563a39.962 39.962 0 0 1 31.97815-16zm-72 48a8 8 0 0 1 16 0v56a8 8 0 0 1 -16 0zm-56 163.83545a89.00646 89.00646 0 0 1 60.026-84.17045 23.90757 23.90757 0 0 0 19.974-5.79562v22.13062h-32a7.99977 7.99977 0 0 0 -8 8v59.91113a61.75486 61.75486 0 0 0 -24 48.93311v3.15576h16v-3.15576a45.78147 45.78147 0 0 1 13.32007-32.31592l2.67993 5.35986v30.11182a8.00917 8.00917 0 0 1 -8 8 24.02687 24.02687 0 0 0 -24 24v16h-8a40.02741 40.02741 0 0 0 -8 .80493z"/><path d="m256 160h16v-16h-8v-24h-16v32a7.99977 7.99977 0 0 0 8 8z"/><path d="m240 168h32v16h-32z"/><path d="m272 120h24v16h-24z"/><path d="m216 120h24v16h-24z"/><path d="m478.95117 451.87793a50.74741 50.74741 0 0 0 -27.98-27.30566 8.00243 8.00243 0 0 0 -5.94238 0 50.77286 50.77286 0 0 0 -21.04924 15.67173 50.74772 50.74772 0 0 0 -21.00836-15.67175 8.00243 8.00243 0 0 0 -5.94238 0 50.77286 50.77286 0 0 0 -21.04926 15.67175 50.74772 50.74772 0 0 0 -21.00836-15.67175 8.00243 8.00243 0 0 0 -5.94238 0 50.77286 50.77286 0 0 0 -21.04926 15.67175 50.74772 50.74772 0 0 0 -21.00836-15.67175 8.00243 8.00243 0 0 0 -5.94238 0 50.77286 50.77286 0 0 0 -21.04926 15.67175 50.74772 50.74772 0 0 0 -21.00836-15.67175 8.00243 8.00243 0 0 0 -5.94238 0 50.74744 50.74744 0 0 0 -20.99988 15.661 50.68648 50.68648 0 0 0 -21.05774-15.661 8.00243 8.00243 0 0 0 -5.94238 0 50.74887 50.74887 0 0 0 -21.00025 15.66149 50.69046 50.69046 0 0 0 -21.05737-15.66149 8.00243 8.00243 0 0 0 -5.94238 0 50.77424 50.77424 0 0 0 -21.02 15.635 50.689 50.689 0 0 0 -21.03766-15.635 8.00243 8.00243 0 0 0 -5.94238 0 50.74807 50.74807 0 0 0 -21 15.66113 50.68637 50.68637 0 0 0 -21.05762-15.66113 8.00243 8.00243 0 0 0 -5.94238 0 51.08092 51.08092 0 0 0 -28.45654 66.39892 8.00024 8.00024 0 0 0 7.42777 5.02883h432a8.00024 8.00024 0 0 0 7.42773-5.02881 50.74852 50.74852 0 0 0 -.47656-39.09326zm-78.95312-11.10107a35.14883 35.14883 0 0 1 18.15753 39.22314h-31.71417a50.94249 50.94249 0 0 0 -1.83857-23.63794 34.77167 34.77167 0 0 1 15.39521-15.5852zm-48 0a35.14883 35.14883 0 0 1 18.15753 39.22314h-31.71417a50.94249 50.94249 0 0 0 -1.83857-23.63794 34.77167 34.77167 0 0 1 15.39521-15.5852zm-48 0a35.14883 35.14883 0 0 1 18.15753 39.22314h-31.71417a50.94249 50.94249 0 0 0 -1.83857-23.63794 34.77167 34.77167 0 0 1 15.39521-15.5852zm-47.998.001a35.15077 35.15077 0 0 1 18.15541 39.22214h-36.31092a35.15077 35.15077 0 0 1 18.15546-39.22217zm-47.99658-.00146a34.63787 34.63787 0 0 1 15.395 15.582 50.94236 50.94236 0 0 0 -1.83988 23.6416h-31.71405a35.15019 35.15019 0 0 1 18.15888-39.22363zm-48 0a34.64146 34.64146 0 0 1 15.395 15.582 50.9426 50.9426 0 0 0 -1.83988 23.6416h-31.71405a35.15019 35.15019 0 0 1 18.15888-39.22363zm-48 0a34.63717 34.63717 0 0 1 15.38086 15.55249 50.5633 50.5633 0 0 0 -1.83833 23.67111h-31.70146a35.15019 35.15019 0 0 1 18.15888-39.22363zm-48 0a34.63787 34.63787 0 0 1 15.395 15.582 50.94236 50.94236 0 0 0 -1.83988 23.6416h-31.71875a35.15521 35.15521 0 0 1 18.16358-39.22363zm402.15669 39.2236h-31.71875a50.94249 50.94249 0 0 0 -1.83857-23.63794 34.77167 34.77167 0 0 1 15.39521-15.5852 35.15457 35.15457 0 0 1 18.16211 39.22314z"/></g></svg>
