<?xml version="1.0"?>
<svg xmlns="http://www.w3.org/2000/svg" viewBox="0 0 512 512"><g id="Fill_out_line" data-name="Fill out line"><path d="M424,416l-56,72H232l-21.7028-3.1004A225.79127,225.79127,0,0,1,64.00005,400.00007L64,400H424Z" style="fill:#ab693d"/><path d="M412.78,278.45,408,288l-89.51-6.39014L296,280V114.66992L330.8999,102.26,416,72A238.341,238.341,0,0,1,412.78,278.45Z" style="fill:#e04446"/><path d="M337.59009,169.33008A339.58922,339.58922,0,0,1,318.49,281.60986L296,280V114.66992L330.8999,102.26A339.64821,339.64821,0,0,1,337.59009,169.33008Z" style="fill:#d6323f"/><path d="M321.59009,169.33008a339.58868,339.58868,0,0,1-30.44995,140.56006L288,316.80005,182.45,295.68994,168,292.80005V82.66992l18.83008-6.27978L296,40A339.61524,339.61524,0,0,1,321.59009,169.33008Z" style="fill:#e04446"/><path d="M192.43994,260.7l-9.99,34.99L168,292.80005V82.66992l18.83008-6.27978,4.5,15.00976A300.69742,300.69742,0,0,1,192.43994,260.7Z" style="fill:#d6323f"/><path d="M56,136V280l112,8,9.05464-31.69125A285.21173,285.21173,0,0,0,176,96.00008L176,96Z" style="fill:#e04446"/><rect x="328" y="352" width="64" height="40" style="fill:#8c5428"/><path d="M24,368v48l82.55726,8.84542a1327.68835,1327.68835,0,0,0,282.88548,0L472,416l16-104-96,8v56l-.00014,0a1327.68858,1327.68858,0,0,1-288.06135.56482Z" style="fill:#da9065"/><polygon points="488 312 392 320 392 376 479.377 368.052 488 312" style="fill:#ab693d"/><path d="M493.84961,306.543a8.009,8.009,0,0,0-6.51367-2.51563l-96,8A8.00025,8.00025,0,0,0,384,320v24H368V293.16309l63.42969,4.53027,1.14062-15.959-12.08178-.8628a245.844,245.844,0,0,0,15.16455-38.75464l20.68774-.6687-.51758-15.99219-15.96338.51587a247.1237,247.1237,0,0,0,5.71582-41.25146l18.06006-2.48511-2.18164-15.85156-15.54785,2.1394a246.79693,246.79693,0,0,0-3.89258-40.17993l15.96778-3.90381-3.79883-15.543-15.51636,3.79346a246.86938,246.86938,0,0,0-11.8916-36.00928L441.3291,71.544l-5.32422-15.0879L368,80.45752V66.667H352V275.98l-23.42969-1.67334-1.14062,15.959L352,292.02051V344H328a8.00039,8.00039,0,0,0-8,8v21.99561q-43.94128,2.48217-88,2.0371V313.75854l78.43066,15.6858,3.13868-15.68946-14.146-2.8291a347.96038,347.96038,0,0,0,18.59473-52.60889l17.41162,1.24463,1.14062-15.959-14.76513-1.05542a346.525,346.525,0,0,0,7.418-57.43579l15.25733-.918-.96094-15.9707-13.95508.8396a347.10219,347.10219,0,0,0-4.70678-57.01978l12.67358-2.47217-3.0625-15.70312-12.59424,2.45654a346.99925,346.99925,0,0,0-15.31616-51.40967l7.97192-2.65722-5.06054-15.17969L232,52.90015V16H216V58.2334l-18.53027,6.17676,5.06054,15.17968L216,75.1001V294.24146l-14.43066-2.886-3.13868,15.68945L216,310.55859v65.21729q-16.00709-.35523-32-1.09473V344a8.00039,8.00039,0,0,0-8-8H128V293.16309l55.42969,3.959,1.14062-15.959-6.17041-.44068,6.34717-22.21557q1.57068-5.49756,2.9165-11.03516l12.60791-.42773-.543-15.99024-8.605.292a292.78146,292.78146,0,0,0,4.30664-34.37988l13.65087-1.8623L206.919,179.25l-10.88526,1.48486a292.205,292.205,0,0,0-1.5896-33.27856l15.39478-3.636-3.67774-15.57226-13.83325,3.26733a293.80707,293.80707,0,0,0-6.54248-30.3435l8.74487-2.915-5.06054-15.17969L128,103.56689V88H112v20.90015l-74.53027,24.843,5.06054,15.17969L48,147.09961V165.604l-9.83887,2.32373L41.83887,183.5,48,182.04492v18.88526L38.919,202.169l2.1621,15.85351L48,217.07861v19.12232l-8.27148.28052.543,15.99023L48,252.20947v19.19922l-7.42969-.53076-1.14062,15.959L112,292.02026V336H48a8.00039,8.00039,0,0,0-8,8v17.6687l-15.14746-1.6228A8.00051,8.00051,0,0,0,16,368v48a8.0003,8.0003,0,0,0,7.14746,7.9541l57.24561,6.13355a232.16379,232.16379,0,0,0,128.772,62.73169l21.70312,3.10058A8.12493,8.12493,0,0,0,232,496H368a7.998,7.998,0,0,0,6.31445-3.08887l49.55127-63.70825,48.98682-5.24878a7.99842,7.99842,0,0,0,7.05469-6.7373l16-104A8.0015,8.0015,0,0,0,493.84961,306.543ZM478.5498,320.81543l-6.1289,39.83643L400,367.2395V327.36133Zm-72.92968-45.94336-2.38379,4.76733L368,277.1228V244.30347l50.7334-1.63965A229.25527,229.25527,0,0,1,405.62012,274.87207Zm17.70459-48.36572L368,228.29468V195.395l61.42065-8.45166A231.5944,231.5944,0,0,1,423.32471,226.50635Zm6.58886-55.78247L368,179.24316v-32.8059l58.43359-14.2854A230.49053,230.49053,0,0,1,429.91357,170.72388ZM411.66919,82.01221a230.72693,230.72693,0,0,1,11.45752,34.47656L368,129.96558v-32.541ZM336,360h48v8.82031q-23.9513,2.52906-48,4.17334Zm-52.14453-53.416-.51172,1.126L232,297.44141v-45.2732l69.76685,4.98706A332.45481,332.45481,0,0,1,283.85547,306.584Zm21.83594-65.18872L232,236.12769v-45.167l81.14453-4.88208A330.3127,330.3127,0,0,1,305.69141,241.39526Zm7.8684-71.37011L232,174.93213V130.15527l77.15015-15.04882A331.23729,331.23729,0,0,1,313.55981,170.02515Zm-7.39624-70.63672L232,113.85474V69.7666l59.35669-19.78515A331.09012,331.09012,0,0,1,306.16357,99.38843ZM168,373.83789q-8.00391-.46911-16-1.03662V352h16Zm-64-5.31226-16-1.71411V352h16ZM120,352h16v19.57056q-8.005-.665-16-1.42578Zm49.3623-97.88965-7.2705,25.44727L128,277.12256v-27.627l43.01489-1.45923C170.48462,250.0647,169.93945,252.09033,169.3623,254.11035Zm5.36084-22.20849L128,233.48706V206.16479l51.22339-6.988A276.96681,276.96681,0,0,1,174.72314,231.90186Zm5.27124-48.97876L128,190.01636v-26.8667l50.74463-11.98511A276.24682,276.24682,0,0,1,179.99438,182.9231Zm-9.41284-76.68335a277.7411,277.7411,0,0,1,6.13135,28.96362L128,146.70874V120.43335ZM64,141.76636l48-15.99976v24.72119L64,161.825Zm0,36.49951,48-11.33716V192.199l-48,6.54834Zm0,36.62988,48-6.54809v25.68213L64,235.6582Zm0,57.65552V251.66675l48-1.62842v25.94141ZM56,352H72v13.09717l-16-1.71411ZM364.08691,480H232.56836l-21.14063-3.02051A216.11129,216.11129,0,0,1,108.1875,433.05737,1336.3539,1336.3539,0,0,0,248,440.3877a1336.191,1336.191,0,0,0,142.29492-7.5879l11.45923-1.22778Zm24.50293-63.1084a1322.22063,1322.22063,0,0,1-281.17968,0L32,408.81152v-31.9082l71.08594,7.61523a1337.86906,1337.86906,0,0,0,289.72925-.56l77.09887-7.01319-4.88574,31.75586Z"/><circle cx="456" cy="344" r="8"/><circle cx="424" cy="344" r="8"/></g></svg>
