<?xml version="1.0" encoding="iso-8859-1"?>
<!-- Generator: Adobe Illustrator 19.0.0, SVG Export Plug-In . SVG Version: 6.00 Build 0)  -->
<svg version="1.1" id="Capa_1" xmlns="http://www.w3.org/2000/svg" xmlns:xlink="http://www.w3.org/1999/xlink" x="0px" y="0px"
	 viewBox="0 0 512 512" style="enable-background:new 0 0 512 512;" xml:space="preserve">
<path style="fill:#B4826E;" d="M187.818,26.914v77.657l-9.707,281.504h-19.414l-0.306-8.88l-18.446,4.943l-82.235-269.4
	L37.611,37.727C34.836,27.37,40.982,16.725,51.339,13.95l0,0c10.357-2.775,21.002,3.371,23.777,13.728l20.099,75.011l63.119,272.854
	l-9.344-270.971V26.914c0-10.722,8.692-19.414,19.414-19.414l0,0C179.126,7.5,187.818,16.192,187.818,26.914z"/>
<path style="fill:#A06E5F;" d="M75.116,27.678l20.099,75.011L57.71,112.738L37.611,37.727C34.836,27.37,40.982,16.725,51.339,13.95
	S72.341,17.321,75.116,27.678z M168.404,7.5c-10.722,0-19.414,8.692-19.414,19.414v77.656h38.828V26.914
	C187.818,16.192,179.126,7.5,168.404,7.5z"/>
<path style="fill:#FFCF65;" d="M271.235,242.797l15.651,9.4c15.718,9.441,25.334,26.433,25.334,44.768l0,0
	c0,28.842-23.381,52.222-52.222,52.222H193.76c-28.842,0-52.222-23.381-52.222-52.222l0,0c0-18.335,9.616-35.328,25.334-44.768
	l15.651-9.4c5.008-3.008,9.215-7.184,12.259-12.17l0,0c6.576-10.769,18.283-17.338,30.901-17.338h2.392
	c12.618,0,24.325,6.569,30.901,17.338l0,0C262.02,235.613,266.227,239.789,271.235,242.797z"/>
<path style="fill:#FFB450;" d="M416.841,242.797l15.651,9.4c15.718,9.441,25.334,26.433,25.334,44.768l0,0
	c0,28.842-23.381,52.222-52.222,52.222h-66.238c-28.842,0-52.222-23.381-52.222-52.222l0,0c0-18.335,9.616-35.328,25.334-44.768
	l15.651-9.4c5.008-3.008,9.215-7.184,12.259-12.17l0,0c6.576-10.769,18.283-17.338,30.901-17.338h2.392
	c12.618,0,24.325,6.569,30.901,17.338l0,0C407.626,235.613,411.832,239.789,416.841,242.797z"/>
<path style="fill:#D2B48C;" d="M489.939,320.359v86.484c0,11.046-8.954,20-20,20H129.424c-11.046,0-20-8.954-20-20v-86.484
	c0-5.523,4.477-10,10-10H479.94C485.462,310.359,489.939,314.837,489.939,320.359z"/>
<path style="fill:#E6C8A0;" d="M504.5,359.188v57.363c0,11.046-8.954,20-20,20H114.863c-11.046,0-20-8.954-20-20v-57.363
	c0-5.523,4.477-10,10-10H494.5C500.023,349.188,504.5,353.665,504.5,359.188z"/>
<path style="fill:#C5AB8C;" d="M504.5,358.895v58.242c0,10.722-8.692,19.414-19.414,19.414h-28.15
	c10.722,0,19.414-8.692,19.414-19.414v-58.242c0-5.361-4.346-9.707-9.707-9.707h-4.854v-29.121c0-5.361-4.346-9.707-9.707-9.707
	h28.15c5.361,0,9.707,4.346,9.707,9.707v29.121h4.854C500.154,349.188,504.5,353.533,504.5,358.895z"/>
<path style="fill:#FF4B4B;" d="M201.641,423.932v2.912c0,42.888-34.768,77.656-77.656,77.656H85.156
	C42.268,504.5,7.5,469.732,7.5,426.844v-2.912c0-5.361,4.346-9.707,9.707-9.707h174.727
	C197.295,414.225,201.641,418.57,201.641,423.932z"/>
<path style="fill:#C83741;" d="M201.641,423.932v2.912c0,42.888-34.768,77.656-77.656,77.656H91.466
	c42.888,0,77.656-34.768,77.656-77.656v-12.619h22.812C197.295,414.225,201.641,418.57,201.641,423.932z"/>
<path d="M283.7,82.694c-2.929-2.929-2.929-7.678,0-10.606c2.93-2.929,7.678-2.929,10.607,0l15.394,15.394
	c10.269,10.27,15.924,23.923,15.924,38.445c0,14.523-5.655,28.176-15.925,38.444l-1.665,1.666
	c-7.437,7.436-11.531,17.322-11.531,27.838v9.708c0,4.142-3.357,7.5-7.5,7.5s-7.5-3.358-7.5-7.5v-9.708
	c0-14.523,5.655-28.176,15.925-38.444l1.665-1.666c7.437-7.436,11.531-17.322,11.531-27.838s-4.095-20.402-11.531-27.838
	L283.7,82.694z M318.125,211.082c4.143,0,7.5-3.358,7.5-7.5c0-10.516,4.095-20.403,11.53-27.838l1.667-1.667
	c10.269-10.269,15.924-23.922,15.924-38.445v-19.414c0-4.142-3.357-7.5-7.5-7.5s-7.5,3.358-7.5,7.5v19.414
	c0,10.516-4.095,20.403-11.53,27.838l-1.667,1.667c-10.269,10.269-15.924,23.922-15.924,38.445
	C310.625,207.724,313.982,211.082,318.125,211.082z M512,358.895v58.242c0,14.84-12.073,26.914-26.914,26.914H207.392
	C199.412,482.786,165.046,512,123.984,512H85.156C38.201,512,0,473.799,0,426.844v-2.912c0-9.488,7.719-17.207,17.207-17.207h15.041
	c4.143,0,7.5,3.358,7.5,7.5s-3.357,7.5-7.5,7.5H17.207c-1.217,0-2.207,0.99-2.207,2.207v2.912C15,465.528,46.472,497,85.156,497
	h38.828c38.685,0,70.156-31.472,70.156-70.156v-2.912c0-1.217-0.99-2.207-2.207-2.207H62.825c-4.143,0-7.5-3.358-7.5-7.5
	s3.357-7.5,7.5-7.5h24.538v-47.83c0-8.586,6.328-15.702,14.561-16.982v-21.846c0-5.552,2.654-10.484,6.748-13.632L50.214,114.927
	c-0.025-0.082-0.049-0.165-0.071-0.248l-20.1-75.011C26.202,25.333,34.74,10.546,49.074,6.705
	c14.334-3.838,29.121,4.696,32.963,19.031l20.098,75.008c0,0.001,0,0.002,0.001,0.002c0,0.001,0,0.002,0.001,0.003
	c0.022,0.082,0.043,0.165,0.062,0.248l38.858,167.981c1.618-3.045,3.499-5.948,5.615-8.676c-0.106-0.461-0.172-0.939-0.189-1.429
	l-5.312-154.044c-0.004-0.086-0.005-0.172-0.005-0.258V26.914C141.167,12.074,153.24,0,168.081,0s26.914,12.074,26.914,26.914
	v77.657c0,0.086-0.001,0.172-0.005,0.258l-4.077,118.228c8.196-10.738,21.136-17.268,34.769-17.268h2.393
	c15.126,0,29.419,8.02,37.302,20.93c2.404,3.938,5.766,7.274,9.72,9.648l15.65,9.4c3.193,1.917,6.178,4.125,8.943,6.585
	c2.743-2.45,5.723-4.663,8.926-6.586l15.65-9.399c3.954-2.375,7.315-5.711,9.72-9.649c7.883-12.91,22.176-20.929,37.302-20.929
	h2.393c15.126,0,29.419,8.02,37.302,20.93c2.404,3.938,5.766,7.274,9.72,9.648l15.65,9.4c17.871,10.733,28.973,30.351,28.973,51.198
	c0,1.972-0.1,3.939-0.292,5.894h15.199c9.488,0,17.207,7.719,17.207,17.207v21.846C505.672,343.192,512,350.309,512,358.895z
	 M294.644,296.965c0,1.975,0.142,3.946,0.398,5.894h154.891c0.256-1.948,0.393-3.917,0.393-5.894
	c0-15.611-8.313-30.302-21.695-38.339l-15.65-9.4c-6.021-3.615-11.139-8.695-14.8-14.69c-2.548-4.173-6.119-7.563-10.27-9.935
	l11.201,39.201c1.138,3.983-1.169,8.134-5.151,9.272c-0.688,0.197-1.382,0.291-2.064,0.291c-3.264,0-6.267-2.147-7.208-5.441
	l-12.202-42.71l-12.202,42.71c-1.139,3.983-5.293,6.288-9.272,5.151c-3.982-1.138-6.289-5.289-5.151-9.272l11.2-39.2
	c-4.151,2.372-7.721,5.761-10.269,9.934c-3.661,5.996-8.779,11.076-14.8,14.691l-15.65,9.4
	C302.957,266.664,294.644,281.354,294.644,296.965z M186.384,249.227l-15.65,9.4c-13.382,8.037-21.695,22.728-21.695,38.339
	c0,1.977,0.14,3.946,0.396,5.894h130.5c-0.192-1.956-0.291-3.925-0.291-5.894c0-11.993,3.68-23.575,10.203-33.297
	c-2.105-1.887-4.383-3.577-6.823-5.042l-15.65-9.4c-6.021-3.615-11.139-8.695-14.8-14.69c-2.548-4.173-6.119-7.563-10.27-9.935
	l11.201,39.201c1.138,3.983-1.169,8.134-5.151,9.272c-0.688,0.197-1.382,0.291-2.064,0.291c-3.264,0-6.267-2.147-7.208-5.441
	l-12.202-42.71l-12.202,42.71c-1.139,3.983-5.293,6.288-9.272,5.151c-3.982-1.138-6.289-5.289-5.151-9.272l11.2-39.2
	c-4.151,2.372-7.722,5.761-10.269,9.934C197.522,240.531,192.404,245.611,186.384,249.227z M133.499,302.859L89.334,111.942
	l-22.507,6.031l56.436,184.886H133.499z M179.732,112.071H156.43l4.651,134.912c0.635-0.416,1.276-0.823,1.929-1.216l12.368-7.428
	L179.732,112.071z M156.167,26.914v70.157h23.828V26.914c0-6.569-5.345-11.914-11.914-11.914S156.167,20.345,156.167,26.914z
	 M44.531,35.786l18.159,67.766l23.016-6.167L67.549,29.619c-1.7-6.345-8.248-10.125-14.592-8.424
	C46.611,22.895,42.832,29.44,44.531,35.786z M497,358.895c0-1.217-0.99-2.207-2.207-2.207h-86.716c-4.143,0-7.5-3.358-7.5-7.5
	s3.357-7.5,7.5-7.5h74.362v-21.621c0-1.217-0.99-2.207-2.207-2.207H119.131c-1.217,0-2.207,0.99-2.207,2.207v21.621h261.708
	c4.143,0,7.5,3.358,7.5,7.5s-3.357,7.5-7.5,7.5H104.57c-1.217,0-2.207,0.99-2.207,2.207v47.83h89.57
	c9.488,0,17.207,7.719,17.207,17.207v2.912c0,0.74-0.037,1.471-0.056,2.207h276.001c6.569,0,11.914-5.345,11.914-11.914L497,358.895
	L497,358.895z"/>
<g>
</g>
<g>
</g>
<g>
</g>
<g>
</g>
<g>
</g>
<g>
</g>
<g>
</g>
<g>
</g>
<g>
</g>
<g>
</g>
<g>
</g>
<g>
</g>
<g>
</g>
<g>
</g>
<g>
</g>
</svg>
