<?xml version="1.0" encoding="iso-8859-1"?>
<!-- Generator: Adobe Illustrator 19.0.0, SVG Export Plug-In . SVG Version: 6.00 Build 0)  -->
<svg version="1.1" id="Capa_1" xmlns="http://www.w3.org/2000/svg" xmlns:xlink="http://www.w3.org/1999/xlink" x="0px" y="0px"
	 viewBox="0 0 512.001 512.001" style="enable-background:new 0 0 512.001 512.001;" xml:space="preserve">
<path style="fill:#BFEEFC;" d="M473.438,124.277v358.574c0,5.523-4.477,10-10,10H143.691c-5.523,0-10-4.477-10-10V124.277
	c0-5.523,4.477-10,10-10h319.746C468.96,114.277,473.438,118.754,473.438,124.277z"/>
<path style="fill:#A1D7FC;" d="M230.762,211.641v271.211c0,5.523-4.477,10-10,10H46.621c-5.523,0-10-4.477-10-10V211.641
	c0-5.523,4.477-10,10-10h174.141C226.285,201.641,230.762,206.118,230.762,211.641z"/>
<path style="fill:#69AFEB;" d="M95.834,376.367H66.713V201.641h29.121V376.367z"/>
<path style="fill:#736F7B;" d="M47.299,206.494c0-18.764,15.211-33.975,33.975-33.975s33.975,15.211,33.975,33.975
	s-15.211,33.975-33.975,33.975S47.299,225.258,47.299,206.494z M81.273,123.984c8.042,0,14.561-6.519,14.561-14.561
	s-6.519-14.561-14.561-14.561s-14.561,6.519-14.561,14.561C66.713,117.465,73.232,123.984,81.273,123.984z M81.273,337.539
	c-29.486,0-53.389,23.903-53.389,53.389s23.903,53.389,53.389,53.389s53.389-23.903,53.389-53.389S110.759,337.539,81.273,337.539z"
	/>
<path style="fill:#504B5A;" d="M94.216,206.494c0-15.092-9.843-27.878-23.458-32.307c3.312-1.078,6.844-1.667,10.515-1.667
	c18.764,0,33.975,15.211,33.975,33.975s-15.211,33.975-33.975,33.975c-3.671,0-7.203-0.59-10.515-1.667
	C84.373,234.372,94.216,221.586,94.216,206.494z M81.273,337.539c-4.58,0-9.024,0.578-13.266,1.663
	c23.068,5.899,40.122,26.82,40.122,51.725s-17.055,45.827-40.122,51.725c4.242,1.085,8.686,1.663,13.266,1.663
	c29.486,0,53.389-23.903,53.389-53.389S110.759,337.539,81.273,337.539z"/>
<path style="fill:#69AFEB;" d="M484.115,420.195v57.949c0,2.761-2.239,5-5,5H71.713c-2.761,0-5-2.239-5-5v-57.949
	c0-2.761,2.239-5,5-5h407.402C481.877,415.195,484.115,417.434,484.115,420.195z"/>
<path style="fill:#85C2EF;" d="M264.816,298.711h-74.875v-67.949l37.837-87.363l37.038,87.363V298.711z"/>
<path style="fill:#69AFEB;" d="M264.816,230.762v67.949h-17.473v-67.949l-28.395-66.976l8.83-20.387L264.816,230.762z"/>
<path style="fill:#4B82C8;" d="M110.395,391.074v87.07c0,2.761-2.239,5-5,5H57.152c-2.761,0-5-2.239-5-5v-87.07c0-2.761,2.239-5,5-5
	h48.242C108.156,386.074,110.395,388.313,110.395,391.074z"/>
<path style="fill:#5091D7;" d="M281.267,347.246V502.56H173.49V347.246l8.225-19.414v-87.363c0-5.361,4.346-9.707,9.707-9.707
	h71.912c5.361,0,9.707,4.346,9.707,9.707v87.363L281.267,347.246z"/>
<path style="fill:#4B82C8;" d="M281.267,347.246V502.56h-14.803V352.103l-8.225-19.414v-92.22c0-5.361-4.346-9.707-9.707-9.707
	h14.803c5.361,0,9.707,4.346,9.707,9.707v87.363L281.267,347.246z"/>
<path style="fill:#85C2EF;" d="M435.58,30.704v23.187c0,111.41,3.836,222.786,11.501,333.932l7.913,114.736H319.096l7.913-114.736
	C334.674,276.677,338.51,165.3,338.51,53.891V12.354c0-2.681,2.173-4.854,4.854-4.854l0,0c9.67,0,19.304,1.186,28.686,3.531
	l59.854,14.964C434.064,26.535,435.58,28.476,435.58,30.704z"/>
<path style="fill:#69AFEB;" d="M454.994,502.559h-29.121l-7.913-114.736c-7.665-111.146-11.501-222.522-11.501-333.932V19.634
	l25.445,6.361c2.161,0.54,3.676,2.482,3.676,4.708V53.89c0,111.41,3.836,222.786,11.501,333.932L454.994,502.559z"/>
<path style="fill:#4B82C8;" d="M338.51,449.316v28.828c0,2.761-2.239,5-5,5H149.369c-2.761,0-5-2.239-5-5v-28.828
	c0-2.761,2.239-5,5-5H333.51C336.271,444.316,338.51,446.555,338.51,449.316z"/>
<path style="fill:#5091D7;" d="M337.147,114.277c8.108,0,14.947,6.048,15.932,14.095c17.311,141.386,46.514,270.097,82.501,374.186
	H313.328l7.913-114.736c6.171-89.472,9.855-179.093,11.059-268.761C332.336,116.409,334.493,114.277,337.147,114.277
	L337.147,114.277z"/>
<path style="fill:#736F7B;" d="M499.5,504.5h-487c-2.761,0-5-2.239-5-5v-19.121c0-2.761,2.239-5,5-5h487c2.761,0,5,2.239,5,5V499.5
	C504.5,502.261,502.261,504.5,499.5,504.5z"/>
<path d="M499.646,467.879h-8.031v-47.83c0-6.812-5.542-12.354-12.354-12.354H455.97l-1.406-20.389
	c-6.08-88.152-9.786-177.653-11.016-266.018c-0.058-4.142-3.457-7.494-7.604-7.395c-4.142,0.058-7.452,3.462-7.395,7.604
	c0.067,4.797,0.144,9.598,0.225,14.401h-51.438c-4.142,0-7.5,3.358-7.5,7.5s3.358,7.5,7.5,7.5h51.717
	c0.353,17.623,0.8,35.278,1.347,52.949h-43.356c-4.142,0-7.5,3.358-7.5,7.5s3.358,7.5,7.5,7.5h43.846
	c0.71,20.884,1.558,41.779,2.536,62.656h-26.968c-4.142,0-7.5,3.358-7.5,7.5s3.358,7.5,7.5,7.5h27.693
	c1.049,21.027,2.232,42.026,3.549,62.965c-0.673-0.198-1.384-0.309-2.121-0.309h-9.707c-4.142,0-7.5,3.358-7.5,7.5
	s3.358,7.5,7.5,7.5h9.707c1.076,0,2.098-0.231,3.023-0.639c0.326,4.943,0.656,9.883,0.996,14.818l5.485,79.54h-13.079
	c-31.758-100.138-56.457-217.711-71.482-340.418c-1.079-8.809-6.963-15.997-14.824-19.071c0.203-18.113,0.31-36.419,0.31-54.5
	V15.032c8.162,0.196,16.298,1.295,24.221,3.275l57.85,14.463v21.121c0,4.666,0.009,9.359,0.023,14.059H367.63
	c-4.142,0-7.5,3.358-7.5,7.5s3.358,7.5,7.5,7.5h60.538c0.026,4.326,0.055,8.647,0.093,12.951c0.035,4.12,3.386,7.435,7.498,7.435
	c0.022,0,0.044,0,0.066,0c4.142-0.036,7.471-3.422,7.435-7.564c-0.12-13.912-0.181-28.002-0.181-41.879V30.704
	c0-5.679-3.848-10.607-9.357-11.984L373.868,3.755C363.9,1.263,353.637,0,343.363,0c-6.812,0-12.354,5.542-12.354,12.354v41.537
	c0,18.16-0.108,36.549-0.314,54.739c-3.478,2.154-5.837,5.974-5.895,10.332c-1.197,89.179-4.913,179.464-11.042,268.345
	l-1.406,20.389h-23.586v-60.449c0-1.005-0.202-2-0.594-2.926l-7.631-18.012v-85.84c0-6.952-4.152-12.939-10.099-15.652
	l-35.564-83.885V85.156c0-4.142-3.358-7.5-7.5-7.5s-7.5,3.358-7.5,7.5v57.61L184.35,224.8c-5.966,2.705-10.134,8.703-10.134,15.668
	v85.84l-7.631,18.012c-0.392,0.925-0.594,1.92-0.594,2.926v60.449h-26.18c1.552-5.417,2.352-11.026,2.352-16.768
	c0-25.795-16.131-47.878-38.828-56.735V241.59c11.652-7.351,19.414-20.33,19.414-35.095c0-20.308-14.675-37.241-33.975-40.782
	V130.17c8.483-3.076,14.561-11.214,14.561-20.746s-6.078-17.67-14.561-20.746v-42.35c0-4.142-3.358-7.5-7.5-7.5s-7.5,3.358-7.5,7.5
	v42.35c-8.483,3.076-14.561,11.214-14.561,20.746s6.078,17.67,14.561,20.746v35.542c-19.3,3.541-33.975,20.475-33.975,40.782
	c0,14.766,7.762,27.745,19.414,35.095v92.603c-22.697,8.857-38.828,30.94-38.828,56.735c0,19.2,9.018,37.152,24.268,48.641v28.31
	H12.354C5.542,467.879,0,473.421,0,480.232v19.414C0,506.458,5.542,512,12.354,512h487.293c6.812,0,12.354-5.542,12.354-12.354
	v-19.414C512,473.421,506.458,467.879,499.646,467.879z M476.615,422.695v45.184H460.12l-3.116-45.184H476.615z M328.723,388.339
	c0.326-4.722,0.641-9.449,0.953-14.179h37.955c4.142,0,7.5-3.358,7.5-7.5s-3.358-7.5-7.5-7.5h-36.99
	c1.309-20.834,2.484-41.73,3.528-62.656h23.755c4.142,0,7.5-3.358,7.5-7.5s-3.358-7.5-7.5-7.5h-23.03
	c0.977-20.875,1.824-41.769,2.534-62.656h7.392c4.142,0,7.5-3.358,7.5-7.5s-3.358-7.5-7.5-7.5h-6.903
	c0.843-27.274,1.46-54.519,1.842-81.663c3.101,0.996,5.463,3.719,5.877,7.099c14.908,121.761,39.291,238.584,70.635,338.595h-93.032
	L328.723,388.339z M288.767,422.695h22.551l-0.974,14.121h-21.577V422.695z M227.704,162.44l25.786,60.822h-52.128L227.704,162.44z
	 M180.99,348.77l7.631-18.012c0.392-0.925,0.594-1.92,0.594-2.926v-87.363c0-1.217,0.99-2.207,2.207-2.207h71.911
	c1.217,0,2.207,0.99,2.207,2.207v87.363c0,1.005,0.202,2,0.594,2.926l7.631,18.012v88.047H180.99V348.77z M165.99,422.695v14.121
	h-16.768c-6.812,0-12.354,5.542-12.354,12.354v18.709h-18.975v-45.184L165.99,422.695L165.99,422.695z M81.273,102.363
	c3.893,0,7.061,3.167,7.061,7.061s-3.167,7.061-7.061,7.061s-7.061-3.167-7.061-7.061S77.38,102.363,81.273,102.363z
	 M54.799,206.494c0-14.598,11.876-26.475,26.475-26.475s26.475,11.876,26.475,26.475s-11.876,26.475-26.475,26.475
	S54.799,221.092,54.799,206.494z M88.334,247.355v83.106c-2.318-0.269-4.671-0.422-7.061-0.422s-4.742,0.153-7.061,0.422v-83.106
	c2.296,0.396,4.653,0.614,7.061,0.614S86.038,247.751,88.334,247.355z M35.385,390.928c0-25.303,20.585-45.889,45.889-45.889
	s45.889,20.585,45.889,45.889c0,5.81-1.065,11.439-3.162,16.768h-6.106v-16.768c0-6.812-5.542-12.354-12.354-12.354H57.006
	c-6.812,0-12.354,5.542-12.354,12.354v27.624C38.724,410.695,35.385,401.046,35.385,390.928z M102.895,393.574v74.305H59.652
	v-74.305H102.895z M497,497H15v-14.121h165.285c4.142,0,7.5-3.358,7.5-7.5s-3.358-7.5-7.5-7.5h-28.416v-16.063h157.44l-1.108,16.063
	h-100.25c-4.142,0-7.5,3.358-7.5,7.5s3.358,7.5,7.5,7.5h106.698c0.012,0.001,0.024,0.004,0.037,0.004
	c0.176,0.012,0.35,0.018,0.523,0.018c0.157,0,0.31-0.013,0.465-0.022H497V497z M220.318,259.883v155.313c0,4.142-3.358,7.5-7.5,7.5
	s-7.5-3.358-7.5-7.5V259.883c0-4.142,3.358-7.5,7.5-7.5S220.318,255.741,220.318,259.883z M249.439,259.883v155.313
	c0,4.142-3.358,7.5-7.5,7.5s-7.5-3.358-7.5-7.5V259.883c0-4.142,3.358-7.5,7.5-7.5S249.439,255.741,249.439,259.883z"/>
<g>
</g>
<g>
</g>
<g>
</g>
<g>
</g>
<g>
</g>
<g>
</g>
<g>
</g>
<g>
</g>
<g>
</g>
<g>
</g>
<g>
</g>
<g>
</g>
<g>
</g>
<g>
</g>
<g>
</g>
</svg>
