<svg viewBox="0 0 512 512"  xmlns="http://www.w3.org/2000/svg"><g id="Fill_out_line" data-name="Fill out line"><path d="m192 328a120 120 0 0 1 0-240h160a136 136 0 0 1 136 136v208h-96l-44.57143-104z" fill="#68737f"/><path d="m224 104c-110.45695 0-200 89.543-200 200v128h88v-64.00006a63.99994 63.99994 0 0 1 63.99994-63.99994v-144z" fill="#68737f"/><path d="m488 224v56h-64a72.00591 72.00591 0 0 1 -72 72h-88v-24h-72a120 120 0 0 1 0-240h160a136.00111 136.00111 0 0 1 136 136z" fill="#d4e4f0"/><path d="m176 296v136h80v-.00008a569.0741 569.0741 0 0 0 24-163.52228v-12.47764z" fill="#68737f"/><path d="m272 184-24-24a24 24 0 1 1 24 24z" fill="#68737f"/><path d="m192 136a96 96 0 0 1 0 192 120.00878 120.00878 0 0 1 -96.0004-192.01117z" fill="#d4e4f0"/><g fill="#68737f"><rect height="45.255" rx="22.627" transform="matrix(.707 -.707 .707 .707 -116.5 190.745)" width="56.569" x="143.716" y="213.373"/><path d="m228.25282 234.63205 5.28747 13.21866a14.11283 14.11283 0 0 0 20.93182 6.50122 14.11284 14.11284 0 0 0 5.275-16.984l-5.28747-13.21866a14.11283 14.11283 0 0 0 -20.93182-6.50122 14.11284 14.11284 0 0 0 -5.275 16.984z"/><path d="m160 168-24 24a24 24 0 1 1 24-24z"/></g><path d="m154.34277 210.34277-8 8a30.62795 30.62795 0 0 0 43.31446 43.31446l8-8a30.62795 30.62795 0 0 0 -43.31446-43.31446zm32 32-8 8a14.62689 14.62689 0 0 1 -20.68554-20.68554l8-8a14.62689 14.62689 0 0 1 20.68554 20.68554z"/><path d="m226.1123 250.82129a22.11262 22.11262 0 0 0 41.0625-16.42383l-5.2871-13.21875a22.11262 22.11262 0 0 0 -41.0625 16.42383zm11.8545-26.5166a5.95341 5.95341 0 0 1 3.34961-1.03418 6.3264 6.3264 0 0 1 1.85351.28222 6.02708 6.02708 0 0 1 3.86231 3.56739l5.28711 13.21875a6.139 6.139 0 0 1 -2.28614 7.35644 6.11161 6.11161 0 0 1 -9.06543-2.81543l-5.28711-13.21875a6.139 6.139 0 0 1 2.28614-7.35644z"/><path d="m200.60938 284.93848a8.00028 8.00028 0 0 0 1.73339 8.71875l8 8a8.00181 8.00181 0 0 0 11.31446 0l8-8a8.00066 8.00066 0 0 0 -5.65723-13.65723h-16a8 8 0 0 0 -7.39062 4.93848z"/><path d="m352 80h-160a128.21072 128.21072 0 0 0 -119.07666 81.0376 206.54241 206.54241 0 0 0 -56.92334 142.9624v128a7.99993 7.99993 0 0 0 8 8h88a7.99993 7.99993 0 0 0 8-8v-64a56.11839 56.11839 0 0 1 20.14282-42.98682 126.93781 126.93781 0 0 0 27.85718 8.72071v98.26611a8.00039 8.00039 0 0 0 8 8h80a8.00076 8.00076 0 0 0 7.66309-5.70117 577.11073 577.11073 0 0 0 17.01464-74.29883h71.32227c.14551 0 .28857-.01025.43384-.01074l32.21264 75.16211a8.00075 8.00075 0 0 0 7.35352 4.84863h96a8.00039 8.00039 0 0 0 8-8v-208c0-79.40234-64.59766-144-144-144zm-248 288v56h-72v-120a190.63471 190.63471 0 0 1 32.47168-106.92969c-.3064 3.60401-.47168 7.24781-.47168 10.92969a128.03746 128.03746 0 0 0 61.10742 109.08643 72.14617 72.14617 0 0 0 -21.10742 50.91357zm146.01465 56h-66.01465v-88.25732c2.647.16406 5.3125.25732 8 .25732a103.80407 103.80407 0 0 0 79.14746-36.61426 560.6846 560.6846 0 0 1 -21.13281 124.61426zm229.98535 0h-82.72461l-28.221-65.84863a80.12549 80.12549 0 0 0 62.94561-78.15137h-16a64.07207 64.07207 0 0 1 -64 64h-68.96875a577.07912 577.07912 0 0 0 4.946-71.95557 103.91074 103.91074 0 0 0 -1.50756-83.508 31.99429 31.99429 0 1 0 -41.33155-45.90161 103.35858 103.35858 0 0 0 -53.13814-14.63482v16a88 88 0 0 1 0 176 112 112 0 0 1 0-224h160a128.1454 128.1454 0 0 1 128 128zm-201.35449-249.45215a104.85435 104.85435 0 0 0 -20.41944-22.67627 15.99546 15.99546 0 1 1 20.41944 22.67627z"/><path d="m165.65723 173.65723a8.00235 8.00235 0 0 0 2.34277-5.65723 32 32 0 1 0 -32 32 8.00235 8.00235 0 0 0 5.65723-2.34277zm-32.6836 10.05566a16.00094 16.00094 0 1 1 18.73926-18.73926z"/></g></svg>
