<svg viewBox="0 0 512 512" xmlns="http://www.w3.org/2000/svg"><g id="Fill_out_line" data-name="Fill out line"><path d="m328 72a119.99989 119.99989 0 0 1 24 72v40l48-72-4.53381-7.2205a142.46807 142.46807 0 0 0 -51.46619-48.7795z" fill="#9f764a"/><path d="m16 426.74282 7.99826-2.74226a622.67 622.67 0 0 0 382.33116-373.75184l9.67058-26.24872h32l-16.18232 52.28133a622.67 622.67 0 0 1 -363.57406 394.02121l-52.24362 20.89746z" fill="#ba8b5d"/><path d="m384 232c0 21.99-14.79 57.04-34.96 68.3501a26.48777 26.48777 0 0 1 -13.04 3.6499q-.6 0-1.2-.03a24.77462 24.77462 0 0 1 -6.79-1.34009c-22.69994-7.77005-40.01-46.83991-40.01-70.62991a48 48 0 1 1 96 0z" fill="#fc97ca"/><path d="m433.87 452.30005a48.02394 48.02394 0 0 1 -67.63-5.82005c-16.84-20.01-29.57007-67.62012-10.43994-85.29.26-.24.53-.48.79993-.71a23.98864 23.98864 0 0 1 5.03-3.24c22.02991-10.65015 62.27991 8.67993 78.05994 27.41992a47.98848 47.98848 0 0 1 -5.81993 67.64013z" fill="#fc97ca"/><path d="m450.24 407.22a56.79329 56.79329 0 0 1 -20.36.47c-14.84-2.36987-32.85-11.12988-47-22.86987-10.61-8.8-17.80993-18.21021-21.25-27.58008 22.02991-10.65015 62.27991 8.67993 78.05994 27.41992a47.71074 47.71074 0 0 1 10.55006 22.56003z" fill="#ee89bb"/><path d="m486.1 359.95a48.00347 48.00347 0 0 1 -54.96 39.84c-26.18-4.18018-67.72009-32.57007-63.54-58.75.12-.72.26-1.43994.45007-2.14014 6.37988-24.7998 52.76-37.97 78.21-33.90991a47.98311 47.98311 0 0 1 39.84 54.96z" fill="#fc97ca"/><path d="m477.67993 324.37012a55.56722 55.56722 0 0 1 -23.87988 20.25c-10.34009 4.62988-24.62012 7.28979-39.15 7.28979-19.79 0-36.11-4.68994-46.6-13.01 6.37988-24.7998 52.76-37.97 78.21-33.90991a47.80969 47.80969 0 0 1 31.41988 19.38012z" fill="#ee89bb"/><path d="m450.53 337.32007c-24.18994 10.82983-74.49 9.8-85.32007-14.39014a23.41611 23.41611 0 0 1 -1.53-4.74c-5.19993-24.16993 24.96007-58.33983 47.63013-68.48993a47.99868 47.99868 0 0 1 39.22 87.62012z" fill="#fc97ca"/><path d="m384 232c0 26.51-21.49 72-48 72q-.6 0-1.2-.03c-6.04-8.38013-9.71-20.18994-10.6001-34.61987-1.13989-18.3501 2.4-38.06006 9.24-51.44019a55.68834 55.68834 0 0 1 28.49-26.30981 47.95129 47.95129 0 0 1 22.0701 40.39987z" fill="#ee89bb"/><path d="m439.25 246.24a55.66182 55.66182 0 0 1 -6.07007 22.61987c-10.38989 20.33008-41.62988 48.57007-69.5 49.33008-5.19993-24.16995 24.96007-58.33985 47.63013-68.48995a47.734 47.734 0 0 1 27.93994-3.46z" fill="#ee89bb"/><path d="m426.05456 265.2174c-12.05889 23.60817-51.89 54.3439-75.4982 42.285s-22.05344-62.34594-9.99455-85.95411a48 48 0 0 1 85.49275 43.66909z" fill="#fc97ca"/><path d="m332.58008 450.49a47.99734 47.99734 0 1 1 -85.92017-42.81006c11.25-22.59009 47.59009-51.86987 71.53-44.44995a22.512 22.512 0 0 1 3.54 1.41016 24.00311 24.00311 0 0 1 2.8501 1.68994c20.76999 14.29979 19.3299 61.41991 8.00007 84.15991z" fill="#fc97ca"/><path d="m332.58008 450.49a47.78817 47.78817 0 0 1 -24.40015 22.86011 56.05471 56.05471 0 0 1 -11.20993-25.87011c-2.35-14.83984.39-34.67993 7.16-51.77 5.25-13.26 12.26-23.25 20.45008-29.37988 20.76992 14.29976 19.32983 61.41988 8 84.15988z" fill="#ee89bb"/><path d="m402.43994 463.56006a47.88642 47.88642 0 0 1 -36.19994-17.08006c-16.84-20.01-29.57007-67.62012-10.43994-85.29 10.45 3.43018 21.02 11.58008 30.60986 23.77 10.8501 13.78 18.96009 31.02 21.18018 44.99a55.666 55.666 0 0 1 -5.15016 33.61006z" fill="#ee89bb"/><path d="m304.869 446.231c-4.14914-26.183 9.95646-74.4762 36.13941-78.62534s54.52832 37.417 58.67746 63.6a48 48 0 1 1 -94.81687 15.02534z" fill="#fc97ca"/><path d="m318.18994 363.23c-.16992 10.17993-4.12988 21.68994-11.73 33.66992-9.84 15.53-24.27 29.42017-37.6499 36.24024a56.19766 56.19766 0 0 1 -25.41004 6.12984c-.2301 0-.46008 0-.69006-.01a47.79419 47.79419 0 0 1 3.95-31.58008c11.24997-22.59008 47.59006-51.86986 71.53-44.44992z" fill="#ee89bb"/><path d="m307.33008 377.3501c-7.14014 19.86987-26.27 40.55981-42.16016 48.66992a48.001 48.001 0 1 1 -43.61987-85.52c23.60986-12.04 73.8999-13.57007 85.93994 10.04 3.93994 7.71998 3.30001 17.16998-.15991 26.81008z" fill="#fc97ca"/><path d="m307.33008 377.3501a48.04533 48.04533 0 0 1 -41.03 22.21 48.48563 48.48563 0 0 1 -8.58008-.88013 47.91129 47.91129 0 0 1 -34.06995 23.45 49.24714 49.24714 0 0 1 -7.61.6001 48.0038 48.0038 0 0 1 5.51-82.23c23.60986-12.04 73.8999-13.57007 85.93994 10.04 3.93994 7.71993 3.30001 17.16993-.15991 26.81003z" fill="#e975ad"/><path d="m394.75488 370.76562c-27.80957 0-59.11474-9.98535-66.36328-32.29394-4.6016-14.16113 1.0459-31.24121 15.9024-48.09468 12.15722-13.791 28.58642-25.24218 42.877-29.88574a56.00018 56.00018 0 0 1 34.61035 106.51856c-7.5626 2.45698-16.9083 3.7558-27.02647 3.7558z" fill="#ee89bb"/><path d="m419.30888 359.40149c-25.21219 8.19194-75.11694 1.8107-83.30888-23.40149s28.43106-59.708 53.64325-67.89994a48 48 0 1 1 29.66563 91.30143z" fill="#fc97ca"/><path d="m378.36084 450.24805a56.07854 56.07854 0 0 1 -41.22363-18.06836 53.48951 53.48951 0 0 1 -4.10889-5.00293c-16.23437-22.33985-26.22559-71.24707-6.78027-93.06055a31.30512 31.30512 0 0 1 5.05029-4.58887c5.93018-4.30761 13.26953-6.49121 21.81348-6.49121 25.53662 0 57.07568 19.80469 70.51074 38.30274a55.99825 55.99825 0 0 1 -45.26172 88.90918z" fill="#ee89bb"/><path d="m356.11 377.79c-1.73 18.2998-8.28992 37.22-17.13 49.37988a56.20334 56.20334 0 0 1 -45.34 23.08012 56.03051 56.03051 0 0 1 -45.27-88.91992c13.44006-18.49024 44.98-38.29 70.52-38.29a40.02705 40.02705 0 0 1 14.18006 2.3999 31.96865 31.96865 0 0 1 7.62994 4.09002c12.05 8.75 17.52 25.88992 15.41 48.26z" fill="#ee89bb"/><path d="m406.53 433.08008a47.98533 47.98533 0 0 1 -63.5-6.31006 46.37931 46.37931 0 0 1 -3.54-4.31006c-14.57007-20.05-23.69995-64.58984-7.27-83.02a23.30824 23.30824 0 0 1 3.78-3.43996c21.45-15.58008 65.57007 8.58984 81.15 30.04a47.98318 47.98318 0 0 1 -10.62 67.04008z" fill="#fc97ca"/><path d="m332.51 422.46a47.99554 47.99554 0 1 1 -77.66-56.42c13.04-17.9502 46.05993-37.8 69.05993-34.66992a26.30546 26.30546 0 0 1 12.09007 4.62992c21.45 15.58008 12.09009 65.02-3.49 86.46z" fill="#fc97ca"/><path d="m392 264c0 15.03-5.81006 34.18994-15.16992 50.01-11.44008 19.3401-25.94008 29.99-40.83008 29.99-7.91992 0-15.74-3.02-23.04-8.75-6.40991-5.05-12.43994-12.18994-17.79-21.24-9.35994-15.82006-15.17-34.98-15.17-50.01a56.06158 56.06158 0 0 1 56-56c.57007 0 1.14.01 1.7.03a56.05858 56.05858 0 0 1 54.3 55.97z" fill="#ee89bb"/><path d="m384 264c0 26.51-21.49 72-48 72a26.72255 26.72255 0 0 1 -13.54-3.93994c-19.92-11.60006-34.46-46.25-34.46-68.06006a47.99956 47.99956 0 0 1 48-48 46.80427 46.80427 0 0 1 4.90991.25 48.009 48.009 0 0 1 43.09009 47.75z" fill="#fc97ca"/><path d="m349.96 295.95c-.24 1.5-.54 2.96-.91992 4.40015a26.48777 26.48777 0 0 1 -13.04008 3.64985q-.6 0-1.2-.03a24.77462 24.77462 0 0 1 -6.79-1.34009c-22.69994-7.77005-40.01-46.83991-40.01-70.62991a47.97295 47.97295 0 0 1 29.98-44.51 47.9934 47.9934 0 0 1 18.07007 66.52 47.86867 47.86867 0 0 1 13.90993 41.94z" fill="#e975ad"/><path d="m314.1 343.22a47.99267 47.99267 0 0 1 -47.79993 56.34009 48.48563 48.48563 0 0 1 -8.58008-.88013 48.04255 48.04255 0 0 1 -15.90993 16.60004 55.93717 55.93717 0 0 1 6.55994-53.94992c13.44006-18.49024 44.98-38.29 70.52-38.29a40.02705 40.02705 0 0 1 14.18006 2.3999 48.06854 48.06854 0 0 1 -21.04 10.01 48.43787 48.43787 0 0 1 2.06994 7.77002z" fill="#e975ad"/><path d="m314.1 343.22a47.99267 47.99267 0 0 1 -47.79993 56.34009 48.48563 48.48563 0 0 1 -8.58008-.88013 48.17857 48.17857 0 0 1 -9.3 11.55 47.88213 47.88213 0 0 1 6.43001-44.18996c13.04-17.9502 46.05993-37.8 69.05993-34.66992a47.83864 47.83864 0 0 1 -11.87993 4.07992 48.43787 48.43787 0 0 1 2.07 7.77z" fill="#ee89bb"/><path d="m349.96 295.95a47.994 47.994 0 0 1 -37 39.30005c-6.40991-5.05-12.43994-12.18994-17.79-21.24-9.35994-15.82011-15.17-34.98005-15.17-50.01005a56.06158 56.06158 0 0 1 56-56c.57007 0 1.14.01 1.7.03.31006.61011.61011 1.24.89014 1.86987a47.9617 47.9617 0 0 1 -2.54 44.11011 47.86867 47.86867 0 0 1 13.90986 41.94002z" fill="#e975ad"/><path d="m349.96 295.95a47.89509 47.89509 0 0 1 -27.5 36.11011c-19.92-11.60011-34.46-46.25005-34.46-68.06011a47.99956 47.99956 0 0 1 48-48 46.80427 46.80427 0 0 1 4.90991.25 47.96675 47.96675 0 0 1 -4.85986 37.76 47.86867 47.86867 0 0 1 13.90995 41.94z" fill="#ee89bb"/><path d="m328.57227 330.9707-5.2876-13.21875a62.81825 62.81825 0 0 1 6.05908-58.18945l13.3125 8.875a46.82267 46.82267 0 0 0 -4.51611 43.37207l5.28759 13.21973z" fill="#e1cab4"/><path d="m352 264a15.97493 15.97493 0 1 1 -13.05-15.73 15.95744 15.95744 0 0 1 13.05 15.73z" fill="#fdc5ca"/><path d="m321.14014 340.11621-3.0127-5.02148a49.99021 49.99021 0 0 0 -52.55859-23.25l-3.1377-15.68946a66.0274 66.0274 0 0 1 69.416 30.707l3.01269 5.02149z" fill="#e1cab4"/><circle cx="264" cy="312" fill="#fc979e" r="16"/><circle cx="288" cy="392" fill="#fdc5ca" r="16"/><circle cx="384" cy="392" fill="#fdc5ca" r="16"/><circle cx="408" cy="304" fill="#fdc5ca" r="16"/><path d="m360 336a23.99223 23.99223 0 0 1 -45.4 10.83984 23.685 23.685 0 0 1 -2.6-10.83984 24 24 0 0 1 48 0z" fill="#ffefd6"/><path d="m348.4 274.12012a15.99225 15.99225 0 1 1 -9.45-25.85012 49.785 49.785 0 0 1 -2.8999 5.74 47.82 47.82 0 0 1 12.35 20.11011z" fill="#fc979e"/><path d="m224 168c0 26.51-21.49 72-48 72q-.6 0-1.2-.03a24.77462 24.77462 0 0 1 -6.79-1.34009c-22.69994-7.77005-40.01-46.83991-40.01-70.62991a48 48 0 1 1 96 0z" fill="#fc97ca"/><path d="m273.87 388.30005a48.02394 48.02394 0 0 1 -67.63-5.82005c-16.84-20.01-29.57007-67.62012-10.43994-85.29.26-.24.53-.48.79993-.71a23.98864 23.98864 0 0 1 5.03-3.24c22.02991-10.65015 62.27991 8.67993 78.05994 27.41992a47.98848 47.98848 0 0 1 -5.81993 67.64013z" fill="#fc97ca"/><path d="m168.01 238.62988c-22.69994-7.77002-40.01-46.83988-40.01-70.62988a47.75277 47.75277 0 0 1 3.31006-17.55 55.7596 55.7596 0 0 1 10.75 8.40991c10.61987 10.63009 20.05994 28.28999 24.62988 46.10009 3.30006 12.83 3.70006 24.27 1.32006 33.66988z" fill="#ee89bb"/><path d="m136.402 164.51977c18.74517 18.74517 35.71573 66.10765 16.97056 84.85281s-66.10762 1.77461-84.85279-16.97058a48 48 0 0 1 67.88223-67.88223z" fill="#fc97ca"/><path d="m290.24 343.22a56.79329 56.79329 0 0 1 -20.36.47c-14.84-2.36987-32.85-11.12988-47-22.86987-10.61-8.8-17.80993-18.21021-21.25-27.58008 22.02991-10.65015 62.27991 8.67993 78.05994 27.41992a47.71074 47.71074 0 0 1 10.55006 22.56003z" fill="#ee89bb"/><path d="m326.1 295.95a48.00347 48.00347 0 0 1 -54.96 39.84c-26.18-4.18014-67.72008-32.57-63.54-58.75.12-.72.26-1.43994.45007-2.14014 6.37988-24.7998 52.76-37.97 78.21-33.90991a47.98311 47.98311 0 0 1 39.84 54.96z" fill="#fc97ca"/><path d="m317.67993 260.37012a55.56722 55.56722 0 0 1 -23.87988 20.25c-10.34009 4.62988-24.62012 7.28979-39.15 7.28979-19.79 0-36.11-4.68994-46.6-13.01 6.37988-24.7998 52.76-37.97 78.21-33.90991a47.80969 47.80969 0 0 1 31.41988 19.38012z" fill="#ee89bb"/><path d="m290.53 273.32007c-24.18994 10.82983-74.49 9.8-85.32007-14.39014a23.41611 23.41611 0 0 1 -1.53-4.74c-5.19993-24.16993 24.96007-58.33983 47.63013-68.48993a47.99868 47.99868 0 0 1 39.22 87.62012z" fill="#fc97ca"/><path d="m224 168c0 26.51-21.49 72-48 72q-.6 0-1.2-.03c-6.04-8.38013-9.71-20.18994-10.6001-34.61987-1.13989-18.3501 2.4-38.06006 9.24-51.44019a55.68834 55.68834 0 0 1 28.49-26.30981 47.95129 47.95129 0 0 1 22.0701 40.39987z" fill="#ee89bb"/><path d="m279.25 182.24a55.66182 55.66182 0 0 1 -6.07007 22.61987c-10.38989 20.33008-41.62988 48.57007-69.5 49.33008-5.19993-24.16995 24.96007-58.33985 47.63013-68.48995a47.734 47.734 0 0 1 27.93994-3.46z" fill="#ee89bb"/><path d="m266.05456 201.2174c-12.05889 23.60817-51.89 54.3439-75.4982 42.285s-22.05344-62.34594-9.99455-85.95411a48 48 0 0 1 85.49275 43.66909z" fill="#fc97ca"/><path d="m172.58008 386.49a47.99734 47.99734 0 1 1 -85.92017-42.81006c11.25-22.59009 47.59009-51.86987 71.53-44.44995a22.512 22.512 0 0 1 3.54 1.41016 24.00311 24.00311 0 0 1 2.8501 1.68994c20.76999 14.29979 19.3299 61.41991 8.00007 84.15991z" fill="#fc97ca"/><path d="m144.05005 270.30005c-.01.17993-.02.35986-.04.53979-2.01005 26.20016-48.12005 44.97022-74.41005 43.58008a48.00245 48.00245 0 1 1 5.09-95.86987c26.46991 1.40995 70.76 25.28003 69.36005 51.75z" fill="#fc97ca"/><path d="m172.58008 386.49a47.78817 47.78817 0 0 1 -24.40015 22.86011 56.05471 56.05471 0 0 1 -11.20993-25.87011c-2.35-14.83984.39-34.67993 7.16-51.77 5.25-13.26 12.26-23.25 20.45008-29.37988 20.76992 14.29976 19.32983 61.41988 8 84.15988z" fill="#ee89bb"/><path d="m242.43994 399.56006a47.88642 47.88642 0 0 1 -36.19994-17.08006c-16.84-20.01-29.57007-67.62012-10.43994-85.29 10.45 3.43018 21.02 11.58008 30.60986 23.77 10.8501 13.78 18.96009 31.02 21.18018 44.99a55.666 55.666 0 0 1 -5.15016 33.61006z" fill="#ee89bb"/><path d="m144.869 382.231c-4.14914-26.183 9.95646-74.4762 36.13941-78.62534s54.52832 37.417 58.67746 63.6a48 48 0 1 1 -94.81687 15.02534z" fill="#fc97ca"/><path d="m69.6 314.41992a47.903 47.903 0 0 1 -36.44009-19.92992 55.68419 55.68419 0 0 1 24.75-25.11011c11.56009-5.89989 28.25-9.41989 44.64014-9.41989 17.38989 0 31.72 3.84009 41.46 10.87988-2.01005 26.20012-48.12005 44.97018-74.41005 43.58004z" fill="#ee89bb"/><path d="m158.18994 299.23c-.16992 10.17993-4.12988 21.68994-11.73 33.66992-9.84 15.53-24.27 29.42017-37.6499 36.24024a56.19766 56.19766 0 0 1 -25.41004 6.12984c-.2301 0-.46008 0-.69006-.01a47.79419 47.79419 0 0 1 3.95-31.58008c11.24997-22.59008 47.59006-51.86986 71.53-44.44992z" fill="#ee89bb"/><path d="m61.546 276.50215c23.61445-12.04658 73.9023-13.5751 85.94888 10.03936s-18.70991 63.42956-42.32436 75.47614a48 48 0 1 1 -43.62452-85.5155z" fill="#fc97ca"/><path d="m117.24512 306.76562c-10.11817 0-19.46387-1.29882-27.02637-3.75585a56.00019 56.00019 0 1 1 34.61035-106.51856c14.29053 4.64356 30.71973 16.09473 42.877 29.88574 14.85645 16.85352 20.50391 33.9336 15.90235 48.09473-7.24859 22.30859-38.55376 32.29394-66.36333 32.29394z" fill="#ee89bb"/><path d="m122.35675 204.10006c25.21219 8.19194 61.83519 42.68775 53.64325 67.89994s-58.09669 31.59343-83.30888 23.40149a48 48 0 1 1 29.66563-91.30143z" fill="#fc97ca"/><path d="m234.75488 306.76562c-27.80957 0-59.11474-9.98535-66.36328-32.29394-4.6016-14.16113 1.0459-31.24121 15.9024-48.09468 12.15722-13.791 28.58642-25.24218 42.87695-29.88574a56.00018 56.00018 0 0 1 34.61035 106.51856c-7.56255 2.45698-16.90825 3.7558-27.02642 3.7558z" fill="#ee89bb"/><path d="m259.30888 295.40149c-25.21219 8.19194-75.11694 1.8107-83.30888-23.40149s28.43106-59.708 53.64325-67.89994a48 48 0 1 1 29.66563 91.30143z" fill="#fc97ca"/><path d="m218.36084 386.24805a56.07854 56.07854 0 0 1 -41.22363-18.06836 53.48951 53.48951 0 0 1 -4.10889-5.00293c-16.23437-22.33985-26.22559-71.24707-6.78027-93.06055a31.30512 31.30512 0 0 1 5.05029-4.58887c5.93018-4.30761 13.26953-6.49121 21.81348-6.49121 25.53662 0 57.07568 19.80469 70.51074 38.30274a55.99825 55.99825 0 0 1 -45.26172 88.90918z" fill="#ee89bb"/><path d="m246.53 369.08008a47.98533 47.98533 0 0 1 -63.5-6.31006 46.37931 46.37931 0 0 1 -3.54-4.31006c-14.57007-20.05-23.69995-64.58984-7.27-83.02a23.30824 23.30824 0 0 1 3.78-3.43996c21.45-15.58008 65.57007 8.58984 81.15 30.04a47.98318 47.98318 0 0 1 -10.62 67.04008z" fill="#fc97ca"/><path d="m133.64014 386.25293a56.00539 56.00539 0 0 1 -45.26563-88.91993c13.438-18.49512 44.97852-38.29785 70.51319-38.29785 8.54541 0 15.88476 2.18457 21.81445 6.49316 12.04687 8.75195 17.51758 25.88965 15.4043 48.25684-1.7295 18.30273-8.29 37.22461-17.12207 49.37988a56.20454 56.20454 0 0 1 -45.34424 23.0879z" fill="#ee89bb"/><path d="m94.84665 302.03553c15.58199-21.44677 59.70658-45.61753 81.15335-30.03553s12.09427 65.01614-3.48772 86.46292a48 48 0 0 1 -77.66563-56.42739z" fill="#fc97ca"/><path d="m176 280c-14.89062 0-29.39014-10.64941-40.82715-29.98633-9.35885-15.82324-15.17285-34.98828-15.17285-50.01367a56 56 0 0 1 112 0c0 15.02539-5.814 34.19043-15.17285 50.01367-11.43701 19.33692-25.93653 29.98633-40.82715 29.98633z" fill="#ee89bb"/><path d="m224 200c0 26.50967-21.49033 72-48 72s-48-45.49033-48-72a48 48 0 0 1 96 0z" fill="#fc97ca"/><g fill="#fdc5ca"><circle cx="176" cy="200" r="16"/><circle cx="104" cy="248" r="16"/><circle cx="128" cy="328" r="16"/><circle cx="224" cy="328" r="16"/><circle cx="248" cy="240" r="16"/></g><circle cx="176" cy="272" fill="#ffefd6" r="24"/><path d="m243.05957 407.58594a55.70631 55.70631 0 0 0 35.96143-13.165 56.28732 56.28732 0 0 0 18.91-53.56616 55.97669 55.97669 0 0 0 24.10449-88.06958 55.98777 55.98777 0 0 0 -43.0448-78.49707 56.42942 56.42942 0 0 0 -2.5166-12.25782 55.9993 55.9993 0 0 0 -65.09766-37.42846 55.985 55.985 0 0 0 -87.22656 22.24194 55.99919 55.99919 0 0 0 -75.06787 68.58321 56.00088 56.00088 0 0 0 -19.3403 87.60474 55.98183 55.98183 0 0 0 44.68555 71.47607 56.06757 56.06757 0 0 0 79.52441 41.01074 56.04888 56.04888 0 0 0 83.90845-8.18115c1.73633.16089 3.47094.24854 5.19946.24854zm-65.22852-81.46973c-2.63818 10.88672-6.936 20.96289-11.791 27.64453a40.00011 40.00011 0 1 1 -64.72119-47.02344c7.58105-10.43457 22.68408-21.40527 37.58252-27.2998l-5.88672-14.877a114.71871 114.71871 0 0 0 -36.61914 23.61181q-.63026-.18456-1.23242-.37939a40.00018 40.00018 0 0 1 24.72119-76.085c.39782.12915.81811.29419 1.2268.44043a104.37521 104.37521 0 0 0 3.53247 14.29492l15.23536-4.88672a74.00335 74.00335 0 0 1 -3.87892-21.55655 40 40 0 0 1 80 0 64.36292 64.36292 0 0 1 -1.83447 14.18555l15.583 3.6289c.4458-1.91357.81762-3.78442 1.13171-5.61865.48157-.18823.97278-.39136 1.43957-.55713a37.75174 37.75174 0 0 1 29.52979 1.86524 40.83706 40.83706 0 0 1 20.66894 23.88574 40.00165 40.00165 0 0 1 -25.68354 50.40435q-.60041.19518-1.23035.37866a114.72007 114.72007 0 0 0 -36.61828-23.61109l-5.88672 14.877c14.89844 5.89453 30.001 16.86523 37.58154 27.29882a40 40 0 0 1 -64.72021 47.02442q-.36951-.509-.73755-1.04932a110.31139 110.31139 0 0 0 8.15747-22.82861zm90.8877 56.0625a39.80167 39.80167 0 0 1 -22.97192 9.2981 55.80733 55.80733 0 0 0 2.453-13.87378c1.028-.65064 2.04346-1.32764 3.0365-2.04932a55.73886 55.73886 0 0 0 21.35559-31.62646 56.06083 56.06083 0 0 0 6.16.34716c1.181 0 2.35327-.051 3.52076-.125a40.20859 40.20859 0 0 1 -13.55393 38.0293zm49.5083-87.65234a39.93148 39.93148 0 0 1 -43.97363 33.49 55.64022 55.64022 0 0 0 -7.99365-26.68628 56.07849 56.07849 0 0 0 34.03039-46.75928 40.031 40.031 0 0 1 17.93689 39.95556zm-10.65771-81.05371a40.10525 40.10525 0 0 1 1.72045 27.86865 55.554 55.554 0 0 0 -10.54907-5.376c-.301-1.17773-.62622-2.35254-1.00537-3.519a56.978 56.978 0 0 0 -23.40625-30.231 56.04731 56.04731 0 0 0 3.79492-11.83667 39.88628 39.88628 0 0 1 29.44532 23.09402zm-66.19483-69.77735a39.9977 39.9977 0 0 1 18.37949 51.91358 53.22669 53.22669 0 0 0 -27.98059-.49854 56.12014 56.12014 0 0 0 -33.96241-46.68725 40.02484 40.02484 0 0 1 43.56351-4.72779zm-65.37451-15.69531a39.87436 39.87436 0 0 1 17.34363 3.95117 55.57936 55.57936 0 0 0 -13.68689 12.18115c-1.21021-.07832-2.427-.13232-3.65674-.13232a55.74066 55.74066 0 0 0 -35.86572 13.0332q-1.01074-.92028-2.05664-1.78a40.13135 40.13135 0 0 1 37.92236-27.2532zm-101.82373 42.17676a40.04593 40.04593 0 0 1 55.25928-1.24488 55.63879 55.63879 0 0 0 -9.21753 26.29029 56.11883 56.11883 0 0 0 -55.00623 17.84668 40.02957 40.02957 0 0 1 8.96448-42.89209zm-41.97315 94.18066a39.91023 39.91023 0 0 1 22.8125-34.03711c-.25976.70288-.51733 1.40723-.751 2.126a55.56748 55.56748 0 0 0 1.28857 38.14722 55.599 55.599 0 0 0 -17.87839 16.16917 39.97057 39.97057 0 0 1 -5.47168-22.40528zm15.4917 73.01758a39.99724 39.99724 0 0 1 15.85669-52.92285 55.441 55.441 0 0 0 22.18872 16.87793 56.11891 56.11891 0 0 0 -.022 57.82568 40.0315 40.0315 0 0 1 -38.02341-21.78076zm64.09668 63.5166a40.04567 40.04567 0 0 1 -20.98437-26.16186 55.70258 55.70258 0 0 0 7.08105-1.42823c.9314.7732 1.88233 1.53077 2.87549 2.2522a55.58308 55.58308 0 0 0 32.79688 10.708c1.29052 0 2.58569-.05274 3.88257-.14234a55.64861 55.64861 0 0 0 6.22937 16.42969 39.64878 39.64878 0 0 1 -31.88099-1.65746zm86.73487 13.33594a40.04937 40.04937 0 0 1 -45.42969-31.43554 55.44015 55.44015 0 0 0 22.90332-15.88306 55.56841 55.56841 0 0 0 33.56006 18.65063 56.63546 56.63546 0 0 0 8.87939.70215 55.48687 55.48687 0 0 0 12.564-1.44336 39.86926 39.86926 0 0 1 -32.47708 29.40918z"/><path d="m200.14771 325.36426a23.99866 23.99866 0 1 0 23.85229-21.36426 23.906 23.906 0 0 0 -16.111 6.22681 61.7183 61.7183 0 0 1 -9.63465-15.26441 31.909 31.909 0 0 0 6.20435-37.56592 72.23949 72.23949 0 0 1 21.46069-7.99609 24.00361 24.00361 0 1 0 -.962-16.0957 88.271 88.271 0 0 0 -31.40247 11.96 31.80617 31.80617 0 0 0 -17.55492-5.26469c-.06738 0-.13379.00464-.20105.00513a47.37688 47.37688 0 0 1 -.55347-16.02417c.2511.00781.50147.019.75452.019a24.03806 24.03806 0 1 0 -15.9375-6.07666 63.51291 63.51291 0 0 0 .25208 26.20068 32.1109 32.1109 0 0 0 -2.9535 1.88916 65.62566 65.62566 0 0 0 -36.31079-14.88379 23.99143 23.99143 0 1 0 6.937 17.37012 49.675 49.675 0 0 1 19.10828 9.78272 31.96244 31.96244 0 0 0 10.9281 40.176 34.2952 34.2952 0 0 1 -10.77684 15.22081 23.995 23.995 0 1 0 4.67114 16.21923 50.30573 50.30573 0 0 0 21.16077-26.03735c.96276.08761 1.93591.13912 2.92126.13912a31.92389 31.92389 0 0 0 8.29224-1.0957 77.74789 77.74789 0 0 0 15.85547 22.45996zm23.85229-5.36426a8 8 0 1 1 -8 8 8.00917 8.00917 0 0 1 8-8zm-48-128a8 8 0 1 1 -8 8 8.00917 8.00917 0 0 1 8-8zm-48 144a8 8 0 1 1 8-8 8.00917 8.00917 0 0 1 -8 8zm120-104a8 8 0 1 1 -8 8 8.00917 8.00917 0 0 1 8-8zm-144 24a8 8 0 1 1 8-8 8.00917 8.00917 0 0 1 -8 8zm56 16a16 16 0 1 1 16 16 16.01833 16.01833 0 0 1 -16-16z"/><path d="m482.03564 316.76514a55.98371 55.98371 0 0 0 -43.04464-78.49314 56.43127 56.43127 0 0 0 -2.51685-12.26123 56.004 56.004 0 0 0 -96.8175-17.898c-1.21021-.07837-2.42688-.13232-3.65662-.13232v16a40.04551 40.04551 0 0 1 40 40 64.36292 64.36292 0 0 1 -1.83447 14.18555l15.583 3.6289c.4458-1.91357.81762-3.78467 1.13171-5.61889.48132-.18775.97156-.39063 1.43957-.55689a37.75 37.75 0 0 1 29.53077 1.86524 40.83876 40.83876 0 0 1 20.668 23.88574 40.04532 40.04532 0 0 1 -25.67968 50.40234q-.60315.19629-1.23462.37988a114.721 114.721 0 0 0 -36.61847-23.61132l-5.88574 14.8789c14.897 5.89258 30 16.86328 37.58105 27.29785a40 40 0 0 1 -64.72021 47.02442q-.36969-.509-.73767-1.04956a110.3318 110.3318 0 0 0 8.15759-22.8274l-15.54981-3.76953c-2.63867 10.8877-6.93652 20.96387-11.791 27.64551a40.04423 40.04423 0 0 1 -55.87354 8.84766q-.62622-.45411-1.23-.92969l-9.873 12.5918c.55664.43554 1.124.86523 1.70019 1.2832a55.69888 55.69888 0 0 0 32.84177 10.67584c1.27954 0 2.55664-.05737 3.8313-.14429a55.81586 55.81586 0 0 0 6.22339 16.46851 39.64507 39.64507 0 0 1 -31.86866-1.66211 40.1555 40.1555 0 0 1 -22.09765-33.36816l-15.96973.99218a56.06459 56.06459 0 0 0 80.20679 47.01172 56.82731 56.82731 0 0 0 5.42212 4.49707 55.58162 55.58162 0 0 0 32.79638 10.707 56.75985 56.75985 0 0 0 8.87989-.70214 55.86617 55.86617 0 0 0 36.83008-22.6919c1.73645.16089 3.47119.24854 5.19921.24854a55.69792 55.69792 0 0 0 35.96192-13.166 56.285 56.285 0 0 0 18.91833-53.52783 56.25677 56.25677 0 0 0 13.6969-7.31787 55.99322 55.99322 0 0 0 10.3999-80.78955zm-90.2622-57.67432a56.12029 56.12029 0 0 0 -33.96253-46.68726 40.006 40.006 0 0 1 61.94324 47.18531 53.2246 53.2246 0 0 0 -27.98071-.49805zm42.55566 7.10449a56.04494 56.04494 0 0 0 3.79566-11.84082 39.97278 39.97278 0 0 1 31.165 50.96729 55.56321 55.56321 0 0 0 -10.55041-5.37647c-.29944-1.17529-.624-2.34912-1.004-3.51855a56.97851 56.97851 0 0 0 -23.40625-30.23145zm-75.80273 212.01169a39.9931 39.9931 0 0 1 -45.43946-31.47729 55.63847 55.63847 0 0 0 22.91309-15.86057 56.09775 56.09775 0 0 0 55.01074 17.8999 39.86921 39.86921 0 0 1 -32.48437 29.43796zm70.19238-32.04883a39.797 39.797 0 0 1 -22.97217 9.29956 55.802 55.802 0 0 0 2.45342-13.87716c1.02576-.6482 2.04114-1.32325 3.03638-2.04639a55.73964 55.73964 0 0 0 21.35562-31.62647 56.51884 56.51884 0 0 0 6.24732.354c1.14941 0 2.29431-.0459 3.436-.11621a40.20658 40.20658 0 0 1 -13.55657 38.0127zm49.5083-87.65136a39.99263 39.99263 0 0 1 -43.97363 33.48877 55.643 55.643 0 0 0 -7.9961-26.689 56.12 56.12 0 0 0 34.01123-46.76953 40.03019 40.03019 0 0 1 17.9585 39.96979z"/><path d="m336 351.98047a15.96868 15.96868 0 0 1 -10.66553-4.07324l-10.66992 11.92382a32.04551 32.04551 0 0 0 3.3551 2.61939 34.26422 34.26422 0 0 1 -17.6676 19.52808l6.81348 14.47656a50.28722 50.28722 0 0 0 25.91137-28.60816q1.45167.13257 2.9231.13355a31.92463 31.92463 0 0 0 8.29224-1.0957 77.73944 77.73944 0 0 0 15.85547 22.46 23.99866 23.99866 0 1 0 23.85229-21.3643 23.90571 23.90571 0 0 0 -16.11084 6.22681 61.722 61.722 0 0 1 -9.63489-15.26441 31.89167 31.89167 0 0 0 6.19983-37.56348 72.22321 72.22321 0 0 1 21.46533-7.99877 24.00354 24.00354 0 1 0 -.96191-16.09571 88.26253 88.26253 0 0 0 -31.3916 11.95288 31.85286 31.85286 0 0 0 -6.8999-3.43506l-5.332 15.08594a16.00415 16.00415 0 0 1 -5.33402 31.0918zm48 32a8 8 0 1 1 -8 8 8.00917 8.00917 0 0 1 8-8zm24-88a8 8 0 1 1 -8 8 8.00917 8.00917 0 0 1 8-8z"/><path d="m65.27441 462.874-44.2456 17.69825 5.94238 14.85546 44.24561-17.69822a633.51073 633.51073 0 0 0 68.625-32.36035l-7.68262-14.03514a617.40308 617.40308 0 0 1 -66.88477 31.54z"/><path d="m68.78906 397.96582c-15.45508 6.77148-31.397 12.98535-47.38379 18.4668l5.18994 15.13476c16.40235-5.624 32.75879-11.999 48.61573-18.94726z"/><path d="m344 144 .00049 15.63379c-4.6919 7.543-9.59815 15.06152-14.60352 22.37891l13.20606 9.0332c5.57226-8.14649 11.02441-16.53516 16.20605-24.93457a8.00093 8.00093 0 0 0 1.19141-4.2002l-.00049-17.91113a128.9017 128.9017 0 0 0 -21.5752-71.11133l6.86866-6.86816a133.37051 133.37051 0 0 1 33.53735 29.34082q-4.80322 10.27734-9.948 20.33984l14.23438 7.30664a633.29825 633.29825 0 0 0 30.71826-69.99121l7.74267-21.0166h15.57129l-12.97461 41.918a616.4165 616.4165 0 0 1 -40.08154 98.43555l14.24121 7.293a632.443 632.443 0 0 0 41.12453-100.99811l16.18311-52.28321a8.00015 8.00015 0 0 0 -7.64211-10.36523h-32a7.9996 7.9996 0 0 0 -7.50684 5.23438l-9.67138 26.251q-5.89967 16.01258-12.73987 31.76953a149.45933 149.45933 0 0 0 -38.19666-30.248 7.99793 7.99793 0 0 0 -9.542 1.33593l-16 16a8 8 0 0 0 -.74316 10.457 112.70022 112.70022 0 0 1 22.39991 67.20016z"/></g></svg>
