<?xml version="1.0" encoding="iso-8859-1"?>
<!-- Generator: Adobe Illustrator 19.0.0, SVG Export Plug-In . SVG Version: 6.00 Build 0)  -->
<svg version="1.1" id="Capa_1" xmlns="http://www.w3.org/2000/svg" xmlns:xlink="http://www.w3.org/1999/xlink" x="0px" y="0px"
	 viewBox="0 0 512.001 512.001" style="enable-background:new 0 0 512.001 512.001;" xml:space="preserve">
<path style="fill:#E6AF78;" d="M69.079,40.261h70.983V72.96c0,17.397-4.05,34.554-11.83,50.115l0,0v59.152H80.909v-59.152l0,0
	c-7.78-15.56-11.83-32.718-11.83-50.115C69.079,72.96,69.079,40.261,69.079,40.261z M371.938,40.261V72.96
	c0,17.397,4.05,34.554,11.83,50.115l0,0v59.152h47.322v-59.152l0,0c7.78-15.56,11.83-32.718,11.83-50.115V40.261H371.938z"/>
<path style="fill:#CE8855;" d="M368.602,444.316c13.403,0,24.268,10.865,24.268,24.268v14.561h-48.535v-14.561
	C344.334,455.181,355.199,444.316,368.602,444.316z M157.959,356.953h-29.121c-5.361,0-9.707,4.346-9.707,9.707v67.949
	c0,5.361,4.346,9.707,9.707,9.707h14.56c-13.403,0-24.268,10.865-24.268,24.268v14.561h48.535v-14.561
	c0-13.403-10.865-24.268-24.268-24.268h14.561c5.361,0,9.707-4.346,9.707-9.707V366.66
	C167.666,361.299,163.32,356.953,157.959,356.953z M80.303,356.953H51.182c-5.361,0-9.707,4.346-9.707,9.707v67.949
	c0,5.361,4.346,9.707,9.707,9.707h14.56c-13.403,0-24.268,10.865-24.268,24.268v14.561H90.01v-14.561
	c0-13.403-10.865-24.268-24.268-24.268h14.561c5.361,0,9.707-4.346,9.707-9.707V366.66C90.01,361.299,85.664,356.953,80.303,356.953
	z M383.162,356.953h-29.121c-5.361,0-9.707,4.346-9.707,9.707v67.949c0,5.361,4.346,9.707,9.707,9.707h14.561h14.561
	c5.361,0,9.707-4.346,9.707-9.707V366.66C392.869,361.299,388.523,356.953,383.162,356.953z M421.99,468.585v14.561h48.535v-14.561
	c0-13.403-10.865-24.268-24.268-24.268S421.99,455.181,421.99,468.585z M470.525,434.609V366.66c0-5.361-4.346-9.707-9.707-9.707
	h-29.121c-5.361,0-9.707,4.346-9.707,9.707v67.949c0,5.361,4.346,9.707,9.707,9.707h14.561h14.561
	C466.179,444.316,470.525,439.971,470.525,434.609z"/>
<g>
	<path style="fill:#C37A4F;" d="M460.818,444.316h-14.561h-1.456v-87.363h16.017c5.361,0,9.707,4.346,9.707,9.707v67.949
		C470.525,439.971,466.179,444.316,460.818,444.316z M444.802,483.145h25.724v-14.561c0-13.403-10.865-24.268-24.268-24.268
		c-0.489,0-0.974,0.019-1.456,0.047V483.145z"/>
	<path style="fill:#C37A4F;" d="M196.281,371.053c0.271,2.85-1.969,5.314-4.832,5.314H17.691c-2.862,0-5.103-2.464-4.832-5.314
		l18.49-194.141c0.237-2.491,2.329-4.393,4.832-4.393H172.96c2.502,0,4.594,1.902,4.832,4.393L196.281,371.053z M499.14,371.053
		l-18.49-194.141c-0.237-2.491-2.329-4.393-4.832-4.393H339.04c-2.502,0-4.594,1.902-4.832,4.393l-18.49,194.141
		c-0.271,2.85,1.969,5.314,4.832,5.314h173.758C497.171,376.367,499.412,373.904,499.14,371.053z"/>
</g>
<path style="fill:#CE8855;" d="M188.051,175.956v15.977v9.707v87.363c0,5.361-4.346,9.707-9.707,9.707h-29.121
	c-5.361,0-9.707-4.346-9.707-9.707v-67.949c0-10.722-8.692-19.414-19.414-19.414H89.039c-10.722,0-19.414,8.692-19.414,19.414
	v67.949c0,5.361-4.346,9.707-9.707,9.707H30.797c-5.361,0-9.707-4.346-9.707-9.707V201.64v-9.707v-15.977
	c0-7.939,4.833-15.077,12.204-18.025l36.331-14.533v-9.707c0-5.361,4.346-9.707,9.707-9.707h50.477c5.361,0,9.707,4.346,9.707,9.707
	v9.707l36.331,14.533C183.218,160.879,188.051,168.018,188.051,175.956z M478.706,157.931l-36.331-14.533v-9.707
	c0-5.361-4.346-9.707-9.707-9.707h-50.477c-5.361,0-9.707,4.346-9.707,9.707v9.707l-36.331,14.533
	c-7.371,2.948-12.204,10.087-12.204,18.025v15.977v9.707v87.363c0,5.361,4.346,9.707,9.707,9.707h29.121
	c5.361,0,9.707-4.346,9.707-9.707v-67.949c0-10.722,8.692-19.414,19.414-19.414h31.063c10.722,0,19.414,8.692,19.414,19.414v67.949
	c0,5.361,4.346,9.707,9.707,9.707h29.121c5.361,0,9.707-4.346,9.707-9.707V201.64v-9.707v-15.977
	C490.91,168.018,486.077,160.879,478.706,157.931z"/>
<path style="fill:#C37A4F;" d="M490.91,175.956v15.977v9.707v87.363c0,5.361-4.346,9.707-9.707,9.707h-19.414v-76.362v-9.707
	v-15.977c0-7.939-4.833-15.077-12.204-18.026l-36.331-14.533V154.4c0-4.58-3.176-8.409-7.442-9.43v-20.985h26.856
	c5.361,0,9.707,4.346,9.707,9.707v9.707l36.331,14.533C486.077,160.879,490.91,168.018,490.91,175.956z"/>
<path style="fill:#E6AF78;" d="M41.475,279.297v19.414c0,5.361-4.346,9.707-9.707,9.707H17.207c-5.361,0-9.707-4.346-9.707-9.707
	v-19.414c0-5.361,4.346-9.707,9.707-9.707h14.561C37.129,269.59,41.475,273.936,41.475,279.297z M494.793,269.59h-14.561
	c-5.361,0-9.707,4.346-9.707,9.707v19.414c0,5.361,4.346,9.707,9.707,9.707h14.561c5.361,0,9.707-4.346,9.707-9.707v-19.414
	C504.5,273.936,500.154,269.59,494.793,269.59z"/>
<path style="fill:#F0C087;" d="M291.491,40.261V72.96c0,17.397-4.05,34.554-11.83,50.115l0,0v59.152h-47.322v-59.152l0,0
	c-7.78-15.56-11.83-32.718-11.83-50.115V40.261H291.491z"/>
<path style="fill:#E6AF78;" d="M241.439,366.66v67.949c0,5.361-4.346,9.707-9.707,9.707h-14.561
	c13.403,0,24.268,10.865,24.268,24.268v14.561h-48.535v-14.561c0-13.403,10.865-24.268,24.268-24.268h-14.56
	c-5.361,0-9.707-4.346-9.707-9.707V366.66c0-5.361,4.346-9.707,9.707-9.707h29.121C237.093,356.953,241.439,361.299,241.439,366.66z
	 M319.096,434.609V366.66c0-5.361-4.346-9.707-9.707-9.707h-29.121c-5.361,0-9.707,4.346-9.707,9.707v67.949
	c0,5.361,4.346,9.707,9.707,9.707h14.56c-13.403,0-24.268,10.865-24.268,24.268v14.561h48.535v-14.561
	c0-13.403-10.865-24.268-24.268-24.268h14.561C314.75,444.316,319.096,439.971,319.096,434.609z"/>
<path style="fill:#D5945E;" d="M329.221,176.913l18.49,194.141c0.271,2.849-1.969,5.314-4.832,5.314H169.121
	c-2.862,0-5.103-2.464-4.832-5.314l18.49-194.141c0.237-2.491,2.329-4.393,4.832-4.393H324.39
	C326.892,172.52,328.984,174.422,329.221,176.913z"/>
<path style="fill:#E6AF78;" d="M339.48,175.956v15.977v9.707v87.363c0,5.361-4.346,9.707-9.707,9.707h-29.121
	c-5.361,0-9.707-4.346-9.707-9.707v-67.949c0-10.722-8.692-19.414-19.414-19.414h-31.063c-10.722,0-19.414,8.692-19.414,19.414
	v67.949c0,5.361-4.346,9.707-9.707,9.707h-29.121c-5.361,0-9.707-4.346-9.707-9.707V201.64v-9.707v-15.977
	c0-7.938,4.833-15.077,12.204-18.025l36.331-14.533v-9.707c0-5.361,4.346-9.707,9.707-9.707h50.477c5.361,0,9.707,4.346,9.707,9.707
	v9.707l36.331,14.533C334.647,160.879,339.48,168.018,339.48,175.956z"/>
<path style="fill:#F0C087;" d="M192.904,279.297v19.414c0,5.361-4.346,9.707-9.707,9.707h-14.561c-5.361,0-9.707-4.346-9.707-9.707
	v-19.414c0-5.361,4.346-9.707,9.707-9.707h14.561C188.558,269.59,192.904,273.936,192.904,279.297z M343.363,269.59h-14.561
	c-5.361,0-9.707,4.346-9.707,9.707v19.414c0,5.361,4.346,9.707,9.707,9.707h14.561c5.361,0,9.707-4.346,9.707-9.707v-19.414
	C353.07,273.936,348.724,269.59,343.363,269.59z"/>
<path style="fill:#D5945E;" d="M148.252,46.328v4.854c0,2.681-2.173,4.854-4.854,4.854H65.742c-2.681,0-4.854-2.173-4.854-4.854
	v-4.854c0-10.722,8.692-19.414,19.414-19.414h4.854v-14.56c0-2.681,2.173-4.854,4.854-4.854h29.121c2.681,0,4.854,2.173,4.854,4.854
	v14.561h4.854C139.56,26.914,148.252,35.606,148.252,46.328z M431.697,26.914h-4.854v-14.56c0-2.681-2.173-4.854-4.854-4.854
	h-29.121c-2.681,0-4.854,2.173-4.854,4.854v14.561h-4.854c-10.722,0-19.414,8.692-19.414,19.414v4.854
	c0,2.681,2.173,4.854,4.854,4.854h77.656c2.681,0,4.854-2.173,4.854-4.854v-4.854C451.111,35.606,442.419,26.914,431.697,26.914z
	 M280.268,26.914h-4.854v-14.56c0-2.681-2.173-4.854-4.854-4.854h-29.121c-2.681,0-4.854,2.173-4.854,4.854v14.561h-4.854
	c-10.722,0-19.414,8.692-19.414,19.414v4.854c0,2.681,2.173,4.854,4.854,4.854h77.656c2.681,0,4.854-2.173,4.854-4.854v-4.854
	C299.682,35.606,290.99,26.914,280.268,26.914z"/>
<path style="fill:#C37A4F;" d="M504.5,480.232v19.414c0,2.681-2.173,4.854-4.854,4.854H12.354c-2.681,0-4.854-2.173-4.854-4.854
	v-19.414c0-2.681,2.173-4.854,4.854-4.854h487.293C502.327,475.379,504.5,477.552,504.5,480.232z"/>
<path d="M512,298.418V279.59c0-8.304-5.819-15.261-13.59-17.044v-86.589c0-11.069-6.641-20.878-16.918-24.989l-31.617-12.647v-4.629
	c0-6.356-3.473-11.904-8.612-14.884c6.001-14.487,9.158-30.174,9.158-45.847V62.798c4.766-1.714,8.19-6.267,8.19-11.616v-4.854
	c0-13.947-10.665-25.451-24.268-26.785v-7.189C434.344,5.542,428.802,0,421.99,0h-29.121c-6.812,0-12.354,5.542-12.354,12.354v7.189
	c-13.603,1.334-24.268,12.838-24.268,26.785v4.854c0,5.349,3.424,9.902,8.19,11.616V72.96c0,15.674,3.157,31.361,9.158,45.847
	c-5.139,2.98-8.612,8.528-8.612,14.884v4.629l-31.617,12.647c-0.538,0.215-1.032,0.49-1.488,0.807
	c-0.592-0.288-1.197-0.559-1.816-0.807l-31.617-12.647v-4.629c0-6.356-3.473-11.904-8.612-14.884
	c6.001-14.487,9.158-30.174,9.158-45.847V62.798c4.766-1.714,8.19-6.267,8.19-11.616v-4.854c0-13.947-10.665-25.451-24.268-26.785
	v-7.189C282.914,5.542,277.372,0,270.561,0H241.44c-6.812,0-12.354,5.542-12.354,12.354v7.189
	c-13.603,1.334-24.268,12.838-24.268,26.785v4.854c0,5.349,3.424,9.902,8.19,11.616V72.96c0,15.674,3.157,31.361,9.158,45.847
	c-5.139,2.98-8.612,8.528-8.612,14.884v4.629l-31.618,12.647c-0.559,0.224-1.1,0.481-1.64,0.74c-0.547-0.263-1.1-0.515-1.664-0.74
	l-31.617-12.647v-4.629c0-6.356-3.473-11.904-8.612-14.884c6.001-14.487,9.158-30.174,9.158-45.847V62.798
	c4.766-1.714,8.19-6.267,8.19-11.616v-4.854c0-13.947-10.665-25.451-24.268-26.785v-7.189C131.484,5.542,125.942,0,119.131,0H90.01
	c-6.812,0-12.354,5.542-12.354,12.354v7.189c-13.603,1.334-24.268,12.838-24.268,26.785v4.854c0,5.349,3.424,9.902,8.19,11.616
	V72.96c0,15.674,3.157,31.361,9.158,45.847c-5.139,2.98-8.612,8.528-8.612,14.884v4.629l-31.617,12.647
	c-10.277,4.111-16.918,13.919-16.918,24.989v86.589C5.819,264.329,0,271.286,0,279.59v18.828c0,7.242,4.422,13.47,10.708,16.127
	l-5.314,55.799c-0.329,3.457,0.823,6.912,3.159,9.481s5.667,4.042,9.14,4.042h16.283v50.742c0,5.729,2.826,10.8,7.145,13.929
	c-4.324,5.301-6.967,12.02-7.127,19.34h-21.64C5.542,467.879,0,473.421,0,480.232v19.414C0,506.458,5.542,512,12.354,512h487.293
	c6.812,0,12.354-5.542,12.354-12.354v-19.414c0-6.812-5.542-12.354-12.354-12.354h-21.639c-0.161-7.321-2.803-14.039-7.127-19.34
	c4.319-3.129,7.145-8.2,7.145-13.929v-50.742h16.283c3.472,0,6.804-1.473,9.14-4.042c2.336-2.569,3.487-6.024,3.159-9.482
	l-5.314-55.798C507.578,311.888,512,305.66,512,298.418z M494.5,277.09c1.378,0,2.5,1.122,2.5,2.5v18.828c0,1.378-1.122,2.5-2.5,2.5
	h-13.975c-1.378,0-2.5-1.122-2.5-2.5V279.59c0-1.378,1.122-2.5,2.5-2.5H494.5z M388.936,116.484
	c-6.219-13.603-9.498-28.572-9.498-43.524v-9.425h55.982v9.425c0,14.953-3.279,29.922-9.498,43.524
	C425.922,116.484,388.936,116.484,388.936,116.484z M371.248,46.328c0-6.569,5.345-11.914,11.914-11.914h4.854
	c4.142,0,7.5-3.358,7.5-7.5V15h23.828v11.914c0,4.142,3.358,7.5,7.5,7.5h4.854c6.569,0,11.914,5.345,11.914,11.914v2.207h-72.363
	v-2.207H371.248z M237.506,116.484c-6.219-13.603-9.498-28.572-9.498-43.524v-9.425h55.982v9.425
	c0,14.953-3.279,29.922-9.498,43.524C274.492,116.484,237.506,116.484,237.506,116.484z M219.818,46.328
	c0-6.569,5.345-11.914,11.914-11.914h4.854c4.142,0,7.5-3.358,7.5-7.5V15h23.828v11.914c0,4.142,3.358,7.5,7.5,7.5h4.854
	c6.569,0,11.914,5.345,11.914,11.914v2.207h-72.363v-2.207H219.818z M86.077,116.484c-6.219-13.603-9.498-28.572-9.498-43.524
	v-9.425h55.982v9.425c0,14.953-3.279,29.922-9.498,43.524C123.063,116.484,86.077,116.484,86.077,116.484z M68.389,46.328
	c0-6.569,5.345-11.914,11.914-11.914h4.854c4.142,0,7.5-3.358,7.5-7.5V15h23.828v11.914c0,4.142,3.358,7.5,7.5,7.5h4.854
	c6.569,0,11.914,5.345,11.914,11.914v2.207H68.389V46.328z M36.079,164.895l36.332-14.533c2.847-1.139,4.714-3.896,4.714-6.963
	v-9.707c0-1.217,0.99-2.207,2.207-2.207H97.07v31.328c0,4.142,3.358,7.5,7.5,7.5s7.5-3.358,7.5-7.5v-31.328h17.738
	c1.217,0,2.207,0.99,2.207,2.207v9.707c0,3.067,1.867,5.825,4.714,6.963l31.621,12.648c-2.156,3.93-3.331,8.376-3.331,12.946v26.007
	c0,4.142,3.358,7.5,7.5,7.5s7.5-3.358,7.5-7.5v-26.007c0-3.387,1.448-6.625,3.973-8.883c1.037-0.927,2.22-1.66,3.516-2.179
	l36.332-14.533c2.847-1.139,4.714-3.896,4.714-6.963v-9.707c0-1.217,0.99-2.207,2.207-2.207H248.5v31.328c0,4.142,3.358,7.5,7.5,7.5
	s7.5-3.358,7.5-7.5v-31.328h17.738c1.217,0,2.207,0.99,2.207,2.207v9.707c0,3.067,1.867,5.825,4.714,6.963l36.332,14.533
	c4.55,1.82,7.489,6.162,7.489,11.062v25.684c0,4.142,3.358,7.5,7.5,7.5s7.5-3.358,7.5-7.5v-25.684c0-4.653-1.186-9.077-3.31-12.955
	l31.6-12.64c2.847-1.139,4.714-3.896,4.714-6.963v-9.707c0-1.217,0.99-2.207,2.207-2.207h17.738v31.328c0,4.142,3.358,7.5,7.5,7.5
	s7.5-3.358,7.5-7.5v-31.328h17.738c1.217,0,2.207,0.99,2.207,2.207v9.707c0,3.067,1.867,5.825,4.714,6.963l36.332,14.533
	c4.55,1.82,7.489,6.162,7.489,11.062v86.133h-2.885c-9.649,0-17.5,7.851-17.5,17.5v11.621h-10.943c-1.217,0-2.207-0.99-2.207-2.207
	v-67.949c0-14.84-12.074-26.914-26.914-26.914h-31.063c-14.84,0-26.914,12.074-26.914,26.914v67.949c0,1.217-0.99,2.207-2.207,2.207
	h-2.207v-11.62c0-8.304-5.819-15.261-13.59-17.044v-33.402c0-4.142-3.358-7.5-7.5-7.5s-7.5,3.358-7.5,7.5v32.946h-2.885
	c-9.649,0-17.5,7.851-17.5,17.5v11.621h-10.943c-1.217,0-2.207-0.99-2.207-2.207v-67.949c0-14.84-12.074-26.914-26.914-26.914
	h-31.063c-14.84,0-26.914,12.074-26.914,26.914v67.949c0,1.217-0.99,2.207-2.207,2.207h-10.943V279.59c0-9.649-7.851-17.5-17.5-17.5
	h-2.885v-30.358c0-4.142-3.358-7.5-7.5-7.5s-7.5,3.358-7.5,7.5v30.814c-7.771,1.783-13.59,8.74-13.59,17.044v11.621h-2.207
	c-1.217,0-2.207-0.99-2.207-2.207v-67.949c0-14.84-12.074-26.914-26.914-26.914H89.039c-14.84,0-26.914,12.074-26.914,26.914v67.949
	c0,1.217-0.99,2.207-2.207,2.207H48.975V279.59c0-9.649-7.851-17.5-17.5-17.5H28.59v-86.133
	C28.59,171.057,31.529,166.714,36.079,164.895z M336.852,467.879h-10.274c-0.161-7.321-2.803-14.039-7.127-19.34
	c4.319-3.129,7.145-8.2,7.145-13.929v-50.742h10.238v50.742c0,5.729,2.826,10.8,7.145,13.929
	C339.655,453.84,337.013,460.559,336.852,467.879z M97.492,467.879c-0.161-7.321-2.803-14.039-7.127-19.34
	c4.319-3.129,7.145-8.2,7.145-13.929v-50.742h14.121v50.742c0,5.729,2.826,10.8,7.145,13.929c-4.324,5.301-6.967,12.02-7.127,19.34
	H97.492z M143.398,451.816c9.008,0,16.358,7.145,16.732,16.063h-33.464C127.04,458.961,134.391,451.816,143.398,451.816z
	 M198.55,306.211h12.797c9.488,0,17.207-7.719,17.207-17.207v-67.949c0-6.569,5.345-11.914,11.914-11.914h31.063
	c6.569,0,11.914,5.345,11.914,11.914v67.949c0,9.488,7.719,17.207,17.207,17.207h12.797c2.873,5.744,8.798,9.707,15.646,9.707h5.83
	l5.043,52.949H172.031l5.043-52.949h5.83C189.752,315.918,195.677,311.955,198.55,306.211z M343.07,277.09
	c1.378,0,2.5,1.122,2.5,2.5v18.828c0,1.378-1.122,2.5-2.5,2.5h-13.975c-1.378,0-2.5-1.122-2.5-2.5V279.59c0-1.378,1.122-2.5,2.5-2.5
	H343.07z M311.596,434.609c0,1.217-0.99,2.207-2.207,2.207h-29.121c-1.217,0-2.207-0.99-2.207-2.207v-50.742h33.535V434.609z
	 M233.939,434.609c0,1.217-0.99,2.207-2.207,2.207h-29.121c-1.217,0-2.207-0.99-2.207-2.207v-50.742h33.535V434.609z
	 M185.404,298.418c0,1.378-1.122,2.5-2.5,2.5H168.93c-1.378,0-2.5-1.122-2.5-2.5V279.59c0-1.378,1.122-2.5,2.5-2.5h13.975
	c1.378,0,2.5,1.122,2.5,2.5L185.404,298.418L185.404,298.418z M175.148,467.879c-0.161-7.321-2.803-14.039-7.127-19.34
	c4.319-3.129,7.145-8.2,7.145-13.929v-50.742h10.238v50.742c0,5.729,2.826,10.8,7.145,13.929c-4.324,5.301-6.967,12.02-7.127,19.34
	H175.148z M217.172,451.816c9.008,0,16.358,7.145,16.732,16.063H200.44C200.813,458.961,208.164,451.816,217.172,451.816z
	 M248.922,467.879c-0.161-7.321-2.803-14.039-7.127-19.34c4.319-3.129,7.145-8.2,7.145-13.929v-50.742h14.121v50.742
	c0,5.729,2.826,10.8,7.145,13.929c-4.324,5.301-6.967,12.02-7.127,19.34H248.922z M294.828,451.816
	c9.008,0,16.358,7.145,16.732,16.063h-33.464C278.47,458.961,285.82,451.816,294.828,451.816z M17.5,300.918
	c-1.378,0-2.5-1.122-2.5-2.5V279.59c0-1.378,1.122-2.5,2.5-2.5h13.975c1.378,0,2.5,1.122,2.5,2.5v18.828c0,1.378-1.122,2.5-2.5,2.5
	H17.5z M25.645,315.918h5.83c6.848,0,12.773-3.963,15.646-9.707h12.797c9.488,0,17.207-7.719,17.207-17.207v-67.949
	c0-6.569,5.345-11.914,11.914-11.914h31.063c6.569,0,11.914,5.345,11.914,11.914v67.949c0,9.488,7.719,17.207,17.207,17.207h4.061
	c1.863,3.725,5,6.705,8.854,8.334l-5.314,55.799c-0.329,3.457,0.823,6.912,3.159,9.481c0.059,0.064,0.125,0.12,0.185,0.183v54.602
	c0,1.217-0.99,2.207-2.207,2.207H128.84c-1.217,0-2.207-0.99-2.207-2.207v-50.742h9.973c4.142,0,7.5-3.358,7.5-7.5
	s-3.358-7.5-7.5-7.5H20.602L25.645,315.918z M82.51,383.867v50.742c0,1.217-0.99,2.207-2.207,2.207H51.182
	c-1.217,0-2.207-0.99-2.207-2.207v-50.742H82.51z M65.742,451.816c9.008,0,16.358,7.145,16.732,16.063H49.01
	C49.384,458.961,56.735,451.816,65.742,451.816z M497,497H15v-14.121h335.158c4.142,0,7.5-3.358,7.5-7.5
	c0-3.556-2.477-6.527-5.798-7.299c0.27-9.011,7.667-16.264,16.742-16.264c9.008,0,16.358,7.145,16.732,16.063h-2.819
	c-4.142,0-7.5,3.358-7.5,7.5s3.358,7.5,7.5,7.5H497V497z M414.49,383.867v50.742c0,5.729,2.826,10.8,7.145,13.929
	c-4.324,5.301-6.967,12.02-7.127,19.34h-14.157c-0.161-7.321-2.803-14.039-7.127-19.34c4.319-3.129,7.145-8.2,7.145-13.929v-50.742
	H414.49z M429.526,467.879c0.373-8.917,7.724-16.063,16.732-16.063s16.358,7.145,16.732,16.063H429.526z M463.025,434.609
	c0,1.217-0.99,2.207-2.207,2.207h-29.121c-1.217,0-2.207-0.99-2.207-2.207v-50.742h33.535V434.609z M374.103,368.867
	c-4.142,0-7.5,3.358-7.5,7.5s3.358,7.5,7.5,7.5h11.267v50.742c0,1.217-0.99,2.207-2.207,2.207h-29.121
	c-1.217,0-2.207-0.99-2.207-2.207v-54.602c0.06-0.063,0.126-0.118,0.185-0.183c2.336-2.569,3.487-6.024,3.159-9.482l-5.314-55.798
	c3.854-1.629,6.991-4.61,8.854-8.334h4.061c9.488,0,17.207-7.719,17.207-17.207v-67.949c0-6.569,5.345-11.914,11.914-11.914h31.063
	c6.569,0,11.914,5.345,11.914,11.914v67.949c0,9.488,7.719,17.207,17.207,17.207h12.797c2.873,5.744,8.798,9.707,15.646,9.707h5.83
	l5.043,52.949L374.103,368.867L374.103,368.867z"/>
<g>
</g>
<g>
</g>
<g>
</g>
<g>
</g>
<g>
</g>
<g>
</g>
<g>
</g>
<g>
</g>
<g>
</g>
<g>
</g>
<g>
</g>
<g>
</g>
<g>
</g>
<g>
</g>
<g>
</g>
</svg>
