<?xml version="1.0"?>
<svg xmlns="http://www.w3.org/2000/svg" viewBox="0 0 512 512" width="512" height="512"><g id="Fill_out_line" data-name="Fill out line"><path d="M495.99,176.41c-.21,8.7-7.61,15.48-16.31006,15.59A24.00164,24.00164,0,0,0,456,215.86c-.1,17.65-13.88,32.14-31.53,32.14H340.78c-40.16,35.27-15.68994,80,19.22,80a32.004,32.004,0,0,1,32,32,15.99555,15.99555,0,0,0,16,16c13.89,0,23.63,17.68,7.97,31.77A135.84138,135.84138,0,0,1,272.02,274.22c-.01-.74-.02-1.48-.02-2.22,0-1.81.04-3.61.11-5.41A255.63141,255.63141,0,0,1,480,160a15.95118,15.95118,0,0,1,9.37,3.02c.12.09.23.18.35.26A15.98932,15.98932,0,0,1,495.99,176.41Z" style="fill:#e5585a"/><path d="M421.03,121.53A39.99656,39.99656,0,0,0,392,160a103.48871,103.48871,0,0,1-18.9,59.79,104.57845,104.57845,0,0,1-21.16,22.24A104.14664,104.14664,0,0,1,272,262.77V256a15.99555,15.99555,0,0,0,16-16,32.004,32.004,0,0,1,32-32,32.004,32.004,0,0,0,32-32,56.02631,56.02631,0,0,1,69.03-54.47Z" style="fill:#d6323f"/><path d="M284.96,242.35c0,.47,0,.95-.01,1.42A78.465,78.465,0,0,1,282.37,262.24a311.16093,311.16093,0,0,0-49.58,44.43l-15.14,16.82a104.02225,104.02225,0,0,1,9.25-201.35l6.67,23.36a77.81113,77.81113,0,0,0,24.2,37.73A77.89084,77.89084,0,0,1,284.96,242.35Z" style="fill:#d6323f"/><path d="M336,272c20.69044,0,35.28484,26.213,12.36972,47.22546A96.065,96.065,0,0,1,244.54,253.24,79.622,79.622,0,0,0,296,272Z" style="fill:#d6323f"/><path d="M280.05369,399.69637A104.00994,104.00994,0,0,1,168,296q0-4.035.3-8H192a40.00174,40.00174,0,0,0,40,40,24.00619,24.00619,0,0,1,24,24,15.99555,15.99555,0,0,0,16,16C285.8649,368,295.5967,385.61292,280.05369,399.69637Z" style="fill:#d6323f"/><path d="M288.09009,258.21a312.08359,312.08359,0,0,0-40.68018,33.29Q239.85,298.82,232.79,306.67l-20.99,23.33c-.76.85-1.54,1.67-2.34009,2.47a66.4494,66.4494,0,0,1-20.02,13.78c-1.05994.47-2.13989.92-3.22,1.33a66.40818,66.40818,0,0,1-58-5.05l-20.1-12.06L33.84009,285.9A20.263,20.263,0,0,1,35.2,250.4L112.27,211.86l2.68994-1.34a96.0019,96.0019,0,0,1,100.48,9.06,95.98881,95.98881,0,0,0,36.76,16.91L285.26,243.84A7.98785,7.98785,0,0,1,288.09009,258.21Z" style="fill:#e04446"/><path d="M104,296l96-8-46.1537,32.96693a16,16,0,0,1-19.29493-.52584Z" style="fill:#ce2337"/><path d="M128,268a107.61784,107.61784,0,0,1-19.88,62.47L33.84009,285.9A20.263,20.263,0,0,1,35.2,250.4L112.27,211.86A107.45126,107.45126,0,0,1,128,268Z" style="fill:#d6323f"/><circle cx="72" cy="256" r="24" style="fill:#d4e4f0"/><path d="M247.40991,291.5Q239.85,298.82,232.79,306.67l-20.99,23.33c-.76.85-1.54,1.67-2.34009,2.47A64.94325,64.94325,0,0,0,213.04,255.56l-4.88013-7.33C228.12,250.44,244.2,268.41,247.40991,291.5Z" style="fill:#e04446"/><circle cx="72" cy="256" r="8"/><path d="M494.58838,156.93213q-.1267-.09741-.25781-.18994l-.16895-.12842c-.03516-.02637-.0708-.05273-.10693-.07861A23.8524,23.8524,0,0,0,480,152a263.4262,263.4262,0,0,0-80.08423,12.37463Q399.99927,162.19348,400,160a32.10131,32.10131,0,0,1,23.21582-30.77441,8,8,0,0,0-.32422-15.47608A63.98858,63.98858,0,0,0,344,176a24.02687,24.02687,0,0,1-24,24,39.93933,39.93933,0,0,0-31.41284,15.28113,85.79733,85.79733,0,0,0-25.61206-38.12634,69.60235,69.60235,0,0,1-21.7124-33.85157l-6.67041-23.35986a8.00068,8.00068,0,0,0-9.30665-5.63867,112.07042,112.07042,0,0,0-85.185,79.629,103.89946,103.89946,0,0,0-28.72217,9.433L69.96936,224.07123A31.94155,31.94155,0,0,0,47.71265,235.1994l-16.08716,8.04376A28.1117,28.1117,0,0,0,16,268.52539a28.40812,28.40812,0,0,0,13.72314,24.23828l94.37793,56.62647a74.17541,74.17541,0,0,0,54.72437,8.75238A112.59743,112.59743,0,0,0,272,408a24,24,0,0,0,0-48,8.00917,8.00917,0,0,1-8-8,32.036,32.036,0,0,0-32-32c-.14319,0-.28491-.00867-.42786-.0105l20.58509-22.87231c1.62756-1.80835,3.30249-3.56836,5.00268-5.3017a103.84976,103.84976,0,0,0,9.94727,10.05212A144.08708,144.08708,0,0,0,408,416a24,24,0,0,0,0-48,8.00917,8.00917,0,0,1-8-8,40.04521,40.04521,0,0,0-40-40c-.91724,0-1.82739-.04291-2.73083-.11853a31.97417,31.97417,0,0,0-18.56971-55.75922A31.99746,31.99746,0,0,1,360,256h64a40.04521,40.04521,0,0,0,40-40,16.01833,16.01833,0,0,1,16-16,24.0071,24.0071,0,0,0,14.58838-43.06787ZM320,216a40.04521,40.04521,0,0,0,40-40,48.01289,48.01289,0,0,1,34.68555-46.13184A48.01438,48.01438,0,0,0,384,160a95.33526,95.33526,0,0,1-17.44385,55.18848,96.48227,96.48227,0,0,1-19.53955,20.53564,95.39069,95.39069,0,0,1-48.83276,19.72382,16.07549,16.07549,0,0,0-2.31482-13.07575c.07751-.78692.131-1.57715.131-2.37219A24.02687,24.02687,0,0,1,320,216Zm-98.67578-84.25,4.55322,15.94531a85.55714,85.55714,0,0,0,26.68555,41.6084,69.767,69.767,0,0,1,23.83716,44.3678l-22.46265-4.99182a87.67624,87.67624,0,0,1-19.2843-6.705A17.77524,17.77524,0,0,1,248,216V200a33.65848,33.65848,0,0,0-27.15015,13.62543c-.20153-.1485-.40576-.292-.6062-.44232a104.067,104.067,0,0,0-8.74048-5.88373A30.91894,30.91894,0,0,1,233.314,191.8916L230.686,176.1084a47.02682,47.02682,0,0,0-33.495,24.01941,103.809,103.809,0,0,0-10.35193-3.60474,44.33724,44.33724,0,0,1,31.10132-28.76184l-3.88086-15.52246A60.4237,60.4237,0,0,0,171.08276,193.239c-1.2882-.165-2.5802-.31054-3.87719-.42749-3.29444-.297-6.58985-.42419-9.87745-.40753A96.09563,96.09563,0,0,1,221.32422,131.75ZM72,240a16,16,0,1,1-16,16A16.01833,16.01833,0,0,1,72,240ZM32,268.52539a12.1997,12.1997,0,0,1,6.78076-10.97168l1.24292-.62146a31.9946,31.9946,0,1,0,51.89673-25.94836l17.108-8.554A99.90617,99.90617,0,0,1,120,268a99.30783,99.30783,0,0,1-14.36023,51.65454L37.95508,279.044A12.32824,12.32824,0,0,1,32,268.52539Zm98.99658,33.25269,40.69824-3.39136L149.19629,314.457a8.0296,8.0296,0,0,1-9.64746-.26318l-9.99243-7.994Q130.32214,304.00391,130.99658,301.77808ZM232,336a16.01833,16.01833,0,0,1,16,16,24.0275,24.0275,0,0,0,24,24,8,8,0,0,1,0,16,96.54654,96.54654,0,0,1-77.48413-39.31958,74.39683,74.39683,0,0,0,23.22778-17.32593l1.08057-1.20062A47.85024,47.85024,0,0,0,232,336Zm8.26465-49.58594-8.07227,8.96912A71.86262,71.86262,0,0,0,220.10205,251.731l-5.4458-8.16846-13.3125,8.875,5.4458,8.16846a55.67756,55.67756,0,0,1-3.064,66.2843,58.44956,58.44956,0,0,1-71.39258,8.78015l-12.97266-7.78357c1.28125-2.11859,2.47754-4.27716,3.615-6.46191l6.57837,5.26257a24.08923,24.08923,0,0,0,28.94238.78906l46.15381-32.96679a7.99985,7.99985,0,0,0-5.31445-14.48194l-64.63818,5.38672A117.2638,117.2638,0,0,0,136,268a115.90083,115.90083,0,0,0-12.58691-52.57135A87.4249,87.4249,0,0,1,210.644,225.98291a103.26754,103.26754,0,0,0,39.82276,18.31592l32.21289,7.16406A185.21555,185.21555,0,0,0,240.26465,286.41406ZM384,360a24.0275,24.0275,0,0,0,24,24,8,8,0,0,1,0,16,128.15152,128.15152,0,0,1-120.20654-83.899,104.0248,104.0248,0,0,0,45.62207,11.85993A47.559,47.559,0,0,0,360,336,24.0275,24.0275,0,0,1,384,360Zm-32-64a16.01833,16.01833,0,0,1-16,16,88.29159,88.29159,0,0,1-67.09009-31.0686q2.31666-1.95273,4.70276-3.82A88.11022,88.11022,0,0,0,296,280h40A16.01833,16.01833,0,0,1,352,296ZM480,184a32.036,32.036,0,0,0-32,32,24.02718,24.02718,0,0,1-24,24H366.37842a112.1606,112.1606,0,0,0,13.2622-15.60352c1.40516-1.995,2.72437-4.0354,3.989-6.10235A119.72559,119.72559,0,0,1,432,208V192a135.64526,135.64526,0,0,0-38.47449,5.6344,110.80717,110.80717,0,0,0,4.324-15.69812A247.24049,247.24049,0,0,1,480,168a7.94765,7.94765,0,0,1,4.61621,1.45557c.11231.08593.22363.16992.33643.25146A8.007,8.007,0,0,1,480,184Z"/></g></svg>
