<svg id="Capa_1" enable-background="new 0 0 512 512" height="512" viewBox="0 0 512 512" width="512" xmlns="http://www.w3.org/2000/svg"><g><path d="m56 456h24v32h-56c0-17.673 14.327-32 32-32z" fill="#d4e4f0"/><path d="m88 456h-8c-8.837 0-16 7.163-16 16 0 8.837 7.163 16 16 16h29.578c4.418 0 8-3.582 8-8 0-2.675-1.337-5.173-3.562-6.656z" fill="#e04446"/><path d="m384 456h24v32h-56c0-17.673 14.327-32 32-32z" fill="#d4e4f0"/><g fill="#e04446"><path d="m434.343 474.343-18.343-18.343h-8c-8.837 0-16 7.163-16 16 0 8.837 7.163 16 16 16h20.686c4.418 0 8-3.582 8-8 0-2.122-.843-4.157-2.343-5.657z"/><path d="m432 376c0-22.091 17.909-40 40-40-8.837 0-16 7.163-16 16s7.163 16 16 16 16 7.163 16 16-7.163 16-16 16c-8.843.006-16.006 7.18-16 16.023.001 1.269.153 2.533.452 3.766l11.539 50.623c1.766 7.749-3.083 15.462-10.832 17.228-1.049.239-2.122.36-3.198.36-3.816 0-7.477-1.516-10.175-4.215l-83.786-83.785v-24z"/><path d="m472 256c.001 26.509-21.489 47.999-47.998 48-.001 0-.002 0-.002 0v-16c-39.765 0-72-32.236-72-72.001 0-39.608 31.992-71.779 71.6-71.999 6.4-.033 12.213-3.735 14.95-9.52 1.113-2.381 1.598-5.008 1.41-7.63-.604-8.369-7.569-14.85-15.96-14.85 17.674.001 32.001 14.33 32 32.004-.001 17.458-13.995 31.695-31.45 31.996-9.29.15-17.06 7.66-16.52 16.94.498 8.456 7.5 15.059 15.97 15.06 26.509 0 48 21.49 48 48 0-.001 0 0 0 0z"/><path d="m256 312c-.004 53.023-42.991 96.004-96.015 96-34.296-.003-65.986-18.3-83.135-48-17.136-29.706-17.136-66.294 0-96 26.514-45.918 85.232-61.649 131.15-35.135 29.7 17.149 47.997 48.839 48 83.135z"/></g><path d="m112 280c.004 1.222-.137 2.441-.42 3.63-1.674 7.252-8.138 12.384-15.58 12.37h-30.66c.45-2.71 1.02-5.37 1.69-8 1.153-4.497 2.637-8.902 4.44-13.18 1.565-3.716 3.362-7.329 5.38-10.82h19.15c8.817-.02 15.98 7.112 16 15.929z" fill="#d6323f"/><path d="m104 312c.012 8.825-7.132 15.988-15.957 16-.014 0-.029 0-.043 0h-22.66c-.45-2.63-.787-5.297-1.01-8-.22-2.64-.33-5.307-.33-8-.007-5.362.442-10.714 1.34-16h22.66c8.817-.02 15.98 7.112 16 15.929z" fill="#d6323f"/><path d="m96 344c.012 8.825-7.132 15.988-15.957 16-.014 0-.029 0-.043 0h-3.15c-1.5-2.59-2.877-5.257-4.13-8-3.521-7.634-6.003-15.706-7.38-24h14.66c8.817-.02 15.98 7.112 16 15.929z" fill="#d6323f"/><path d="m96 344c.012 8.825-7.132 15.988-15.957 16-.014 0-.029 0-.043 0h-3.15c-1.5-2.59-2.877-5.257-4.13-8h7.28c7.298-.001 13.672-4.935 15.5-12 .335 1.307.503 2.651.5 4z" fill="#ce2337"/><path d="m104 312c.012 8.825-7.132 15.988-15.957 16-.014 0-.029 0-.043 0h-22.66c-.45-2.63-.787-5.297-1.01-8h23.67c7.298-.001 13.672-4.935 15.5-12 .335 1.307.503 2.651.5 4z" fill="#ce2337"/><path d="m112 280c.012 8.825-7.132 15.988-15.957 16-.014 0-.029 0-.043 0h-30.66c.45-2.71 1.02-5.37 1.69-8h28.97c7.298-.001 13.672-4.935 15.5-12 .335 1.307.503 2.651.5 4z" fill="#ce2337"/><path d="m152 384c0-13.255 10.745-24 24-24s24 10.745 24 24c-8.837 0-16 7.163-16 16 0 13.223-10.696 23.955-23.918 24-13.275-.012-24.051 10.729-24.082 24.004v10.1c0 8.837-7.163 16-16 16-3.159 0-6.247-.935-8.875-2.687l-23.125-15.417 16-104z" fill="#e04446"/><path d="m447.99 337.3c-.711 34.832-29.151 62.698-63.99 62.7h-50.35c-35.642 21.012-76.275 32.064-117.65 32-1.44 0-2.86-.04-4.28-.13-4.735-.275-9.431-1.019-14.02-2.22-.62-.16-1.23-.33-1.84-.51-16.309-4.763-30.411-15.133-39.82-29.28-1.33.09-2.68.14-4.04.14-12.689.02-25.004-4.291-34.91-12.22-.35-.28-.7-.57-1.05-.86-23.705-19.864-26.818-55.184-6.954-78.888 19.864-23.705 55.184-26.818 78.888-6.954 5.503 4.611 10.067 10.237 13.445 16.572h78.57v-22.02h29.011l27-23.63h46.94c36.03 0 65.77 29.29 65.05 65.3z" fill="#e04446"/><path d="m271.69 240 .05 7.74c.14 22.095-17.658 40.119-39.753 40.259-.083.001-.165.001-.247.001h-62.95c-22.43 0-41.21-18.36-40.78-40.78.094-5.242 1.222-10.415 3.32-15.22h-51.33v-24h36c11.046 0 20-8.954 20-20s-8.954-20-20-20h-60c-8.834.002-15.998-7.157-16-15.991 0-.003 0-.006 0-.009v-24c-.002-8.834 7.157-15.998 15.991-16h.009 56v-32h18.74c6.784-19.178 24.918-31.998 45.26-32h16c20.342.004 38.474 12.824 45.26 32h18.74v19.34c20.247 8.846 29.489 32.431 20.642 52.678-4.035 9.235-11.407 16.607-20.642 20.642v3.34c27.93 0 47.81 35.78 15.69 64z" fill="#e04446"/><path d="m256 176h8c8.837 0 16 7.163 16 16 0 8.837-7.163 16-16 16h-8c-8.837 0-16-7.163-16-16 0-8.837 7.163-16 16-16z" fill="#e04446"/><path d="m241.5 80-12 24h-8c-13.254.002-24-10.74-24.002-23.993-.002-12.201 9.15-22.461 21.272-23.847 8.561 5.758 15.043 14.116 18.49 23.84z" fill="#d6323f"/><path d="m72 112c-8.837 0-16-7.164-16-16 0-.172.003-.344.008-.517.293-9.307 8.725-16.17 18.005-15.4 13.218 1.122 23.023 12.747 21.901 25.965-.172 2.031-.603 4.031-1.28 5.953z" fill="#fc6f35"/><path d="m106.2 81.101c6.015-14.25 22.444-20.926 36.694-14.911s20.926 22.444 14.911 36.694-22.444 20.926-36.694 14.911c-3.243-1.369-6.198-3.337-8.712-5.8z" fill="#d4e4f0"/><path d="m240 176c22.091 0 40-17.909 40-40s-17.909-40-40-40h-24v80z" fill="#e04446"/><path d="m312 32c-.002 30.516-19.233 57.719-48 67.9-7.708 2.726-15.825 4.112-24 4.1h-8.01v-48h32.01c17.675-.003 33.255-11.6 38.33-28.53.793-2.593 3.538-4.052 6.131-3.258 1.991.609 3.381 2.408 3.469 4.488.04 1.1.07 2.2.07 3.3z" fill="#d4e4f0"/><path d="m240 104h-8c-13.255 0-24-10.745-24-24 0-13.255 10.745-24 24-24h32z" fill="#e04446"/><path d="m192 136c0-30.928 25.072-56 56-56v32c0 13.255-10.745 24-24 24z" fill="#e04446"/><circle cx="72" cy="104" fill="#de5e1d" r="8"/><circle cx="112" cy="96" fill="#68737f" r="16"/><path d="m72 112c-8.837 0-16-7.164-16-16 0-.172.003-.344.008-.517.293-9.307 8.725-16.17 18.005-15.4 13.218 1.122 23.023 12.747 21.901 25.965-.172 2.031-.603 4.031-1.28 5.953z" fill="#d6323f"/><path d="m200 152c21.873 0 39.69 17.569 39.996 39.44.128 9.323 7.711 17.109 17.016 16.528 8.819-.559 15.515-8.162 14.955-16.981-.534-8.426-7.524-14.987-15.967-14.987 17.673 0 32 14.327 32 32.001 0 .281-.004.563-.011.844-.45 17.461-15.243 31.155-32.71 31.155h-95.279v-48c0-22.091 17.909-40 40-40z" fill="#e04446"/><path d="m256.135 232.001c-5.76-.048-11.101 3.009-13.978 7.999h-50.157v8h.02c.426 22.197 18.558 40.462 40.842 39.991 21.289-.459 38.486-17.516 39.12-38.8.268-9.13-6.714-17.115-15.847-17.19z" fill="#e04446"/><path d="m207.98 249.28c-.707 22.081-19.18 39.408-41.261 38.701-20.481-.656-37.154-16.682-38.619-37.121-.07-.96-.1-1.91-.1-2.85-.007-5.509 1.127-10.96 3.33-16.01h60.8c9.17.08 16.14 8.12 15.85 17.28z" fill="#e04446"/><path d="m152 168c13.255 0 24 10.745 24 24 0 8.837 7.163 16 16 16s16-7.163 16-16c0 22.091-17.909 40-40 40h-23.907c-8.899.032-16.096 7.256-16.093 16.155-.085 13.14-10.721 23.769-23.861 23.845-13.279.075-24.139-11.331-24.139-24.61v-23.39h39.655c17.864 0 32.345-14.481 32.345-32.345z" fill="#e04446"/><path d="m272 280c36.42.027 70.573-17.68 91.54-47.46l-2.05 11.272c-6.989 38.424-39.785 67.246-78.829 68.157-.885.021-1.772.031-2.661.031h-8z" fill="#ce2337"/><path d="m330.95 299.77-1.78 9.77c-3.534 19.805-20.673 34.285-40.79 34.46h-.38c-13.672.019-27.23-2.476-40-7.36v-29.28c27.602 8.187 57.292 5.47 82.95-7.59z" fill="#ce2337"/><path d="m287.98 295.28c.402 8.823-6.424 16.301-15.247 16.703-.244.012-.488.017-.733.017-8.703.004-15.809 6.959-16 15.66-.23 11.13-7.36 21.12-18.2 23.66-12.892 3.182-25.923-4.689-29.105-17.581-.285-1.154-.484-2.327-.595-3.509-.06-.675-.08-1.353-.06-2.03h-.05c.008.254.002.507-.02.76-.51 8.77-8.28 15.32-17.06 15.02-17.662-.601-31.494-15.406-30.893-33.069.587-17.24 14.733-30.912 31.983-30.911h79.5c8.64 0 16.1 6.64 16.48 15.28z" fill="#e04446"/><g id="Out_line_1_"><path d="m472 408c13.255 0 24-10.745 24-24s-10.745-24-24-24c-4.418 0-8-3.582-8-8s3.582-8 8-8 8-3.582 8-8-3.582-8-8-8c-5.525-.003-11.008.951-16.207 2.822-.61-8.614-2.777-17.045-6.396-24.886 27.57-14.036 38.541-47.764 24.505-75.334-9.556-18.772-28.837-30.596-49.902-30.602-4.418 0-8-3.582-8-8s3.582-8 8-8c22.091.005 40.004-17.899 40.01-39.99s-17.899-40.004-39.99-40.01h-.02c-4.418 0-8 3.582-8 8s3.582 8 8 8 8 3.582 8 8-3.582 8-8 8c-44.184.002-80.001 35.821-80 80.005 0 7.956 1.187 15.868 3.522 23.473-19.266 20.321-45.9 32.033-73.898 32.496 4.199-7.291 6.399-15.562 6.376-23.975.002-2.444-.372-4.873-1.106-7.204 18.111-12.635 22.549-37.56 9.914-55.671-4.163-5.967-9.876-10.686-16.523-13.647 19.592-17.774 21.066-48.066 3.292-67.658-.032-.035-.064-.071-.096-.106 27.241-13.524 44.483-41.299 44.519-71.713 0-1.204-.027-2.433-.082-3.66-.314-7.122-6.341-12.641-13.463-12.328-5.479.241-10.207 3.918-11.79 9.168-4.113 13.508-16.546 22.76-30.665 22.82h-32c-3.068 0-6.119.443-9.061 1.314-9.157-6.112-19.929-9.354-30.939-9.314h-16c-14.793-.004-28.984 5.856-39.463 16.296-14.843-1.918-29.318 5.577-36.317 18.806-2.476 1.402-4.686 3.231-6.526 5.402-5.899-5.471-13.649-8.509-21.694-8.504-13.247-.008-23.992 10.724-24 23.971-.002 3.039.574 6.051 1.697 8.875-10.438 2.855-17.682 12.333-17.697 23.154v24c.014 11.235 7.807 20.961 18.769 23.426l6.076 12.152c1.976 3.952 6.781 5.554 10.733 3.578 1.548-.774 2.804-2.03 3.578-3.578l5.788-11.578h39.056c6.627 0 12 5.373 12 12s-5.373 12-12 12h-15.056l-5.789-11.578c-1.976-3.952-6.781-5.554-10.733-3.578-1.548.774-2.804 2.03-3.578 3.578l-8 16c-.555 1.111-.844 2.336-.844 3.578v39.424c.004 2.591.322 5.172.945 7.687-1.051 1.605-2.065 3.23-3.019 4.879-18.57 32.185-18.571 71.829-.003 104.015 5.412 9.367 12.252 17.832 20.275 25.089l-9.062 58.906h-25.136c-22.081.025-39.975 17.919-40 40 0 4.418 3.582 8 8 8h85.578c7.061.031 13.297-4.597 15.313-11.363.31-1.036.516-2.1.614-3.176 10.84-2.548 18.499-12.222 18.494-23.357v-10.104c.058-8.853 7.251-15.999 16.104-16 5.045-.013 10.014-1.229 14.495-3.545 12.479 7.577 26.803 11.572 41.402 11.545 42.349.024 83.948-11.171 120.564-32.446 6.344.76 12.767.548 19.047-.629l41.075 41.075h-12.686c-22.081.025-39.975 17.919-40 40 0 4.418 3.582 8 8 8h76.687c4.304.007 8.428-1.727 11.436-4.806 9.71 7.648 23.782 5.977 31.43-3.733 4.185-5.313 5.743-12.233 4.239-18.827l-11.539-50.623c-.008-.037-.017-.073-.025-.109-1.045-4.299 1.593-8.631 5.892-9.675.615-.15 1.246-.226 1.88-.227zm-48-256c10.167-.012 19.228-6.418 22.629-16 4.416 12.5-2.137 26.213-14.636 30.629-2.567.907-5.27 1.371-7.993 1.371-13.255 0-24 10.745-24 24s10.745 24 24 24c22.097.005 40.005 17.922 40 40.019-.004 15.474-8.93 29.559-22.922 36.167-1.168-1.518-2.386-2.997-3.669-4.416 13.133-11.819 14.199-32.046 2.38-45.179-6.069-6.744-14.716-10.594-23.789-10.591-13.249.015-23.985 10.751-24 24h16c.005-4.416 3.584-7.995 8-8 8.832-.004 15.996 7.152 16 15.984.003 5.19-2.513 10.058-6.748 13.058-12.076-8.498-26.485-13.054-41.252-13.042h-2.318c-5.129-4.51-9.499-9.814-12.945-15.711.219-1.01.437-2.021.623-3.045l2.051-11.272c.792-4.345-2.089-8.51-6.435-9.301-1.454-.265-2.953-.122-4.33.414-5.01-34.997 19.299-67.429 54.296-72.439 3-.429 6.027-.645 9.058-.646zm-76.43 109.191c-10.028 21.268-29.466 36.587-52.489 41.367 1.571-5.503 1.115-11.387-1.284-16.582 19.709-3.656 38.192-12.175 53.773-24.785zm-27.59 51.972c-4.605 13.558-17.282 22.72-31.601 22.837h-.379c-8.223.005-16.418-.963-24.414-2.884.274-1.691.413-3.402.414-5.116.005-4.416 3.584-7.995 8-8 0 0 25.066 1.527 47.98-6.837zm-95.98-9.163c-5.908-.004-11.608 2.18-16 6.131-4.392-3.951-10.092-6.135-16-6.131v16c4.418 0 8 3.582 8 8s-3.582 8-8 8c-13.255 0-24-10.745-24-24s10.745-24 24-24h80c4.418 0 8 3.582 8 8s-3.582 8-8 8c-13.249.015-23.985 10.751-24 24 0 8.837-7.163 16-16 16s-16-7.163-16-16c0-4.418 3.582-8 8-8s8 3.582 8 8h16c-.015-13.249-10.751-23.985-24-24zm-138.326 45.653c-1.129 1.13-2.57 1.896-4.138 2.199-2.583-5.067-4.661-10.377-6.202-15.852h4.666c4.423.005 8.005 3.595 8 8.018-.002 2.112-.838 4.137-2.326 5.635zm-13.674-37.653c0-2.684.131-5.355.37-8h15.63c4.416.005 7.995 3.584 8 8-.003.416-.038.831-.104 1.241-.781 1.419-1.499 2.876-2.173 4.358-.017.017-.032.037-.049.054-1.503 1.507-3.546 2.352-5.674 2.347h-15.63c-.239-2.642-.37-5.313-.37-8zm32-32.001c.012 4.407-3.55 7.988-7.956 8.001-.015 0-.029 0-.044 0h-20.667c1.655-5.879 3.926-11.566 6.777-16.967 5.849 5.728 13.703 8.946 21.89 8.966zm15.635-4.109c2.303-1.3 4.438-2.879 6.356-4.701 2.302 4.147 5.202 7.933 8.607 11.235-5.906 1.672-11.539 4.19-16.725 7.474 1.986-4.384 2.601-9.267 1.762-14.008zm64.365-19.89v-8c0-4.418 3.582-8 8-8s8 3.582 8 8c.035 9.259-3.978 18.071-10.985 24.123-7.606.559-14.89 3.293-20.986 7.876l-.029.001c-17.643-.02-31.948-14.302-31.999-31.944.004-4.425 3.574-8.02 7.999-8.056h24c.466 0 .926-.022 1.388-.035-.92 2.579-1.389 5.297-1.388 8.035v8zm72-72c4.418 0 8 3.582 8 8s-3.582 8-8 8-8-3.582-8-8c-.003-2.681-.23-5.357-.679-8zm46.831-139.834c-4.337 22.275-20.12 40.601-41.505 48.194-1.745.619-3.528 1.135-5.326 1.599v-4.071l13.09-26.179c13.487-1.503 25.726-8.592 33.741-19.543zm-51.775 19.834-4.012 8.024c-10.905.149-21.588 3.102-31.022 8.573-.007-.199-.022-.397-.022-.597.01-8.832 7.168-15.99 16-16zm-99.056 28c-.012 11.041-8.959 19.988-20 20-.681-.001-1.361-.036-2.039-.106 8.785-9.904 7.879-25.055-2.025-33.84-1.644-1.458-3.48-2.683-5.457-3.641 9.712-5.259 21.849-1.65 27.108 8.062 1.584 2.925 2.413 6.199 2.413 9.525zm-40 12c-4.418 0-8-3.582-8-8s3.582-8 8-8 8 3.582 8 8c-.005 4.416-3.584 7.995-8 8zm-40-16c8.832.01 15.99 7.168 16 16h-8c.003-4.416-3.575-7.997-7.991-8-2.858-.002-5.499 1.522-6.929 3.997-2.216-3.813-.92-8.701 2.893-10.916 1.223-.711 2.613-1.084 4.027-1.081zm16 121.889.845 1.689c1.355 2.71 4.125 4.422 7.155 4.422h20c15.464 0 28-12.536 28-28s-12.536-28-28-28h-44c-3.03 0-5.8 1.712-7.155 4.422l-.845 1.689-.845-1.689c-1.355-2.71-4.125-4.422-7.155-4.422-4.416-.005-7.995-3.584-8-8v-24c.005-4.416 3.584-7.995 8-8h24.805c3.826 18.61 20.195 31.975 39.195 32h48v-16h-48c-10.166-.013-19.224-6.419-22.624-16h11.995c15.454 12.502 38.117 10.109 50.619-5.346 12.502-15.454 10.109-38.117-5.346-50.619-.424-.343-.856-.677-1.296-1 6.664-4.585 14.563-7.038 22.652-7.035h16c5.401-.013 10.748 1.075 15.714 3.197-7.65 8.906-9.8 21.289-5.599 32.252-11.621 11.917-18.122 27.906-18.115 44.551h16c.03-23.413 16.92-43.399 40-47.333v23.333c-.01 8.832-7.168 15.99-16 16v-8h-16v8c.01 8.832 7.168 15.99 16 16 17.665-.02 31.98-14.335 32-32v-1.605c.814-.165 1.624-.344 2.431-.536 14.443 10.172 17.906 30.126 7.734 44.569-5.686 8.073-14.782 13.068-24.646 13.533-8.577-14.818-24.397-23.948-41.519-23.961v16c17.665.02 31.98 14.335 32 32 0 13.255 10.746 24 24.002 24 10.171 0 19.237-6.411 22.627-16 3.668 10.38-.198 21.925-9.379 28.003-11.036-7.326-25.921-4.319-33.248 6.716-2.613 3.936-4.006 8.556-4.003 13.281v8h16v-8c0-4.418 3.582-8 8-8s8 3.582 8 8c.032 9.194-3.925 17.949-10.846 24h-43.539c4.207-7.297 6.409-15.577 6.385-24-.011-9.474-5.587-18.058-14.24-21.917 9.112-8.992 14.241-21.261 14.24-34.063v-.02c0-4.418-3.582-8-8-8s-8 3.582-8 8-3.582 8-8 8-8-3.582-8-8c-.02-17.665-14.335-31.98-32-32v16c8.832.01 15.99 7.168 16 16 .016 12.209 9.182 22.467 21.313 23.851-5.855 5.254-13.446 8.156-21.313 8.149h-24c-13.234.05-23.949 10.766-23.999 24v.022.02c-.044 8.783-7.145 15.897-15.929 15.958h-.064c-4.141-.032-8.099-1.714-10.996-4.673-3.176-3.15-4.977-7.429-5.011-11.902zm2.279 155.812c.445-.211.881-.441 1.313-.679.502 1.436 1.055 2.85 1.657 4.244l-.008.054c-1.016-1.183-2.01-2.384-2.962-3.619zm-34.279 98.299h1.376c-1.835 5.176-1.835 10.824 0 16h-24.005c3.401-9.582 12.462-15.988 22.629-16zm53.593 15.908c0 .031-.005.062-.015.092h-29.578c-4.418 0-8-3.582-8-8s3.582-8 8-8h5.578l21.109 14.073c.968.644 1.981 1.218 3.032 1.716l-.114.171c-.006-.017-.01-.034-.012-.052zm50.46-63.908c-17.663.045-31.979 14.337-32.053 32v10.104c0 4.418-3.581 8-7.999 8-1.58 0-3.124-.467-4.439-1.344l-18.88-12.586 9.737-63.289c4.423 4.51 9.491 8.338 15.039 11.358 3.471 9.456 12.469 15.746 22.542 15.757v-16c-4.418 0-8-3.582-8-8s3.582-8 8-8 8 3.582 8 8h16c.003-5.816-2.115-11.434-5.957-15.799 4.302-7.712 14.041-10.477 21.753-6.175 3.137 1.75 5.593 4.505 6.973 7.821-8.937 3.733-14.759 12.467-14.769 22.153-.015 8.81-7.138 15.956-15.947 16zm55.947 8c-10.067.016-19.995-2.356-28.968-6.921 3.248-5.104 4.971-11.029 4.968-17.079.005-4.416 3.584-7.995 8-8 4.418 0 8-3.582 8-8 .005-17.668-14.313-31.995-31.98-32-11.582-.004-22.261 6.253-27.92 16.357-10.618-1.855-21.167 3.609-25.777 13.352-11.536-9.12-18.282-23.004-18.323-37.71 1.264-36.78 31.164-47.991 48-48 1.103 0 2.203.042 3.298.116-8.782 20.261.524 43.805 20.786 52.587 5.024 2.177 10.441 3.3 15.917 3.298 5.198.005 10.255-1.686 14.404-4.817 10.57 14.133 30.596 17.022 44.729 6.452 2.193-1.64 4.167-3.556 5.871-5.699 7.681 2.047 15.547 3.324 23.481 3.811 2.605 21.121 15.519 39.574 34.47 49.255-30.788 15.144-64.645 23.012-98.956 22.998zm168 40h1.376c-1.835 5.176-1.835 10.824 0 16h-24.005c3.401-9.582 12.462-15.988 22.629-16zm16 8c.005-4.416 3.584-7.995 8-8h4.687l16 16h-20.687c-4.416-.005-7.995-3.584-8-8zm28.733 8.047.007.007-.004.004zm19.931-58.43 11.527 50.572c.784 3.441-1.369 6.866-4.81 7.651-2.142.488-4.385-.158-5.939-1.712l-76.88-76.88c21.697-10.836 35.415-32.996 35.438-57.248 0-22.091-17.909-40-40-40s-40 17.909-40 40c0 13.255 10.745 24 24 24s24-10.745 24-24h-16c0 4.418-3.582 8-8 8s-8-3.582-8-8c0-13.255 10.745-24 24-24s24 10.745 24 24c-.001 26.511-21.493 48.001-48.004 48-23.696-.001-43.846-17.293-47.443-40.714 20.622-3.602 36.796-19.706 40.488-40.312l1.78-9.77c.17-.941.17-1.905-.001-2.846 6.252-5.358 11.755-11.533 16.36-18.358h28.82c30.914.035 55.965 25.086 56 56 0 1.472-.064 2.948-.179 4.416-8.01 7.234-13.346 16.959-15.145 27.601-.225-.006-.449-.017-.676-.017-13.249.015-23.985 10.751-24 24h16c0-4.418 3.582-8 8-8s8 3.582 8 8c-.01 8.832-7.168 15.99-16 16v16c17.665-.02 31.98-14.335 32-32 .002-6.798-2.886-13.277-7.943-17.82.405-7.228 3.26-14.103 8.093-19.492 1.383 12.13 11.641 21.297 23.85 21.312 4.418 0 8 3.582 8 8s-3.582 8-8 8c-13.26.005-24.005 10.759-24 24.019.001 1.886.224 3.765.664 5.598z"/></g></g></svg>