<?xml version="1.0" encoding="iso-8859-1"?>
<!-- Generator: Adobe Illustrator 19.0.0, SVG Export Plug-In . SVG Version: 6.00 Build 0)  -->
<svg version="1.1" id="Capa_1" xmlns="http://www.w3.org/2000/svg" xmlns:xlink="http://www.w3.org/1999/xlink" x="0px" y="0px"
	 viewBox="0 0 512 512" style="enable-background:new 0 0 512 512;" xml:space="preserve">
<path style="fill:#E6C8A0;" d="M473.438,76.035v157.053c0,11.046-8.954,20-20,20H132.336c-11.046,0-20-8.954-20-20V76.035
	c0-11.046,8.954-20,20-20h321.102C464.483,56.035,473.438,64.989,473.438,76.035z"/>
<path style="fill:#FFEBBE;" d="M504.5,26.914v158.225c0,10.722-8.692,19.414-19.414,19.414H162.813
	c-10.722,0-19.414-8.692-19.414-19.414c0,10.722-8.692,19.414-19.414,19.414H85.156c-10.722,0-19.414-8.692-19.414-19.414V26.914
	c0-10.722,8.692-19.414,19.414-19.414h38.828c10.722,0,19.414,8.692,19.414,19.414c0-10.722,8.692-19.414,19.414-19.414h322.273
	C495.808,7.5,504.5,16.192,504.5,26.914z"/>
<path style="fill:#FFE1B3;" d="M504.5,26.914v158.225c0,10.722-8.692,19.414-19.414,19.414h-29.121
	c10.722,0,19.414-8.692,19.414-19.414V26.914c0-10.722-8.692-19.414-19.414-19.414h29.121C495.808,7.5,504.5,16.192,504.5,26.914z"
	/>
<path style="fill:#FFB450;" d="M143.398,27.5v157.053c0,11.046-8.954,20-20,20H85.742c-11.046,0-20-8.954-20-20V27.5
	c0-11.046,8.954-20,20-20h37.656C134.444,7.5,143.398,16.454,143.398,27.5z"/>
<path style="fill:#FF4B4B;" d="M279.297,165.34V484.5c0,11.046-8.954,20-20,20H17.5c-5.523,0-10-4.477-10-10V155.34
	c0-5.523,4.477-10,10-10h241.797C270.343,145.34,279.297,154.294,279.297,165.34z"/>
<path style="fill:#D24A4A;" d="M279.297,164.754v320.332c0,10.722-8.692,19.414-19.414,19.414h-29.121
	c10.722,0,19.414-8.692,19.414-19.414V164.754c0-10.722-8.692-19.414-19.414-19.414h29.121
	C270.605,145.34,279.297,154.032,279.297,164.754z"/>
<path style="fill:#FFCF65;" d="M198.921,250.176c0,25.263-20.552,45.815-45.815,45.815s-45.815-20.553-45.815-45.815
	c0-25.263,20.552-45.815,45.815-45.815S198.921,224.913,198.921,250.176z"/>
<path d="M485.086,0h-49.991c-4.143,0-7.5,3.358-7.5,7.5s3.357,7.5,7.5,7.5h49.991C491.655,15,497,20.345,497,26.914v158.225
	c0,6.569-5.345,11.914-11.914,11.914H286.797V165.34c0-15.164-12.337-27.5-27.5-27.5H150.898V26.914
	c0-6.569,5.345-11.914,11.914-11.914h238.793c4.143,0,7.5-3.358,7.5-7.5s-3.357-7.5-7.5-7.5H162.813
	c-7.624,0-14.512,3.192-19.414,8.303C138.497,3.192,131.608,0,123.984,0H85.156C70.315,0,58.242,12.074,58.242,26.914V137.84H17.5
	c-9.649,0-17.5,7.851-17.5,17.5V494.5c0,9.649,7.851,17.5,17.5,17.5h241.797c15.163,0,27.5-12.336,27.5-27.5V260.588h167.227
	c14.841,0,26.914-12.074,26.914-26.914v-21.621h4.148c14.841,0,26.914-12.074,26.914-26.914V26.914C512,12.074,499.927,0,485.086,0z
	 M73.242,26.914C73.242,20.345,78.587,15,85.156,15h38.828c6.569,0,11.914,5.345,11.914,11.914V137.84H73.242V26.914z M15,494.5
	V155.34c0-1.378,1.121-2.5,2.5-2.5h21.342c-0.003,0.089-0.013,0.176-0.013,0.266V497H17.5C16.121,497,15,495.878,15,494.5z
	 M271.797,484.5c0,6.893-5.607,12.5-12.5,12.5H53.828V153.105c0-0.09-0.01-0.177-0.013-0.266h205.482c6.893,0,12.5,5.607,12.5,12.5
	V484.5z M465.938,233.674c0,6.569-5.345,11.914-11.914,11.914H286.797v-33.535h179.141V233.674z M363.263,51.447V49.24
	c0-4.142-3.357-7.5-7.5-7.5s-7.5,3.358-7.5,7.5v8.281l-7.702,19.524l-8.98-5.181c-3.589-2.072-8.175-0.84-10.244,2.748
	c-2.07,3.588-0.84,8.174,2.748,10.245l15.143,8.736c1.14,0.658,2.433,1.004,3.748,1.004h14.063c-0.067,0.403-0.11,0.814-0.11,1.236
	v9.973h-3.857c-4.143,0-7.5,3.358-7.5,7.5s3.357,7.5,7.5,7.5h3.857v37.418h-19c-4.143,0-7.5,3.358-7.5,7.5s3.357,7.5,7.5,7.5H443.93
	c4.143,0,7.5-3.358,7.5-7.5s-3.357-7.5-7.5-7.5h-19.001v-37.418h3.857c4.143,0,7.5-3.358,7.5-7.5s-3.357-7.5-7.5-7.5h-3.857v-9.973
	c0-0.422-0.043-0.833-0.11-1.236h12.357c0.009,0,0.017,0.002,0.026,0.002c0.014,0,0.028-0.002,0.042-0.002h1.639
	c1.315,0,2.608-0.346,3.748-1.004l15.143-8.736c3.588-2.07,4.818-6.657,2.748-10.245s-6.657-4.819-10.244-2.748l-8.98,5.181
	l-6.761-17.139c0.04-0.315,0.068-0.634,0.068-0.96V49.24c0-4.142-3.357-7.5-7.5-7.5s-7.5,3.358-7.5,7.5v2.207
	C419.605,51.447,363.263,51.447,363.263,51.447z M355.678,79.598l5.188-13.15h60.124l5.188,13.15H355.678z M409.928,158.225h-38
	v-37.418h38V158.225z M409.928,95.834v9.973h-38v-9.973c0-0.422-0.043-0.833-0.11-1.236h38.221
	C409.971,95.001,409.928,95.412,409.928,95.834z M153.105,306.211c30.897,0,56.035-25.137,56.035-56.035
	s-25.138-56.035-56.035-56.035S97.07,219.278,97.07,250.176S122.208,306.211,153.105,306.211z M153.105,209.141
	c22.627,0,41.035,18.408,41.035,41.035s-18.408,41.035-41.035,41.035s-41.035-18.408-41.035-41.035S130.479,209.141,153.105,209.141
	z M153.105,281.943c17.517,0,31.768-14.251,31.768-31.768s-14.251-31.768-31.768-31.768s-31.768,14.251-31.768,31.768
	S135.589,281.943,153.105,281.943z M153.105,233.408c9.246,0,16.768,7.522,16.768,16.768c0,9.246-7.521,16.768-16.768,16.768
	s-16.768-7.522-16.768-16.768S143.859,233.408,153.105,233.408z M218.848,356.953c0,4.142-3.357,7.5-7.5,7.5H94.863
	c-4.143,0-7.5-3.358-7.5-7.5s3.357-7.5,7.5-7.5h116.484C215.49,349.453,218.848,352.811,218.848,356.953z M194.58,386.074
	c0,4.142-3.357,7.5-7.5,7.5h-67.949c-4.143,0-7.5-3.358-7.5-7.5s3.357-7.5,7.5-7.5h67.949
	C191.223,378.574,194.58,381.932,194.58,386.074z M170.313,463.73c0,4.142-3.357,7.5-7.5,7.5h-19.414c-4.143,0-7.5-3.358-7.5-7.5
	s3.357-7.5,7.5-7.5h19.414C166.955,456.23,170.313,459.588,170.313,463.73z M296.504,46.328c0,4.142-3.357,7.5-7.5,7.5h-97.07
	c-4.143,0-7.5-3.358-7.5-7.5s3.357-7.5,7.5-7.5h97.07C293.146,38.828,296.504,42.186,296.504,46.328z M218.848,75.449
	c0,4.142-3.357,7.5-7.5,7.5h-19.414c-4.143,0-7.5-3.358-7.5-7.5s3.357-7.5,7.5-7.5h19.414
	C215.49,67.949,218.848,71.307,218.848,75.449z M218.848,114.277c0,4.142-3.357,7.5-7.5,7.5h-19.414c-4.143,0-7.5-3.358-7.5-7.5
	s3.357-7.5,7.5-7.5h19.414C215.49,106.777,218.848,110.135,218.848,114.277z M296.504,114.277c0,4.142-3.357,7.5-7.5,7.5h-38.828
	c-4.143,0-7.5-3.358-7.5-7.5s3.357-7.5,7.5-7.5h38.828C293.146,106.777,296.504,110.135,296.504,114.277z M121.474,36.621
	c0,4.142-3.357,7.5-7.5,7.5H95.167c-4.143,0-7.5-3.358-7.5-7.5s3.357-7.5,7.5-7.5h18.807
	C118.116,29.121,121.474,32.479,121.474,36.621z M121.474,65.742c0,4.142-3.357,7.5-7.5,7.5H95.167c-4.143,0-7.5-3.358-7.5-7.5
	s3.357-7.5,7.5-7.5h18.807C118.116,58.242,121.474,61.6,121.474,65.742z M121.474,85.156c0,4.142-3.357,7.5-7.5,7.5H95.167
	c-4.143,0-7.5-3.358-7.5-7.5s3.357-7.5,7.5-7.5h18.807C118.116,77.656,121.474,81.014,121.474,85.156z M121.474,114.277
	c0,4.142-3.357,7.5-7.5,7.5H95.167c-4.143,0-7.5-3.358-7.5-7.5s3.357-7.5,7.5-7.5h18.807
	C118.116,106.777,121.474,110.135,121.474,114.277z"/>
<g>
</g>
<g>
</g>
<g>
</g>
<g>
</g>
<g>
</g>
<g>
</g>
<g>
</g>
<g>
</g>
<g>
</g>
<g>
</g>
<g>
</g>
<g>
</g>
<g>
</g>
<g>
</g>
<g>
</g>
</svg>
