<svg height="512" viewBox="0 0 512 512" width="512" xmlns="http://www.w3.org/2000/svg"><g id="Fill_out_line" data-name="Fill out line"><circle cx="248" cy="72" fill="#3e454d" r="48"/><path d="m374.93 488h-94.93v-64h72v-133.74l48 13.74 22.22 127.78a47.99622 47.99622 0 0 1 -47.29 56.22z" fill="#fdc5ca"/><path d="m208 424v64h-70.93a47.99622 47.99622 0 0 1 -47.29-56.22l22.22-127.78 48-13.74v133.74z" fill="#fdc5ca"/><path d="m423.87 380.4-71.87 19.6v24h-192v-24l-71.87-19.6 23.87-76.4 80-22.9h128l80 22.9z" fill="#e04446"/><path d="m304 240 8 24-56 32-27.43-21.94995-12.57-10.05005h-40l-16-40-16-16 16-48v-20.32a83.6866 83.6866 0 0 1 83.68-83.68h.01a83.673 83.673 0 0 1 79.38 57.22 140.45621 140.45621 0 0 1 -14.15 118.9z" fill="#fdc5ca"/><path d="m308.93 232.12-4.93 7.88-32-32-15.02-22.53-6.31-9.47-10.67 16-16-40h-64v-12.32a83.6866 83.6866 0 0 1 83.68-83.68h.01a83.67669 83.67669 0 0 1 79.38 57.22 140.48893 140.48893 0 0 1 -14.14 118.9z" fill="#68737f"/><path d="m264 288v41.54a54.11979 54.11979 0 0 1 -32.85 49.81 38.19739 38.19739 0 0 0 -23.15 35.11v9.54h-16v-9.54a53.224 53.224 0 0 1 .39-6.46 54.092 54.092 0 0 1 32.46-43.3501 38.16418 38.16418 0 0 0 23.15-35.1099v-41.54z" fill="#fab53f"/><path d="m208.55 408a38.40427 38.40427 0 0 0 -.55 6.46v9.54h-16v-9.54a53.224 53.224 0 0 1 .39-6.46z" fill="#fca529"/><g fill="#fdca77"><path d="m235.9 338.459h16v43.081h-16z" transform="matrix(.371 -.928 .928 .371 -180.934 452.755)"/><path d="m192 264v32h64a32 32 0 0 0 -32-32z"/><path d="m256 296h64v-32h-32a32 32 0 0 0 -32 32z"/></g><path d="m232 172-8-20h-8v-48h16z" fill="#4f5761"/><path d="m272 112-16 64 40 8v-72z" fill="#e04446"/><path d="m304 120 24 72 32-24-40-64z" fill="#e04446"/><path d="m280 424v64h-80v-64h16l9.81-14.72a20.84711 20.84711 0 0 1 38.19 11.56v3.16z" fill="#fdc5ca"/><path d="m240 192 11.19776-16.79664a16.17643 16.17643 0 0 1 13.45961-7.20336 16.17643 16.17643 0 0 1 15.14646 21.85636l-12.2876 32.76694a14.45066 14.45066 0 0 1 -13.53055 9.3767 14.45068 14.45068 0 0 1 -10.21816-4.2325l-3.76752-3.7675z" fill="#fdc5ca"/><circle cx="296" cy="80" fill="#4f5761" r="48"/><path d="m200 176a7.99977 7.99977 0 0 0 -8-8h-8a8 8 0 0 0 0 16h8a7.99977 7.99977 0 0 0 8-8z"/><path d="m422.89545 388.958 3.07965-.83985a7.99958 7.99958 0 0 0 5.53076-10.104l-23.86963-76.3999a7.99984 7.99984 0 0 0 -5.43457-5.30518l-74.20166-21.24007v-11.069a7.99977 7.99977 0 0 0 -8-8h-2.23395l-4.9848-14.95508 2.9292-4.68652a148.09553 148.09553 0 0 0 16.81976-37.78864c.08789-.0606.18378-.10547.26959-.16986l32-24a7.99989 7.99989 0 0 0 1.98438-10.63965l-29.04706-46.47558a55.96591 55.96591 0 0 0 -57.44061-91.02767 55.99888 55.99888 0 0 0 -87.66419 37.30749 91.66622 91.66622 0 0 0 -40.63232 76.1191v19.01807l-15.58936 46.76855a7.99941 7.99941 0 0 0 1.93262 8.18653l14.83887 14.83887 15.39014 38.47558a8.00024 8.00024 0 0 0 7.42773 5.02881h8v3.069l-74.20166 21.24011a7.99984 7.99984 0 0 0 -5.43457 5.30518l-23.86963 76.3999a7.99958 7.99958 0 0 0 5.53076 10.104l3.07953.83985-7.20795 41.44678a56.00034 56.00034 0 0 0 55.17188 65.59518h237.86328a56.00034 56.00034 0 0 0 55.17188-65.59521zm-110.89545-116.958v16h-46.62891a24.04118 24.04118 0 0 1 22.62891-16zm-9.46564-44.77911-20.50775-20.50776 5.26782-14.0476c.26123-.69678.47773-1.40332.672-2.11365l6.46472 1.29285a8.00053 8.00053 0 0 0 9.56885-7.84473v-38.70178l14.52484 43.57428a132.1072 132.1072 0 0 1 -15.99048 38.34839zm-27.28717-95.22412a55.5023 55.5023 0 0 0 12.75281 3.42266v38.82227l-1.44257-.28851a24.06461 24.06461 0 0 0 -18.37829-13.68464zm56.8324 46.94366-15.61078-46.83143a55.8446 55.8446 0 0 0 8.8869-4.44574l23.96607 38.34558zm3.92041-98.94043a40 40 0 1 1 -40-40 40.04521 40.04521 0 0 1 40 40zm-88-48a40.03954 40.03954 0 0 1 14.8808 2.87982 56.45509 56.45509 0 0 0 -12.95337 13.3393c-2.07996-.14118-4.16643-.21912-6.24384-.21912a91.25959 91.25959 0 0 0 -31.17328 5.46008 39.88292 39.88292 0 0 1 35.48969-21.46008zm-5.6684 32.0343a55.88936 55.88936 0 0 0 18.53186 59.52692l-10.23 40.91913a24.18371 24.18371 0 0 0 -6.092 6.28527l-2.76171 4.14258-9.77975-24.44879v-46.45941h-16v40h-48v-4.31641a75.75763 75.75763 0 0 1 74.3316-75.64929zm-74.90387 156.99451a7.99954 7.99954 0 0 0 -1.771-2.68555l-12.50391-12.5039 14.43653-43.30957a7.99908 7.99908 0 0 0 .41065-2.52979h50.5835l13.98877 34.97119a7.99973 7.99973 0 0 0 14.084 1.46631l11.19773-16.79688a8.15985 8.15985 0 0 1 6.80323-3.64062 8.17594 8.17594 0 0 1 7.65576 11.04736l-12.2876 32.76758a6.47939 6.47939 0 0 1 -6.03955 4.18506 6.40882 6.40882 0 0 1 -4.56152-1.88916l-3.76758-3.76758-11.31348 11.31348 3.76758 3.76758a22.30355 22.30355 0 0 0 15.875 6.57568 22.55436 22.55436 0 0 0 21.021-14.56738l.84881-2.26349 21.15216 21.15216 3.89289 11.67871h-12.9007a39.96332 39.96332 0 0 0 -32 16.02783 40.10976 40.10976 0 0 0 -22.02313-14.76819l3.59784-3.62048a8.00022 8.00022 0 0 0 -11.34961-11.27832l-13.55384 13.63916h-31.25476zm56.57227 50.97119a24.04118 24.04118 0 0 1 22.62891 16h-46.62891v-16zm-105.65088 38.50391 65.65088-18.79273v4.28882a7.99977 7.99977 0 0 0 8 8h56v25.53711a38.15281 38.15281 0 0 1 -6.26917 20.979l-14.85974-5.94384-5.94238 14.85546 7.94605 3.17847a38.30344 38.30344 0 0 1 -4.02613 2.04077 54.13725 54.13725 0 0 0 -32.84863 49.81592v1.53711h-24v-48h-16v21.526l-53.75928-14.66077zm153.65088 169.49609h-134.93164a39.99982 39.99982 0 0 1 -39.4082-46.854l6.94934-39.95948 47.3905 12.92408v9.8894h-16v16h80a8.00087 8.00087 0 0 0 6.65723-3.56348l9.80761-14.71631a12.84245 12.84245 0 0 1 23.53516 7.11963v3.16016a7.99977 7.99977 0 0 0 8 8h8zm-.40234-64a28.85208 28.85208 0 0 0 -52.44483-11.15625l-7.43506 11.15625h-3.71777v-1.53711a38.15558 38.15558 0 0 1 23.15137-35.10989 54.21317 54.21317 0 0 0 15.17645-9.76563l14.60089 5.84033 5.94238-14.85546-10.07318-4.0293a54.134 54.134 0 0 0 7.20209-27.00583v-25.53711h56a7.99977 7.99977 0 0 0 8-8v-4.28882l65.65088 18.79273 20.1084 64.36132-53.75928 14.66077v-21.526h-16v48zm133.9458 49.74707a39.91253 39.91253 0 0 1 -30.61182 14.25293h-86.93164v-48h88v-16h-16v-9.8894l47.39044-12.92408 6.9494 39.95948a39.91257 39.91257 0 0 1 -8.79638 32.60107z"/></g></svg>