<svg height="512" viewBox="0 0 512 512" width="512" xmlns="http://www.w3.org/2000/svg"><g id="Fill_out_line" data-name="Fill out line"><path d="m463.98686 234.36266a207.00764 207.00764 0 0 1 -23.41679 93.63734h-37.04007a174.94741 174.94741 0 0 0 28.22872-86.70364c5.41311-104.03867-81.3505-190.64211-185.379-185.03788a176.02514 176.02514 0 0 0 -137.90972 271.74152h-37.04a207.08108 207.08108 0 0 1 -23.43-96c0-113.75874 91.31111-206.18017 204.6425-207.97345 116.64295-1.84568 212.64224 93.68578 211.34436 210.33611z" fill="#da9065"/><rect fill="#ab693d" height="32" rx="16" width="304" x="104" y="456"/><g fill="#fc6f35"><path d="m264 240a47.99731 47.99731 0 0 1 -95.99.67c-.01-.22-.01-.45-.01-.67a48 48 0 0 1 96 0z"/><path d="m392 240a47.99731 47.99731 0 0 1 -95.99.67c-.01-.22-.01-.45-.01-.67a48 48 0 0 1 96 0z"/><path d="m344 288a47.94563 47.94563 0 1 1 -1.18994-10.67 47.82538 47.82538 0 0 1 1.18994 10.67z"/><path d="m200 288a47.96947 47.96947 0 1 1 -4.15991-19.57007 47.98914 47.98914 0 0 1 4.15991 19.57007z"/><circle cx="224" cy="312" r="48"/><circle cx="384" cy="312" r="48"/></g><path d="m448 320-12.3 29.88-8.2 19.91-8.14 19.77-7.96 19.32-19.4 47.12h-272l-19.4-47.12-7.96-19.32-8.14-19.77-8.2-19.91-12.3-29.88 184 16z" fill="#da9065"/><path d="m464 303.00805a15.99576 15.99576 0 0 1 -10.61508 15.06362l-42.04483 15.01833a461.0594 461.0594 0 0 1 -76.52 20.13 461.84021 461.84021 0 0 1 -78.82009 6.78 461.76991 461.76991 0 0 1 -155.34009-26.91l-42.04483-15.0183a15.99576 15.99576 0 0 1 -10.61508-15.06362 15.99575 15.99575 0 0 1 21.37571-15.06387l42.04421 15.01579a428.88368 428.88368 0 0 0 144.58008 25.04 428.88368 428.88368 0 0 0 144.58008-25.04l42.04421-15.01578a15.99575 15.99575 0 0 1 21.37571 15.06383z" fill="#ab693d"/><path d="m72 232 24-24 16 16v-104h-40z" fill="#d6323f"/><path d="m240 104-24-24 16-16h-104v40z" fill="#d6323f"/><path d="m89.373 81.373h45.255v45.255h-45.255z" fill="#d6323f" transform="matrix(.707 -.707 .707 .707 -40.735 109.657)"/><path d="m46.62739 113.37261a32 32 0 0 1 22.62743-9.37261h10.74518l32 32v10.74518a32 32 0 0 1 -9.37257 22.62739 32 32 0 0 1 -45.25478 0l-10.74526-10.74518a32 32 0 0 1 0-45.25478z" fill="#e04446"/><path d="m177.37261 94.62739a32 32 0 0 1 -22.62743 9.37261h-10.74518l-32-32v-10.74518a32 32 0 0 1 9.37257-22.62739 32 32 0 0 1 45.25478 0l10.74522 10.74522a32 32 0 0 1 .00004 45.25474z" fill="#e04446"/><path d="m311.15039 413.0708 1.69922 15.9092c5.39893-.57617 10.86426-1.24512 16.24414-1.98779l-2.1875-15.84961c-5.21825.72019-10.51904 1.36863-15.75586 1.9282z"/><path d="m182.90625 426.99219c5.37988.74267 10.84521 1.41162 16.24414 1.98779l1.69922-15.90918c-5.23682-.55957-10.5376-1.208-15.75586-1.92822z"/><path d="m329.165 394.65723-2.33-15.82911c-5.20361.76612-10.49951 1.457-15.74023 2.05372l1.81054 15.89746c5.41354-.6167 10.88424-1.33057 16.25969-2.12207z"/><path d="m200.90527 380.88184c-5.24072-.59668-10.53662-1.2876-15.74023-2.05372l-2.33004 15.82911c5.37549.7915 10.84619 1.50537 16.25977 2.12207z"/><path d="m472 232a216.11623 216.11623 0 0 0 -299.82275-199.131 39.99756 39.99756 0 0 0 -68.17725 28.38588v7.43164l-27.31348 27.31348h-7.43164a40 40 0 0 0 -28.28418 68.28418l7.53247 7.53253a217.28991 217.28991 0 0 0 -1.63586 114.38764 23.99437 23.99437 0 0 0 9.057 39.40112l2.03088.72534 51.17505 124.28247a23.99338 23.99338 0 0 0 10.86976 45.38672h272a23.99338 23.99338 0 0 0 10.86975-45.38672l51.17505-124.28247 2.03088-.72534a23.99437 23.99437 0 0 0 9.057-39.40112 216.625 216.625 0 0 0 6.86732-54.20435zm-16 0a200.81341 200.81341 0 0 1 -5.59351 47.14648 23.966 23.966 0 0 0 -10.47241 1.26368l-7.08764 2.53137a184.11058 184.11058 0 0 0 7.15356-50.94153c0-101.458-82.542-184-184-184a184.0463 184.0463 0 0 0 -53.79907 8h-10.80693a39.70411 39.70411 0 0 0 -6.96386-10.81036 198.59821 198.59821 0 0 1 71.56986-13.18964c110.28027 0 200 89.71973 200 200zm-394.40649 47.14648a201.51551 201.51551 0 0 1 .57006-96.60772q.90968.45235 1.83643.85547v48.60577a7.99971 7.99971 0 0 0 7.99805 8c.059 0 .11743-.00732.17627-.00861a183.14394 183.14394 0 0 0 6.97778 42.94977l-7.08569-2.53052a23.96558 23.96558 0 0 0 -10.4729-1.26416zm29.71997-175.14648 20.68652-20.68652 20.68652 20.68652-20.68652 20.68652zm103.413-32h17.96008l-2.34326 2.34326a7.99915 7.99915 0 0 0 0 11.31348l10.34322 10.34326h-33.94824a39.91871 39.91871 0 0 0 7.98816-24zm45.27352 40a7.99981 7.99981 0 0 0 5.65674-13.65674l-18.34326-18.34326 10.34326-10.34326a7.97968 7.97968 0 0 0 2.28943-4.89881q7.97735-.75612 16.05383-.75793c92.63574 0 168 75.36426 168 168a168.65842 168.65842 0 0 1 -4.0957 37.00879 55.93576 55.93576 0 0 0 -22.73218-11.43652 55.99477 55.99477 0 1 0 -108.657-25.05945 55.89239 55.89239 0 0 0 -16.57972 4.943 55.989 55.989 0 0 0 -111.43811-4.80237 55.95164 55.95164 0 0 0 -64.32929 51.22448 167.53083 167.53083 0 0 1 -8.168-51.87793c0-1.58.02979-3.1709.074-4.76044l7.926-7.92608 10.34326 10.34326a7.99981 7.99981 0 0 0 13.65674-5.65674v-84.68652l27.31348-27.31348zm108.57446 156.666a55.976 55.976 0 0 0 -43.89087-35.9889 39.99412 39.99412 0 1 1 75.91687 23.43567 55.7294 55.7294 0 0 0 -32.026 12.55323zm-124.57446-12.666a55.6509 55.6509 0 0 0 -22.96411 4.94531 56.14331 56.14331 0 0 0 -24.94751-23.47552 39.99393 39.99393 0 1 1 78.558 12.78491 55.82544 55.82544 0 0 0 -7.68237 10.69061 55.64927 55.64927 0 0 0 -22.96401-4.94531zm-120-51.31348-2.34326-2.34326a8 8 0 0 0 -11.31348 0l-10.34326 10.34326v-25.96a39.91852 39.91852 0 0 0 24-7.98816zm8.614 90.20533a39.99392 39.99392 0 0 1 74.89478-25.31665 55.876 55.876 0 0 0 -19.47644 41.15039 422.734 422.734 0 0 1 -53.922-15.29932zm71.43213 18.94226c-.02758-.61072-.04613-1.22229-.04613-1.83411a40 40 0 1 1 79.21045 7.9231c-2.4021.04077-4.80469.0769-7.21045.0769a421.58741 421.58741 0 0 1 -71.95386-6.16589zm76.44446-44.2594a40.00223 40.00223 0 0 1 75.26575 14.03882 55.64359 55.64359 0 0 0 -7.75634 28.38647c0 .60645.02 1.21289.03955 1.81909a420.54842 420.54842 0 0 1 -48.5199 5.50611 56.45211 56.45211 0 0 0 .48035-7.3252 55.87819 55.87819 0 0 0 -19.5094-42.42529zm83.54212 41.13729a39.99573 39.99573 0 0 1 72.52759-21.95411l-18.66968 6.66785a422.76219 422.76219 0 0 1 -53.85791 15.28626zm-224.03271-249.45712a24 24 0 0 1 40.9707-16.9707l10.74512 10.74512a24 24 0 0 1 -16.9707 40.9707h-7.43164l-8-8 18.34326-18.34326-11.31348-11.31348-18.34326 18.34326-8-8zm-67.71582 57.77442a23.84457 23.84457 0 0 1 16.9707-7.0293h7.43164l8 8-18.34326 18.34326 11.31348 11.31348 18.34326-18.34326 8 8v7.43164a24 24 0 0 1 -40.9707 16.9707l-10.74512-10.74512a24.02784 24.02784 0 0 1 0-33.9414zm203.71582 248.9707a468.60384 468.60384 0 0 0 158.03027-27.37256l19.72535-7.04516-8.20191 19.91918-6.14258 2.19385a487.44573 487.44573 0 0 1 -76.83691 20.54932l2.85156 15.74414a503.35992 503.35992 0 0 0 71.967-18.66821l-7.99778 19.42334a518.51715 518.51715 0 0 1 -66.7334 15.97485l2.67676 15.77441a534.02189 534.02189 0 0 0 56.22412-12.72754l-14.92002 36.23438h-261.28492l-14.92-36.23438a534.02189 534.02189 0 0 0 56.22412 12.72754l2.67676-15.77441a518.51715 518.51715 0 0 1 -66.73342-15.97485l-7.9978-19.42322a503.356 503.356 0 0 0 71.967 18.66809l2.85156-15.74414a487.41426 487.41426 0 0 1 -76.8374-20.54981l-6.14209-2.19348-8.20191-19.91906 19.72583 7.04516a468.42962 468.42962 0 0 0 144.16213 27.14456c4.61668.13523 9.2378.228 13.86768.228zm136 112h-272a8 8 0 0 1 0-16h272a8 8 0 0 1 0 16zm64-176.9917a8.01293 8.01293 0 0 1 -5.30615 7.52979l-42.04639 15.01855a454.34455 454.34455 0 0 1 -75.19238 19.78027 455.10731 455.10731 0 0 1 -77.45508 6.66309c-4.16541 0-8.32349-.07764-12.478-.19092-5.43872-.14831-10.86889-.37768-16.28589-.71985-.9707-.06128-1.9392-.14026-2.90893-.20764a452.40544 452.40544 0 0 1 -120.97608-25.32544l-42.04495-15.01806a8.01356 8.01356 0 0 1 -5.30615-7.53028 8.01725 8.01725 0 0 1 7.96875-8.00586 8.05621 8.05621 0 0 1 2.71631.47657l42.04541 15.01562a436.86971 436.86971 0 0 0 147.26953 25.50586 436.86789 436.86789 0 0 0 147.27051-25.50635l42.04492-15.01565a7.99551 7.99551 0 0 1 10.68457 7.52981z"/><path d="m144 264h16v16h-16z"/><path d="m216 288h16v16h-16z"/><path d="m288 264h16v16h-16z"/><path d="m336 216h16v16h-16z"/><path d="m208 216h16v16h-16z"/></g></svg>