<?xml version="1.0" encoding="iso-8859-1"?>
<!-- Generator: Adobe Illustrator 19.0.0, SVG Export Plug-In . SVG Version: 6.00 Build 0)  -->
<svg version="1.1" id="Capa_1" xmlns="http://www.w3.org/2000/svg" xmlns:xlink="http://www.w3.org/1999/xlink" x="0px" y="0px"
	 viewBox="0 0 512 512" style="enable-background:new 0 0 512 512;" xml:space="preserve">
<path style="fill:#CFF1D7;" d="M366.607,119.103c7.183,2.948,11.893,10.087,11.893,18.026v328.544
	c0,21.444-16.941,38.828-37.838,38.828H171.338c-20.897,0-37.838-17.384-37.838-38.828V137.128c0-7.939,4.71-15.077,11.893-18.026
	l35.405-14.533V36.621h150.405v67.949L366.607,119.103z"/>
<path style="fill:#C2E8CD;" d="M378.5,137.128v328.544c0,21.444-16.941,38.828-37.838,38.828h-27.748
	c20.897,0,37.838-17.384,37.838-38.828v-309.13c0-7.939-4.71-15.077-11.893-18.025l-35.405-14.533V36.621h27.748v67.949
	l35.405,14.533C373.79,122.051,378.5,129.19,378.5,137.128z"/>
<path style="fill:#E6AF78;" d="M336.609,65.742H175.391c-16.083,0-29.121-13.038-29.121-29.121l0,0
	c0-16.083,13.038-29.121,29.121-29.121h161.217c16.083,0,29.121,13.038,29.121,29.121l0,0
	C365.73,52.704,352.692,65.742,336.609,65.742z"/>
<path style="fill:#D5945E;" d="M365.73,36.621L365.73,36.621c0,16.083-12.705,29.121-28.378,29.121h-29.324
	c15.673,0,28.378-13.038,28.378-29.121l0,0c0-16.083-12.705-29.121-28.378-29.121h29.324C353.024,7.5,365.73,20.538,365.73,36.621z"
	/>
<path style="fill:#8CE16E;" d="M228.159,230.762H378.5v234.91c0,21.444-16.941,38.828-37.838,38.828H171.338
	c-20.897,0-37.838-17.384-37.838-38.828v-234.91h41.149c5.018,0,9.83,2.045,13.378,5.686l0,0c7.388,7.582,19.367,7.582,26.755,0l0,0
	C218.33,232.807,223.142,230.762,228.159,230.762z"/>
<path style="fill:#7DC86E;" d="M378.5,230.762v234.91c0,21.444-16.941,38.828-37.838,38.828h-27.748
	c20.897,0,37.838-17.384,37.838-38.828v-234.91H378.5z"/>
<path style="fill:#FFE1B3;" d="M330.459,327.832h-56.216c-2.761,0-5-2.239-5-5V187.227c0-2.761,2.239-5,5-5h56.216
	c2.761,0,5,2.239,5,5v135.605C335.459,325.593,333.221,327.832,330.459,327.832z"/>
<path style="fill:#FFEBBE;" d="M307.081,327.832h-33.108c-2.612,0-4.73-2.173-4.73-4.854V187.08c0-2.68,2.118-4.854,4.73-4.854
	h33.108V327.832z"/>
<path d="M369.455,112.164l-30.752-12.622V73.207c19.158-0.729,34.526-16.855,34.526-36.586C373.229,16.428,357.135,0,337.352,0
	H174.648c-19.783,0-35.878,16.428-35.878,36.621c0,19.731,15.368,35.857,34.527,36.586v26.335l-30.753,12.622
	C132.494,116.29,126,126.089,126,137.128v328.544C126,491.218,146.338,512,171.338,512h169.324C365.661,512,386,491.218,386,465.672
	V137.128C386,126.089,379.506,116.29,369.455,112.164z M371,137.128v86.134h-28.041v-36.035c0-6.893-5.607-12.5-12.5-12.5h-20.607
	V112.07h19.872l34.036,13.971C368.158,127.847,371,132.198,371,137.128z M327.959,189.727v130.605h-51.216V189.727H327.959z
	 M153.771,36.621c0-11.922,9.366-21.621,20.878-21.621h162.703c11.512,0,20.878,9.699,20.878,21.621s-9.366,21.621-20.878,21.621
	H231.721c-4.142,0-7.5,3.357-7.5,7.5s3.358,7.5,7.5,7.5h91.982V97.07H188.297V73.242h15.676c4.142,0,7.5-3.357,7.5-7.5
	s-3.358-7.5-7.5-7.5h-29.325C163.136,58.242,153.771,48.543,153.771,36.621z M148.24,126.041l34.037-13.971h112.575v62.656h-20.608
	c-6.893,0-12.5,5.607-12.5,12.5v36.035H228.16c-6.992,0-13.826,2.898-18.749,7.952c-2.149,2.205-4.993,3.42-8.006,3.42
	c-3.014,0-5.857-1.215-8.006-3.419c-4.924-5.055-11.758-7.953-18.75-7.953H141v-86.134C141,132.198,143.842,127.847,148.24,126.041z
	 M340.662,497H171.338C154.609,497,141,482.946,141,465.672v-227.41h33.649c3.014,0,5.856,1.215,8.006,3.421
	c4.997,5.128,11.655,7.951,18.749,7.951c7.093,0,13.751-2.823,18.75-7.952c2.149-2.205,4.992-3.42,8.005-3.42h33.584v84.57
	c0,6.893,5.607,12.5,12.5,12.5h56.216c6.893,0,12.5-5.607,12.5-12.5v-84.57H371v227.41C371,482.946,357.391,497,340.662,497z
	 M196.937,332.972l-6.088,6.248c-1.47,1.508-3.42,2.266-5.372,2.266c-1.887,0-3.775-0.707-5.234-2.129
	c-2.966-2.891-3.028-7.639-0.137-10.605l6.202-6.365l-2.547-15.683c-0.664-4.088,2.112-7.941,6.2-8.605
	c4.089-0.663,7.941,2.112,8.605,6.201l2.295,14.127l13.639,2.332c4.083,0.698,6.827,4.574,6.128,8.657
	c-0.625,3.654-3.797,6.236-7.384,6.236c-0.42,0-0.845-0.035-1.273-0.108L196.937,332.972z M341.614,377.741l-8.165,11.731
	l8.165,11.731c2.367,3.399,1.529,8.073-1.871,10.439c-1.306,0.909-2.799,1.346-4.277,1.346c-2.372,0-4.705-1.122-6.162-3.217
	l-8.909-12.8h-8.584c-4.143,0-7.5-3.357-7.5-7.5s3.357-7.5,7.5-7.5h8.584l8.909-12.8c2.365-3.401,7.038-4.239,10.439-1.871
	S343.981,374.342,341.614,377.741z M249.665,421.846c0.698,4.083-2.045,7.959-6.128,8.657l-13.639,2.333l-2.294,14.127
	c-0.598,3.682-3.781,6.299-7.394,6.299c-0.4,0-0.804-0.032-1.211-0.098c-4.089-0.664-6.865-4.517-6.201-8.605l2.547-15.684
	l-6.202-6.365c-2.891-2.967-2.829-7.715,0.137-10.605c2.965-2.891,7.714-2.831,10.606,0.137l6.089,6.249l15.033-2.572
	C245.086,415.02,248.966,417.762,249.665,421.846z M290.122,211.348c0-4.143,3.357-7.5,7.5-7.5h9.459c4.143,0,7.5,3.357,7.5,7.5
	s-3.357,7.5-7.5,7.5h-9.459C293.479,218.848,290.122,215.49,290.122,211.348z M290.122,240.469c0-4.143,3.357-7.5,7.5-7.5h9.459
	c4.143,0,7.5,3.357,7.5,7.5s-3.357,7.5-7.5,7.5h-9.459C293.479,247.969,290.122,244.611,290.122,240.469z M290.122,269.59
	c0-4.143,3.357-7.5,7.5-7.5h9.459c4.143,0,7.5,3.357,7.5,7.5s-3.357,7.5-7.5,7.5h-9.459
	C293.479,277.09,290.122,273.732,290.122,269.59z M290.122,298.711c0-4.143,3.357-7.5,7.5-7.5h9.459c4.143,0,7.5,3.357,7.5,7.5
	s-3.357,7.5-7.5,7.5h-9.459C293.479,306.211,290.122,302.854,290.122,298.711z"/>
<g>
</g>
<g>
</g>
<g>
</g>
<g>
</g>
<g>
</g>
<g>
</g>
<g>
</g>
<g>
</g>
<g>
</g>
<g>
</g>
<g>
</g>
<g>
</g>
<g>
</g>
<g>
</g>
<g>
</g>
</svg>
