<svg height="512" viewBox="0 0 512 512" width="512" xmlns="http://www.w3.org/2000/svg"><g id="Fill_out_line" data-name="Fill out line"><path d="m128 456h128v32h-128z" fill="#ce2337"/><path d="m360 296v56a104.01153 104.01153 0 0 1 -104 104h-128a103.94631 103.94631 0 0 1 -104-104v-56z" fill="#e04446"/><path d="m360 296v56a104.01153 104.01153 0 0 1 -104 104h-128a103.53945 103.53945 0 0 1 -55.44995-16h127.44995a103.94576 103.94576 0 0 0 104-104v-40z" fill="#d6323f"/><path d="m72 120h416v32l-416-8z" fill="#9f764a"/><path d="m101.295 45.488 372.451 185.3 14.254-28.65-376.015-178.138z" fill="#ba8b5d"/><g fill="#fab53f"><path d="m275.04 408h68.62012a104.42562 104.42562 0 0 1 -12.62012 16h-75.59a104.427 104.427 0 0 0 19.59-16z"/><path d="m288 392c-.10986 0-.21973 0-.33008-.01a104.182 104.182 0 0 0 8.36035-15.99h15.96973v-16h-8v-16h16a7.99782 7.99782 0 0 1 8 8v32a7.9979 7.9979 0 0 1 -8 8z"/><path d="m304 320h56v16h-56z"/></g><path d="m488 160a7.9995 7.9995 0 0 0 8-8v-32a8.00008 8.00008 0 0 0 -8-8h-171.58154l-201.00346-95.22949a8.00051 8.00051 0 0 0 -10.58789 3.6665l-10.69039 21.49024a7.99984 7.99984 0 0 0 3.59961 10.72558l119.28467 59.34717h-25.87549a36.11316 36.11316 0 0 0 .85449-8h-16a16.644 16.644 0 0 1 -1.74634 8h-15.10815a36.11316 36.11316 0 0 0 .85449-8h-16a16.644 16.644 0 0 1 -1.74634 8h-15.10815a36.11316 36.11316 0 0 0 .85449-8h-16a16.644 16.644 0 0 1 -1.74634 8h-38.25366a8.00008 8.00008 0 0 0 -8 8v24a7.99974 7.99974 0 0 0 7.8457 7.99854l25.54908.49133c1.90722 6.36413 5.4375 10.6018 8.45971 14.22839 3.7002 4.44092 6.14551 7.37451 6.14551 14.07813 0 6.70263-2.44531 9.63623-6.14551 14.07715-4.39062 5.26806-9.85449 11.82421-9.85449 24.32031 0 12.49707 5.46387 19.0542 9.85352 24.32275 3.70117 4.4419 6.14648 7.376 6.14648 14.08057 0 6.7041-2.44531 9.63867-6.14551 14.08008-3.34082 4.009-7.29638 8.77233-9 16.32275h-72.85449a8.00008 8.00008 0 0 0 -8 8v56a112.14423 112.14423 0 0 0 104 111.71118v24.28882a8.00008 8.00008 0 0 0 8 8h128a8.00008 8.00008 0 0 0 8-8v-24.28882a112.14423 112.14423 0 0 0 104-111.71118v-56a8.00008 8.00008 0 0 0 -8-8h-182.25464a34.4612 34.4612 0 0 1 4.40112-6.08057c4.38965-5.26855 9.85352-11.82568 9.85352-24.32226 0-12.49707-5.46387-19.0542-9.85352-24.32276-3.70117-4.44189-6.14648-7.37597-6.14648-14.08056 0-6.70264 2.44531-9.63623 6.14551-14.07715 4.39062-5.26807 9.85449-11.82422 9.85449-24.32031s-5.46387-19.05274-9.85449-24.32129c-.69971-.83972-1.354-1.62549-1.95581-2.39307l126.29077 2.42871 163.706 81.4419a8.00014 8.00014 0 0 0 10.72657-3.6001l14.25-28.6499a7.99932 7.99932 0 0 0 -3.73829-10.792l-76.65869-36.3175 73.08057 1.4054c.05083.00097.10259.00146.15337.00146zm-17.84961 60.064-126.29883-62.83255 31.96582.61376 101.38867 48.03321zm-358.125-178.17289 3.63184-7.30127 163.3916 77.41016h-26.1084zm51.03613 86.10889a31.0465 31.0465 0 0 0 -2.77734 9.69629l-15.69092-.30176c.93579-3.52209 2.92432-5.92139 5.55225-9.07422.0874-.105.17773-.21411.26611-.32031zm-32 0a30.93909 30.93909 0 0 0 -2.689 9.08252l-15.60352-.3c.99634-3.19568 2.90332-5.49487 5.37647-8.46216.0874-.105.17773-.21411.26611-.32031zm-51.06152 0h19.06152a30.75712 30.75712 0 0 0 -2.60083 8.46887l-16.46069-.31653zm38.14648 105.27441c-3.70117-4.44189-6.14648-7.37597-6.14648-14.08056 0-6.70264 2.44531-9.63623 6.14551-14.07715 4.39062-5.26807 9.85449-11.82422 9.85449-24.32031s-5.46387-19.05274-9.85449-24.32129c-1.08228-1.29883-2.053-2.46875-2.89063-3.64185l14.34424.27588c1.94629 6.01611 5.334 10.10364 8.25537 13.60913 3.7002 4.44092 6.14551 7.37451 6.14551 14.07813 0 6.70263-2.44531 9.63623-6.14551 14.07715-4.39062 5.26806-9.85449 11.82421-9.85449 24.32031 0 12.49707 5.46387 19.0542 9.85352 24.32275 3.70117 4.4419 6.14648 7.376 6.14648 14.08057 0 6.7041-2.44531 9.63867-6.14551 14.08008-3.34082 4.009-7.29638 8.77233-9 16.32275h-15.10913a34.4612 34.4612 0 0 1 4.40112-6.08057c4.38965-5.26855 9.85352-11.82568 9.85352-24.32226 0-12.49707-5.46387-19.05417-9.85352-24.32276zm129.85352 246.72559h-112v-16h112zm104-160h-304v16h304v16a95.47339 95.47339 0 0 1 -18.07373 56h-253.92627v16h239.42285a95.59855 95.59855 0 0 1 -63.42285 24h-128a96.10874 96.10874 0 0 1 -96-96v-48h320zm-182.14551-153.28174c3.7002 4.44092 6.14551 7.37451 6.14551 14.07813 0 6.70263-2.44531 9.63623-6.14551 14.07715-4.39062 5.26806-9.85449 11.82421-9.85449 24.32031 0 12.49707 5.46387 19.0542 9.85352 24.32275 3.70117 4.4419 6.14648 7.376 6.14648 14.08057 0 6.7041-2.44531 9.63867-6.14551 14.08008-3.34082 4.009-7.29638 8.77233-9 16.32275h-15.10913a34.4612 34.4612 0 0 1 4.40112-6.08057c4.38965-5.26855 9.85352-11.82568 9.85352-24.32226 0-12.49707-5.46387-19.0542-9.85352-24.32276-3.70117-4.44189-6.14648-7.37597-6.14648-14.08056 0-6.70264 2.44531-9.63623 6.14551-14.07715 4.39062-5.26807 9.85449-11.82422 9.85449-24.32031s-5.46387-19.05274-9.85449-24.32129c-.89063-1.06885-1.70606-2.04981-2.43457-3.01758l14.09424.271c1.97363 5.67968 5.229 9.60559 8.04931 12.98974zm310.14551-22.87353-303.56274-5.83789c.85937-3.86792 2.92944-6.35267 5.70825-9.68653.0874-.105.17773-.21411.26611-.32031h297.58838z"/><path d="m64 392h16v-16h-8v-16h16v24a8.00008 8.00008 0 0 0 8 8h32a8.00008 8.00008 0 0 0 8-8v-32a8.00008 8.00008 0 0 0 -8-8h-16v16h8v16h-16v-24a8.00008 8.00008 0 0 0 -8-8h-32a8.00008 8.00008 0 0 0 -8 8v32a8.00008 8.00008 0 0 0 8 8z"/><path d="m160 392h16v-16h-8v-16h16v24a8.00008 8.00008 0 0 0 8 8h32a8.00008 8.00008 0 0 0 8-8v-32a8.00008 8.00008 0 0 0 -8-8h-16v16h8v16h-16v-24a8.00008 8.00008 0 0 0 -8-8h-32a8.00008 8.00008 0 0 0 -8 8v32a8.00008 8.00008 0 0 0 8 8z"/><path d="m256 392h16v-16h-8v-16h16v24a8.00008 8.00008 0 0 0 8 8h32a8.00008 8.00008 0 0 0 8-8v-32a8.00008 8.00008 0 0 0 -8-8h-16v16h8v16h-16v-24a8.00008 8.00008 0 0 0 -8-8h-32a8.00008 8.00008 0 0 0 -8 8v32a8.00008 8.00008 0 0 0 8 8z"/></g></svg>