<?xml version="1.0" encoding="iso-8859-1"?>
<!-- Generator: Adobe Illustrator 19.0.0, SVG Export Plug-In . SVG Version: 6.00 Build 0)  -->
<svg version="1.1" id="Capa_1" xmlns="http://www.w3.org/2000/svg" xmlns:xlink="http://www.w3.org/1999/xlink" x="0px" y="0px"
	 viewBox="0 0 512 512" style="enable-background:new 0 0 512 512;" xml:space="preserve">
<path style="fill:#FFCF65;" d="M333.27,376.367H178.73c-2.761,0-5-2.239-5-5V100.834c0-2.761,2.239-5,5-5h154.54
	c2.761,0,5,2.239,5,5v270.533C338.27,374.129,336.032,376.367,333.27,376.367z"/>
<path style="fill:#FFB450;" d="M338.27,100.688v270.826c0,2.681-2.141,4.854-4.783,4.854h-29.656c2.642,0,4.783-2.173,4.783-4.854
	V100.688c0-2.681-2.141-4.854-4.783-4.854h29.656C336.129,95.834,338.27,98.007,338.27,100.688z"/>
<path style="fill:#C83741;" d="M339.635,339.966h-167.27c-57.363,0-103.865-46.502-103.865-103.865l0,0
	c0-57.363,46.502-103.865,103.865-103.865h167.27c57.363,0,103.865,46.502,103.865,103.865l0,0
	C443.5,293.464,396.998,339.966,339.635,339.966z"/>
<path style="fill:#D24A4A;" d="M316.197,339.966H172.365c-57.363,0-103.865-46.502-103.865-103.865l0,0
	c0-57.363,46.502-103.865,103.865-103.865h143.832c57.363,0,103.865,46.502,103.865,103.865l0,0
	C420.063,293.464,373.561,339.966,316.197,339.966z"/>
<g>
	<path style="fill:#FF4B4B;" d="M267.887,339.966h-23.775c-57.363,0-103.865-46.502-103.865-103.865l0,0
		c0-57.363,46.502-103.865,103.865-103.865h23.775c57.363,0,103.865,46.502,103.865,103.865l0,0
		C371.753,293.464,325.251,339.966,267.887,339.966z"/>
	<path style="fill:#FF4B4B;" d="M282.025,493.376c0.532,2.214-0.53,4.494-2.539,5.513c-7.07,3.587-15.044,5.611-23.486,5.611
		c-8.442,0-16.417-2.023-23.486-5.611c-2.009-1.019-3.071-3.299-2.539-5.513l14.104-58.678c1.24-5.159,5.449-9.189,10.655-9.73
		c6.133-0.637,11.669,3.417,13.099,9.365L282.025,493.376z"/>
</g>
<path d="M451,236.101c0-59.834-46.793-108.79-105.229-111.259v-24.154c0-6.812-5.51-12.354-12.283-12.354h-61.275l11.533-22.113
	c8.541-16.377,7.094-38.63-3.44-52.913C274.066,4.851,265.208,0,256,0s-18.066,4.851-24.304,13.308
	c-10.535,14.283-11.982,36.537-3.44,52.913l11.533,22.113h-61.275c-6.773,0-12.283,5.542-12.283,12.354v24.154
	C107.792,127.31,61,176.266,61,236.101c0,19.443,5.019,38.586,14.514,55.358c2.042,3.605,6.617,4.873,10.222,2.832
	c3.604-2.041,4.873-6.617,2.832-10.222C80.346,269.546,76,252.959,76,236.101c0-53.136,42.554-96.365,94.859-96.365h16.734
	c-32.765,19.296-54.846,55.264-54.846,96.365s22.08,77.069,54.846,96.365h-16.734c-25.278,0-49.059-9.983-66.963-28.111
	c-2.91-2.946-7.659-2.977-10.606-0.065c-2.947,2.911-2.976,7.659-0.065,10.606c19.648,19.893,45.423,31.314,73.005,32.466v24.152
	c0,6.812,5.51,12.354,12.283,12.354H248.5v35.065c-5.722,2.429-10.165,7.573-11.713,14.013l-14.104,58.678
	c-1.348,5.607,1.298,11.346,6.438,13.954C237.518,509.839,246.562,512,256,512c9.438,0,18.482-2.161,26.881-6.422
	c5.138-2.608,7.785-8.346,6.437-13.954l-14.192-59.043c-1.518-6.315-5.98-11.258-11.625-13.63v-35.083h69.987
	c6.773,0,12.283-5.542,12.283-12.354V347.36C404.207,344.891,451,295.935,451,236.101z M243.768,22.211
	C247.197,17.561,251.542,15,256,15c4.458,0,8.803,2.561,12.233,7.211c7.196,9.756,8.146,25.694,2.212,37.073L256,86.981
	l-14.445-27.696C235.621,47.906,236.571,31.968,243.768,22.211z M274.242,493.088c-3.453,1.56-7.045,2.648-10.742,3.276v-22.927
	c0-4.142-3.357-7.5-7.5-7.5c-4.142,0-7.5,3.358-7.5,7.5v22.927c-3.698-0.628-7.29-1.716-10.743-3.276l13.614-56.637
	c0.521-2.17,2.223-3.824,4.138-4.023c2.353-0.243,4.463,1.294,5.032,3.658L274.242,493.088z M181.229,124.735v-21.401H330.77v21.401
	H181.229z M181.229,368.867v-21.401H330.77v21.401H181.229z M341.141,332.466h-16.734c32.766-19.296,54.846-55.264,54.846-96.365
	c0-15.618-3.13-30.728-9.302-44.912c-1.653-3.798-6.075-5.539-9.869-3.884c-3.799,1.653-5.538,6.071-3.885,9.87
	c5.346,12.284,8.056,25.38,8.056,38.926c0,53.136-42.554,96.365-94.86,96.365h-26.786c-52.306,0-94.859-43.229-94.859-96.365
	s42.554-96.365,94.859-96.365h26.786c28.394,0,55.063,12.768,73.168,35.03c1.482,1.823,3.644,2.768,5.823,2.768
	c1.663,0,3.337-0.55,4.728-1.682c3.213-2.613,3.699-7.337,1.086-10.551c-8.452-10.392-18.522-18.994-29.686-25.565h16.63
	c52.306,0,94.859,43.229,94.859,96.365S393.446,332.466,341.141,332.466z"/>
<g>
</g>
<g>
</g>
<g>
</g>
<g>
</g>
<g>
</g>
<g>
</g>
<g>
</g>
<g>
</g>
<g>
</g>
<g>
</g>
<g>
</g>
<g>
</g>
<g>
</g>
<g>
</g>
<g>
</g>
</svg>
