<?xml version="1.0"?>
<svg xmlns="http://www.w3.org/2000/svg" viewBox="0 0 512 512" width="512" height="512"><g id="Fill_out_line" data-name="Fill out line"><path d="M480,152a15.97833,15.97833,0,0,1-16,16H352V136H464a15.73516,15.73516,0,0,1,6.58008,1.41992A15.97306,15.97306,0,0,1,480,152Z" style="fill:#da9065"/><path d="M456,120a15.97833,15.97833,0,0,1-16,16H304V104H440a15.73516,15.73516,0,0,1,6.58008,1.41992A15.97306,15.97306,0,0,1,456,120Z" style="fill:#da9065"/><path d="M480,152a15.97833,15.97833,0,0,1-16,16H352v-8H456a15.99226,15.99226,0,0,0,14.58008-22.58008A15.97306,15.97306,0,0,1,480,152Z" style="fill:#ab693d"/><path d="M456,120a15.97833,15.97833,0,0,1-16,16H304v-8H432a15.99226,15.99226,0,0,0,14.58008-22.58008A15.97306,15.97306,0,0,1,456,120Z" style="fill:#ab693d"/><path d="M344,200H273.89a73.03369,73.03369,0,0,0,40.5-12.26l9.29993-6.2a80.59366,80.59366,0,0,1,44.72-13.54h.43994a15.04443,15.04443,0,0,0,14.93029-12.26293,14.82665,14.82665,0,0,0-7.98009-15.83717L368,136l-64-32H162.6A114.6,114.6,0,0,0,48,218.6V245.3999A114.598,114.598,0,0,0,162.6,360H264l54.01411-16.61973a232,232,0,0,0,88.53838-50.7193L455.46,247.83008,464,240ZM124.68,172.67993A15.98751,15.98751,0,0,1,136,168h30.39A73.00014,73.00014,0,0,1,212,184a73.05936,73.05936,0,0,0,45.61,16H136a16.009,16.009,0,0,1-11.32-27.32007Z" style="fill:#fc6f35"/><path d="M455.46,247.83008,406.55249,292.661a232,232,0,0,1-88.53838,50.7193L264,360H162.6a114.57007,114.57007,0,0,1-92.12-46.43994A114.61175,114.61175,0,0,0,138.6,336H240l104-32Z" style="fill:#de5e1d"/><path d="M160.17012,312.08507h0a8.01914,8.01914,0,0,1-3.39169-11.09683,177.85074,177.85074,0,0,1,41.474-49.94624,114.69579,114.69579,0,0,0-67.104,36.21425,8.01866,8.01866,0,0,1-10.94794.90414h0a7.98281,7.98281,0,0,1-.97154-11.58056,130.69989,130.69989,0,0,1,82.79941-42.18821l20.77718-2.30822a8.2721,8.2721,0,0,1,8.05711,3.80394,8.00071,8.00071,0,0,1-1.741,10.25819l-20.51513,17.0957a161.94341,161.94341,0,0,0-37.90031,45.62324A7.97893,7.97893,0,0,1,160.17012,312.08507Z" style="fill:#de5e1d"/><path d="M432,264v32l-92.83008,42.8501A56.11642,56.11642,0,0,1,315.7,344H312a56,56,0,1,1,0-112h7.58008a55.77673,55.77673,0,0,1,16.47,2.48Z" style="fill:#de5e1d"/><rect x="432" y="264" width="40" height="32" style="fill:#ba8b5d"/><path d="M257.29,276A56.01712,56.01712,0,0,0,312,320h3.7a56.11577,56.11577,0,0,0,23.47-5.15L432,272v24l-92.83,42.85A56.11577,56.11577,0,0,1,315.7,344H312a55.99737,55.99737,0,0,1-56-56Z" style="fill:#ca4417"/><rect x="432" y="272" width="40" height="24" style="fill:#ab693d"/><path d="M344,200H273.89a73.03369,73.03369,0,0,0,40.5-12.26l9.29993-6.2a80.59366,80.59366,0,0,1,44.72-13.54h.76a14.831,14.831,0,0,0,6.63013-28.1001L368,136a13.21006,13.21006,0,0,1-9.65,18.93994l-15.75,2.63013a77.56267,77.56267,0,0,0-27.28992,10.05l-8.79,5.27A77.96872,77.96872,0,0,1,266.40991,184H266.4a77.96812,77.96812,0,0,1-34.86-8.23l-31.08-15.54A77.96812,77.96812,0,0,0,165.6,152H136a32,32,0,1,0,0,64H327.93994A159.63877,159.63877,0,0,1,374.99,223.08008l80.47,24.75L456,248l8-8Zm-208,0a16,16,0,1,1,0-32h30.39A73.00014,73.00014,0,0,1,212,184a73.05936,73.05936,0,0,0,45.61,16Z" style="fill:#de5e1d"/><path d="M152,316a20,20,0,0,1-36,12,20,20,0,0,1-32,0,19.99995,19.99995,0,1,1-.03-24.04,20,20,0,1,1,32.06006,0A20.00005,20.00005,0,0,1,152,316Z" style="fill:#7ab355"/><circle cx="132" cy="316" r="20" style="fill:#5c8f3a"/><circle cx="100" cy="316" r="20" style="fill:#699949"/><path d="M344,316a20,20,0,0,1-36,12,20,20,0,0,1-32,0,19.99995,19.99995,0,1,1-.03-24.04,20,20,0,1,1,32.06006,0A20.00005,20.00005,0,0,1,344,316Z" style="fill:#7ab355"/><circle cx="324" cy="316" r="20" style="fill:#5c8f3a"/><circle cx="292" cy="316" r="20" style="fill:#699949"/><rect x="24" y="336" width="464" height="32" rx="15.99998" ry="15.99998" style="fill:#fdca77"/><polygon points="408 400 104 400 64 368 448 368 408 400" style="fill:#fab53f"/><path d="M472,328H349.293A27.991,27.991,0,0,0,324,288a28.62569,28.62569,0,0,0-4.24121.31445,28.00275,28.00275,0,0,0-55.51758,0A28.62569,28.62569,0,0,0,260,288a27.99087,27.99087,0,0,0-25.29291,40H157.29291A27.99087,27.99087,0,0,0,132,288a28.62569,28.62569,0,0,0-4.24121.31445,28.00275,28.00275,0,0,0-55.51758,0A28.62569,28.62569,0,0,0,68,288a27.99087,27.99087,0,0,0-25.29291,40H40a24,24,0,0,0,0,48H61.1936l37.80884,30.24707A8.00033,8.00033,0,0,0,104,408H408a8.00033,8.00033,0,0,0,4.99756-1.75293L450.8064,376H472a24,24,0,0,0,0-48ZM292,280a12.01343,12.01343,0,0,1,12,12,11.88375,11.88375,0,0,1-2.377,7.16992,8,8,0,0,0,12.79443,9.60742,11.9997,11.9997,0,1,1-.021,14.418,8,8,0,0,0-12.793,0,12,12,0,0,1-19.207,0l-.01159-.01367A11.8881,11.8881,0,0,1,280,316a12.027,12.027,0,0,1,9.59082-11.75977l-3.18164-15.67968a27.67078,27.67078,0,0,0-6.3335,2.12549A12.01428,12.01428,0,0,1,292,280Zm-44,36a11.98612,11.98612,0,0,1,18.02734-10.36621,27.72017,27.72017,0,0,0-.02661,20.74634A11.984,11.984,0,0,1,248,316ZM100,280a12.01343,12.01343,0,0,1,12,12,11.88375,11.88375,0,0,1-2.37695,7.16992,8,8,0,0,0,12.79443,9.60742,11.9997,11.9997,0,1,1-.021,14.418,8,8,0,0,0-12.793,0,12,12,0,0,1-19.207,0l-.01159-.01367A11.88849,11.88849,0,0,1,88,316a12.027,12.027,0,0,1,9.59082-11.75977l-3.18164-15.67968a27.6698,27.6698,0,0,0-6.3335,2.12549A12.01433,12.01433,0,0,1,100,280ZM56,316a11.98607,11.98607,0,0,1,18.02728-10.36621,27.72017,27.72017,0,0,0-.02649,20.74634A11.984,11.984,0,0,1,56,316Zm349.19385,76H106.80615L86.80627,376H425.19373ZM472,360H40a8,8,0,0,1,0-16H472a8,8,0,0,1,0,16Z"/><path d="M396.64746,303.50586l6.70508,14.52734L433.7572,304H472a8.00008,8.00008,0,0,0,8-8V264a8.00008,8.00008,0,0,0-8-8H433.20361l-94.80273-29.16992A63.9488,63.9488,0,0,0,319.57959,224H312A63.552,63.552,0,0,0,257.148,255.01074l13.7041,8.25781A47.67735,47.67735,0,0,1,312,240h7.57959a47.94021,47.94021,0,0,1,14.11621,2.12305L424,269.9082v20.97364ZM464,288H440V272h24Z"/><path d="M58.90283,270.14453A106.79492,106.79492,0,0,1,56,245.40332V218.59668A106.71733,106.71733,0,0,1,162.59619,112H302.11133l70.11133,35.05566A6.83278,6.83278,0,0,1,369.167,160h-.76074a88.33267,88.33267,0,0,0-49.15186,14.88184l-9.29736,6.19921A64.81016,64.81016,0,0,1,273.89258,192H257.6123a65.24921,65.24921,0,0,1-40.61474-14.24707A81.30733,81.30733,0,0,0,166.3877,160H136a24,24,0,0,0,0,48H342.70166l118.76855,39.58984,5.05958-15.17968-120-40A8.0122,8.0122,0,0,0,344,192H322.42236l5.70752-3.80566A72.38586,72.38586,0,0,1,368.40625,176H464a24,24,0,0,0,0-48h-1.37622A23.99123,23.99123,0,0,0,440,96H162.59619A122.73566,122.73566,0,0,0,40,218.59668v26.80664a122.81156,122.81156,0,0,0,3.33936,28.45215ZM136,192a8,8,0,0,1,0-16h30.3877a65.24921,65.24921,0,0,1,40.61474,14.24707q1.12134.89649,2.27393,1.75293Zm336-40a8.00917,8.00917,0,0,1-8,8H390.95459a22.9536,22.9536,0,0,0-.85791-16H464A8.00917,8.00917,0,0,1,472,152Zm-24-32a8.00917,8.00917,0,0,1-8,8H369.88818l-32-16H440A8.00917,8.00917,0,0,1,448,120Z"/><circle cx="288" cy="168" r="8"/><path d="M168.10352,283.2998l12.94726,9.4004a163.219,163.219,0,0,1,27.55567-29.459l20.51513-17.0957a8.00011,8.00011,0,0,0-6.00488-14.09668l-21.08887,2.34277a131.15779,131.15779,0,0,0-71.24023,30.97168L141.21143,277.502a115.1737,115.1737,0,0,1,57.03906-26.458A179.19505,179.19505,0,0,0,168.10352,283.2998Z"/></g></svg>
