<svg height="512" viewBox="0 0 512 512" width="512" xmlns="http://www.w3.org/2000/svg"><g id="Fill_out_line" data-name="Fill out line"><path d="m280 160a127.8729 127.8729 0 1 1 -1.92993-22.26 127.42972 127.42972 0 0 1 1.92993 22.26z" fill="#fc6f35"/><path d="m488 264a128.01963 128.01963 0 1 1 -128-128 128.00321 128.00321 0 0 1 128 128z" fill="#fc6f35"/><path d="m304 168-10.85514-54.27572a32 32 0 0 0 -31.37858-25.72428h-53.76628l10.85514 54.27572a32 32 0 0 0 31.37858 25.72428z" fill="#7ab355"/><circle cx="152" cy="352" fill="#ffefd6" r="128"/><path d="m152 488c-74.99023 0-136-61.00977-136-136s61.00977-136 136-136 136 61.00977 136 136-61.00977 136-136 136zm0-256a120 120 0 1 0 120 120 120.13623 120.13623 0 0 0 -120-120z" fill="#fc6f35"/><path d="m246.3501 352a49.859 49.859 0 0 0 -13.05-33.67993l-.00073.00024a49.9567 49.9567 0 0 0 -47.61944-47.62031 49.859 49.859 0 0 0 -33.67993-13.0501c-1.34009 0-2.66992.05-4 .16016a49.81908 49.81908 0 0 0 -29.67993 12.88994l.00024.00073a49.95529 49.95529 0 0 0 -47.61963 47.61963l-.00068-.00029c-.73.8-1.42993 1.60986-2.09009 2.45a49.97429 49.97429 0 0 0 0 62.46c.66016.84009 1.36011 1.6499 2.09009 2.45l.00073-.00024a49.98715 49.98715 0 0 0 47.61963 47.61963l-.00024.00073a49.81908 49.81908 0 0 0 29.67988 12.88975c1.33008.11011 2.65991.16016 4 .16016a49.859 49.859 0 0 0 33.67993-13.05 49.9567 49.9567 0 0 0 47.61939-47.62036l.00073.00024a49.859 49.859 0 0 0 13.05005-33.67998z" fill="#fdca77"/><path d="m54.49609 229.96582a120.00566 120.00566 0 0 1 176.876-159.96777l10.58791-11.99605a135.8435 135.8435 0 0 0 -89.96-34.002c-74.99023 0-136 61.00977-136 136a135.05815 135.05815 0 0 0 25.50391 79.30566z"/><path d="m170.53027 95.58984-5.06054-15.17968-14.626 4.876a31.64076 31.64076 0 0 0 -18.417 15.97266l-.915 1.83008a15.85034 15.85034 0 0 1 -21.2666 7.08886 31.99888 31.99888 0 0 0 -28.49024 0l-21.333 10.667 7.15624 14.31054 21.333-10.667a15.93125 15.93125 0 0 1 14.17774 0 31.85206 31.85206 0 0 0 42.7334-14.24316l.915-1.83008a15.74016 15.74016 0 0 1 9.166-7.94922z"/><path d="m152 216c-74.99023 0-136 61.00977-136 136s61.00977 136 136 136 136-61.00977 136-136-61.00977-136-136-136zm0 256a120 120 0 1 1 120-120 120.13623 120.13623 0 0 1 -120 120z"/><path d="m204.05469 266.44824a23.98547 23.98547 0 0 0 -16.50069-.28124 23.98112 23.98112 0 0 0 -11.86744-11.46875 58.1 58.1 0 0 0 -47.37207-.001 23.98409 23.98409 0 0 0 -11.86816 11.469 23.97794 23.97794 0 0 0 -16.5.282 58.086 58.086 0 0 0 -33.49805 33.49707 23.98233 23.98233 0 0 0 -.28271 16.49951 23.982 23.982 0 0 0 -11.46729 11.86866 58.1 58.1 0 0 0 -.001 47.37207 23.97828 23.97828 0 0 0 11.47072 11.86205 23.98071 23.98071 0 0 0 .28027 16.5061 58.086 58.086 0 0 0 33.49707 33.498 24.25931 24.25931 0 0 0 8.66895 1.6123 23.81774 23.81774 0 0 0 7.82837-1.33789 23.98019 23.98019 0 0 0 11.87085 11.47559 57.60993 57.60993 0 0 0 23.68554 5.04785h.00879a57.59867 57.59867 0 0 0 23.67774-5.04688 23.98407 23.98407 0 0 0 11.87182-11.47656 23.81666 23.81666 0 0 0 7.82837 1.33789 24.25413 24.25413 0 0 0 8.668-1.6123 58.086 58.086 0 0 0 33.49805-33.49707 23.98277 23.98277 0 0 0 .28-16.50733 23.97426 23.97426 0 0 0 11.47-11.86084 58.08973 58.08973 0 0 0 .001-47.37207 23.98559 23.98559 0 0 0 -11.46882-11.86762 23.98077 23.98077 0 0 0 -.28222-16.50049 58.086 58.086 0 0 0 -33.49707-33.498zm-5.70606 14.94727a42.10448 42.10448 0 0 1 24.25586 24.25683 7.975 7.975 0 0 1 -4.33618 10.23853c-.02588.0105-.052.01929-.07788.03l-42.49023 17.60159-.01563.00708a3.9967 3.9967 0 0 1 -5.21191-5.221l.0039-.00879 17.60254-42.48925c.01148-.02759.02075-.05542.03223-.083a7.9755 7.9755 0 0 1 10.2373-4.33199zm-46.34863 81.95898a20.10042 20.10042 0 0 0 -4.9646.63233 19.79227 19.79227 0 0 0 -7.02246-7.02173 19.8 19.8 0 0 0 -.00317-9.9419 19.61067 19.61067 0 0 0 7.02563-7.01 19.8054 19.8054 0 0 0 9.9292 0 19.61067 19.61067 0 0 0 7.02563 7.01 19.80094 19.80094 0 0 0 -.00317 9.94214 19.789 19.789 0 0 0 -7.02246 7.02149 20.10042 20.10042 0 0 0 -4.9646-.63233zm-17.15137-94.05273a42.10493 42.10493 0 0 1 34.30371.001 7.974 7.974 0 0 1 4.17627 10.29737c-.0122.02856-.02563.05566-.03759.08447l.00659.00269-17.60327 42.4895-.002-.001-.00586.01611a3.99644 3.99644 0 0 1 -7.3706.00635l-.0083-.02246-.00293.00122v-.00024l-17.60177-42.48977.0061-.00244c-.012-.02881-.02539-.05615-.03759-.08447a7.975 7.975 0 0 1 4.17724-10.29833zm-53.45312 36.34961a42.10448 42.10448 0 0 1 24.25683-24.25586 7.97542 7.97542 0 0 1 10.23853 4.33642c.0105.02564.01929.05176.03.07764l17.60156 42.49023.00708.01563a3.9967 3.9967 0 0 1 -5.22095 5.21191l-.00879-.0039-42.48922-17.60254c-.02759-.01148-.05567-.02075-.083-.03223a7.97523 7.97523 0 0 1 -4.33204-10.2373zm-12.09278 29.19629a7.9636 7.9636 0 0 1 10.29761-4.176c.02857.012.05567.02564.08423.03735l.00269-.00659 42.4895 17.60327-.001.002.01465.00537a3.99635 3.99635 0 0 1 .00781 7.37109l-.02246.0083.00122.00293h-.00024l-42.48974 17.60174-.00244-.0061c-.02856.01171-.05591.02539-.08447.03735a7.97651 7.97651 0 0 1 -10.29834-4.177 42.10493 42.10493 0 0 1 .001-34.30371zm36.34864 87.75683a42.10448 42.10448 0 0 1 -24.25586-24.25683 7.97489 7.97489 0 0 1 4.33667-10.23877c.02563-.0105.05176-.019.07739-.02979l42.49023-17.60156.01563-.00708a3.9967 3.9967 0 0 1 5.21191 5.221l-.0039.00879-17.60254 42.4892c-.01148.02759-.02075.05542-.032.083a7.97641 7.97641 0 0 1 -10.23753 4.33204zm63.5 12.09375a41.706 41.706 0 0 1 -17.14551 3.65137h-.00586a41.71611 41.71611 0 0 1 -17.15234-3.65234 7.974 7.974 0 0 1 -4.17139-10.31031c.01025-.02441.02246-.04712.03271-.07153l-.00659-.00269 17.60327-42.4895.002.001.00586-.01611a3.99644 3.99644 0 0 1 7.3706-.00635l.0083.02246.00293-.00122v.00024l17.60177 42.48974-.0061.00244c.01025.02441.02246.04712.03271.07153a7.97506 7.97506 0 0 1 -4.17236 10.31127zm53.45312-36.34961a42.10448 42.10448 0 0 1 -24.25683 24.25586 7.97578 7.97578 0 0 1 -10.23853-4.33642c-.0105-.02588-.01929-.05176-.03-.07764l-17.60159-42.49023-.00708-.01563a3.99688 3.99688 0 0 1 5.22095-5.21216l.00879.00415 42.48925 17.60254c.02759.01148.05518.02075.08277.032a7.97543 7.97543 0 0 1 4.33227 10.23753zm12.09278-29.19629a7.97386 7.97386 0 0 1 -10.29761 4.176c-.02857-.012-.05567-.02564-.08423-.03735l-.00269.00659-42.4895-17.60327.001-.002-.01611-.00586a3.99656 3.99656 0 0 1 -.0044-7.37158l.02051-.00732-.00122-.00293h.00024l42.48974-17.60174.00244.0061c.02856-.01171.05566-.02539.08423-.03735a7.96424 7.96424 0 0 1 10.29858 4.177 42.09461 42.09461 0 0 1 -.001 34.30371z"/><path d="m360 128a136.515 136.515 0 0 0 -33.99414 4.28418l3.98828 15.49609a120.01386 120.01386 0 1 1 30.00586 236.21973 118.83459 118.83459 0 0 1 -52.49512-12.05957l-7.00976 14.38281a134.70762 134.70762 0 0 0 59.50488 13.67676c74.99023 0 136-61.00977 136-136s-61.00977-136-136-136z"/><path d="m230.77441 221.502 15.19922 4.9961a119.54092 119.54092 0 0 1 14.792-29.99219l-13.2207-9.01172a135.4854 135.4854 0 0 0 -16.77052 34.00781z"/><path d="m201.81348 82.92773a8.00253 8.00253 0 0 0 -1.65821 6.64161l10.85547 54.27441a40.10663 40.10663 0 0 0 39.22266 32.15625h53.7666a7.96969 7.96969 0 0 0 1.41992-.13892l14.58008 11.92945v11.12524a16.06807 16.06807 0 0 1 -1.75488-.738 31.99888 31.99888 0 0 0 -28.49024 0l-21.333 10.667 7.15624 14.31054 21.333-10.667a15.93125 15.93125 0 0 1 14.17774 0 31.85206 31.85206 0 0 0 42.7334-14.24316l.915-1.83008a15.74016 15.74016 0 0 1 9.166-7.94922l14.62695-4.876-5.06054-15.17968-14.626 4.876a31.64076 31.64076 0 0 0 -18.417 15.97266l-.915 1.83008a15.828 15.828 0 0 1 -3.51167 4.6296v-35.71851h-16v7.11865l-9.58643-7.84326-9.42431-47.11914a40.10663 40.10663 0 0 0 -39.22266-32.15625h-53.7666a7.99963 7.99963 0 0 0 -6.18652 2.92773zm59.95312 13.07227a24.06388 24.06388 0 0 1 23.5332 19.294l5.604 28.01855-45.83838-37.50391-10.13086 12.38282 51.09938 41.80854h-35.80054a24.06388 24.06388 0 0 1 -23.5332-19.29395l-8.94141-44.70605z"/><path d="m288 264h16v16h-16z"/><path d="m312 296h16v16h-16z"/><path d="m344 280h16v16h-16z"/><path d="m360 312h16v16h-16z"/><path d="m376 248h16v16h-16z"/><path d="m392 216h16v16h-16z"/><path d="m408 288h16v16h-16z"/><path d="m424 256h16v16h-16z"/><path d="m64 168h16v16h-16z"/><path d="m88 200h16v16h-16z"/><path d="m120 184h16v16h-16z"/><path d="m136 152h16v16h-16z"/><path d="m168 120h16v16h-16z"/><path d="m120 64h16v16h-16z"/><path d="m152 56h16v16h-16z"/><path d="m168 184h16v16h-16z"/><path d="m184 152h16v16h-16z"/></g></svg>