<?xml version="1.0"?>
<svg xmlns="http://www.w3.org/2000/svg" viewBox="0 0 512 512" width="512" height="512"><g id="Fill_out_line" data-name="Fill out line"><path d="M488,224c0,80.23-59.04,133.47-136.04,142.6001A202.91655,202.91655,0,0,1,328,368c-36.81006,0-70.71973-9.66016-97.76-27.31006C192.37988,315.97,168,275.55005,168,224c0-21.6001,4.28-41.24,12.04-58.6001C204.02,111.76,261.23,80,328,80c34.43994,0,66.33984,8.45,92.4502,24C461.33008,128.33984,488,170.07007,488,224Z" style="fill:#e04446"/><path d="M184,40h0a53.66555,53.66555,0,0,1,24,24l3.05575,6.1115A46.83277,46.83277,0,0,0,252.94424,96h0a46.83264,46.83264,0,0,0,20.94425-4.94427L296,80l-3.5125-10.5375a63.89445,63.89445,0,0,0-51.57956-43.04708h0A63.89453,63.89453,0,0,0,208.142,30.34318Z" style="fill:#7ab355"/><polygon points="360 72 344 128 312 128 314.29 120 328 72 360 72" style="fill:#ba8b5d"/><path d="M488,224c0,80.23-59.04,133.47-136.04,142.6001A202.91655,202.91655,0,0,1,328,368c-36.81006,0-70.71973-9.66016-97.76-27.31006A190.053,190.053,0,0,0,296,352a202.91655,202.91655,0,0,0,23.96-1.3999C396.96,341.47,456,288.23,456,208c0-43.52-17.37988-79.09009-45.56006-104H420.4502C461.33008,128.33984,488,170.07007,488,224Z" style="fill:#d6323f"/><path d="M364,308c0,21.6001-4.28027,41.24-12.04,58.6001A202.91655,202.91655,0,0,1,328,368c-88.37012,0-160-55.62988-160-144,0-21.6001,4.28-41.24,12.04-58.6001A202.91655,202.91655,0,0,1,204,164C292.37012,164,364,219.62988,364,308Z" style="fill:#d6323f"/><ellipse cx="184" cy="328" rx="160" ry="144" style="fill:#e04446"/><path d="M344,328c0,80.556-59.51959,133.90709-136.98851,142.70907a12.797,12.797,0,0,0-10.1218,7.13254l-1.42,2.95A12.72928,12.72928,0,0,1,184,488h0a12.72928,12.72928,0,0,1-11.46971-7.20839l-1.42-2.95a12.797,12.797,0,0,0-10.1218-7.13254C83.51959,461.90709,24,408.556,24,328c0-58.79892,31.71207-103.10028,78.96862-126.165a48.74747,48.74747,0,0,1,53.38371,7.21807l.57412.5012a48.89231,48.89231,0,0,1,11.71225,15.2393L184,256l11.80378-29.50945a48.89229,48.89229,0,0,1,12.56976-18.07632l0,0a48.74211,48.74211,0,0,1,52.91466-8.3456C310.60616,222.59063,344,267.66459,344,328Z" style="fill:#fdca77"/><path d="M214.28,370.1499,184,408l-25.6001-32L153.72,370.1499A64.382,64.382,0,0,1,147.07007,360a64.02644,64.02644,0,0,1,8.57983-72.1001c.06006-.07983.14014-.16992.21-.25L166.64014,275.53,184,256l28.14014,31.6499a64.0321,64.0321,0,0,1,2.13989,82.5Z" style="fill:#ba8b5d"/><path d="M214.28,370.1499,184,408l8.98-17.96a131.50374,131.50374,0,0,0-2.65991-122.66992L184,256l28.14014,31.6499a64.0321,64.0321,0,0,1,2.13989,82.5Z" style="fill:#9f764a"/><path d="M464.99219,132.12793c-19.2334-24.12012-46.48926-42.02734-78.82129-51.78711l-4.62305,15.31836c29.207,8.81543,53.73633,24.876,70.93457,46.44336C470.48438,164.67871,480,192.99805,480,224c0,69.26367-47.60254,121.69629-121.27344,133.5791l2.54688,15.79492c38.665-6.23632,71.83691-23.01855,95.92968-48.5332C482.584,297.96191,496,263.0918,496,224,496,189.33594,485.27734,157.56641,464.99219,132.12793Z"/><path d="M228.2207,118.44434l-9.48242-12.88868a141.95674,141.95674,0,0,0-43.2832,50.85059l14.29492,7.1875A126.08073,126.08073,0,0,1,228.2207,118.44434Z"/><path d="M180.42188,47.15527a45.96542,45.96542,0,0,1,20.42285,20.42285l3.05566,6.11133A54.53516,54.53516,0,0,0,252.94434,104a55.10639,55.10639,0,0,0,24.52246-5.78906l17.37744-8.68872a143.11415,143.11415,0,0,1,15.45019,15.325L306.334,118.71045a185.73729,185.73729,0,0,1-23.67773-4.29346l-8.7168-2.17871-3.8789,15.52344,8.71582,2.17773A203.11714,203.11714,0,0,0,328,136a203.15081,203.15081,0,0,0,49.22266-6.05957l8.71679-2.17871-3.8789-15.52344-8.71778,2.17969q-8.98461,2.24634-18.16162,3.56885l12.51123-43.78858A8.00064,8.00064,0,0,0,360,64H328a8.00054,8.00054,0,0,0-7.69238,5.80176l-4.86817,17.03857a159.95651,159.95651,0,0,0-12.53613-11.43042l-2.82617-8.47729A71.89462,71.89462,0,0,0,205.16992,22.915l-24.1416,9.65723a8.00009,8.00009,0,0,0-.60644,14.583ZM334.03418,80h15.36035l-11.34082,39.69019q-7.70069.41125-15.417.20288ZM211.1123,37.77051a55.93395,55.93395,0,0,1,67.46827,21.16064,159.38555,159.38555,0,0,0-38.33545-15.11572l-14.30469-3.57617-3.88086,15.52148,14.30469,3.57617a143.99357,143.99357,0,0,1,44.17431,19.44922l-10.228,5.11426A39.02927,39.02927,0,0,1,252.94434,88a38.6221,38.6221,0,0,1-34.7334-21.4668l-3.05567-6.11132a61.92483,61.92483,0,0,0-14.2705-18.55958Z"/><path d="M264.61133,192.791c-.3584-.16358-.72071-.314-1.08154-.46973l.00927-.02051C239.76172,181.63672,212.25781,176,184,176c-30.32422,0-59.55859,6.44629-84.543,18.64258l.00171.00342C46.41943,220.533,16,269.13916,16,328c0,40.71,14.45215,76.64648,41.793,103.92578,25.60937,25.55078,61.9375,42.14746,102.293,46.73242a4.77934,4.77934,0,0,1,3.81543,2.65332l1.4209,2.9502a20.72975,20.72975,0,0,0,37.35644,0l1.41895-2.9502a4.78245,4.78245,0,0,1,3.81738-2.65332c40.35449-4.585,76.68262-21.18164,102.292-46.73242C337.54785,404.64648,352,368.71,352,328c0-30.86523-8.14844-58.65723-24.21875-82.60352C312.74121,222.98633,290.89746,204.7959,264.61133,192.791ZM214.47,194.41577a57.00485,57.00485,0,0,0-26.094,29.10376l-5.13184,12.83008-7.42773-15.08887a56.60172,56.60172,0,0,0-13.625-17.72949l-.57813-.50488a57.394,57.394,0,0,0-11.83423-7.9773,193.46984,193.46984,0,0,1,64.69092-.6333ZM200,344a8.00235,8.00235,0,0,0,5.65723-2.34277l14.58813-14.58814a55.86416,55.86416,0,0,1-12.21509,38.08716L184,395.19336,168.645,376H184a8.00235,8.00235,0,0,0,5.65723-2.34277l8-8-11.31446-11.31446L180.68652,360H156.31177a55.83605,55.83605,0,0,1-6.9021-16H176V328H147.71045a55.82761,55.82761,0,0,1,12.55688-33.177l9.07642,13.6145A7.99943,7.99943,0,0,0,176,312h24V296H180.28125l-9.05688-13.58545L184,268.042l22.15625,24.92676a56.15056,56.15056,0,0,1,9.866,15.69482L196.68652,328H184v16Zm98.90625,76.59863c-23.06152,23.00977-56.01758,37.98242-92.79687,42.16114a20.701,20.701,0,0,0-16.42872,11.6123l-1.41894,2.9502a4.72944,4.72944,0,0,1-8.52246,0l-1.4209-2.95118a20.6989,20.6989,0,0,0-16.42676-11.61132c-36.78027-4.17872-69.73633-19.15137-92.79785-42.16114C44.82715,396.3877,32,364.36719,32,328c0-52.50977,27.14648-95.875,74.47754-118.97559a40.31314,40.31314,0,0,1,17.706-4.09472,40.89358,40.89358,0,0,1,26.9043,10.14648l.57813.50488a40.691,40.691,0,0,1,9.79492,12.7461l12.98535,26.37939-24.56152,27.63135a71.831,71.831,0,0,0-2.40918,92.81348l30.27734,37.84668a8.00106,8.00106,0,0,0,12.49414,0l30.27734-37.84766a71.82837,71.82837,0,0,0-2.40918-92.81152l-24.85156-27.9585,9.96778-24.91943a41.11834,41.11834,0,0,1,10.51367-15.11817,40.674,40.674,0,0,1,44.21972-6.99707C307.55762,229.99316,336,273.96973,336,328,336,364.36719,323.17285,396.3877,298.90625,420.59863Z"/></g></svg>
