<?xml version="1.0"?>
<svg xmlns="http://www.w3.org/2000/svg" viewBox="0 0 512 512" width="512" height="512"><g id="Fill_out_line" data-name="Fill out line"><path d="M344,232a94.17428,94.17428,0,0,1-11.49,45.07007,140.55218,140.55218,0,0,1-112.53,72.78l-7.91.60986L192,352H176l-6.19-.48L155.93,350.46l-7.91-.60986a140.51552,140.51552,0,0,1-112.53-72.78,94.151,94.151,0,0,1,0-90.14014,140.55218,140.55218,0,0,1,112.53-72.78l7.91-.60986L176,112h16l20.07,1.54,7.91.60986A140.62868,140.62868,0,0,1,285.48,136.26q5.58,3.61486,10.8,7.74a140.14777,140.14777,0,0,1,36.23,42.92993A94.17428,94.17428,0,0,1,344,232Z" style="fill:#e04446"/><path d="M344,232a94.17428,94.17428,0,0,1-11.49,45.07007,140.55218,140.55218,0,0,1-112.53,72.78l-7.91.60986L192,352H176l-6.19-.48q-3.375-5.05518-6.32-10.45a94.151,94.151,0,0,1,0-90.14014,140.55218,140.55218,0,0,1,112.53-72.78l3.98-.31006V144h16.28a140.14777,140.14777,0,0,1,36.23,42.92993A94.17428,94.17428,0,0,1,344,232Z" style="fill:#d6323f"/><rect x="152" y="80" width="64" height="33.84615" style="fill:#fab53f"/><rect x="152" y="350.1499" width="64" height="33.8501" style="fill:#fab53f"/><path d="M216,350.1499V384H199.72A139.9527,139.9527,0,0,1,168.9,350.1499Z" style="fill:#fca529"/><path d="M488,296a94.17428,94.17428,0,0,1-11.49,45.07007,140.552,140.552,0,0,1-112.53,72.78l-7.90991.60986L336,416H320l-20.07007-1.54L292.02,413.8501a140.51552,140.51552,0,0,1-112.53-72.78,94.151,94.151,0,0,1,0-90.14014,140.552,140.552,0,0,1,112.53-72.78l7.90991-.60986L320,176h16l20.07007,1.54,7.90991.60986a140.51552,140.51552,0,0,1,112.53,72.78A94.17428,94.17428,0,0,1,488,296Z" style="fill:#e04446"/><rect x="296" y="144" width="64" height="33.84615" style="fill:#fab53f"/><rect x="296" y="414.15385" width="64" height="33.84615" style="fill:#fab53f"/><path d="M483.53027,247.09961A147.89163,147.89163,0,0,0,368,170.491V144a8.00008,8.00008,0,0,0-8-8H336V16H320V136H296a8.00008,8.00008,0,0,0-8,8v26.491a147.89181,147.89181,0,0,0-115.53027,76.60864,102.117,102.117,0,0,0,0,97.80078A147.89181,147.89181,0,0,0,288,421.509V496h16V456h16v40h16V456h16v40h16V421.509a147.89163,147.89163,0,0,0,115.53027-76.60864,102.117,102.117,0,0,0,0-97.80078ZM304.27393,186.627c-6.10938,13.32642-10.7732,34.51685-13.92823,63.43653a450.96691,450.96691,0,0,0,0,91.873c3.15515,28.91993,7.819,50.11036,13.9281,63.43653-23.83313-4.88111-45.76208-30.08472-57.77526-66.792a142.75336,142.75336,0,0,1,0-85.1621C258.51172,216.71191,280.44043,191.5083,304.27393,186.627Zm19.095,219.52735c-3.19239-2.52515-11.94825-18.56787-17.11792-65.95215a435.12092,435.12092,0,0,1,0-88.4043c5.18518-47.52588,13.97888-63.52466,17.08923-65.95215h9.29089c3.19239,2.52515,11.94825,18.56787,17.11792,65.95215A416.351,416.351,0,0,1,352,296a416.351,416.351,0,0,1-2.251,44.20215c-5.18518,47.52588-13.97888,63.52466-17.08923,65.95215Zm28.35717-.78125c6.10938-13.32642,10.7732-34.51685,13.92823-63.43653A432.51168,432.51168,0,0,0,368,296a432.51168,432.51168,0,0,0-2.3457-45.93652c-3.15515-28.91993-7.819-50.11036-13.9281-63.43653,23.83313,4.88135,45.76208,30.0857,57.77526,66.792a142.75336,142.75336,0,0,1,0,85.1621C397.48828,375.28809,375.55957,400.4917,351.72607,405.37305ZM304,152h48v17.8457h-4.29431l-.01526-.00195-.00024.00195H304ZM186.51562,337.23828a86.11827,86.11827,0,0,1,0-82.47656,131.92374,131.92374,0,0,1,78.08729-63.42383c-13.897,13.59961-25.459,33.11353-33.31043,57.10449a158.71881,158.71881,0,0,0,0,95.11524c7.85138,23.99072,19.41327,43.50464,33.31006,57.104A131.92242,131.92242,0,0,1,186.51562,337.23828ZM304,422.1543h48V440H304Zm165.48438-84.916a131.92323,131.92323,0,0,1-78.087,63.42359c13.89685-13.59961,25.45886-33.11353,33.31018-57.10425a158.71881,158.71881,0,0,0,0-95.11524c-7.85132-23.99072-19.41333-43.50464-33.31055-57.10425a131.92217,131.92217,0,0,1,78.08741,63.42359,86.11827,86.11827,0,0,1,0,82.47656Z"/><path d="M176,392V376H160V347.419a8.0002,8.0002,0,0,0-5.42188-7.57325c-21.9707-7.47851-40.95263-31.2666-52.07958-65.26465a142.75336,142.75336,0,0,1,0-85.1621c12.0133-36.70728,33.94177-61.91089,57.77545-66.79224-6.10938,13.32641-10.77314,34.51709-13.92829,63.43677A432.51168,432.51168,0,0,0,144,232c0,8.23145.21289,16.44727.6333,24.4209l15.97754-.8418C160.20557,247.88477,160,239.95117,160,232a416.351,416.351,0,0,1,2.251-44.20215c5.18518-47.52588,13.97888-63.52466,17.08923-65.95215h9.29535c2.942,2.29346,10.50287,15.592,15.81219,55.2168l15.8584-2.125c-2.44629-18.25781-5.64258-33.24219-9.5-44.53613-.97809-2.86377-1.98895-5.44287-3.03528-7.77954,17.78083,3.60717,34.31018,18.09814,46.83655,41.19262l14.06446-7.6289a120.89947,120.89947,0,0,0-21.24378-28.82422A132.41839,132.41839,0,0,1,268.42285,135.71l7.1543-14.31055A147.63444,147.63444,0,0,0,224,106.47852V80a8.00008,8.00008,0,0,0-8-8H192V16H176V72H152a8.00008,8.00008,0,0,0-8,8v26.491A147.89181,147.89181,0,0,0,28.46973,183.09961a102.117,102.117,0,0,0,0,97.80078A147.89181,147.89181,0,0,0,144,357.509V432h16V392ZM160,88h48v17.8457H160ZM42.51562,273.23828a86.11827,86.11827,0,0,1,0-82.47656,131.9234,131.9234,0,0,1,78.087-63.42359c-13.89679,13.59961-25.4588,33.11353-33.31018,57.10425a158.71881,158.71881,0,0,0,0,95.11524c7.81165,23.86889,19.38141,43.45141,33.35693,57.11767A131.9226,131.9226,0,0,1,42.51562,273.23828Z"/><rect x="176" y="400" width="16" height="32"/><rect x="208" y="416" width="16" height="16"/></g></svg>
