<svg height="512" viewBox="0 0 512 512" width="512" xmlns="http://www.w3.org/2000/svg"><g id="Fill_out_line" data-name="Fill out line"><path d="m487.29 183.1-20 20-199.29 199.29-29.61 29.61-158.39-158.39 248.9-248.9z" fill="#e04446"/><path d="m328.9 24.71-11.312 56.565 113.137 113.137 56.569-11.314z" fill="#e5585a"/><circle cx="374.156" cy="137.844" fill="#fdca77" r="24"/><path d="m24 72h224v352h-224z" fill="#e04446"/><path d="m102.059 214.059h67.882v67.882h-67.882z" fill="#fdca77" transform="matrix(.707 -.707 .707 .707 -135.529 168.804)"/><path d="m248 72-32-48h-160l-32 48z" fill="#e5585a"/><g fill="#fdca77"><path d="m360 272a56 56 0 1 0 56 56 55.99746 55.99746 0 0 0 -56-56zm0 80-24-24 24-24 24 24z"/><path d="m432 336a56 56 0 1 0 56 56 55.99746 55.99746 0 0 0 -56-56zm0 80-24-24 24-24 24 24z"/><path d="m352 376a56 56 0 1 0 56 56 55.99746 55.99746 0 0 0 -56-56zm0 80-24-24 24-24 24 24z"/></g><path d="m56 144h16v-16h-8v-16h16v24a8.00008 8.00008 0 0 0 8 8h32a8.00008 8.00008 0 0 0 8-8v-32a8.00008 8.00008 0 0 0 -8-8h-16v16h8v16h-16v-24a8.00008 8.00008 0 0 0 -8-8h-32a8.00008 8.00008 0 0 0 -8 8v32a8.00008 8.00008 0 0 0 8 8z"/><path d="m152 144h16v-16h-8v-16h16v24a8.00008 8.00008 0 0 0 8 8h32a8.00008 8.00008 0 0 0 8-8v-32a8.00008 8.00008 0 0 0 -8-8h-16v16h8v16h-16v-24a8.00008 8.00008 0 0 0 -8-8h-32a8.00008 8.00008 0 0 0 -8 8v32a8.00008 8.00008 0 0 0 8 8z"/><path d="m56 400h16v-16h-8v-16h16v24a8.00008 8.00008 0 0 0 8 8h32a8.00008 8.00008 0 0 0 8-8v-32a8.00008 8.00008 0 0 0 -8-8h-16v16h8v16h-16v-24a8.00008 8.00008 0 0 0 -8-8h-32a8.00008 8.00008 0 0 0 -8 8v32a8.00008 8.00008 0 0 0 8 8z"/><path d="m216 352h-16v16h8v16h-16v-24a8.00008 8.00008 0 0 0 -8-8h-32a8.00008 8.00008 0 0 0 -8 8v32a8.00008 8.00008 0 0 0 8 8h16v-16h-8v-16h16v24a8.00008 8.00008 0 0 0 8 8h32a8.00008 8.00008 0 0 0 8-8v-32a8.00008 8.00008 0 0 0 -8-8z"/><path d="m48 160h176v16h-176z"/><path d="m48 320h176v16h-176z"/><path d="m130.34326 194.34277-48 48a8.00034 8.00034 0 0 0 0 11.31446l48 48a8.00063 8.00063 0 0 0 11.31348 0l48-48a8.00034 8.00034 0 0 0 0-11.31446l-48-48a8.00182 8.00182 0 0 0 -11.31348 0zm5.65674 90.34375-36.68652-36.68652 36.68652-36.68652 36.68652 36.68652z"/><path d="m254.65625 67.5625-.012-.01807-.0199-.02978-22.4681-33.70215a39.92043 39.92043 0 0 0 -33.28225-17.8125h-125.748a39.91892 39.91892 0 0 0 -33.28176 17.8125l-22.46863 33.70215-.0199.02978-.012.01807.00073.00049a7.96 7.96 0 0 0 -1.34444 4.43701v352a8.00008 8.00008 0 0 0 8 8h224a8.00008 8.00008 0 0 0 8-8v-352a7.96 7.96 0 0 0 -1.34448-4.437zm-201.499-24.875a23.94962 23.94962 0 0 1 19.96875-10.6875h125.748a23.95112 23.95112 0 0 1 19.96924 10.6875l14.20864 21.3125h-194.10364zm186.84275 373.3125h-208v-336h208z"/><path d="m432 328a63.59109 63.59109 0 0 0 -8.01294.51318c.00134-.17114.01294-.342.01294-.51318a63.85519 63.85519 0 0 0 -22.03491-48.25952l90.98511-90.98462a8.00062 8.00062 0 0 0 0-11.31445l-158.39209-158.39258a8.00061 8.00061 0 0 0 -11.31348 0l-56.90137 56.90234 11.31348 11.31445 38.21838-38.21948-2.77307 13.866a39.92128 39.92128 0 0 0 10.93895 36.12986l22.543 22.543a32.01678 32.01678 0 0 0 43.82642 43.82691l22.54808 22.54809a39.94769 39.94769 0 0 0 36.12841 10.93848l13.86646-2.7732-74.54724 74.54639a63.91011 63.91011 0 0 0 -85.70154 85.70191l-36.36133 36.36084 11.31348 11.31445 34.0946-34.09424a64.30052 64.30052 0 0 0 7.30249 7.2002 63.98787 63.98787 0 1 0 93.40857 75.78906 63.99955 63.99955 0 1 0 19.5376-124.94389zm-69.15674-178.8418a16 16 0 1 1 22.627-.001 15.89661 15.89661 0 0 1 -22.627.001zm83.10645 34.0508a23.96032 23.96032 0 0 1 -21.67774-6.56347l-22.54321-22.54322a32.014 32.014 0 0 0 -43.83105-43.83154l-22.54322-22.54323a23.95043 23.95043 0 0 1 -6.563-21.67774l5.0232-25.11694 137.2522 137.25269zm-133.94971 144.791a48 48 0 0 1 96 0c0 1.60449-.0813 3.20752-.23889 4.79883a64.31931 64.31931 0 0 0 -36.24939 38.25317 63.88074 63.88074 0 0 0 -34.94556-1.15893 48.33038 48.33038 0 0 1 -24.56616-41.89307zm40 152a48 48 0 1 1 48-48 48.05405 48.05405 0 0 1 -48 48zm80-40a47.63716 47.63716 0 0 1 -16.22876-2.80713c.13855-1.71487.22876-3.44311.22876-5.19287a63.59881 63.59881 0 0 0 -5.72876-26.41479l16.072 16.072a8.00063 8.00063 0 0 0 11.31348 0l24-24a8.00034 8.00034 0 0 0 0-11.31446l-24-24a8.00182 8.00182 0 0 0 -11.31348 0l-24 24a7.95354 7.95354 0 0 0 -2.08887 3.68653 64.466 64.466 0 0 0 -14.14221-12.14038 48.00377 48.00377 0 1 1 45.88784 62.1111zm-12.68652-48 12.68652-12.68652 12.68652 12.68652-12.68652 12.68652z"/><path d="m357.65674 402.34277a8.00182 8.00182 0 0 0 -11.31348 0l-24 24a8.00034 8.00034 0 0 0 0 11.31446l24 24a8.00063 8.00063 0 0 0 11.31348 0l24-24a8.00034 8.00034 0 0 0 0-11.31446zm-5.65674 42.34375-12.68652-12.68652 12.68652-12.68652 12.68652 12.68652z"/><path d="m360 360a7.97661 7.97661 0 0 0 5.65674-2.34277l24-24a8.00034 8.00034 0 0 0 0-11.31446l-24-24a8.00182 8.00182 0 0 0 -11.31348 0l-24 24a8.00034 8.00034 0 0 0 0 11.31446l24 24a7.97661 7.97661 0 0 0 5.65674 2.34277zm0-44.68652 12.68652 12.68652-12.68652 12.68652-12.68652-12.68652z"/></g></svg>