<svg height="512" viewBox="0 0 512 512" width="512" xmlns="http://www.w3.org/2000/svg"><g id="Fill_out_line" data-name="Fill out line"><path d="m352 24h-192l-136 136v192l136 136h192l136-136v-192z" fill="#fdca77"/><path d="m304 304a47.986 47.986 0 0 1 -46.76 47.98c-.40991.02-.83008.02-1.24.02s-.83008 0-1.24-.02a95.98783 95.98783 0 0 1 0-191.96 47.998 47.998 0 0 0 1.24 95.98 47.99956 47.99956 0 0 1 48 48z" fill="#d4e4f0"/><path d="m352 256a95.97631 95.97631 0 0 1 -94.76 95.98 47.998 47.998 0 0 0 -1.24-95.98 47.998 47.998 0 0 1 -1.24-95.98c.40991-.02.83008-.02 1.24-.02s.83008 0 1.24.02a95.97631 95.97631 0 0 1 94.76 95.98z" fill="#68737f"/><circle cx="256" cy="208" fill="#d4e4f0" r="16"/><circle cx="256" cy="304" fill="#68737f" r="16"/><g fill="#e04446"><path d="m180.43994 32 9.9502 24h131.05986l9.92993-24z"/><path d="m193.71 64 9.95 24h104.54l9.94019-24z"/><path d="m206.98 96 6.62988 16 3.32007 8h78.03l9.93018-24z"/><path d="m150.90991 44.31006-41.99 41.99 16.97022 16.97 34.96972-34.97zm-64.60986 64.60986-42.12012 42.12008 24.01 9.92993 35.08007-35.07979z"/><path d="m164.17993 76.30005-87.99 87.98 24.01007 9.93995 73.92017-73.91992z"/><path d="m184.07007 124.29-6.64014-16-69.22993 69.24 16 6.61987 8.01 3.31006 55.16988-55.17993z"/><path d="m32 180.62012v150.93994l24-9.9502v-131.05981z"/><path d="m64 193.85986v46.14014h24v-36.19995zm0 78.14014v46.29l24-9.9502v-36.3398z"/><path d="m96 207.10986v97.91014l24-9.95v-78.03z"/><path d="m68.30005 351.14014-23.99 9.9497 41.99 41.99024 16.97-16.97022zm57.59009 57.58986-16.97022 16.97 42.12008 42.12007 9.92993-24.01z"/><path d="m100.30005 337.87988-24 9.94019 32.62988 32.62993 16.97-16.97zm48.22 48.22022-16.97 16.97 32.73 32.74 9.93994-24.01z"/><path d="m132.28 324.62012-23.99 9.95 69.24 69.23 9.93-24.01012z"/><path d="m190.55005 456-9.92993 24h59.37988v-24zm131.05981 0h-49.60986v24h59.56006z"/><path d="m203.80005 424-9.94019 24h46.14014v-24zm104.54 0h-36.34005v24h46.29z"/><path d="m217.04 392-9.93018 24h32.89018v-24zm78.03 0h-23.07v24h33.02z"/><path d="m443.81006 351.03-57.7002 57.7-34.96972 34.97 9.95 23.99 106.73-106.73z"/><path d="m363.48 386.1001-25.60012 25.5999 9.94019 24 32.62993-32.62993zm48.32005-48.3201-25.69995 25.7 16.97 16.97 32.74-32.73z"/><path d="m340.85986 363.48-16.23974 16.24 9.95 23.99 23.26-23.26zm38.93014-38.94-16.31 16.31986 16.97 16.97022 23.35005-23.36008z"/><path d="m456 190.39014v49.60986h24v-59.56006zm0 81.60986v49.45l24 9.92993v-59.37993z"/><path d="m424 203.65991v104.54009l24 9.94019v-124.43019z"/><path d="m392 216.92993v23.07007h24v-33.02zm0 55.07007v22.96l24 9.93018v-32.89018z"/><path d="m360.96 44.17993-9.92993 24.01 92.66993 92.66993 23.99-9.95z"/><path d="m347.72 76.18994-9.94 24.01006 73.92 73.92012 24-9.94019z"/><path d="m334.47 108.2-6.61987 16-3.31013 8.01 16.31986 16.31 5.65015-5.6499 11.32007-11.32007zm45.98 45.97-16.97 16.97022 16.24 16.23974 7.99-3.30981 16-6.64014z"/></g><path d="m256 184a24 24 0 1 0 24 24 24.0275 24.0275 0 0 0 -24-24zm0 32a8 8 0 1 1 8-8 8.00917 8.00917 0 0 1 -8 8z"/><path d="m280 304a24 24 0 1 0 -24 24 24.0275 24.0275 0 0 0 24-24zm-24 8a8 8 0 1 1 8-8 8.00917 8.00917 0 0 1 -8 8z"/><path d="m301.00391 199.79492-10.00782 12.48438a56.33872 56.33872 0 0 1 19.23926 29.71484l15.4961-3.98828a72.451 72.451 0 0 0 -24.72754-38.21094z"/><path d="m310.23633 270.00586 15.49414 3.98828a72.22228 72.22228 0 0 0 2.26953-17.99414h-16a56.252 56.252 0 0 1 -1.76367 14.00586z"/><path d="m493.65723 154.34277-136-136a8.00235 8.00235 0 0 0 -5.65723-2.34277h-192a8.00235 8.00235 0 0 0 -5.65723 2.34277l-136 136a8.00235 8.00235 0 0 0 -2.34277 5.65723v192a8.00235 8.00235 0 0 0 2.34277 5.65723l136 136a8.00235 8.00235 0 0 0 5.65723 2.34277h192a8.00235 8.00235 0 0 0 5.65723-2.34277l136-136a8.00235 8.00235 0 0 0 2.34277-5.65723v-192a8.00235 8.00235 0 0 0 -2.34277-5.65723zm-13.65723 109.65723h-16v-16h16zm-16 16h16v42.72168l-16-6.61963zm16-48h-16v-36.2666l16-6.63526zm-93.89673-72.17017 11.48218 11.48217-15.98975 6.6294-6.80175-6.80079zm-38.88452-61.51245 6.62231-16.00464 75.7378 75.7378-15.99781 6.62915zm-6.62256 16.00537 11.574 11.574-11.31179 11.31125-6.88281-6.87891zm19.8667-48.01611 6.594-15.93628 94.44605 94.446-15.92578 6.60351zm-151.45996 13.69336-6.63477-16h107.11084l-6.62451 16zm87.22925 16-6.61988 16h-67.33984l-6.63476-16zm-100.49878-48-6.63526-16h133.62378l-6.61938 16zm-17.78906 82.40918-47.61622 47.61621-16.00463-6.62231 56.98851-56.98853zm-111.63672 21.126-15.939-6.59034 30.32154-30.32153 11.26416 11.26514zm36.9602-36.96021-11.26416-11.26516 11.30615-11.30615 11.26519 11.26416zm54.783-32.155 6.62891 15.999-66.36231 66.3623-16.00492-6.62209zm-6.6311-15.99682-25.53129 25.5312-11.26514-11.26416 30.19092-30.19092zm-119.41972 122.85444 16 6.61987v120.36914l-16 6.63526zm66.41748 158.04223 16.1648 16.1648-11.312 11.311-20.8484-20.84738zm10.50879 44.44629 16.96948-16.968 11.30615 11.30615-16.968 16.96948-16.92408 16.92261-11.30616-11.30616zm16.96362 28.27808 25.646 25.64673-6.59107 15.94043-30.32153-30.32154zm32.26831 9.64136-20.9541-20.95508 11.31128-11.31275 16.26636 16.26636zm13.24512-32.00879-56.98926-56.98828 15.99512-6.63282 47.61621 47.61622zm-79.44727-11.56738-11.26586 11.26733-30.19119-30.19116 15.9258-6.60645zm110.56446 61.89062 6.625-16h22.85449v16zm29.47949-32h-16.23218l6.61988-16h9.6123zm-36.102 48h36.102v16h-42.72168zm113.73389-16h-29.63189v-16h22.99707zm-29.63189-32v-16h9.72754l6.63476 16zm0 48h36.2666l6.63526 16h-42.90186zm54.05859-82.4043 6.80079-6.80175 11.30688 11.30542-11.48047 11.48046zm13.25879 31.98047 16.16309-16.16308 11.31665 11.31811-20.84839 20.84839zm13.2627 32.001 85.11328-85.11426 15.93628 6.594-94.44605 94.44605zm25.51929-93.41089-11.30737-11.30788 6.87891-6.88281 16.001 6.61816zm27.57836-4.95044 16.00855 6.62622-20.95508 20.95506-11.31811-11.31665zm60.2002 7.59277-91.03027-37.66113a7.99645 7.99645 0 0 0 -8.71582 1.73731l-16.30957 16.31931a7.99944 7.99944 0 0 0 .001 11.31152l39.59448 39.595-11.30715 11.3071-39.595-39.59448a8.0018 8.0018 0 0 0 -11.31347 0l-16.23924 16.23926a8.00114 8.00114 0 0 0 -1.73242 8.72168l37.70923 90.96265-6.25318 6.25317h-8.46386l-37.76266-91.06445a8.001 8.001 0 0 0 -7.38969-4.93555h-23.07031a8.00039 8.00039 0 0 0 -8 8v88h-16v-88a8.00039 8.00039 0 0 0 -8-8h-22.96a8.00034 8.00034 0 0 0 -7.39258 4.94141l-37.68502 91.05859h-8.64892l-6.12012-6.12012 37.65918-91.02832a8.00113 8.00113 0 0 0 -1.73535-8.71582l-55.17578-55.17574a8.00046 8.00046 0 0 0 -8.72168-1.73242l-90.96411 37.7146-6.25562-6.25566v-8.46386l91.06445-37.76266a8.001 8.001 0 0 0 4.93555-7.38969v-78.03031a8.00034 8.00034 0 0 0 -4.94141-7.39258l-91.05859-37.68599v-8.648l6.12012-6.12012 91.02832 37.65918a8.00262 8.00262 0 0 0 8.71582-1.73535l55.17574-55.17573a8.00117 8.00117 0 0 0 1.73242-8.72168l-37.7146-90.96411 6.25566-6.25562h8.46386l37.76266 91.06445a8.001 8.001 0 0 0 7.38969 4.93555h78.03031a8.00034 8.00034 0 0 0 7.39258-4.94141l37.68502-91.05859h8.64892l6.12207 6.12207-37.66113 91.03027a7.99963 7.99963 0 0 0 1.73731 8.71582l16.31933 16.30957a7.99944 7.99944 0 0 0 11.31152-.001l16.968-16.96655 11.30615 11.30615-16.96655 16.968a8 8 0 0 0 0 11.31347l16.23926 16.23926a8.00063 8.00063 0 0 0 8.72168 1.73242l90.96265-37.70923 6.25319 6.25323v8.46386l-91.06445 37.76266a8.001 8.001 0 0 0 -4.93555 7.38969v23.07031a8.00039 8.00039 0 0 0 8 8h24v16h-24a8.00039 8.00039 0 0 0 -8 8v22.96a8.00034 8.00034 0 0 0 4.94141 7.39258l91.05859 37.68502v8.64892zm-393.87793-145.66237v22.85376h-16v-29.47876zm-16 38.85376h16v16h-16zm0 32h16v22.99683l-16 6.63476zm32 16.3623v-80.59472l16 6.62012v67.33984zm352-93.99414v107.11133l-16-6.625v-93.85156zm-48 87.24414v-9.6123h16v16.23218zm16-57.6123h-16v-9.72754l16-6.63476z"/><path d="m256.91431 152.01172q-.9159-.02381-1.83326 0a104.00232 104.00232 0 1 0 1.83326 0zm-88.91431 103.98828a87.95619 87.95619 0 0 1 37.3457-71.91919 56.03394 56.03394 0 0 0 50.6543 79.91919 39.99844 39.99844 0 0 1 1.04 79.9834v.00342c-.34668.0039-.69238.01318-1.04.01318a88.09957 88.09957 0 0 1 -88-88zm138.6543 71.91919a56.03394 56.03394 0 0 0 -50.6543-79.91919 39.99844 39.99844 0 0 1 -1.04-79.9834c.05762-.001.11426-.00268.17188-.00561.28955-.00269.57788-.011.86816-.011a87.97359 87.97359 0 0 1 50.6543 159.91919z"/></g></svg>