<svg height="512" viewBox="0 0 512 512" width="512" xmlns="http://www.w3.org/2000/svg"><g id="Fill_out_line" data-name="Fill out line"><path d="m16 344h472v144h-472z" fill="#e04446"/><path d="m232 408h48v80h-48z" fill="#d6323f"/><path d="m328 408h48v80h-48z" fill="#d6323f"/><path d="m136 408h48v80h-48z" fill="#d6323f"/><path d="m112 184h288v48h-288z" fill="#68737f"/><path d="m400 184a72 72 0 0 0 43.2-14.4l12.8-9.6h-22.05891a81.94105 81.94105 0 0 1 -57.94109-24h-240a81.94105 81.94105 0 0 1 -57.94107 24h-22.05893l12.8 9.6a72 72 0 0 0 43.2 14.4z" fill="#fdca77"/><path d="m376 88a72 72 0 0 0 43.2-14.4l12.8-9.6h-22.05891a81.94105 81.94105 0 0 1 -57.94109-24h-192a81.94105 81.94105 0 0 1 -57.94107 24h-22.05893l12.8 9.6a72 72 0 0 0 43.2 14.4z" fill="#fdca77"/><path d="m136 88h240v48h-240z" fill="#68737f"/><path d="m112 224h288v88h-288z" fill="#d6323f"/><g fill="#e04446"><path d="m104 208h16v104h-16z"/><path d="m136 208h16v104h-16z"/><path d="m168 208h16v104h-16z"/><path d="m200 208h16v104h-16z"/><path d="m296 208h16v104h-16z"/><path d="m328 208h16v104h-16z"/><path d="m360 208h16v104h-16z"/><path d="m392 208h16v104h-16z"/></g><path d="m232 88h48v56h-48z" fill="#d4e4f0"/><path d="m464 296v16h-32v-16h-32v16h-32v-16h-32v16h-32v-16h-32v16h-32v-16h-32v16h-32v-16h-32v16h-32v-16h-32v16h-32v-16h-32v48h480v-48z" fill="#ffefd6"/><path d="m200 344h112v32h-112z" fill="#68737f"/><path d="m96 448h-80v-202.87988a18.04992 18.04992 0 0 0 8-11.11012c4 15.41992 19.49 11.40991 23.49 26.82983 4 15.43017-11.49 19.45017-7.49 34.8799 4 15.42041 19.49 11.41015 23.49 26.84033s-11.49 19.43994-7.49 34.87012c4 15.42968 19.49 11.40966 23.49 26.83984s-11.49 19.44971-7.49 34.87988 19.49 11.41016 23.49 26.84033z" fill="#7ab355"/><path d="m16 448h24v40h-24z" fill="#da9065"/><path d="m496 245.12012v202.87988h-80l.51-2.00977c4-15.43017 19.49-11.41015 23.49-26.84033s-11.49-19.4497-7.49-34.87988 19.49-11.41016 23.49-26.83984c4-15.43018-11.49-19.44-7.49-34.87012s19.49-11.41992 23.49-26.84033c4-15.42969-11.49-19.44971-7.49-34.87989 4-15.41992 19.49-11.40991 23.49-26.82983a18.05014 18.05014 0 0 0 8 11.11011z" fill="#7ab355"/><path d="m472 448h24v40h-24z" fill="#da9065" transform="matrix(-1 0 0 -1 968 936)"/><path d="m96 456a8.0003 8.0003 0 0 0 7.75195-9.97754l-.52-2.03808c-2.834-10.93165-10.123-15.2002-15.44531-18.31836-4.769-2.793-6.92432-4.21-8.04346-8.52735-1.11962-4.3164.07618-6.60254 2.88721-11.36035 3.13721-5.31055 7.43359-12.584 4.59961-23.51562-2.834-10.93067-10.123-15.19922-15.44531-18.31641-4.76856-2.793-6.92383-4.209-8.04248-8.52441-1.11914-4.31641.07666-6.60157 2.88769-11.36036 3.13721-5.30957 7.4336-12.582 4.6001-23.51269s-10.123-15.19922-15.44531-18.31641c-4.76807-2.792-6.92334-4.209-8.042-8.52441-1.11914-4.31641.07666-6.60156 2.88769-11.3584 3.13721-5.31055 7.43408-12.582 4.60059-23.5127-2.834-10.92968-10.12305-15.19824-15.44532-18.31445-4.42773-2.59277-6.602-3.999-7.78564-7.64062v-.88184a8 8 0 0 0 -16 0v2.00781a7.99952 7.99952 0 0 0 .25586 2.00781c2.834 10.92969 10.12305 15.19727 15.44482 18.31348 4.76807 2.792 6.92334 4.208 8.042 8.52344s-.07669 6.60058-2.88769 11.35746c-3.13721 5.31055-7.43457 12.583-4.60059 23.51367 2.8335 10.92969 10.12256 15.19825 15.44483 18.31543 4.76855 2.793 6.92383 4.209 8.04248 8.52539 1.11914 4.31543-.07666 6.60157-2.88721 11.3584-3.13769 5.31055-7.43408 12.583-4.60058 23.51465 2.834 10.92969 10.123 15.19824 15.44482 18.31543 4.76856 2.793 6.92432 4.209 8.043 8.52539 1.11963 4.31738-.07617 6.60352-2.88721 11.36133-3.1372 5.31055-7.43359 12.584-4.59961 23.51465 2.834 10.93164 10.12305 15.20019 15.44532 18.31836q.46362.271.896.52734h-18.70782c-3.38355-8.04688-9.48169-11.627-14.10181-14.334-4.76855-2.793-6.92432-4.21-8.04346-8.52735-1.11962-4.3164.07618-6.60254 2.88721-11.36035 3.13721-5.31055 7.43359-12.584 4.59961-23.51562s-10.12353-15.2002-15.44629-18.31739c-1.27392-.74511-2.477-1.45019-3.52734-2.18261l-9.15723 13.11914c1.57227 1.09765 3.11084 1.999 4.59912 2.87109 4.76905 2.792 6.92481 4.209 8.04346 8.52539 1.11963 4.31738-.07617 6.60352-2.88721 11.36133-3.1372 5.31055-7.43359 12.584-4.59961 23.51465 2.834 10.93164 10.123 15.20019 15.44532 18.31836.30963.18115.60711.35644.89514.52734h-24.59534v16h16v24h-16v16h24a8.00008 8.00008 0 0 0 8-8v-32.00002z"/><path d="m384 416h8v-16h-80v16h8v64h-32v-64h8v-16h-80v16h8v64h-32v-64h8v-16h-80v16h8v64h-64v16h384v-16h-64zm-48 0h32v64h-32zm-96 0h32v64h-32zm-96 0h32v64h-32z"/><path d="m200 384h112a8.00008 8.00008 0 0 0 8-8v-24h112v-16h-352v16h112v24a8.00008 8.00008 0 0 0 8 8zm104-16h-96v-16h96z"/><path d="m440 296a8.00008 8.00008 0 0 0 -8-8h-32a8.00008 8.00008 0 0 0 -8 8v8h-16v-8a8.00008 8.00008 0 0 0 -8-8h-32a8.00008 8.00008 0 0 0 -8 8v8h-16v-8a8.00008 8.00008 0 0 0 -8-8h-32a8.00008 8.00008 0 0 0 -8 8v8h-16v-8a8.00008 8.00008 0 0 0 -8-8h-32a8.00008 8.00008 0 0 0 -8 8v8h-16v-8a8.00008 8.00008 0 0 0 -8-8h-32a8.00008 8.00008 0 0 0 -8 8v8h-16v-8a8.00008 8.00008 0 0 0 -8-8h-32a8.00008 8.00008 0 0 0 -8 8v8h32v8a8.00008 8.00008 0 0 0 8 8h32a8.00008 8.00008 0 0 0 8-8v-8h16v8a8.00008 8.00008 0 0 0 8 8h32a8.00008 8.00008 0 0 0 8-8v-8h16v8a8.00008 8.00008 0 0 0 8 8h32a8.00008 8.00008 0 0 0 8-8v-8h16v8a8.00008 8.00008 0 0 0 8 8h32a8.00008 8.00008 0 0 0 8-8v-8h16v8a8.00008 8.00008 0 0 0 8 8h32a8.00008 8.00008 0 0 0 8-8v-8h32z"/><path d="m51.2002 166.40039 12.79931 9.59861a80.55618 80.55618 0 0 0 40.00049 15.5762v80.4248h16v-32h16v32h16v-32h16v32h16v-32h16v32h16v-32h80v32h16v-32h16v32h16v-32h16v32h16v-32h16v32h16v-80.4248a80.55842 80.55842 0 0 0 40-15.5752l12.7998-9.59961a8.00012 8.00012 0 0 0 -4.7998-14.40039h-22.05908a73.403 73.403 0 0 1 -49.94092-19.42529v-36.99951a80.55842 80.55842 0 0 0 40-15.5752l12.7998-9.59961a8.00026 8.00026 0 0 0 -4.7998-14.40039h-22.05908a73.45746 73.45746 0 0 1 -52.28418-21.65723 7.9924 7.9924 0 0 0 -5.32324-2.32617v-16.0166h-16v16h-160.3335v-16h-16v16a8.00035 8.00035 0 0 0 -5.65674 2.34277 73.45746 73.45746 0 0 1 -52.28418 21.65723h-22.05908a8.00026 8.00026 0 0 0 -4.7998 14.40039l12.79931 9.59861a80.55618 80.55618 0 0 0 40.00049 15.5762v36.99951a73.403 73.403 0 0 1 -49.94092 19.42529h-22.05908a8.00012 8.00012 0 0 0 -4.7998 14.40039zm308.7998 41.59961v16h-16v-16h-16v16h-16v-16h-16v16h-80v-16h-16v16h-16v-16h-16v16h-16v-16h-16v16h-16v-32h272v32h-16v-16zm-136-80h-80v-32h80zm16-32h32v48h-32zm48 0h80v32h-80zm-124.77344-48h185.54688a89.25659 89.25659 0 0 0 58.27246 23.95508 64.45392 64.45392 0 0 1 -31.0459 8.04492h-240a64.443 64.443 0 0 1 -31.0459-8.04492 89.25659 89.25659 0 0 0 58.27246-23.95508zm-24 96h84.77344v8a8.00008 8.00008 0 0 0 8 8h48a8.00008 8.00008 0 0 0 8-8v-8h84.77344a89.25659 89.25659 0 0 0 58.27246 23.95508 64.45392 64.45392 0 0 1 -31.0459 8.04492h-288a64.443 64.443 0 0 1 -31.0459-8.04492 89.25659 89.25659 0 0 0 58.27246-23.95508z"/><path d="m480.29932 254.3291c5.32177-3.11621 12.61084-7.38379 15.44482-18.31348a7.99952 7.99952 0 0 0 .25586-2.00781v-2.00781a8 8 0 0 0 -16 0v.88184c-1.18359 3.6416-3.35791 5.04785-7.78564 7.64062-5.32227 3.11621-12.61133 7.38477-15.44532 18.31445-2.83349 10.93067 1.46338 18.20215 4.60059 23.5127 2.811 4.75684 4.00683 7.042 2.88769 11.3584-1.11865 4.31543-3.27392 5.73242-8.042 8.52441-5.32226 3.11719-12.61181 7.38574-15.44531 18.31641s1.46289 18.20312 4.6001 23.51269c2.811 4.75879 4.00683 7.044 2.88769 11.36036-1.11865 4.31542-3.27392 5.73144-8.04248 8.52441-5.32225 3.11719-12.61132 7.38571-15.44532 18.31641-2.834 10.93164 1.4624 18.20507 4.59961 23.51562 2.811 4.75781 4.00683 7.04395 2.88721 11.36035-1.11914 4.31738-3.27442 5.73438-8.04346 8.52735-5.32227 3.11816-12.61133 7.38671-15.45313 18.34863l-.5122 2.00781a8.0003 8.0003 0 0 0 7.75197 9.97754h48v32a8.00008 8.00008 0 0 0 8 8h24v-16h-16v-24h16v-16h-24.59534q.432-.25635.89514-.52734c5.32227-3.11817 12.61133-7.38672 15.44532-18.31836 2.834-10.93067-1.46241-18.2041-4.59961-23.51465-2.811-4.75781-4.00684-7.04395-2.88721-11.36133 1.11865-4.31641 3.27441-5.7334 8.04346-8.52539 1.48828-.87207 3.02685-1.77344 4.59912-2.87109l-9.15723-13.11914c-1.05029.73242-2.25342 1.4375-3.52734 2.18261-5.32276 3.11719-12.61231 7.38574-15.44629 18.31739s1.4624 18.20507 4.59961 23.51562c2.811 4.75781 4.00683 7.04395 2.88721 11.36035-1.11914 4.31738-3.27491 5.73438-8.04346 8.52735-4.61621 2.70459-10.70776 6.28173-14.098 14.334h-18.71157q.43212-.25635.896-.52734c5.32227-3.11817 12.61133-7.38672 15.44532-18.31836 2.834-10.93067-1.46241-18.2041-4.59961-23.51465-2.811-4.75781-4.00684-7.04395-2.88721-11.36133 1.11865-4.31641 3.27441-5.73242 8.043-8.52539 5.32178-3.11719 12.61084-7.38574 15.44482-18.31543 2.8335-10.93164-1.46289-18.2041-4.60058-23.51465-2.81055-4.75683-4.00635-7.043-2.88721-11.3584 1.11865-4.3164 3.27393-5.73242 8.04248-8.52539 5.32227-3.11718 12.61133-7.38574 15.44483-18.31543 2.834-10.93066-1.46338-18.20312-4.60059-23.51367-2.811-4.75684-4.00635-7.042-2.8877-11.35742s3.27389-5.73147 8.04196-8.52346z"/></g></svg>