<?xml version="1.0" encoding="iso-8859-1"?>
<!-- Generator: Adobe Illustrator 19.0.0, SVG Export Plug-In . SVG Version: 6.00 Build 0)  -->
<svg version="1.1" id="Capa_1" xmlns="http://www.w3.org/2000/svg" xmlns:xlink="http://www.w3.org/1999/xlink" x="0px" y="0px"
	 viewBox="0 0 512 512" style="enable-background:new 0 0 512 512;" xml:space="preserve">
<path style="fill:#E6AF78;" d="M416.551,436.551H27.5c-11.046,0-20-8.954-20-20V27.5c0-11.046,8.954-20,20-20h389.051
	c11.046,0,20,8.954,20,20v389.051C436.551,427.596,427.596,436.551,416.551,436.551z"/>
<path style="fill:#D5945E;" d="M436.551,26.914v390.223c0,10.722-8.692,19.414-19.414,19.414h-30.092
	c10.722,0,19.414-8.692,19.414-19.414V26.914c0-10.722-8.692-19.414-19.414-19.414h30.092
	C427.859,7.5,436.551,16.192,436.551,26.914z"/>
<path style="fill:#B4826E;" d="M141.578,53.589c0,11.57-9.38,20.95-20.95,20.95s-20.95-9.38-20.95-20.95s9.38-20.95,20.95-20.95
	C132.199,32.64,141.578,42.019,141.578,53.589z M53.589,99.679c-11.57,0-20.95,9.38-20.95,20.95s9.38,20.95,20.95,20.95
	s20.95-9.38,20.95-20.95S65.16,99.679,53.589,99.679z"/>
<path style="fill:#FFCF65;" d="M369.512,53.589c0-11.57,9.38-20.95,20.95-20.95s20.95,9.38,20.95,20.95s-9.38,20.95-20.95,20.95
	C378.891,74.539,369.512,65.16,369.512,53.589z M390.461,99.679c-11.57,0-20.95,9.38-20.95,20.95s9.38,20.95,20.95,20.95
	s20.95-9.38,20.95-20.95S402.032,99.679,390.461,99.679z M323.422,32.64c-11.57,0-20.95,9.38-20.95,20.95s9.38,20.95,20.95,20.95
	s20.95-9.38,20.95-20.95S334.992,32.64,323.422,32.64z"/>
<path style="fill:#7DB764;" d="M74.539,390.461c0,11.57-9.38,20.95-20.95,20.95s-20.95-9.379-20.95-20.95
	c0-11.57,9.38-20.95,20.95-20.95S74.539,378.891,74.539,390.461z M120.629,369.512c-11.57,0-20.95,9.38-20.95,20.95
	s9.38,20.95,20.95,20.95s20.95-9.379,20.95-20.95C141.578,378.891,132.199,369.512,120.629,369.512z M53.589,302.472
	c-11.57,0-20.95,9.38-20.95,20.95s9.38,20.95,20.95,20.95s20.95-9.379,20.95-20.95C74.539,311.852,65.16,302.472,53.589,302.472z"/>
<path style="fill:#FF4B4B;" d="M411.411,390.461c0,11.57-9.38,20.95-20.95,20.95s-20.95-9.379-20.95-20.95
	c0-11.57,9.38-20.95,20.95-20.95C402.032,369.512,411.411,378.891,411.411,390.461z M390.461,344.372
	c11.57,0,20.95-9.379,20.95-20.95c0-11.57-9.38-20.95-20.95-20.95s-20.95,9.38-20.95,20.95
	C369.512,334.992,378.891,344.372,390.461,344.372z M323.422,369.512c-11.57,0-20.95,9.38-20.95,20.95s9.38,20.95,20.95,20.95
	s20.95-9.379,20.95-20.95S334.992,369.512,323.422,369.512z"/>
<path style="fill:#4B82C8;" d="M480.232,504.5c-13.403,0-24.268-10.865-24.268-24.268s10.865-24.268,24.268-24.268
	S504.5,466.83,504.5,480.232S493.635,504.5,480.232,504.5z"/>
<path style="fill:#69AFEB;" d="M74.539,53.589c0,11.57-9.38,20.95-20.95,20.95s-20.95-9.38-20.95-20.95s9.38-20.95,20.95-20.95
	S74.539,42.019,74.539,53.589z M441.728,455.965c-13.403,0-24.268,10.865-24.268,24.268s10.865,24.268,24.268,24.268
	s24.268-10.865,24.268-24.268S455.13,455.965,441.728,455.965z"/>
<path d="M417.137,444.051H26.914C12.073,444.051,0,431.978,0,417.137V26.914C0,12.073,12.073,0,26.914,0h79.767
	c4.143,0,7.5,3.357,7.5,7.5s-3.357,7.5-7.5,7.5H26.914C20.345,15,15,20.345,15,26.914v390.223c0,6.569,5.345,11.914,11.914,11.914
	h390.223c6.569,0,11.914-5.345,11.914-11.914V26.914c0-6.569-5.345-11.914-11.914-11.914H134.176c-4.143,0-7.5-3.357-7.5-7.5
	s3.357-7.5,7.5-7.5h282.961c14.841,0,26.914,12.073,26.914,26.914v390.223C444.051,431.978,431.978,444.051,417.137,444.051z
	 M25.14,53.59c0-15.688,12.763-28.45,28.45-28.45s28.449,12.763,28.449,28.45S69.276,82.039,53.59,82.039
	C37.902,82.039,25.14,69.276,25.14,53.59z M40.14,53.59c0,7.416,6.034,13.449,13.45,13.449s13.449-6.033,13.449-13.449
	S61.006,40.14,53.59,40.14S40.14,46.174,40.14,53.59z M149.078,53.59c0,15.687-12.763,28.449-28.449,28.449
	c-15.688,0-28.45-12.763-28.45-28.449c0-15.688,12.763-28.45,28.45-28.45C136.315,25.14,149.078,37.902,149.078,53.59z
	 M134.078,53.59c0-7.416-6.033-13.45-13.449-13.45s-13.45,6.034-13.45,13.45s6.034,13.449,13.45,13.449
	C128.045,67.039,134.078,61.006,134.078,53.59z M25.14,120.629c0-15.688,12.763-28.45,28.45-28.45s28.449,12.763,28.449,28.45
	s-12.763,28.449-28.449,28.449C37.902,149.078,25.14,136.315,25.14,120.629z M40.14,120.629c0,7.416,6.034,13.449,13.45,13.449
	s13.449-6.033,13.449-13.449s-6.033-13.45-13.449-13.45S40.14,113.213,40.14,120.629z M362.012,53.59
	c0-15.688,12.763-28.45,28.449-28.45c15.688,0,28.45,12.763,28.45,28.45s-12.763,28.449-28.45,28.449S362.012,69.276,362.012,53.59z
	 M377.012,53.59c0,7.416,6.033,13.449,13.449,13.449s13.45-6.033,13.45-13.449s-6.034-13.45-13.45-13.45
	S377.012,46.174,377.012,53.59z M362.012,120.629c0-15.688,12.763-28.45,28.449-28.45c15.688,0,28.45,12.763,28.45,28.45
	s-12.763,28.449-28.45,28.449S362.012,136.315,362.012,120.629z M377.012,120.629c0,7.416,6.033,13.449,13.449,13.449
	s13.45-6.033,13.45-13.449s-6.034-13.45-13.45-13.45S377.012,113.213,377.012,120.629z M323.422,82.039
	c-15.687,0-28.449-12.763-28.449-28.449c0-15.688,12.763-28.45,28.449-28.45c15.688,0,28.45,12.763,28.45,28.45
	C351.872,69.276,339.109,82.039,323.422,82.039z M323.422,67.039c7.416,0,13.45-6.033,13.45-13.449s-6.034-13.45-13.45-13.45
	s-13.449,6.034-13.449,13.45S316.006,67.039,323.422,67.039z M82.039,390.461c0,15.688-12.763,28.45-28.449,28.45
	c-15.688,0-28.45-12.763-28.45-28.45s12.763-28.449,28.45-28.449C69.276,362.012,82.039,374.774,82.039,390.461z M67.039,390.461
	c0-7.416-6.033-13.449-13.449-13.449s-13.45,6.033-13.45,13.449s6.034,13.45,13.45,13.45S67.039,397.877,67.039,390.461z
	 M120.629,362.012c15.687,0,28.449,12.763,28.449,28.449c0,15.688-12.763,28.45-28.449,28.45c-15.688,0-28.45-12.763-28.45-28.45
	S104.941,362.012,120.629,362.012z M120.629,377.012c-7.416,0-13.45,6.033-13.45,13.449s6.034,13.45,13.45,13.45
	s13.449-6.034,13.449-13.45S128.045,377.012,120.629,377.012z M82.039,323.422c0,15.688-12.763,28.45-28.449,28.45
	c-15.688,0-28.45-12.763-28.45-28.45s12.763-28.449,28.45-28.449C69.276,294.973,82.039,307.735,82.039,323.422z M67.039,323.422
	c0-7.416-6.033-13.449-13.449-13.449s-13.45,6.033-13.45,13.449s6.034,13.45,13.45,13.45S67.039,330.838,67.039,323.422z
	 M418.911,390.461c0,15.688-12.763,28.45-28.45,28.45s-28.449-12.763-28.449-28.45s12.763-28.449,28.449-28.449
	C406.148,362.012,418.911,374.774,418.911,390.461z M403.911,390.461c0-7.416-6.034-13.449-13.45-13.449
	s-13.449,6.033-13.449,13.449s6.033,13.45,13.449,13.45S403.911,397.877,403.911,390.461z M418.911,323.422
	c0,15.688-12.763,28.45-28.45,28.45s-28.449-12.763-28.449-28.45s12.763-28.449,28.449-28.449
	C406.148,294.973,418.911,307.735,418.911,323.422z M403.911,323.422c0-7.416-6.034-13.449-13.45-13.449
	s-13.449,6.033-13.449,13.449s6.033,13.45,13.449,13.45S403.911,330.838,403.911,323.422z M351.872,390.461
	c0,15.688-12.763,28.45-28.45,28.45s-28.449-12.763-28.449-28.45s12.763-28.449,28.449-28.449
	C339.109,362.012,351.872,374.774,351.872,390.461z M336.872,390.461c0-7.416-6.034-13.449-13.45-13.449
	s-13.449,6.033-13.449,13.449s6.033,13.45,13.449,13.45S336.872,397.877,336.872,390.461z M413.363,216.722
	c2.929,2.93,2.929,7.678,0,10.607L227.329,413.363c-1.465,1.464-3.385,2.196-5.304,2.196s-3.839-0.732-5.304-2.196L30.688,227.329
	c-2.929-2.93-2.929-7.678,0-10.607L216.722,30.688c2.93-2.928,7.678-2.928,10.607,0L413.363,216.722z M284.037,108.609
	l-20.399,20.399l20.398,20.398l20.399-20.399L284.037,108.609z M315.043,139.615l-20.399,20.399l20.398,20.398l20.399-20.399
	L315.043,139.615z M346.048,170.621l-20.399,20.399l20.398,20.398l20.399-20.399L346.048,170.621z M366.447,253.032l-20.399-20.399
	l-20.398,20.398l20.399,20.399L366.447,253.032z M335.441,284.038l-20.399-20.399l-20.398,20.398l20.399,20.399L335.441,284.038z
	 M304.436,315.043l-20.399-20.399l-20.398,20.398l20.399,20.399L304.436,315.043z M273.43,346.049l-20.399-20.399l-20.398,20.398
	l20.399,20.399L273.43,346.049z M191.019,366.447l20.399-20.399L191.02,325.65l-20.399,20.399L191.019,366.447z M160.013,335.441
	l20.399-20.399l-20.398-20.398l-20.399,20.399L160.013,335.441z M129.008,304.436l20.399-20.399l-20.398-20.398l-20.399,20.399
	L129.008,304.436z M98.002,273.43l20.399-20.399l-20.398-20.398l-20.399,20.399L98.002,273.43z M77.604,191.019l20.399,20.399
	l51.404-51.404l-20.399-20.399l-20.399,20.398l7.508,7.509c2.929,2.929,2.929,7.678-0.001,10.606
	c-1.464,1.464-3.384,2.196-5.303,2.196c-1.92,0-3.839-0.732-5.304-2.197l-7.507-7.508L77.604,191.019z M139.615,129.008
	l20.399,20.399l20.398-20.398l-20.399-20.399L139.615,129.008z M170.621,98.002l20.399,20.399l20.398-20.398l-20.399-20.399
	L170.621,98.002z M233.463,137.97l8.961-8.961l-20.398-20.398l-20.398,20.398l51.404,51.404l20.398-20.398l-20.398-20.398
	l-8.961,8.961c-1.465,1.464-3.385,2.196-5.304,2.196s-3.839-0.732-5.304-2.196C230.534,145.647,230.534,140.899,233.463,137.97z
	 M273.429,222.025l-20.398-20.398l-20.398,20.398l20.398,20.398L273.429,222.025z M263.638,253.031l20.398,20.398l20.398-20.398
	l-20.398-20.398L263.638,253.031z M222.025,170.622l-20.398,20.398l20.398,20.398l20.398-20.398L222.025,170.622z M211.417,160.014
	l-20.398-20.398l-20.398,20.398l20.398,20.398L211.417,160.014z M160.014,170.622l-20.398,20.398l20.398,20.398l20.398-20.398
	L160.014,170.622z M170.622,222.025l20.398,20.398l20.398-20.398l-20.398-20.398L170.622,222.025z M160.014,232.633l-20.398,20.398
	l20.398,20.398l20.398-20.398L160.014,232.633z M170.622,284.037l20.398,20.398l20.398-20.398l-20.398-20.398L170.622,284.037z
	 M242.423,253.031l-20.398-20.398l-20.398,20.398l20.398,20.398L242.423,253.031z M284.036,211.418l20.398-20.398l-20.398-20.398
	l-20.398,20.398L284.036,211.418z M108.61,222.025l20.398,20.398l20.398-20.398l-20.398-20.398L108.61,222.025z M222.025,335.44
	l20.398-20.398l-9.208-9.208c-2.929-2.93-2.929-7.678,0-10.607c2.93-2.928,7.678-2.928,10.607,0l9.208,9.208l20.398-20.398
	l-20.398-20.398l-51.404,51.404L222.025,335.44z M335.44,222.025l-20.398-20.398l-20.398,20.398l20.398,20.398L335.44,222.025z
	 M273.43,98.002l-20.398-20.398l-20.399,20.399l20.398,20.398L273.43,98.002z M201.626,66.997l20.399,20.399l20.399-20.399
	l-20.399-20.399L201.626,66.997z M46.598,222.025l20.399,20.399l20.399-20.399l-20.399-20.399L46.598,222.025z M242.424,377.054
	l-20.399-20.399l-20.399,20.399l20.399,20.399L242.424,377.054z M397.453,222.025l-20.399-20.399l-20.399,20.399l20.399,20.399
	L397.453,222.025z M512,480.232C512,497.749,497.749,512,480.232,512c-6.992,0-13.76-2.334-19.256-6.519
	c-5.345,4.085-12.017,6.519-19.249,6.519c-17.517,0-31.768-14.251-31.768-31.768s14.251-31.768,31.768-31.768
	c7.23,0,13.901,2.433,19.246,6.517c5.491-4.187,12.245-6.517,19.259-6.517C497.749,448.465,512,462.716,512,480.232z
	 M458.495,480.232c0-9.246-7.521-16.768-16.768-16.768s-16.768,7.521-16.768,16.768S432.481,497,441.728,497
	S458.495,489.479,458.495,480.232z M497,480.232c0-9.246-7.521-16.768-16.768-16.768c-3.548,0-6.968,1.134-9.799,3.174
	c1.961,4.124,3.062,8.731,3.062,13.593c0,4.864-1.102,9.474-3.064,13.599c2.834,2.039,6.265,3.168,9.802,3.168
	C489.479,497,497,489.479,497,480.232z"/>
<g>
</g>
<g>
</g>
<g>
</g>
<g>
</g>
<g>
</g>
<g>
</g>
<g>
</g>
<g>
</g>
<g>
</g>
<g>
</g>
<g>
</g>
<g>
</g>
<g>
</g>
<g>
</g>
<g>
</g>
</svg>
