<?xml version="1.0" encoding="iso-8859-1"?>
<!-- Generator: Adobe Illustrator 19.0.0, SVG Export Plug-In . SVG Version: 6.00 Build 0)  -->
<svg version="1.1" id="Capa_1" xmlns="http://www.w3.org/2000/svg" xmlns:xlink="http://www.w3.org/1999/xlink" x="0px" y="0px"
	 viewBox="0 0 512 512" style="enable-background:new 0 0 512 512;" xml:space="preserve">
<g>
	<path style="fill:#963737;" d="M94.452,114.277H73.5c-16.569,0-30-13.431-30-30V66.621c0-16.569,13.431-30,30-30h20.952
		C94.452,36.621,94.452,114.277,94.452,114.277z"/>
	<path style="fill:#963737;" d="M385.432,327.832H438.5c16.569,0,30,13.431,30,30v17.656c0,16.569-13.431,30-30,30h-43.068
		c-5.523,0-10-4.477-10-10V327.832z"/>
</g>
<path style="fill:#FF9744;" d="M101.114,504.5h-8.977c-5.523,0-10-4.477-10-10V46.621c0-5.523,4.477-10,10-10h8.977
	c5.523,0,10,4.477,10,10V494.5C111.114,500.023,106.636,504.5,101.114,504.5z"/>
<path style="fill:#FF4B4B;" d="M439.523,94.863c16.004,0,28.977,13.038,28.977,29.121v223.262v29.121
	c0-16.083-12.974-29.121-28.977-29.121H72.477c-16.004,0-28.977-13.038-28.977-29.121V94.863V65.742
	c0,16.083,12.974,29.121,28.977,29.121H439.523z"/>
<path style="fill:#D24A4A;" d="M468.5,123.984v223.262v29.121c0-16.083-12.974-29.121-28.977-29.121V123.984
	c0-16.083-12.974-29.121-28.977-29.121h28.977C455.526,94.863,468.5,107.901,468.5,123.984z"/>
<path style="fill:#FFCF65;" d="M96.625,56.035c-13.336,0-24.148-10.865-24.148-24.268S83.289,7.5,96.625,7.5
	s24.148,10.865,24.148,24.268S109.961,56.035,96.625,56.035z M206.938,202.709c3.393-3.324,1.521-9.115-3.168-9.8l-33.086-4.831
	c-1.862-0.272-3.472-1.447-4.305-3.143l-14.797-30.13c-2.097-4.27-8.156-4.27-10.253,0l-14.797,30.13
	c-0.833,1.696-2.442,2.871-4.305,3.143l-33.086,4.831c-4.689,0.685-6.562,6.476-3.168,9.8l23.941,23.453
	c1.347,1.32,1.962,3.222,1.644,5.086l-5.652,33.116c-0.801,4.694,4.101,8.273,8.295,6.057l29.593-15.635
	c1.666-0.88,3.655-0.88,5.321,0l29.593,15.635c4.194,2.216,9.096-1.363,8.295-6.057l-5.652-33.116
	c-0.318-1.864,0.297-3.766,1.644-5.086L206.938,202.709z"/>
<path d="M439.522,87.363h-66.647c-4.143,0-7.5,3.358-7.5,7.5s3.357,7.5,7.5,7.5h66.647c11.843,0,21.478,9.699,21.478,21.621v222.799
	c-6.029-4.424-13.455-7.037-21.478-7.037H72.478c-11.843,0-21.478-9.699-21.478-21.621V95.326
	c6.029,4.424,13.455,7.037,21.478,7.037h272.064c4.143,0,7.5-3.358,7.5-7.5s-3.357-7.5-7.5-7.5H118.613v-32.78
	c5.949-5.779,9.659-13.868,9.659-22.815C128.272,14.251,114.075,0,96.625,0C79.803,0,66.01,13.244,65.038,29.889
	C48.479,33.348,36,48.108,36,65.742v9.06v243.323c0,20.193,16.364,36.621,36.478,36.621h2.159v140.047
	c0,9.488,7.697,17.207,17.159,17.207h9.658c9.462,0,17.159-7.719,17.159-17.207V354.746h259.318v41.035
	c0,9.488,7.697,17.207,17.159,17.207h44.432c20.114,0,36.478-16.428,36.478-36.621V123.984
	C476,103.792,459.636,87.363,439.522,87.363z M103.613,87.363H89.637V62.745c2.25,0.511,4.587,0.79,6.988,0.79
	s4.738-0.279,6.988-0.79V87.363z M96.625,15c9.18,0,16.647,7.522,16.647,16.768s-7.468,16.768-16.647,16.768
	s-16.647-7.522-16.647-16.768S87.445,15,96.625,15z M67.713,44.664c1.664,3.743,4.026,7.105,6.923,9.919v32.78h-2.159
	C60.635,87.363,51,77.664,51,65.742C51,55.469,58.157,46.852,67.713,44.664z M103.613,494.793c0,1.217-0.969,2.207-2.159,2.207
	h-9.658c-1.19,0-2.159-0.99-2.159-2.207V354.746h13.977v140.047H103.613z M439.522,397.988H395.09c-1.19,0-2.159-0.99-2.159-2.207
	v-41.035h46.591c11.843,0,21.478,9.699,21.478,21.621S451.365,397.988,439.522,397.988z M226.539,147.815l4.395-4.417l-4.395-4.417
	c-2.922-2.936-2.91-7.685,0.026-10.606c2.936-2.922,7.685-2.911,10.606,0.026l4.343,4.364l4.343-4.364
	c2.922-2.936,7.671-2.949,10.606-0.026c2.937,2.922,2.948,7.67,0.026,10.606l-4.395,4.417l4.395,4.417
	c2.922,2.936,2.91,7.685-0.026,10.606c-1.463,1.456-3.377,2.184-5.29,2.184c-1.926,0-3.851-0.737-5.316-2.21l-4.343-4.364
	l-4.343,4.364c-1.466,1.473-3.391,2.21-5.316,2.21c-1.913,0-3.827-0.728-5.29-2.184C223.629,155.5,223.617,150.751,226.539,147.815z
	 M215.512,194.482c-1.57-4.816-5.654-8.263-10.658-8.994l-32.153-4.695l-14.386-29.294c-2.24-4.562-6.784-7.396-11.858-7.396
	s-9.618,2.834-11.858,7.396h-0.001l-14.385,29.293l-32.153,4.695c-5.004,0.731-9.088,4.178-10.658,8.994
	c-1.573,4.829-0.3,10.034,3.325,13.585l23.288,22.813l-5.5,32.222c-0.855,5.017,1.17,9.986,5.287,12.968
	c2.312,1.674,5.012,2.524,7.729,2.524c2.105,0,4.223-0.51,6.177-1.542l28.749-15.189l28.749,15.189
	c4.476,2.365,9.805,1.99,13.906-0.981c4.117-2.981,6.143-7.951,5.286-12.968l-5.499-32.221l23.289-22.814
	C215.812,204.516,217.085,199.311,215.512,194.482z M177.749,220.804c-3.104,3.04-4.521,7.415-3.79,11.706l5.051,29.587
	l-26.39-13.942c-3.859-2.04-8.469-2.04-12.328,0l-26.39,13.942l5.051-29.589c0.73-4.289-0.687-8.664-3.79-11.703l-21.424-20.987
	l29.571-4.318c4.309-0.628,8.03-3.341,9.955-7.258l13.19-26.861l13.191,26.863c1.924,3.915,5.645,6.628,9.952,7.256l29.573,4.318
	L177.749,220.804z M280.635,181.367l-4.395,4.417l4.395,4.417c2.922,2.936,2.91,7.685-0.026,10.606
	c-1.463,1.456-3.377,2.184-5.29,2.184c-1.926,0-3.851-0.737-5.316-2.21l-4.343-4.364l-4.343,4.364
	c-1.466,1.473-3.391,2.21-5.316,2.21c-1.913,0-3.827-0.728-5.29-2.184c-2.937-2.922-2.948-7.67-0.026-10.606l4.395-4.417
	l-4.395-4.417c-2.922-2.936-2.91-7.685,0.026-10.606c2.935-2.922,7.684-2.911,10.606,0.026l4.343,4.364l4.343-4.364
	c2.922-2.936,7.671-2.949,10.606-0.026C283.545,173.683,283.557,178.431,280.635,181.367z M280.635,232.494l-4.395,4.417
	l4.395,4.417c2.922,2.936,2.91,7.685-0.026,10.606c-1.463,1.456-3.377,2.184-5.29,2.184c-1.926,0-3.851-0.737-5.316-2.21
	l-4.343-4.364l-4.343,4.364c-1.466,1.473-3.391,2.21-5.316,2.21c-1.913,0-3.827-0.728-5.29-2.184
	c-2.937-2.922-2.948-7.67-0.026-10.606l4.395-4.417l-4.395-4.417c-2.922-2.936-2.91-7.685,0.026-10.606
	c2.935-2.922,7.684-2.91,10.606,0.026l4.343,4.364l4.343-4.364c2.922-2.936,7.671-2.948,10.606-0.026
	C283.545,224.81,283.557,229.558,280.635,232.494z M256.49,274.88l-4.395,4.417l4.395,4.417c2.922,2.936,2.91,7.685-0.026,10.606
	c-1.463,1.456-3.377,2.184-5.29,2.184c-1.926,0-3.851-0.737-5.316-2.21l-4.343-4.364l-4.343,4.364
	c-1.466,1.473-3.391,2.21-5.316,2.21c-1.913,0-3.827-0.728-5.29-2.184c-2.937-2.922-2.948-7.67-0.026-10.606l4.395-4.417
	l-4.395-4.417c-2.922-2.936-2.91-7.685,0.026-10.606c2.936-2.922,7.685-2.91,10.606,0.026l4.343,4.364l4.343-4.364
	c2.922-2.936,7.671-2.948,10.606-0.026C259.4,267.195,259.412,271.944,256.49,274.88z"/>
<g>
</g>
<g>
</g>
<g>
</g>
<g>
</g>
<g>
</g>
<g>
</g>
<g>
</g>
<g>
</g>
<g>
</g>
<g>
</g>
<g>
</g>
<g>
</g>
<g>
</g>
<g>
</g>
<g>
</g>
</svg>
