<?xml version="1.0" encoding="iso-8859-1"?>
<!-- Generator: Adobe Illustrator 19.0.0, SVG Export Plug-In . SVG Version: 6.00 Build 0)  -->
<svg version="1.1" id="Capa_1" xmlns="http://www.w3.org/2000/svg" xmlns:xlink="http://www.w3.org/1999/xlink" x="0px" y="0px"
	 viewBox="0 0 511.999 511.999" style="enable-background:new 0 0 511.999 511.999;" xml:space="preserve">
<path style="fill:#FFB450;" d="M164.117,37.888l80.591,163.752h-97.477L110.713,13.283c-0.581-2.997,1.701-5.783,4.736-5.783l0,0
	C136.096,7.5,154.957,19.277,164.117,37.888z M396.551,7.5c-20.647,0-39.508,11.777-48.668,30.388L267.292,201.64h97.477
	l36.518-188.358C401.869,10.286,399.587,7.5,396.551,7.5z"/>
<path style="fill:#FF4B4B;" d="M339.372,395.781H172.628c-55.228,0-100-44.772-100-100V172.52h366.744v123.262
	C439.372,351.01,394.601,395.781,339.372,395.781z"/>
<path style="fill:#FF6969;" d="M294.977,395.781H172.628c-55.228,0-100-44.772-100-100V172.52h322.349v123.262
	C394.977,351.01,350.205,395.781,294.977,395.781z"/>
<path style="fill:#FF4B4B;" d="M338.035,138.545c0,45.569-36.728,82.51-82.035,82.51s-82.035-36.941-82.035-82.51
	s36.728-82.51,82.035-82.51S338.035,92.976,338.035,138.545z"/>
<path style="fill:#D24A4A;" d="M241.041,57.429c4.853-0.9,9.847-1.393,14.959-1.393c45.307,0,82.035,36.941,82.035,82.51
	c0,29.935-15.851,56.145-39.57,70.607V177.38c6.155-11.573,9.651-24.791,9.651-38.835C308.116,98.118,279.2,64.504,241.041,57.429z
	 M319.257,492.528c6.771,0,12.974-3.872,15.92-10.004c2.449-5.096,3.823-10.812,3.823-16.852V320.066
	c0-21.444-17.284-38.828-38.605-38.828h-88.791c-21.321,0-38.605,17.384-38.605,38.828v145.605c0,6.04,1.374,11.756,3.823,16.852
	c2.946,6.132,9.149,10.004,15.92,10.004h126.515V492.528z"/>
<path style="fill:#FFCF65;" d="M101.275,259.763L85.468,434.649c-0.495,5.475-5.059,9.667-10.525,9.667s-10.03-4.192-10.525-9.667
	L48.611,259.763c-1.408-15.574,10.784-29.002,26.332-29.002l0,0C90.491,230.762,102.683,244.189,101.275,259.763z M437.057,230.762
	L437.057,230.762c-15.548,0-27.74,13.428-26.332,29.002l15.807,174.886c0.495,5.475,5.059,9.667,10.525,9.667
	s10.03-4.192,10.525-9.667l15.807-174.886C464.797,244.189,452.605,230.762,437.057,230.762z"/>
<path style="fill:#69AFEB;" d="M444.198,85.156v146.302c0,31.782-25.616,57.545-57.214,57.545h-49.641
	c-31.599,0-58.179-25.764-58.179-57.545c0,0,0.32-7.002,0.942-10.404c2.679-14.659,11.916-27.857,24.243-36.609L444.198,85.156z
	 M207.652,184.445L67.802,85.156v146.302c0,31.782,25.616,57.545,57.214,57.545h49.641c31.599,0,57.214-25.764,57.214-57.545l0,0
	c0-3.565,0.622-6.886-0.015-10.328C229.154,206.522,219.944,193.172,207.652,184.445z"/>
<path style="fill:#FFE1B3;" d="M400.767,201.641c0,21.444-17.284,38.828-38.605,38.828c-21.321,0-38.605-17.384-38.605-38.828
	s17.284-38.828,38.605-38.828S400.767,180.197,400.767,201.641z M149.837,162.813c-21.321,0-38.605,17.384-38.605,38.828
	s17.284,38.828,38.605,38.828s38.605-17.384,38.605-38.828S171.158,162.813,149.837,162.813z"/>
<path style="fill:#FFCF65;" d="M348.844,321.01c6.714,6.753,8.197,17.15,3.641,25.529l-32.987,60.663
	c-2.028,3.729-7.353,3.729-9.381,0l-20.023-36.823c-2.028-3.729-7.353-3.729-9.381,0l-20.023,36.823
	c-2.028,3.729-7.353,3.729-9.381,0l-20.023-36.823c-2.028-3.729-7.353-3.729-9.381,0l-20.023,36.823
	c-2.028,3.729-7.353,3.729-9.381,0l-32.987-60.663c-4.556-8.379-3.073-18.777,3.641-25.529l30.256-30.431
	c2.088-2.1,5.473-2.1,7.561,0l21.844,21.97c2.088,2.1,5.473,2.1,7.561,0l21.843-21.97c2.088-2.1,5.473-2.1,7.561,0l21.843,21.97
	c2.088,2.1,5.473,2.1,7.561,0l21.843-21.97c2.088-2.1,5.473-2.1,7.561,0L348.844,321.01z M311.028,451.088l-21.843,21.97
	c-2.088,2.1-5.473,2.1-7.561,0l-21.843-21.97c-2.088-2.1-5.473-2.1-7.561,0l-21.843,21.97c-2.088,2.1-5.473,2.1-7.561,0
	l-21.843-21.97c-2.088-2.1-5.473-2.1-7.561,0l-20.013,20.129c2.676,18.817,18.758,33.284,38.206,33.284h88.791
	c19.448,0,35.53-14.467,38.206-33.284l-20.013-20.129C316.501,448.988,313.116,448.988,311.028,451.088z M313.378,147.075
	c-20.296,9.607-33.25,30.138-33.25,52.699v21.282l130.819-61.918c20.296-9.607,33.25-30.138,33.25-52.699V85.156L313.378,147.075z
	 M231.872,199.773c0-22.561-12.954-43.092-33.25-52.699L67.802,85.156v21.282c0,22.561,12.954,43.092,33.25,52.699l130.819,61.918
	L231.872,199.773L231.872,199.773z"/>
<path style="fill:#FFB450;" d="M309.879,327.832H202.121c-16.083,0-29.121-13.038-29.121-29.121l0,0
	c0-16.083,13.038-29.121,29.121-29.121h107.758c16.083,0,29.121,13.038,29.121,29.121l0,0
	C339,314.794,325.962,327.832,309.879,327.832z"/>
<path style="fill:#963737;" d="M230.907,322.979c0,13.403-10.802,24.268-24.128,24.268s-24.128-10.865-24.128-24.268
	s10.802-24.268,24.128-24.268S230.907,309.576,230.907,322.979z M305.221,298.711c-13.325,0-24.128,10.865-24.128,24.268
	s10.802,24.268,24.128,24.268s24.128-10.865,24.128-24.268S318.546,298.711,305.221,298.711z"/>
<path d="M451.696,226.583V106.438v-6.073V85.156c0-2.57-1.316-4.962-3.488-6.337c-2.173-1.376-4.897-1.542-7.221-0.442
	l-49.196,23.285l16.858-86.952c0.705-3.642-0.242-7.369-2.6-10.228c-2.35-2.849-5.812-4.482-9.5-4.482
	c-23.674,0-44.901,13.249-55.398,34.577l-20.483,41.621c-6.499-6.781-14.127-12.601-22.713-17.188
	c-3.657-1.954-8.197-0.573-10.149,3.081s-0.572,8.198,3.081,10.149c22.218,11.868,36.741,33.637,39.256,58.599l-19.976,9.455
	c-22.805,10.795-37.541,34.142-37.541,59.479v21.256c-0.555,3.436-0.84,6.943-0.84,10.429c0,10.367,2.908,20.928,8.313,30.632
	h-48.192c5.278-9.561,8.102-20.08,8.102-30.632c0-3.169-0.239-6.346-0.698-9.478c0.038-0.305,0.059-0.614,0.059-0.925v-21.281
	c0-25.337-14.736-48.684-37.541-59.479l-19.957-9.446c3.848-37.886,36.056-67.314,74.126-67.314c3.96,0,7.937,0.314,11.816,0.936
	c4.103,0.655,7.937-2.131,8.591-6.22c0.655-4.09-2.13-7.937-6.22-8.591c-4.662-0.747-9.436-1.125-14.188-1.125
	c-22.693,0-44.34,8.55-60.951,24.075c-1.27,1.187-2.488,2.417-3.68,3.666l-20.522-41.699C160.347,13.249,139.12,0,115.446,0
	c-3.688,0-7.15,1.634-9.5,4.482c-2.357,2.858-3.305,6.586-2.6,10.228l16.858,86.952L71.008,78.377
	c-2.324-1.1-5.047-0.933-7.221,0.442c-2.172,1.375-3.488,3.767-3.488,6.337v21.281c0,0.828,0.018,1.653,0.049,2.477
	c-0.03,0.274-0.049,0.551-0.049,0.833v116.846c-12.645,6.09-20.443,19.662-19.162,33.846l15.808,174.887
	c0.851,9.401,8.587,16.491,17.995,16.491s17.144-7.09,17.994-16.492l5.418-59.947c18.212,17.093,41.799,26.971,67.145,27.835v62.459
	c0,2.128,0.156,4.219,0.434,6.271c0.002,0.022,0.006,0.044,0.008,0.066c3.086,22.557,22.381,39.99,45.662,39.99h88.791
	c23.282,0,42.576-17.434,45.662-39.99c0.002-0.022,0.006-0.044,0.008-0.066c0.278-2.053,0.434-4.144,0.434-6.271v-62.461
	c25.224-0.872,48.895-10.783,67.141-27.866l5.422,59.98c0.851,9.401,8.586,16.491,17.994,16.491s17.145-7.09,17.995-16.492
	l15.808-174.886C472.161,246.021,464.416,232.654,451.696,226.583z M330.985,89.205L354.61,41.2
	c7.468-15.175,22.093-24.952,38.681-26.089l-18.324,94.513l-30.58,14.474C342.377,111.465,337.773,99.624,330.985,89.205z
	 M287.625,199.773c0-19.569,11.367-37.594,28.959-45.92l120.111-56.85v3.36v6.073c0,19.569-11.367,37.594-28.959,45.92
	l-120.111,56.85L287.625,199.773L287.625,199.773z M393.266,201.641c0,17.274-13.953,31.328-31.105,31.328
	c-15.972,0-29.165-12.19-30.904-27.817l23.404-11.077v17.273c0,4.143,3.357,7.5,7.5,7.5s7.5-3.357,7.5-7.5v-24.373l14.902-7.053
	C390.12,185.737,393.266,193.502,393.266,201.641z M286.786,231.458c0-1.8,0.107-3.606,0.3-5.399l30.103-14.248
	c4.627,20.668,23.027,36.158,44.972,36.158c25.422,0,46.105-20.782,46.105-46.328c0-10.358-3.458-20.306-9.668-28.361l15.557-7.363
	c8.867-4.197,16.506-10.298,22.541-17.669v83.211c0,27.596-22.302,50.046-49.714,50.046h-44.77
	c-6.142-11.542-18.254-19.414-32.167-19.414h-12.011C290.78,252.733,286.786,241.893,286.786,231.458z M343.524,326.298
	c4.35,4.375,5.324,11.226,2.37,16.658l-31.088,57.173l-18.125-33.332c-2.253-4.142-6.575-6.715-11.281-6.714
	c-4.705,0-9.026,2.573-11.277,6.714l-18.125,33.331l-18.124-33.33c-2.252-4.142-6.573-6.715-11.278-6.715c-0.001,0-0.001,0-0.002,0
	c-4.705,0-9.026,2.572-11.279,6.714l-18.125,33.332l-31.09-57.173c-2.954-5.433-1.979-12.283,2.37-16.658l4.873-4.901
	c0.579,0.736,1.181,1.457,1.82,2.152c0.305,17.253,14.365,31.197,31.614,31.197c13.08,0,24.331-8.016,29.139-19.414h40.165
	c4.808,11.398,16.059,19.414,29.139,19.414c17.282,0,31.362-13.996,31.616-31.294c0.255-0.224,0.502-0.461,0.731-0.725
	c0.375-0.434,0.738-0.876,1.091-1.325L343.524,326.298z M331.498,453.437l-7.592-7.636c-2.428-2.443-5.66-3.788-9.1-3.788
	s-6.673,1.345-9.1,3.787l-20.305,20.423l-20.305-20.422c-2.428-2.443-5.66-3.788-9.1-3.788c-3.439,0-6.672,1.345-9.099,3.787
	l-20.306,20.423l-20.304-20.422c-2.428-2.443-5.66-3.788-9.101-3.788c-3.439,0-6.672,1.345-9.099,3.787l-7.593,7.637v-52.604
	l5.412,9.953c2.253,4.142,6.574,6.714,11.28,6.714c4.705,0,9.026-2.572,11.279-6.714l18.124-33.331l18.125,33.33
	c2.251,4.142,6.573,6.715,11.279,6.715s9.028-2.573,11.279-6.714l18.125-33.331l18.124,33.331c2.253,4.142,6.574,6.714,11.279,6.714
	c4.706,0,9.027-2.572,11.28-6.714l5.412-9.953v52.604H331.498z M310.044,277.09c11.829,0,21.453,9.699,21.453,21.621
	c0,1.896-0.254,3.767-0.731,5.571c-5.758-7.916-15.063-13.071-25.548-13.071c-16.551,0-30.165,12.839-31.51,29.121h-35.422
	c-1.345-16.282-14.958-29.121-31.51-29.121c-10.483,0-19.786,5.153-25.544,13.066c-0.475-1.8-0.735-3.666-0.735-5.566
	c0-11.922,9.624-21.621,21.453-21.621H310.044z M288.59,322.979c0-9.246,7.459-16.768,16.628-16.768s16.628,7.521,16.628,16.768
	s-7.459,16.768-16.628,16.768S288.59,332.225,288.59,322.979z M223.404,322.979c0,9.246-7.459,16.768-16.628,16.768
	s-16.628-7.521-16.628-16.768s7.459-16.768,16.628-16.768S223.404,313.732,223.404,322.979z M118.704,15.111
	c16.588,1.137,31.213,10.914,38.681,26.089l23.669,48.092c-6.839,10.493-11.423,22.327-13.427,34.814l-30.599-14.482L118.704,15.111
	z M75.299,97.004l120.111,56.85c17.592,8.326,28.959,26.351,28.959,45.92v9.434l-120.111-56.85
	c-17.592-8.326-28.959-26.351-28.959-45.92V97.004z M127.424,179.918l14.91,7.057v24.373c0,4.143,3.357,7.5,7.5,7.5
	s7.5-3.357,7.5-7.5v-17.273l23.404,11.077c-1.739,15.627-14.932,27.817-30.904,27.817c-17.151,0-31.105-14.054-31.105-31.328
	C118.729,193.479,121.864,185.732,127.424,179.918z M97.84,165.916l15.546,7.358c-6.211,8.048-9.657,17.981-9.657,28.367
	c0,25.546,20.683,46.328,46.105,46.328c21.945,0,40.345-15.49,44.972-36.158l29.889,14.146c0.2,1.826,0.313,3.664,0.313,5.501
	c0,10.73-3.904,21.502-11.033,30.632H201.95c-13.913,0-26.025,7.873-32.167,19.414h-44.77c-27.412,0-49.714-22.45-49.714-50.046
	v-83.211C81.335,155.618,88.974,161.719,97.84,165.916z M74.94,436.816c-1.596,0-2.909-1.222-3.056-2.842L56.077,259.089
	c-0.516-5.711,1.588-11.239,5.428-15.167c3.523,18.169,14.586,33.659,29.78,43.024l-6.084,67.315c-0.61,1.44-0.76,3.043-0.414,4.579
	l-6.791,75.134C77.848,435.595,76.535,436.816,74.94,436.816z M100.165,355.328l5.583-61.768c6.088,1.912,12.559,2.944,19.266,2.944
	h40.556c-0.043,0.731-0.072,1.465-0.072,2.207c0,2.836,0.327,5.631,0.956,8.342l-8.619,8.669c-8.988,9.041-11.008,23.187-4.911,34.4
	l12.584,23.142c-0.002,0.064-0.01,0.126-0.01,0.191V388.2C139.876,387.176,116.394,375.365,100.165,355.328z M300.393,497h-88.791
	c-14.406,0-26.552-9.917-30.072-23.327l15.66-15.75l20.305,20.423c2.429,2.442,5.659,3.787,9.099,3.787s6.671-1.345,9.099-3.787
	l20.306-20.423l20.306,20.423c2.428,2.442,5.659,3.787,9.099,3.787c3.439,0,6.67-1.345,9.099-3.787l20.306-20.423l15.659,15.75
	C326.945,487.083,314.799,497,300.393,497z M346.498,388.199v-14.953l12.574-23.125c6.097-11.213,4.077-25.358-4.911-34.399
	l-8.624-8.673c0.631-2.714,0.96-5.51,0.96-8.337c0-0.742-0.029-1.476-0.072-2.207h40.556c6.707,0,13.177-1.032,19.265-2.944
	l5.583,61.765C395.598,375.327,371.993,387.167,346.498,388.199z M455.918,259.089L440.11,433.974
	c-0.146,1.621-1.46,2.843-3.056,2.843c-1.595,0-2.908-1.222-3.055-2.842l-13.29-147.028c15.204-9.372,26.271-24.875,29.786-43.06
	C454.347,247.785,456.443,253.278,455.918,259.089z"/>
<g>
</g>
<g>
</g>
<g>
</g>
<g>
</g>
<g>
</g>
<g>
</g>
<g>
</g>
<g>
</g>
<g>
</g>
<g>
</g>
<g>
</g>
<g>
</g>
<g>
</g>
<g>
</g>
<g>
</g>
</svg>
