<?xml version="1.0" encoding="iso-8859-1"?>
<!-- Generator: Adobe Illustrator 19.0.0, SVG Export Plug-In . SVG Version: 6.00 Build 0)  -->
<svg version="1.1" id="Capa_1" xmlns="http://www.w3.org/2000/svg" xmlns:xlink="http://www.w3.org/1999/xlink" x="0px" y="0px"
	 viewBox="0 0 512 512" style="enable-background:new 0 0 512 512;" xml:space="preserve">
<path style="fill:#FFCF65;" d="M256,7.5C118.757,7.5,7.5,118.757,7.5,256S118.757,504.5,256,504.5S504.5,393.243,504.5,256
	S393.243,7.5,256,7.5z M349.188,310.359c0,21.444-17.384,38.828-38.828,38.828H201.641c-21.444,0-38.828-17.384-38.828-38.828
	V201.641c0-21.444,17.384-38.828,38.828-38.828H310.36c21.444,0,38.828,17.384,38.828,38.828L349.188,310.359L349.188,310.359z"/>
<path style="fill:#FFB450;" d="M504.5,256c0,137.243-111.257,248.5-248.5,248.5c-4.725,0-9.416-0.145-14.075-0.405
	C372.618,496.796,476.35,388.518,476.35,256S372.618,15.204,241.925,7.905c4.66-0.26,9.35-0.405,14.075-0.405
	C393.243,7.5,504.5,118.757,504.5,256z"/>
<path style="fill:#E6AF78;" d="M256,46.328C140.201,46.328,46.328,140.201,46.328,256S140.201,465.672,256,465.672
	S465.672,371.799,465.672,256S371.799,46.328,256,46.328z M333.656,294.828c0,21.444-17.384,38.828-38.828,38.828h-77.656
	c-21.444,0-38.828-17.384-38.828-38.828v-77.656c0-21.444,17.384-38.828,38.828-38.828h77.656c21.444,0,38.828,17.384,38.828,38.828
	V294.828z"/>
<path style="fill:#D5945E;" d="M268.619,465.283c-4.176,0.248-8.381,0.389-12.619,0.389c-115.799,0-209.672-93.873-209.672-209.672
	S140.201,46.328,256,46.328c4.238,0,8.443,0.141,12.619,0.389C158.698,53.244,71.566,144.44,71.566,256
	S158.698,458.756,268.619,465.283z"/>
<path style="fill:#FFCF65;" d="M294.828,178.344h-77.656c-21.444,0-38.828,17.384-38.828,38.828v77.656
	c0,21.444,17.384,38.828,38.828,38.828h77.656c21.444,0,38.828-17.384,38.828-38.828v-77.656
	C333.656,195.728,316.272,178.344,294.828,178.344z M294.828,285.121c0,5.361-4.346,9.707-9.707,9.707h-58.242
	c-5.361,0-9.707-4.346-9.707-9.707v-58.242c0-5.361,4.346-9.707,9.707-9.707h58.242c5.361,0,9.707,4.346,9.707,9.707V285.121z"/>
<path d="M437.02,74.98C388.668,26.629,324.38,0,256,0S123.332,26.629,74.98,74.98C26.629,123.333,0,187.62,0,256
	s26.629,132.667,74.98,181.02C123.332,485.371,187.62,512,256,512s132.668-26.629,181.02-74.98C485.371,388.667,512,324.38,512,256
	S485.371,123.333,437.02,74.98z M256,497C123.112,497,15,388.888,15,256S123.112,15,256,15s241,108.112,241,241S388.888,497,256,497
	z M473.172,256c0,58.009-22.59,112.545-63.608,153.563c-41.018,41.019-95.555,63.608-153.563,63.608s-112.546-22.59-153.563-63.608
	c-41.02-41.018-63.61-95.554-63.61-153.563s22.59-112.545,63.608-153.563C143.454,61.418,197.991,38.828,256,38.828
	c37.174,0,73.859,9.556,106.09,27.633c3.612,2.026,4.898,6.598,2.872,10.21c-2.025,3.612-6.595,4.899-10.21,2.873
	C324.758,62.721,290.609,53.828,256,53.828C144.522,53.828,53.828,144.522,53.828,256S144.522,458.172,256,458.172
	S458.172,367.478,458.172,256c0-63.416-28.905-121.94-79.306-160.566c-3.287-2.52-3.91-7.227-1.391-10.515
	c2.519-3.287,7.227-3.912,10.516-1.391c25.902,19.851,47.343,45.701,62.006,74.754C465.375,188.754,473.172,221.631,473.172,256z
	 M341.156,293.656v-75.313c0-26.191-21.309-47.5-47.5-47.5h-75.313c-26.191,0-47.5,21.309-47.5,47.5v75.313
	c0,26.191,21.309,47.5,47.5,47.5h75.313C319.848,341.156,341.156,319.848,341.156,293.656z M185.844,293.656v-75.313
	c0-17.92,14.579-32.5,32.5-32.5h75.313c17.921,0,32.5,14.58,32.5,32.5v75.313c0,17.92-14.579,32.5-32.5,32.5h-75.313
	C200.423,326.156,185.844,311.577,185.844,293.656z M285.121,302.328h-58.242c-9.488,0-17.207-7.719-17.207-17.207v-7.766
	c0-4.142,3.357-7.5,7.5-7.5s7.5,3.358,7.5,7.5v7.766c0,1.217,0.99,2.207,2.207,2.207h58.242c1.217,0,2.207-0.99,2.207-2.207v-58.242
	c0-1.217-0.99-2.207-2.207-2.207h-58.242c-1.217,0-2.207,0.99-2.207,2.207V250.5c0,4.142-3.357,7.5-7.5,7.5s-7.5-3.358-7.5-7.5
	v-23.621c0-9.488,7.719-17.207,17.207-17.207h58.242c9.488,0,17.207,7.719,17.207,17.207v58.242
	C302.328,294.609,294.609,302.328,285.121,302.328z M276.238,146.045c6.893,0,12.5-5.607,12.5-12.5V93.068
	c0-6.893-5.607-12.5-12.5-12.5h-40.477c-6.893,0-12.5,5.607-12.5,12.5v40.477c0,6.893,5.607,12.5,12.5,12.5H276.238z
	 M238.262,131.045v-10.238h35.477v10.238H238.262z M273.738,95.568v10.238h-35.477V95.568H273.738z M235.762,365.955
	c-6.893,0-12.5,5.607-12.5,12.5v40.477c0,6.893,5.607,12.5,12.5,12.5h40.477c6.893,0,12.5-5.607,12.5-12.5v-40.477
	c0-6.893-5.607-12.5-12.5-12.5H235.762z M273.738,380.955v10.238h-35.477v-10.238H273.738z M238.262,416.432v-10.238h35.477v10.238
	H238.262z M93.068,223.262c-6.893,0-12.5,5.607-12.5,12.5v40.477c0,6.893,5.607,12.5,12.5,12.5h40.477c6.893,0,12.5-5.607,12.5-12.5
	v-40.477c0-6.893-5.607-12.5-12.5-12.5L93.068,223.262L93.068,223.262z M95.568,238.262h10.238v35.477H95.568V238.262z
	 M131.045,273.738h-10.238v-35.477h10.238V273.738z M378.455,288.738h40.477c6.893,0,12.5-5.607,12.5-12.5v-40.477
	c0-6.893-5.607-12.5-12.5-12.5h-40.477c-6.893,0-12.5,5.607-12.5,12.5v40.477C365.955,283.131,371.563,288.738,378.455,288.738z
	 M416.432,273.738h-10.238v-35.477h10.238V273.738z M380.955,238.262h10.238v35.477h-10.238V238.262z"/>
<g>
</g>
<g>
</g>
<g>
</g>
<g>
</g>
<g>
</g>
<g>
</g>
<g>
</g>
<g>
</g>
<g>
</g>
<g>
</g>
<g>
</g>
<g>
</g>
<g>
</g>
<g>
</g>
<g>
</g>
</svg>
