<?xml version="1.0" encoding="iso-8859-1"?>
<!-- Generator: Adobe Illustrator 19.0.0, SVG Export Plug-In . SVG Version: 6.00 Build 0)  -->
<svg version="1.1" id="Capa_1" xmlns="http://www.w3.org/2000/svg" xmlns:xlink="http://www.w3.org/1999/xlink" x="0px" y="0px"
	 viewBox="0 0 512 512" style="enable-background:new 0 0 512 512;" xml:space="preserve">
<path style="fill:#FFCF65;" d="M385.844,7.5h17.857c1.181,0,2.352,0.221,3.452,0.651l29.86,11.679
	c2.125,0.831,3.878,2.401,4.939,4.421l19.776,37.675c1.273,2.425,3.532,4.18,6.196,4.814l10.854,2.584
	c2.764,0.658,5.678,0.041,7.938-1.681l2.566-1.955c2.26-1.722,5.174-2.339,7.938-1.681l0,0c4.269,1.016,7.281,4.831,7.281,9.219
	v75.252c0,2.919-1.346,5.676-3.648,7.472l-14.06,10.969c-2.302,1.796-3.648,4.552-3.648,7.472v23.976
	c0,2.937-1.362,5.709-3.688,7.503l-40.019,30.873c-2.941,2.269-6.936,2.61-10.219,0.874l-7.922-4.19
	c-3.1-1.64-6.853-1.433-9.754,0.537L391.55,247.54c-2.446,1.661-3.977,4.369-4.139,7.322l-1.128,20.618
	c-0.134,2.449,0.687,4.854,2.289,6.711l43.733,50.653c1.486,1.721,2.304,3.919,2.304,6.193v52.983c0,2.416-0.923,4.741-2.58,6.499
	l-58.652,62.235c-1.791,1.9-4.286,2.977-6.896,2.977h-63.845c-2.513,0-4.924-0.998-6.701-2.776l-23.569-23.57
	c-1.777-1.777-4.188-2.776-6.701-2.776h-47.484c-1.903,0-3.763-0.573-5.336-1.645l-36.185-24.655c-2.59-1.765-4.14-4.697-4.14-7.831
	v-39.6c0-2.513,0.998-4.924,2.776-6.701l13.863-13.863c1.777-1.777,2.776-4.188,2.776-6.701v-25.427
	c0-5.234-4.243-9.476-9.476-9.476h-27.814c-1.019,0-2.03,0.164-2.997,0.486l-26.203,8.734c-0.966,0.322-1.978,0.486-2.997,0.486
	h-15.931c-1.283,0-2.553-0.261-3.733-0.766l-60.418-25.893c-3.484-1.493-5.743-4.919-5.743-8.71v-50.676
	c0-1.504-0.358-2.986-1.044-4.324L17.809,183.4c-0.399-0.778-0.689-1.608-0.86-2.466l-9.264-46.322
	C7.562,134,7.5,133.377,7.5,132.753v-38.12c0-5.234,4.243-9.476,9.476-9.476h45.837c1.908,0,3.771-0.576,5.346-1.652l53.406-36.494
	c1.575-1.076,3.439-1.652,5.346-1.652h25.914c3.702,0,7.065,2.156,8.611,5.519l14.923,32.471c0.548,1.193,1.339,2.259,2.321,3.131
	l39.625,35.164c1.769,1.57,2.887,3.744,3.134,6.095l2.835,26.91c0.416,3.948,3.249,7.219,7.098,8.194l37.073,9.389
	c0.76,0.193,1.542,0.29,2.326,0.29h24.814c2.03,0,4.007-0.652,5.639-1.86l48.524-35.924c0.932-0.69,1.983-1.203,3.1-1.514
	l26.288-7.308c4.101-1.14,6.938-4.874,6.938-9.13V89.081c0-2.513-0.998-4.924-2.776-6.701l-13.863-13.863
	c-1.777-1.777-2.776-4.188-2.776-6.701v-21.27c0-2.513,0.998-4.924,2.776-6.701l4.156-4.156c1.777-1.777,2.776-4.187,2.776-6.701
	v-6.013C376.367,11.743,380.61,7.5,385.844,7.5z"/>
<path style="fill:#FFB450;" d="M504.5,73.227v75.252c0,2.92-1.346,5.676-3.648,7.472l-14.06,10.969
	c-2.302,1.796-3.648,4.552-3.648,7.472v23.976c0,2.937-1.362,5.709-3.688,7.503l-40.019,30.874
	c-2.941,2.269-6.936,2.61-10.219,0.874l-7.922-4.19c-3.1-1.64-6.853-1.433-9.754,0.537L391.55,247.54
	c-2.446,1.661-3.977,4.369-4.139,7.322l-1.128,20.618c-0.134,2.449,0.687,4.854,2.289,6.711l43.733,50.653
	c1.486,1.721,2.304,3.919,2.304,6.193v52.983c0,2.416-0.923,4.741-2.58,6.499l-58.652,62.234c-1.791,1.9-4.286,2.977-6.896,2.977
	h-48.356l73.135-71.157c1.657-1.758,2.58-4.083,2.58-6.499v-34.903c0-2.274-0.818-4.472-2.304-6.193l-43.733-50.653
	c-1.603-1.856-2.423-4.262-2.289-6.711l1.128-56.853c0.162-2.953,1.692-5.661,4.139-7.322l11.583-7.866
	c0.796-0.54,1.735-0.832,2.697-0.838l28.779-0.177c1.723-0.176,3.4-0.813,4.828-1.915l40.019-30.874
	c2.326-1.794,3.688-4.566,3.688-7.503V150.29c0-2.92,1.346-5.676,3.648-7.472l14.06-10.969c2.302-1.796,3.648-4.552,3.648-7.472
	V64.508c1.175,1.074,2.609,1.855,4.193,2.232l10.854,2.584c2.764,0.658,5.678,0.041,7.938-1.681l2.311-1.76
	c2.188-1.667,4.972-2.473,7.679-1.983C501.244,64.723,504.5,68.665,504.5,73.227z"/>
<path style="fill:#FF4B4B;" d="M135.421,498.506L67.186,353.757c-15.452-32.778-8.668-71.729,16.956-97.353l0,0
	c33.541-33.541,87.921-33.541,121.461,0l0,0c25.624,25.624,32.408,64.574,16.956,97.353l-68.235,144.749
	C150.558,506.498,139.188,506.498,135.421,498.506z"/>
<path style="fill:#C83741;" d="M118.116,345.507L118.116,345.507c-14.778-14.778-14.778-38.737,0-53.515l0,0
	c14.778-14.778,38.737-14.778,53.515,0l0,0c14.778,14.778,14.778,38.737,0,53.515l0,0
	C156.853,360.285,132.893,360.285,118.116,345.507z"/>
<path d="M49.258,284.712c-1.219,2.844-3.987,4.548-6.897,4.548c-0.986,0-1.987-0.195-2.951-0.608
	c-6.25-2.678-10.29-8.803-10.29-15.604v-50.676c0-0.313-0.076-0.625-0.218-0.903l-17.768-34.647
	c-0.714-1.395-1.232-2.879-1.54-4.414L0.33,136.083C0.111,134.991,0,133.87,0,132.753v-38.12c0-9.361,7.616-16.977,16.977-16.977
	h45.837c0.399,0,0.785-0.119,1.114-0.344l53.407-36.495c2.833-1.936,6.145-2.96,9.578-2.96h25.914c6.61,0,12.665,3.881,15.425,9.887
	l14.923,32.471c0.115,0.25,0.278,0.471,0.484,0.653l39.625,35.163c3.176,2.819,5.169,6.696,5.615,10.918l2.834,26.912
	c0.086,0.82,0.681,1.506,1.48,1.708l37.073,9.389c0.159,0.041,0.322,0.061,0.485,0.061h24.813c0.421,0,0.838-0.138,1.176-0.388
	l11.117-8.23c3.33-2.464,8.026-1.763,10.49,1.565c2.465,3.329,1.764,8.025-1.565,10.49l-11.117,8.23
	c-2.902,2.149-6.49,3.332-10.101,3.332h-24.813c-1.406,0-2.809-0.175-4.17-0.52l-37.071-9.388
	c-6.864-1.738-11.974-7.637-12.715-14.679l-2.834-26.91c-0.052-0.491-0.284-0.943-0.654-1.272l-39.624-35.163
	c-1.77-1.571-3.168-3.458-4.157-5.608l-14.924-32.471c-0.321-0.699-1.026-1.151-1.795-1.151h-25.914c-0.4,0-0.785,0.119-1.115,0.344
	L72.391,89.696c-2.833,1.936-6.145,2.96-9.578,2.96H16.977c-1.09,0-1.977,0.887-1.977,1.977v38.121c0,0.13,0.013,0.259,0.038,0.385
	l9.265,46.325c0.036,0.177,0.096,0.352,0.18,0.516l17.768,34.646c1.224,2.388,1.87,5.066,1.87,7.747v50.676
	c0,0.792,0.47,1.504,1.198,1.816C49.126,276.496,50.89,280.905,49.258,284.712z M512,73.227v75.252
	c0,5.267-2.381,10.145-6.534,13.385l-14.061,10.969c-0.483,0.377-0.761,0.945-0.761,1.558v23.976c0,5.226-2.47,10.25-6.607,13.441
	l-40.019,30.874c-5.254,4.053-12.44,4.668-18.307,1.564l-7.921-4.189c-0.65-0.344-1.429-0.3-2.035,0.111l-19.992,13.576
	c-0.507,0.344-0.83,0.915-0.863,1.527l-1.128,20.619c-0.028,0.514,0.142,1.01,0.478,1.399l43.733,50.653
	c2.661,3.082,4.127,7.022,4.127,11.094v52.983c0,4.346-1.642,8.481-4.622,11.644l-58.652,62.234
	c-3.194,3.389-7.697,5.333-12.354,5.333h-63.846c-4.534,0-8.797-1.766-12.004-4.973l-23.569-23.569
	c-0.368-0.368-0.877-0.579-1.397-0.579h-47.484c-3.424,0-6.73-1.019-9.56-2.947l-13.647-9.298l-33.866,71.841
	c-2.994,6.35-9.215,10.295-16.235,10.295c-7.021,0-13.243-3.945-16.236-10.295l-68.235-144.75
	C43.65,321.42,51.06,278.881,78.839,251.102c36.411-36.411,95.657-36.411,132.068,0c27.78,27.779,35.189,70.318,18.438,105.854
	l-27.893,59.17l15.617,10.641c0.33,0.225,0.714,0.343,1.113,0.343h47.484c4.535,0,8.798,1.766,12.005,4.973l23.568,23.569
	c0.374,0.374,0.87,0.579,1.397,0.579h63.846c0.542,0,1.066-0.226,1.438-0.621l58.652-62.234c0.347-0.368,0.538-0.85,0.538-1.355
	v-52.983c0-0.474-0.17-0.933-0.48-1.291l-43.733-50.653c-2.887-3.343-4.343-7.613-4.102-12.022l1.128-20.618
	c0.288-5.257,3.06-10.161,7.415-13.117l19.991-13.575c5.211-3.54,11.907-3.907,17.475-0.961l7.921,4.189
	c0.683,0.361,1.52,0.29,2.131-0.182l40.02-30.874c0.481-0.372,0.769-0.956,0.769-1.564v-23.976c0-5.267,2.381-10.145,6.534-13.385
	l14.061-10.969c0.483-0.377,0.761-0.945,0.761-1.558V73.227c0-0.919-0.625-1.71-1.519-1.923c-0.578-0.138-1.182-0.01-1.655,0.351
	l-2.566,1.955c-4.065,3.097-9.246,4.197-14.22,3.01l-10.854-2.584c-4.773-1.136-8.819-4.28-11.099-8.625l-19.776-37.675
	c-0.221-0.421-0.587-0.749-1.03-0.922l-29.859-11.679c-0.23-0.09-0.473-0.136-0.72-0.136h-17.857c-1.09,0-1.977,0.887-1.977,1.977
	v6.013c0,4.534-1.766,8.796-4.971,12.003l-4.157,4.157c-0.368,0.368-0.579,0.877-0.579,1.397v21.27c0,0.52,0.211,1.03,0.579,1.397
	l13.863,13.863c3.207,3.206,4.972,7.469,4.972,12.004v27.702c0,7.596-5.111,14.322-12.43,16.356l-26.288,7.309
	c-0.234,0.065-0.451,0.171-0.647,0.316l-13.33,9.868c-3.329,2.466-8.024,1.764-10.49-1.565c-2.465-3.329-1.764-8.025,1.565-10.49
	l13.33-9.869c1.677-1.241,3.545-2.153,5.554-2.712l26.288-7.309c0.852-0.237,1.447-1.02,1.447-1.904v-27.7
	c0-0.521-0.211-1.03-0.579-1.397l-13.863-13.863c-3.207-3.206-4.972-7.469-4.972-12.004v-21.27c0-4.535,1.766-8.798,4.972-12.004
	l4.156-4.156c0.373-0.373,0.579-0.87,0.579-1.397v-6.013C368.867,7.616,376.483,0,385.844,0h17.857c2.125,0,4.205,0.392,6.184,1.166
	l29.86,11.679c3.807,1.489,6.949,4.302,8.848,7.92l19.776,37.675c0.266,0.506,0.736,0.872,1.292,1.004l10.854,2.584
	c0.577,0.136,1.181,0.009,1.656-0.351l2.565-1.955c4.064-3.097,9.246-4.196,14.219-3.011C506.636,58.542,512,65.333,512,73.227z
	 M215.776,350.559c14.061-29.827,7.842-65.534-15.475-88.851c-15.282-15.281-35.354-22.922-55.428-22.922
	s-40.146,7.641-55.428,22.922c-23.317,23.317-29.536,59.024-15.475,88.851l68.235,144.75c0.694,1.472,1.969,1.691,2.668,1.691
	c0.698,0,1.974-0.22,2.667-1.691L215.776,350.559z M176.934,286.688c17.679,17.678,17.679,46.443,0,64.122
	c-8.563,8.564-19.95,13.28-32.061,13.28s-23.497-4.716-32.061-13.28c-17.679-17.678-17.679-46.443,0-64.121
	C130.49,269.01,159.255,269.01,176.934,286.688z M175.214,318.75c0-8.104-3.156-15.724-8.887-21.454
	c-5.915-5.915-13.685-8.873-21.455-8.873s-15.539,2.958-21.454,8.872c-11.83,11.83-11.83,31.079,0,42.909
	c11.831,11.83,31.08,11.829,42.909,0C172.058,334.473,175.214,326.854,175.214,318.75z"/>
<g>
</g>
<g>
</g>
<g>
</g>
<g>
</g>
<g>
</g>
<g>
</g>
<g>
</g>
<g>
</g>
<g>
</g>
<g>
</g>
<g>
</g>
<g>
</g>
<g>
</g>
<g>
</g>
<g>
</g>
</svg>
