<?xml version="1.0" encoding="iso-8859-1"?>
<!-- Generator: Adobe Illustrator 19.0.0, SVG Export Plug-In . SVG Version: 6.00 Build 0)  -->
<svg version="1.1" id="Capa_1" xmlns="http://www.w3.org/2000/svg" xmlns:xlink="http://www.w3.org/1999/xlink" x="0px" y="0px"
	 viewBox="0 0 512 512" style="enable-background:new 0 0 512 512;" xml:space="preserve">
<path style="fill:#FFCF65;" d="M380.509,235.986c5.594,31.039-9.706,62.097-37.72,76.572l-52.102,26.922l-14.567-80.834
	l99.312-25.906C377.746,232.137,380.084,233.632,380.509,235.986L380.509,235.986z M34.644,235.986L34.644,235.986
	c-5.594,31.039,9.706,62.097,37.72,76.573l52.102,26.922l14.567-80.834L39.72,232.741C37.406,232.137,35.068,233.632,34.644,235.986
	z M439.681,85.156l23.291-23.297c9.775-9.777,15.528-25.121,15.528-41.417c0-7.148-4.345-12.943-9.705-12.943h-38.819
	c-32.159,0-58.229,34.768-58.229,77.656l0,0c0,42.888,26.07,77.656,58.229,77.656h38.819c5.36,0,9.705-5.795,9.705-12.943
	c0-16.295-5.753-31.639-15.528-41.417L439.681,85.156z"/>
<path style="fill:#FFB450;" d="M207.696,455.965c-48.411,0-87.656-39.254-87.656-87.676V299.4
	c0-127.973,103.719-231.716,231.662-231.716l0,0c15.858,0,31.342,1.598,46.303,4.638c14.976,3.043,18.491,22.826,5.566,30.982
	c-65.022,41.032-108.22,113.513-108.22,196.096v68.889C295.352,416.711,256.107,455.965,207.696,455.965L207.696,455.965z"/>
<path style="fill:#FFCF65;" d="M189.891,205.877c-0.383-2.327-0.592-4.713-0.592-7.149c0-24.125,19.552-43.682,43.672-43.682
	s43.671,19.557,43.671,43.682c0,19.238-12.439,35.559-29.706,41.387c0.383,2.327,0.592,4.713,0.592,7.149
	c0,24.125-19.552,43.682-43.672,43.682s-43.672-19.557-43.672-43.682C160.184,228.026,172.623,211.705,189.891,205.877z"/>
<path style="fill:#FF9744;" d="M205.442,368.289V299.4c0-113.372,81.406-207.712,188.938-227.768c1.21,0.226,2.423,0.445,3.626,0.69
	c14.976,3.043,18.491,22.826,5.566,30.982c-65.022,41.032-108.22,113.513-108.22,196.096v68.889
	c0,32.914-18.136,61.587-44.955,76.58C223.578,429.876,205.442,401.203,205.442,368.289z"/>
<path style="fill:#FF8235;" d="M120.04,410.513v-76.348c8.881-2.848,18.346-4.391,28.172-4.391c22.085,0,42.353,7.771,58.229,20.723
	c15.876-12.952,36.144-20.723,58.229-20.723c10.758,0,21.083,1.849,30.683,5.237v74.867c0,28.411-15.512,54.555-40.445,68.165
	l-13.894,7.585c0.422,1.363,0.65,2.81,0.65,4.312c0,8.042-6.517,14.561-14.557,14.561h-38.819c-8.04,0-14.557-6.519-14.557-14.561
	c0-1.23,0.169-2.418,0.456-3.559l-14.525-8.159C135.189,464.475,120.04,438.587,120.04,410.513z"/>
<path style="fill:#FFE1B3;" d="M148.215,405.488c0,16.083-8.69,29.121-19.41,29.121s-19.41-13.038-19.41-29.121
	s8.69-29.121,19.41-29.121S148.215,389.405,148.215,405.488z M286.347,376.367c-10.72,0-19.41,13.038-19.41,29.121
	s8.69,29.121,19.41,29.121s19.41-13.038,19.41-29.121C305.756,389.405,297.066,376.367,286.347,376.367z"/>
<path d="M450.288,85.156l17.989-17.994C479.54,55.896,486,38.867,486,20.443C486,8.979,478.443,0,468.796,0h-38.817
	c-29.034,0-54.736,24.875-62.972,60.688c-5.09-0.323-10.193-0.504-15.298-0.504c-29.882,0-59.033,5.445-86.643,16.185
	c-3.86,1.501-5.772,5.848-4.271,9.708s5.846,5.774,9.708,4.271c25.87-10.063,53.192-15.165,81.207-15.165
	c0.598,0,1.196,0.018,1.794,0.022c-41.351,15.382-76.922,41.714-103.565,75.234c-5.432-1.912-11.119-2.893-16.956-2.893
	c-28.214,0-51.169,22.96-51.169,51.182c0,0.771,0.018,1.547,0.054,2.325c-17.665,8.4-29.167,26.282-29.167,46.21
	c0,26.225,19.826,47.895,45.27,50.831c-0.002,0.436-0.015,0.869-0.015,1.305v18.397c0,4.142,3.358,7.5,7.5,7.5s7.5-3.358,7.5-7.5
	v-18.397c0-107.49,76.232-199.839,181.458-220.128c0.701,0.135,1.405,0.258,2.104,0.4c5.757,1.17,7.08,6.038,7.348,7.502
	c0.272,1.488,0.769,6.593-4.292,9.787c-33.542,21.167-61.558,50.604-81.02,85.126c-11.944,21.186-20.537,44.124-25.541,67.889
	c-0.202,0.593-0.327,1.215-0.375,1.851c-3.156,15.599-4.776,31.542-4.776,47.572v25.613c-7.564-1.806-15.322-2.739-23.181-2.739
	c-20.893,0-41.346,6.631-58.226,18.777c-16.88-12.146-37.333-18.777-58.226-18.777c-6.982,0-13.899,0.74-20.671,2.171v-25.045
	c0-81.387,44.224-156.534,115.415-196.115c3.62-2.013,4.923-6.579,2.911-10.2c-2.012-3.619-6.577-4.923-10.199-2.911
	c-59.912,33.311-101.913,90.236-116.982,155.414l-77.068-20.104c-3.116-0.813-6.463-0.285-9.178,1.451
	c-2.715,1.735-4.6,4.55-5.172,7.722c-6.216,34.494,10.524,68.478,41.656,84.565l43.617,22.539v26.528v7.593
	c0,0.077,0.009,0.153,0.012,0.229c-6.511,6.624-10.655,17.22-10.655,29.377c0,14.957,6.274,27.545,15.51,33.285
	c0.064,0.258,0.14,0.516,0.232,0.771c3.608,9.948,9.024,19.046,15.87,26.904l-12.792,4.798
	c-13.78,5.169-23.038,18.533-23.038,33.253c0,4.142,3.358,7.5,7.5,7.5s7.5-3.358,7.5-7.5c0-8.503,5.348-16.223,13.306-19.208
	l19.68-7.382c3.257,2.515,6.697,4.816,10.321,6.851l10.249,5.757c0.308,11.901,10.08,21.485,22.048,21.485h38.817
	c12.162,0,22.056-9.896,22.056-22.061c0-0.072,0-0.144-0.001-0.215l9.338-5.098c3.749-2.046,7.305-4.373,10.668-6.925l20.235,7.59
	c7.96,2.986,13.307,10.706,13.307,19.209c0,4.142,3.358,7.5,7.5,7.5s7.5-3.358,7.5-7.5c0-14.72-9.258-28.084-23.039-33.253
	l-13.206-4.953c7.029-7.947,12.581-17.191,16.268-27.338c0.026-0.072,0.043-0.145,0.067-0.217
	c9.205-5.757,15.452-18.324,15.452-33.25c0-11.998-4.039-22.471-10.404-29.11v-8.09v-26.652l43.377-22.415
	c31.132-16.087,47.872-50.071,41.656-84.565c-0.571-3.172-2.456-5.986-5.172-7.722c-2.714-1.734-6.058-2.262-9.179-1.451
	l-63.301,16.513c10.921-41.589,33.61-79.126,65.686-108.286c12.175,22.739,32.397,36.602,54.049,36.602h38.817
	c9.647,0,17.204-8.979,17.204-20.443c0-18.424-6.46-35.453-17.723-46.719L450.288,85.156z M198.513,283.046
	c-17.412-2.597-30.813-17.652-30.813-35.782c0-15.537,9.887-29.313,24.603-34.281c3.481-1.175,5.599-4.699,5.002-8.325
	c-0.327-1.982-0.492-3.978-0.492-5.93c0-19.951,16.226-36.182,36.17-36.182c2.519,0,4.997,0.257,7.417,0.761
	C216.456,197.942,201.5,239.049,198.513,283.046z M41.495,240.949l74.283,19.378c-2.121,12.797-3.22,25.857-3.22,39.073v25.477
	l-36.732-18.98C51.674,293.415,38.204,267.65,41.495,240.949z M128.823,383.867c5.622,0,11.909,9.247,11.909,21.621
	s-6.287,21.621-11.909,21.621c-5.622,0-11.909-9.247-11.909-21.621S123.201,383.867,128.823,383.867z M253.395,455.76
	c-7.96-2.986-13.307-10.706-13.307-19.209c0-4.142-3.358-7.5-7.5-7.5s-7.5,3.358-7.5,7.5c0,14.72,9.258,28.084,23.039,33.253
	l3.677,1.379c-0.162,0.09-0.318,0.188-0.48,0.276l-13.893,7.585c-3.133,1.71-4.626,5.392-3.571,8.802
	c0.208,0.673,0.314,1.377,0.314,2.093c0,3.893-3.166,7.061-7.057,7.061H188.3c-3.891,0-7.057-3.167-7.057-7.061
	c0-0.55,0.075-1.115,0.229-1.729c0.826-3.283-0.649-6.711-3.6-8.369l-14.524-8.159c-0.14-0.079-0.275-0.165-0.414-0.245l4.356-1.634
	c13.78-5.169,23.038-18.533,23.038-33.253c0-4.142-3.358-7.5-7.5-7.5s-7.5,3.358-7.5,7.5c0,8.503-5.348,16.223-13.307,19.208
	l-13.282,4.982c-5.757-5.615-10.52-12.201-14.069-19.474c12.183-3.545,21.058-17.988,21.058-35.779
	c0-20.535-11.82-36.621-26.908-36.621c-0.425,0-0.846,0.017-1.266,0.042v-0.621v-28.47c6.734-1.691,13.664-2.545,20.671-2.545
	c19.446,0,38.441,6.76,53.485,19.034c2.76,2.251,6.722,2.251,9.482,0c15.044-12.274,34.039-19.034,53.485-19.034
	c7.893,0,15.668,1.081,23.181,3.217v27.798v0.635c-0.498-0.036-1-0.057-1.505-0.057c-15.089,0-26.908,16.086-26.908,36.621
	c0,17.76,8.844,32.183,20.994,35.759c-3.616,7.235-8.432,13.764-14.236,19.318L253.395,455.76z M286.356,427.109
	c-5.622,0-11.909-9.247-11.909-21.621s6.287-21.621,11.909-21.621s11.909,9.247,11.909,21.621S291.978,427.109,286.356,427.109z
	 M373.684,240.949c3.291,26.702-10.18,52.466-34.331,64.946l-36.492,18.857v-25.353c0-13.903,1.269-27.594,3.719-40.945
	L373.684,240.949z M468.796,155.313h-38.817c-16.878,0-32.906-12.033-42.298-31.57c6.328-5.01,12.963-9.72,19.898-14.096
	c8.524-5.379,12.858-15.262,11.041-25.176c-1.833-10.003-9.158-17.475-19.115-19.498c-5.753-1.169-11.567-2.123-17.418-2.865
	C389.159,34.205,408.498,15,429.979,15l38.797-0.002c0.537,0.124,2.225,1.998,2.225,5.445c0,14.263-4.984,27.764-13.331,36.114
	l-23.29,23.297c-2.928,2.929-2.928,7.677,0,10.605l23.29,23.297c8.348,8.35,13.331,21.851,13.331,36.114
	C471.001,153.316,469.312,155.19,468.796,155.313z M286.356,393.863c4.142,0,7.5,3.358,7.5,7.5v8.251c0,4.142-3.358,7.5-7.5,7.5
	s-7.5-3.358-7.5-7.5v-8.251C278.857,397.221,282.214,393.863,286.356,393.863z M128.823,417.114c-4.142,0-7.5-3.358-7.5-7.5v-8.251
	c0-4.142,3.358-7.5,7.5-7.5s7.5,3.358,7.5,7.5v8.251C136.322,413.756,132.965,417.114,128.823,417.114z"/>
<g>
</g>
<g>
</g>
<g>
</g>
<g>
</g>
<g>
</g>
<g>
</g>
<g>
</g>
<g>
</g>
<g>
</g>
<g>
</g>
<g>
</g>
<g>
</g>
<g>
</g>
<g>
</g>
<g>
</g>
</svg>
