<?xml version="1.0" encoding="iso-8859-1"?>
<!-- Generator: Adobe Illustrator 19.0.0, SVG Export Plug-In . SVG Version: 6.00 Build 0)  -->
<svg version="1.1" id="Capa_1" xmlns="http://www.w3.org/2000/svg" xmlns:xlink="http://www.w3.org/1999/xlink" x="0px" y="0px"
	 viewBox="0 0 512 512" style="enable-background:new 0 0 512 512;" xml:space="preserve">
<path style="fill:#B4826E;" d="M386.074,399.664v44.652c0,16.083-13.038,29.121-29.121,29.121h-19.414
	c-16.083,0-29.121-13.038-29.121-29.121v-54.359h67.949C381.728,389.957,386.074,394.303,386.074,399.664z M83.215,7.5H63.801
	C47.718,7.5,34.68,20.538,34.68,36.621v44.652c0,5.361,4.346,9.707,9.707,9.707h67.949V36.621C112.336,20.538,99.298,7.5,83.215,7.5
	z"/>
<path style="fill:#FFEBBE;" d="M356.953,473.438h-29.121H122.043c-16.083,0-29.121-13.038-29.121-29.121V36.621
	C92.922,20.538,79.884,7.5,63.801,7.5h29.121h205.789c16.083,0,29.121,13.038,29.121,29.121v407.695
	C327.832,460.4,340.87,473.438,356.953,473.438z"/>
<path style="fill:#FFE1B3;" d="M356.953,473.438h-29.121c-16.083,0-29.121-13.038-29.121-29.121V36.621
	c0-16.083-13.038-29.121-29.121-29.121h29.121c16.083,0,29.121,13.038,29.121,29.121v407.695
	C327.832,460.4,340.87,473.438,356.953,473.438z"/>
<path style="fill:#FFB450;" d="M102.866,409.134L102.866,409.134c-3.746-3.746-4.194-9.666-1.055-13.933l99.219-134.884
	c10.036-13.644,31.398-13.62,52.927-2.274c11.346,21.529,11.37,42.891-2.274,52.927L116.8,410.189
	C112.532,413.328,106.612,412.88,102.866,409.134z"/>
<path style="fill:#963737;" d="M251.684,310.969l-15.75,11.586l-46.488-46.488l11.586-15.75c4.666-6.344,11.783-9.729,20.224-10.399
	L486.919,10.003c3.836-3.464,9.715-3.315,13.37,0.34l1.368,1.368c3.655,3.655,3.805,9.533,0.34,13.37L262.083,290.745
	C261.413,299.187,258.027,306.303,251.684,310.969z"/>
<path style="fill:#CF4036;" d="M262.832,212.177l36.991,36.991l-5.525,6.086c-13.641,15.027-25.73,31.382-36.242,48.743
	c-1.629,2.691-3.748,5.042-6.373,6.973l-15.75,11.586l-46.488-46.488l11.586-15.75c1.931-2.625,4.281-4.743,6.971-6.372
	c17.36-10.513,33.717-22.602,48.744-36.243L262.832,212.177z"/>
<path style="fill:#916050;" d="M18.663,484.5v-38.242h192.685V484.5c0,11.046-8.954,20-20,20H38.663
	C27.617,504.5,18.663,495.546,18.663,484.5z"/>
<path style="fill:#B4826E;" d="M205.066,378.309c3.933,0,7.476,2.373,8.983,6.007c5.458,13.165,8.462,27.512,8.462,42.529
	c0,17.334-4.002,33.773-11.162,48.535H18.662C11.502,460.617,7.5,444.177,7.5,426.844c0-15.017,3.004-29.363,8.462-42.529
	c1.506-3.633,5.05-6.007,8.983-6.007L205.066,378.309L205.066,378.309z"/>
<path style="fill:#504B5A;" d="M180.447,386.074v38.828c0,10.722-8.692,19.414-19.414,19.414s-19.414-8.692-19.414-19.414v-12.326
	c-2.858,1.656-6.167,2.618-9.707,2.618c-10.722,0-19.414-8.692-19.414-19.414v-9.707c0-2.763,0.586-5.386,1.626-7.766h64.697
	C179.861,380.688,180.447,383.311,180.447,386.074z"/>
<path d="M507.56,30.111c6.145-6.806,5.88-17.216-0.603-23.699l-1.369-1.369c-6.485-6.484-16.895-6.747-23.699-0.603L335.33,136.794
	V36.624c0-20.193-16.428-36.621-36.621-36.621h-38.828c-4.142,0-7.5,3.357-7.5,7.5s3.358,7.5,7.5,7.5h38.828
	c11.922,0,21.621,9.699,21.621,21.621v112.278c0,0.453,0.047,0.895,0.124,1.326l-102.43,92.502
	c-9.761,1.361-17.687,5.872-23.036,13.143l-11.536,15.684c-0.003,0.004-0.006,0.007-0.009,0.011l-73,99.241h-10.021V36.624
	c0-8.08-2.631-15.558-7.08-21.621h136.933c4.142,0,7.5-3.357,7.5-7.5s-3.358-7.5-7.5-7.5H83.214H63.8
	c-20.193,0-36.621,16.428-36.621,36.621v44.652c0,9.488,7.719,17.207,17.207,17.207h41.035V370.81H24.945
	c-6.987,0-13.232,4.175-15.911,10.635C3.04,395.902,0,411.177,0,426.844c0,17.488,3.762,34.366,11.163,50.205v8.037
	c0,14.841,12.074,26.914,26.914,26.914h153.855c14.84,0,26.914-12.073,26.914-26.914v-8.037
	c7.401-15.838,11.163-32.717,11.163-50.205c0-15.667-3.04-30.942-9.034-45.4c-2.678-6.46-8.923-10.635-15.911-10.635h-22.073
	l57.381-42.209c0.001-0.001,0.002-0.001,0.003-0.002l15.751-11.587c7.272-5.35,11.783-13.276,13.144-23.036l51.06-56.54v206.881
	c0,8.08,2.631,15.557,7.08,21.621h-85.972c-4.142,0-7.5,3.357-7.5,7.5s3.358,7.5,7.5,7.5h96.099h19.414
	c20.193,0,36.621-16.428,36.621-36.621v-44.652c0-9.488-7.719-17.207-17.207-17.207H335.33V220.826L507.56,30.111z M44.386,83.483
	c-1.217,0-2.207-0.99-2.207-2.207V36.624c0-11.922,9.699-21.621,21.621-21.621s21.621,9.699,21.621,21.621v46.859H44.386z
	 M376.365,397.458c1.217,0,2.207,0.99,2.207,2.207v44.652c0,11.922-9.699,21.621-21.621,21.621s-21.621-9.699-21.621-21.621v-46.859
	H376.365z M491.944,15.572c0.872-0.787,2.207-0.755,3.038,0.077l1.369,1.369c0.832,0.831,0.865,2.167,0.077,3.04L299.444,238.184
	l-25.627-25.627L491.944,15.572z M176.667,386.075v38.828c0,6.569-5.345,11.914-11.914,11.914s-11.914-5.345-11.914-11.914v-12.325
	c0-2.682-1.432-5.159-3.754-6.498c-2.323-1.338-5.185-1.334-7.504,0.008c-1.843,1.067-3.844,1.608-5.948,1.608
	c-6.569,0-11.914-5.345-11.914-11.914v-9.707c0-0.089,0.012-0.177,0.014-0.266h52.922
	C176.655,385.898,176.667,385.986,176.667,386.075z M157.676,370.81h-28.612l61.248-83.265l34.143,34.143L157.676,370.81z
	 M191.932,497H38.077c-6.569,0-11.914-5.345-11.914-11.914v-2.207h177.683v2.207C203.846,491.655,198.502,497,191.932,497z
	 M207.119,387.188c5.236,12.628,7.891,25.971,7.891,39.656c0,14.24-2.848,28.021-8.472,41.035H23.472
	C17.848,454.866,15,441.084,15,426.844c0-13.685,2.655-27.028,7.891-39.656c0.347-0.838,1.154-1.379,2.054-1.379h83.78
	c-0.001,0.089-0.007,0.177-0.007,0.266v9.707c0,14.841,12.074,26.914,26.914,26.914c0.738,0,1.474-0.031,2.207-0.092v2.299
	c0,14.841,12.074,26.914,26.914,26.914s26.914-12.073,26.914-26.914v-38.828c0-0.089-0.006-0.177-0.007-0.266h13.405
	C205.965,385.809,206.772,386.35,207.119,387.188z M256.515,285.72c-1.108,1.227-1.78,2.785-1.911,4.433
	c-0.523,6.594-3.002,11.565-7.367,14.777l-10.559,7.768l-37.375-37.376l7.767-10.56c3.21-4.364,8.182-6.843,14.776-7.366
	c1.648-0.131,3.207-0.803,4.434-1.91l36.389-32.862l26.708,26.707L256.515,285.72z M155.751,104.573c0,4.143-3.358,7.5-7.5,7.5
	h-9.707c-4.142,0-7.5-3.357-7.5-7.5s3.358-7.5,7.5-7.5h9.707C152.393,97.073,155.751,100.431,155.751,104.573z M155.751,75.452
	c0,4.143-3.358,7.5-7.5,7.5h-9.707c-4.142,0-7.5-3.357-7.5-7.5s3.358-7.5,7.5-7.5h9.707
	C152.393,67.952,155.751,71.31,155.751,75.452z M155.751,133.694c0,4.143-3.358,7.5-7.5,7.5h-9.707c-4.142,0-7.5-3.357-7.5-7.5
	s3.358-7.5,7.5-7.5h9.707C152.393,126.194,155.751,129.552,155.751,133.694z M155.751,221.057c0,4.143-3.358,7.5-7.5,7.5h-9.707
	c-4.142,0-7.5-3.357-7.5-7.5s3.358-7.5,7.5-7.5h9.707C152.393,213.557,155.751,216.914,155.751,221.057z M155.751,191.936
	c0,4.143-3.358,7.5-7.5,7.5h-9.707c-4.142,0-7.5-3.357-7.5-7.5s3.358-7.5,7.5-7.5h9.707
	C152.393,184.436,155.751,187.793,155.751,191.936z M204.286,75.452c0,4.143-3.358,7.5-7.5,7.5h-9.707c-4.142,0-7.5-3.357-7.5-7.5
	s3.358-7.5,7.5-7.5h9.707C200.928,67.952,204.286,71.31,204.286,75.452z M204.286,46.331c0,4.143-3.358,7.5-7.5,7.5h-9.707
	c-4.142,0-7.5-3.357-7.5-7.5s3.358-7.5,7.5-7.5h9.707C200.928,38.831,204.286,42.189,204.286,46.331z M204.286,104.573
	c0,4.143-3.358,7.5-7.5,7.5h-9.707c-4.142,0-7.5-3.357-7.5-7.5s3.358-7.5,7.5-7.5h9.707
	C200.928,97.073,204.286,100.431,204.286,104.573z M204.286,191.936c0,4.143-3.358,7.5-7.5,7.5h-9.707c-4.142,0-7.5-3.357-7.5-7.5
	s3.358-7.5,7.5-7.5h9.707C200.928,184.436,204.286,187.793,204.286,191.936z M204.286,162.815c0,4.143-3.358,7.5-7.5,7.5h-9.707
	c-4.142,0-7.5-3.357-7.5-7.5s3.358-7.5,7.5-7.5h9.707C200.928,155.315,204.286,158.672,204.286,162.815z M262.088,395.782
	c0-4.143,3.358-7.5,7.5-7.5h9.707c4.142,0,7.5,3.357,7.5,7.5s-3.358,7.5-7.5,7.5h-9.707
	C265.446,403.282,262.088,399.925,262.088,395.782z M262.088,366.661c0-4.143,3.358-7.5,7.5-7.5h9.707c4.142,0,7.5,3.357,7.5,7.5
	s-3.358,7.5-7.5,7.5h-9.707C265.446,374.161,262.088,370.804,262.088,366.661z M262.088,424.903c0-4.143,3.358-7.5,7.5-7.5h9.707
	c4.142,0,7.5,3.357,7.5,7.5s-3.358,7.5-7.5,7.5h-9.707C265.446,432.403,262.088,429.046,262.088,424.903z"/>
<g>
</g>
<g>
</g>
<g>
</g>
<g>
</g>
<g>
</g>
<g>
</g>
<g>
</g>
<g>
</g>
<g>
</g>
<g>
</g>
<g>
</g>
<g>
</g>
<g>
</g>
<g>
</g>
<g>
</g>
</svg>
