<?xml version="1.0" encoding="iso-8859-1"?>
<!-- Generator: Adobe Illustrator 19.0.0, SVG Export Plug-In . SVG Version: 6.00 Build 0)  -->
<svg version="1.1" id="Capa_1" xmlns="http://www.w3.org/2000/svg" xmlns:xlink="http://www.w3.org/1999/xlink" x="0px" y="0px"
	 viewBox="0 0 511.999 511.999" style="enable-background:new 0 0 511.999 511.999;" xml:space="preserve">
<path style="fill:#E6AF78;" d="M431.994,485.086H114.518c-5.523,0-10-4.477-10-10V46.621c0-5.523,4.477-10,10-10h317.476
	c5.523,0,10,4.477,10,10v428.465C441.994,480.609,437.517,485.086,431.994,485.086z"/>
<path style="fill:#F0C087;" d="M395.562,504.5H78.086c-5.523,0-10-4.477-10-10V66.035c0-5.523,4.477-10,10-10h317.476
	c5.523,0,10,4.477,10,10V494.5C405.562,500.023,401.085,504.5,395.562,504.5z"/>
<path style="fill:#FFEBBE;" d="M410.356,60.08v88.172c0,2.681-2.146,4.854-4.794,4.854h-99.096c-1.271,0-2.491-0.511-3.39-1.422
	l-17.389-17.606c-1.872-1.895-4.907-1.895-6.779,0l-17.389,17.606c-0.899,0.91-2.118,1.422-3.39,1.422h-111.64
	c-1.271,0-2.491-0.511-3.39-1.422l-7.801-7.899c-1.872-1.895-4.907-1.895-6.779,0l-7.801,7.899c-0.899,0.91-2.118,1.422-3.39,1.422
	H68.086c-2.647,0-4.794-2.173-4.794-4.854V60.08c0-2.233,2.207-4.044,4.93-4.044h337.203
	C408.149,56.035,410.356,57.846,410.356,60.08z"/>
<path style="fill:#963737;" d="M448.499,104.57h-346.65c-2.761,0-5-2.239-5-5V41.621c0-2.761,2.239-5,5-5h346.65
	c2.761,0,5,2.239,5,5V99.57C453.499,102.332,451.26,104.57,448.499,104.57z"/>
<path style="fill:#AA4141;" d="M415.149,41.475v58.242c0,2.681-2.146,4.854-4.794,4.854H63.293c-2.647,0-4.794-2.173-4.794-4.854
	V41.475c0-2.681,2.146-4.854,4.794-4.854h347.063C413.003,36.621,415.149,38.794,415.149,41.475z"/>
<path style="fill:#FF4B4B;" d="M351.873,318.125c0,64.333-51.509,116.484-115.049,116.484s-115.049-52.152-115.049-116.484
	s51.509-116.484,115.049-116.484S351.873,253.792,351.873,318.125z"/>
<path style="fill:#FF9744;" d="M298.773,318.125c0,34.641-27.736,62.722-61.949,62.722s-61.949-28.082-61.949-62.722
	s27.736-62.722,61.949-62.722S298.773,283.484,298.773,318.125z"/>
<path style="fill:#FFCF65;" d="M272.224,318.125c0,19.795-15.849,35.841-35.4,35.841s-35.4-16.047-35.4-35.841
	s15.849-35.841,35.4-35.841S272.224,298.33,272.224,318.125z"/>
<path d="M448.705,29.121h-38.556h-2.9H391.97v-2.207C391.97,12.073,380.004,0,365.295,0S338.62,12.073,338.62,26.914v2.207H161.873
	v-2.207C161.873,12.073,149.907,0,135.198,0s-26.675,12.073-26.675,26.914v2.207H63.499c-6.893,0-12.5,5.607-12.5,12.5V99.57
	c0,3.985,1.881,7.532,4.794,9.822v38.859c0,3.973,1.884,7.504,4.793,9.766v336.775c0,9.488,7.666,17.207,17.088,17.207h318.301
	c9.422,0,17.088-7.719,17.088-17.207v-2.207h19.345c9.422,0,17.087-7.719,17.087-17.207v-89.79c0-4.143-3.357-7.5-7.5-7.5
	s-7.5,3.357-7.5,7.5v89.79c0,1.217-0.937,2.207-2.087,2.207h-19.345V158.018c2.909-2.261,4.793-5.792,4.793-9.766V112.07h16.639
	v245.032c0,4.143,3.357,7.5,7.5,7.5s7.5-3.357,7.5-7.5V112.03c6.411-0.412,11.505-5.77,11.505-12.313V41.475
	C460.999,34.663,455.484,29.121,448.705,29.121z M445.999,97.07h-23.35V44.121h23.35V97.07z M106.436,145.605h-9.587H70.793V112.07
	h332.063v33.535h-95.24l-16.591-16.798c-2.325-2.354-5.424-3.651-8.726-3.651s-6.4,1.297-8.726,3.651l-16.591,16.798H147.638
	l-7.004-7.091c-2.325-2.354-5.424-3.651-8.726-3.651s-6.4,1.297-8.726,3.651l-7.004,7.091H106.436z M353.62,26.914
	c0-6.569,5.237-11.914,11.675-11.914s11.675,5.345,11.675,11.914v2.207h-23.35L353.62,26.914L353.62,26.914z M123.523,26.914
	c0-6.569,5.237-11.914,11.675-11.914s11.675,5.345,11.675,11.914v2.207h-23.35C123.523,29.121,123.523,26.914,123.523,26.914z
	 M65.999,44.121h42.524v31.328c0,4.143,3.357,7.5,7.5,7.5s7.5-3.357,7.5-7.5V44.121H338.62v31.328c0,4.143,3.357,7.5,7.5,7.5
	s7.5-3.357,7.5-7.5V44.121h53.629h0.4V97.07H65.999V44.121z M395.975,497H77.674c-1.151,0-2.088-0.99-2.088-2.207V160.605h21.263
	h9.587h10.892c3.255,0,6.436-1.331,8.726-3.651l5.855-5.928l5.854,5.926c2.292,2.322,5.473,3.653,8.728,3.653h111.642
	c3.252,0,6.432-1.33,8.726-3.651l15.442-15.635l15.44,15.633c2.292,2.322,5.473,3.653,8.728,3.653h91.596v334.188
	C398.062,496.01,397.126,497,395.975,497z M236.824,194.141c-67.573,0-122.549,55.619-122.549,123.984
	s54.976,123.984,122.549,123.984s122.549-55.619,122.549-123.984S304.397,194.141,236.824,194.141z M333.459,365.926l-33.152-19.379
	c2.865-6.518,4.787-13.547,5.565-20.922h38.241C343.145,339.996,339.416,353.61,333.459,365.926z M229.324,387.932v38.908
	c-14.156-0.993-27.566-4.773-39.698-10.803l19.2-33.67C215.216,385.225,222.103,387.144,229.324,387.932z M244.324,387.932
	c7.221-0.788,14.109-2.707,20.499-5.565l19.2,33.67c-12.133,6.03-25.543,9.811-39.699,10.803L244.324,387.932L244.324,387.932z
	 M236.824,373.348c-30.023,0-54.449-24.772-54.449-55.223s24.426-55.223,54.449-55.223s54.449,24.772,54.449,55.223
	S266.848,373.348,236.824,373.348z M129.535,325.625h38.241c0.778,7.375,2.699,14.405,5.565,20.923l-33.152,19.378
	C134.232,353.61,130.504,339.996,129.535,325.625z M140.189,270.324l33.151,19.379c-2.865,6.517-4.786,13.547-5.565,20.922h-38.241
	C130.504,296.254,134.232,282.64,140.189,270.324z M244.324,248.318V209.41c14.156,0.993,27.566,4.773,39.698,10.803l-19.2,33.67
	C258.433,251.025,251.546,249.106,244.324,248.318z M229.324,248.318c-7.221,0.788-14.108,2.707-20.498,5.565l-19.2-33.67
	c12.133-6.03,25.542-9.811,39.698-10.803V248.318z M305.873,310.625c-0.778-7.375-2.699-14.405-5.565-20.922l33.152-19.379
	c5.957,12.316,9.685,25.93,10.654,40.301H305.873z M326.022,257.297l-33.175,19.392c-4.224-5.824-9.312-10.964-15.074-15.233
	l19.186-33.646C308.405,235.662,318.287,245.688,326.022,257.297z M176.69,227.81l19.186,33.646
	c-5.762,4.269-10.85,9.41-15.075,15.234l-33.174-19.393C155.362,245.688,165.243,235.662,176.69,227.81z M147.627,378.953
	l33.175-19.392c4.224,5.824,9.312,10.965,15.074,15.233L176.69,408.44C165.243,400.588,155.362,390.563,147.627,378.953z
	 M296.959,408.44l-19.186-33.646c5.762-4.269,10.85-9.409,15.074-15.233l33.175,19.393
	C318.287,390.563,308.405,400.588,296.959,408.44z M236.824,274.783c-23.655,0-42.899,19.443-42.899,43.342
	s19.244,43.342,42.899,43.342s42.899-19.443,42.899-43.342S260.479,274.783,236.824,274.783z M236.824,346.467
	c-15.384,0-27.899-12.714-27.899-28.342s12.516-28.342,27.899-28.342s27.899,12.714,27.899,28.342S252.208,346.467,236.824,346.467z
	 M244.324,69.625v1.941c0,4.143-3.357,7.5-7.5,7.5s-7.5-3.357-7.5-7.5v-1.941c0-4.143,3.357-7.5,7.5-7.5
	S244.324,65.482,244.324,69.625z M113.936,182.227c0,4.143-3.357,7.5-7.5,7.5h-9.587c-4.143,0-7.5-3.357-7.5-7.5s3.357-7.5,7.5-7.5
	h9.587C110.578,174.727,113.936,178.084,113.936,182.227z M113.936,211.348c0,4.143-3.357,7.5-7.5,7.5h-9.587
	c-4.143,0-7.5-3.357-7.5-7.5s3.357-7.5,7.5-7.5h9.587C110.578,203.848,113.936,207.205,113.936,211.348z M382.383,444.316
	c0,4.143-3.357,7.5-7.5,7.5h-9.588c-4.143,0-7.5-3.357-7.5-7.5s3.357-7.5,7.5-7.5h9.588
	C379.025,436.816,382.383,440.174,382.383,444.316z M382.383,415.195c0,4.143-3.357,7.5-7.5,7.5h-9.588c-4.143,0-7.5-3.357-7.5-7.5
	s3.357-7.5,7.5-7.5h9.588C379.025,407.695,382.383,411.053,382.383,415.195z M382.383,473.438c0,4.143-3.357,7.5-7.5,7.5h-9.588
	c-4.143,0-7.5-3.357-7.5-7.5s3.357-7.5,7.5-7.5h9.588C379.025,465.938,382.383,469.295,382.383,473.438z"/>
<g>
</g>
<g>
</g>
<g>
</g>
<g>
</g>
<g>
</g>
<g>
</g>
<g>
</g>
<g>
</g>
<g>
</g>
<g>
</g>
<g>
</g>
<g>
</g>
<g>
</g>
<g>
</g>
<g>
</g>
</svg>
