<?xml version="1.0"?>
<svg xmlns="http://www.w3.org/2000/svg" viewBox="0 0 512 512" width="512" height="512"><g id="Fill_out_line" data-name="Fill out line"><path d="M488,200c0,15.53-5.71,30.37988-16.09009,44C437.98,288.5,354.1001,320,256,320S74.02,288.5,40.09009,244C29.71,230.37988,24,215.53,24,200,24,133.73,127.87012,80,256,80S488,133.73,488,200Z" style="fill:#fca529"/><ellipse cx="256" cy="244" rx="215.90991" ry="76" style="fill:#f09b22"/><path d="M358.26,216.23A48.9312,48.9312,0,0,1,316.28,240H195.72A48.94086,48.94086,0,0,1,146.78,192c-.02-.32007-.02-.64014-.02-.96a48.685,48.685,0,0,1,.95-9.6001l2.64014-13.21a88.44868,88.44868,0,0,1,55.7-65.5,87.73828,87.73828,0,0,0,10.55-4.77q3.22485-1.70983,6.29-3.68994A87.885,87.885,0,0,0,237.55005,82.45L256,64l18.45,18.45a88.53079,88.53079,0,0,0,31.5,20.28,88.56709,88.56709,0,0,1,55.7,65.5l2.64014,13.21A48.93157,48.93157,0,0,1,358.26,216.23Z" style="fill:#ffefd6"/><path d="M236.90991,201.64014A88.50629,88.50629,0,0,1,255.91992,240H195.72A48.94086,48.94086,0,0,1,146.78,192c-.02-.32007-.02-.64014-.02-.96a48.685,48.685,0,0,1,.95-9.6001l2.64014-13.21a88.68589,88.68589,0,0,1,8.0498-23.07007l10.67017,10.67017a88.528,88.528,0,0,0,31.5,20.27978A88.43185,88.43185,0,0,1,236.90991,201.64014Z" style="fill:#e1cab4"/><path d="M236.90991,201.64014A88.50629,88.50629,0,0,1,255.91992,240H195.72A48.94086,48.94086,0,0,1,146.78,192h80.56006A87.08576,87.08576,0,0,1,236.90991,201.64014Z" style="fill:#e1cab4"/><path d="M358.26,216.23A48.9312,48.9312,0,0,1,316.28,240H256.08008a88.48351,88.48351,0,0,1,28.58984-48h.74a38.73752,38.73752,0,0,0,30.21021-14.52A36.75547,36.75547,0,0,0,318.7,173c1.11011-.53,2.2-1.08008,3.28-1.66016q3.22485-1.70984,6.29-3.68994a87.86077,87.86077,0,0,0,14.65991-11.81982l10.66016-10.66016A88.39261,88.39261,0,0,1,361.6499,168.23l2.64014,13.21A48.93157,48.93157,0,0,1,358.26,216.23Z" style="fill:#e1cab4"/><path d="M470.26,296.23A48.9312,48.9312,0,0,1,428.28,320H307.72A48.94086,48.94086,0,0,1,258.78,272c-.02-.32007-.02-.64014-.02-.96a48.685,48.685,0,0,1,.95-9.6001l2.64014-13.21a88.494,88.494,0,0,1,55.7-65.5,87.73828,87.73828,0,0,0,10.55-4.77q3.22485-1.70984,6.29-3.68994A87.885,87.885,0,0,0,349.55005,162.45L368,144l18.45,18.45a88.53079,88.53079,0,0,0,31.5,20.28,88.48818,88.48818,0,0,1,55.7,65.5l2.64014,13.21A48.93157,48.93157,0,0,1,470.26,296.23Z" style="fill:#ffefd6"/><path d="M246.26,296.23A48.9312,48.9312,0,0,1,204.28,320H83.72A48.94086,48.94086,0,0,1,34.78,272c-.02-.32007-.02-.64014-.02-.96a48.685,48.685,0,0,1,.95-9.6001l2.64014-13.21a88.494,88.494,0,0,1,55.7-65.5,87.73828,87.73828,0,0,0,10.55-4.77q3.22485-1.70984,6.29-3.68994A87.885,87.885,0,0,0,125.55005,162.45L144,144l18.45,18.45a88.53079,88.53079,0,0,0,31.5,20.28,88.48818,88.48818,0,0,1,55.7,65.5l2.64014,13.21A48.93157,48.93157,0,0,1,246.26,296.23Z" style="fill:#ffefd6"/><path d="M488,200v64c0,17.06006-6.89014,33.29-19.3,47.99C432.8999,354.37988,351.14014,384,256,384S79.1001,354.37988,43.30005,311.99C30.89014,297.29,24,281.06006,24,264V200c0,17.07007,6.89014,33.30005,19.31006,48C79.10986,290.37988,160.87012,320,256,320s176.89014-29.62012,212.68994-72C481.10986,233.30005,488,217.07007,488,200Z" style="fill:#fdca77"/><path d="M488,264v64c0,66.27-103.87012,120-232,120S24,394.27,24,328V264c0,17.06006,6.89014,33.29,19.30005,47.99C79.1001,354.37988,160.85986,384,256,384s176.8999-29.62012,212.7-72.01C481.10986,297.29,488,281.06006,488,264Z" style="fill:#fab53f"/><path d="M312,336v16l-24,30.87012Q272.31006,383.97973,256,384c-95.14014,0-176.8999-29.62012-212.69995-72.01C30.89014,297.29,24,281.06006,24,264V200c0,17.07007,6.89014,33.30005,19.31006,48C79.10986,290.37988,160.87012,320,256,320q16.28979,0,32-1.12988Z" style="fill:#fab53f"/><path d="M312,408v16l-24,22.87012Q272.31006,447.97973,256,448C127.87012,448,24,394.27,24,328V264c0,17.06006,6.89014,33.29,19.30005,47.99C79.1001,354.37988,160.85986,384,256,384q16.28979,0,32-1.12988Z" style="fill:#fca529"/><path d="M329.33105,78.00293,326.669,93.78027c44.34863,7.48145,83.9707,22.26075,111.56835,41.61524C472.75488,159.60254,480,183.88867,480,200c0,13.39453-4.8623,26.56738-14.45117,39.14941-15.9541,20.92383-43.69727,38.90723-80.23047,52.00782C347.292,304.793,302.57422,312,256,312s-91.292-7.207-129.31836-20.84277c-36.5332-13.10059-64.27637-31.084-80.22852-52.00684C36.8623,226.56738,32,213.39453,32,200c0-29.18945,22.71094-51.24316,41.7627-64.60449,27.59765-19.35449,67.21972-34.13379,111.56835-41.61524L182.669,78.00293C82.97949,94.82129,16,143.84863,16,200V328c0,35.19141,25.668,67.84863,72.27539,91.957C133.21094,443.19922,192.77637,456,256,456s122.78906-12.80078,167.72461-36.043C470.332,395.84863,496,363.19141,496,328V200C496,143.84863,429.02051,94.82129,329.33105,78.00293ZM32,246.501c.56494.78515,1.134,1.56958,1.72852,2.34961C70.38867,296.93164,157.63574,328,256,328q15.03442,0,29.67822-.95825L304,340.11914v9.13672l-20.10742,25.86377Q270.13331,375.989,256,376c-90.00977,0-171.10059-27.15137-206.58691-69.16992C37.8584,293.14258,32,278.73242,32,264ZM95.62695,405.74512C54.59668,384.52246,32,356.91211,32,328V310.50562q2.417,3.35339,5.1875,6.64672C75.58789,362.62012,161.47656,392,256,392q14.54845,0,28.77979-.9187L304,411.20605v9.36719l-19.42993,18.51465Q270.46839,439.99317,256,440C195.28711,440,138.332,427.835,95.62695,405.74512ZM480,328c0,28.91211-22.59668,56.52246-63.627,77.74512-29.64991,15.33691-66.17237,25.88379-106.04883,30.90234l7.19433-6.85547A8.001,8.001,0,0,0,320,424V408a7.99915,7.99915,0,0,0-2.21484-5.52539l-12.57935-13.17139c74.25684-8.22265,138.00952-34.73852,169.60767-72.15283q2.7777-3.2904,5.18652-6.645Zm0-64c0,14.73242-5.8584,29.14258-17.41211,42.82812-28.80444,34.10743-87.6543,58.41749-156.93115,66.36426l12.65869-16.28222A7.99958,7.99958,0,0,0,320,352V336a8.00113,8.00113,0,0,0-3.35254-6.51172l-6.57666-4.69409c75.32959-9.08643,138.4375-36.908,168.20264-75.94458.59375-.7793,1.16235-1.56274,1.72656-2.34717Z"/><path d="M161.76172,125.001l12.47461,10.01953A79.11709,79.11709,0,0,1,208.11816,110.499q1.30922-.49071,2.59888-1.01635A123.53735,123.53735,0,0,0,200,160h16a107.06267,107.06267,0,0,1,22.03955-65.35986,115.80078,115.80078,0,0,0,10.80518,68.938l14.31054-7.15624a99.81781,99.81781,0,0,1-8.166-65.56666A134.97018,134.97018,0,0,0,297.002,148.64648l2.001,1.60059,9.99414-12.49414-2-1.60059a119.02354,119.02354,0,0,1-34.38672-44.48779A99.39145,99.39145,0,0,0,303.88086,110.499a79.11357,79.11357,0,0,1,33.88184,24.52149L350.2373,125.001A95.10953,95.10953,0,0,0,309.499,95.51855a83.61029,83.61029,0,0,1-29.957-19.291L261.65723,58.34277a8.003,8.003,0,0,0-11.31446,0L232.458,76.22754a83.60565,83.60565,0,0,1-29.958,19.291A95.13283,95.13283,0,0,0,161.76172,125.001Z"/><path d="M253.12109,300.34668a56.8397,56.8397,0,0,0,7.01172-40.47656L257.335,245.88086A94.48628,94.48628,0,0,0,197.499,175.51855a83.61029,83.61029,0,0,1-29.957-19.291l-17.88476-17.88477a8.003,8.003,0,0,0-11.31446,0L120.458,156.22754a83.61029,83.61029,0,0,1-29.957,19.291A94.54469,94.54469,0,0,0,44.9541,211.54L58.2373,220.46A78.63871,78.63871,0,0,1,96.11816,190.499q1.30591-.48962,2.59278-1.01367A123.5405,123.5405,0,0,0,88,240h16a107.06159,107.06159,0,0,1,22.03394-65.35254,115.80635,115.80635,0,0,0,10.81079,68.93066l14.31054-7.15624a99.81781,99.81781,0,0,1-8.166-65.56666A134.97018,134.97018,0,0,0,185.002,228.64648l2.001,1.60059,9.99414-12.49414-2-1.60059a119.02354,119.02354,0,0,1-34.38672-44.48779A99.38773,99.38773,0,0,0,191.88184,190.499a78.58479,78.58479,0,0,1,49.76367,58.52051l2.79785,13.98926a40.87612,40.87612,0,0,1-5.041,29.10547Z"/><path d="M453.7627,220.46,467.0459,211.54A94.54469,94.54469,0,0,0,421.499,175.51855a83.61029,83.61029,0,0,1-29.957-19.291l-17.88476-17.88477a8.003,8.003,0,0,0-11.31446,0L344.458,156.22754a83.60565,83.60565,0,0,1-29.958,19.291,94.96347,94.96347,0,0,0-50.75586,44.75684l14.16016,7.44922A78.98573,78.98573,0,0,1,320.11816,190.499q1.30884-.49071,2.59815-1.01611A123.53479,123.53479,0,0,0,312,240h16a107.06124,107.06124,0,0,1,22.042-65.363,115.80035,115.80035,0,0,0,10.80274,68.94116l14.31054-7.15624a99.81671,99.81671,0,0,1-8.166-65.56641A134.96212,134.96212,0,0,0,409,228.64453l2.001,1.60156,9.998-12.49218-2.00293-1.60254a119.0227,119.0227,0,0,1-34.386-44.48682A99.39153,99.39153,0,0,0,415.88184,190.499,78.63871,78.63871,0,0,1,453.7627,220.46Z"/><rect x="227.05573" y="343.99994" width="17.88854" height="16.00011" transform="translate(-184.38371 405.64268) rotate(-63.43182)"/><rect x="259.05573" y="343.99994" width="17.88854" height="16.00011" transform="translate(-166.69611 434.26357) rotate(-63.43182)"/><rect x="227.05573" y="407.99994" width="17.88854" height="16.00011" transform="translate(-241.62549 441.01789) rotate(-63.43182)"/><rect x="259.05573" y="407.99994" width="17.88854" height="16.00011" transform="translate(-223.93496 469.66563) rotate(-63.43495)"/></g></svg>
