<?xml version="1.0" encoding="iso-8859-1"?>
<!-- Generator: Adobe Illustrator 19.0.0, SVG Export Plug-In . SVG Version: 6.00 Build 0)  -->
<svg version="1.1" id="Capa_1" xmlns="http://www.w3.org/2000/svg" xmlns:xlink="http://www.w3.org/1999/xlink" x="0px" y="0px"
	 viewBox="0 0 512.001 512.001" style="enable-background:new 0 0 512.001 512.001;" xml:space="preserve">
<path style="fill:#FFCF65;" d="M90.368,185.913l4.496,58.442L46.329,176.08L7.5,175.92v-48.05c0-5.361,4.346-9.707,9.707-9.707l0,0
	C55.549,118.164,87.427,147.684,90.368,185.913z"/>
<path style="fill:#FF9744;" d="M366.66,267.924L319.912,235.2c-31.539-22.077-50.322-58.153-50.322-96.651l0,0
	c0-3.251,3.134-5.583,6.248-4.649l90.822,27.247L366.66,267.924L366.66,267.924z"/>
<path style="fill:#FFB450;" d="M504.5,187.566v26.694c0,14.475-11.734,26.209-26.209,26.209c-2.681,0-4.854-2.173-4.854-4.854
	v-48.05H504.5V187.566z M94.032,136.536c-3.791-3.791-9.937-3.791-13.728,0l-33.976,33.976l27.343,27.568l-13.958,82.597
	l38.146-44.504C122.812,207.062,121.144,163.647,94.032,136.536L94.032,136.536z M269.59,80.307L269.59,80.307
	c0,38.498,18.783,74.574,50.322,96.652l46.748,32.724V102.905l-90.822-27.247C272.724,74.724,269.59,77.056,269.59,80.307z"/>
<path style="fill:#FF9744;" d="M133.691,201.642L133.691,201.642c0,38.342-29.52,70.22-67.749,73.161l-0.2,0.015v-36.923
	l10.033-7.132l0.159-38.828h48.05C129.345,191.935,133.691,196.281,133.691,201.642z"/>
<path style="fill:#C83741;" d="M392.927,162.814v185.407c0,42.377-34.682,76.806-77.152,76.395
	c-42.059-0.408-75.644-35.308-75.644-77.369v-40.086c0-12.261-9.872-22.26-22.084-22.467c-12.569-0.213-22.856,10.407-22.856,22.978
	v39.576c0,42.061-33.585,76.961-75.644,77.369c-42.47,0.412-77.152-34.018-77.152-76.395V225.729
	c0-21.953-13.728-41.415-34.293-48.825c-0.582-0.21-0.793-0.92-0.406-1.403l0,0c10.647-13.285,38.083-16.22,52.007-6.423
	c27.65,19.455,36.62,51.432,36.62,86.533v92.611c0,12.261,9.871,22.26,22.084,22.467c12.569,0.213,22.856-10.407,22.856-22.978
	v-40.55c0-42.377,34.682-76.806,77.152-76.394c42.059,0.408,75.644,35.308,75.644,77.369v40.086c0,12.261,9.871,22.26,22.084,22.467
	c12.569,0.213,22.856-10.407,22.856-22.978V162.814H392.927z"/>
<path style="fill:#FF4B4B;" d="M428.899,146.86L428.899,146.86c0,6.296,4.456,11.71,10.634,12.922l49.288,9.664
	c9.109,1.786,15.679,9.769,15.679,19.051v13.144l-127.231-6.772c-30.92-1.646-55.147-27.197-55.147-58.16v-90.38l83.585,45.592
	c15.218,8.301,32.276,12.65,49.611,12.65l0,0c4.589,0,8.32-3.674,8.411-8.242c0.094-4.713,3.699-8.584,8.413-8.584h9.385
	c12.688,0,22.973,10.286,22.973,22.973l0,0c0,12.688-10.286,22.973-22.973,22.973h-39.459
	C434.795,133.692,428.899,139.588,428.899,146.86z M183.975,389.919c-12.167-12.167-32.289-10.737-42.613,3.028l-18.667,24.89
	c-7.116,9.487-6.172,22.763,2.213,31.149l0,0c8.386,8.386,21.661,9.329,31.149,2.214l24.89-18.667
	C194.711,422.208,196.142,402.086,183.975,389.919L183.975,389.919z M387.822,389.919c-12.167-12.167-32.289-10.737-42.613,3.028
	l-18.667,24.89c-7.116,9.487-6.172,22.763,2.213,31.149l0,0c8.386,8.386,21.661,9.329,31.149,2.214l24.89-18.667
	C398.559,422.208,399.989,402.086,387.822,389.919L387.822,389.919z"/>
<path style="fill:#963737;" d="M415.195,94.864L415.195,94.864c0,10.722-8.692,19.414-19.414,19.414
	c-6.957,0-13.041-3.671-16.469-9.17l-35.586-6.691c-7.973-1.499-15.288-4.933-21.604-9.823V61.355
	c6.315,4.889,13.632,8.319,21.604,9.818l32.642,6.137v-1.86h19.414C406.503,75.45,415.195,84.142,415.195,94.864z"/>
<path style="fill:#FFB450;" d="M415.195,92.988l-71.47-13.437c-25.976-4.884-45.015-30.237-45.015-59.945v-6.625
	c0-3.737,3.246-6.376,6.388-5.194l73.26,27.548C400.358,43.606,415.195,66.83,415.195,92.988L415.195,92.988z"/>
<path style="fill:#FFCF65;" d="M379.198,105.057l-71.47-11.912c-25.976-4.329-45.015-26.804-45.015-53.138v-5.873
	c0-3.313,3.246-5.652,6.388-4.604l73.26,24.42C364.361,61.283,379.198,81.869,379.198,105.057L379.198,105.057z"/>
<path d="M490.265,162.092l-49.289-9.664c-2.651-0.52-4.576-2.859-4.576-5.561c0-3.125,2.543-5.668,5.668-5.668h39.459
	c1.296,0,2.571-0.091,3.825-0.249v2.456c0,4.142,3.357,7.5,7.5,7.5s7.5-3.358,7.5-7.5v-8.744
	c7.086-5.585,11.648-14.235,11.648-23.936c0-16.803-13.671-30.473-30.474-30.473h-9.385c-0.383,0-0.758,0.03-1.134,0.057
	c-1.116-12.689-6.586-24.474-15.703-33.591l-1.664-1.664c-7.437-7.436-11.531-17.323-11.531-27.838c0-4.142-3.357-7.5-7.5-7.5
	s-7.5,3.358-7.5,7.5c0,14.522,5.655,28.175,15.926,38.446l1.664,1.664c7.437,7.436,11.531,17.323,11.531,27.838v9.707
	c0,0.255,0.013,0.507,0.038,0.755c-0.01,0.188-0.034,0.372-0.038,0.562c-0.01,0.491-0.42,0.89-0.913,0.89
	c-11.198,0-22.161-1.943-32.652-5.739c-0.618-28.623-17.199-53.816-41.667-63.017l-73.26-27.549
	c-3.702-1.392-7.704-0.889-10.979,1.379c-3.475,2.406-5.549,6.456-5.549,10.835v6.625c0,3.381,0.229,6.746,0.672,10.07l-23.24-7.746
	c-3.759-1.252-7.918-0.618-11.131,1.699c-3.211,2.315-5.129,6.061-5.129,10.021v5.872c0,13.044,4.05,25.21,11.048,35.218
	c-0.86,1.695-1.341,3.594-1.341,5.567c0,16.096,3.11,31.802,8.909,46.37c-1.391,0.406-2.72,1.06-3.929,1.96
	c-3.164,2.354-4.979,5.967-4.979,9.912c0,40.908,20.008,79.335,53.521,102.794l15.888,11.121v95.243
	c0,4.157-1.722,8.234-4.724,11.185c-2.883,2.834-6.62,4.359-10.505,4.293c-8.111-0.137-14.711-6.851-14.711-14.968v-40.086
	c0-46.351-37.266-84.422-83.072-84.867c-0.279-0.003-0.556-0.004-0.834-0.004c-22.228,0-43.152,8.615-59.001,24.309
	c-16.05,15.895-24.889,37.057-24.889,59.588v40.549c0,4.156-1.722,8.233-4.724,11.185c-2.883,2.834-6.629,4.36-10.506,4.293
	c-8.111-0.137-14.711-6.851-14.711-14.968v-78.401c23.094-14.771,37.368-40.713,37.368-68.176c0-9.488-7.719-17.207-17.207-17.207
	h-1.089c-1.006-19.92-9.39-39.033-23.559-53.201c-6.709-6.708-17.624-6.709-24.335,0l-1.888,1.888
	c-14.988-14.32-35.089-22.457-55.906-22.457C7.719,110.67,0,118.389,0,127.877v48.049c0,0.079,0.009,0.156,0.012,0.234
	c0.008,0.73,0.102,1.462,0.304,2.178c0.734,2.605,2.696,4.709,5.244,5.626c17.547,6.323,29.336,23.109,29.336,41.769v122.49
	c0,22.101,8.551,42.974,24.078,58.774c13.917,14.162,32.008,22.774,51.507,24.692c-0.073,5.706,1.396,11.409,4.346,16.418
	l-15.902,18.174c-1.318,1.507-1.979,3.478-1.836,5.475s1.079,3.854,2.6,5.157l23.435,20.088h-8.847c-4.143,0-7.5,3.358-7.5,7.5
	s3.357,7.5,7.5,7.5h30.272c4.774,0,9.556-1.128,13.826-3.264l3.828-1.914c6.138-3.067,13.52-1.869,18.369,2.981
	c1.465,1.464,3.384,2.197,5.304,2.197c1.919,0,3.839-0.732,5.303-2.196c2.93-2.929,2.93-7.678,0.001-10.607
	c-9.424-9.423-23.764-11.751-35.686-5.791l-3.828,1.914c-1.745,0.872-3.656,1.403-5.598,1.591l-30.865-26.455l10.178-11.632
	c4.987,3.041,10.69,4.594,16.415,4.594c6.587,0,13.199-2.048,18.76-6.218l24.89-18.667c8.302-6.226,13.484-15.733,14.22-26.084
	c0.626-8.814-2.036-17.472-7.369-24.381c6.798-12.483,10.394-26.557,10.394-40.819v-39.575c0-4.157,1.722-8.234,4.724-11.185
	c2.883-2.833,6.62-4.364,10.505-4.293c8.111,0.137,14.711,6.851,14.711,14.968v40.086c0,45.886,36.526,83.633,81.7,84.818
	c-0.005,5.58,1.458,11.141,4.344,16.04l-15.902,18.173c-1.318,1.507-1.979,3.479-1.836,5.476s1.079,3.854,2.6,5.157l23.435,20.086
	h-8.847c-4.143,0-7.5,3.358-7.5,7.5s3.357,7.5,7.5,7.5h30.272c4.774,0,9.556-1.128,13.826-3.264l3.828-1.914
	c6.138-3.067,13.521-1.869,18.369,2.981c1.465,1.464,3.384,2.197,5.304,2.197c1.919,0,3.839-0.732,5.303-2.196
	c2.93-2.929,2.93-7.678,0.001-10.607c-9.424-9.423-23.763-11.751-35.686-5.791l-3.828,1.914c-1.745,0.872-3.656,1.403-5.598,1.591
	l-30.865-26.455l10.178-11.632c4.987,3.041,10.69,4.594,16.415,4.594c6.587,0,13.199-2.048,18.76-6.218l24.89-18.667
	c8.302-6.226,13.484-15.733,14.22-26.084c0.735-10.35-3.051-20.495-10.389-27.832c-0.229-0.229-0.469-0.444-0.703-0.666
	c5.241-11.115,8.005-23.383,8.005-35.728V203.618l65.511,3.487v28.516c0,6.811,5.542,12.353,12.354,12.353
	c18.587,0,33.709-15.121,33.709-33.708v-12.619v-1.944v-11.2C512,175.669,502.859,164.562,490.265,162.092z M471.227,96.488
	c0.01-0.478,0.267-1.235,0.915-1.235h9.385c8.532,0,15.474,6.941,15.474,15.473s-6.941,15.473-15.474,15.473h-39.459
	c-11.396,0-20.668,9.271-20.668,20.668c0,9.856,7.02,18.385,16.69,20.281l49.288,9.664c5.575,1.093,9.622,6.01,9.622,11.691v5.234
	l-119.333-6.351c-26.941-1.434-48.045-23.691-48.045-50.67v-32.325l45.377,7.563c4.94,5.999,12.422,9.831,20.782,9.831
	c10.559,0,19.961-6.218,24.328-15.439c11.353,3.801,23.166,5.732,35.208,5.732C463.919,112.078,471.056,105.083,471.227,96.488z
	 M277.443,89.052c7.54,5.515,16.434,9.381,26.221,11.013l10.958,1.826v34.825c0,12.441,3.478,24.098,9.514,34.048
	C297.075,151.787,280.04,121.715,277.443,89.052z M383.867,94.735l23.062,4.336c-1.719,4.562-6.14,7.714-11.147,7.714
	c-6.569,0-11.914-5.345-11.914-11.914v-0.136H383.867z M308.168,34.942c-1.299-4.959-1.957-10.116-1.957-15.328v-3.389
	l69.509,26.137c16.546,6.222,28.395,22.289,31.29,41.462l-27.604-5.19c-0.482-0.214-0.988-0.383-1.517-0.492
	c-7.017-14.711-19.781-26.384-35.986-31.785l-33.697-11.232C308.192,35.064,308.184,35.003,308.168,34.942z M267.383,37.329
	l69.776,23.259c16.058,5.352,27.654,18.846,30.833,34.991l-61.861-10.31c-22.452-3.742-38.748-22.978-38.748-45.739V37.329z
	 M324.213,229.061c-28.529-19.97-45.942-52.259-47.065-86.932l1.512,0.454c9.062,15.852,21.581,29.766,36.952,40.525l15.888,11.121
	v39.932L324.213,229.061z M126.191,201.647c0,19.324-8.217,37.145-22.421,49.536c-0.441-19.911-3.879-37.187-10.269-51.743h30.482
	C125.201,199.44,126.191,200.43,126.191,201.647z M87.169,141.199c0.416,0,1.025,0.112,1.561,0.646
	c11.546,11.546,18.222,26.499,19.163,42.595H86.127c-0.293,0-0.582,0.021-0.866,0.054c-5.691-8.341-12.681-15.465-20.962-21.34
	l21.31-21.309C86.143,141.311,86.752,141.199,87.169,141.199z M17.207,125.67c16.844,0,33.11,6.546,45.295,18.068l-13.154,13.153
	c-11.245-2.308-24.1-0.796-34.348,4.004v-33.018C15,126.66,15.99,125.67,17.207,125.67z M184.704,411.386
	c-0.428,6.011-3.438,11.532-8.258,15.147l-24.89,18.667c-6.46,4.845-15.636,4.193-21.345-1.517
	c-5.71-5.709-6.362-14.885-1.518-21.345l18.667-24.889c3.615-4.821,9.137-7.83,15.147-8.258c0.493-0.035,0.985-0.052,1.477-0.052
	c5.489,0,10.774,2.173,14.686,6.084C182.932,399.485,185.131,405.376,184.704,411.386z M388.552,411.386
	c-0.428,6.011-3.438,11.532-8.258,15.147l-24.89,18.667c-6.46,4.845-15.637,4.193-21.345-1.517
	c-5.71-5.709-6.362-14.885-1.518-21.345l18.667-24.889c3.615-4.821,9.137-7.83,15.147-8.258c0.493-0.035,0.985-0.052,1.477-0.052
	c5.489,0,10.774,2.173,14.686,6.084C386.779,399.485,388.979,405.376,388.552,411.386z M385.427,223.268H366.66
	c-4.143,0-7.5,3.358-7.5,7.5s3.357,7.5,7.5,7.5h18.767v23.828H366.66c-4.143,0-7.5,3.358-7.5,7.5s3.357,7.5,7.5,7.5h18.767v23.828
	H366.66c-4.143,0-7.5,3.358-7.5,7.5s3.357,7.5,7.5,7.5h18.767v23.828H366.66c-4.143,0-7.5,3.358-7.5,7.5s3.357,7.5,7.5,7.5h18.451
	c-0.705,7.376-2.601,14.614-5.594,21.366c-4.516-1.561-9.346-2.231-14.224-1.886c-10.351,0.736-19.858,5.919-26.084,14.22
	l-18.667,24.889c-0.903,1.204-1.703,2.458-2.408,3.749c-0.762,0.018-1.524,0.037-2.286,0.03c-8.732-0.085-17.077-1.857-24.757-4.978
	l11.052-11.053c2.929-2.929,2.929-7.678,0-10.606c-2.93-2.929-7.678-2.929-10.607,0l-14.166,14.166
	c-10.73-7.568-19.266-18.137-24.39-30.483h16.609c4.143,0,7.5-3.358,7.5-7.5s-3.357-7.5-7.5-7.5h-20.928
	c-0.665-3.877-1.031-7.853-1.031-11.914v-11.914h21.959c4.143,0,7.5-3.358,7.5-7.5s-3.357-7.5-7.5-7.5H247.63v-13.172
	c0-1.011-0.052-2.011-0.151-2.997c0.054-0.051,0.111-0.095,0.164-0.148l17.543-17.543c2.929-2.929,2.929-7.678,0-10.606
	c-2.93-2.929-7.678-2.929-10.607,0l-13.144,13.144c-3.941-5.139-9.494-8.992-15.889-10.754v-18.371c0-4.142-3.357-7.5-7.5-7.5
	s-7.5,3.358-7.5,7.5v18.183c-5.075,1.272-9.763,3.902-13.648,7.723c-1.235,1.214-2.351,2.532-3.355,3.925l-13.849-13.849
	c-2.929-2.929-7.677-2.93-10.607,0c-2.929,2.929-2.929,7.677,0,10.606l17.543,17.543c0.37,0.37,0.769,0.692,1.19,0.969
	c-0.08,0.892-0.128,1.788-0.128,2.687v12.661h-20.568c-4.143,0-7.5,3.358-7.5,7.5s3.357,7.5,7.5,7.5h20.568v11.914
	c0,10.744-2.47,21.358-7.168,30.957c-5.811-3.031-12.403-4.45-19.078-3.977c-10.351,0.736-19.858,5.919-26.084,14.22l-18.667,24.889
	c-0.875,1.167-1.657,2.382-2.346,3.632c-13.464-0.871-25.904-5.689-36.198-13.28l12.31-12.31c2.929-2.929,2.929-7.678,0-10.606
	c-2.93-2.929-7.678-2.929-10.607,0l-12.768,12.763c-7.228-8.23-12.537-18.167-15.218-29.084h19.27c4.143,0,7.5-3.358,7.5-7.5
	s-3.357-7.5-7.5-7.5H49.927c-0.007-0.412-0.031-0.82-0.031-1.233v-22.595h21.243c4.143,0,7.5-3.358,7.5-7.5s-3.357-7.5-7.5-7.5
	H49.896v-23.828h21.243c4.143,0,7.5-3.358,7.5-7.5s-3.357-7.5-7.5-7.5H49.896v-23.828h21.243c4.143,0,7.5-3.358,7.5-7.5
	s-3.357-7.5-7.5-7.5H49.896v-7.24c0-5.707-0.831-11.28-2.383-16.588h8.523c4.143,0,7.5-3.358,7.5-7.5s-3.357-7.5-7.5-7.5H40.932
	c-0.057,0-0.113,0.007-0.169,0.009c-4.966-7.9-11.763-14.623-19.923-19.484c10.345-5.056,26.122-5.382,34.549,0.545
	c22.499,15.83,33.436,42.129,33.436,80.398v92.609c0,16.248,13.215,29.69,29.457,29.965c0.168,0.003,0.336,0.004,0.503,0.004
	c7.762,0,15.121-3.042,20.773-8.599c5.851-5.753,9.207-13.728,9.207-21.88v-40.549c0-18.497,7.261-35.874,20.444-48.93
	c13.018-12.892,30.199-19.967,48.449-19.967c0.228,0,0.457,0.001,0.685,0.003c37.615,0.365,68.218,31.708,68.218,69.868v40.086
	c0,16.248,13.215,29.69,29.457,29.965c0.168,0.003,0.336,0.004,0.503,0.004c7.761,0,15.12-3.042,20.772-8.599
	c5.851-5.753,9.207-13.729,9.207-21.881V193.065c8.936,5.379,19.268,8.708,30.371,9.299l8.557,0.456v20.448H385.427z
	 M480.938,232.788v-24.885L497,208.758v5.508C497,223.684,490.006,231.499,480.938,232.788z"/>
<g>
</g>
<g>
</g>
<g>
</g>
<g>
</g>
<g>
</g>
<g>
</g>
<g>
</g>
<g>
</g>
<g>
</g>
<g>
</g>
<g>
</g>
<g>
</g>
<g>
</g>
<g>
</g>
<g>
</g>
</svg>
