<?xml version="1.0" encoding="iso-8859-1"?>
<!-- Generator: Adobe Illustrator 19.0.0, SVG Export Plug-In . SVG Version: 6.00 Build 0)  -->
<svg version="1.1" id="Capa_1" xmlns="http://www.w3.org/2000/svg" xmlns:xlink="http://www.w3.org/1999/xlink" x="0px" y="0px"
	 viewBox="0 0 512 512" style="enable-background:new 0 0 512 512;" xml:space="preserve">
<path style="fill:#C1C2C4;" d="M202.161,361.807V22.061c0-2.681,2.152-4.854,4.807-4.854h98.065c2.655,0,4.807,2.173,4.807,4.854
	v339.746c0,2.681-2.152,4.854-4.807,4.854h-98.065C204.313,366.66,202.161,364.487,202.161,361.807z M343.489,455.965H168.511
	c-2.655,0-4.807,2.173-4.807,4.854v14.561c0,16.083,12.913,29.121,28.843,29.121h126.907c15.929,0,28.843-13.038,28.843-29.121
	v-14.561C348.296,458.138,346.144,455.965,343.489,455.965z"/>
<path style="fill:#B2B1B0;" d="M305.032,366.66h-19.228c-2.655,0-4.807-2.173-4.807-4.854V22.061c0-2.681,2.152-4.854,4.807-4.854
	h19.228c2.655,0,4.807,2.173,4.807,4.854v339.746C309.839,364.487,307.687,366.66,305.032,366.66z M343.489,455.965h-30.765
	c2.655,0,4.807,2.173,4.807,4.854v14.561c0,16.083-12.913,29.121-28.843,29.121h30.765c15.929,0,28.843-13.038,28.843-29.121
	v-14.561C348.296,458.138,346.144,455.965,343.489,455.965z"/>
<path style="fill:#EDEDEE;" d="M446.189,266.491l-40.142,148.737c-9.12,33.793-39.517,57.24-74.208,57.24H180.161
	c-34.69,0-65.087-23.447-74.208-57.24L65.811,266.491c-23.33-86.444,41.125-171.627,129.863-171.627h120.651
	C405.064,94.863,469.519,180.047,446.189,266.491z M202.161,46.328H309.84c10.619,0,19.228-8.692,19.228-19.414l0,0
	c0-10.722-8.609-19.414-19.228-19.414H202.161c-10.619,0-19.228,8.692-19.228,19.414l0,0
	C182.932,37.636,191.541,46.328,202.161,46.328z"/>
<path style="fill:#DCDBDE;" d="M446.189,266.491l-40.142,148.737c-9.12,33.793-39.517,57.24-74.208,57.24H180.161
	c-4.382,0-8.694-0.377-12.904-1.098c113.876-10.179,210.837-90.874,241.34-203.897l0.265-0.981
	c23.33-86.444-41.125-171.627-129.863-171.627h37.327C405.064,94.863,469.519,180.047,446.189,266.491z M282.439,46.328h27.4
	c10.619,0,19.228-8.692,19.228-19.414S320.459,7.5,309.839,7.5h-27.4c10.619,0,19.228,8.692,19.228,19.414
	S293.058,46.328,282.439,46.328z"/>
<path style="fill:#C1C2C4;" d="M256,143.398c53.643,0,106.82-2.237,157.611-6.564c7.796,8.251,14.555,17.466,20.101,27.408
	c-56.895,5.445-117.024,8.278-177.711,8.278s-120.817-2.833-177.711-8.278c5.546-9.942,12.305-19.156,20.1-27.408
	C149.18,141.162,202.357,143.398,256,143.398z"/>
<path style="fill:#B2B1B0;" d="M433.711,164.242c-11.762,1.126-23.669,2.133-35.684,3.033
	c-5.281-10.052-11.785-19.405-19.337-27.826c11.746-0.765,23.397-1.633,34.92-2.615C421.407,145.086,428.165,154.3,433.711,164.242z
	"/>
<g>
	<path style="fill:#7DB764;" d="M201.543,274.443h-20.602H170.64c-5.689,0-10.301-4.656-10.301-10.4v-6.934
		c0-5.744,4.612-10.4,10.301-10.4s10.301-4.656,10.301-10.4l0,0c0-5.744,4.612-10.4,10.301-10.4h6.867
		c5.689,0,10.301,4.656,10.301,10.4v38.135h-6.867V274.443z"/>
	<path style="fill:#7DB764;" d="M226.951,364.072H216.65h-20.602h-6.867v38.135c0,5.744,4.612,10.4,10.301,10.4h6.867
		c5.689,0,10.301-4.656,10.301-10.4s4.612-10.4,10.301-10.4s10.301-4.656,10.301-10.4v-6.934
		C237.252,368.728,232.641,364.072,226.951,364.072z"/>
</g>
<path style="fill:#FF4B4B;" d="M405.02,299.401h-10.432v14.704l-3.157,3.188c-7.509,7.582-19.684,7.582-27.193,0l-54.386-54.911
	c-7.509-7.581-7.509-19.874,0-27.456l3.157-3.188h14.563v-10.532c18.199-8.91,40.403-6.67,56.577,6.739v14.333h14.196
	C411.626,258.607,413.844,281.025,405.02,299.401z M272.209,212.642l-19.935,1.649c-10.485,0.867-18.558,9.712-18.558,20.335l0,0
	c0,11.268,9.047,20.403,20.208,20.403l0,0c10.521,0,19.281-8.15,20.14-18.737l1.634-20.128
	C275.861,214.155,274.2,212.477,272.209,212.642z"/>
<path d="M428.737,143.062c-26.9-35.127-67.458-55.376-111.402-55.684V52.704c11.105-3.316,19.226-13.62,19.226-25.79
	C336.562,12.073,324.489,0,309.649,0H202.35c-14.839,0-26.912,12.073-26.912,26.914c0,12.17,8.121,22.474,19.227,25.79v34.674
	c-38.899,0.272-75.136,16.178-101.604,44.19c-0.027,0.027-0.052,0.055-0.078,0.083c-3.405,3.609-6.656,7.408-9.721,11.41
	c-27.497,35.904-36.491,81.604-24.677,125.383L98.724,417.18c7.808,28.934,30.021,51.034,57.515,59.275
	C156.808,496.152,172.872,512,192.551,512h126.897c19.679,0,35.744-15.848,36.313-35.544c27.494-8.241,49.707-30.342,57.515-59.275
	l40.139-148.736C465.23,224.666,456.234,178.966,428.737,143.062z M95.17,152.182c2.009-2.624,4.112-5.146,6.286-7.581
	c50.198,4.169,102.162,6.298,154.545,6.298c22.52,0,45.29-0.398,67.675-1.186c4.139-0.146,7.376-3.619,7.231-7.759
	c-0.145-4.14-3.606-7.379-7.758-7.231c-22.21,0.78-44.802,1.176-67.147,1.176c-47.372,0-94.395-1.752-140.053-5.191
	c22.321-18.25,50.193-28.344,79.732-28.344h120.642c29.539,0,57.411,10.095,79.733,28.345c-13.495,1.015-27.18,1.897-40.887,2.615
	c-4.135,0.216-7.313,3.745-7.096,7.882c0.209,4.003,3.52,7.107,7.482,7.107c0.133,0,0.266-0.003,0.399-0.011
	c18.373-0.961,36.708-2.211,54.597-3.697c2.173,2.434,4.273,4.954,6.281,7.576c1.432,1.87,2.802,3.772,4.122,5.7
	c-53.464,4.736-108.89,7.139-164.954,7.139s-111.49-2.402-164.952-7.138C92.368,155.954,93.738,154.052,95.17,152.182z
	 M302.337,53.828v33.535h-92.672V53.828H302.337z M190.437,26.914c0-6.569,5.344-11.914,11.913-11.914h107.299
	c6.569,0,11.913,5.345,11.913,11.914s-5.344,11.914-11.913,11.914H202.35C195.781,38.828,190.437,33.483,190.437,26.914z
	 M319.449,497H192.551c-10.373,0-19.037-7.539-20.946-17.491c2.824,0.292,5.677,0.458,8.561,0.458h151.667
	c2.884,0,5.737-0.167,8.561-0.458C338.486,489.461,329.822,497,319.449,497z M438.934,264.536l-40.139,148.736
	c-8.213,30.437-35.749,51.694-66.962,51.694H180.166c-15.196,0-29.513-5.05-41.161-13.734v-52.069l22.806-20.15h19.876v30.635
	c0,9.87,7.985,17.9,17.799,17.9h6.867c9.815,0,17.799-8.03,17.799-17.9c0-1.6,1.257-2.9,2.801-2.9c9.815,0,17.799-8.03,17.799-17.9
	v-6.934c0-9.87-7.985-17.9-17.799-17.9h-37.767c-0.167,0-0.331,0.014-0.495,0.025c-0.165-0.011-0.328-0.025-0.495-0.025h-9.407
	l32.463-28.682h81.073c1.829,0,3.594-0.668,4.965-1.879l38.608-34.11l23.003,23.227c5.05,5.101,11.772,7.909,18.924,7.909
	s13.873-2.809,18.922-7.908l3.158-3.188c1.392-1.404,2.172-3.301,2.172-5.278V306.9h2.931c2.884,0,5.512-1.653,6.76-4.253
	c10.222-21.288,7.233-46.842-7.617-65.103c-1.424-1.751-3.561-2.768-5.818-2.768h-6.696v-6.833c0-2.232-0.994-4.349-2.713-5.773
	c-18.132-15.034-43.511-18.054-64.657-7.702c-2.571,1.26-4.202,3.873-4.202,6.736v3.032h-7.062c-2.002,0-3.92,0.8-5.328,2.222
	l-3.159,3.189c-10.378,10.479-10.378,27.53,0,38.01l20.807,21.009l-35.839,31.665H215.91v-37.939l23.738-23.861
	c4.172,2.536,9.056,3.998,14.274,3.998c14.318,0,26.447-11.258,27.614-25.63l1.634-20.128c0.257-3.164-0.883-6.265-3.127-8.504
	c-2.234-2.23-5.314-3.358-8.455-3.1l-19.934,1.648c-14.264,1.182-25.437,13.396-25.437,27.81c0,4.672,1.152,9.075,3.175,12.948
	l-13.481,13.551v-24.816c0-9.87-7.985-17.9-17.799-17.9h-6.867c-9.815,0-17.799,8.03-17.799,17.9c0,1.6-1.257,2.9-2.801,2.9
	c-9.815,0-17.799,8.03-17.799,17.9v6.934c0,9.87,7.985,17.9,17.799,17.9h30.268v42.506l-52.295,46.204v-76.796
	c0-1.977-0.78-3.873-2.171-5.277l-17.055-17.223v-35.742c0-4.143-3.358-7.5-7.499-7.5s-7.499,3.357-7.499,7.5v38.828
	c0,1.977,0.78,3.873,2.171,5.277l17.055,17.223v27.219l-25.626-25.875c-2.914-2.945-7.663-2.967-10.606-0.052
	s-2.966,7.664-0.051,10.606l36.282,36.636v38.428l-7.079,6.254c-0.056,0.049-0.104,0.104-0.158,0.155
	c-0.095,0.089-0.19,0.18-0.28,0.274c-0.086,0.09-0.168,0.181-0.249,0.274c-0.078,0.09-0.154,0.18-0.228,0.273
	c-0.081,0.102-0.158,0.206-0.233,0.312c-0.065,0.092-0.129,0.185-0.19,0.28c-0.071,0.11-0.138,0.221-0.202,0.333
	c-0.057,0.1-0.112,0.202-0.165,0.305c-0.056,0.11-0.11,0.221-0.161,0.334c-0.051,0.112-0.098,0.226-0.144,0.341
	c-0.042,0.108-0.083,0.217-0.12,0.327c-0.041,0.122-0.08,0.245-0.115,0.369c-0.031,0.11-0.059,0.22-0.085,0.332
	c-0.029,0.125-0.056,0.25-0.079,0.377c-0.021,0.119-0.039,0.237-0.054,0.356c-0.016,0.12-0.03,0.24-0.04,0.362
	c-0.011,0.134-0.016,0.268-0.02,0.402c-0.002,0.072-0.011,0.141-0.011,0.213v40.205c-4.836-6.717-8.549-14.367-10.802-22.714
	L73.065,264.536c-8.499-31.495-4.974-64.092,9.487-92.369c56.111,5.206,114.431,7.852,173.447,7.852
	c59.015,0,117.336-2.646,173.447-7.852C443.908,200.444,447.433,233.041,438.934,264.536z M196.686,409.648v-30.635h30.268
	c1.544,0,2.801,1.301,2.801,2.9v6.934c0,1.6-1.256,2.9-2.801,2.9c-9.815,0-17.8,8.03-17.8,17.9c0,1.6-1.256,2.9-2.801,2.9h-6.867
	C197.942,412.549,196.686,411.248,196.686,409.648z M200.914,266.943h-30.268c-1.544,0-2.801-1.301-2.801-2.9v-6.934
	c0-1.6,1.256-2.9,2.801-2.9c9.815,0,17.8-8.03,17.8-17.9c0-1.6,1.256-2.9,2.801-2.9h6.867c1.544,0,2.801,1.301,2.801,2.9
	L200.914,266.943L200.914,266.943z M323.16,239.237l7.339,13.085c1.375,2.452,3.923,3.832,6.547,3.832
	c1.242,0,2.502-0.309,3.662-0.96c3.612-2.026,4.898-6.598,2.872-10.21l-8.513-15.179v-3.662c13.864-5.114,29.472-3.073,41.574,5.494
	v7.554l-17.739,17.912c-2.914,2.942-2.891,7.691,0.052,10.606c1.462,1.448,3.37,2.171,5.277,2.171c1.931,0,3.862-0.741,5.329-2.223
	l17.708-17.881h7.33c8.504,12.26,10.523,28.073,5.438,42.123h-3.518l-14.964-8.571c-3.593-2.061-8.177-0.814-10.235,2.78
	c-2.058,3.595-0.814,8.177,2.78,10.235l12.98,7.435v7.239l-0.987,0.996c-2.212,2.233-5.148,3.464-8.266,3.464
	c-3.119,0-6.055-1.23-8.267-3.464l-54.383-54.912c-4.615-4.658-4.615-12.239-0.001-16.898l0.958-0.967h7.027V239.237z
	 M241.217,234.626c0-6.669,5.129-12.318,11.675-12.86l14.926-1.234l-1.23,15.155c-0.539,6.641-6.101,11.843-12.664,11.843
	C246.918,247.529,241.217,241.741,241.217,234.626z M307.722,356.953c0,4.143-3.357,7.5-7.499,7.5h-0.962
	c-4.142,0-7.499-3.357-7.499-7.5s3.357-7.5,7.499-7.5h0.962C304.365,349.453,307.722,352.811,307.722,356.953z M288.495,356.953
	c0,4.143-3.357,7.5-7.499,7.5h-0.962c-4.142,0-7.499-3.357-7.499-7.5s3.357-7.5,7.499-7.5h0.962
	C285.138,349.453,288.495,352.811,288.495,356.953z M110.165,216.201c0,4.143-3.358,7.5-7.499,7.5h-0.961
	c-4.142,0-7.499-3.357-7.499-7.5s3.358-7.5,7.499-7.5h0.961C106.807,208.701,110.165,212.059,110.165,216.201z M432.697,225.908
	c0,4.143-3.357,7.5-7.499,7.5h-0.962c-4.142,0-7.499-3.357-7.499-7.5s3.357-7.5,7.499-7.5h0.962
	C429.34,218.408,432.697,221.766,432.697,225.908z"/>
<g>
</g>
<g>
</g>
<g>
</g>
<g>
</g>
<g>
</g>
<g>
</g>
<g>
</g>
<g>
</g>
<g>
</g>
<g>
</g>
<g>
</g>
<g>
</g>
<g>
</g>
<g>
</g>
<g>
</g>
</svg>
