<?xml version="1.0" encoding="iso-8859-1"?>
<!-- Generator: Adobe Illustrator 19.0.0, SVG Export Plug-In . SVG Version: 6.00 Build 0)  -->
<svg version="1.1" id="Capa_1" xmlns="http://www.w3.org/2000/svg" xmlns:xlink="http://www.w3.org/1999/xlink" x="0px" y="0px"
	 viewBox="0 0 511.999 511.999" style="enable-background:new 0 0 511.999 511.999;" xml:space="preserve">
<path style="fill:#736F7B;" d="M121.874,63.468l45.007,58.731l-75.503,75.344l-58.855-44.912C1.9,129.264-1.088,84.331,26.17,57.13
	l0,0C53.429,29.929,98.457,32.911,121.874,63.468z M485.83,57.13L485.83,57.13c-27.259-27.201-72.287-24.219-95.703,6.339
	L345.12,122.2l75.503,75.344l58.855-44.912C510.1,129.264,513.088,84.331,485.83,57.13z"/>
<path style="fill:#625D6B;" d="M121.874,63.468l45.007,58.731l-18.704,18.665L103.17,82.133
	C82.515,55.181,45.055,49.696,17.797,67.439c2.378-3.638,5.157-7.1,8.373-10.309l0,0C53.429,29.929,98.457,32.911,121.874,63.468z
	 M485.83,57.13L485.83,57.13c-3.644-3.636-7.612-6.715-11.797-9.279c16.65,27.064,10.878,63.486-15.65,83.73l-58.855,44.912
	l21.095,21.05l58.855-44.912C510.1,129.264,513.088,84.331,485.83,57.13z"/>
<path style="fill:#DCDBDE;" d="M364.5,444.439h-217c-77.32,0-140-62.68-140-140v-8.404c0-115.98,94.02-210,210-210h77
	c115.98,0,210,94.02,210,210v8.404C504.5,381.759,441.82,444.439,364.5,444.439z"/>
<path style="fill:#EDEDEE;" d="M333.438,444.439H147.5c-77.32,0-140-62.68-140-140v-8.404c0-115.98,94.02-210,210-210h45.938
	c115.98,0,210,94.02,210,210v8.404C473.438,381.759,410.757,444.439,333.438,444.439z"/>
<path style="fill:#736F7B;" d="M230.341,259.138l-14.316,57.143c-5.104,20.373-23.447,34.665-44.491,34.665h-19.916
	c-35.614,0-57.637-38.742-39.363-69.246l34.232-57.143c8.279-13.82,23.228-22.282,39.363-22.282l0,0
	C215.685,202.274,237.577,230.254,230.341,259.138z M399.747,281.7l-34.232-57.143c-8.279-13.82-23.228-22.282-39.363-22.282l0,0
	c-29.836,0-51.728,27.98-44.491,56.864l14.316,57.143c5.104,20.373,23.447,34.665,44.491,34.665h19.916
	C395.998,350.946,418.021,312.204,399.747,281.7z"/>
<path style="fill:#FFEBBE;" d="M203.513,250.707c0,10.699-8.692,19.373-19.414,19.373s-19.414-8.674-19.414-19.373
	c0-10.699,8.692-19.373,19.414-19.373C194.821,231.334,203.513,240.008,203.513,250.707z M327.901,231.334
	c-10.722,0-19.414,8.674-19.414,19.373s8.692,19.373,19.414,19.373c10.722,0,19.414-8.674,19.414-19.373
	C347.316,240.008,338.624,231.334,327.901,231.334z"/>
<path style="fill:#EDEDEE;" d="M324.982,309.407l26.643,89.407c11.104,37.261-16.87,74.686-55.826,74.686H216.2
	c-38.956,0-66.93-37.425-55.826-74.686l26.643-89.407c4.897-16.434,20.036-27.702,37.217-27.702h63.53
	C304.947,281.704,320.085,292.973,324.982,309.407z"/>
<path style="fill:#736F7B;" d="M281.563,363.879L256,376.633l-25.563-12.755c-8.13-4.056-13.265-12.348-13.265-21.418l0,0
	c0-13.225,10.744-23.947,23.997-23.947h29.662c13.253,0,23.997,10.721,23.997,23.947l0,0
	C294.828,351.53,289.693,359.822,281.563,363.879z"/>
<path d="M472.886,167.096l11.141-8.502c16.319-12.453,26.458-31.329,27.815-51.788c1.357-20.451-6.193-40.493-20.715-54.984
	c-14.523-14.493-34.604-22.03-55.098-20.664c-20.483,1.359-39.385,11.474-51.857,27.75l-22.017,28.731
	c-19.837-6.006-40.574-9.104-61.503-9.104h-89.305c-21.381,0-42.027,3.197-61.494,9.116l-22.027-28.744
	c-12.473-16.276-31.374-26.391-51.857-27.75c-20.483-1.364-40.572,6.171-55.098,20.664C6.351,66.312-1.2,86.354,0.157,106.806
	c1.357,20.459,11.496,39.335,27.815,51.788l11.257,8.59C14.541,201.696,0,243.911,0,289.453v19.374
	c0,78.912,64.328,143.112,143.398,143.112h18.213c0.594,0.88,1.205,1.752,1.844,2.61c12.531,16.809,31.756,26.45,52.745,26.45
	h12.613c4.143,0,7.5-3.357,7.5-7.5s-3.357-7.5-7.5-7.5H216.2c-16.206,0-31.047-7.44-40.718-20.414
	c-9.635-12.924-12.521-29.19-7.921-44.63l26.644-89.407c3.921-13.155,16.27-22.344,30.03-22.344h63.529
	c13.761,0,26.109,9.188,30.03,22.344l26.644,89.407c4.601,15.439,1.714,31.706-7.921,44.63
	c-9.67,12.974-24.511,20.414-40.717,20.414h-34.63c-4.143,0-7.5,3.357-7.5,7.5s3.357,7.5,7.5,7.5h34.63
	c20.989,0,40.214-9.641,52.744-26.449c0.64-0.858,1.25-1.73,1.844-2.61h18.213c79.07,0,143.398-64.2,143.398-143.112v-19.374
	C512,244.862,498.14,202.386,472.886,167.096z M37.072,146.67c-12.877-9.827-20.877-24.719-21.948-40.857
	c-1.07-16.131,4.887-31.94,16.344-43.374c11.467-11.442,27.34-17.388,43.508-16.314c16.176,1.074,31.1,9.059,40.945,21.906
	l18.992,24.784c-33.959,13.192-63.69,34.896-86.533,62.484L37.072,146.67z M179.83,307.265l-10.782,36.182h-17.432
	c-14.015,0-26.499-7.266-33.396-19.437c-6.87-12.124-6.696-26.5,0.466-38.455l34.232-57.144
	c6.887-11.496,19.505-18.637,32.93-18.637c11.918,0,22.951,5.38,30.272,14.762c7.291,9.344,9.822,21.291,6.944,32.779l-4.315,17.223
	C200.677,276.726,185.104,289.567,179.83,307.265z M293.25,274.538l-4.315-17.223c-2.878-11.488-0.347-23.436,6.944-32.779
	c7.321-9.382,18.354-14.762,30.272-14.762c13.425,0,26.043,7.141,32.93,18.637l34.232,57.144
	c7.162,11.955,7.336,26.331,0.466,38.455c-6.896,12.171-19.381,19.437-33.396,19.437h-17.432l-10.782-36.182
	C326.896,289.567,311.323,276.726,293.25,274.538z M497,308.827c0,70.642-57.6,128.112-128.398,128.112h-10.661
	c4.499-12.808,4.892-26.78,0.873-40.268l-11.391-38.226h12.962c19.488,0,36.852-10.109,46.446-27.042
	c9.568-16.886,9.325-36.907-0.649-53.559L371.95,220.7c-9.581-15.993-27.129-25.928-45.797-25.928
	c-16.57,0-31.914,7.484-42.098,20.533c-10.154,13.012-13.679,29.651-9.67,45.652l3.318,13.244h-43.404l3.318-13.244
	c4.009-16.001,0.484-32.641-9.67-45.652c-10.184-13.049-25.527-20.533-42.098-20.533c-18.668,0-36.216,9.935-45.797,25.928
	l-34.232,57.144c-9.975,16.651-10.218,36.673-0.649,53.559c9.595,16.933,26.958,27.042,46.446,27.042h12.962l-11.391,38.226
	c-4.019,13.488-3.626,27.46,0.873,40.268H143.4c-70.8,0-128.4-57.47-128.4-128.112v-19.374
	c0-108.029,88.081-195.918,196.348-195.918h89.305c34.487,0,68.405,9.046,98.088,26.159c3.587,2.068,8.174,0.838,10.243-2.751
	s0.838-8.175-2.751-10.243c-9.351-5.392-19.094-10.033-29.126-13.911L396.08,68.03c9.846-12.848,24.77-20.832,40.945-21.906
	c16.181-1.073,32.042,4.872,43.508,16.314c11.457,11.434,17.414,27.243,16.344,43.374c-1.071,16.139-9.071,31.03-21.948,40.857
	l-11.21,8.554c-9.275-11.182-19.768-21.513-31.419-30.783c-3.241-2.577-7.959-2.042-10.538,1.2c-2.579,3.241-2.042,7.959,1.2,10.538
	C470.014,173.613,497,229.479,497,289.453V308.827z M184.099,223.834c-14.841,0-26.914,12.056-26.914,26.873
	c0,14.818,12.073,26.874,26.914,26.874s26.914-12.056,26.914-26.874C211.013,235.89,198.939,223.834,184.099,223.834z
	 M184.099,262.581c-6.569,0-11.914-5.327-11.914-11.874s5.345-11.873,11.914-11.873s11.914,5.326,11.914,11.873
	S190.668,262.581,184.099,262.581z M354.815,250.707c0-14.817-12.073-26.873-26.914-26.873s-26.914,12.056-26.914,26.873
	c0,14.818,12.073,26.874,26.914,26.874S354.815,265.525,354.815,250.707z M327.901,262.581c-6.569,0-11.914-5.327-11.914-11.874
	s5.345-11.873,11.914-11.873s11.914,5.326,11.914,11.873S334.471,262.581,327.901,262.581z M198.836,414.734l-5.91-5.055
	c-3.149-2.69-7.883-2.322-10.575,0.825c-2.691,3.148-2.322,7.883,0.825,10.575l5.91,5.054
	c18.687,15.983,44.056,20.402,66.914,11.853c7.674,2.871,15.63,4.28,23.523,4.279c15.614,0,30.978-5.515,43.391-16.131l5.91-5.055
	c3.147-2.692,3.517-7.427,0.825-10.575c-2.693-3.147-7.425-3.517-10.575-0.825l-5.91,5.056
	c-13.887,11.879-32.531,15.516-49.664,9.976v-43.438l21.411-10.683c10.743-5.36,17.417-16.14,17.417-28.13
	c0-17.34-14.13-31.446-31.497-31.446h-29.662c-17.367,0-31.497,14.106-31.497,31.446c0,11.99,6.674,22.77,17.417,28.13
	l21.411,10.683v43.439C231.368,430.252,212.724,426.613,198.836,414.734z M224.672,342.46c0-9.068,7.4-16.446,16.497-16.446h29.662
	c9.097,0,16.497,7.378,16.497,16.446c0,6.267-3.492,11.902-9.114,14.708L256,368.251l-22.214-11.083
	C228.164,354.362,224.672,348.727,224.672,342.46z"/>
<g>
</g>
<g>
</g>
<g>
</g>
<g>
</g>
<g>
</g>
<g>
</g>
<g>
</g>
<g>
</g>
<g>
</g>
<g>
</g>
<g>
</g>
<g>
</g>
<g>
</g>
<g>
</g>
<g>
</g>
</svg>
