<?xml version="1.0" encoding="iso-8859-1"?>
<!-- Generator: Adobe Illustrator 19.0.0, SVG Export Plug-In . SVG Version: 6.00 Build 0)  -->
<svg version="1.1" id="Capa_1" xmlns="http://www.w3.org/2000/svg" xmlns:xlink="http://www.w3.org/1999/xlink" x="0px" y="0px"
	 viewBox="0 0 512 512" style="enable-background:new 0 0 512 512;" xml:space="preserve">
<path style="fill:#A06E5F;" d="M318.125,93.981v125.897c0,68.935-56.397,124.094-125.332,124.28c-0.8,0.002-1.598,0.015-2.393,0.039
	c-27.024,0.798-48.325,23.367-48.325,50.403l0,0c0,9.008,4.502,17.421,11.997,22.417l3.803,2.535
	c7.495,4.997,11.997,13.409,11.997,22.417v41.176H40.151v-40.581c0-9.334,4.831-18.002,12.768-22.913l7.668-4.744
	c5.839-3.612,10.024-9.332,11.85-15.951c14.62-53.008,63.327-92.023,120.956-91.862c48.476,0.136,87.669-39.549,87.669-88.025
	V94.425c0-10.049,7.814-18.607,17.856-18.964C309.461,75.087,318.125,83.521,318.125,93.981z"/>
<path style="fill:#7DB764;" d="M504.5,107.441L504.5,107.441c0,22.794-18.478,41.273-41.273,41.273h-82.826
	c-3.325,19.037-19.922,33.512-39.911,33.512H40.721c-18.348,0-33.221-14.874-33.221-33.221l0,0c0-10.859,5.307-21.032,14.213-27.246
	l60.049-41.895c30.27-21.119,66.29-32.442,103.199-32.442l0,0c21.266,0,42.34,3.766,62.257,11.092
	C267.844,27.139,303.159,7.5,341.804,7.5l0,0c19.769,0,39.194,5.177,56.341,15.015l85.622,49.127
	C496.591,79.001,504.5,92.656,504.5,107.441z"/>
<path style="fill:#74A45F;" d="M504.5,107.441L504.5,107.441c0,22.794-18.478,41.273-41.273,41.273h-82.826
	c-3.324,19.037-19.922,33.512-39.911,33.512H40.721c-17.977,0-32.609-14.281-33.193-32.115c4.199,1.917,8.862,2.994,13.779,2.994
	h299.769c16.04,0,29.895-9.32,36.462-22.839c3.202-6.593,10.002-10.673,17.332-10.673h68.943c22.794,0,41.273-18.478,41.273-41.273
	l0,0c0-2.081-0.173-4.135-0.478-6.157C496.928,79.629,504.5,92.987,504.5,107.441z"/>
<path style="fill:#D2B48C;" d="M247.684,504.5H50.018c-14.759,0-26.724-11.965-26.724-26.724l0,0c0-10.74,6.43-20.437,16.323-24.617
	l66.668-28.169c14.648-6.189,30.387-9.378,46.289-9.378l0,0c24.337,0,48.089,7.467,68.049,21.392l39.596,27.625
	c5.872,4.097,9.372,10.805,9.372,17.966l0,0C269.59,494.692,259.782,504.5,247.684,504.5z"/>
<path style="fill:#E6C8A0;" d="M220.622,437.003l19.718,13.757c0.08,0.759,0.129,1.525,0.129,2.297
	c0,12.098-9.808,21.906-21.906,21.906H23.46c1.014-9.592,7.137-17.993,16.157-21.804l66.668-28.17
	c14.648-6.189,30.387-9.378,46.289-9.378l0,0C176.911,415.611,200.663,423.078,220.622,437.003z"/>
<path style="fill:#8CE16E;" d="M226.58,193.877L226.58,193.877c0,15.009-12.168,27.177-27.177,27.177h-122.8
	c-16.72,0-30.275-13.554-30.275-30.275c0-3.63,0.653-7.231,1.928-10.63l1.391-3.711c10.911-29.096,38.726-48.372,69.801-48.372l0,0
	c13.018,0,25.808,3.409,37.1,9.887l56.38,32.349C221.372,175.15,226.58,184.141,226.58,193.877z M496.597,255.382l-33.389-23.295
	c-16.831-11.743-36.86-18.039-57.382-18.039l0,0c-13.409,0-26.682,2.689-39.033,7.908l-56.218,23.754
	c-8.342,3.525-13.764,11.702-13.764,20.758l0,0c0,12.446,10.089,22.535,22.535,22.535h166.682c10.202,0,18.472-8.27,18.472-18.472
	C504.5,264.494,501.549,258.837,496.597,255.382z"/>
<path style="fill:#7DC86E;" d="M226.58,193.877c0,15.009-12.168,27.177-27.178,27.177h-13.834c3.97-4.725,6.365-10.817,6.365-17.47
	c0-9.736-5.208-18.728-13.652-23.573L121.9,147.662c-11.291-6.478-24.082-9.887-37.1-9.887c-0.732,0-1.46,0.021-2.188,0.042
	c10.99-6.25,23.614-9.749,36.834-9.749l0,0c13.018,0,25.808,3.409,37.1,9.887l56.38,32.349
	C221.372,175.15,226.58,184.141,226.58,193.877z M496.597,255.382l-33.389-23.295c-16.831-11.743-36.86-18.039-57.382-18.039l0,0
	c-8.543,0-17.03,1.096-25.26,3.238c11.45,2.975,22.354,7.955,32.166,14.8l33.389,23.295c4.952,3.455,7.903,9.112,7.903,15.15
	c0,10.202-8.27,18.472-18.472,18.472h50.477c10.202,0,18.472-8.27,18.472-18.472C504.5,264.494,501.549,258.837,496.597,255.382z"/>
<path d="M500.889,249.23l-33.39-23.295c-18.181-12.684-39.507-19.388-61.674-19.388c-14.489,0-28.604,2.859-41.952,8.5
	l-38.753,16.375c0.335-3.834,0.505-7.691,0.505-11.545v-30.15h14.865c21.227,0,39.573-13.762,45.788-33.513h19.695
	c4.143,0,7.5-3.357,7.5-7.5s-3.357-7.5-7.5-7.5H380.4c-3.645,0-6.762,2.62-7.389,6.21c-2.762,15.82-16.439,27.303-32.521,27.303
	H228.292c-2.934-4.43-6.883-8.203-11.631-10.927l-56.38-32.35c-12.408-7.12-26.527-10.883-40.832-10.883
	c-34.009,0-64.882,21.395-76.823,53.238l-0.345,0.921h-1.559C26.538,174.727,15,163.188,15,149.005
	c0-8.401,4.113-16.287,11.004-21.094l60.049-41.895c29.155-20.342,63.357-31.094,98.908-31.094c20.413,0,40.488,3.577,59.668,10.631
	c3.273,1.202,6.941-0.006,8.855-2.919C273.094,32.808,306.11,15,341.805,15c18.431,0,36.622,4.849,52.608,14.021l85.622,49.127
	C490.499,84.152,497,95.377,497,107.441c0,18.622-15.15,33.772-33.772,33.772h-28.133c-4.143,0-7.5,3.357-7.5,7.5s3.357,7.5,7.5,7.5
	h28.133c26.894,0,48.772-21.879,48.772-48.772c0-17.423-9.388-33.633-24.5-42.304L401.878,16.01C383.623,5.536,362.851,0,341.805,0
	c-38.787,0-74.807,18.416-97.498,49.548c-19.169-6.39-39.104-9.625-59.346-9.625c-38.636,0-75.806,11.685-107.49,33.791
	l-60.049,41.895C6.513,123.219,0,135.703,0,149.006c0,21.827,17.264,39.693,38.853,40.673c-0.011,0.367-0.025,0.733-0.025,1.101
	c0,20.829,16.945,37.774,37.774,37.774h50.446l0.606,0.908c15.829,23.744,42.316,37.92,70.854,37.92h59.041
	c-2.341,3.126-4.919,6.107-7.734,8.915c-15.072,15.029-35.013,23.297-56.174,23.297c-0.198,0-0.399-0.001-0.598-0.001
	c-59.477,0-112.012,39.993-127.837,97.369c-1.344,4.874-4.386,8.981-8.564,11.567l-7.668,4.743
	c-10.221,6.322-16.322,17.271-16.322,29.29v5.737c-10.363,6.092-16.857,17.218-16.857,29.475C15.795,496.646,31.149,512,50.02,512
	h142.886c4.143,0,7.5-3.357,7.5-7.5s-3.357-7.5-7.5-7.5H50.019c-10.601,0-19.225-8.624-19.225-19.225
	c0-7.743,4.609-14.694,11.742-17.708l66.668-28.17c13.798-5.83,28.389-8.786,43.369-8.786c22.916,0,44.963,6.931,63.758,20.044
	l39.596,27.625c3.859,2.691,6.163,7.108,6.163,11.813c0,7.943-6.463,14.406-14.406,14.406h-26.952c-4.143,0-7.5,3.357-7.5,7.5
	s3.357,7.5,7.5,7.5h26.952c16.215,0,29.406-13.191,29.406-29.406c0-9.605-4.703-18.621-12.581-24.116l-39.596-27.625
	c-20.64-14.399-44.741-22.207-69.844-22.694c-0.04-0.044-0.075-0.092-0.116-0.135c-3.468-3.633-5.378-8.4-5.378-13.425
	c0-22.989,18.413-42.236,41.046-42.905c0.728-0.021,1.458-0.033,2.192-0.035c22.609-0.062,44.486-5.885,63.756-16.363
	c0.239,0.023,0.48,0.037,0.724,0.037h81.374c20.08,0,38.791-8.993,51.336-24.673l11.324-14.155h84.7
	c14.321,0,25.973-11.651,25.973-25.973C512,262.049,507.847,254.086,500.889,249.23z M53.828,190.78c0-1.958,0.26-3.888,0.753-5.767
	c0.165-0.412,0.299-0.839,0.39-1.283c0.103-0.315,0.19-0.635,0.307-0.946l1.392-3.711c9.759-26.022,34.987-43.506,62.778-43.506
	c11.689,0,23.228,3.075,33.367,8.893l56.38,32.35c6.098,3.498,9.885,10.038,9.885,17.067c0,10.851-8.827,19.678-19.678,19.678
	h-122.8C64.045,213.555,53.828,203.338,53.828,190.78z M198.508,252.383c-20.365,0-39.459-8.768-52.681-23.828h53.575
	c19.121,0,34.678-15.557,34.678-34.678c0-1.397-0.097-2.781-0.263-4.15h39.744v29.343c0,11.686-2.482,22.981-7.159,33.313H198.508z
	 M192.774,336.658c-0.867,0.002-1.732,0.016-2.596,0.041c-15.017,0.444-29.045,6.724-39.501,17.683
	c-10.384,10.882-16.103,25.165-16.103,40.217c0,5.035,1.085,9.925,3.138,14.388c-11.79,1.387-23.294,4.424-34.347,9.095
	L47.68,441.61c0.307-6.406,3.686-12.179,9.183-15.58l7.669-4.743c7.406-4.582,12.78-11.804,15.134-20.335
	c14.036-50.891,60.623-86.356,113.376-86.356c0.197,0.001,0.402,0.001,0.6,0c25.158,0,48.859-9.822,66.763-27.676
	c18.157-18.105,28.156-42.202,28.156-67.85v-29.343h22.063v30.15c0,6.132-0.483,12.268-1.433,18.275l-1.537,0.649
	c-11.145,4.709-18.346,15.569-18.346,27.667c0,5.311,1.391,10.3,3.82,14.633C271.758,315.339,233.606,336.548,192.774,336.658z
	 M378.291,301.288c-9.683,12.103-24.124,19.044-39.623,19.044h-60.093c9.646-8.066,18.18-17.518,25.253-28.156
	c4.532,2.746,9.843,4.328,15.517,4.328h62.772L378.291,301.288z M486.027,281.504H319.346c-8.291,0-15.036-6.745-15.036-15.035
	c0-6.057,3.604-11.493,9.184-13.851l56.218-23.754c11.491-4.854,23.642-7.316,36.114-7.316c19.082,0,37.44,5.771,53.092,16.69
	l33.389,23.294c2.939,2.052,4.694,5.415,4.694,8.999C497,276.582,492.078,281.504,486.027,281.504z"/>
<g>
</g>
<g>
</g>
<g>
</g>
<g>
</g>
<g>
</g>
<g>
</g>
<g>
</g>
<g>
</g>
<g>
</g>
<g>
</g>
<g>
</g>
<g>
</g>
<g>
</g>
<g>
</g>
<g>
</g>
</svg>
